<?xml version="1.0" encoding="UTF-8"?><svg id="Layer_2" xmlns="http://www.w3.org/2000/svg" viewBox="0 0 1448 1231"><defs><style>.cls-1{fill:#f0336c;}.cls-2{fill:#f246cc;}.cls-3{fill:#fdfdfd;}.cls-4{fill:#6c6ff5;}.cls-5{opacity:.4;}.cls-6{opacity:.5;}</style></defs><g id="Layer_1-2"><g class="cls-6"><path class="cls-2" d="m194.59,186.85l81.69-67.03c38.62-31.69,89.48-44.71,138.88-35.57,61.86,11.45,112.4,55.88,131.31,115.45l21.96,69.19c32.8,103.33-9.18,215.28-101.95,271.84l-5.62,3.43c-98.85,60.27-227.75,38.08-300.94-51.8-72.98-94.9-57.68-229.72,34.67-305.5Z"/></g><g class="cls-6"><path class="cls-3" d="m681.6,534.42l135.51,4.29c43.47,1.38,84.42,20.5,113.29,52.91,41.99,47.14,51.92,114.76,25.26,172.15l-19.67,42.36c-43.43,93.51-143.72,146.93-245.46,130.76l-35.01-5.57c-103.25-16.42-178.42-106.29-176.29-210.77,5.46-106.67,95.54-189.51,202.37-186.13Z"/></g><g class="cls-6"><path class="cls-4" d="m807.24,173.31l87.32.77c56.55.5,109.57,27.26,143.43,72.39,38.49,51.28,46.96,119.13,22.29,178.47l-38.68,93.06c-43.3,104.16-152.44,165.19-263.76,147.49-121.7-19.35-209.43-126.58-204.25-249.65l.34-8.17c9.05-132.69,120.22-235.54,253.31-234.37Z"/></g><g class="cls-6"><path class="cls-1" d="m998.06,309.27l181.79,5.76c58.31,1.85,113.25,27.5,151.98,70.98,56.34,63.23,69.65,153.95,33.89,230.94l-26.4,56.82c-58.26,125.44-192.8,197.11-329.28,175.41l-46.97-7.47c-138.51-22.02-239.36-142.59-236.5-282.75,7.33-143.1,128.16-254.23,271.48-249.69Z"/></g><g class="cls-5"><rect width="1448" height="1231"/></g></g></svg>