<?xml version="1.0" encoding="UTF-8"?><svg id="Layer_2" xmlns="http://www.w3.org/2000/svg" xmlns:xlink="http://www.w3.org/1999/xlink" viewBox="0 0 1395.09 803.41"><defs><style>.cls-1{fill:url(#linear-gradient);isolation:isolate;opacity:.6;}.cls-2{mask:url(#mask);}.cls-3{fill:none;stroke:#fff;stroke-miterlimit:10;stroke-width:.5px;}</style><mask id="mask" x="-699.53" y="0" width="2794.45" height="969.37" maskUnits="userSpaceOnUse"><path class="cls-3" d="m-699.37,337.68c160.32-124.16,407.19-119.49,562.7,10.64,104.04,87.06,171.3,222.64,297.28,272.97,105.96,42.33,226.39,12.32,332.87-28.68,106.47-41.01,212.47-93.47,326.54-95.71,115.56-2.27,225.7,47.67,325.43,106.09,99.74,58.42,194.76,126.82,302.81,167.88,108.04,41.06,235.11,51.42,335.43-5.99"/><path class="cls-3" d="m-698.12,328.31c144.79-106.01,366.29-105.54,523.3-5.07,12.64,8.09,24.85,16.83,36.57,26.23,54.7,43.83,99.73,99.95,148.13,150.82,44.73,47.06,92.47,89.64,153.16,113.73,20.73,8.23,41.98,13.86,63.51,17.35,88.82,14.41,182-7.93,266.82-37.62,39.4-13.78,78.83-29.2,118.9-43.31,67.09-23.66,135.67-43.81,207.3-44.95,8.88-.14,17.72.01,26.53.44,106.22,5.21,207.61,50.92,300.39,103.66,100.48,57.12,196.37,123.94,304.93,164.18,108.55,40.24,235.59,50.64,336.63-4.86"/><path class="cls-3" d="m-696.87,318.94c141.2-97.11,361.69-91.62,520.11,6.22,12.75,7.88,25.09,16.36,36.95,25.46,55.36,42.44,101.29,96.36,150.52,145.43,45.44,45.41,93.94,86.69,154.78,110.69,20.8,8.2,42.06,13.96,63.55,17.74,88.68,15.6,180.3-3.22,264.23-29.59,38.99-12.22,78.12-26.14,118.14-39.05,66.98-21.67,135.9-40.88,207.72-41.77,8.9-.11,17.77.07,26.6.51,106.51,5.37,208.35,50.07,301.81,101.61,101.22,55.82,197.99,121.06,307.05,160.48,109.06,39.42,236.08,49.85,337.84-3.73"/><path class="cls-3" d="m-695.61,309.57c137.62-88.21,357.1-77.7,516.92,17.5,12.86,7.66,25.33,15.89,37.32,24.69,56.01,41.05,102.85,92.78,152.91,140.05,46.15,43.75,95.41,83.74,156.41,107.65,20.86,8.17,42.14,14.06,63.6,18.12,88.55,16.78,178.6,1.49,261.64-21.56,38.59-10.66,77.41-23.07,117.38-34.79,66.88-19.68,136.12-37.96,208.14-38.59,8.92-.08,17.81.12,26.67.58,106.81,5.52,209.09,49.23,303.23,99.57,101.96,54.51,199.6,118.18,309.17,156.78,109.57,38.6,236.57,49.06,339.05-2.6"/><path class="cls-3" d="m-694.36,300.2c134.03-79.32,352.5-63.77,513.72,28.79,12.98,7.45,25.56,15.42,37.69,23.92,56.67,39.66,104.41,89.19,155.29,134.66,46.85,42.1,96.89,80.8,158.03,104.61,20.92,8.14,42.22,14.15,63.65,18.51,88.41,17.96,176.9,6.21,259.05-13.53,38.19-9.11,76.7-20.01,116.63-30.52,66.76-17.7,136.33-35.03,208.55-35.4,8.94-.05,17.86.17,26.74.64,107.11,5.68,209.82,48.38,304.65,97.52,102.7,53.21,201.21,115.3,311.3,153.08,110.07,37.78,237.05,48.28,340.25-1.47"/><path class="cls-3" d="m-693.11,290.83c130.44-70.42,347.9-49.85,510.53,40.07,13.09,7.24,25.8,14.95,38.06,23.15,57.33,38.27,105.97,85.6,157.68,129.28,47.56,40.45,98.36,77.85,159.66,101.57,20.98,8.11,42.3,14.25,63.7,18.89,88.27,19.15,175.19,10.92,256.46-5.5,37.78-7.56,75.99-16.94,115.87-26.26,66.65-15.71,136.55-32.11,208.97-32.22,8.96-.02,17.9.22,26.8.71,107.42,5.84,210.57,47.54,306.08,95.47,103.44,51.91,202.82,112.42,313.42,149.38,110.58,36.96,237.53,47.49,341.46-.34"/><path class="cls-3" d="m-691.85,281.46c126.85-61.52,343.31-35.93,507.34,51.36,13.2,7.03,26.03,14.47,38.43,22.38,57.98,36.88,107.53,82.01,160.07,123.89,48.27,38.79,99.83,74.9,161.29,98.53,21.05,8.09,42.38,14.35,63.74,19.28,88.12,20.33,173.48,15.63,253.86,2.53,37.38-6,75.28-13.88,115.11-22,66.55-13.72,136.77-29.18,209.39-29.03,8.99.02,17.95.28,26.87.77,107.72,5.99,211.31,46.69,307.51,93.42,104.17,50.61,204.43,109.54,315.53,145.68,111.09,36.14,238.02,46.7,342.67.78"/><path class="cls-3" d="m-690.6,272.09c123.26-52.63,338.71-22,504.14,62.64,13.32,6.81,26.27,14,38.81,21.61,58.64,35.49,109.18,78.31,162.45,118.51,49.07,37.03,101.3,71.96,162.91,95.49,21.11,8.06,42.46,14.45,63.79,19.66,87.99,21.51,171.78,20.35,251.27,10.56,36.98-4.45,74.57-10.82,114.35-17.74,66.45-11.73,137-26.25,209.81-25.85,9.01.05,17.99.33,26.94.84,108.02,6.15,212.04,45.85,308.93,91.38,104.92,49.31,206.04,106.65,317.65,141.97,111.6,35.32,238.51,45.91,343.88,1.91"/><path class="cls-3" d="m-689.35,262.72c119.68-43.73,334.11-8.08,500.95,73.92,13.43,6.6,26.51,13.53,39.18,20.85,59.3,34.1,110.75,74.7,164.84,113.12,49.78,35.36,102.78,69.01,164.54,92.44,21.17,8.03,42.55,14.54,63.84,20.04,87.85,22.7,170.08,25.06,248.68,18.59,36.57-2.89,73.85-7.75,113.59-13.47,66.34-9.75,137.22-23.33,210.22-22.66,9.04.08,18.05.38,27.02.91,108.31,6.3,212.78,45,310.35,89.33,105.65,48,207.65,103.77,319.77,138.27,112.1,34.5,238.99,45.13,345.08,3.04"/><path class="cls-3" d="m-688.09,253.35c116.09-34.83,329.52,5.84,497.76,85.21,13.54,6.39,26.74,13.06,39.55,20.08,59.95,32.71,112.32,71.1,167.23,107.74,50.49,33.69,104.25,66.06,166.16,89.4,21.23,8,42.63,14.64,63.89,20.43,87.71,23.88,168.37,29.78,246.09,26.62,36.17-1.33,73.14-4.69,112.84-9.21,66.22-7.76,137.43-20.4,210.63-19.48,9.06.11,18.09.44,27.08.97,108.62,6.46,213.52,44.16,311.78,87.28,106.4,46.7,209.26,100.89,321.9,134.57,112.6,33.68,239.47,44.34,346.28,4.17"/><path class="cls-3" d="m-686.84,243.98c112.5-25.94,324.92,19.77,494.56,96.49,13.65,6.18,26.98,12.59,39.92,19.31,60.61,31.32,113.88,67.49,169.61,102.35,51.21,32.02,105.72,63.11,167.79,86.36,21.3,7.97,42.71,14.74,63.93,20.81,87.57,25.06,166.67,34.33,243.5,34.65,35.77.15,72.43-1.62,112.08-4.95,66.12-5.77,137.65-17.47,211.05-16.3,9.09.14,18.14.49,27.15,1.04,108.92,6.61,214.26,43.31,313.2,85.23,107.14,45.4,210.88,98.01,324.02,130.87,113.11,32.86,239.96,43.55,347.49,5.29"/><path class="cls-3" d="m-685.59,234.61c108.91-17.04,320.32,33.69,491.37,107.78,13.77,5.96,27.21,12.12,40.29,18.54,61.26,29.93,115.44,63.89,172,96.97,51.92,30.36,107.19,60.17,169.41,83.32,21.36,7.94,42.79,14.84,63.98,21.2,87.44,26.25,164.98,39.04,240.91,42.68,35.37,1.7,71.72,1.44,111.32-.69,66.01-3.79,137.87-14.55,211.47-13.11,9.11.18,18.18.54,27.22,1.1,109.22,6.77,215,42.47,314.62,83.19,107.88,44.1,212.49,95.13,326.14,127.17,113.62,32.04,240.45,42.77,348.7,6.42"/><path class="cls-3" d="m-684.34,225.24c105.33-8.14,315.73,47.61,488.18,119.06,13.88,5.75,27.45,11.65,40.67,17.77,61.92,28.54,117,60.29,174.39,91.58,52.63,28.7,108.66,57.22,171.04,80.28,21.42,7.91,42.87,14.93,64.03,21.58,87.3,27.43,163.28,43.74,238.32,50.71,34.97,3.25,71.01,4.5,110.56,3.58,65.91-1.8,138.09-11.62,211.89-9.93,9.13.21,18.23.6,27.29,1.17,109.52,6.93,215.73,41.62,316.04,81.14,108.62,42.8,214.1,92.25,328.26,123.47,114.13,31.22,240.93,41.98,349.91,7.55"/><path class="cls-3" d="m-683.08,215.87c101.74.76,311.13,61.54,484.98,130.35,13.99,5.54,27.69,11.18,41.04,17,62.58,27.15,118.56,56.69,176.77,86.2,53.33,27.03,110.14,54.27,172.66,77.24,21.48,7.88,42.95,15.03,64.07,21.96,87.16,28.61,161.59,48.45,235.73,58.75,34.57,4.8,70.3,7.57,109.8,7.84,65.8.19,138.31-8.69,212.31-6.74,9.15.24,18.27.65,27.35,1.23,109.82,7.08,216.48,40.78,317.47,79.09,109.36,41.49,215.71,89.37,330.38,119.77,114.64,30.4,241.42,41.19,351.11,8.68"/><path class="cls-3" d="m-681.83,206.51c98.15,9.65,306.53,75.46,481.79,141.63,14.1,5.33,27.92,10.71,41.41,16.23,63.23,25.76,120.12,53.1,179.16,80.81,54.04,25.37,111.61,51.33,174.29,74.2,21.54,7.86,43.03,15.13,64.12,22.35,87.02,29.8,159.9,53.16,233.14,66.78,34.17,6.35,69.59,10.71,109.05,12.1,65.69,2.31,138.53-5.77,212.72-3.56,9.17.27,18.32.7,27.42,1.3,110.12,7.24,217.22,39.93,318.89,77.05,110.1,40.19,217.33,86.49,332.51,116.07,115.14,29.58,241.9,40.4,352.31,9.81"/><path class="cls-3" d="m-680.58,197.14c94.56,18.55,301.94,89.39,478.6,152.92,14.22,5.11,28.16,10.24,41.78,15.46,63.89,24.37,121.67,49.5,181.54,75.43,54.75,23.71,113.08,48.38,175.91,71.16,21.61,7.83,43.11,15.23,64.17,22.73,86.89,30.98,158.2,57.87,230.55,74.81,33.77,7.91,68.88,13.78,108.29,16.36,65.58,4.3,138.75-2.84,213.14-.37,9.19.3,18.36.76,27.49,1.36,110.42,7.39,217.95,39.09,320.31,75,110.84,38.89,218.94,83.6,334.63,112.37,115.64,28.76,242.38,39.61,353.52,10.93"/><path class="cls-3" d="m-679.32,187.77c90.98,27.45,297.34,103.31,475.4,164.2,14.33,4.9,28.39,9.77,42.15,14.7,64.55,22.98,123.23,45.91,183.93,70.04,55.45,22.05,114.55,45.43,177.54,68.12,21.67,7.8,43.2,15.32,64.22,23.12,86.75,32.16,156.51,62.58,227.96,82.84,33.37,9.46,68.16,16.84,107.53,20.62,65.47,6.29,138.97.09,213.55,2.81,9.23.34,18.42.81,27.57,1.43,110.72,7.55,218.69,38.24,321.73,72.95,111.58,37.59,220.55,80.72,336.75,108.67,116.15,27.94,242.87,38.83,354.73,12.06"/><path class="cls-3" d="m-678.07,178.4c87.39,36.35,292.74,117.23,472.21,175.48,14.44,4.69,28.63,9.3,42.52,13.93,65.2,21.59,124.79,42.31,186.32,64.66,56.16,20.39,116.03,42.49,179.16,65.08,21.73,7.77,43.28,15.42,64.26,23.5,86.6,33.35,154.82,67.3,225.36,90.87,32.97,11.02,67.45,19.91,106.77,24.89,65.36,8.28,139.19,3.01,213.97,5.99,9.25.37,18.46.86,27.64,1.5,111.02,7.71,219.42,37.39,323.15,70.9,112.32,36.29,222.16,77.84,338.87,104.97,116.66,27.12,243.36,38.04,355.94,13.19"/><path class="cls-3" d="m-676.81,169.03c83.8,45.24,288.15,131.15,469.02,186.77,14.55,4.48,28.86,8.82,42.9,13.16,65.86,20.2,126.34,38.72,188.7,59.27,56.86,18.74,117.5,39.54,180.79,62.04,21.8,7.74,43.36,15.52,64.31,23.88,86.46,34.53,153.11,72.01,222.77,98.9,32.57,12.58,66.74,22.97,106.02,29.15,65.24,10.26,139.4,5.94,214.38,9.18,9.27.4,18.51.91,27.7,1.56,111.32,7.86,220.17,36.55,324.58,68.86,113.07,34.99,223.78,74.96,341,101.27,117.16,26.3,243.84,37.25,357.14,14.32"/><path class="cls-3" d="m-675.56,159.66c80.21,54.14,283.55,145.08,465.82,198.05,14.67,4.26,29.1,8.35,43.27,12.39,66.52,18.81,127.89,35.13,191.09,53.89,57.56,17.08,118.97,36.59,182.41,59,21.86,7.71,43.44,15.62,64.36,24.27,86.33,35.71,151.42,76.73,220.18,106.93,32.17,14.13,66.02,26.03,105.26,33.41,65.13,12.25,139.62,8.86,214.8,12.36,9.29.43,18.55.97,27.77,1.63,111.62,8.02,220.91,35.7,326,66.81,113.81,33.68,225.39,72.08,343.12,97.57,117.67,25.48,244.32,36.47,358.35,15.45"/><path class="cls-3" d="m-674.31,150.29c76.63,63.04,278.95,159,462.63,209.34,14.78,4.05,29.33,7.88,43.64,11.62,67.17,17.42,129.45,31.55,193.48,48.5,58.26,15.43,120.44,33.65,184.04,55.96,21.92,7.68,43.52,15.71,64.41,24.65,86.19,36.9,149.72,81.45,217.59,114.96,31.77,15.69,65.31,29.09,104.5,37.67,65.02,14.23,139.85,11.79,215.22,15.55,9.31.46,18.6,1.02,27.84,1.69,111.92,8.17,221.64,34.86,327.42,64.76,114.55,32.38,227,69.2,345.24,93.86,118.18,24.66,244.81,35.68,359.55,16.57"/><path class="cls-3" d="m-673.06,140.92c73.04,71.93,274.36,172.92,459.44,220.62,14.89,3.84,29.57,7.41,44.01,10.85,67.83,16.03,131,27.96,195.86,43.12,58.97,13.78,121.91,30.7,185.66,52.92,21.98,7.65,43.6,15.81,64.45,25.04,86.05,38.08,148.02,86.18,215,122.99,31.37,17.25,64.6,32.15,103.74,41.93,64.91,16.22,140.07,14.72,215.64,18.73,9.34.49,18.64,1.07,27.91,1.76,112.22,8.33,222.38,34.01,328.84,62.71,115.29,31.08,228.61,66.32,347.36,90.16,118.69,23.84,245.3,34.89,360.76,17.7"/><path class="cls-3" d="m-671.8,131.55c69.45,80.83,269.76,186.85,456.24,231.91,15.01,3.63,29.81,6.94,44.39,10.08,68.48,14.64,132.55,24.38,198.25,37.73,59.67,12.13,123.39,27.75,187.29,49.88,22.05,7.62,43.69,15.91,64.5,25.42,85.91,39.26,146.33,90.9,212.41,131.02,30.97,18.81,63.91,35.14,102.99,46.2,64.83,18.07,140.28,17.64,216.05,21.92,9.36.53,18.69,1.13,27.98,1.83,112.52,8.49,223.11,33.17,330.26,60.67,116.03,29.78,230.23,63.44,349.49,86.46,119.19,23.02,245.78,34.1,361.96,18.83"/><path class="cls-3" d="m-670.55,122.18c65.86,89.73,265.16,200.77,453.05,243.19,15.12,3.41,30.04,6.47,44.76,9.32,69.14,13.25,134.11,20.8,200.64,32.35,60.37,10.48,124.86,24.8,188.91,46.84,22.11,7.6,43.77,16.01,64.55,25.81,85.78,40.45,144.63,95.62,209.82,139.05,30.57,20.37,63.2,38.2,102.23,50.46,64.72,20.06,140.5,20.57,216.47,25.1,9.38.56,18.74,1.18,28.04,1.89,112.83,8.64,223.86,32.32,331.69,58.62,116.77,28.47,231.84,60.56,351.61,82.76,119.7,22.2,246.26,33.32,363.17,19.96"/><path class="cls-3" d="m-669.3,112.81c62.28,98.62,260.57,214.7,449.86,254.47,15.23,3.2,30.28,6,45.13,8.55,69.8,11.86,135.66,17.22,203.02,26.96,61.07,8.83,126.33,21.86,190.54,43.79,22.17,7.57,43.85,16.1,64.6,26.19,85.64,41.63,142.92,100.35,207.22,147.09,30.18,21.93,62.5,41.27,101.48,54.72,64.62,22.05,140.72,23.5,216.89,28.28,9.4.59,18.78,1.23,28.11,1.96,113.12,8.8,224.59,31.48,333.11,56.57,117.51,27.17,233.45,57.67,353.73,79.06,120.2,21.38,246.75,32.53,364.38,21.09"/><path class="cls-3" d="m-668.04,103.44c58.69,107.52,255.97,228.62,446.66,265.76,15.35,2.99,30.52,5.53,45.5,7.78,70.45,10.47,137.22,13.64,205.41,21.58,61.78,7.19,127.8,18.91,192.16,40.75,22.23,7.54,43.93,16.2,64.64,26.57,85.5,42.82,141.12,105.19,204.63,155.12,29.73,23.55,61.78,44.33,100.72,58.98,64.51,24.03,140.94,26.42,217.31,31.47,9.42.62,18.82,1.28,28.18,2.02,113.42,8.95,225.33,30.63,334.53,54.52,118.25,25.87,235.06,54.79,355.85,75.36,120.71,20.56,247.24,31.74,365.59,22.21"/><path class="cls-3" d="m-666.79,94.07c55.1,116.42,251.37,242.54,443.47,277.04,15.46,2.78,30.75,5.06,45.87,7.01,71.11,9.08,138.77,10.06,207.79,16.19,62.48,5.55,129.28,15.96,193.79,37.71,22.29,7.51,44.01,16.3,64.69,26.96,85.36,44,139.42,109.91,202.05,163.15,29.31,25.1,61.07,47.39,99.95,63.25,64.41,26.02,141.17,29.35,217.73,34.65,9.45.65,18.87,1.34,28.25,2.09,113.72,9.11,226.07,29.79,335.95,52.48,118.99,24.57,236.67,51.91,357.97,71.66,121.22,19.74,247.72,30.95,366.79,23.34"/><path class="cls-3" d="m-665.54,84.7c51.51,125.32,246.78,256.46,440.28,288.33,15.57,2.56,30.99,4.59,46.24,6.24,71.77,7.69,140.33,6.49,210.18,10.81,63.18,3.91,130.75,13.01,195.42,34.67,22.36,7.48,44.09,16.4,64.74,27.34,85.22,45.18,137.71,114.62,199.45,171.18,28.91,26.66,60.36,50.46,99.2,67.51,64.29,28.01,141.38,32.28,218.13,37.84,9.48.68,18.93,1.39,28.32,2.15,114.03,9.26,226.81,28.94,337.38,50.43,119.73,23.27,238.29,49.03,360.1,67.96,121.72,18.92,248.2,30.17,367.99,24.47"/><path class="cls-3" d="m-664.28,75.33c47.93,134.21,242.18,270.39,437.09,299.61,15.68,2.35,31.22,4.12,46.62,5.47,72.42,6.3,141.88,2.92,212.57,5.42,63.89,2.27,132.22,10.07,197.04,31.63,22.42,7.45,44.17,16.5,64.79,27.73,85.08,46.37,136.01,119.33,196.85,179.21,28.52,28.21,59.65,53.52,98.45,71.77,64.19,30,141.6,35.2,218.55,41.02,9.5.72,18.97,1.45,28.39,2.22,114.32,9.42,227.55,28.1,338.8,48.38,120.47,21.97,239.9,46.15,362.22,64.26,122.23,18.1,248.69,29.38,369.2,25.6"/><path class="cls-3" d="m-663.03,65.97c44.34,143.11,237.58,284.31,433.89,310.89,15.8,2.14,31.46,3.64,46.99,4.71,73.08,4.91,143.44-.51,214.96.04,64.59.76,133.69,7.12,198.66,28.59,22.48,7.42,44.26,16.59,64.83,28.11,84.94,47.55,134.31,124.05,194.27,187.24,28.1,29.77,58.93,56.59,97.68,76.03,64.08,31.98,141.82,38.13,218.97,44.21,9.52.75,19.02,1.5,28.46,2.29,114.62,9.58,228.29,27.25,340.22,46.33,121.22,20.66,241.51,43.27,364.34,60.56,122.74,17.28,249.17,28.59,370.41,26.73"/><path class="cls-3" d="m-661.78,56.6c40.75,152.01,232.99,298.23,430.7,322.18,15.91,1.93,31.69,3.17,47.36,3.94,73.74,3.52,145-4.1,217.34-5.35,65.3-.9,135.16,4.17,200.29,25.55,22.54,7.39,44.34,16.69,64.88,28.49,84.8,48.73,132.6,128.76,191.68,195.27,27.7,31.32,58.22,59.65,96.92,80.29,63.98,33.97,142.04,41.06,219.39,47.39,9.54.78,19.06,1.55,28.53,2.35,114.92,9.73,229.02,26.41,341.64,44.29,121.96,19.36,243.12,40.39,366.46,56.86,123.25,16.46,249.66,27.8,371.62,27.85"/><path class="cls-3" d="m-660.52,47.23c37.16,160.9,228.39,312.16,427.51,333.46,16.02,1.71,31.93,2.7,47.73,3.17,74.39,2.13,146.56-7.69,219.73-10.73,66.01-2.55,136.64,1.23,201.92,22.51,22.61,7.37,44.42,16.79,64.93,28.88,84.66,49.92,130.9,133.47,189.08,203.3,27.31,32.88,57.52,62.71,96.17,84.56,63.87,35.96,142.26,43.98,219.81,50.57,9.56.81,19.11,1.61,28.59,2.42,115.23,9.89,229.77,25.56,343.07,42.24,122.7,18.06,244.74,37.51,368.58,53.16,123.76,15.64,250.15,27.02,372.83,28.98"/><path class="cls-3" d="m-659.27,37.86c33.58,169.8,223.79,326.08,424.31,344.75,16.13,1.5,32.17,2.23,48.1,2.4,75.05.74,148.12-11.28,222.11-16.12,66.72-4.21,138.11-1.72,203.54,19.47,22.67,7.34,44.5,16.88,64.98,29.26,84.53,51.1,129.2,138.19,186.5,211.33,26.89,34.43,56.8,65.78,95.41,88.82,63.76,37.94,142.48,46.91,220.22,53.76,9.59.84,19.15,1.66,28.66,2.48,115.53,10.04,230.5,24.72,344.5,40.19,123.43,16.76,246.34,34.63,370.7,49.46,124.25,14.82,250.63,26.23,374.02,30.11"/><path class="cls-3" d="m-658.02,28.49c29.99,178.7,219.2,340,421.12,356.03,16.25,1.29,32.4,1.76,48.47,1.63,75.71-.65,149.68-14.87,224.5-21.5,67.43-5.86,139.58-4.67,205.17,16.43,22.73,7.31,44.58,16.98,65.02,29.65,84.39,52.28,127.5,142.9,183.91,219.36,26.49,35.99,56.09,68.84,94.65,93.08,63.65,39.93,142.7,49.84,220.64,56.94,9.61.88,19.2,1.71,28.73,2.55,115.83,10.2,231.24,23.87,345.92,38.14,124.17,15.46,247.95,31.74,372.82,45.76,124.76,14,251.11,25.44,375.23,31.24"/><path class="cls-3" d="m-656.76,19.12c26.4,187.6,214.6,353.93,417.93,367.32,16.36,1.08,32.64,1.29,48.85.86,76.36-2.04,151.24-18.45,226.89-26.89,68.14-7.51,141.05-7.61,206.79,13.39,22.79,7.28,44.66,17.08,65.07,30.03,84.25,53.46,125.79,147.62,181.31,227.39,26.1,37.54,55.39,71.9,93.9,97.34,63.55,41.92,142.92,52.76,221.06,60.13,9.63.91,19.24,1.76,28.8,2.61,116.12,10.36,231.98,23.02,347.34,36.1,124.91,14.15,249.56,28.86,374.94,42.05,125.27,13.18,251.6,24.66,376.44,32.37"/><path class="cls-3" d="m-655.51,9.75c22.81,196.49,210,367.85,414.73,378.6,16.47.86,32.87.82,49.22.09,77.02-3.43,152.8-22.04,229.27-32.27,68.85-9.17,142.53-10.56,208.42,10.35,22.86,7.25,44.74,17.18,65.12,30.42,84.11,54.65,124.09,152.33,178.72,235.43,25.69,39.1,54.68,74.97,93.14,101.61,63.44,43.91,143.14,55.69,221.48,63.31,9.65.94,19.29,1.82,28.86,2.68,116.43,10.51,232.72,22.18,348.77,34.05,125.65,12.85,251.18,25.98,377.06,38.35,125.78,12.36,252.09,23.87,377.65,33.49"/><path class="cls-3" d="m-654.26.38c19.23,205.39,205.41,381.77,411.54,389.88,94.75,3.73,187.55-23.76,281.25-38.33s196.25-14.39,275.21,38.11c123.48,82.1,148.44,262.32,268.51,349.32,71.14,51.55,163.34,61.25,250.83,69.24,369.41,33.76,738.82,67.52,1108.23,101.28"/><path class="cls-3" d="m1928.99,901.1c-234.21-21.83-468.75-41.43-701.99-59.2-109.74-8.36-219.21-16.34-329.12-24.97-22.88-1.8-45.79-3.63-68.71-5.51-86.97-7.09-178.75-16.48-249.52-67.75-59.32-42.98-95.06-109.04-130.45-174.66-36.3-67.28-72.36-134.3-133.71-176.74-59.78-41.39-134.2-52.46-208.32-48.22-21.98,1.25-43.87,3.86-65.29,7.33-22.97,3.72-45.86,8.31-68.67,13.07-44.31,9.26-88.39,19.18-132.85,24.8-25.93,3.28-51.98,5.08-78.21,4.49-205.27-4.61-393.07-175.75-416.85-378.42"/><path class="cls-3" d="m1916.66,892.32c-232.88-22.13-466.45-39.81-697.41-53.84-108.67-6.6-216.79-12.43-325.79-19.56-22.69-1.49-45.43-3.05-68.21-4.69-86.43-6.19-177.81-15.26-248.21-66.27-59.37-43.01-94.76-109.47-129.32-175.37-35.45-67.5-70.32-134.81-130.49-178.11-58.64-42.29-132.52-55.05-206.68-51.1-22,1.17-43.91,3.82-65.32,7.42-22.95,3.85-45.79,8.68-68.48,13.74-44.09,9.82-87.78,20.49-131.94,26.85-25.76,3.71-51.67,5.95-77.8,5.81-204.41-1.11-393.83-167.01-422.16-366.97"/><path class="cls-3" d="m1904.34,883.53c-231.56-22.43-464.16-38.19-692.84-48.47-107.59-4.84-214.36-8.52-322.46-14.15-22.49-1.18-45.07-2.46-67.7-3.87-85.91-5.29-176.87-14.05-246.9-64.78-59.43-43.04-94.47-109.9-128.21-176.07-34.6-67.72-68.26-135.31-127.25-179.48-57.51-43.18-130.86-57.64-205.05-53.99-22.02,1.08-43.94,3.78-65.34,7.52-22.93,3.99-45.71,9.06-68.29,14.4-43.87,10.38-87.16,21.8-131.03,28.91-25.58,4.15-51.37,6.81-77.38,7.12-203.56,2.39-394.6-158.26-427.47-355.51"/><path class="cls-3" d="m1892.02,874.75c-230.25-22.73-461.87-36.58-688.27-43.1-106.52-3.08-211.94-4.61-319.14-8.74-22.29-.87-44.71-1.87-67.19-3.05-85.38-4.39-175.93-12.84-245.59-63.29-59.48-43.07-94.16-110.33-127.08-176.77-33.76-67.95-66.22-135.82-124.03-180.85-56.38-44.07-129.19-60.23-203.41-56.87-22.04.99-43.98,3.74-65.37,7.61-22.92,4.13-45.64,9.44-68.11,15.06-43.65,10.94-86.55,23.11-130.11,30.97-25.41,4.58-51.06,7.67-76.96,8.43-202.7,5.89-395.36-149.52-432.78-344.04"/><path class="cls-3" d="m1879.7,865.96c-228.93-23.03-459.58-34.96-683.7-37.73-105.45-1.31-209.52-.7-315.81-3.32-22.1-.56-44.35-1.29-66.68-2.23-84.86-3.49-174.99-11.62-244.29-61.8-59.53-43.11-93.86-110.77-125.96-177.48-32.9-68.17-64.16-136.33-120.8-182.22-55.24-44.97-127.52-62.82-201.76-59.75-22.06.9-44.01,3.7-65.4,7.71-22.9,4.27-45.57,9.81-67.92,15.73-43.43,11.5-85.93,24.41-129.21,33.02-25.24,5.02-50.75,8.54-76.54,9.74-201.84,9.4-396.12-140.78-438.09-332.58"/><path class="cls-3" d="m1867.38,857.18c-227.61-23.34-457.3-33.34-679.13-32.37-104.37.45-207.09,3.21-312.48,2.09-21.91-.25-43.99-.7-66.18-1.41-84.33-2.59-174.05-10.41-242.97-60.31-59.59-43.14-93.57-111.2-124.84-178.18-32.06-68.39-62.12-136.84-117.57-183.6-54.11-45.86-125.86-65.41-200.13-62.63-22.08.82-44.05,3.66-65.43,7.8-22.88,4.41-45.49,10.19-67.73,16.39-43.21,12.06-85.32,25.72-128.29,35.08-25.06,5.45-50.44,9.4-76.13,11.06-200.98,12.9-396.88-132.03-443.41-321.12"/><path class="cls-3" d="m1855.05,848.4c-226.29-23.64-455-31.72-674.55-27-103.3,2.22-204.67,7.12-309.15,7.5-21.72.05-43.64-.12-65.67-.59-83.81-1.69-173.12-9.19-241.67-58.83-59.63-43.17-93.26-111.63-123.72-178.88-31.2-68.62-60.06-137.35-114.34-184.97-52.97-46.76-124.19-68.01-198.49-65.51-22.1.73-44.08,3.62-65.46,7.89-22.86,4.55-45.42,10.57-67.54,17.05-42.99,12.62-84.7,27.03-127.39,37.14-24.89,5.89-50.13,10.27-75.71,12.37-200.12,16.4-397.64-123.29-448.72-309.66"/><path class="cls-3" d="m1842.73,839.61c-224.97-23.94-452.71-30.1-669.98-21.63-102.22,3.98-202.25,11.03-305.83,12.91-21.51.36-43.27.47-65.16.23-83.28-.79-172.17-7.98-240.35-57.34-59.69-43.2-92.97-112.06-122.6-179.59-30.36-68.84-58.02-137.85-111.11-186.34-51.84-47.65-122.53-70.6-196.86-68.39-22.12.64-44.11,3.58-65.49,7.99-22.84,4.69-45.35,10.94-67.35,17.71-42.77,13.18-84.09,28.34-126.47,39.19-24.72,6.32-49.82,11.13-75.29,13.68-199.26,19.9-398.4-114.55-454.03-298.21"/><path class="cls-3" d="m1830.41,830.83c-223.65-24.24-450.42-28.49-665.41-16.27-101.15,5.74-199.82,14.94-302.5,18.32-21.32.67-42.91,1.05-64.65,1.05-82.76.11-171.24-6.77-239.05-55.85-59.74-43.23-92.67-112.49-121.48-180.29-29.51-69.07-55.96-138.36-107.88-187.71-50.71-48.54-120.86-73.19-195.22-71.28-22.14.56-44.15,3.54-65.52,8.08-22.82,4.83-45.28,11.32-67.16,18.38-42.55,13.74-83.47,29.65-125.57,41.25-24.55,6.76-49.51,12-74.87,14.99-198.4,23.4-399.16-105.8-459.34-286.75"/><path class="cls-3" d="m1818.09,822.04c-222.34-24.54-448.13-26.87-660.84-10.9-100.07,7.51-197.4,18.85-299.17,23.73-21.13.98-42.56,1.64-64.15,1.87-82.23,1.01-170.29-5.55-237.74-54.36-59.79-43.26-92.37-112.92-120.35-180.99-28.66-69.29-53.92-138.87-104.66-189.08-49.57-49.44-119.19-75.78-193.58-74.16-22.16.47-44.18,3.5-65.55,8.18-22.8,4.97-45.2,11.7-66.98,19.04-42.33,14.31-82.85,30.96-124.65,43.31-24.37,7.2-49.2,12.86-74.46,16.31-197.55,26.9-399.92-97.06-464.65-275.29"/><path class="cls-3" d="m1805.76,813.26c-221.01-24.85-445.83-25.25-656.26-5.53-99,9.27-194.98,22.76-295.84,29.15-20.94,1.29-42.2,2.22-63.64,2.69-81.71,1.91-169.36-4.34-236.43-52.88-59.85-43.29-92.07-113.36-119.23-181.69-27.82-69.51-51.98-139.28-101.43-190.46-48.54-50.23-117.53-78.37-191.95-77.04-22.18.38-44.22,3.46-65.58,8.27-22.78,5.11-45.13,12.07-66.79,19.7-42.12,14.87-82.24,32.27-123.74,45.36-24.2,7.63-48.89,13.73-74.04,17.62-196.69,30.4-400.68-88.32-469.96-263.82"/><path class="cls-3" d="m1793.44,804.48c-219.69-25.15-443.54-23.63-651.69-.16-97.93,11.03-192.55,26.67-292.51,34.56-20.75,1.6-41.84,2.81-63.14,3.51-81.18,2.81-168.41-3.13-235.12-51.39-59.9-43.33-91.77-113.79-118.11-182.4-26.96-69.74-49.93-139.78-98.2-191.83-47.41-51.12-115.86-80.96-190.31-79.92-22.2.3-44.25,3.42-65.61,8.37-22.76,5.24-45.06,12.45-66.6,20.37-41.9,15.43-81.62,33.58-122.83,47.42-24.03,8.07-48.58,14.59-73.62,18.93-195.83,33.9-401.44-79.57-475.27-252.37"/><path class="cls-3" d="m1781.12,795.69c-218.38-25.45-441.25-22.02-647.12,5.2-96.85,12.79-190.13,30.59-289.19,39.97-20.54,1.91-41.48,3.4-62.62,4.33-80.66,3.71-167.48-1.91-233.81-49.9-59.96-43.36-91.48-114.22-116.99-183.1-26.12-69.96-47.89-140.29-94.98-193.2-46.28-52.01-114.19-83.55-188.67-82.8-22.22.21-44.29,3.38-65.64,8.46-22.74,5.38-44.99,12.83-66.41,21.03-41.68,15.99-81.01,34.88-121.92,49.48-23.85,8.5-48.28,15.46-73.2,20.24-194.97,37.4-402.2-70.83-480.58-240.9"/><path class="cls-3" d="m1768.8,786.91c-217.06-25.75-438.96-20.4-642.55,10.57-95.78,14.56-187.71,34.5-285.86,45.38-20.35,2.22-41.12,3.98-62.12,5.15-80.13,4.61-166.53-.7-232.5-48.41-60.01-43.39-91.17-114.66-115.87-183.8-25.27-70.18-45.84-140.8-91.74-194.57-45.16-52.91-112.53-86.14-187.04-85.68-22.24.12-44.32,3.34-65.67,8.55-22.72,5.52-44.91,13.2-66.22,21.69-41.46,16.55-80.39,36.19-121.01,51.53-23.68,8.94-47.97,16.32-72.79,21.56-194.11,40.91-402.96-62.09-485.89-229.44"/><path class="cls-3" d="m1756.48,778.13c-215.74-26.05-436.67-18.78-637.98,15.94-94.7,16.32-185.28,38.41-282.53,50.79-20.16,2.53-40.76,4.57-61.61,5.97-79.61,5.52-165.6.52-231.2-46.92-60.05-43.42-90.87-115.09-114.74-184.51-24.42-70.41-43.8-141.3-88.52-195.94-44.02-53.8-110.86-88.73-185.4-88.56-22.26.04-44.36,3.3-65.7,8.65-22.7,5.66-44.84,13.58-66.03,22.36-41.24,17.11-79.78,37.5-120.1,53.59-23.51,9.37-47.66,17.19-72.37,22.87-193.25,44.41-403.72-53.35-491.2-217.99"/><path class="cls-3" d="m1744.15,769.34c-214.42-26.36-434.37-17.16-633.4,21.3-93.63,18.08-182.86,42.32-279.2,56.2-19.97,2.84-40.41,5.15-61.11,6.79-79.08,6.42-164.65,1.73-229.88-45.44-60.11-43.45-90.58-115.52-113.63-185.21-23.57-70.63-41.75-141.82-85.28-197.32-42.9-54.69-109.2-91.33-183.77-91.45-22.28-.05-44.39,3.26-65.73,8.74-22.68,5.8-44.77,13.95-65.84,23.02-41.02,17.67-79.16,38.81-119.19,55.65-23.34,9.81-47.35,18.05-71.95,24.18-192.4,47.91-404.48-44.6-496.52-206.53"/><path class="cls-3" d="m1731.83,760.56c-213.1-26.66-432.08-15.54-628.83,26.67-92.55,19.85-180.44,46.23-275.88,61.61-19.77,3.15-40.04,5.74-60.59,7.61-78.56,7.32-163.72,2.94-228.58-43.95-60.16-43.48-90.27-115.95-112.5-185.91-22.73-70.86-39.71-142.32-82.06-198.69-41.77-55.59-107.53-93.92-182.13-94.33-22.3-.14-44.42,3.22-65.76,8.84-22.66,5.94-44.7,14.33-65.65,23.68-40.8,18.23-78.55,40.12-118.28,57.7-23.16,10.24-47.04,18.91-71.53,25.49-191.54,51.41-405.24-35.86-501.83-195.07"/><path class="cls-3" d="m1719.51,751.77c-211.78-26.96-429.79-13.93-624.26,32.04-91.48,21.61-178.01,50.14-272.55,67.03-19.57,3.46-39.68,6.32-60.09,8.43-78.03,8.22-162.78,4.16-227.26-42.46-60.22-43.52-89.98-116.38-111.39-186.62-21.87-71.08-37.66-142.84-78.83-200.06-40.63-56.49-105.86-96.51-180.49-97.21-22.32-.23-44.46,3.18-65.79,8.93-22.64,6.08-44.62,14.71-65.47,24.34-40.58,18.79-77.93,41.43-117.37,59.76-22.99,10.68-46.73,19.78-71.11,26.81-190.68,54.91-406-27.11-507.14-183.61"/><path class="cls-3" d="m1707.19,742.99c-210.47-27.26-427.5-12.31-619.69,37.41-90.41,23.37-175.59,54.05-269.22,72.44-19.38,3.76-39.33,6.91-59.58,9.25-77.51,9.12-161.84,5.37-225.96-40.97-60.27-43.55-89.68-116.82-110.26-187.32-21.03-71.3-35.61-143.35-75.6-201.43-39.5-57.38-104.2-99.1-178.86-100.09-22.34-.31-44.49,3.14-65.82,9.03-22.62,6.22-44.55,15.08-65.28,25.01-40.36,19.35-77.32,42.74-116.46,61.82-22.82,11.12-46.42,20.64-70.7,28.12-189.82,58.41-406.76-18.37-512.45-172.15"/><path class="cls-3" d="m1694.87,734.21c-209.15-27.56-425.21-10.69-615.12,42.77-89.33,25.14-173.17,57.96-265.89,77.85-19.19,4.07-38.97,7.49-59.08,10.07-76.98,10.02-160.9,6.59-224.65-39.48-60.32-43.58-89.38-117.25-109.14-188.02-20.18-71.53-33.56-143.86-72.37-202.81-38.37-58.28-102.53-101.69-177.22-102.97-22.36-.4-44.53,3.1-65.85,9.12-22.6,6.36-44.48,15.46-65.09,25.67-40.14,19.91-76.7,44.04-115.55,63.87-22.65,11.55-46.12,21.51-70.28,29.43-188.96,61.91-407.52-9.63-517.76-160.69"/><path class="cls-3" d="m1682.54,725.42c-207.82-27.87-422.91-9.07-610.54,48.14-88.26,26.9-170.75,61.87-262.57,83.26-18.99,4.38-38.6,8.08-58.56,10.89-76.46,10.92-159.96,7.8-223.34-38-60.38-43.61-89.08-117.68-108.02-188.72-19.33-71.75-31.52-144.37-69.14-204.18-37.24-59.18-100.87-104.28-175.59-105.85-22.39-.49-44.56,3.06-65.88,9.22-22.58,6.5-44.4,15.84-64.9,26.33-39.92,20.47-76.08,45.35-114.64,65.93-22.47,11.99-45.81,22.37-69.86,30.75-188.1,65.41-408.29-.89-523.07-149.23"/><path class="cls-3" d="m1670.22,716.64c-206.51-28.17-420.62-7.45-605.97,53.51-87.18,28.66-168.32,65.78-259.24,88.67-18.8,4.69-38.25,8.67-58.06,11.7-75.92,11.82-159.02,9.01-222.03-36.51-60.43-43.64-88.78-118.11-106.89-189.43-18.49-71.97-29.47-144.89-65.92-205.55-36.1-60.08-99.2-106.87-173.95-108.74-22.41-.57-44.6,3.02-65.91,9.31-22.56,6.63-44.33,16.21-64.71,27-39.71,21.03-75.47,46.66-113.73,67.99-22.3,12.42-45.5,23.24-69.44,32.06-187.24,68.91-409.05,7.86-528.38-137.77"/><path class="cls-3" d="m1657.9,707.86c-205.19-28.47-418.33-5.84-601.4,58.87-86.11,30.43-165.9,69.69-255.91,94.08-18.6,5-37.89,9.25-57.55,12.52-75.4,12.72-158.08,10.23-220.72-35.02-60.48-43.67-88.48-118.54-105.78-190.13-17.63-72.2-27.41-145.4-62.68-206.92-34.97-60.98-97.54-109.46-172.31-111.62-22.43-.66-44.63,2.98-65.93,9.4-22.54,6.77-44.26,16.59-64.52,27.66-39.49,21.6-74.85,47.97-112.82,70.04-22.13,12.86-45.19,24.1-69.03,33.37-186.38,72.41-409.81,16.6-533.69-126.31"/><path class="cls-3" d="m1645.58,699.07c-203.87-28.77-416.04-4.22-596.83,64.24-85.03,32.19-163.48,73.6-252.58,99.49-18.41,5.31-37.53,9.84-57.05,13.34-74.87,13.62-157.14,11.44-219.41-33.53-60.53-43.71-88.18-118.98-104.65-190.83-16.79-72.42-25.36-145.91-59.46-208.29-33.83-61.88-95.87-112.05-170.67-114.5-22.45-.75-44.67,2.94-65.96,9.5-22.53,6.91-44.18,16.97-64.34,28.32-39.27,22.15-74.24,49.28-111.91,72.1-21.96,13.29-44.88,24.97-68.61,34.68-185.52,75.92-410.57,25.35-539-114.85"/><path class="cls-3" d="m1633.25,690.29c-202.55-29.08-413.74-2.6-592.25,69.61-83.96,33.95-161.05,77.51-249.26,104.9-18.21,5.62-37.17,10.42-56.53,14.16-74.35,14.52-156.2,12.65-218.11-32.04-60.58-43.74-87.88-119.41-103.53-191.54-15.93-72.65-23.3-146.43-56.23-209.67-32.68-62.78-94.2-114.65-169.03-117.38-22.47-.83-44.7,2.9-65.99,9.59-22.51,7.05-44.11,17.34-64.15,28.98-39.05,22.72-73.62,50.59-111,74.16-21.78,13.73-44.57,25.83-68.19,36-184.67,79.42-411.33,34.09-544.31-103.39"/><path class="cls-3" d="m1620.93,681.5c-201.23-29.38-411.45-.98-587.68,74.98-82.88,35.72-158.63,81.43-245.93,110.32-18.02,5.93-36.81,11.01-56.03,14.98-73.82,15.42-155.26,13.87-216.79-30.56-60.64-43.77-87.59-119.84-102.41-192.24-15.09-72.87-21.13-147-53-211.04-31.43-63.74-92.54-117.24-167.4-120.26-22.49-.92-44.74,2.86-66.02,9.69-22.49,7.19-44.04,17.72-63.96,29.65-38.83,23.28-73.01,51.89-110.09,76.21-21.61,14.17-44.26,26.7-67.77,37.31-183.81,82.92-412.09,42.83-549.63-91.93"/><path class="cls-3" d="m1608.61,672.72c-199.91-29.68-409.16.63-583.11,80.34-81.81,37.48-156.21,85.34-242.6,115.73-17.83,6.24-36.45,11.59-55.52,15.8-73.3,16.32-154.32,15.08-215.49-29.07-60.69-43.8-87.28-120.27-101.29-192.94-14.24-73.09-19.07-147.51-49.77-212.41-30.29-64.63-90.87-119.83-165.76-123.14-22.51-1.01-44.77,2.82-66.05,9.78-22.47,7.33-43.97,18.1-63.77,30.31-38.61,23.84-72.39,53.2-109.18,78.27-21.44,14.6-43.95,27.56-67.36,38.62-182.95,86.42-412.85,51.58-554.94-80.47"/><path class="cls-3" d="m1596.29,663.94c-198.6-29.98-406.87,2.25-578.54,85.71-80.74,39.24-153.78,89.25-239.27,121.14-17.63,6.55-36.1,12.18-55.02,16.62-72.77,17.22-153.38,16.29-214.17-27.58-60.75-43.83-86.99-120.71-100.17-193.65-13.39-73.32-17.03-148.02-46.55-213.78-29.15-65.52-89.2-122.42-164.12-126.03-22.53-1.1-44.8,2.78-66.08,9.88-22.45,7.47-43.89,18.47-63.58,30.97-38.39,24.4-71.78,54.51-108.27,80.33-21.27,15.04-43.64,28.43-66.94,39.93-182.09,89.92-413.61,60.32-560.25-69.01"/><path class="cls-3" d="m1583.97,655.15c-197.28-30.28-404.58,3.87-573.97,91.08-79.66,41.01-151.36,93.16-235.95,126.55-17.43,6.86-35.73,12.76-54.5,17.44-72.25,18.12-152.45,17.51-212.87-26.09-60.8-43.86-86.69-121.14-99.05-194.35-12.54-73.54-14.97-148.53-43.31-215.15-28.02-66.42-87.53-125.01-162.49-128.91-22.55-1.18-44.84,2.74-66.11,9.97-22.43,7.61-43.82,18.85-63.39,31.64-38.17,24.96-71.16,55.82-107.36,82.38-21.09,15.47-43.33,29.29-66.52,41.25-181.23,93.42-414.37,69.06-565.56-57.55"/><path class="cls-3" d="m1571.64,646.37c-195.95-30.58-402.28,5.49-569.39,96.45-78.59,42.77-148.94,97.07-232.62,131.96-17.24,7.16-35.37,13.35-53.99,18.26-71.73,19.02-151.51,18.72-211.57-24.61-60.85-43.9-86.38-121.57-97.92-195.05-11.7-73.76-12.93-149.04-40.09-216.53-26.88-67.31-85.86-127.6-160.85-131.79-22.57-1.27-44.88,2.7-66.14,10.07-22.41,7.75-43.75,19.23-63.2,32.3-37.95,25.52-70.55,57.13-106.45,84.44-20.92,15.91-43.03,30.15-66.1,42.56-180.38,96.92-415.13,77.81-570.87-46.09"/><path class="cls-3" d="m1559.32,637.59c-194.63-30.89-399.99,7.11-564.82,101.81-77.51,44.53-146.51,100.98-229.29,137.37-17.05,7.47-35.02,13.93-53.49,19.08-71.2,19.92-150.57,19.94-210.25-23.12-60.91-43.93-86.09-122-96.81-195.75-10.84-73.99-10.87-149.54-36.85-217.9-25.76-68.2-84.2-130.2-159.22-134.67-22.59-1.36-44.91,2.66-66.17,10.16-22.39,7.89-43.67,19.6-63.02,32.96-37.73,26.08-69.93,58.44-105.54,86.5-20.75,16.34-42.72,31.02-65.69,43.87-179.52,100.42-415.89,86.55-576.18-34.63"/><path class="cls-3" d="m1547,628.8c-193.32-31.19-397.71,8.72-560.25,107.18-76.44,46.3-144.09,104.89-225.96,142.79-16.86,7.78-34.66,14.52-52.99,19.9-70.67,20.83-149.62,21.15-208.94-21.63-60.95-43.96-85.79-122.43-95.68-196.46-10-74.21-8.83-150.05-33.63-219.27-24.62-69.1-82.53-132.79-157.58-137.55-22.61-1.44-44.94,2.62-66.2,10.25-22.37,8.02-43.6,19.98-62.83,33.62-37.51,26.64-69.32,59.75-104.63,88.55-20.57,16.78-42.41,31.88-65.27,45.18-178.66,103.92-416.65,95.29-581.49-23.17"/><path class="cls-3" d="m1534.68,620.02c-192-31.49-395.42,10.34-555.68,112.55-75.36,48.06-141.67,108.8-222.64,148.2-16.65,8.09-34.29,15.11-52.47,20.72-70.15,21.73-148.69,22.36-207.63-20.14-61.01-43.99-85.49-122.86-94.57-197.16-9.14-74.44-6.77-150.56-30.4-220.64-23.48-69.99-80.86-135.38-155.94-140.43-22.63-1.53-44.98,2.58-66.23,10.35-22.35,8.16-43.53,20.36-62.64,34.29-37.29,27.2-68.7,61.05-103.72,90.61-20.4,17.21-42.1,32.75-64.85,46.5-177.8,107.43-417.41,104.04-586.8-11.71"/><path class="cls-3" d="m1522.36,611.23c-190.68-31.79-393.13,11.96-551.11,117.91-74.29,49.82-139.24,112.71-219.31,153.61-16.46,8.4-33.94,15.69-51.96,21.54-69.63,22.63-147.75,23.58-206.33-18.66-61.06-44.02-85.19-123.3-93.44-197.86-8.3-74.66-4.73-151.07-27.17-222.01-22.35-70.89-79.2-137.97-154.31-143.32-22.65-1.62-45.01,2.54-66.26,10.44-22.33,8.3-43.46,20.73-62.45,34.95-37.08,27.76-68.08,62.36-102.81,92.67-20.23,17.65-41.79,33.61-64.43,47.81-176.94,110.93-418.17,112.78-592.11-.25"/><path class="cls-3" d="m1510.03,602.45c-189.36-32.1-390.83,13.58-546.53,123.28-73.22,51.58-136.82,116.62-215.98,159.02-16.27,8.71-33.58,16.28-51.46,22.36-69.1,23.53-146.81,24.79-205.02-17.17-61.11-44.05-84.89-123.73-92.31-198.57-7.46-74.88-2.68-151.58-23.95-223.38-21.22-71.78-77.53-140.56-152.67-146.2-22.67-1.7-45.05,2.5-66.29,10.54-22.31,8.44-43.38,21.11-62.26,35.61-36.86,28.32-67.47,63.67-101.9,94.72-20.06,18.09-41.48,34.48-64.02,49.12-176.08,114.43-418.93,121.52-597.42,11.21"/><path class="cls-3" d="m1497.71,593.67c-188.04-32.4-388.54,15.2-541.96,128.65-72.14,53.35-134.4,120.53-212.65,164.43-78.26,43.9-181.87,59.96-254.66,7.5-61.17-44.08-84.6-124.16-91.2-199.27-6.6-75.11-.63-152.08-20.71-224.76-20.09-72.67-75.87-143.15-151.04-149.08-46.51-3.67-91.75,18.03-128.39,46.91-36.64,28.88-66.85,64.98-100.99,96.78-175.24,163.24-459.86,194.47-666.33,73.11"/><path class="cls-3" d="m-660.56,524.99c86.48,50.05,184.72,76.63,282.26,78.63,97.61,2,194.97-20.04,280.77-66.05,34.26-18.37,66.64-40.64,96.15-66.72,34.36-30.57,64.99-65.58,101.82-93.85,37.02-28.29,82.34-49.91,128.76-47.1,33.79,2.07,63.69,16.77,88.23,38.61,29.91,26.59,51.96,63.72,63.64,101.74,9.56,30.98,14.12,62.99,17.12,95.72,3.69,40.34,4.65,81.8,9.25,122.9,2.58,23.26,6.74,47.04,13.09,70.06,13.98,50.63,38.74,97.61,80.88,127.99,72.97,52.59,176.04,38.38,254.55-3.1,78.52-41.47,141.58-105.78,214.32-156.85,154.68-108.6,355.42-154.13,544.01-122.96"/><path class="cls-3" d="m-650.89,512.05c86.95,49.54,183.84,78.62,279.33,83.55,95.56,4.93,190.63-13.2,276.16-55.73,34.16-16.97,66.78-37.9,96.55-62.99,34.68-29.23,65.64-63.27,102.65-90.91,37.4-27.7,82.79-49.25,129.13-47.28,33.7,1.46,63.56,15.09,88.12,35.57,29.96,24.93,52.26,59.93,64.59,96.06,10.12,29.41,15.46,60,19.46,91.74,4.9,39.11,7.01,80.01,12.56,120.74,3.1,23.04,7.71,46.65,14.43,69.49,14.77,50.25,40.08,96.88,82.32,127.33,73.15,52.72,175.67,40.36,254.43,1.3,78.78-39.05,142.65-100.48,215.98-149.27,155.94-103.76,356.93-147.22,546.07-117.26"/><path class="cls-3" d="m-641.22,499.1c87.41,49.03,182.95,80.61,276.4,88.46,93.51,7.86,186.28-6.37,271.54-45.41,34.05-15.58,66.88-35.21,96.95-59.26,34.94-27.94,66.2-61.07,103.48-87.98,37.71-27.21,83.25-48.58,129.5-47.47,33.61.86,63.43,13.41,88.02,32.53,30,23.26,52.54,56.14,65.53,90.37,10.68,27.84,16.81,57.02,21.8,87.76,6.11,37.89,9.37,78.21,15.86,118.58,3.63,22.82,8.69,46.26,15.77,68.93,15.58,49.86,41.43,96.16,83.77,126.67,73.32,52.85,175.29,42.33,254.32,5.7,79.03-36.62,143.71-95.18,217.63-141.69,157.21-98.91,358.44-140.3,548.13-111.57"/><path class="cls-3" d="m-631.56,486.16c87.87,48.52,182.07,82.59,273.46,93.38,91.46,10.79,181.94.47,266.92-35.09,33.95-14.19,66.98-32.53,97.35-55.53,35.2-26.66,66.82-58.79,104.31-85.04,38.07-26.65,83.71-47.92,129.87-47.66,33.53.25,63.3,11.73,87.91,29.49,30.05,21.6,52.75,52.38,66.48,84.68,11.18,26.3,18.15,54.03,24.14,83.78,7.32,36.66,11.73,76.42,19.17,116.42,4.15,22.6,9.66,45.87,17.1,68.36,16.39,49.48,42.79,95.43,85.22,126.02,73.49,52.98,174.92,44.31,254.2,10.1,79.3-34.2,144.78-89.88,219.3-134.11,158.47-94.06,359.94-133.39,550.18-105.88"/><path class="cls-3" d="m-621.89,473.21c88.33,48.01,181.18,84.58,270.53,98.3,89.41,13.71,177.59,7.3,262.31-24.77,33.84-12.79,67.07-29.84,97.76-51.8,35.45-25.37,67.44-56.51,105.14-82.11,38.43-26.09,84.16-47.26,130.24-47.85,33.44-.35,63.17,10.04,87.81,26.46,30.1,19.93,53.02,48.6,67.42,78.99,11.72,24.74,19.5,51.05,26.48,79.8,8.53,35.44,14.09,74.62,22.48,114.27,4.68,22.39,10.63,45.48,18.44,67.8,17.18,49.09,44.13,94.7,86.65,125.36,73.68,53.11,174.56,46.29,254.09,14.5,79.56-31.77,145.85-84.58,220.96-126.53,159.73-89.22,361.46-126.47,552.24-100.19"/><path class="cls-3" d="m-612.22,460.27c88.8,47.5,180.3,86.57,267.6,103.21,87.36,16.64,173.25,14.14,257.69-14.45,33.74-11.4,67.16-27.15,98.16-48.07,35.7-24.09,68.06-54.23,105.97-79.17,38.8-25.53,84.62-46.59,130.6-48.03,33.35-.96,63.04,8.36,87.71,23.42,30.15,18.27,53.29,44.82,68.37,73.3,12.26,23.19,20.85,48.07,28.82,75.82,9.74,34.21,16.45,72.83,25.78,112.1,5.21,22.17,11.6,45.09,19.78,67.23,17.99,48.71,45.48,93.98,88.1,124.7,73.85,53.24,174.18,48.26,253.98,18.9,79.82-29.34,146.9-79.28,222.61-118.95,161-84.37,362.97-119.56,554.29-94.49"/><path class="cls-3" d="m-602.56,447.33c89.26,46.99,179.41,88.56,264.66,108.13,85.31,19.57,168.9,20.98,253.07-4.13,33.63-10.01,67.24-24.46,98.56-44.33,35.95-22.81,68.69-51.94,106.81-76.24,39.17-24.97,85.08-45.93,130.97-48.22,33.26-1.56,62.91,6.68,87.61,20.38,30.19,16.6,53.56,41.05,69.3,67.62,12.82,21.63,22.2,45.08,31.17,71.85,10.96,32.98,18.8,71.04,29.09,109.95,5.72,21.95,12.57,44.7,21.11,66.67,18.79,48.32,46.83,93.25,89.55,124.05,74.02,53.37,173.81,50.24,253.86,23.3,80.08-26.92,147.97-73.98,224.28-111.38,162.26-79.52,364.47-112.65,556.34-88.8"/><path class="cls-3" d="m-592.89,434.38c89.72,46.48,178.52,90.55,261.73,113.04,83.26,22.49,164.56,27.82,248.45,6.19,33.52-8.61,67.32-21.78,98.97-40.6,36.19-21.53,69.32-49.66,107.64-73.3,39.54-24.4,85.53-45.26,131.34-48.41,33.17-2.17,62.75,5.05,87.5,17.34,30.21,15,53.84,37.27,70.25,61.93,13.37,20.08,23.55,42.1,33.51,67.87,12.17,31.76,21.16,69.24,32.4,107.79,6.25,21.73,13.54,44.31,22.45,66.1,19.59,47.94,48.17,92.52,90.99,123.39,74.2,53.5,173.44,52.22,253.74,27.71,80.35-24.49,149.04-68.68,225.94-103.8,163.52-74.67,365.98-105.73,558.4-83.11"/><path class="cls-3" d="m-583.22,421.44c90.18,45.97,177.64,92.54,258.8,117.96,81.2,25.42,160.21,34.65,243.84,16.51,33.42-7.22,67.39-19.09,99.37-36.87,36.42-20.25,69.95-47.37,108.47-70.37,39.91-23.83,85.99-44.6,131.71-48.59,33.09-2.77,62.62,3.37,87.4,14.3,30.25,13.35,54.11,33.5,71.19,56.24,13.92,18.53,24.89,39.11,35.85,63.89,13.38,30.53,23.6,67.42,35.71,105.63,6.81,21.51,14.51,43.92,23.78,65.53,20.4,47.55,49.53,91.8,92.43,122.73,74.38,53.63,173.07,54.2,253.64,32.11,80.6-22.07,150.1-63.38,227.6-96.22,164.78-69.83,367.48-98.82,560.45-77.42"/><path class="cls-3" d="m-573.56,408.49c90.65,45.46,176.76,94.53,255.86,122.87,79.16,28.35,155.87,41.49,239.22,26.83,33.31-5.82,67.46-16.41,99.77-33.14,36.65-18.98,70.59-45.08,109.3-67.43,40.28-23.26,86.45-43.94,132.08-48.78,33-3.38,62.49,1.7,87.29,11.27,30.3,11.69,54.4,29.74,72.14,50.55,14.47,16.98,26.24,36.13,38.19,59.91,14.59,29.31,25.97,65.62,39.01,103.47,7.34,21.29,15.49,43.53,25.12,64.97,21.2,47.17,50.88,91.07,93.88,122.08,74.55,53.76,172.7,56.17,253.52,36.51,80.87-19.64,151.17-58.08,229.26-88.64,166.04-64.98,368.99-91.9,562.51-71.73"/><path class="cls-3" d="m-563.89,395.55c91.11,44.95,175.87,96.51,252.93,127.79,77.11,31.28,151.52,48.33,234.6,37.15,33.21-4.43,67.53-13.73,100.18-29.41,36.87-17.71,71.22-42.79,110.13-64.5,40.66-22.69,86.89-43.36,132.45-48.97,32.9-4.05,62.36.02,87.19,8.23,30.34,10.03,54.68,25.97,73.08,44.86,15.03,15.43,27.63,33.12,40.53,55.93,15.86,28.05,28.33,63.83,42.32,101.31,7.87,21.07,16.46,43.14,26.46,64.4,22,46.78,52.22,90.34,95.32,121.42,74.73,53.89,172.33,58.15,253.4,40.91,81.13-17.22,152.24-52.78,230.92-81.06,167.31-60.13,370.5-84.99,564.57-66.03"/><path class="cls-3" d="m-554.22,382.61c91.57,44.44,174.98,98.5,250,132.71,75.06,34.2,147.18,55.16,229.98,47.47,33.1-3.03,67.59-11.06,100.58-25.68,37.09-16.44,71.86-40.49,110.96-61.56,41.04-22.12,87.35-42.7,132.82-49.16,32.81-4.66,62.23-1.66,87.08,5.19,30.39,8.38,54.97,22.21,74.02,39.17,15.6,13.89,28.99,30.13,42.88,51.95,17.07,26.82,30.69,62.03,45.63,99.15,8.39,20.85,17.43,42.75,27.79,63.83,22.8,46.4,53.57,89.62,96.76,120.77,74.91,54.02,171.96,60.13,253.29,45.31,81.39-14.79,153.31-47.48,232.59-73.48,168.57-55.28,372.01-78.07,566.62-60.34"/><path class="cls-3" d="m-544.56,369.66c92.04,43.93,174.1,100.49,247.06,137.62,73.01,37.13,142.83,62,225.37,57.79,33-1.64,67.65-8.38,100.98-21.95,37.3-15.18,72.5-38.19,111.79-58.63,41.42-21.54,87.8-42.04,133.19-49.34,32.73-5.26,62.12-3.34,86.99,2.15,30.44,6.72,55.26,18.44,74.96,33.49,16.16,12.34,30.34,27.14,45.22,47.97,18.28,25.59,33.05,60.23,48.94,96.99,8.91,20.63,18.4,42.36,29.12,63.27,23.61,46.01,54.93,88.89,98.21,120.11,75.08,54.15,171.59,62.1,253.18,49.71,81.65-12.36,154.37-42.18,234.24-65.9,169.83-50.44,373.52-71.16,568.68-54.65"/><path class="cls-3" d="m-534.89,356.72c92.5,43.42,173.21,102.48,244.13,142.54,70.96,40.06,138.49,68.83,220.75,68.11,32.89-.25,67.7-5.72,101.38-18.21,37.51-13.92,73.14-35.89,112.62-55.69,41.8-20.96,88.25-41.38,133.56-49.53,32.64-5.87,61.99-5.02,86.88-.89,30.49,5.06,55.57,14.68,75.91,27.8,16.73,10.79,31.68,24.15,47.56,43.99,19.49,24.36,35.41,58.43,52.24,94.83,9.44,20.41,19.38,41.97,30.46,62.7,24.41,45.63,56.28,88.17,99.66,119.45,75.26,54.28,171.22,64.08,253.06,54.11,81.91-9.94,155.44-36.88,235.9-58.32,171.1-45.59,375.03-64.25,570.73-48.96"/><path class="cls-3" d="m-525.22,343.77c92.96,42.91,172.33,104.47,241.19,147.45,68.9,42.98,134.14,75.67,216.13,78.42,32.79,1.15,67.75-3.05,101.79-14.48,37.72-12.67,73.78-33.59,113.45-52.76,42.19-20.38,88.71-40.72,133.93-49.72,32.54-6.48,61.86-6.7,86.78-3.93,30.54,3.4,55.87,10.91,76.85,22.11,17.3,9.24,33.03,21.17,49.9,40.01,20.7,23.13,37.77,56.63,55.55,92.67,9.96,20.19,20.34,41.58,31.8,62.14,25.21,45.24,57.62,87.44,101.09,118.79,75.44,54.41,170.85,66.06,252.95,58.51,82.18-7.51,156.51-31.58,237.57-50.74,172.36-40.74,376.53-57.33,572.78-43.26"/><path class="cls-3" d="m-515.56,330.83c93.42,42.4,171.44,106.46,238.26,152.37,66.86,45.91,129.8,82.51,211.52,88.75,32.68,2.54,67.8-.39,102.19-10.75,37.92-11.42,74.43-31.29,114.28-49.82,42.57-19.8,89.16-40.05,134.3-49.9,32.45-7.08,61.74-8.38,86.67-6.96,30.6,1.73,56.19,7.13,77.8,16.42,17.88,7.69,34.37,18.18,52.24,36.03,21.91,21.9,40.13,54.84,58.86,90.52,10.48,19.97,21.31,41.19,33.13,61.57,26.01,44.86,58.97,86.71,102.54,118.14,75.61,54.54,170.48,68.04,252.84,62.91,82.43-5.09,157.57-26.28,239.22-43.16,173.62-35.9,378.04-50.42,574.84-37.57"/><path class="cls-3" d="m-505.89,317.89c93.89,41.89,170.56,108.45,235.33,157.28,64.8,48.84,125.45,89.34,206.9,99.07,32.58,3.94,67.84,2.26,102.59-7.02,38.12-10.18,75.07-28.98,115.11-46.89,42.96-19.21,89.62-39.39,134.66-50.09,32.36-7.69,61.61-9.86,86.57-10,30.64-.17,56.5,3.35,78.73,10.73,18.47,6.13,35.72,15.19,54.58,32.05,23.12,20.67,42.5,53.04,62.18,88.36,11,19.75,22.28,40.8,34.46,61.01,26.82,44.47,60.32,85.99,103.99,117.48,75.79,54.67,170.11,70.02,252.72,67.31,82.7-2.66,158.64-20.98,240.88-35.58,174.89-31.05,379.55-43.51,576.9-31.88"/><path class="cls-3" d="m-496.22,304.94c94.35,41.38,169.67,110.43,232.39,162.2,62.76,51.77,121.11,96.18,202.28,109.39,32.47,5.33,67.89,4.91,103-3.29,38.32-8.95,75.72-26.67,115.94-43.95,43.35-18.63,90.07-38.73,135.03-50.28,32.27-8.29,61.48-11.74,86.46-13.04,30.7-1.6,56.82-.43,79.68,5.04,19.06,4.57,37.07,12.21,56.92,28.08,24.33,19.44,44.86,51.24,65.48,86.2,11.53,19.53,23.26,40.4,35.81,60.44,27.62,44.09,61.67,85.26,105.43,116.83,75.96,54.8,169.73,71.99,252.6,71.71,82.96-.24,159.7-15.68,242.55-28,176.14-26.2,381.06-36.59,578.95-26.19"/><path class="cls-3" d="m-486.56,292c94.81,40.87,168.79,112.42,229.46,167.11,60.7,54.69,116.76,103.02,197.66,119.71,32.36,6.72,67.93,7.55,103.4.44,38.52-7.72,76.37-24.36,116.78-41.02,43.74-18.03,90.53-38.06,135.4-50.47,32.18-8.9,61.36-13.43,86.36-16.08,30.75-3.26,57.14-4.23,80.62-.64,19.64,3,38.41,9.22,59.26,24.1,25.54,18.21,47.21,49.45,68.79,84.04,12.05,19.31,24.23,40.01,37.14,59.87,28.42,43.7,63.02,84.53,106.87,116.17,76.14,54.93,169.37,73.97,252.5,76.11,83.22,2.19,160.76-10.38,244.2-20.42,177.41-21.35,382.57-29.68,581.01-20.49"/><path class="cls-3" d="m-476.89,279.05c95.28,40.36,167.9,114.41,226.53,172.03,58.65,57.62,112.42,109.85,193.05,130.02,32.26,8.12,67.97,10.18,103.8,4.17,38.72-6.49,77.02-22.04,117.61-38.08,44.13-17.44,90.98-37.4,135.78-50.65,32.09-9.5,61.23-15.11,86.25-19.12,30.81-4.93,57.46-8.03,81.57-6.33,20.22,1.42,39.75,6.24,61.6,20.12,26.74,16.99,49.57,47.65,72.1,81.88,12.57,19.1,25.2,39.62,38.47,59.31,29.23,43.32,64.37,83.81,108.32,115.51,76.31,55.06,169,75.95,252.38,80.51,83.48,4.62,161.83-5.08,245.86-12.84,178.67-16.51,384.08-22.76,583.07-14.8"/><path class="cls-3" d="m-467.22,266.11c95.74,39.85,167.02,116.4,223.59,176.95,56.61,60.55,108.07,116.69,188.43,140.35,32.15,9.51,68.01,12.81,104.2,7.9,38.91-5.28,77.67-19.73,118.44-35.15,44.52-16.84,91.43-36.73,136.14-50.84,32.01-10.1,61.11-16.8,86.16-22.15,30.85-6.6,57.78-11.22,82.51-12.02,20.79-.68,41.09,3.25,63.94,16.14,27.95,15.76,51.92,45.86,75.41,79.72,13.09,18.88,26.17,39.23,39.81,58.74,30.02,42.93,65.71,83.08,109.76,114.86,76.49,55.18,168.62,77.92,252.26,84.91,83.74,7.04,162.9.22,247.53-5.26,179.93-11.66,385.58-15.85,585.12-9.11"/><path class="cls-3" d="m-457.56,253.17c96.2,39.33,166.13,118.39,220.66,181.86,54.55,63.47,103.73,123.53,183.81,150.67,32.05,10.91,68.05,15.44,104.61,11.64,39.11-4.07,78.32-17.41,119.27-32.22,44.91-16.24,91.89-36.06,136.51-51.03,31.92-10.7,60.99-18.48,86.05-25.19,30.91-8.27,58.09-15.64,83.46-17.71,21.38-1.74,42.44.27,66.28,12.16,29.16,14.54,54.28,44.06,78.71,77.56,13.61,18.66,27.15,38.84,41.15,58.18,30.83,42.55,67.07,82.35,111.2,114.2,76.67,55.32,168.26,79.9,252.16,89.32,84,9.47,163.96,5.52,249.18,2.32,181.2-6.81,387.09-8.93,587.18-3.42"/><path class="cls-3" d="m-447.89,240.22c96.66,38.82,165.25,120.38,217.73,186.78,52.5,66.4,99.38,130.36,179.19,160.99,31.94,12.3,68.09,18.06,105.01,15.37,39.31-2.86,78.97-15.08,120.1-29.28,45.3-15.64,92.35-35.4,136.88-51.22,31.83-11.31,60.86-20.17,85.95-28.23,30.95-9.94,58.39-19.46,84.39-23.4,21.97-3.33,43.79-2.72,68.63,8.18,30.36,13.31,56.63,42.26,82.02,75.4,14.13,18.44,28.11,38.45,42.48,57.61,31.63,42.16,68.42,81.63,112.65,113.54,76.84,55.45,167.89,81.88,252.04,93.72,84.26,11.89,165.03,10.82,250.85,9.9,182.45-1.97,388.59-2.02,589.22,2.27"/><path class="cls-3" d="m-438.22,227.28c97.13,38.32,164.36,122.37,214.79,191.7,50.45,69.33,95.04,137.2,174.58,171.3,31.84,13.7,68.14,20.67,105.41,19.1,39.51-1.67,79.62-12.76,120.93-26.35,45.7-15.03,92.84-34.64,137.25-51.4,31.76-11.85,60.73-21.86,85.84-31.27,31.01-11.62,58.7-23.27,85.34-29.08,22.54-4.92,45.11-5.65,70.97,4.2,31.54,12.15,58.99,40.47,85.33,73.24,14.65,18.23,29.08,38.06,43.82,57.04,32.43,41.78,69.76,80.9,114.09,112.89,77.02,55.58,167.51,83.86,251.92,98.12,84.53,14.32,166.1,16.12,252.51,17.48,183.72,2.88,390.1,4.89,591.29,7.97"/><path class="cls-3" d="m-428.56,214.33c97.59,37.8,163.48,124.35,211.86,196.61,48.4,72.26,90.69,144.04,169.96,181.62,31.73,15.09,68.22,24.47,105.82,22.83,39.67-1.73,80.27-10.43,121.76-23.41,46.09-14.42,93.29-33.98,137.62-51.59,31.67-12.45,60.6-23.55,85.74-34.31,31.05-13.29,58.99-27.09,86.28-34.77,23.11-6.51,46.46-8.63,73.31.22,32.75,10.93,61.34,38.68,88.64,71.09,15.17,18.01,30.05,37.67,45.15,56.48,33.24,41.39,71.11,80.17,115.53,112.23,77.2,55.7,167.15,85.83,251.82,102.52,84.78,16.74,167.16,21.42,254.16,25.06,184.99,7.73,391.61,11.81,593.34,13.66"/><path class="cls-3" d="m-418.89,201.39c98.05,37.29,162.59,126.34,208.93,201.52,46.35,75.18,86.35,150.87,165.34,191.94,31.63,16.48,68.23,25.88,106.22,26.56,39.91.71,80.92-8.1,122.59-20.48,46.49-13.81,93.75-33.31,137.99-51.78,31.58-13.06,60.47-25.24,85.63-37.34,31.1-14.96,59.29-30.91,87.23-40.46,23.67-8.1,47.8-11.61,75.65-3.76,33.96,9.7,63.63,36.94,91.94,68.93,15.66,17.83,31.03,37.28,46.49,55.91,34.04,41.01,72.46,79.45,116.98,111.57,77.38,55.83,166.78,87.81,251.7,106.92,85.05,19.17,168.23,26.72,255.83,32.64,186.24,12.58,393.12,18.72,595.39,19.35"/><path class="cls-3" d="m-409.22,188.44c98.52,36.78,161.71,128.33,205.99,206.44,44.3,78.11,82,157.71,160.72,202.26,31.52,17.88,68.28,28.48,106.62,30.29,40.12,1.9,81.58-5.77,123.42-17.54,46.88-13.19,94.21-32.65,138.36-51.97,31.49-13.66,60.34-26.93,85.52-40.38,31.15-16.63,59.59-34.72,88.18-46.15,24.23-9.69,49.15-14.6,77.99-7.74,35.17,8.48,65.99,35.15,95.25,66.77,16.18,17.61,32,36.89,47.83,55.35,34.84,40.62,73.8,78.72,118.42,110.92,77.55,55.96,166.4,89.79,251.58,111.32,85.31,21.6,169.3,32.02,257.49,40.22,187.51,17.42,394.63,25.64,597.45,25.04"/><path class="cls-3" d="m-399.56,175.5c98.98,36.27,160.82,130.32,203.06,211.36,42.25,81.04,77.66,164.54,156.11,212.58,31.41,19.27,68.33,31.07,107.02,34.02,40.33,3.08,82.23-3.43,124.25-14.61,47.28-12.57,94.66-31.98,138.72-52.15,31.41-14.27,60.18-28.67,85.43-43.42,31.15-18.37,59.88-38.54,89.11-51.84,24.8-11.28,50.5-17.58,80.34-11.71,36.38,7.25,68.35,33.35,98.56,64.61,16.7,17.39,32.97,36.5,49.16,54.78,35.64,40.23,75.16,78,119.87,110.26,77.72,56.09,166.03,91.76,251.46,115.72,85.58,24.02,170.37,37.32,259.16,47.8,188.76,22.27,396.13,32.55,599.5,30.74"/><path class="cls-3" d="m-389.89,162.56c99.44,35.76,159.93,132.31,200.12,216.27,40.2,83.96,73.31,171.38,151.49,222.9,31.31,20.66,68.39,33.66,107.43,37.75,40.54,4.25,82.88-1.09,125.08-11.67,47.67-11.95,95.12-31.32,139.09-52.34,31.33-14.87,60.05-30.35,85.33-46.46,31.19-20.03,60.16-42.35,90.05-57.53,25.36-12.87,51.85-20.57,82.68-15.69,37.6,6.03,70.71,31.56,101.87,62.45,17.22,17.17,33.94,36.11,50.49,54.21,36.45,39.85,76.51,77.27,121.31,109.6,77.9,56.22,165.67,93.74,251.36,120.12,85.83,26.45,171.43,42.62,260.81,55.38,190.03,27.12,397.64,39.47,601.56,36.43"/><path class="cls-3" d="m-380.22,149.61c99.9,35.25,159.05,134.3,197.19,221.19,38.15,86.89,68.97,178.22,146.87,233.22,31.2,22.06,68.45,36.25,107.83,41.49,40.76,5.42,83.53,1.25,125.91-8.74,48.07-11.33,95.57-30.65,139.46-52.53,31.24-15.48,59.92-32.04,85.22-49.5,31.25-21.7,60.45-46.17,91-63.21,25.91-14.46,53.19-23.55,85.02-19.67,38.81,4.8,73.06,29.77,105.17,60.29,17.75,16.96,34.92,35.72,51.84,53.65,37.24,39.46,77.85,76.54,122.75,108.95,78.08,56.35,165.29,95.72,251.24,124.52,86.09,28.87,172.5,47.92,262.47,62.95,191.3,31.96,399.15,46.38,603.62,42.12"/><path class="cls-3" d="m-370.56,136.67c100.37,34.74,158.16,136.29,194.26,226.1,36.1,89.82,64.62,185.05,142.26,243.54,31.1,23.45,68.52,38.83,108.23,45.22,40.98,6.59,84.19,3.59,126.75-5.8,48.46-10.7,96.03-29.99,139.83-52.71,31.15-16.08,59.79-33.72,85.12-52.54,31.29-23.36,60.73-49.98,91.94-68.9,26.47-16.04,54.54-26.54,87.36-23.65,40.02,3.58,75.42,27.97,108.48,58.13,18.27,16.74,35.89,35.33,53.17,53.08,38.05,39.08,79.2,75.82,124.2,108.29,78.25,56.48,164.92,97.7,251.12,128.92,86.36,31.3,173.57,53.22,264.14,70.53,192.55,36.81,400.65,53.29,605.67,47.81"/><path class="cls-3" d="m-360.89,123.72c100.83,34.23,157.28,138.27,191.33,231.02,34.05,92.74,60.28,191.89,137.64,253.86,30.99,24.85,68.58,41.41,108.64,48.95,41.2,7.76,84.84,5.94,127.58-2.87,48.85-10.07,96.49-29.33,140.2-52.9,31.06-16.69,59.66-35.4,85.01-55.58,31.34-25.03,61.01-53.8,92.89-74.59,27.02-17.63,55.89-29.52,89.7-27.63,41.23,2.35,77.78,26.18,111.79,55.97,18.79,16.52,36.86,34.94,54.5,52.52,38.86,38.69,80.56,75.09,125.64,107.64,78.43,56.61,164.56,99.67,251.02,133.32,86.61,33.73,174.62,58.52,265.79,78.11,193.82,41.66,402.17,60.21,607.73,53.51"/><path class="cls-3" d="m-351.22,110.78c101.29,33.72,156.39,140.26,188.39,235.93,32,95.67,55.93,198.73,133.02,264.18,30.89,26.24,68.65,43.98,109.04,52.68,41.43,8.92,85.49,8.29,128.41.07,49.25-9.43,96.94-28.66,140.57-53.09,30.97-17.29,59.53-37.08,84.9-58.61,31.39-26.7,61.26-57.66,93.83-80.28,27.55-19.26,57.24-32.5,92.05-31.61,42.44,1.12,80.14,24.38,115.09,53.81,19.32,16.3,37.83,34.55,55.85,51.95,39.65,38.31,81.9,74.36,127.08,106.98,78.61,56.74,164.18,101.65,250.9,137.72,86.88,36.15,175.69,63.82,267.45,85.69,195.08,46.51,403.68,67.12,609.78,59.2"/><path class="cls-3" d="m-341.56,97.84c101.76,33.21,155.51,142.25,185.46,240.85,29.95,98.6,51.59,205.56,128.4,274.5,30.78,27.64,68.73,46.56,109.44,56.41,41.66,10.08,86.15,10.72,129.24,3,49.65-8.7,97.4-28,140.94-53.28,30.88-17.9,59.4-38.77,84.8-61.65,31.43-28.36,61.55-61.45,94.77-85.97,28.11-20.83,58.59-35.49,94.39-35.59,43.65-.1,82.5,22.59,118.4,51.65,19.84,16.09,38.8,34.16,57.18,51.38,40.46,37.92,83.25,73.64,128.53,106.32,78.78,56.87,163.81,103.63,250.78,142.12,87.14,38.58,176.76,69.12,269.12,93.27,196.34,51.35,405.18,74.04,611.83,64.89"/><path class="cls-3" d="m-331.89,84.89c102.22,32.7,154.62,144.24,182.53,245.77,27.9,101.53,47.24,212.4,123.78,284.82,30.68,29.03,68.83,49.07,109.84,60.14,41.92,11.17,86.79,13.03,130.07,5.94,50.04-8.1,97.85-27.33,141.3-53.46,30.8-18.5,59.27-40.45,84.7-64.69,31.48-30.02,61.84-65.24,95.72-91.66,28.67-22.4,59.93-38.47,96.73-39.57,44.86-1.33,84.86,20.79,121.71,49.49,20.36,15.87,39.77,33.77,58.51,50.82,41.26,37.54,84.6,72.91,129.97,105.67,78.96,57,163.44,105.61,250.68,146.52,87.4,41,177.82,74.42,270.77,100.85,197.61,56.2,406.69,80.95,613.89,70.58"/><path class="cls-3" d="m-322.22,71.95c102.68,32.19,153.74,146.23,179.59,250.68,25.85,104.45,42.9,219.24,119.17,295.14,61.72,61.42,155.02,85.57,241.15,72.75,86.12-12.83,164.87-59.64,226.27-121.38,58.21-58.52,113.31-136.33,195.73-140.89,71.52-3.96,131.18,50.17,184.87,97.59,344.57,304.35,811.32,466.25,1270.35,440.64"/><path class="cls-3" d="m-331.04,81.56c102.04,31.18,153.8,142.64,180.96,245.12,27.11,102.45,45.57,215.27,121.53,290.27,61.92,60.99,154.63,85.79,240.47,74.25,75.93-10.17,146.34-46.48,204.55-96.41,7.62-6.55,15.04-13.33,22.23-20.31,58.78-57.12,114.4-133.61,196.52-139.09,71.16-4.7,130.75,46.95,184.55,92.19,345.9,290.01,813.06,446.32,1271.05,425.47"/><path class="cls-3" d="m-339.86,91.17c101.41,30.18,153.87,139.06,182.33,239.55,28.38,100.46,48.25,211.31,123.9,285.41,62.12,60.57,154.24,86,239.79,75.76,75.72-9.01,146.16-43.71,204.85-92.28,7.69-6.37,15.17-12.97,22.42-19.78,59.36-55.71,115.5-130.89,197.33-137.28,70.8-5.43,130.32,43.74,184.22,86.8,347.23,275.68,814.81,426.4,1271.76,410.29"/><path class="cls-3" d="m-348.68,100.79c100.77,29.17,153.93,135.47,183.71,233.99,29.64,98.46,50.93,207.34,126.26,280.54,62.32,60.14,153.85,86.21,239.1,77.27,75.51-7.84,145.98-40.95,205.15-88.15,7.76-6.19,15.3-12.61,22.63-19.25,59.93-54.31,116.59-128.18,198.12-135.47,70.44-6.17,129.8,40.65,183.91,81.41,347.96,262.13,816.54,406.47,1272.45,395.12"/><path class="cls-3" d="m-357.5,110.4c100.14,28.17,154,131.88,185.08,228.42,30.9,96.46,53.45,203.55,128.63,275.67,62.39,59.85,153.46,86.42,238.42,78.78,75.3-6.68,145.8-38.18,205.45-84.01,7.82-6.01,15.43-12.26,22.83-18.73,60.5-52.91,117.68-125.46,198.91-133.67,70.09-6.91,129.36,37.48,183.59,76.01,349.13,248.07,818.29,386.55,1273.15,379.94"/><path class="cls-3" d="m-366.32,120.01c99.5,27.16,154.06,128.3,186.45,222.86,32.16,94.46,56.09,199.62,130.99,270.8,62.56,59.46,153.07,86.64,237.74,80.29,75.09-5.51,145.62-35.42,205.75-79.88,7.88-5.83,15.56-11.91,23.03-18.2,61.07-51.5,118.77-122.74,199.71-131.86,69.72-7.64,128.9,34.31,183.26,70.62,350.33,234.01,820.04,366.62,1273.86,364.77"/><path class="cls-3" d="m-375.14,129.63c98.87,26.15,154.13,124.71,187.82,217.29,33.42,92.46,58.74,195.69,133.36,265.93,62.74,59.06,152.68,86.85,237.06,81.79,74.88-4.34,145.45-32.65,206.06-75.74,7.94-5.65,15.69-11.55,23.22-17.68,61.65-50.1,119.87-120.03,200.52-130.06,69.36-8.38,128.45,31.13,182.94,65.23,351.53,219.94,821.77,346.69,1274.55,349.59"/><path class="cls-3" d="m-383.96,139.24c98.23,25.15,154.19,121.13,189.19,211.73,34.68,90.46,61.39,191.76,135.72,261.06,62.91,58.66,152.29,87.06,236.38,83.3,74.67-3.18,145.27-29.89,206.36-71.61,8-5.47,15.81-11.2,23.42-17.15,62.22-48.69,120.96-117.31,201.31-128.25,69-9.12,128.01,27.96,182.62,59.83,352.78,205.88,823.52,326.77,1275.26,334.42"/><path class="cls-3" d="m-392.78,148.85c97.6,24.14,154.26,117.54,190.56,206.16,35.95,88.46,64.04,187.82,138.08,256.19,63.09,58.26,151.9,87.27,235.7,84.81,74.46-2.01,145.1-27.12,206.67-67.48,8.07-5.29,15.94-10.84,23.62-16.62,62.8-47.29,122.03-114.77,202.11-126.45,68.61-10.01,127.57,24.79,182.3,54.44,354.03,191.81,825.26,306.84,1275.95,319.24"/><path class="cls-3" d="m-401.6,158.46c96.96,23.14,154.32,113.95,191.93,200.6,37.21,86.46,66.7,183.89,140.45,251.32,63.27,57.86,151.51,87.48,235.02,86.32,74.24-.85,144.91-24.35,206.97-63.35,8.13-5.11,16.07-10.49,23.82-16.1,63.37-45.88,123.11-112.07,202.9-124.64,68.25-10.76,127.14,21.62,181.98,49.05,355.33,177.73,827,286.92,1276.65,304.07"/><path class="cls-3" d="m-410.42,168.08c96.32,22.13,154.39,110.37,193.31,195.04,38.47,84.46,69.36,179.95,142.81,246.45,63.45,57.45,151.12,87.7,234.34,87.83,74.03.32,144.74-21.59,207.28-59.21,8.19-4.93,16.2-10.13,24.02-15.57,63.94-44.48,124.2-109.36,203.7-122.83,67.89-11.5,126.7,18.44,181.65,43.65,356.65,163.64,828.75,266.99,1277.36,288.89"/><path class="cls-3" d="m-419.24,177.69c95.69,21.13,154.45,106.78,194.68,189.47,39.73,82.46,72.02,176,145.18,241.59,63.64,57.05,150.73,87.91,233.66,89.34,73.82,1.49,144.56-18.82,207.58-55.08,8.25-4.75,16.32-9.78,24.21-15.04,64.52-43.08,125.29-106.66,204.5-121.03,67.53-12.25,126.28,15.26,181.34,38.26,357.98,149.54,830.48,247.06,1278.05,273.72"/><path class="cls-3" d="m-428.06,187.3c95.05,20.12,154.68,103.11,196.05,183.91,41.16,80.38,74.68,172.06,147.54,236.72,63.82,56.64,150.34,88.12,232.98,90.84,73.61,2.65,144.38-16.05,207.89-50.95,8.31-4.57,16.45-9.42,24.41-14.52,65.09-41.67,126.38-103.95,205.3-119.22,67.16-13,125.85,12.08,181.01,32.86,359.35,135.41,832.23,227.14,1278.75,258.54"/><path class="cls-3" d="m-436.88,196.91c94.42,19.11,154.75,99.51,197.42,178.34,42.43,78.37,77.35,168.11,149.91,231.85,64.01,56.23,149.95,88.33,232.3,92.35,73.4,3.82,144.21-13.29,208.19-46.81,8.38-4.39,16.58-9.07,24.61-13.99,65.66-40.27,127.46-101.24,206.09-117.42,66.8-13.74,125.44,8.9,180.69,27.47,360.74,121.28,833.98,207.21,1279.46,243.37"/><path class="cls-3" d="m-445.7,206.53c93.78,18.11,154.82,95.92,198.79,172.78,43.69,76.36,80.02,164.16,152.27,226.98,64.2,55.82,149.55,88.54,231.62,93.86,73.19,4.99,144.03-10.52,208.5-42.68,8.44-4.22,16.71-8.71,24.8-13.47,66.24-38.86,128.56-98.53,206.9-115.61,66.43-14.48,125.02,5.71,180.37,22.08,362.15,107.11,835.71,187.28,1280.15,228.19"/><path class="cls-3" d="m-454.52,216.14c93.15,17.1,154.89,92.33,200.16,167.21,44.96,74.36,82.69,160.21,154.64,222.11,64.4,55.4,149.16,88.76,230.94,95.37,72.98,6.15,143.85-7.76,208.8-38.55,8.5-4.04,16.83-8.36,25-12.94,66.81-37.46,129.65-95.82,207.69-113.81,66.07-15.22,124.61,2.52,180.05,16.68,363.58,92.92,837.46,167.36,1280.85,213.01"/><path class="cls-3" d="m-463.34,225.75c92.51,16.1,154.96,88.73,201.54,161.65,46.22,72.35,85.36,156.26,157,217.24,64.59,54.99,148.77,88.97,230.26,96.88,72.77,7.32,143.67-4.99,209.1-34.42,8.56-3.86,16.96-8,25.2-12.41,67.38-36.06,130.73-93.11,208.49-112,65.7-15.97,124.2-.68,179.72,11.29,365.03,78.7,839.2,147.43,1281.56,197.84"/><path class="cls-3" d="m-472.16,235.36c91.87,15.09,155.02,85.14,202.91,156.08,47.48,70.35,88.04,152.3,159.37,212.37,64.79,54.57,148.38,89.18,229.58,98.39,72.56,8.48,143.49-2.22,209.41-30.28,8.62-3.68,17.09-7.65,25.4-11.89,67.96-34.65,131.82-90.39,209.28-110.2,65.34-16.7,123.8-3.88,179.41,5.9,366.49,64.45,840.94,127.51,1282.25,182.67"/><path class="cls-3" d="m-480.98,244.98c91.24,14.09,155.08,81.55,204.28,150.52,48.74,68.34,90.72,148.34,161.73,207.51,64.99,54.15,147.99,89.39,228.89,99.89,72.35,9.65,143.32.54,209.71-26.15,8.68-3.5,17.22-7.29,25.6-11.36,68.53-33.25,132.91-87.68,210.08-108.39,64.97-17.44,123.38-7.09,179.08.5,367.97,50.16,842.69,107.58,1282.96,167.49"/><path class="cls-3" d="m-489.8,254.59c90.6,13.08,155.15,77.95,205.65,144.95,50,66.33,93.4,144.38,164.09,202.64,65.19,53.72,147.6,89.6,228.21,101.4,72.14,10.82,143.14,3.31,210.02-22.02,8.74-3.32,17.34-6.94,25.79-10.83,69.11-31.84,134-84.96,210.88-106.58,64.62-18.18,122.98-10.3,178.76-4.89,369.45,35.84,844.43,87.65,1283.66,152.32"/><path class="cls-3" d="m-498.62,264.2c89.97,12.07,155.21,74.36,207.02,139.39,51.26,64.33,96.08,140.41,166.46,197.77,65.39,53.3,147.21,89.82,227.53,102.91,71.92,11.98,142.96,6.07,210.32-17.88,8.81-3.14,17.47-6.58,25.99-10.31,69.68-30.44,135.09-82.24,211.68-104.78,64.25-18.91,122.57-13.52,178.44-10.28,370.92,21.48,846.17,67.73,1284.35,137.14"/><path class="cls-3" d="m-507.44,273.82c89.33,11.07,155.27,70.77,208.39,133.82,52.52,62.33,98.77,136.44,168.82,192.9,65.6,52.87,146.82,90.03,226.85,104.42,71.71,13.15,142.78,8.84,210.63-13.75,8.87-2.96,17.6-6.23,26.19-9.78,70.25-29.04,136.18-79.52,212.47-102.97,63.89-19.64,122.17-16.74,178.12-15.68,372.41,7.09,847.91,47.8,1285.06,121.97"/><path class="cls-3" d="m-516.26,283.43c88.7,10.06,155.33,67.18,209.77,128.26,53.77,60.32,101.46,132.47,171.19,188.03,65.81,52.44,146.43,90.24,226.17,105.93,71.5,14.32,142.61,11.6,210.93-9.62,8.93-2.78,17.73-5.88,26.38-9.25,70.83-27.63,137.28-76.79,213.28-101.17,63.52-20.37,121.76-19.97,177.8-21.07,373.87-7.34,849.65,27.88,1285.75,106.79"/><path class="cls-3" d="m-525.08,293.04c88.06,9.06,155.38,63.6,211.14,122.69,55.02,58.32,104.15,128.49,173.55,183.16,66.02,52,146.04,90.45,225.49,107.43,71.29,15.48,142.43,14.37,211.23-5.48,8.99-2.6,17.85-5.52,26.58-8.73,71.4-26.23,138.37-74.07,214.07-99.36,63.17-21.1,121.36-23.21,177.48-26.47,375.34-21.8,851.4,7.95,1286.45,91.62"/><path class="cls-3" d="m-533.9,302.65c87.42,8.05,155.44,60.01,212.51,117.13,56.28,56.33,106.84,124.51,175.92,178.29C-79.24,649.64.18,688.74,79.34,707.02c71.08,16.65,142.25,17.14,211.54-1.35,9.05-2.42,17.98-5.17,26.78-8.2,71.97-24.82,139.46-71.34,214.87-97.55,62.8-21.83,120.95-26.44,177.15-31.86,376.79-36.3,853.14-11.98,1287.16,76.44"/><path class="cls-3" d="m-542.72,312.27c86.79,7.05,155.5,56.43,213.88,111.56,57.53,54.33,109.54,120.53,178.28,173.42,66.45,51.12,145.26,90.88,224.13,110.45,70.87,17.82,142.07,19.9,211.84,2.78,9.12-2.24,18.11-4.81,26.98-7.67,72.55-23.42,140.55-68.61,215.66-95.75,62.45-22.56,120.54-29.69,176.84-37.25,378.22-50.83,854.88-31.9,1287.85,61.27"/><path class="cls-3" d="m-551.54,321.88c86.15,6.04,155.55,52.84,215.25,106,58.78,52.33,112.24,116.55,180.64,168.55,66.66,50.68,144.87,91.09,223.45,111.96,70.66,18.98,141.89,22.67,212.15,6.92,9.18-2.06,18.24-4.46,27.17-7.15,73.13-22.01,141.65-65.89,216.47-93.94,62.09-23.29,120.12-32.93,176.51-42.65,379.63-65.38,856.62-51.83,1288.55,46.09"/><path class="cls-3" d="m-560.36,331.49c85.52,5.03,155.6,49.26,216.62,100.43,60.03,50.34,114.94,112.56,183.01,163.68,66.88,50.23,144.48,91.3,222.77,113.47,70.45,20.15,141.72,25.43,212.45,11.05,9.24-1.89,18.36-4.1,27.37-6.62,73.7-20.61,142.74-63.15,217.26-92.14,61.73-24.01,119.7-36.18,176.2-48.04,381.02-79.96,858.36-71.75,1289.25,30.92"/><path class="cls-3" d="m-569.18,341.1c84.88,4.03,155.65,45.68,218,94.87,61.28,48.35,117.64,108.57,185.37,158.82,67.1,49.78,144.09,91.51,222.09,114.98,70.24,21.32,141.54,28.2,212.76,15.18,9.3-1.71,18.49-3.75,27.57-6.1,74.27-19.21,143.84-60.42,218.06-90.33,61.37-24.73,119.28-39.44,175.87-53.43,382.38-94.57,860.11-91.68,1289.95,15.74"/><path class="cls-3" d="m-578,350.72c84.25,3.02,155.61,42.23,219.37,89.31,62.44,46.48,120.34,104.57,187.74,153.95,67.33,49.32,143.7,91.73,221.41,116.48,70.03,22.48,141.36,30.97,213.06,19.32,9.36-1.53,18.62-3.39,27.77-5.57,74.84-17.8,144.93-57.69,218.85-88.53,61.02-25.46,118.86-42.69,175.55-58.83,383.73-109.19,861.85-111.6,1290.65.57"/><path class="cls-3" d="m-586.82,360.33c83.61,2.02,155.68,38.64,220.74,83.74,63.7,44.48,123.05,100.58,190.1,149.08,67.55,48.86,143.3,91.94,220.72,117.99,69.82,23.65,141.18,33.73,213.36,23.45,9.43-1.35,18.75-3.04,27.97-5.04,75.41-16.4,146.1-54.81,219.65-86.72,60.71-26.07,118.42-45.95,175.23-64.22,385.04-123.83,863.59-131.53,1291.35-14.61"/><path class="cls-3" d="m-595.64,369.94c82.97,1.01,155.74,35.06,222.11,78.18,64.96,42.48,125.75,96.57,192.47,144.21,67.78,48.4,142.91,92.15,220.04,119.5,69.6,24.81,141.01,36.5,213.67,27.58,9.49-1.17,18.88-2.68,28.16-4.52,75.99-14.99,147.19-52.09,220.45-84.91,60.35-26.8,117.99-49.21,174.91-69.61,386.32-138.48,865.33-151.46,1292.05-29.78"/><path class="cls-3" d="m-604.46,379.56c82.34,0,155.81,31.47,223.48,72.61,66.22,40.48,128.46,92.57,194.83,139.34,68.02,47.93,142.52,92.36,219.36,121.01,69.39,25.98,140.83,39.26,213.97,31.71,9.55-.99,19-2.33,28.36-3.99,76.56-13.59,148.28-49.38,221.25-83.11,59.99-27.54,117.55-52.47,174.58-75.01,387.59-153.13,867.08-171.38,1292.76-44.96"/><path class="cls-3" d="m-613.28,389.17c81.7-1,155.87,27.89,224.85,67.05,67.49,38.48,131.17,88.56,197.2,134.47,68.25,47.46,142.13,92.58,218.68,122.52,69.18,27.15,140.65,42.03,214.28,35.85,9.61-.81,19.13-1.97,28.56-3.46,77.13-12.19,149.37-46.66,222.04-81.3,59.63-28.28,117.11-55.73,174.27-80.4,388.81-167.8,868.81-191.31,1293.45-60.13"/><path class="cls-3" d="m-622.1,398.78c81.07-2.01,155.94,24.3,226.23,61.48,68.75,36.48,133.96,84.44,199.56,129.6,68.56,46.87,141.74,92.79,218,124.03,68.97,28.31,140.47,44.8,214.58,39.98,9.67-.63,19.26-1.62,28.76-2.94,77.71-10.78,150.46-43.94,222.84-79.5,59.27-29.01,116.62-59.09,173.94-85.79,389.72-183.13,870.56-211.24,1294.15-75.31"/><path class="cls-3" d="m-630.92,408.39c80.43-3.01,156,20.71,227.6,55.92,70.01,34.48,136.64,80.48,201.93,124.74,68.76,46.45,141.35,93,217.32,125.53,68.76,29.48,140.3,47.56,214.88,44.11,9.74-.45,19.39-1.26,28.96-2.41,78.29-9.38,151.56-41.23,223.64-77.69,58.91-29.75,116.19-62.31,173.62-91.19,391.05-197.47,872.31-231.16,1294.86-90.48"/><path class="cls-3" d="m-639.74,418.01c157.81-7.95,301.83,82.52,433.26,170.22,131.43,87.7,273.88,179.67,431.83,175.29,155.3-4.31,290.17-100.55,426.89-174.35,392.37-211.81,874.04-251.09,1295.55-105.66"/></mask><linearGradient id="linear-gradient" x1="1535.42" y1="500.57" x2="-38.9" y2="316.77" gradientTransform="translate(0 804.45) scale(1 -1)" gradientUnits="userSpaceOnUse"><stop offset="0" stop-color="#c52ea3"/><stop offset=".92" stop-color="#4749ca"/></linearGradient></defs><g id="Layer_1-2"><g class="cls-2"><rect class="cls-1" width="1395.09" height="803.41"/></g></g></svg>