<svg width="46" height="50" viewBox="0 0 46 50" fill="none" xmlns="http://www.w3.org/2000/svg">
  <g clip-path="url(#clip0_1727_156151)">
  <path d="M23.3808 21.4384V20.0365C24.2378 19.9201 25.0445 19.5182 25.6481 18.8869C26.3432 18.1604 26.706 17.2158 26.6696 16.2288C26.5875 13.9897 24.9203 13.0827 23.4494 12.2825C22.1843 11.5939 21.0917 10.9997 21.0859 9.68599C21.0843 9.25393 21.29 8.78587 21.6373 8.43459C21.985 8.08265 22.4234 7.889 22.8712 7.889C23.8557 7.889 24.6566 8.69603 24.6566 9.68826C24.6566 9.97111 24.8845 10.2008 25.1653 10.2008C25.446 10.2008 25.6739 9.97111 25.6739 9.68826C25.6739 8.30646 24.6833 7.15561 23.3805 6.91299V5.50102C23.3805 5.21818 23.1526 4.98853 22.8719 4.98853C22.5912 4.98853 22.3633 5.21818 22.3633 5.50102V6.91558C21.8292 7.0223 21.328 7.29509 20.9159 7.71158C20.3741 8.26008 20.0651 8.98114 20.0683 9.69053C20.0763 11.6127 21.6112 12.448 22.9659 13.1846C24.3163 13.9193 25.5921 14.6134 25.653 16.267C25.6787 16.9738 25.417 17.6518 24.9154 18.1763C24.3839 18.7319 23.639 19.0508 22.8712 19.0508C21.3376 19.0508 20.0898 17.7935 20.0898 16.2482C20.0898 15.9654 19.8619 15.7357 19.5812 15.7357C19.3005 15.7357 19.0726 15.9654 19.0726 16.2482C19.0726 18.185 20.5087 19.7864 22.3636 20.0378V21.4394C22.3636 21.7222 22.5915 21.9519 22.8722 21.9519C23.1529 21.9519 23.3808 21.7222 23.3808 21.4394V21.4384Z" fill="#8789FF"/>
  <path d="M42.801 48.975H32.1737C29.8414 46.6967 26.8269 45.3745 23.6 45.2013C25.3593 40.7942 28.9947 37.9784 29.9859 37.2716C30.6011 37.582 32.1248 38.2249 34.1983 38.2249C36.0261 38.2249 38.2783 37.7241 40.703 36.0523C46.6215 31.9714 45.7127 26.3307 45.6712 26.0926C45.6458 25.947 45.5592 25.8195 45.434 25.7433C45.2286 25.6178 40.3389 22.7212 34.421 26.802C29.2536 30.3648 29.2906 35.1162 29.411 36.4233C28.4784 37.0766 25.3883 39.4361 23.3814 43.2467V26.9253C30.5174 26.6544 36.2405 20.724 36.2405 13.4693C36.2405 6.04228 30.2438 0 22.8728 0C15.5017 0 9.50498 6.04228 9.50498 13.4693C9.50498 20.7244 15.2281 26.6544 22.3641 26.9253V43.2461C20.3495 39.4215 17.2456 37.0604 16.3345 36.423C16.4549 35.1155 16.4916 30.3645 11.3245 26.8017C5.40596 22.7208 0.51694 25.6174 0.311554 25.743C0.186005 25.8195 0.0997299 25.947 0.0742982 26.0923C0.0324484 26.3304 -0.876013 31.9711 5.04251 36.0519C7.46754 37.7241 9.71938 38.2245 11.5472 38.2245C13.6214 38.2245 15.1454 37.581 15.7602 37.2709C16.7302 37.9599 20.3788 40.7724 22.1459 45.201C18.9189 45.3742 15.9045 46.6963 13.5718 48.9747H2.94423C2.66351 48.9747 2.43559 49.2043 2.43559 49.4872C2.43559 49.77 2.66351 49.9997 2.94423 49.9997H13.7798C13.9147 49.9997 14.0441 49.9455 14.1394 49.8495C18.9553 44.9973 26.7902 44.998 31.6055 49.8495C31.7008 49.9455 31.8302 49.9997 31.9651 49.9997H42.8007C43.0814 49.9997 43.3093 49.77 43.3093 49.4872C43.3093 49.2043 43.0814 48.9747 42.8007 48.9747L42.801 48.975ZM34.9953 27.6476C39.7646 24.3592 43.75 26.0219 44.6987 26.5062C44.803 27.573 44.898 31.9176 40.1284 35.2063C36.001 38.052 32.4628 37.1901 30.9697 36.593L37.8489 31.8498C38.0806 31.6902 38.1402 31.371 37.9812 31.1375C37.8228 30.9043 37.5063 30.8436 37.2742 31.0038L30.3954 35.747C30.3835 34.1278 30.8677 30.493 34.995 27.6473L34.9953 27.6476ZM5.61617 35.2063C0.850772 31.9202 0.941554 27.5802 1.04553 26.5088C1.98812 26.0394 6.02179 24.3878 10.7492 27.6476C14.8769 30.4936 15.3607 34.1288 15.3491 35.747L8.47 31.0038C8.2379 30.8433 7.92145 30.9039 7.76306 31.1375C7.60436 31.371 7.66359 31.6899 7.89537 31.8498L14.7668 36.5875C13.2637 37.1733 9.70039 38.0218 5.61617 35.2063ZM10.5219 13.4693C10.5219 6.60733 16.0622 1.025 22.8724 1.025C29.6827 1.025 35.2229 6.60733 35.2229 13.4693C35.2229 20.3312 29.6827 25.9132 22.8724 25.9132C16.0622 25.9132 10.5219 20.3309 10.5219 13.4693Z" fill="#FAFAFA"/>
  </g>
  <defs>
  <clipPath id="clip0_1727_156151">
  <rect width="45.7447" height="50" fill="white"/>
  </clipPath>
  </defs>
  </svg>
  