<svg width="58" height="40" viewBox="0 0 58 40" fill="none" xmlns="http://www.w3.org/2000/svg">
  <g clip-path="url(#clip0_1727_156147)">
  <path d="M39.4684 21.8321L29.711 25.6062C29.1486 25.8238 28.5258 25.8238 27.9634 25.6062L0.954979 15.1594C0.901513 15.1387 0.866364 15.0871 0.866364 15.0293V11.5413C0.866364 11.4835 0.90176 11.4319 0.955474 11.4112L27.9686 1.03369C28.5281 0.818849 29.1464 0.818849 29.7058 1.03369L56.719 11.4115C56.7724 11.4321 56.8081 11.4837 56.8081 11.5416V15.0296C56.8081 15.0871 56.7727 15.139 56.7195 15.1597L47.4198 18.7568" stroke="#FAFAFA" stroke-width="1.5" stroke-miterlimit="10" stroke-linecap="round"/>
  <path d="M14.4805 25.085V35.3007C14.4805 37.4142 20.9636 39.1277 28.961 39.1277C36.9584 39.1277 43.4415 37.4142 43.4415 35.3007V25.085" stroke="#FAFAFA" stroke-width="1.5" stroke-miterlimit="10" stroke-linecap="round"/>
  <path d="M28.6993 13.531L50.1248 23.4579V29.3301L51.5028 30.019C52.0233 30.2792 52.3525 30.814 52.3525 31.3992V33.886C52.3525 34.6689 51.7223 35.3034 50.9448 35.3034H49.8772" stroke="#8789FF" stroke-width="1.5" stroke-miterlimit="10" stroke-linecap="round"/>
  </g>
  <defs>
  <clipPath id="clip0_1727_156147">
  <rect width="57.6744" height="40" fill="white"/>
  </clipPath>
  </defs>
  </svg>
  