<svg width="49" height="49" viewBox="0 0 49 49" fill="none" xmlns="http://www.w3.org/2000/svg">
  <g clip-path="url(#clip0_1727_156116)">
  <path d="M25.0862 20.5591C23.6603 19.789 22.7862 19.2564 22.7811 18.0575C22.7794 17.6453 22.9779 17.199 23.3123 16.8629C23.647 16.5269 24.0684 16.3416 24.499 16.3416C25.4465 16.3416 26.2172 17.1124 26.2172 18.0595C26.2172 18.3574 26.4588 18.5986 26.7563 18.5986C27.0538 18.5986 27.2954 18.3574 27.2954 18.0595C27.2954 16.7026 26.3233 15.5691 25.0391 15.3166V13.971C25.0391 13.6731 24.7975 13.4319 24.5 13.4319C24.2025 13.4319 23.9609 13.6731 23.9609 13.971V15.3197C23.4396 15.4296 22.951 15.6978 22.5484 16.1021C22.0079 16.6446 21.6998 17.359 21.7029 18.0619C21.7111 19.962 23.2321 20.7833 24.574 21.508C25.9504 22.2511 27.1388 22.8929 27.1978 24.4849C27.2227 25.1645 26.9689 25.8166 26.4827 26.3209C25.9671 26.8559 25.2441 27.1629 24.4993 27.1629C23.0117 27.1629 21.8015 25.9527 21.8015 24.4651C21.8015 24.1672 21.5599 23.926 21.2624 23.926C20.9649 23.926 20.7233 24.1672 20.7233 24.4651C20.7233 26.3642 22.1338 27.9361 23.9616 28.1985V29.5339C23.9616 29.8318 24.2031 30.073 24.5007 30.073C24.7982 30.073 25.0398 29.8318 25.0398 29.5339V28.1981C25.8787 28.0773 26.6676 27.6836 27.2592 27.0698C27.9505 26.3522 28.3114 25.4204 28.2753 24.4457C28.1937 22.2371 26.543 21.3459 25.0868 20.5598L25.0862 20.5591Z" fill="#8789FF"/>
  <path d="M47.3086 35.3147C46.2079 34.4538 44.6971 34.2235 42.8185 34.6302C42.1873 34.7667 41.5776 34.8977 40.9876 35.023C43.0112 32.651 44.1652 29.7764 44.1652 27.0632C44.1652 21.829 41.6953 14.3844 30.0292 8.44116L34.1768 1.46509C34.3156 1.23205 34.2593 0.932144 34.0454 0.764959C33.5507 0.378044 32.9819 0 31.961 0C30.8409 0 30.2425 0.474261 29.7614 0.855375C29.3226 1.20305 28.976 1.47771 28.2315 1.47771C27.487 1.47771 27.14 1.20305 26.7012 0.855375C26.2201 0.474261 25.6214 0 24.5009 0C23.3804 0 22.7819 0.474261 22.3012 0.855375C21.8621 1.20305 21.5154 1.47771 20.7703 1.47771C20.0251 1.47771 19.6781 1.20305 19.2393 0.855375C18.7583 0.474261 18.1595 0 17.039 0C16.0178 0 15.4487 0.378044 14.9533 0.7653C14.7394 0.932485 14.6834 1.2324 14.8219 1.46543L18.9695 8.44116C7.30444 14.3844 4.83455 21.829 4.83455 27.0632C4.83455 29.4168 5.70288 31.8915 7.25326 34.0543C5.09829 34.8844 2.47861 36.4328 0.120972 39.3251C-0.0670249 39.5557 -0.0325645 39.8956 0.198082 40.0836C0.428728 40.2712 0.768555 40.2371 0.956552 40.0061C5.6674 34.2259 11.6291 34.17 11.7304 34.17H24.6101C26.3003 34.17 27.6757 35.5453 27.6757 37.2356C27.6757 38.9259 26.3003 40.3012 24.6101 40.3012H11.7311C11.4335 40.3012 11.192 40.5425 11.192 40.8403C11.192 41.1382 11.4335 41.3794 11.7311 41.3794H24.6101C26.4402 41.3794 27.9943 40.1852 28.5416 38.5362C29.7948 38.3322 34.5377 37.5249 43.0457 35.6835C44.593 35.3488 45.8008 35.5085 46.6368 36.1581C47.4918 36.8224 47.7798 37.8675 47.8749 38.4271L20.4584 47.9215H0.538933C0.241413 47.9218 -0.000151203 48.1634 -0.000151203 48.4609C-0.000151203 48.7584 0.241413 49 0.538933 49H20.5499C20.6099 49 20.6693 48.9901 20.7263 48.9703L48.6372 39.3046C48.86 39.2275 49.0067 39.0146 48.9995 38.7788C48.9968 38.6891 48.9149 36.571 47.3086 35.3147ZM17.0393 1.07818C17.7845 1.07818 18.1315 1.35284 18.5703 1.70051C19.0513 2.08163 19.6501 2.55589 20.7706 2.55589C21.8911 2.55589 22.4899 2.08163 22.971 1.70051C23.4097 1.35284 23.7564 1.07818 24.5012 1.07818C25.246 1.07818 25.593 1.35284 26.0318 1.70051C26.5125 2.08163 27.1113 2.55589 28.2315 2.55589C29.3516 2.55589 29.9501 2.08163 30.4311 1.70051C30.8699 1.35284 31.2166 1.07818 31.961 1.07818C32.4169 1.07818 32.725 1.18224 32.9952 1.34226L28.963 8.12419H20.0357L16.0042 1.3426C16.2747 1.18224 16.5828 1.07818 17.0393 1.07818ZM24.6104 33.0918H11.7362C11.6168 33.0938 10.2476 33.099 8.31471 33.6885C6.8486 31.7471 5.91271 29.397 5.91271 27.0629C5.91271 19.9142 10.7334 13.7403 19.8552 9.20236H29.1438C38.2659 13.7403 43.0863 19.9142 43.0863 27.0629C43.0863 30.1456 41.4561 33.2573 39.1227 35.415C33.5442 36.5771 30.1251 37.179 28.745 37.41C28.7474 37.3516 28.7538 37.2943 28.7538 37.2356C28.7538 34.9506 26.8954 33.0918 24.6104 33.0918Z" fill="#FAFAFA"/>
  </g>
  <defs>
  <clipPath id="clip0_1727_156116">
  <rect width="49" height="49" fill="white"/>
  </clipPath>
  </defs>
  </svg>
  