<svg width="66" height="53" viewBox="0 0 66 53" fill="none" xmlns="http://www.w3.org/2000/svg">
  <g clip-path="url(#clip0_1674_48493)">
  <path d="M55.8393 10.1384C54.1654 10.1384 52.6486 10.7949 51.5227 11.8576C50.3973 10.7949 48.8799 10.1384 47.2061 10.1384C43.7386 10.1384 40.9277 12.9364 40.9277 16.388C40.9277 23.4188 51.5227 29.5121 51.5227 29.5121C51.5227 29.5121 62.1176 23.4193 62.1176 16.388C62.1176 12.9364 59.3068 10.1384 55.8393 10.1384Z" stroke="#FAFAFA" stroke-linecap="round" stroke-linejoin="round"/>
  <path d="M37.9916 20.1512H46.9376L48.7557 15.9658L52.3291 22.5395L55.2958 17.9025L56.572 20.1512H65.168" stroke="#8789FF" stroke-linecap="round" stroke-linejoin="round"/>
  <path d="M16.916 38.922V44.1668C16.916 48.2832 20.2681 51.62 24.4033 51.62C28.5386 51.62 31.8907 48.2832 31.8907 44.1668V35.8856C31.8907 32.684 34.498 30.0887 37.7143 30.0887C40.9305 30.0887 43.5378 32.684 43.5378 35.8856V48.0314C43.5378 50.3181 45.4002 52.172 47.6975 52.172C49.9947 52.172 51.8571 50.3181 51.8571 48.0314V29.5366" stroke="#FAFAFA" stroke-linecap="round" stroke-linejoin="round"/>
  <path d="M29.1176 12.4219V16.8385C29.1176 23.5464 23.6546 28.9844 16.9159 28.9844C10.1773 28.9844 4.71426 23.5464 4.71426 16.8385V12.4219H0.831909V16.8385C0.831909 24.931 6.86509 31.6173 14.6975 32.6938V36.8035C14.6975 37.6686 15.4018 38.3698 16.2709 38.3698H17.561C18.4301 38.3698 19.1344 37.6686 19.1344 36.8035V32.6938C26.9668 31.6178 33 24.931 33 16.8385V12.4219H29.1176Z" stroke="#FAFAFA" stroke-linecap="round" stroke-linejoin="round"/>
  <path d="M2.49579 11.87V5.39899C2.49579 4.09441 3.55844 3.03662 4.86902 3.03662H5.2689" stroke="#FAFAFA" stroke-linecap="round" stroke-linejoin="round"/>
  <path d="M7.25996 0.828189H9.37917C10.1717 0.828189 10.8151 1.46861 10.8151 2.25753V4.36704C10.8151 5.15597 10.1717 5.79694 9.37862 5.79694H7.25941C6.46685 5.79694 5.82294 5.15652 5.82294 4.36704V2.25753C5.82294 1.46861 6.4663 0.827637 7.25941 0.827637L7.25996 0.828189Z" stroke="#8789FF" stroke-linecap="round" stroke-linejoin="round"/>
  <path d="M31.3361 11.87V5.39899C31.3361 4.09441 30.2734 3.03662 28.9629 3.03662H28.563" stroke="#FAFAFA" stroke-linecap="round" stroke-linejoin="round"/>
  <path d="M26.5719 5.79688H24.4527C23.6601 5.79688 23.0162 5.15646 23.0162 4.36698V2.25747C23.0162 1.46854 23.6596 0.827573 24.4527 0.827573H26.5719C27.3645 0.827573 28.0078 1.46799 28.0078 2.25692V4.36643C28.0078 5.15535 27.3645 5.79632 26.5713 5.79632L26.5719 5.79688Z" stroke="#8789FF" stroke-linecap="round" stroke-linejoin="round"/>
  </g>
  <defs>
  <clipPath id="clip0_1674_48493">
  <rect width="66" height="53" fill="white"/>
  </clipPath>
  </defs>
  </svg>
  