<svg width="50" height="50" viewBox="0 0 50 50" fill="none" xmlns="http://www.w3.org/2000/svg">
  <g clip-path="url(#clip0_1712_145612)">
  <path d="M28.7642 7.60684C28.6555 3.34148 25.3082 0 21.1434 0C18.7449 0 16.1586 1.11407 14.384 2.87807C12.6091 1.11407 10.0229 0 7.62464 0C3.45986 0 0.112167 3.34111 0.00354013 7.60684C-0.237854 17.0815 13.5026 25.4027 14.0874 25.7527C14.1789 25.8072 14.2816 25.8346 14.384 25.8346C14.4864 25.8346 14.5892 25.8072 14.6807 25.7527C15.2655 25.4031 29.0063 17.0797 28.7642 7.60684ZM14.384 24.5776C12.3315 23.2974 0.951194 15.8237 1.15967 7.63646C1.25257 4.00275 4.09224 1.15686 7.62464 1.15686C9.90727 1.15686 12.3896 2.31336 13.9477 4.10333C14.1679 4.35606 14.6006 4.35497 14.8204 4.10333C16.3781 2.31336 18.8601 1.15686 21.1434 1.15686C24.6758 1.15686 27.5155 4.00312 27.6077 7.63646C27.8169 15.8223 16.4366 23.2974 14.384 24.5776Z" fill="#FAFAFA"/>
  <path d="M36.5683 23.0447C29.1618 23.0447 23.1365 29.0704 23.1365 36.4768C23.1365 43.8832 29.1622 49.9085 36.5683 49.9085C43.9743 49.9085 50 43.8832 50 36.4768C50 29.0704 43.9743 23.0447 36.5683 23.0447ZM36.5683 48.7517C29.7997 48.7517 24.2934 43.2453 24.2934 36.4768C24.2934 29.7082 29.8001 24.2015 36.5683 24.2015C43.3364 24.2015 48.8431 29.7082 48.8431 36.4768C48.8431 43.2453 43.3364 48.7517 36.5683 48.7517Z" fill="#FAFAFA"/>
  <path d="M41.0147 39.8209C38.563 42.2721 34.5735 42.2721 32.1218 39.8209C31.8958 39.5949 31.5297 39.5949 31.304 39.8209C31.0784 40.0469 31.078 40.413 31.304 40.6387C32.7553 42.09 34.662 42.8156 36.5686 42.8156C38.4753 42.8156 40.3819 42.09 41.8332 40.6387C42.0592 40.413 42.0592 40.0469 41.8332 39.8209C41.6072 39.5949 41.2411 39.5949 41.0154 39.8209H41.0147Z" fill="#FAFAFA"/>
  <path d="M32.3417 34.2284C33.0483 34.2284 33.6229 33.6535 33.6229 32.9472C33.6229 32.241 33.0479 31.666 32.3417 31.666C31.6354 31.666 31.0605 32.241 31.0605 32.9472C31.0605 33.6535 31.6354 34.2284 32.3417 34.2284Z" fill="#FAFAFA"/>
  <path d="M40.7945 31.666C40.0878 31.666 39.5132 32.241 39.5132 32.9472C39.5132 33.6535 40.0882 34.2284 40.7945 34.2284C41.5007 34.2284 42.0757 33.6535 42.0757 32.9472C42.0757 32.241 41.5007 31.666 40.7945 31.666Z" fill="#FAFAFA"/>
  <path d="M35.494 12.2507C35.494 12.57 35.753 12.8289 36.0723 12.8289H37.679V14.4356C37.679 14.7549 37.938 15.0139 38.2573 15.0139C38.5766 15.0139 38.8355 14.7549 38.8355 14.4356V12.8289H40.4423C40.7616 12.8289 41.0205 12.57 41.0205 12.2507C41.0205 11.9314 40.7616 11.672 40.4423 11.672H38.8355V10.0653C38.8355 9.74601 38.5766 9.48706 38.2573 9.48706C37.938 9.48706 37.679 9.74601 37.679 10.0653V11.672H36.0723C35.753 11.672 35.494 11.931 35.494 12.2507Z" fill="#8789FF"/>
  <path d="M4.94858 30.1838H3.34184V28.577C3.34184 28.2577 3.08289 27.9988 2.7636 27.9988C2.4443 27.9988 2.18498 28.2577 2.18498 28.577V30.1838H0.578614C0.259316 30.1838 0 30.4427 0 30.762C0 31.0813 0.25895 31.3403 0.578614 31.3403H2.18535V32.947C2.18535 33.2663 2.4443 33.5252 2.76396 33.5252C3.08362 33.5252 3.34221 33.2663 3.34221 32.947V31.3403H4.94894C5.26824 31.3403 5.52719 31.0813 5.52719 30.762C5.52719 30.4427 5.26824 30.1838 4.94894 30.1838H4.94858Z" fill="#8789FF"/>
  <path d="M15.917 46.6581H14.3103V45.0514C14.3103 44.7321 14.0513 44.4731 13.732 44.4731C13.4127 44.4731 13.1534 44.7321 13.1534 45.0514V46.6581H11.5467C11.2274 46.6581 10.9681 46.9171 10.9681 47.2364C10.9681 47.5557 11.227 47.8146 11.5467 47.8146H13.1534V49.4214C13.1534 49.7407 13.4124 49.9996 13.732 49.9996C14.0517 49.9996 14.3103 49.7407 14.3103 49.4214V47.8146H15.917C16.2363 47.8146 16.4953 47.5557 16.4953 47.2364C16.4953 46.9171 16.2363 46.6581 15.917 46.6581Z" fill="#8789FF"/>
  <path d="M15.9902 35.1298C15.9902 34.5275 15.5001 34.0374 14.8977 34.0374C14.2953 34.0374 13.8052 34.5275 13.8052 35.1298C13.8052 35.7322 14.2953 36.2223 14.8977 36.2223C15.5001 36.2223 15.9902 35.7322 15.9902 35.1298Z" fill="#8789FF"/>
  <path d="M2.7636 42.7275C2.16122 42.7275 1.67111 43.2176 1.67111 43.82C1.67111 44.4224 2.16122 44.9125 2.7636 44.9125C3.36599 44.9125 3.85609 44.4224 3.85609 43.82C3.85609 43.2176 3.36599 42.7275 2.7636 42.7275Z" fill="#8789FF"/>
  <path d="M34.9586 2.18498C35.561 2.18498 36.0511 1.69488 36.0511 1.09249C36.0511 0.490103 35.561 0 34.9586 0C34.3562 0 33.8661 0.490103 33.8661 1.09249C33.8661 1.69488 34.3562 2.18498 34.9586 2.18498Z" fill="#8789FF"/>
  <path d="M45.4124 20.0883C46.0148 20.0883 46.5049 19.5982 46.5049 18.9958C46.5049 18.3934 46.0148 17.9033 45.4124 17.9033C44.81 17.9033 44.3199 18.3934 44.3199 18.9958C44.3199 19.5982 44.81 20.0883 45.4124 20.0883Z" fill="#8789FF"/>
  </g>
  <defs>
  <clipPath id="clip0_1712_145612">
  <rect width="50" height="50" fill="white"/>
  </clipPath>
  </defs>
  </svg>
  