<svg width="46" height="49" viewBox="0 0 46 49" fill="none" xmlns="http://www.w3.org/2000/svg">
  <g clip-path="url(#clip0_1711_145373)">
  <path d="M22.767 21.9247C22.8471 21.9729 22.9371 21.9971 23.0267 21.9971C23.1164 21.9971 23.2064 21.9729 23.2865 21.9247C23.7797 21.6275 35.3655 14.5485 35.1611 6.48439C35.0695 2.84831 32.2408 0 28.7213 0C26.7023 0 24.525 0.943513 23.0264 2.43859C21.5278 0.943513 19.3509 0 17.3319 0C13.8126 0 10.9836 2.84831 10.8917 6.48439C10.6877 14.5485 22.2731 21.6275 22.7664 21.9247H22.767ZM11.9047 6.51056C11.9826 3.43284 14.3667 1.02203 17.3322 1.02203C19.25 1.02203 21.3354 2.0027 22.6446 3.52008C22.8371 3.74271 23.2163 3.74271 23.4088 3.52008C24.7181 2.0027 26.8035 1.02203 28.7216 1.02203C31.6874 1.02203 34.0712 3.43284 34.1487 6.51056C34.3242 13.4451 24.7819 19.7811 23.0267 20.8869C21.2716 19.7811 11.7296 13.4454 11.9047 6.51056Z" fill="#8789FF"/>
  <path d="M30.7906 38.4113C33.7301 38.4113 37.887 37.6032 41.543 33.9148C48.0152 27.3848 45.5394 19.2729 45.5138 19.1918C45.4638 19.0344 45.3418 18.9113 45.1862 18.8609C45.1055 18.8351 37.0649 16.3373 30.5927 22.867C24.8036 28.7074 26.1728 35.8125 26.545 37.306C25.9265 38.0533 23.9431 40.6629 23.0002 44.4327C22.0573 40.6629 20.0741 38.0537 19.4553 37.306C19.8275 35.8125 21.1967 28.7074 15.4076 22.8666C8.93513 16.337 0.894859 18.8351 0.813828 18.8609C0.657852 18.9113 0.535826 19.0344 0.486183 19.1918C0.460561 19.2729 -2.01519 27.3848 4.457 33.9148C8.1133 37.6039 12.2699 38.4113 15.2094 38.4113C16.8723 38.4113 18.1428 38.1532 18.7158 38.0113C19.4861 38.9684 22.3055 42.8135 22.4839 47.978H7.43719C7.15758 47.978 6.93083 48.2068 6.93083 48.4888C6.93083 48.7709 7.15758 48.9997 7.43719 48.9997H38.6166C38.8962 48.9997 39.123 48.7709 39.123 48.4888C39.123 48.2068 38.8962 47.978 38.6166 47.978H23.5165C23.6945 42.8132 26.5143 38.9681 27.2842 38.0113C27.8569 38.1532 29.1274 38.4113 30.7906 38.4113ZM31.3088 23.5898C36.7004 18.1504 43.2482 19.4199 44.619 19.764C44.9604 21.147 46.2181 27.7529 40.8269 33.1923C35.9942 38.0679 30.2346 37.5531 28.1054 37.1463L38.837 26.3195C39.0349 26.1198 39.0349 25.7964 38.837 25.597C38.639 25.3973 38.3188 25.3973 38.1208 25.597L27.3893 36.4238C26.9857 34.2751 26.4761 28.465 31.3088 23.5898ZM5.17346 33.1923C-0.218109 27.7529 1.03994 21.147 1.38104 19.7637C2.75215 19.4196 9.30025 18.1507 14.6912 23.5895C19.5239 28.4654 19.014 34.2754 18.6107 36.4238L7.87917 25.597C7.68124 25.3973 7.36096 25.3973 7.16303 25.597C6.9651 25.7967 6.9651 26.1198 7.16303 26.3195L17.8946 37.1463C15.7641 37.5528 10.0058 38.0672 5.17346 33.1923Z" fill="#FAFAFA"/>
  </g>
  <defs>
  <clipPath id="clip0_1711_145373">
  <rect width="46" height="49" fill="white"/>
  </clipPath>
  </defs>
  </svg>
  