<svg width="51" height="51" viewBox="0 0 51 51" fill="none" xmlns="http://www.w3.org/2000/svg">
  <g clip-path="url(#clip0_1727_151150)">
  <path d="M7.38125 23.994C6.61076 25.0008 5.69914 26.0246 4.64558 27.073C2.06442 29.6416 0.507103 33.2291 0.635658 37.1774C0.861782 44.1414 6.48094 49.9157 13.4694 50.3474C21.4415 50.8399 28.0619 44.5518 28.0619 36.7248C28.0619 32.9553 26.5268 29.5429 24.0444 27.073C22.6818 25.7171 21.5562 24.4011 20.6668 23.1118" stroke="#FAFAFA" stroke-linecap="round" stroke-linejoin="round"/>
  <path d="M9.65923 8.38132C9.05456 8.61759 8.32762 8.95929 7.5567 9.45726C6.83771 9.92189 6.26068 10.4057 5.81472 10.8324M20.3444 9.73978C20.795 9.05597 21.3209 8.23839 21.8481 6.98743C22.8183 4.68471 23.3338 2.92287 23.4088 1.52731C21.3992 -0.564143 18.723 1.43772 14.1038 2.93037C12.2257 3.53751 7.6258 2.71118 7.42019 4.18924C7.52655 5.09266 8.3318 6.19485 9.35899 7.84377C10.1412 9.09931 11.7718 10.4474 12.8086 10.4474C13.8454 10.4474 16.8847 10.4299 16.8847 10.4299C18.4416 10.2794 19.2561 10.1502 21.2242 9.84896C22.2045 9.69853 23.3866 10.3511 23.5382 11.4558C23.6462 11.965 23.2212 12.7255 22.7379 13.0484C23.4444 13.2922 23.9561 13.9523 23.9561 14.7415C23.9561 15.6312 23.2928 16.37 22.4352 16.4992C22.8606 16.8292 23.1487 17.3384 23.1487 17.9198C23.1487 18.8594 22.3992 19.6341 21.4691 19.6987C21.8871 20.0287 22.1613 20.5308 22.1613 21.0976C22.1613 21.3201 22.0604 21.8147 21.2242 22.4177C21.0006 22.5898 20.7125 22.7619 20.359 22.9411C19.9771 23.1348 19.0974 23.5507 17.6196 23.8308C15.8249 24.1679 13.1503 24.3112 9.41636 23.6157C8.64335 23.4774 7.59816 23.2582 6.3616 22.9111" stroke="#FAFAFA" stroke-linecap="round" stroke-linejoin="round"/>
  <path d="M1.79726 10.4473H5.55844C5.56598 10.4548 5.56598 23.3652 5.56598 23.3652H1.79726" stroke="#FAFAFA" stroke-linecap="round" stroke-linejoin="round"/>
  <path d="M14.5213 41.3237L14.4995 41.9213" stroke="#6C6FF5" stroke-linecap="round" stroke-linejoin="round"/>
  <path d="M14.3199 30.9221L14.2973 31.9547" stroke="#6C6FF5" stroke-linecap="round" stroke-linejoin="round"/>
  <path d="M16.5677 33.4C16.4354 33.2287 15.7482 32.3765 14.5682 32.2603C13.6846 32.1732 12.4879 32.4953 12.0628 33.3979C11.7944 33.9684 11.8442 34.7493 12.25 35.3264C13.2031 36.6811 15.35 35.8177 16.4835 37.2224C16.9463 37.7954 17.1452 38.6284 16.8864 39.301C16.4919 40.3257 15.1578 40.6611 14.3722 40.6878C12.8191 40.7399 11.8078 39.6377 11.6583 39.4689" stroke="#6C6FF5" stroke-linecap="round" stroke-linejoin="round"/>
  <path d="M25.2471 8.36377H49.5055C49.9837 8.36377 50.3719 8.74964 50.3719 9.22594V45.1461C50.3719 45.7745 49.8598 46.2842 49.2283 46.2842H27.3408" stroke="#FAFAFA" stroke-linecap="round" stroke-linejoin="round"/>
  <path d="M26.5033 18.7815H34.4595" stroke="#6C6FF5" stroke-miterlimit="10" stroke-linecap="round"/>
  <path d="M26.9221 15.031H34.4595" stroke="#6C6FF5" stroke-miterlimit="10" stroke-linecap="round"/>
  <path d="M39.4845 16.2811L41.5782 18.7813L45.3469 14.6143" stroke="#8E8CC1" stroke-linecap="round" stroke-linejoin="round"/>
  <path d="M29.4345 29.1992H34.4595" stroke="#6C6FF5" stroke-miterlimit="10" stroke-linecap="round"/>
  <path d="M26.9221 25.4487H34.4595" stroke="#6C6FF5" stroke-miterlimit="10" stroke-linecap="round"/>
  <path d="M39.4845 26.6988L41.5782 29.1991L45.3469 25.032" stroke="#8E8CC1" stroke-linecap="round" stroke-linejoin="round"/>
  <path d="M30.6908 39.6167H34.4595" stroke="#6C6FF5" stroke-miterlimit="10" stroke-linecap="round"/>
  <path d="M30.6908 35.8665H34.4595" stroke="#6C6FF5" stroke-miterlimit="10" stroke-linecap="round"/>
  <path d="M39.4845 37.1165L41.5782 39.6168L45.3469 35.4497" stroke="#8E8CC1" stroke-linecap="round" stroke-linejoin="round"/>
  </g>
  <defs>
  <clipPath id="clip0_1727_151150">
  <rect width="51" height="51" fill="white"/>
  </clipPath>
  </defs>
  </svg>
  