<svg width="50" height="50" viewBox="0 0 50 50" fill="none" xmlns="http://www.w3.org/2000/svg">
  <g clip-path="url(#clip0_1727_147709)">
  <path d="M38.0338 21.776C36.6951 21.0532 35.8745 20.5536 35.87 19.4395C35.8682 19.0593 36.0524 18.6467 36.3619 18.3355C36.6718 18.0242 37.0614 17.8526 37.459 17.8526C38.3353 17.8526 39.048 18.5653 39.048 19.4416C39.048 19.7452 39.2945 19.9917 39.5981 19.9917C39.9017 19.9917 40.1482 19.7452 40.1482 19.4416C40.1482 18.1478 39.2294 17.0647 38.0101 16.8095V15.5669C38.0101 15.2633 37.7636 15.0168 37.46 15.0168C37.1564 15.0168 36.9099 15.2633 36.9099 15.5669V16.8151C36.4201 16.9248 35.9616 17.1789 35.5824 17.5594C35.063 18.081 34.767 18.7679 34.7698 19.4444C34.7775 21.2684 36.23 22.0524 37.5112 22.7446C38.8046 23.443 39.9218 24.0463 39.9769 25.533C40.0002 26.1663 39.7634 26.7741 39.3101 27.2445C38.8286 27.7441 38.1539 28.0306 37.4586 28.0306C36.0702 28.0306 34.9408 26.9012 34.9408 25.5128C34.9408 25.2092 34.6943 24.9627 34.3907 24.9627C34.0871 24.9627 33.8406 25.2092 33.8406 25.5128C33.8406 27.3204 35.1747 28.8185 36.9096 29.0845V30.3163C36.9096 30.6199 37.1561 30.8664 37.4597 30.8664C37.7633 30.8664 38.0098 30.6199 38.0098 30.3163V29.0842C38.8008 28.9627 39.5431 28.5884 40.1022 28.008C40.7647 27.3204 41.1108 26.427 41.076 25.4926C40.998 23.3772 39.3544 22.4897 38.0334 21.7767L38.0338 21.776Z" fill="#8789FF"/>
  <path d="M14.3023 44.7822C13.9988 44.7822 13.7523 45.0287 13.7523 45.3323C13.7523 45.6359 13.9988 45.8824 14.3023 45.8824H19.3715C19.6751 45.8824 19.9216 45.6359 19.9216 45.3323C19.9216 45.0287 19.6751 44.7822 19.3715 44.7822H14.3023Z" fill="#FAFAFA"/>
  <path d="M29.0057 10.3938C29.3093 10.3938 29.5558 10.1473 29.5558 9.84372V4.66801C29.5558 4.36442 29.3093 4.11792 29.0057 4.11792H4.66777C4.36417 4.11792 4.11768 4.36442 4.11768 4.66801V41.2145C4.11768 41.5181 4.36417 41.7646 4.66777 41.7646H29.0057C29.3093 41.7646 29.5558 41.5181 29.5558 41.2145V36.0388C29.5558 35.7352 29.3093 35.4887 29.0057 35.4887C28.7021 35.4887 28.4557 35.7352 28.4557 36.0388V40.664H5.2182V5.2181H28.456V9.84372C28.456 10.1473 28.7025 10.3938 29.0061 10.3938H29.0057Z" fill="#FAFAFA"/>
  <path d="M33.1237 37.3706C32.8201 37.3706 32.5736 37.6171 32.5736 37.9207V46.8763C32.5736 47.9922 31.666 48.8998 30.5502 48.8998H3.12367C2.00783 48.8998 1.10018 47.9922 1.10018 46.8763V3.12367C1.10018 2.00783 2.00783 1.10018 3.12367 1.10018H30.5498C31.6657 1.10018 32.5733 2.00817 32.5733 3.12367V7.96098C32.5733 8.26457 32.8198 8.51107 33.1234 8.51107C33.427 8.51107 33.6735 8.26457 33.6735 7.96098V3.12367C33.6735 1.40099 32.2721 0 30.5498 0H3.12367C1.40134 0 0 1.40134 0 3.12367V46.8763C0 48.5987 1.40134 50 3.12367 50H30.5498C32.2721 50 33.6735 48.5987 33.6735 46.8763V37.9207C33.6735 37.6171 33.4273 37.3706 33.1237 37.3706Z" fill="#FAFAFA"/>
  <path d="M37.4597 10.4009C30.5449 10.4009 24.9194 16.0264 24.9194 22.9412C24.9194 29.8559 30.5449 35.4815 37.4597 35.4815C44.3744 35.4815 50 29.8559 50 22.9412C50 16.0264 44.3744 10.4009 37.4597 10.4009ZM37.4597 34.3813C31.1517 34.3813 26.0196 29.2491 26.0196 22.9412C26.0196 16.6333 31.1517 11.5011 37.4597 11.5011C43.7676 11.5011 48.8998 16.6333 48.8998 22.9412C48.8998 29.2491 43.7676 34.3813 37.4597 34.3813Z" fill="#8789FF"/>
  <path d="M22.4165 22.9412C22.4165 22.6376 22.17 22.3911 21.8664 22.3911H10.4987C10.1951 22.3911 9.94861 22.6376 9.94861 22.9412C9.94861 23.2448 10.1951 23.4913 10.4987 23.4913H21.8664C22.17 23.4913 22.4165 23.2448 22.4165 22.9412Z" fill="#FAFAFA"/>
  <path d="M13.2652 28.6388H22.7403C23.0439 28.6388 23.2904 28.3923 23.2904 28.0887C23.2904 27.7851 23.0439 27.5386 22.7403 27.5386H13.2652C12.9616 27.5386 12.7151 27.7851 12.7151 28.0887C12.7151 28.3923 12.9616 28.6388 13.2652 28.6388Z" fill="#FAFAFA"/>
  <path d="M22.7403 17.2437H13.2652C12.9616 17.2437 12.7151 17.4901 12.7151 17.7937C12.7151 18.0973 12.9616 18.3438 13.2652 18.3438H22.7403C23.0439 18.3438 23.2904 18.0973 23.2904 17.7937C23.2904 17.4901 23.0439 17.2437 22.7403 17.2437Z" fill="#FAFAFA"/>
  </g>
  <defs>
  <clipPath id="clip0_1727_147709">
  <rect width="50" height="50" fill="white"/>
  </clipPath>
  </defs>
  </svg>
  