<?xml version="1.0" encoding="UTF-8"?><svg id="Layer_2" xmlns="http://www.w3.org/2000/svg" viewBox="0 0 118.24 152.22"><defs><style>.cls-1{opacity:.1;}.cls-2{fill:#c4c4c4;}</style></defs><g id="Layer_1-2"><g class="cls-1"><circle class="cls-2" cx="1.36" cy="1.36" r="1.36"/><circle class="cls-2" cx="12.91" cy="1.36" r="1.36"/><circle class="cls-2" cx="24.46" cy="1.36" r="1.36"/><circle class="cls-2" cx="1.36" cy="14.95" r="1.36"/><circle class="cls-2" cx="12.91" cy="14.95" r="1.36"/><circle class="cls-2" cx="24.46" cy="14.95" r="1.36"/><circle class="cls-2" cx="1.36" cy="28.54" r="1.36"/><circle class="cls-2" cx="12.91" cy="28.54" r="1.36"/><circle class="cls-2" cx="24.46" cy="28.54" r="1.36"/><circle class="cls-2" cx="1.36" cy="42.13" r="1.36"/><circle class="cls-2" cx="12.91" cy="42.13" r="1.36"/><circle class="cls-2" cx="24.46" cy="42.13" r="1.36"/><circle class="cls-2" cx="1.36" cy="55.72" r="1.36"/><circle class="cls-2" cx="12.91" cy="55.72" r="1.36"/><circle class="cls-2" cx="24.46" cy="55.72" r="1.36"/><circle class="cls-2" cx="1.36" cy="69.31" r="1.36"/><circle class="cls-2" cx="12.91" cy="69.31" r="1.36"/><circle class="cls-2" cx="24.46" cy="69.31" r="1.36"/><circle class="cls-2" cx="36.02" cy="1.36" r="1.36"/><circle class="cls-2" cx="47.57" cy="1.36" r="1.36"/><circle class="cls-2" cx="59.12" cy="1.36" r="1.36"/><circle class="cls-2" cx="70.67" cy="1.36" r="1.36"/><circle class="cls-2" cx="36.02" cy="14.95" r="1.36"/><circle class="cls-2" cx="47.57" cy="14.95" r="1.36"/><circle class="cls-2" cx="59.12" cy="14.95" r="1.36"/><circle class="cls-2" cx="70.67" cy="14.95" r="1.36"/><circle class="cls-2" cx="36.02" cy="28.54" r="1.36"/><circle class="cls-2" cx="47.57" cy="28.54" r="1.36"/><circle class="cls-2" cx="59.12" cy="28.54" r="1.36"/><circle class="cls-2" cx="70.67" cy="28.54" r="1.36"/><circle class="cls-2" cx="36.02" cy="42.13" r="1.36"/><circle class="cls-2" cx="47.57" cy="42.13" r="1.36"/><circle class="cls-2" cx="59.12" cy="42.13" r="1.36"/><circle class="cls-2" cx="70.67" cy="42.13" r="1.36"/><circle class="cls-2" cx="36.02" cy="55.72" r="1.36"/><circle class="cls-2" cx="47.57" cy="55.72" r="1.36"/><circle class="cls-2" cx="59.12" cy="55.72" r="1.36"/><circle class="cls-2" cx="70.67" cy="55.72" r="1.36"/><circle class="cls-2" cx="36.02" cy="69.31" r="1.36"/><circle class="cls-2" cx="47.57" cy="69.31" r="1.36"/><circle class="cls-2" cx="59.12" cy="69.31" r="1.36"/><circle class="cls-2" cx="70.67" cy="69.31" r="1.36"/><circle class="cls-2" cx="82.22" cy="1.36" r="1.36"/><circle class="cls-2" cx="93.78" cy="1.36" r="1.36"/><circle class="cls-2" cx="105.33" cy="1.36" r="1.36"/><circle class="cls-2" cx="116.88" cy="1.36" r="1.36"/><circle class="cls-2" cx="82.22" cy="14.95" r="1.36"/><circle class="cls-2" cx="93.78" cy="14.95" r="1.36"/><circle class="cls-2" cx="105.33" cy="14.95" r="1.36"/><circle class="cls-2" cx="116.88" cy="14.95" r="1.36"/><circle class="cls-2" cx="82.22" cy="28.54" r="1.36"/><circle class="cls-2" cx="93.78" cy="28.54" r="1.36"/><circle class="cls-2" cx="105.33" cy="28.54" r="1.36"/><circle class="cls-2" cx="116.88" cy="28.54" r="1.36"/><circle class="cls-2" cx="82.22" cy="42.13" r="1.36"/><circle class="cls-2" cx="93.78" cy="42.13" r="1.36"/><circle class="cls-2" cx="105.33" cy="42.13" r="1.36"/><circle class="cls-2" cx="116.88" cy="42.13" r="1.36"/><circle class="cls-2" cx="82.22" cy="55.72" r="1.36"/><circle class="cls-2" cx="93.78" cy="55.72" r="1.36"/><circle class="cls-2" cx="105.33" cy="55.72" r="1.36"/><circle class="cls-2" cx="116.88" cy="55.72" r="1.36"/><circle class="cls-2" cx="82.22" cy="69.31" r="1.36"/><circle class="cls-2" cx="93.78" cy="69.31" r="1.36"/><circle class="cls-2" cx="105.33" cy="69.31" r="1.36"/><circle class="cls-2" cx="116.88" cy="69.31" r="1.36"/><circle class="cls-2" cx="1.36" cy="82.9" r="1.36"/><circle class="cls-2" cx="12.91" cy="82.9" r="1.36"/><circle class="cls-2" cx="24.46" cy="82.9" r="1.36"/><circle class="cls-2" cx="1.36" cy="96.49" r="1.36"/><circle class="cls-2" cx="12.91" cy="96.49" r="1.36"/><circle class="cls-2" cx="24.46" cy="96.49" r="1.36"/><circle class="cls-2" cx="1.36" cy="110.09" r="1.36"/><circle class="cls-2" cx="12.91" cy="110.09" r="1.36"/><circle class="cls-2" cx="24.46" cy="110.09" r="1.36"/><circle class="cls-2" cx="1.36" cy="123.68" r="1.36"/><circle class="cls-2" cx="12.91" cy="123.68" r="1.36"/><circle class="cls-2" cx="24.46" cy="123.68" r="1.36"/><circle class="cls-2" cx="1.36" cy="137.27" r="1.36"/><circle class="cls-2" cx="12.91" cy="137.27" r="1.36"/><circle class="cls-2" cx="24.46" cy="137.27" r="1.36"/><circle class="cls-2" cx="1.36" cy="150.86" r="1.36"/><circle class="cls-2" cx="12.91" cy="150.86" r="1.36"/><circle class="cls-2" cx="24.46" cy="150.86" r="1.36"/><circle class="cls-2" cx="36.02" cy="82.9" r="1.36"/><circle class="cls-2" cx="47.57" cy="82.9" r="1.36"/><circle class="cls-2" cx="59.12" cy="82.9" r="1.36"/><circle class="cls-2" cx="70.67" cy="82.9" r="1.36"/><circle class="cls-2" cx="36.02" cy="96.49" r="1.36"/><circle class="cls-2" cx="47.57" cy="96.49" r="1.36"/><circle class="cls-2" cx="59.12" cy="96.49" r="1.36"/><circle class="cls-2" cx="70.67" cy="96.49" r="1.36"/><circle class="cls-2" cx="36.02" cy="110.09" r="1.36"/><circle class="cls-2" cx="47.57" cy="110.09" r="1.36"/><circle class="cls-2" cx="59.12" cy="110.09" r="1.36"/><circle class="cls-2" cx="70.67" cy="110.09" r="1.36"/><circle class="cls-2" cx="36.02" cy="123.68" r="1.36"/><circle class="cls-2" cx="47.57" cy="123.68" r="1.36"/><circle class="cls-2" cx="59.12" cy="123.68" r="1.36"/><circle class="cls-2" cx="70.67" cy="123.68" r="1.36"/><circle class="cls-2" cx="36.02" cy="137.27" r="1.36"/><circle class="cls-2" cx="47.57" cy="137.27" r="1.36"/><circle class="cls-2" cx="59.12" cy="137.27" r="1.36"/><circle class="cls-2" cx="70.67" cy="137.27" r="1.36"/><circle class="cls-2" cx="36.02" cy="150.86" r="1.36"/><circle class="cls-2" cx="47.57" cy="150.86" r="1.36"/><circle class="cls-2" cx="59.12" cy="150.86" r="1.36"/><circle class="cls-2" cx="70.67" cy="150.86" r="1.36"/><circle class="cls-2" cx="82.22" cy="82.9" r="1.36"/><circle class="cls-2" cx="93.78" cy="82.9" r="1.36"/><circle class="cls-2" cx="105.33" cy="82.9" r="1.36"/><circle class="cls-2" cx="116.88" cy="82.9" r="1.36"/><circle class="cls-2" cx="82.22" cy="96.49" r="1.36"/><circle class="cls-2" cx="93.78" cy="96.49" r="1.36"/><circle class="cls-2" cx="105.33" cy="96.49" r="1.36"/><circle class="cls-2" cx="116.88" cy="96.49" r="1.36"/><circle class="cls-2" cx="82.22" cy="110.09" r="1.36"/><circle class="cls-2" cx="93.78" cy="110.09" r="1.36"/><circle class="cls-2" cx="105.33" cy="110.09" r="1.36"/><circle class="cls-2" cx="116.88" cy="110.09" r="1.36"/><circle class="cls-2" cx="82.22" cy="123.68" r="1.36"/><circle class="cls-2" cx="93.78" cy="123.68" r="1.36"/><circle class="cls-2" cx="105.33" cy="123.68" r="1.36"/><circle class="cls-2" cx="116.88" cy="123.68" r="1.36"/><circle class="cls-2" cx="82.22" cy="137.27" r="1.36"/><circle class="cls-2" cx="93.78" cy="137.27" r="1.36"/><circle class="cls-2" cx="105.33" cy="137.27" r="1.36"/><circle class="cls-2" cx="116.88" cy="137.27" r="1.36"/><circle class="cls-2" cx="82.22" cy="150.86" r="1.36"/><circle class="cls-2" cx="93.78" cy="150.86" r="1.36"/><circle class="cls-2" cx="105.33" cy="150.86" r="1.36"/><circle class="cls-2" cx="116.88" cy="150.86" r="1.36"/></g></g></svg>