<?xml version="1.0" encoding="UTF-8"?><svg id="Layer_2" xmlns="http://www.w3.org/2000/svg" viewBox="0 0 1440 92.35"><defs><style>.cls-1,.cls-2{opacity:.1;}.cls-1,.cls-3{fill:#c4c4c4;}</style></defs><g id="Layer_1-2"><path class="cls-1" d="m466.62.42h15.12v3.78h-5.58v17.22h-3.96V4.2h-5.58V.42Zm18.19,8.16c0-2.72.68-4.83,2.04-6.33,1.38-1.5,3.28-2.25,5.7-2.25s4.31.75,5.67,2.25c1.38,1.5,2.07,3.61,2.07,6.33v4.68c0,2.8-.69,4.93-2.07,6.39-1.36,1.46-3.25,2.19-5.67,2.19s-4.32-.73-5.7-2.19c-1.36-1.46-2.04-3.59-2.04-6.39v-4.68Zm7.74,9.66c.72,0,1.32-.11,1.8-.33.48-.24.87-.57,1.17-.99.3-.42.51-.92.63-1.5.12-.58.18-1.22.18-1.92v-5.16c0-.66-.07-1.28-.21-1.86-.14-.58-.36-1.08-.66-1.5-.3-.42-.69-.75-1.17-.99-.48-.26-1.06-.39-1.74-.39s-1.26.13-1.74.39c-.48.24-.87.57-1.17.99-.3.42-.52.92-.66,1.5-.14.58-.21,1.2-.21,1.86v5.16c0,.7.06,1.34.18,1.92s.33,1.08.63,1.5c.3.42.69.75,1.17.99.48.22,1.08.33,1.8.33Zm16.99-7.44h9v10.62h-3.6v-2.34h-.54c-.24.78-.7,1.44-1.38,1.98-.68.52-1.7.78-3.06.78-.96,0-1.86-.18-2.7-.54-.84-.36-1.57-.89-2.19-1.59-.62-.72-1.11-1.6-1.47-2.64-.36-1.06-.54-2.29-.54-3.69v-4.92c0-1.36.19-2.56.57-3.6.4-1.06.94-1.95,1.62-2.67.7-.72,1.53-1.26,2.49-1.62.96-.38,2.02-.57,3.18-.57s2.27.2,3.21.6c.94.38,1.74.92,2.4,1.62.66.68,1.16,1.49,1.5,2.43.34.92.51,1.91.51,2.97v.36h-3.96v-.36c0-1.26-.33-2.21-.99-2.85-.64-.66-1.55-.99-2.73-.99s-2.04.38-2.76,1.14c-.72.74-1.08,2.02-1.08,3.84v4.44c0,3.24,1.32,4.86,3.96,4.86,1.18,0,2.07-.31,2.67-.93.62-.64.93-1.49.93-2.55h-5.04v-3.78Zm13.03-10.38h13.26v3.78h-9.3v4.8h8.94v3.78h-8.94v4.86h9.66v3.78h-13.62V.42Zm17.53,0h15.12v3.78h-5.58v17.22h-3.96V4.2h-5.58V.42Zm18.58,0h3.96v8.58h6.78V.42h3.96v21h-3.96v-8.64h-6.78v8.64h-3.96V.42Zm19,0h13.26v3.78h-9.3v4.8h8.94v3.78h-8.94v4.86h9.66v3.78h-13.62V.42Zm32.2,21h-3.96v-6.3c0-.48-.13-.87-.39-1.17-.24-.3-.65-.45-1.23-.45h-4.56v7.92h-3.96V.42h8.04c1.08,0,2.03.15,2.85.45s1.5.72,2.04,1.26c.56.52.98,1.13,1.26,1.83.3.7.45,1.45.45,2.25v.72c0,.86-.23,1.67-.69,2.43-.46.74-1.17,1.31-2.13,1.71v.54c.7.08,1.25.35,1.65.81.42.46.63,1.04.63,1.74v7.26Zm-10.14-11.7h3.78c.96,0,1.69-.22,2.19-.66.5-.46.75-1.1.75-1.92v-.36c0-.7-.25-1.3-.75-1.8-.5-.52-1.23-.78-2.19-.78h-3.78v5.52Zm18.55,9.27c0-.38.07-.74.21-1.08.16-.36.37-.66.63-.9.26-.26.56-.46.9-.6.34-.16.71-.24,1.11-.24s.74.08,1.08.24c.36.14.67.34.93.6.26.24.46.54.6.9.16.34.24.7.24,1.08v3.66c0,.76-.26,1.4-.78,1.92-.5.52-1.13.78-1.89.78h-1.92v-2.34h1.44c.54,0,.81-.3.81-.9v-.36c-.16.06-.33.09-.51.09-.4,0-.77-.08-1.11-.24-.34-.14-.64-.34-.9-.6s-.47-.56-.63-.9c-.14-.34-.21-.71-.21-1.11Zm47.81,2.43h-6.9l-.96-15.96v-2.88h-.72v2.88l-.96,15.96h-6.9l-.72-21h3.6l.48,15.96v2.7h.72v-2.7l.96-15.96h6.36l.96,15.96v2.7h.72v-2.7l.48-15.96h3.6l-.72,21Zm3.43-21h13.26v3.78h-9.3v4.8h8.94v3.78h-8.94v4.86h9.66v3.78h-13.62V.42Zm22.24,2.4c0-.38.07-.74.21-1.08.16-.36.37-.66.63-.9.26-.26.56-.46.9-.6.34-.16.71-.24,1.11-.24s.74.08,1.08.24c.36.14.67.34.93.6.26.24.46.54.6.9.16.34.24.7.24,1.08v3.66c0,.76-.26,1.4-.78,1.92-.5.52-1.13.78-1.89.78h-1.92v-2.34h1.44c.54,0,.81-.3.81-.9v-.36c-.16.06-.33.09-.51.09-.4,0-.77-.07-1.11-.21-.34-.16-.64-.37-.9-.63-.26-.26-.47-.56-.63-.9-.14-.34-.21-.71-.21-1.11Zm14.5-2.4h3.96v17.22h9.54v3.78h-13.5V.42Zm18.37,0h3.96v17.22h9.54v3.78h-13.5V.42Zm34.94,0h6.96l1.2,15.78v3.06h.72v-3.06l1.2-15.78h6.96v21h-3.6V7.38l.36-4.8h-.72l-1.56,18.84h-5.94l-1.62-18.84h-.72l.36,4.8v14.04h-3.6V.42Zm30.46,16.5h-7.14l-1.02,4.5h-4.14l5.01-21h7.44l5.01,21h-4.14l-1.02-4.5Zm-6.3-3.78h5.43l-2.43-10.74h-.54l-2.46,10.74Zm18.19,8.28h-3.96V.42h3.96v8.61h.87l5.55-8.61h4.47v.18l-6.48,10.05v.54l6.84,10.05v.18h-4.65l-5.73-8.61h-.87v8.61Zm14.56-21h13.26v3.78h-9.3v4.8h8.94v3.78h-8.94v4.86h9.66v3.78h-13.62V.42Zm51.68,21h-6.9l-.96-15.96v-2.88h-.72v2.88l-.96,15.96h-6.9l-.72-21h3.6l.48,15.96v2.7h.72v-2.7l.96-15.96h6.36l.96,15.96v2.7h.72v-2.7l.48-15.96h3.6l-.72,21Zm13.72-4.5h-7.14l-1.02,4.5h-4.14l5.01-21h7.44l5.01,21h-4.14l-1.02-4.5Zm-6.3-3.78h5.43l-2.43-10.74h-.54l-2.46,10.74Zm12.64-12.72h4.08l4.11,19.02h.54l4.11-19.02h4.08l-4.74,21h-7.44l-4.74-21Zm20.11,0h13.26v3.78h-9.3v4.8h8.94v3.78h-8.94v4.86h9.66v3.78h-13.62V.42Zm28.69,6.42c0-.84-.33-1.57-.99-2.19-.64-.62-1.55-.93-2.73-.93-1,0-1.79.21-2.37.63-.58.4-.87.95-.87,1.65,0,.36.07.69.21.99.14.28.38.54.72.78.36.22.82.42,1.38.6.58.18,1.31.35,2.19.51,2.2.4,3.88,1.07,5.04,2.01,1.16.94,1.74,2.33,1.74,4.17v.36c0,.98-.18,1.87-.54,2.67-.34.78-.84,1.45-1.5,2.01s-1.46.99-2.4,1.29c-.94.3-2,.45-3.18.45-1.38,0-2.6-.19-3.66-.57-1.04-.4-1.91-.94-2.61-1.62-.7-.7-1.23-1.51-1.59-2.43-.36-.94-.54-1.96-.54-3.06v-.9h3.96v.72c0,1.26.36,2.27,1.08,3.03.74.74,1.88,1.11,3.42,1.11,1.2,0,2.09-.26,2.67-.78.58-.52.87-1.14.87-1.86,0-.34-.06-.66-.18-.96-.12-.32-.33-.6-.63-.84-.3-.26-.71-.49-1.23-.69-.52-.2-1.18-.37-1.98-.51-1.06-.18-2.03-.41-2.91-.69-.88-.3-1.65-.69-2.31-1.17-.64-.48-1.14-1.08-1.5-1.8-.36-.72-.54-1.6-.54-2.64v-.18c0-.86.17-1.65.51-2.37.36-.74.85-1.38,1.47-1.92.64-.54,1.4-.96,2.28-1.26.9-.3,1.9-.45,3-.45,1.24,0,2.34.18,3.3.54.96.34,1.76.81,2.4,1.41.66.6,1.15,1.29,1.47,2.07.34.78.51,1.6.51,2.46v1.08h-3.96v-.72Z"/><path class="cls-1" d="m342.62,67.42h15.12v3.78h-5.58v17.22h-3.96v-17.22h-5.58v-3.78Zm18.19,8.16c0-2.72.68-4.83,2.04-6.33,1.38-1.5,3.28-2.25,5.7-2.25s4.31.75,5.67,2.25c1.38,1.5,2.07,3.61,2.07,6.33v4.68c0,2.8-.69,4.93-2.07,6.39-1.36,1.46-3.25,2.19-5.67,2.19s-4.32-.73-5.7-2.19c-1.36-1.46-2.04-3.59-2.04-6.39v-4.68Zm7.74,9.66c.72,0,1.32-.11,1.8-.33.48-.24.87-.57,1.17-.99.3-.42.51-.92.63-1.5.12-.58.18-1.22.18-1.92v-5.16c0-.66-.07-1.28-.21-1.86-.14-.58-.36-1.08-.66-1.5-.3-.42-.69-.75-1.17-.99-.48-.26-1.06-.39-1.74-.39s-1.26.13-1.74.39c-.48.24-.87.57-1.17.99-.3.42-.52.92-.66,1.5-.14.58-.21,1.2-.21,1.86v5.16c0,.7.06,1.34.18,1.92s.33,1.08.63,1.5c.3.42.69.75,1.17.99.48.22,1.08.33,1.8.33Zm16.99-7.44h9v10.62h-3.6v-2.34h-.54c-.24.78-.7,1.44-1.38,1.98-.68.52-1.7.78-3.06.78-.96,0-1.86-.18-2.7-.54s-1.57-.89-2.19-1.59c-.62-.72-1.11-1.6-1.47-2.64-.36-1.06-.54-2.29-.54-3.69v-4.92c0-1.36.19-2.56.57-3.6.4-1.06.94-1.95,1.62-2.67.7-.72,1.53-1.26,2.49-1.62.96-.38,2.02-.57,3.18-.57s2.27.2,3.21.6c.94.38,1.74.92,2.4,1.62.66.68,1.16,1.49,1.5,2.43.34.92.51,1.91.51,2.97v.36h-3.96v-.36c0-1.26-.33-2.21-.99-2.85-.64-.66-1.55-.99-2.73-.99s-2.04.38-2.76,1.14c-.72.74-1.08,2.02-1.08,3.84v4.44c0,3.24,1.32,4.86,3.96,4.86,1.18,0,2.07-.31,2.67-.93.62-.64.93-1.49.93-2.55h-5.04v-3.78Zm13.03-10.38h13.26v3.78h-9.3v4.8h8.94v3.78h-8.94v4.86h9.66v3.78h-13.62v-21Zm17.53,0h15.12v3.78h-5.58v17.22h-3.96v-17.22h-5.58v-3.78Zm18.58,0h3.96v8.58h6.78v-8.58h3.96v21h-3.96v-8.64h-6.78v8.64h-3.96v-21Zm19,0h13.26v3.78h-9.3v4.8h8.94v3.78h-8.94v4.86h9.66v3.78h-13.62v-21Zm32.2,21h-3.96v-6.3c0-.48-.13-.87-.39-1.17-.24-.3-.65-.45-1.23-.45h-4.56v7.92h-3.96v-21h8.04c1.08,0,2.03.15,2.85.45.82.3,1.5.72,2.04,1.26.56.52.98,1.13,1.26,1.83.3.7.45,1.45.45,2.25v.72c0,.86-.23,1.67-.69,2.43-.46.74-1.17,1.31-2.13,1.71v.54c.7.08,1.25.35,1.65.81.42.46.63,1.04.63,1.74v7.26Zm-10.14-11.7h3.78c.96,0,1.69-.22,2.19-.66.5-.46.75-1.1.75-1.92v-.36c0-.7-.25-1.3-.75-1.8-.5-.52-1.23-.78-2.19-.78h-3.78v5.52Zm18.55,9.27c0-.38.07-.74.21-1.08.16-.36.37-.66.63-.9.26-.26.56-.46.9-.6.34-.16.71-.24,1.11-.24s.74.08,1.08.24c.36.14.67.34.93.6.26.24.46.54.6.9.16.34.24.7.24,1.08v3.66c0,.76-.26,1.4-.78,1.92-.5.52-1.13.78-1.89.78h-1.92v-2.34h1.44c.54,0,.81-.3.81-.9v-.36c-.16.06-.33.09-.51.09-.4,0-.77-.08-1.11-.24-.34-.14-.64-.34-.9-.6-.26-.26-.47-.56-.63-.9-.14-.34-.21-.71-.21-1.11Zm47.81,2.43h-6.9l-.96-15.96v-2.88h-.72v2.88l-.96,15.96h-6.9l-.72-21h3.6l.48,15.96v2.7h.72v-2.7l.96-15.96h6.36l.96,15.96v2.7h.72v-2.7l.48-15.96h3.6l-.72,21Zm3.43-21h13.26v3.78h-9.3v4.8h8.94v3.78h-8.94v4.86h9.66v3.78h-13.62v-21Zm22.24,2.4c0-.38.07-.74.21-1.08.16-.36.37-.66.63-.9.26-.26.56-.46.9-.6.34-.16.71-.24,1.11-.24s.74.08,1.08.24c.36.14.67.34.93.6.26.24.46.54.6.9.16.34.24.7.24,1.08v3.66c0,.76-.26,1.4-.78,1.92-.5.52-1.13.78-1.89.78h-1.92v-2.34h1.44c.54,0,.81-.3.81-.9v-.36c-.16.06-.33.09-.51.09-.4,0-.77-.07-1.11-.21-.34-.16-.64-.37-.9-.63-.26-.26-.47-.56-.63-.9-.14-.34-.21-.71-.21-1.11Zm14.5-2.4h3.96v17.22h9.54v3.78h-13.5v-21Zm18.37,0h3.96v17.22h9.54v3.78h-13.5v-21Zm34.94,0h6.96l1.2,15.78v3.06h.72v-3.06l1.2-15.78h6.96v21h-3.6v-14.04l.36-4.8h-.72l-1.56,18.84h-5.94l-1.62-18.84h-.72l.36,4.8v14.04h-3.6v-21Zm30.46,16.5h-7.14l-1.02,4.5h-4.14l5.01-21h7.44l5.01,21h-4.14l-1.02-4.5Zm-6.3-3.78h5.43l-2.43-10.74h-.54l-2.46,10.74Zm18.19,8.28h-3.96v-21h3.96v8.61h.87l5.55-8.61h4.47v.18l-6.48,10.05v.54l6.84,10.05v.18h-4.65l-5.73-8.61h-.87v8.61Zm14.56-21h13.26v3.78h-9.3v4.8h8.94v3.78h-8.94v4.86h9.66v3.78h-13.62v-21Zm51.68,21h-6.9l-.96-15.96v-2.88h-.72v2.88l-.96,15.96h-6.9l-.72-21h3.6l.48,15.96v2.7h.72v-2.7l.96-15.96h6.36l.96,15.96v2.7h.72v-2.7l.48-15.96h3.6l-.72,21Zm13.72-4.5h-7.14l-1.02,4.5h-4.14l5.01-21h7.44l5.01,21h-4.14l-1.02-4.5Zm-6.3-3.78h5.43l-2.43-10.74h-.54l-2.46,10.74Zm12.64-12.72h4.08l4.11,19.02h.54l4.11-19.02h4.08l-4.74,21h-7.44l-4.74-21Zm20.11,0h13.26v3.78h-9.3v4.8h8.94v3.78h-8.94v4.86h9.66v3.78h-13.62v-21Zm28.69,6.42c0-.84-.33-1.57-.99-2.19-.64-.62-1.55-.93-2.73-.93-1,0-1.79.21-2.37.63-.58.4-.87.95-.87,1.65,0,.36.07.69.21.99.14.28.38.54.72.78.36.22.82.42,1.38.6.58.18,1.31.35,2.19.51,2.2.4,3.88,1.07,5.04,2.01,1.16.94,1.74,2.33,1.74,4.17v.36c0,.98-.18,1.87-.54,2.67-.34.78-.84,1.45-1.5,2.01s-1.46.99-2.4,1.29c-.94.3-2,.45-3.18.45-1.38,0-2.6-.19-3.66-.57-1.04-.4-1.91-.94-2.61-1.62-.7-.7-1.23-1.51-1.59-2.43-.36-.94-.54-1.96-.54-3.06v-.9h3.96v.72c0,1.26.36,2.27,1.08,3.03.74.74,1.88,1.11,3.42,1.11,1.2,0,2.09-.26,2.67-.78.58-.52.87-1.14.87-1.86,0-.34-.06-.66-.18-.96-.12-.32-.33-.6-.63-.84-.3-.26-.71-.49-1.23-.69-.52-.2-1.18-.37-1.98-.51-1.06-.18-2.03-.41-2.91-.69-.88-.3-1.65-.69-2.31-1.17-.64-.48-1.14-1.08-1.5-1.8-.36-.72-.54-1.6-.54-2.64v-.18c0-.86.17-1.65.51-2.37.36-.74.85-1.38,1.47-1.92.64-.54,1.4-.96,2.28-1.26.9-.3,1.9-.45,3-.45,1.24,0,2.34.18,3.3.54.96.34,1.76.81,2.4,1.41.66.6,1.15,1.29,1.47,2.07.34.78.51,1.6.51,2.46v1.08h-3.96v-.72Z"/><path class="cls-1" d="m846.62,67.42h15.12v3.78h-5.58v17.22h-3.96v-17.22h-5.58v-3.78Zm18.19,8.16c0-2.72.68-4.83,2.04-6.33,1.38-1.5,3.28-2.25,5.7-2.25s4.31.75,5.67,2.25c1.38,1.5,2.07,3.61,2.07,6.33v4.68c0,2.8-.69,4.93-2.07,6.39-1.36,1.46-3.25,2.19-5.67,2.19s-4.32-.73-5.7-2.19c-1.36-1.46-2.04-3.59-2.04-6.39v-4.68Zm7.74,9.66c.72,0,1.32-.11,1.8-.33.48-.24.87-.57,1.17-.99s.51-.92.63-1.5.18-1.22.18-1.92v-5.16c0-.66-.07-1.28-.21-1.86-.14-.58-.36-1.08-.66-1.5-.3-.42-.69-.75-1.17-.99-.48-.26-1.06-.39-1.74-.39s-1.26.13-1.74.39c-.48.24-.87.57-1.17.99-.3.42-.52.92-.66,1.5-.14.58-.21,1.2-.21,1.86v5.16c0,.7.06,1.34.18,1.92s.33,1.08.63,1.5c.3.42.69.75,1.17.99.48.22,1.08.33,1.8.33Zm16.99-7.44h9v10.62h-3.6v-2.34h-.54c-.24.78-.7,1.44-1.38,1.98-.68.52-1.7.78-3.06.78-.96,0-1.86-.18-2.7-.54-.84-.36-1.57-.89-2.19-1.59-.62-.72-1.11-1.6-1.47-2.64-.36-1.06-.54-2.29-.54-3.69v-4.92c0-1.36.19-2.56.57-3.6.4-1.06.94-1.95,1.62-2.67.7-.72,1.53-1.26,2.49-1.62.96-.38,2.02-.57,3.18-.57s2.27.2,3.21.6c.94.38,1.74.92,2.4,1.62.66.68,1.16,1.49,1.5,2.43.34.92.51,1.91.51,2.97v.36h-3.96v-.36c0-1.26-.33-2.21-.99-2.85-.64-.66-1.55-.99-2.73-.99s-2.04.38-2.76,1.14c-.72.74-1.08,2.02-1.08,3.84v4.44c0,3.24,1.32,4.86,3.96,4.86,1.18,0,2.07-.31,2.67-.93.62-.64.93-1.49.93-2.55h-5.04v-3.78Zm13.03-10.38h13.26v3.78h-9.3v4.8h8.94v3.78h-8.94v4.86h9.66v3.78h-13.62v-21Zm17.53,0h15.12v3.78h-5.58v17.22h-3.96v-17.22h-5.58v-3.78Zm18.58,0h3.96v8.58h6.78v-8.58h3.96v21h-3.96v-8.64h-6.78v8.64h-3.96v-21Zm19,0h13.26v3.78h-9.3v4.8h8.94v3.78h-8.94v4.86h9.66v3.78h-13.62v-21Zm32.2,21h-3.96v-6.3c0-.48-.13-.87-.39-1.17-.24-.3-.65-.45-1.23-.45h-4.56v7.92h-3.96v-21h8.04c1.08,0,2.03.15,2.85.45.82.3,1.5.72,2.04,1.26.56.52.98,1.13,1.26,1.83.3.7.45,1.45.45,2.25v.72c0,.86-.23,1.67-.69,2.43-.46.74-1.17,1.31-2.13,1.71v.54c.7.08,1.25.35,1.65.81.42.46.63,1.04.63,1.74v7.26Zm-10.14-11.7h3.78c.96,0,1.69-.22,2.19-.66.5-.46.75-1.1.75-1.92v-.36c0-.7-.25-1.3-.75-1.8-.5-.52-1.23-.78-2.19-.78h-3.78v5.52Zm18.55,9.27c0-.38.07-.74.21-1.08.16-.36.37-.66.63-.9.26-.26.56-.46.9-.6.34-.16.71-.24,1.11-.24s.74.08,1.08.24c.36.14.67.34.93.6.26.24.46.54.6.9.16.34.24.7.24,1.08v3.66c0,.76-.26,1.4-.78,1.92-.5.52-1.13.78-1.89.78h-1.92v-2.34h1.44c.54,0,.81-.3.81-.9v-.36c-.16.06-.33.09-.51.09-.4,0-.77-.08-1.11-.24-.34-.14-.64-.34-.9-.6-.26-.26-.47-.56-.63-.9-.14-.34-.21-.71-.21-1.11Zm47.81,2.43h-6.9l-.96-15.96v-2.88h-.72v2.88l-.96,15.96h-6.9l-.72-21h3.6l.48,15.96v2.7h.72v-2.7l.96-15.96h6.36l.96,15.96v2.7h.72v-2.7l.48-15.96h3.6l-.72,21Zm3.43-21h13.26v3.78h-9.3v4.8h8.94v3.78h-8.94v4.86h9.66v3.78h-13.62v-21Zm22.24,2.4c0-.38.07-.74.21-1.08.16-.36.37-.66.63-.9.26-.26.56-.46.9-.6.34-.16.71-.24,1.11-.24s.74.08,1.08.24c.36.14.67.34.93.6.26.24.46.54.6.9.16.34.24.7.24,1.08v3.66c0,.76-.26,1.4-.78,1.92-.5.52-1.13.78-1.89.78h-1.92v-2.34h1.44c.54,0,.81-.3.81-.9v-.36c-.16.06-.33.09-.51.09-.4,0-.77-.07-1.11-.21-.34-.16-.64-.37-.9-.63-.26-.26-.47-.56-.63-.9-.14-.34-.21-.71-.21-1.11Zm14.5-2.4h3.96v17.22h9.54v3.78h-13.5v-21Zm18.37,0h3.96v17.22h9.54v3.78h-13.5v-21Zm34.94,0h6.96l1.2,15.78v3.06h.72v-3.06l1.2-15.78h6.96v21h-3.6v-14.04l.36-4.8h-.72l-1.56,18.84h-5.94l-1.62-18.84h-.72l.36,4.8v14.04h-3.6v-21Zm30.46,16.5h-7.14l-1.02,4.5h-4.14l5.01-21h7.44l5.01,21h-4.14l-1.02-4.5Zm-6.3-3.78h5.43l-2.43-10.74h-.54l-2.46,10.74Zm18.18,8.28h-3.96v-21h3.96v8.61h.87l5.55-8.61h4.47v.18l-6.48,10.05v.54l6.84,10.05v.18h-4.65l-5.73-8.61h-.87v8.61Zm14.56-21h13.26v3.78h-9.3v4.8h8.94v3.78h-8.94v4.86h9.66v3.78h-13.62v-21Zm51.68,21h-6.9l-.96-15.96v-2.88h-.72v2.88l-.96,15.96h-6.9l-.72-21h3.6l.48,15.96v2.7h.72v-2.7l.96-15.96h6.36l.96,15.96v2.7h.72v-2.7l.48-15.96h3.6l-.72,21Zm13.72-4.5h-7.14l-1.02,4.5h-4.14l5.01-21h7.44l5.01,21h-4.14l-1.02-4.5Zm-6.3-3.78h5.43l-2.43-10.74h-.54l-2.46,10.74Zm12.64-12.72h4.08l4.11,19.02h.54l4.11-19.02h4.08l-4.74,21h-7.44l-4.74-21Zm20.11,0h13.26v3.78h-9.3v4.8h8.94v3.78h-8.94v4.86h9.66v3.78h-13.62v-21Zm28.69,6.42c0-.84-.33-1.57-.99-2.19-.64-.62-1.55-.93-2.73-.93-1,0-1.79.21-2.37.63-.58.4-.87.95-.87,1.65,0,.36.07.69.21.99.14.28.38.54.72.78.36.22.82.42,1.38.6.58.18,1.31.35,2.19.51,2.2.4,3.88,1.07,5.04,2.01,1.16.94,1.74,2.33,1.74,4.17v.36c0,.98-.18,1.87-.54,2.67-.34.78-.84,1.45-1.5,2.01-.66.56-1.46.99-2.4,1.29-.94.3-2,.45-3.18.45-1.38,0-2.6-.19-3.66-.57-1.04-.4-1.91-.94-2.61-1.62-.7-.7-1.23-1.51-1.59-2.43-.36-.94-.54-1.96-.54-3.06v-.9h3.96v.72c0,1.26.36,2.27,1.08,3.03.74.74,1.88,1.11,3.42,1.11,1.2,0,2.09-.26,2.67-.78.58-.52.87-1.14.87-1.86,0-.34-.06-.66-.18-.96-.12-.32-.33-.6-.63-.84-.3-.26-.71-.49-1.23-.69s-1.18-.37-1.98-.51c-1.06-.18-2.03-.41-2.91-.69-.88-.3-1.65-.69-2.31-1.17-.64-.48-1.14-1.08-1.5-1.8-.36-.72-.54-1.6-.54-2.64v-.18c0-.86.17-1.65.51-2.37.36-.74.85-1.38,1.47-1.92.64-.54,1.4-.96,2.28-1.26.9-.3,1.9-.45,3-.45,1.24,0,2.34.18,3.3.54.96.34,1.76.81,2.4,1.41.66.6,1.15,1.29,1.47,2.07.34.78.51,1.6.51,2.46v1.08h-3.96v-.72Z"/><g class="cls-2"><polygon class="cls-3" points="184.78 4.2 184.78 .42 171.52 .42 171.52 21.42 185.14 21.42 185.14 17.64 175.48 17.64 175.48 12.78 184.42 12.78 184.42 9 175.48 9 175.48 4.2 184.78 4.2"/><path class="cls-3" d="m111.72,9.36c.46-.76.69-1.57.69-2.43v-.72c0-.8-.15-1.55-.45-2.25-.28-.7-.7-1.31-1.26-1.83-.54-.54-1.22-.96-2.04-1.26s-1.77-.45-2.85-.45h-8.04v21h3.96v-7.92h4.56c.58,0,.99.15,1.23.45.26.3.39.69.39,1.17v6.3h3.96v-7.26c0-.7-.21-1.28-.63-1.74-.4-.46-.95-.73-1.65-.81v-.54c.96-.4,1.67-.97,2.13-1.71Zm-3.27-2.22c0,.82-.25,1.46-.75,1.92-.5.44-1.23.66-2.19.66h-3.78v-5.52h3.78c.96,0,1.69.26,2.19.78.5.5.75,1.1.75,1.8v.36Z"/><path class="cls-3" d="m122.83,23.01h-1.44v2.34h1.92c.76,0,1.39-.26,1.89-.78.52-.52.78-1.16.78-1.92v-3.66c0-.38-.08-.74-.24-1.08-.14-.36-.34-.66-.6-.9-.26-.26-.57-.46-.93-.6-.34-.16-.7-.24-1.08-.24-.4,0-.77.08-1.11.24-.34.14-.64.34-.9.6-.26.24-.47.54-.63.9-.14.34-.21.7-.21,1.08,0,.4.07.77.21,1.11.16.34.37.64.63.9s.56.46.9.6c.34.16.71.24,1.11.24.18,0,.35-.03.51-.09v.36c0,.6-.27.9-.81.9Z"/><polygon class="cls-3" points="154.53 .42 150.93 .42 151.65 21.42 158.55 21.42 159.51 5.46 159.51 2.58 160.23 2.58 160.23 5.46 161.19 21.42 168.09 21.42 168.81 .42 165.21 .42 164.73 16.38 164.73 19.08 164.01 19.08 164.01 16.38 163.05 .42 156.69 .42 155.73 16.38 155.73 19.08 155.01 19.08 155.01 16.38 154.53 .42"/><polygon class="cls-3" points="60.68 .42 60.68 21.42 64.64 21.42 64.64 12.78 71.42 12.78 71.42 21.42 75.38 21.42 75.38 .42 71.42 .42 71.42 9 64.64 9 64.64 .42 60.68 .42"/><path class="cls-3" d="m2.29,13.26v-4.68C2.29,5.86,1.6,3.75.22,2.25c-.07-.08-.15-.14-.22-.22v17.83c.07-.07.15-.14.22-.21,1.38-1.46,2.07-3.59,2.07-6.39Z"/><polygon class="cls-3" points="92.93 4.2 92.93 .42 79.67 .42 79.67 21.42 93.29 21.42 93.29 17.64 83.63 17.64 83.63 12.78 92.57 12.78 92.57 9 83.63 9 83.63 4.2 92.93 4.2"/><polygon class="cls-3" points="37.83 4.2 37.83 .42 24.57 .42 24.57 21.42 38.19 21.42 38.19 17.64 28.53 17.64 28.53 12.78 37.47 12.78 37.47 9 28.53 9 28.53 4.2 37.83 4.2"/><path class="cls-3" d="m196.31,6.84h-1.44v2.34h1.92c.76,0,1.39-.26,1.89-.78.52-.52.78-1.16.78-1.92v-3.66c0-.38-.08-.74-.24-1.08-.14-.36-.34-.66-.6-.9-.26-.26-.57-.46-.93-.6C197.35.08,196.99,0,196.61,0c-.4,0-.77.08-1.11.24-.34.14-.64.34-.9.6-.26.24-.47.54-.63.9-.14.34-.21.7-.21,1.08,0,.4.07.77.21,1.11.16.34.37.64.63.9.26.26.56.47.9.63.34.14.71.21,1.11.21.18,0,.35-.03.51-.09v.36c0,.6-.27.9-.81.9Z"/><polygon class="cls-3" points="51.64 21.42 51.64 4.2 57.22 4.2 57.22 .42 42.1 .42 42.1 4.2 47.68 4.2 47.68 21.42 51.64 21.42"/><path class="cls-3" d="m20.54,7.98v-.36c0-1.06-.17-2.05-.51-2.97-.34-.94-.84-1.75-1.5-2.43-.66-.7-1.46-1.24-2.4-1.62C15.19.2,14.12,0,12.92,0s-2.22.19-3.18.57c-.96.36-1.79.9-2.49,1.62-.68.72-1.22,1.61-1.62,2.67-.38,1.04-.57,2.24-.57,3.6v4.92c0,1.4.18,2.63.54,3.69.36,1.04.85,1.92,1.47,2.64.62.7,1.35,1.23,2.19,1.59s1.74.54,2.7.54c1.36,0,2.38-.26,3.06-.78.68-.54,1.14-1.2,1.38-1.98h.54v2.34h3.6v-10.62h-9v3.78h5.04c0,1.06-.31,1.91-.93,2.55-.6.62-1.49.93-2.67.93-2.64,0-3.96-1.62-3.96-4.86v-4.44c0-1.82.36-3.1,1.08-3.84.72-.76,1.64-1.14,2.76-1.14,1.18,0,2.09.33,2.73.99.66.64.99,1.59.99,2.85v.36h3.96Z"/><path class="cls-3" d="m383.87,16.92l1.02,4.5h4.14l-5.01-21h-7.44l-5.01,21h4.14l1.02-4.5h7.14Zm-3.84-14.52h.54l2.43,10.74h-5.43l2.46-10.74Z"/><polygon class="cls-3" points="208.26 .42 208.26 21.42 221.76 21.42 221.76 17.64 212.22 17.64 212.22 .42 208.26 .42"/><polygon class="cls-3" points="423.58 4.2 423.58 .42 410.32 .42 410.32 21.42 423.94 21.42 423.94 17.64 414.28 17.64 414.28 12.78 423.22 12.78 423.22 9 414.28 9 414.28 4.2 423.58 4.2"/><path class="cls-3" d="m436.55,8.88c-.88-.16-1.61-.33-2.19-.51-.56-.18-1.02-.38-1.38-.6-.34-.24-.58-.5-.72-.78-.14-.3-.21-.63-.21-.99,0-.7.29-1.25.87-1.65.58-.42,1.37-.63,2.37-.63,1.18,0,2.09.31,2.73.93.66.62.99,1.35.99,2.19v.72h3.96v-1.08c0-.86-.17-1.68-.51-2.46-.32-.78-.81-1.47-1.47-2.07-.64-.6-1.44-1.07-2.4-1.41C437.63.18,436.53,0,435.29,0c-1.1,0-2.1.15-3,.45-.88.3-1.64.72-2.28,1.26-.62.54-1.11,1.18-1.47,1.92-.34.72-.51,1.51-.51,2.37v.18c0,1.04.18,1.92.54,2.64.36.72.86,1.32,1.5,1.8.66.48,1.43.87,2.31,1.17.88.28,1.85.51,2.91.69.8.14,1.46.31,1.98.51.52.2.93.43,1.23.69.3.24.51.52.63.84.12.3.18.62.18.96,0,.72-.29,1.34-.87,1.86-.58.52-1.47.78-2.67.78-1.54,0-2.68-.37-3.42-1.11-.72-.76-1.08-1.77-1.08-3.03v-.72h-3.96v.9c0,1.1.18,2.12.54,3.06.36.92.89,1.73,1.59,2.43.7.68,1.57,1.22,2.61,1.62,1.06.38,2.28.57,3.66.57,1.18,0,2.24-.15,3.18-.45.94-.3,1.74-.73,2.4-1.29.66-.56,1.16-1.23,1.5-2.01.36-.8.54-1.69.54-2.67v-.36c0-1.84-.58-3.23-1.74-4.17-1.16-.94-2.84-1.61-5.04-2.01Z"/><polygon class="cls-3" points="356.59 .42 352.99 .42 353.71 21.42 360.61 21.42 361.57 5.46 361.57 2.58 362.29 2.58 362.29 5.46 363.25 21.42 370.15 21.42 370.87 .42 367.27 .42 366.79 16.38 366.79 19.08 366.07 19.08 366.07 16.38 365.11 .42 358.75 .42 357.79 16.38 357.79 19.08 357.07 19.08 357.07 16.38 356.59 .42"/><polygon class="cls-3" points="407.13 .42 403.05 .42 398.94 19.44 398.4 19.44 394.29 .42 390.21 .42 394.95 21.42 402.39 21.42 407.13 .42"/><polygon class="cls-3" points="268.53 .42 261.57 .42 261.57 21.42 265.17 21.42 265.17 7.38 264.81 2.58 265.53 2.58 267.15 21.42 273.09 21.42 274.65 2.58 275.37 2.58 275.01 7.38 275.01 21.42 278.61 21.42 278.61 .42 271.65 .42 270.45 16.2 270.45 19.26 269.73 19.26 269.73 16.2 268.53 .42"/><polygon class="cls-3" points="226.63 .42 226.63 21.42 240.13 21.42 240.13 17.64 230.59 17.64 230.59 .42 226.63 .42"/><polygon class="cls-3" points="299.96 .42 299.96 21.42 303.92 21.42 303.92 12.81 304.79 12.81 310.52 21.42 315.17 21.42 315.17 21.24 308.33 11.19 308.33 10.65 314.8 .6 314.8 .42 310.34 .42 304.79 9.03 303.92 9.03 303.92 .42 299.96 .42"/><path class="cls-3" d="m292.03,16.92l1.02,4.5h4.14l-5.01-21h-7.44l-5.01,21h4.14l1.02-4.5h7.14Zm-3.84-14.52h.54l2.43,10.74h-5.43l2.46-10.74Z"/><polygon class="cls-3" points="331.73 4.2 331.73 .42 318.47 .42 318.47 21.42 332.09 21.42 332.09 17.64 322.43 17.64 322.43 12.78 331.37 12.78 331.37 9 322.43 9 322.43 4.2 331.73 4.2"/></g><g class="cls-2"><polygon class="cls-3" points="102.63 67.42 102.63 88.42 116.13 88.42 116.13 84.64 106.59 84.64 106.59 67.42 102.63 67.42"/><path class="cls-3" d="m72.31,73.84h-1.44v2.34h1.92c.76,0,1.39-.26,1.89-.78.52-.52.78-1.16.78-1.92v-3.66c0-.38-.08-.74-.24-1.08-.14-.36-.34-.66-.6-.9-.26-.26-.57-.46-.93-.6-.34-.16-.7-.24-1.08-.24-.4,0-.77.08-1.11.24-.34.14-.64.34-.9.6-.26.24-.47.54-.63.9-.14.34-.21.7-.21,1.08,0,.4.07.77.21,1.11.16.34.37.64.63.9.26.26.56.47.9.63.34.14.71.21,1.11.21.18,0,.35-.03.51-.09v.36c0,.6-.27.9-.81.9Z"/><polygon class="cls-3" points="84.26 67.42 84.26 88.42 97.76 88.42 97.76 84.64 88.22 84.64 88.22 67.42 84.26 67.42"/><polygon class="cls-3" points="144.53 67.42 137.57 67.42 137.57 88.42 141.17 88.42 141.17 74.38 140.81 69.58 141.53 69.58 143.15 88.42 149.09 88.42 150.65 69.58 151.37 69.58 151.01 74.38 151.01 88.42 154.61 88.42 154.61 67.42 147.65 67.42 146.45 83.2 146.45 86.26 145.73 86.26 145.73 83.2 144.53 67.42"/><polygon class="cls-3" points="60.78 71.2 60.78 67.42 47.52 67.42 47.52 88.42 61.14 88.42 61.14 84.64 51.48 84.64 51.48 79.78 60.42 79.78 60.42 76 51.48 76 51.48 71.2 60.78 71.2"/><path class="cls-3" d="m1.98,89.65v-3.66c0-.38-.08-.74-.24-1.08-.14-.36-.34-.66-.6-.9-.26-.26-.57-.46-.93-.6-.07-.03-.14-.05-.21-.07v8.92c.46-.11.86-.34,1.2-.69.52-.52.78-1.16.78-1.92Z"/><polygon class="cls-3" points="30.53 67.42 26.93 67.42 27.65 88.42 34.55 88.42 35.51 72.46 35.51 69.58 36.23 69.58 36.23 72.46 37.19 88.42 44.09 88.42 44.81 67.42 41.21 67.42 40.73 83.38 40.73 86.08 40.01 86.08 40.01 83.38 39.05 67.42 32.69 67.42 31.73 83.38 31.73 86.08 31.01 86.08 31.01 83.38 30.53 67.42"/><polygon class="cls-3" points="232.59 67.42 228.99 67.42 229.71 88.42 236.61 88.42 237.57 72.46 237.57 69.58 238.29 69.58 238.29 72.46 239.25 88.42 246.15 88.42 246.87 67.42 243.27 67.42 242.79 83.38 242.79 86.08 242.07 86.08 242.07 83.38 241.11 67.42 234.75 67.42 233.79 83.38 233.79 86.08 233.07 86.08 233.07 83.38 232.59 67.42"/><polygon class="cls-3" points="283.13 67.42 279.05 67.42 274.94 86.44 274.4 86.44 270.29 67.42 266.21 67.42 270.95 88.42 278.39 88.42 283.13 67.42"/><path class="cls-3" d="m259.87,83.92l1.02,4.5h4.14l-5.01-21h-7.44l-5.01,21h4.14l1.02-4.5h7.14Zm-3.84-14.52h.54l2.43,10.74h-5.43l2.46-10.74Z"/><polygon class="cls-3" points="299.58 71.2 299.58 67.42 286.32 67.42 286.32 88.42 299.94 88.42 299.94 84.64 290.28 84.64 290.28 79.78 299.22 79.78 299.22 76 290.28 76 290.28 71.2 299.58 71.2"/><polygon class="cls-3" points="175.96 67.42 175.96 88.42 179.91 88.42 179.91 79.81 180.79 79.81 186.52 88.42 191.16 88.42 191.16 88.24 184.33 78.19 184.33 77.65 190.8 67.6 190.8 67.42 186.34 67.42 180.79 76.03 179.91 76.03 179.91 67.42 175.96 67.42"/><path class="cls-3" d="m168.03,83.92l1.02,4.5h4.14l-5.01-21h-7.44l-5.01,21h4.14l1.02-4.5h7.14Zm-3.84-14.52h.54l2.43,10.74h-5.43l2.46-10.74Z"/><polygon class="cls-3" points="207.73 71.2 207.73 67.42 194.47 67.42 194.47 88.42 208.09 88.42 208.09 84.64 198.43 84.64 198.43 79.78 207.37 79.78 207.37 76 198.43 76 198.43 71.2 207.73 71.2"/><path class="cls-3" d="m312.55,75.88c-.88-.16-1.61-.33-2.19-.51-.56-.18-1.02-.38-1.38-.6-.34-.24-.58-.5-.72-.78-.14-.3-.21-.63-.21-.99,0-.7.29-1.25.87-1.65.58-.42,1.37-.63,2.37-.63,1.18,0,2.09.31,2.73.93.66.62.99,1.35.99,2.19v.72h3.96v-1.08c0-.86-.17-1.68-.51-2.46-.32-.78-.81-1.47-1.47-2.07-.64-.6-1.44-1.07-2.4-1.41-.96-.36-2.06-.54-3.3-.54-1.1,0-2.1.15-3,.45-.88.3-1.64.72-2.28,1.26-.62.54-1.11,1.18-1.47,1.92-.34.72-.51,1.51-.51,2.37v.18c0,1.04.18,1.92.54,2.64.36.72.86,1.32,1.5,1.8.66.48,1.43.87,2.31,1.17.88.28,1.85.51,2.91.69.8.14,1.46.31,1.98.51.52.2.93.43,1.23.69.3.24.51.52.63.84.12.3.18.62.18.96,0,.72-.29,1.34-.87,1.86-.58.52-1.47.78-2.67.78-1.54,0-2.68-.37-3.42-1.11-.72-.76-1.08-1.77-1.08-3.03v-.72h-3.96v.9c0,1.1.18,2.12.54,3.06.36.92.89,1.73,1.59,2.43.7.68,1.57,1.22,2.61,1.62,1.06.38,2.28.57,3.66.57,1.18,0,2.24-.15,3.18-.45.94-.3,1.74-.73,2.4-1.29.66-.56,1.16-1.23,1.5-2.01.36-.8.54-1.69.54-2.67v-.36c0-1.84-.58-3.23-1.74-4.17-1.16-.94-2.84-1.61-5.04-2.01Z"/></g><g class="cls-2"><path class="cls-3" d="m1281.73,21.42h4.14l1.02-4.5h7.14l1.02,4.5h4.14l-5.01-21h-7.44l-5.01,21Zm8.46-19.02h.54l2.43,10.74h-5.43l2.46-10.74Z"/><polygon class="cls-3" points="1210.26 .42 1210.26 21.42 1223.76 21.42 1223.76 17.64 1214.22 17.64 1214.22 .42 1210.26 .42"/><polygon class="cls-3" points="1277.01 21.42 1280.61 21.42 1280.61 .42 1273.65 .42 1272.45 16.2 1272.45 19.26 1271.73 19.26 1271.73 16.2 1270.53 .42 1263.57 .42 1263.57 21.42 1267.17 21.42 1267.17 7.38 1266.81 2.58 1267.53 2.58 1269.15 21.42 1275.09 21.42 1276.65 2.58 1277.37 2.58 1277.01 7.38 1277.01 21.42"/><polygon class="cls-3" points="1228.63 .42 1228.63 21.42 1242.13 21.42 1242.13 17.64 1232.59 17.64 1232.59 .42 1228.63 .42"/><path class="cls-3" d="m1198.31,6.84h-1.44v2.34h1.92c.76,0,1.39-.26,1.89-.78.52-.52.78-1.16.78-1.92v-3.66c0-.38-.08-.74-.24-1.08-.14-.36-.34-.66-.6-.9-.26-.26-.57-.46-.93-.6-.34-.16-.7-.24-1.08-.24-.4,0-.77.08-1.11.24-.34.14-.64.34-.9.6-.26.24-.47.54-.63.9-.14.34-.21.7-.21,1.08,0,.4.07.77.21,1.11.16.34.37.64.63.9.26.26.56.47.9.63.34.14.71.21,1.11.21.18,0,.35-.03.51-.09v.36c0,.6-.27.9-.81.9Z"/><polygon class="cls-3" points="1400.4 19.44 1396.29 .42 1392.21 .42 1396.95 21.42 1404.39 21.42 1409.13 .42 1405.05 .42 1400.94 19.44 1400.4 19.44"/><polygon class="cls-3" points="1425.58 4.2 1425.58 .42 1412.32 .42 1412.32 21.42 1425.94 21.42 1425.94 17.64 1416.28 17.64 1416.28 12.78 1425.22 12.78 1425.22 9 1416.28 9 1416.28 4.2 1425.58 4.2"/><path class="cls-3" d="m1373.57,21.42h4.14l1.02-4.5h7.14l1.02,4.5h4.14l-5.01-21h-7.44l-5.01,21Zm8.46-19.02h.54l2.43,10.74h-5.43l2.46-10.74Z"/><polygon class="cls-3" points="1301.95 .42 1301.95 21.42 1305.91 21.42 1305.91 12.81 1306.78 12.81 1312.51 21.42 1317.16 21.42 1317.16 21.24 1310.32 11.19 1310.32 10.65 1316.8 .6 1316.8 .42 1312.33 .42 1306.78 9.03 1305.91 9.03 1305.91 .42 1301.95 .42"/><polygon class="cls-3" points="1333.73 4.2 1333.73 .42 1320.47 .42 1320.47 21.42 1334.09 21.42 1334.09 17.64 1324.43 17.64 1324.43 12.78 1333.37 12.78 1333.37 9 1324.43 9 1324.43 4.2 1333.73 4.2"/><polygon class="cls-3" points="1365.25 21.42 1372.15 21.42 1372.87 .42 1369.27 .42 1368.79 16.38 1368.79 19.08 1368.07 19.08 1368.07 16.38 1367.11 .42 1360.75 .42 1359.79 16.38 1359.79 19.08 1359.07 19.08 1359.07 16.38 1358.59 .42 1354.99 .42 1355.71 21.42 1362.61 21.42 1363.57 5.46 1363.57 2.58 1364.29 2.58 1364.29 5.46 1365.25 21.42"/><path class="cls-3" d="m1113.72,9.36c.46-.76.69-1.57.69-2.43v-.72c0-.8-.15-1.55-.45-2.25-.28-.7-.7-1.31-1.26-1.83-.54-.54-1.22-.96-2.04-1.26-.82-.3-1.77-.45-2.85-.45h-8.04v21h3.96v-7.92h4.56c.58,0,.99.15,1.23.45.26.3.39.69.39,1.17v6.3h3.96v-7.26c0-.7-.21-1.28-.63-1.74-.4-.46-.95-.73-1.65-.81v-.54c.96-.4,1.67-.97,2.13-1.71Zm-3.27-2.22c0,.82-.25,1.46-.75,1.92-.5.44-1.23.66-2.19.66h-3.78v-5.52h3.78c.96,0,1.69.26,2.19.78.5.5.75,1.1.75,1.8v.36Z"/><path class="cls-3" d="m990.85,2.25c-1.36,1.5-2.04,3.61-2.04,6.33v4.68c0,2.8.68,4.93,2.04,6.39,1.38,1.46,3.28,2.19,5.7,2.19s4.31-.73,5.67-2.19c1.38-1.46,2.07-3.59,2.07-6.39v-4.68c0-2.72-.69-4.83-2.07-6.33C1000.86.75,998.97,0,996.55,0s-4.32.75-5.7,2.25Zm8.61,2.73c.3.42.52.92.66,1.5.14.58.21,1.2.21,1.86v5.16c0,.7-.06,1.34-.18,1.92s-.33,1.08-.63,1.5-.69.75-1.17.99c-.48.22-1.08.33-1.8.33s-1.32-.11-1.8-.33c-.48-.24-.87-.57-1.17-.99-.3-.42-.51-.92-.63-1.5s-.18-1.22-.18-1.92v-5.16c0-.66.07-1.28.21-1.86s.36-1.08.66-1.5c.3-.42.69-.75,1.17-.99.48-.26,1.06-.39,1.74-.39s1.26.13,1.74.39c.48.24.87.57,1.17.99Z"/><polygon class="cls-3" points="1186.78 4.2 1186.78 .42 1173.52 .42 1173.52 21.42 1187.14 21.42 1187.14 17.64 1177.48 17.64 1177.48 12.78 1186.42 12.78 1186.42 9 1177.48 9 1177.48 4.2 1186.78 4.2"/><path class="cls-3" d="m1022.54,7.98v-.36c0-1.06-.17-2.05-.51-2.97-.34-.94-.84-1.75-1.5-2.43-.66-.7-1.46-1.24-2.4-1.62C1017.19.2,1016.12,0,1014.92,0s-2.22.19-3.18.57c-.96.36-1.79.9-2.49,1.62-.68.72-1.22,1.61-1.62,2.67-.38,1.04-.57,2.24-.57,3.6v4.92c0,1.4.18,2.63.54,3.69.36,1.04.85,1.92,1.47,2.64.62.7,1.35,1.23,2.19,1.59.84.36,1.74.54,2.7.54,1.36,0,2.38-.26,3.06-.78.68-.54,1.14-1.2,1.38-1.98h.54v2.34h3.6v-10.62h-9v3.78h5.04c0,1.06-.31,1.91-.93,2.55-.6.62-1.49.93-2.67.93-2.64,0-3.96-1.62-3.96-4.86v-4.44c0-1.82.36-3.1,1.08-3.84.72-.76,1.64-1.14,2.76-1.14,1.18,0,2.09.33,2.73.99.66.64.99,1.59.99,2.85v.36h3.96Z"/><path class="cls-3" d="m1440,17.64c-.56.31-1.3.48-2.23.48-1.54,0-2.68-.37-3.42-1.11-.72-.76-1.08-1.77-1.08-3.03v-.72h-3.96v.9c0,1.1.18,2.12.54,3.06.36.92.89,1.73,1.59,2.43.7.68,1.57,1.22,2.61,1.62,1.06.38,2.28.57,3.66.57.83,0,1.58-.1,2.29-.25v-3.95Z"/><polygon class="cls-3" points="1039.83 4.2 1039.83 .42 1026.57 .42 1026.57 21.42 1040.19 21.42 1040.19 17.64 1030.53 17.64 1030.53 12.78 1039.47 12.78 1039.47 9 1030.53 9 1030.53 4.2 1039.83 4.2"/><path class="cls-3" d="m1436.36,8.37c-.56-.18-1.02-.38-1.38-.6-.34-.24-.58-.5-.72-.78-.14-.3-.21-.63-.21-.99,0-.7.29-1.25.87-1.65.58-.42,1.37-.63,2.37-.63,1.17,0,2.07.31,2.71.91V.35c-.81-.23-1.72-.35-2.71-.35-1.1,0-2.1.15-3,.45-.88.3-1.64.72-2.28,1.26-.62.54-1.11,1.18-1.47,1.92-.34.72-.51,1.51-.51,2.37v.18c0,1.04.18,1.92.54,2.64.36.72.86,1.32,1.5,1.8.66.48,1.43.87,2.31,1.17.88.28,1.85.51,2.91.69.8.14,1.46.31,1.98.51.28.11.52.22.73.34v-4.13c-.46-.12-.94-.23-1.45-.33-.88-.16-1.61-.33-2.19-.51Z"/><polygon class="cls-3" points="976.2 21.42 980.16 21.42 980.16 4.2 985.74 4.2 985.74 .42 970.62 .42 970.62 4.2 976.2 4.2 976.2 21.42"/><path class="cls-3" d="m1124.83,23.01h-1.44v2.34h1.92c.76,0,1.39-.26,1.89-.78.52-.52.78-1.16.78-1.92v-3.66c0-.38-.08-.74-.24-1.08-.14-.36-.34-.66-.6-.9-.26-.26-.57-.46-.93-.6-.34-.16-.7-.24-1.08-.24-.4,0-.77.08-1.11.24-.34.14-.64.34-.9.6-.26.24-.47.54-.63.9-.14.34-.21.7-.21,1.08,0,.4.07.77.21,1.11.16.34.37.64.63.9s.56.46.9.6c.34.16.71.24,1.11.24.18,0,.35-.03.51-.09v.36c0,.6-.27.9-.81.9Z"/><polygon class="cls-3" points="1163.19 21.42 1170.09 21.42 1170.81 .42 1167.21 .42 1166.73 16.38 1166.73 19.08 1166.01 19.08 1166.01 16.38 1165.05 .42 1158.69 .42 1157.73 16.38 1157.73 19.08 1157.01 19.08 1157.01 16.38 1156.53 .42 1152.93 .42 1153.65 21.42 1160.55 21.42 1161.51 5.46 1161.51 2.58 1162.23 2.58 1162.23 5.46 1163.19 21.42"/><polygon class="cls-3" points="1094.93 4.2 1094.93 .42 1081.67 .42 1081.67 21.42 1095.29 21.42 1095.29 17.64 1085.63 17.64 1085.63 12.78 1094.57 12.78 1094.57 9 1085.63 9 1085.63 4.2 1094.93 4.2"/><polygon class="cls-3" points="1077.38 21.42 1077.38 .42 1073.42 .42 1073.42 9 1066.64 9 1066.64 .42 1062.68 .42 1062.68 21.42 1066.64 21.42 1066.64 12.78 1073.42 12.78 1073.42 21.42 1077.38 21.42"/><polygon class="cls-3" points="1053.64 21.42 1053.64 4.2 1059.22 4.2 1059.22 .42 1044.1 .42 1044.1 4.2 1049.68 4.2 1049.68 21.42 1053.64 21.42"/></g><g class="cls-2"><polygon class="cls-3" points="1415.83 71.2 1415.83 67.42 1402.57 67.42 1402.57 88.42 1416.19 88.42 1416.19 84.64 1406.53 84.64 1406.53 79.78 1415.47 79.78 1415.47 76 1406.53 76 1406.53 71.2 1415.83 71.2"/><path class="cls-3" d="m1398.54,74.98v-.36c0-1.06-.17-2.05-.51-2.97-.34-.94-.84-1.75-1.5-2.43-.66-.7-1.46-1.24-2.4-1.62-.94-.4-2.01-.6-3.21-.6s-2.22.19-3.18.57c-.96.36-1.79.9-2.49,1.62-.68.72-1.22,1.61-1.62,2.67-.38,1.04-.57,2.24-.57,3.6v4.92c0,1.4.18,2.63.54,3.69.36,1.04.85,1.92,1.47,2.64.62.7,1.35,1.23,2.19,1.59s1.74.54,2.7.54c1.36,0,2.38-.26,3.06-.78.68-.54,1.14-1.2,1.38-1.98h.54v2.34h3.6v-10.62h-9v3.78h5.04c0,1.06-.31,1.91-.93,2.55-.6.62-1.49.93-2.67.93-2.64,0-3.96-1.62-3.96-4.86v-4.44c0-1.82.36-3.1,1.08-3.84.72-.76,1.64-1.14,2.76-1.14,1.18,0,2.09.33,2.73.99.66.64.99,1.59.99,2.85v.36h3.96Z"/><polygon class="cls-3" points="1429.64 88.42 1429.64 71.2 1435.22 71.2 1435.22 67.42 1420.1 67.42 1420.1 71.2 1425.68 71.2 1425.68 88.42 1429.64 88.42"/><polygon class="cls-3" points="1352.2 88.42 1356.16 88.42 1356.16 71.2 1361.74 71.2 1361.74 67.42 1346.62 67.42 1346.62 71.2 1352.2 71.2 1352.2 88.42"/><path class="cls-3" d="m1366.85,69.25c-1.36,1.5-2.04,3.61-2.04,6.33v4.68c0,2.8.68,4.93,2.04,6.39,1.38,1.46,3.28,2.19,5.7,2.19s4.31-.73,5.67-2.19c1.38-1.46,2.07-3.59,2.07-6.39v-4.68c0-2.72-.69-4.83-2.07-6.33-1.36-1.5-3.25-2.25-5.67-2.25s-4.32.75-5.7,2.25Zm8.61,2.73c.3.42.52.92.66,1.5s.21,1.2.21,1.86v5.16c0,.7-.06,1.34-.18,1.92s-.33,1.08-.63,1.5c-.3.42-.69.75-1.17.99-.48.22-1.08.33-1.8.33s-1.32-.11-1.8-.33c-.48-.24-.87-.57-1.17-.99-.3-.42-.51-.92-.63-1.5s-.18-1.22-.18-1.92v-5.16c0-.66.07-1.28.21-1.86s.36-1.08.66-1.5c.3-.42.69-.75,1.17-.99.48-.26,1.06-.39,1.74-.39s1.26.13,1.74.39c.48.24.87.57,1.17.99Z"/><rect class="cls-3" x="1438.68" y="67.42" width="1.32" height="21"/></g></g></svg>