<svg width="455" height="383" viewBox="0 0 455 383" fill="none" xmlns="http://www.w3.org/2000/svg">
<g style="mix-blend-mode:overlay" opacity="0.7">
<path d="M299.83 355.104L299.82 355.082L290.931 333.997C288.895 329.167 291.143 323.669 295.969 321.675L340.491 303.285L340.54 303.264C343.687 301.863 346.323 299.355 347.697 295.994L386.259 201.672C387.616 198.352 387.643 194.73 386.236 191.394L367.45 146.832C365.414 142.002 367.662 136.504 372.488 134.51L393.554 125.809C398.397 123.809 403.964 126.11 406.008 130.957L432.16 192.99C433.077 195.356 433.131 197.946 432.176 200.281L379.321 329.564C378.347 331.947 376.579 333.757 374.235 334.725L312.23 360.335C307.391 362.334 301.836 360.038 299.83 355.104Z" fill="#C4C4C4"/>
<path d="M372.488 134.51C367.662 136.504 365.414 142.002 367.45 146.832L386.236 191.394C387.643 194.73 387.616 198.352 386.259 201.672L347.697 295.994C346.323 299.355 343.687 301.863 340.54 303.264L340.491 303.285L295.969 321.675C291.143 323.669 288.895 329.167 290.931 333.997L299.82 355.082L299.83 355.104C301.836 360.038 307.391 362.334 312.23 360.335L374.235 334.725C376.579 333.757 378.347 331.947 379.321 329.564L432.176 200.281C433.131 197.946 433.077 195.356 432.16 192.99L406.008 130.957C403.964 126.11 398.397 123.809 393.554 125.809L372.488 134.51ZM372.488 134.51L371.751 132.703" stroke="#FAFAFA" stroke-opacity="0.2"/>
<path d="M267.65 288.231C268.329 295.329 261.331 300.548 254.563 297.751L230.557 287.827C227.181 286.431 224.944 283.343 224.63 279.845L224.628 279.834L221.013 241.95C220.836 239.001 218.938 236.597 216.307 235.51L187.202 223.478C183.256 221.847 178.823 223.652 177.197 227.628L167.524 251.288C165.566 256.079 159.99 258.408 155.118 256.395L133.873 247.612C129.002 245.599 126.668 239.999 128.626 235.208L186.404 93.8839C188.363 89.0933 193.939 86.7638 198.81 88.7774L293.137 127.771C295.553 128.77 297.388 130.561 298.378 132.908L313.938 169.819C314.855 172.185 314.91 174.775 313.955 177.11L293.616 226.859C292.642 229.242 290.873 231.052 288.529 232.02L268.509 240.289C265.499 241.532 263.525 244.687 263.852 248.018C263.852 248.017 263.852 248.019 263.852 248.018L267.65 288.231ZM262.045 160.083L220.3 142.825C216.357 141.196 211.857 143.103 210.388 147.051L199.001 174.905C197.375 178.881 199.264 183.3 203.21 184.931L244.955 202.188C246.855 202.973 249.027 202.871 250.796 202.14L256.879 199.628C258.886 198.902 260.345 197.319 261.086 195.507L268.902 176.389C269.683 174.479 269.558 172.298 268.811 170.528L266.182 164.291C265.439 162.283 263.847 160.828 262.045 160.083Z" fill="#C4C4C4"/>
<path d="M267.65 288.231L269.583 288.045M267.65 288.231C268.329 295.329 261.331 300.548 254.563 297.751L230.557 287.827C227.181 286.431 224.944 283.343 224.63 279.845L224.628 279.834L221.013 241.95C220.836 239.001 218.938 236.597 216.307 235.51L187.202 223.478C183.256 221.847 178.823 223.652 177.197 227.628L167.524 251.288C165.566 256.079 159.99 258.408 155.118 256.395L133.873 247.612C129.002 245.599 126.668 239.999 128.626 235.208L186.404 93.8839C188.363 89.0933 193.939 86.7638 198.81 88.7774L293.137 127.771C295.553 128.77 297.388 130.561 298.378 132.908L313.938 169.819C314.855 172.185 314.91 174.775 313.955 177.11L293.616 226.859C292.642 229.242 290.873 231.052 288.529 232.02L268.509 240.289C265.499 241.532 263.525 244.687 263.852 248.018M267.65 288.231L263.852 248.018M263.852 248.018C263.852 248.019 263.852 248.017 263.852 248.018ZM262.045 160.083L220.3 142.825C216.357 141.196 211.857 143.103 210.388 147.051L199.001 174.905C197.375 178.881 199.264 183.3 203.21 184.931L244.955 202.188C246.855 202.973 249.027 202.871 250.796 202.14L256.879 199.628C258.886 198.902 260.345 197.319 261.086 195.507L268.902 176.389C269.683 174.479 269.558 172.298 268.811 170.528L266.182 164.291C265.439 162.283 263.847 160.828 262.045 160.083Z" stroke="#FAFAFA" stroke-opacity="0.2"/>
<path d="M68.882 190.964L68.9018 191.013L87.6883 235.574C89.7245 240.404 87.4766 245.903 82.6507 247.896L61.5845 256.597L61.5617 256.607C56.6841 258.695 51.1294 256.398 49.0873 251.555L22.9254 189.498C21.9363 187.152 21.9444 184.615 22.9189 182.231L75.774 52.9483C76.7287 50.6132 78.5788 48.8109 80.8865 47.777L142.865 22.1769C147.708 20.1764 153.275 22.4779 155.318 27.3252L164.207 48.4096C166.244 53.2399 163.996 58.738 159.17 60.7315L114.647 79.1215C111.313 80.4983 108.799 83.0922 107.441 86.4122L68.8796 180.734C67.5054 184.095 67.6252 187.743 68.882 190.964Z" fill="#C4C4C4" stroke="#FAFAFA" stroke-opacity="0.2"/>
</g>
</svg>
