<?xml version="1.0" encoding="UTF-8"?><svg id="Layer_2" xmlns="http://www.w3.org/2000/svg" viewBox="0 0 1336 759.48"><defs><style>.cls-1{fill:none;}.cls-2{opacity:.1;}.cls-3{fill:#fafafa;}.cls-4{fill:#d6d6d6;}</style></defs><g id="Layer_1-2"><g class="cls-2"><path class="cls-1" d="m845.78,56.91l-106.49-52.48c-.99-.49-2.05-.72-3.08-.72-2.58,0-5.07,1.44-6.29,3.91l-52.48,106.49c-1.71,3.46-.28,7.67,3.18,9.37l106.49,52.48c3.46,1.71,7.67.28,9.37-3.18l52.48-106.49c1.71-3.46.28-7.67-3.18-9.37Z"/><rect class="cls-1" x="69.07" y="716.94" width="33.52" height="42.54"/><rect class="cls-1" x="324.24" y="716.94" width="33.52" height="42.54"/><rect class="cls-1" x="103.09" y="657.39" width="39.19" height="30.69"/><rect class="cls-1" x="103.09" y="716.94" width="39.19" height="42.54"/><rect class="cls-1" x="142.79" y="657.39" width="39.19" height="30.69"/><rect class="cls-1" x="69.07" y="688.58" width="33.52" height="27.86"/><rect class="cls-1" x="250.52" y="716.94" width="33.52" height="42.54"/><rect class="cls-1" x="69.07" y="657.39" width="33.52" height="30.69"/><path class="cls-1" d="m0,0v160.44c.1,0,.21,0,.31.02.53.14.85.69.71,1.22l-.05.17c-.35,1.29-.67,2.6-.98,3.9v64.14c.14.13.25.28.3.48.16.64.32,1.28.49,1.92.14.53-.18,1.08-.71,1.22-.03,0-.05,0-.08.01v397.84h34.55v-36.37h.5v36.37h33.52v-36.37h.5v36.37h33.52v-36.37h.5v36.37s39.19,0,39.19,0v-36.37h.5v36.37h39.19v-36.37h.5v36.37h33.52v-36.37h.5v36.37h33.52v-36.37h.5v36.37h33.52v-36.37h.5v36.37h39.19v-36.37h.5v36.37h33.52v-36.37h.5v36.37h33.52v-36.37h.5v36.37h81.72v.5h-81.72v25.02h81.72v.5h-81.72v30.69h81.72v.5h-81.72v27.86h81.72v.5h-81.72v42.54h943.72V0H0Zm272.08,182.25c.22,1.98.39,4,.53,6.01.04.55-.38,1.03-.93,1.06-.02,0-.04,0-.07,0-.52,0-.96-.41-1-.93-.13-1.97-.3-3.96-.52-5.92-.06-.55.34-1.04.89-1.1.55-.06,1.04.34,1.1.89Zm-.79-5.98c.1.66.2,1.32.29,1.99.08.55-.31,1.05-.85,1.13-.05,0-.09,0-.14,0-.49,0-.92-.36-.99-.86-.09-.65-.19-1.31-.29-1.96-.08-.55.29-1.06.84-1.14.54-.09,1.06.29,1.14.84Zm-2.84-13.79c.5,1.94.97,3.91,1.39,5.87.12.54-.23,1.07-.77,1.19-.07.02-.14.02-.21.02-.46,0-.88-.32-.98-.79-.41-1.93-.87-3.88-1.37-5.79-.14-.53.18-1.08.72-1.22.54-.14,1.08.18,1.22.72Zm-2.89-6.47c.53-.16,1.09.14,1.25.66.2.64.39,1.28.58,1.93.15.53-.15,1.08-.68,1.24-.09.03-.19.04-.28.04-.43,0-.83-.28-.96-.72-.19-.63-.37-1.27-.57-1.9-.16-.53.14-1.09.66-1.25Zm-3.55-12.58c.78,1.85,1.52,3.74,2.22,5.61.19.52-.07,1.09-.59,1.29-.11.04-.23.06-.35.06-.41,0-.79-.25-.94-.65-.69-1.85-1.42-3.71-2.19-5.53-.21-.51.02-1.1.53-1.31s1.1.02,1.31.53Zm-3.79-5.99c.5-.24,1.1-.02,1.33.48.29.61.57,1.22.85,1.83.23.5,0,1.1-.5,1.32-.13.06-.27.09-.41.09-.38,0-.74-.22-.91-.59-.27-.6-.55-1.2-.83-1.8-.24-.5-.02-1.1.48-1.33Zm-92.82-74.65c.13-.54.67-.87,1.21-.73,1.01.25,2.02.51,3.03.78.65.17,1.3.35,1.94.53.53.15.84.7.69,1.23-.12.44-.53.73-.96.73-.09,0-.18-.01-.27-.04-.64-.18-1.27-.36-1.91-.53-1-.27-1.99-.52-2.99-.77-.54-.13-.87-.67-.73-1.21Zm-4.69-2.04c.66.13,1.31.27,1.97.41.54.12.88.65.77,1.19-.1.47-.52.79-.98.79-.07,0-.14,0-.21-.02-.65-.14-1.3-.27-1.94-.4-.54-.11-.89-.63-.78-1.18.11-.54.63-.9,1.18-.78Zm-19.97-2.51c.67.03,1.34.07,2.01.12.55.04.97.51.93,1.06-.04.53-.48.93-1,.93-.02,0-.05,0-.07,0-.66-.04-1.32-.08-1.98-.12-.55-.03-.98-.5-.95-1.05s.49-.98,1.05-.95Zm-20.1.41c.67-.06,1.33-.12,2-.17.56-.04,1.03.37,1.08.92.04.55-.37,1.03-.92,1.08-.66.05-1.32.11-1.97.17-.03,0-.06,0-.09,0-.51,0-.95-.39-.99-.91-.05-.55.35-1.04.9-1.09Zm-19.82,3.32c.65-.16,1.3-.31,1.96-.46.54-.12,1.07.21,1.2.75.12.54-.21,1.07-.75,1.2-.64.15-1.29.3-1.93.45-.08.02-.16.03-.24.03-.45,0-.86-.31-.97-.76-.13-.54.2-1.08.74-1.21Zm-19.15,6.14c.62-.25,1.25-.5,1.87-.74.52-.2,1.09.06,1.29.57.2.52-.06,1.09-.57,1.29-.62.24-1.23.48-1.85.73-.12.05-.25.07-.37.07-.4,0-.77-.24-.93-.63-.21-.51.04-1.1.55-1.3Zm-18.08,8.83c.58-.34,1.16-.67,1.75-1,.48-.27,1.09-.1,1.36.38.27.48.1,1.09-.38,1.36-.58.32-1.15.65-1.72.99-.16.09-.33.14-.5.14-.34,0-.68-.18-.87-.5-.28-.48-.12-1.09.36-1.37Zm-16.63,11.34c.53-.42,1.06-.83,1.59-1.24.44-.34,1.06-.26,1.4.18.34.44.26,1.07-.18,1.4-.52.4-1.05.81-1.57,1.22-.18.15-.4.22-.62.22-.29,0-.59-.13-.78-.38-.34-.43-.27-1.06.16-1.4Zm-14.84,13.62c.46-.49.93-.98,1.39-1.46.39-.4,1.02-.41,1.41-.02.4.38.41,1.02.02,1.41-.46.48-.92.95-1.37,1.44-.2.21-.46.31-.73.31-.25,0-.49-.09-.69-.27-.4-.38-.42-1.01-.04-1.41Zm-12.72,15.63c.39-.55.78-1.1,1.17-1.65.32-.45.95-.55,1.4-.23.45.32.55.95.23,1.4-.39.54-.77,1.08-1.15,1.62-.19.28-.51.43-.82.43-.2,0-.4-.06-.57-.18-.45-.32-.56-.94-.25-1.39Zm-10.31,17.31c.3-.6.61-1.2.92-1.79.25-.49.86-.68,1.35-.43.49.25.68.86.43,1.35-.3.59-.6,1.18-.9,1.77-.18.35-.53.55-.9.55-.15,0-.3-.03-.45-.11-.49-.25-.69-.85-.45-1.34Zm-7.69,18.6c.21-.64.43-1.27.65-1.91.18-.52.75-.8,1.27-.62.52.18.8.75.62,1.27-.22.62-.43,1.25-.64,1.88-.14.42-.53.69-.95.69-.1,0-.21-.02-.31-.05-.52-.17-.81-.74-.63-1.26Zm2.67,93.42c-.4,0-.79-.25-.94-.65-.7-1.87-1.38-3.79-2-5.7-.17-.52.11-1.09.64-1.26.52-.17,1.09.12,1.26.64.61,1.88,1.28,3.77,1.97,5.62.19.52-.07,1.09-.58,1.29-.12.04-.23.06-.35.06Zm2.62,5.48c-.13.05-.26.08-.39.08-.39,0-.76-.23-.92-.61-.26-.62-.52-1.24-.77-1.86-.21-.51.04-1.1.55-1.3.51-.21,1.1.04,1.3.55.25.61.5,1.22.76,1.83.22.51-.02,1.1-.53,1.31Zm.84-109.4c-.78,1.81-1.53,3.67-2.23,5.52-.15.4-.53.65-.93.65-.12,0-.24-.02-.35-.07-.52-.2-.78-.77-.58-1.29.71-1.88,1.48-3.76,2.27-5.6.22-.51.81-.74,1.31-.52.51.22.74.81.52,1.31Zm5.37,121.94c-.15.08-.32.12-.48.12-.35,0-.7-.19-.88-.52-.96-1.75-1.91-3.55-2.8-5.35-.25-.49-.04-1.09.45-1.34.5-.25,1.09-.04,1.34.45.88,1.77,1.81,3.55,2.76,5.28.27.48.09,1.09-.39,1.36Zm3.04,5.17c-.16.1-.34.15-.52.15-.34,0-.67-.17-.86-.48-.35-.57-.69-1.15-1.03-1.73-.28-.48-.12-1.09.35-1.37.48-.28,1.09-.12,1.37.35.34.57.68,1.14,1.02,1.7.29.47.14,1.09-.34,1.37Zm.74-144.72c-1.04,1.69-2.06,3.42-3.02,5.15-.18.33-.52.51-.87.51-.16,0-.33-.04-.49-.13-.48-.27-.66-.88-.39-1.36.97-1.75,2-3.51,3.06-5.23.29-.47.91-.62,1.38-.33.47.29.62.91.33,1.38Zm7.2,156.25c-.18.14-.39.2-.6.2-.3,0-.6-.14-.8-.4-1.21-1.6-2.4-3.25-3.54-4.9-.31-.45-.2-1.08.26-1.39.45-.31,1.08-.2,1.39.26,1.12,1.63,2.29,3.25,3.49,4.83.33.44.25,1.07-.2,1.4Zm3.75,4.68c-.19.15-.41.23-.64.23-.29,0-.57-.12-.77-.36-.43-.52-.85-1.04-1.27-1.56-.35-.43-.28-1.06.15-1.41.43-.35,1.06-.28,1.41.15.41.52.83,1.03,1.25,1.54.35.43.29,1.06-.13,1.41Zm.66-177.04c-1.27,1.51-2.52,3.08-3.73,4.65-.2.26-.49.39-.79.39-.21,0-.43-.07-.61-.21-.44-.34-.52-.96-.19-1.4,1.22-1.6,2.5-3.18,3.79-4.72.35-.42.98-.48,1.41-.12.42.35.48.99.12,1.41Zm8.86,187.31c-.2.2-.45.3-.71.3s-.51-.1-.7-.29c-1.42-1.41-2.84-2.87-4.21-4.34-.38-.4-.35-1.04.05-1.41s1.04-.35,1.41.05c1.35,1.45,2.74,2.89,4.15,4.28.39.39.4,1.02,0,1.41Zm4.39,4.1c-.2.22-.47.33-.74.33-.24,0-.48-.09-.67-.26-.5-.45-.99-.91-1.49-1.37-.4-.38-.43-1.01-.05-1.41.38-.4,1.01-.43,1.41-.05.48.45.97.9,1.46,1.35.41.37.44,1,.07,1.41Zm.57-205.65c-1.48,1.32-2.94,2.68-4.36,4.06-.19.19-.45.28-.7.28s-.52-.1-.72-.3c-.39-.4-.38-1.03.02-1.41,1.44-1.4,2.93-2.78,4.43-4.12.41-.37,1.04-.33,1.41.08.37.41.33,1.04-.08,1.41Zm10.34,214.44c-.2.27-.5.41-.81.41-.21,0-.41-.06-.59-.19-1.61-1.18-3.22-2.43-4.8-3.69-.43-.35-.5-.98-.15-1.41.35-.43.98-.5,1.41-.15,1.55,1.25,3.14,2.47,4.73,3.64.45.33.54.95.21,1.4Zm4.95,3.42c-.19.29-.51.44-.83.44-.19,0-.38-.05-.56-.17-.56-.38-1.12-.75-1.67-1.14-.45-.31-.57-.94-.25-1.39s.94-.57,1.39-.25c.55.38,1.09.75,1.65,1.12.46.31.58.93.27,1.39Zm.44-229.96c-1.65,1.09-3.3,2.23-4.9,3.39-.18.13-.38.19-.59.19-.31,0-.62-.14-.81-.41-.32-.45-.22-1.07.22-1.4,1.62-1.18,3.3-2.33,4.97-3.44.46-.3,1.08-.18,1.39.28.3.46.18,1.08-.28,1.39Zm11.62,237.07c-.18.34-.53.53-.88.53-.16,0-.32-.04-.47-.12-1.77-.94-3.55-1.94-5.27-2.95-.48-.28-.63-.89-.35-1.37.28-.48.89-.63,1.37-.35,1.7,1,3.45,1.98,5.2,2.91.49.26.67.86.41,1.35Zm5.38,2.66c-.17.36-.53.57-.9.57-.14,0-.29-.03-.43-.1-.61-.29-1.21-.58-1.81-.88-.5-.25-.7-.84-.45-1.34.24-.5.84-.7,1.34-.45.59.29,1.19.58,1.79.87.5.24.71.83.47,1.33Zm.29-249.44c-1.78.84-3.58,1.73-5.33,2.65-.15.08-.31.11-.46.11-.36,0-.71-.19-.89-.54-.26-.49-.07-1.09.42-1.35,1.78-.93,3.6-1.84,5.41-2.69.5-.23,1.1-.02,1.33.48.24.5.02,1.1-.48,1.33Zm12.67,254.72c-.15.41-.53.66-.94.66-.11,0-.23-.02-.34-.06-1.89-.67-3.78-1.4-5.64-2.16-.51-.21-.76-.79-.55-1.3.21-.51.79-.76,1.3-.55,1.83.75,3.7,1.46,5.56,2.13.52.19.79.76.6,1.28Zm5.7,1.86c-.13.43-.53.7-.95.7-.1,0-.2-.01-.3-.05-.64-.2-1.28-.4-1.92-.61-.53-.17-.81-.74-.64-1.26.17-.52.73-.81,1.26-.64.63.2,1.26.4,1.89.6.53.16.82.72.66,1.25Zm.12-263.71c-1.89.58-3.79,1.2-5.65,1.86-.11.04-.22.06-.33.06-.41,0-.8-.26-.94-.67-.18-.52.09-1.09.61-1.28,1.89-.67,3.82-1.3,5.73-1.89.53-.16,1.09.14,1.25.66.16.53-.14,1.09-.66,1.25Zm13.46,267.09c-.1.47-.51.8-.98.8-.07,0-.13,0-.2-.02-1.96-.4-3.94-.85-5.89-1.33-.54-.13-.86-.68-.73-1.21.13-.54.67-.86,1.21-.73,1.93.48,3.88.92,5.81,1.31.54.11.89.64.78,1.18Zm4.92,1.87c-.05,0-.11,0-.16-.01-.66-.11-1.32-.22-1.99-.33-.54-.1-.91-.61-.81-1.16.1-.54.62-.9,1.16-.81.65.11,1.31.22,1.96.33.55.09.92.6.83,1.15-.08.49-.5.84-.99.84Zm.93-273.36c-1.95.3-3.92.64-5.86,1.02-.07.01-.13.02-.19.02-.47,0-.89-.33-.98-.81-.11-.54.25-1.07.79-1.17,1.96-.39,3.96-.74,5.94-1.04.55-.08,1.06.29,1.14.84.08.55-.29,1.06-.84,1.14Zm12.98,274.85s-.04,0-.06,0c-2-.11-4.03-.27-6.02-.47-.55-.06-.95-.55-.9-1.09.06-.55.55-.95,1.09-.9,1.97.2,3.96.35,5.94.46.55.03.97.5.94,1.05-.03.53-.47.94-1,.94Zm6,.21h-.01c-.67,0-1.34-.02-2.01-.04-.55-.02-.99-.48-.97-1.03.02-.55.43-1.01,1.03-.97.66.02,1.32.03,1.98.04.55,0,.99.46.99,1.01,0,.55-.45.99-1,.99Zm.77-276.62c-1.98.01-3.98.07-5.95.17-.02,0-.03,0-.05,0-.53,0-.97-.42-1-.95-.03-.55.4-1.02.95-1.05,2-.1,4.03-.16,6.04-.17h0c.55,0,1,.44,1,.99,0,.55-.44,1-.99,1.01Zm13.29,276.08c-2,.18-4.02.31-6.02.41-.02,0-.03,0-.05,0-.53,0-.97-.42-1-.95-.03-.55.4-1.02.95-1.04,1.97-.09,3.96-.22,5.93-.4.55-.05,1.04.36,1.08.91.05.55-.36,1.04-.91,1.08Zm5.99-.67c-.66.09-1.33.17-1.99.25-.04,0-.08,0-.12,0-.5,0-.93-.37-.99-.88-.06-.55.33-1.05.88-1.11.66-.08,1.31-.16,1.96-.25.55-.07,1.05.31,1.12.86.07.55-.31,1.05-.86,1.12Zm.66-274.08s-.09,0-.14,0c-1.95-.27-3.94-.51-5.91-.7-.55-.05-.95-.54-.9-1.09.05-.55.53-.95,1.09-.9,2,.19,4.02.43,6,.71.55.08.93.58.85,1.13-.07.5-.5.86-.99.86Zm13.19,271.51c-1.95.46-3.93.89-5.9,1.27-.06.01-.13.02-.19.02-.47,0-.89-.33-.98-.81-.1-.54.25-1.07.79-1.17,1.94-.37,3.89-.8,5.81-1.25.53-.12,1.08.2,1.2.74.13.54-.2,1.08-.74,1.2Zm5.84-1.53c-.64.18-1.29.36-1.94.54-.09.02-.17.04-.26.04-.44,0-.84-.29-.96-.74-.14-.53.17-1.08.71-1.23.64-.17,1.27-.35,1.91-.53.53-.15,1.08.16,1.24.69.15.53-.16,1.08-.69,1.24Zm2.53-266.2c.17-.53.73-.82,1.25-.65,1.91.6,3.84,1.25,5.72,1.93.52.19.79.76.6,1.28-.15.41-.53.66-.94.66-.11,0-.23-.02-.34-.06-1.86-.67-3.76-1.31-5.64-1.91-.53-.17-.82-.73-.65-1.25Zm10.8,261.65c-1.86.74-3.77,1.45-5.66,2.11-.11.04-.22.06-.33.06-.41,0-.8-.26-.94-.67-.18-.52.09-1.09.62-1.27,1.86-.65,3.74-1.35,5.58-2.08.51-.21,1.1.05,1.3.56.2.51-.05,1.09-.56,1.3Zm2.35-256.89c.22-.51.81-.74,1.31-.52.62.27,1.23.53,1.84.81.5.22.73.82.51,1.32-.17.37-.53.59-.91.59-.14,0-.27-.03-.41-.09-.6-.27-1.21-.53-1.82-.8-.51-.22-.74-.81-.52-1.31Zm3.21,254.54c-.61.27-1.23.54-1.84.81-.13.06-.26.08-.4.08-.39,0-.76-.23-.92-.6-.22-.51.02-1.1.52-1.31.61-.26,1.21-.53,1.82-.8.5-.23,1.1,0,1.32.5.23.5,0,1.1-.5,1.32Zm2.27-252.09c.24-.5.84-.71,1.33-.47,1.81.87,3.62,1.79,5.39,2.74.49.26.67.87.41,1.35-.18.34-.53.53-.88.53-.16,0-.32-.04-.47-.12-1.74-.93-3.53-1.84-5.31-2.7-.5-.24-.71-.84-.47-1.33Zm10.28,245.68c-1.74,1-3.52,1.98-5.3,2.9-.15.08-.31.11-.46.11-.36,0-.71-.2-.89-.54-.25-.49-.06-1.09.43-1.35,1.75-.91,3.51-1.87,5.22-2.86.48-.27,1.09-.11,1.37.37.28.48.11,1.09-.37,1.37Zm2.05-239.07c.29-.47.91-.62,1.38-.33.58.35,1.15.71,1.72,1.07.47.3.6.91.31,1.38-.19.3-.51.46-.85.46-.18,0-.37-.05-.54-.16-.56-.36-1.12-.71-1.69-1.05-.47-.29-.62-.9-.33-1.38Zm3.12,235.94c-.57.36-1.14.72-1.71,1.07-.16.1-.34.15-.52.15-.34,0-.66-.17-.85-.48-.29-.47-.14-1.09.33-1.38.56-.35,1.13-.7,1.68-1.05.47-.3,1.08-.16,1.38.31.3.47.16,1.08-.31,1.38Zm1.96-232.72c.31-.46.93-.58,1.39-.27,1.66,1.12,3.32,2.3,4.94,3.5.44.33.54.96.21,1.4-.2.26-.5.4-.8.4-.21,0-.42-.06-.59-.2-1.59-1.18-3.23-2.34-4.87-3.45-.46-.31-.58-.93-.27-1.39Zm9.54,224.58c-1.58,1.25-3.21,2.47-4.83,3.63-.18.13-.38.19-.58.19-.31,0-.62-.14-.81-.42-.32-.45-.22-1.07.23-1.4,1.6-1.15,3.2-2.35,4.76-3.58.43-.34,1.06-.27,1.4.17s.27,1.06-.17,1.4Zm1.71-216.23c.35-.42.98-.48,1.41-.13.52.43,1.03.87,1.54,1.31.42.36.47.99.1,1.41-.2.23-.48.35-.76.35-.23,0-.46-.08-.65-.24-.5-.43-1.01-.86-1.52-1.29-.42-.35-.48-.98-.13-1.41Zm2.96,212.39c-.51.44-1.02.87-1.54,1.3-.19.16-.41.23-.64.23-.29,0-.57-.12-.77-.36-.35-.42-.3-1.05.13-1.41.51-.42,1.01-.85,1.52-1.28.42-.36,1.05-.31,1.41.11.36.42.31,1.05-.11,1.41Zm1.59-208.47c.37-.41,1-.44,1.41-.06,1.49,1.36,2.96,2.76,4.38,4.17.39.39.39,1.02,0,1.41-.2.2-.45.29-.71.29s-.51-.1-.71-.29c-1.4-1.39-2.85-2.78-4.31-4.11-.41-.37-.44-1-.06-1.41Zm8.63,198.75c-1.38,1.46-2.82,2.9-4.26,4.29-.19.19-.44.28-.69.28s-.52-.1-.72-.31c-.38-.4-.37-1.03.03-1.41,1.42-1.37,2.83-2.8,4.2-4.23.38-.4,1.01-.42,1.41-.04.4.38.42,1.01.04,1.41Zm1.29-188.87c.41-.37,1.04-.33,1.41.08.45.5.89,1.01,1.33,1.51.36.42.32,1.05-.1,1.41-.19.16-.42.25-.66.25-.28,0-.56-.12-.76-.34-.43-.5-.87-1-1.31-1.49-.37-.41-.33-1.04.08-1.41Zm2.78,184.39c-.44.51-.89,1.01-1.34,1.51-.2.22-.47.33-.75.33-.24,0-.48-.08-.67-.25-.41-.37-.45-1-.08-1.41.44-.49.88-.99,1.32-1.49.36-.42.99-.46,1.41-.1.42.36.46.99.1,1.41Zm1.16-179.86c.43-.35,1.06-.29,1.41.14,1.27,1.56,2.53,3.16,3.73,4.76.33.44.24,1.07-.2,1.4-.18.13-.39.2-.6.2-.3,0-.6-.14-.8-.4-1.18-1.58-2.42-3.16-3.67-4.69-.35-.43-.29-1.06.14-1.41Zm7.55,168.76c-1.16,1.64-2.37,3.28-3.6,4.87-.2.25-.49.39-.79.39-.21,0-.43-.07-.61-.21-.44-.34-.52-.97-.18-1.4,1.21-1.57,2.4-3.18,3.54-4.8.32-.45.94-.56,1.39-.24.45.32.56.94.24,1.39Zm.84-157.55c.46-.31,1.08-.18,1.39.28.37.56.74,1.12,1.1,1.69.3.46.16,1.08-.3,1.38-.17.11-.35.16-.54.16-.33,0-.65-.16-.84-.46-.36-.56-.72-1.11-1.08-1.66-.31-.46-.18-1.08.28-1.39Zm2.55,152.53c-.36.57-.73,1.13-1.1,1.69-.19.29-.51.45-.83.45-.19,0-.38-.05-.55-.17-.46-.31-.59-.93-.28-1.39.37-.55.73-1.11,1.09-1.67.3-.46.92-.6,1.38-.3.47.3.6.92.3,1.38Zm.69-147.48c.47-.28,1.09-.13,1.37.34,1.04,1.72,2.05,3.48,3,5.24.26.48.09,1.09-.4,1.36-.15.08-.32.12-.48.12-.35,0-.7-.19-.88-.52-.95-1.73-1.94-3.47-2.96-5.17-.29-.47-.13-1.09.34-1.37Zm6.31,135.23c-.91,1.79-1.86,3.58-2.85,5.33-.18.33-.52.51-.87.51-.17,0-.33-.04-.49-.13-.48-.27-.65-.88-.38-1.36.97-1.72,1.91-3.49,2.8-5.25.25-.49.85-.69,1.34-.44.49.25.69.85.44,1.34Zm2.61-5.45c-.28.61-.56,1.22-.84,1.83-.17.36-.53.58-.91.58-.14,0-.29-.03-.42-.1-.5-.24-.71-.83-.48-1.33.28-.6.56-1.2.83-1.8.23-.5.82-.73,1.32-.5.5.23.73.82.5,1.32Zm5.15-13.12c-.64,1.91-1.33,3.82-2.05,5.68-.15.4-.53.64-.93.64-.12,0-.24-.02-.36-.07-.52-.2-.77-.78-.57-1.29.71-1.84,1.39-3.72,2.02-5.6.18-.52.74-.8,1.27-.63.52.18.81.74.63,1.27Zm1.8-5.77c-.19.65-.38,1.29-.57,1.93-.13.43-.53.71-.96.71-.1,0-.19-.01-.29-.04-.53-.16-.83-.72-.67-1.25.19-.63.38-1.27.56-1.9.15-.53.7-.84,1.24-.68.53.15.84.71.68,1.24Zm2.01-7.8c-.11.46-.52.78-.97.78-.07,0-.15,0-.22-.02-.54-.12-.88-.66-.75-1.2.44-1.94.85-3.9,1.2-5.83.1-.54.62-.9,1.16-.8.54.1.9.62.8,1.16-.36,1.96-.77,3.95-1.22,5.92Zm1.89-9.89c-.08.49-.5.85-.99.85-.05,0-.1,0-.15-.01-.55-.08-.92-.59-.84-1.14.1-.66.2-1.31.29-1.97.08-.55.59-.93,1.13-.85.55.08.93.58.85,1.13-.09.66-.19,1.33-.29,1.99Zm1.17-10c-.04.52-.48.92-1,.92-.03,0-.05,0-.08,0-.55-.04-.96-.53-.92-1.08.16-1.97.27-3.97.35-5.95.02-.55.47-.98,1.04-.96.55.02.98.48.96,1.04-.07,2.01-.19,4.04-.35,6.03Zm.44-10.06c0,.55-.45.99-1,.99h0c-.55,0-1-.46-.99-1.01v-1.01s0-.97,0-.97c0-.55.44-1,.99-1.01h0c.55,0,1,.44,1,.99v.99s0,1.03,0,1.03Zm427.54,302.12c-1.21,6.43-7.05,8.25-12.92,8.29-7.68.05-16.51,1.42-21.28,8.22-7.48,10.65,8.98,28.14-5.38,36.44-7.67,4.43-16.64-.52-24.75.92-8.64,1.52-8.63,11.19-7.81,18.12.69,5.86,1.65,11.96-.29,17.7-1.59,4.67-5.13,8.24-10.04,9.25-5.24,1.08-10.4-.85-15.63-.9-7.67-.08-12.34,6.37-13.49,13.43-.96,5.93.8,11.98.63,17.94-.3,11.05-8.1,15.68-18.28,15.58-4.68-.05-10.21-.93-14.46,1.53-6.92,4-5.35,14.12-4.55,20.73,1.15,9.55.21,24.11-11.98,25.63-5.8.73-12.63-3.33-17.92-.06-8.38,5.16-3.33,15.49,2.91,19.68,2.68,1.8-.46,5.71-3.12,3.93-5.35-3.59-9.39-9.34-9.16-16,.2-5.89,4.08-11.62,9.84-13.32,6.27-1.85,13.26,2.85,19.15.1,8.13-3.79,5.51-16.2,4.87-23.19-.96-10.6,1.42-22.02,13.59-23.86,4.89-.74,9.86.24,14.76-.27,7.9-.83,9.72-7.06,9.29-14.1-.68-11.02-2.07-24.18,9.29-30.67,4.59-2.62,9.61-2.19,14.65-1.48,2.75.39,5.71,1.04,8.48.46,4.63-.96,6.67-5.15,7.16-9.49,1.22-10.87-5.95-27.05,6.42-34.01,8.34-4.69,17.53,1.23,26.07-1.21,8.22-2.36,5.19-12.45,3.74-18.37-1.38-5.64-1.83-11.3,1.34-16.45,3-4.87,8.18-8.07,13.56-9.75,2.81-.87,5.73-1.38,8.66-1.48,3.6-.13,10.74.98,11.69-4.03h0c.6-3.17,5.56-2.46,4.96.71Zm149.42-433.72l-52.48,106.49c-1.39,2.82-4.24,4.46-7.19,4.46-1.19,0-2.39-.26-3.52-.82l-106.49-52.48c-3.96-1.95-5.59-6.76-3.64-10.71l52.48-106.49c1.95-3.96,6.76-5.59,10.71-3.64l106.49,52.48c3.96,1.95,5.59,6.76,3.64,10.71Zm166.91,89.55l-65.85,10.99c-4.36.73-8.48-2.22-9.21-6.57l-10.99-65.85c-.73-4.36,2.22-8.48,6.57-9.21l65.85-10.99c4.36-.73,8.48,2.22,9.21,6.57l10.99,65.85c.73,4.36-2.22,8.48-6.57,9.21Z"/><rect class="cls-1" x="284.54" y="716.94" width="39.19" height="42.54"/><rect class="cls-1" x="250.52" y="688.58" width="33.52" height="27.86"/><rect class="cls-1" x="35.05" y="716.94" width="33.52" height="42.54"/><rect class="cls-1" y="657.39" width="34.55" height="30.69"/><rect class="cls-1" y="688.58" width="34.55" height="27.86"/><rect class="cls-1" x="284.54" y="688.58" width="39.19" height="27.86"/><rect class="cls-1" x="324.24" y="688.58" width="33.52" height="27.86"/><rect class="cls-1" x="35.05" y="688.58" width="33.52" height="27.86"/><rect class="cls-1" x="358.26" y="716.94" width="33.52" height="42.54"/><rect class="cls-1" x="35.05" y="657.39" width="33.52" height="30.69"/><rect class="cls-1" x="358.26" y="688.58" width="33.52" height="27.86"/><rect class="cls-1" y="631.87" width="34.55" height="25.02"/><rect class="cls-1" x="216.5" y="688.58" width="33.52" height="27.86"/><rect class="cls-1" x="182.48" y="716.94" width="33.52" height="42.54"/><rect class="cls-1" x="324.24" y="631.87" width="33.52" height="25.02"/><rect class="cls-1" x="284.54" y="631.87" width="39.19" height="25.02"/><rect class="cls-1" x="250.52" y="631.87" width="33.52" height="25.02"/><rect class="cls-1" x="35.05" y="631.87" width="33.52" height="25.02"/><rect class="cls-1" x="358.26" y="631.87" width="33.52" height="25.02"/><rect class="cls-1" x="182.48" y="688.58" width="33.52" height="27.86"/><rect class="cls-1" x="216.5" y="631.87" width="33.52" height="25.02"/><rect class="cls-1" x="69.07" y="631.87" width="33.52" height="25.02"/><rect class="cls-1" x="103.09" y="631.87" width="39.19" height="25.02"/><rect class="cls-1" x="182.48" y="631.87" width="33.52" height="25.02"/><rect class="cls-1" x="142.79" y="631.87" width="39.19" height="25.02"/><rect class="cls-1" x="103.09" y="688.58" width="39.19" height="27.86"/><rect class="cls-1" x="250.52" y="657.39" width="33.52" height="30.69"/><rect class="cls-1" x="182.48" y="657.39" width="33.52" height="30.69"/><rect class="cls-1" x="216.5" y="716.94" width="33.52" height="42.54"/><rect class="cls-1" y="716.94" width="34.55" height="42.54"/><rect class="cls-1" x="216.5" y="657.39" width="33.52" height="30.69"/><rect class="cls-1" x="142.79" y="688.58" width="39.19" height="27.86"/><rect class="cls-1" x="284.54" y="657.39" width="39.19" height="30.69"/><rect class="cls-1" x="142.79" y="716.94" width="39.19" height="42.54"/><rect class="cls-1" x="324.24" y="657.39" width="33.52" height="30.69"/><rect class="cls-1" x="358.26" y="657.39" width="33.52" height="30.69"/><path class="cls-4" d="m846.22,56.01L739.73,3.54c-3.96-1.95-8.76-.32-10.71,3.64l-52.48,106.49c-1.95,3.96-.32,8.76,3.64,10.71l106.49,52.48c1.13.56,2.34.82,3.52.82,2.95,0,5.8-1.64,7.19-4.46l52.48-106.49c1.95-3.96.32-8.76-3.64-10.71Zm2.74,10.27l-52.48,106.49c-1.71,3.46-5.91,4.89-9.37,3.18l-106.49-52.48c-3.46-1.71-4.89-5.91-3.18-9.37l52.48-106.49c1.22-2.47,3.71-3.91,6.29-3.91,1.04,0,2.09.23,3.08.72l106.49,52.48c3.46,1.71,4.89,5.91,3.18,9.37Z"/><rect class="cls-4" x="935.66" y="79.57" width="82.76" height="82.76" rx="8" ry="8" transform="translate(-6.58 162.43) rotate(-9.47)"/><path class="cls-4" d="m9.54,136.2c.14.07.3.11.45.11.37,0,.72-.2.9-.55.3-.59.6-1.18.9-1.77.25-.49.06-1.09-.43-1.35-.49-.26-1.09-.06-1.35.43-.31.6-.61,1.19-.92,1.79-.25.49-.05,1.09.45,1.34Z"/><path class="cls-4" d="m257.38,259.06c-.49-.25-1.09-.05-1.34.44-.89,1.76-1.84,3.53-2.8,5.25-.27.48-.1,1.09.38,1.36.16.09.32.13.49.13.35,0,.69-.18.87-.51.98-1.75,1.94-3.54,2.85-5.33.25-.49.05-1.09-.44-1.34Z"/><path class="cls-4" d="m20.22,119.12c.32,0,.63-.15.82-.43.38-.54.76-1.08,1.15-1.62.32-.45.22-1.07-.23-1.4-.45-.32-1.07-.22-1.4.23-.39.55-.78,1.09-1.17,1.65-.32.45-.21,1.08.25,1.39.17.12.37.18.57.18Z"/><path class="cls-4" d="m2.04,154.72c.1.03.21.05.31.05.42,0,.81-.27.95-.69.21-.63.42-1.26.64-1.88.18-.52-.1-1.09-.62-1.27-.52-.18-1.09.1-1.27.62-.22.63-.44,1.27-.65,1.91-.17.52.11,1.09.63,1.26Z"/><path class="cls-4" d="m202.09,316.35c-1.71.99-3.47,1.95-5.22,2.86-.49.25-.68.86-.43,1.35.18.34.53.54.89.54.16,0,.31-.04.46-.11,1.78-.92,3.56-1.9,5.3-2.9.48-.28.64-.89.37-1.37-.28-.48-.89-.64-1.37-.37Z"/><path class="cls-4" d="m271.9,195.31h0c-.55,0-1,.46-.99,1.01v.97s0,1.01,0,1.01c0,.55.44,1,.99,1.01h0c.55,0,1-.44,1-.99v-1.03s0-.99,0-.99c0-.55-.45-.99-1-.99Z"/><path class="cls-4" d="m269.81,221.19c-.55-.1-1.06.26-1.16.8-.35,1.93-.76,3.9-1.2,5.83-.12.54.21,1.07.75,1.2.07.02.15.02.22.02.46,0,.87-.31.97-.78.45-1.97.86-3.96,1.22-5.92.1-.54-.26-1.06-.8-1.16Z"/><path class="cls-4" d="m266.7,234.83c-.53-.15-1.08.15-1.24.68-.18.64-.37,1.27-.56,1.9-.16.53.14,1.09.67,1.25.1.03.19.04.29.04.43,0,.82-.28.96-.71.2-.64.39-1.29.57-1.93.15-.53-.15-1.08-.68-1.24Z"/><path class="cls-4" d="m270.72,215.26c-.54-.08-1.05.3-1.13.85-.09.65-.19,1.31-.29,1.97-.08.55.29,1.06.84,1.14.05,0,.1.01.15.01.49,0,.91-.35.99-.85.1-.66.2-1.33.29-1.99.08-.55-.31-1.05-.85-1.13Z"/><path class="cls-4" d="m223.12,93.27c.19.16.42.24.65.24.28,0,.56-.12.76-.35.36-.42.31-1.05-.1-1.41-.51-.44-1.02-.88-1.54-1.31-.42-.35-1.05-.3-1.41.13-.35.42-.3,1.05.13,1.41.51.43,1.01.85,1.52,1.29Z"/><path class="cls-4" d="m271.84,201.31c-.57-.02-1.02.41-1.04.96-.07,1.98-.19,3.98-.35,5.95-.04.55.37,1.03.92,1.08.03,0,.05,0,.08,0,.52,0,.95-.4,1-.92.16-1.99.28-4.02.35-6.03.02-.55-.41-1.02-.96-1.04Z"/><path class="cls-4" d="m259.93,253.63c-.5-.23-1.1,0-1.32.5-.27.6-.55,1.2-.83,1.8-.24.5-.02,1.1.48,1.33.14.06.28.1.42.1.38,0,.74-.21.91-.58.29-.61.57-1.22.84-1.83.23-.5,0-1.1-.5-1.32Z"/><path class="cls-4" d="m264.95,240.57c-.52-.17-1.09.11-1.27.63-.63,1.88-1.31,3.76-2.02,5.6-.2.52.06,1.09.57,1.29.12.05.24.07.36.07.4,0,.78-.24.93-.64.72-1.87,1.41-3.78,2.05-5.68.18-.52-.11-1.09-.63-1.27Z"/><path class="cls-4" d="m233.2,291.87c-1.36,1.44-2.78,2.86-4.2,4.23-.4.38-.41,1.02-.03,1.41.2.2.46.31.72.31s.5-.09.69-.28c1.44-1.39,2.88-2.84,4.26-4.29.38-.4.36-1.03-.04-1.41-.4-.38-1.03-.36-1.41.04Z"/><path class="cls-4" d="m237.18,107.29c.2.23.48.34.76.34.23,0,.47-.08.66-.25.42-.36.46-.99.1-1.41-.44-.51-.88-1.01-1.33-1.51-.37-.41-1-.45-1.41-.08s-.45,1-.08,1.41c.44.49.88.99,1.31,1.49Z"/><path class="cls-4" d="m237.22,287.46c-.44.5-.88,1-1.32,1.49-.37.41-.33,1.04.08,1.41.19.17.43.25.67.25.27,0,.55-.11.75-.33.45-.5.89-1,1.34-1.51.36-.42.32-1.05-.1-1.41-.42-.36-1.05-.32-1.41.1Z"/><path class="cls-4" d="m218.53,305.24c-1.56,1.23-3.16,2.43-4.76,3.58-.45.32-.55.95-.23,1.4.2.27.5.42.81.42.2,0,.41-.06.58-.19,1.62-1.17,3.25-2.39,4.83-3.63.43-.34.51-.97.17-1.4s-.97-.51-1.4-.17Z"/><path class="cls-4" d="m215.95,87.26c.31,0,.61-.14.8-.4.33-.44.24-1.07-.21-1.4-1.62-1.2-3.28-2.38-4.94-3.5-.46-.31-1.08-.19-1.39.27-.31.46-.19,1.08.27,1.39,1.64,1.11,3.28,2.27,4.87,3.45.18.13.39.2.59.2Z"/><path class="cls-4" d="m223.13,301.45c-.5.43-1.01.86-1.52,1.28-.42.35-.48.98-.13,1.41.2.24.48.36.77.36.23,0,.45-.08.64-.23.52-.43,1.03-.86,1.54-1.3.42-.36.47-.99.11-1.41-.36-.42-.99-.47-1.41-.11Z"/><path class="cls-4" d="m231.11,100.32c.26,0,.51-.1.71-.29.39-.39.39-1.02,0-1.41-1.42-1.41-2.89-2.82-4.38-4.17-.41-.37-1.04-.34-1.41.06-.37.41-.34,1.04.06,1.41,1.46,1.34,2.92,2.72,4.31,4.11.2.19.45.29.71.29Z"/><path class="cls-4" d="m244.22,115.41c.21,0,.42-.06.6-.2.44-.33.53-.96.2-1.4-1.2-1.6-2.45-3.2-3.73-4.76-.35-.43-.98-.49-1.41-.14-.43.35-.49.98-.14,1.41,1.26,1.53,2.49,3.11,3.67,4.69.2.26.5.4.8.4Z"/><path class="cls-4" d="m205.47,80.38c.57.35,1.13.7,1.69,1.05.17.11.35.16.54.16.33,0,.65-.16.85-.46.3-.47.16-1.08-.31-1.38-.57-.36-1.14-.72-1.72-1.07-.47-.29-1.09-.14-1.38.33-.29.47-.14,1.09.33,1.38Z"/><path class="cls-4" d="m6.46,249.22c-.21-.51-.79-.75-1.3-.55-.51.21-.76.79-.55,1.3.25.62.51,1.24.77,1.86.16.38.53.61.92.61.13,0,.26-.03.39-.08.51-.22.74-.8.53-1.31-.26-.61-.51-1.22-.76-1.83Z"/><path class="cls-4" d="m250.52,271.27c-.47-.3-1.08-.16-1.38.3-.36.56-.72,1.12-1.09,1.67-.31.46-.18,1.08.28,1.39.17.11.36.17.55.17.32,0,.64-.16.83-.45.37-.56.74-1.13,1.1-1.69.3-.47.16-1.08-.3-1.38Z"/><path class="cls-4" d="m255.02,132.23c.16,0,.33-.04.48-.12.48-.26.66-.87.4-1.36-.96-1.76-1.97-3.52-3-5.24-.28-.47-.9-.62-1.37-.34-.47.28-.63.9-.34,1.37,1.02,1.69,2.02,3.43,2.96,5.17.18.33.52.52.88.52Z"/><path class="cls-4" d="m249.08,123.17c.19.3.51.46.84.46.19,0,.37-.05.54-.16.46-.3.6-.92.3-1.38-.36-.56-.73-1.13-1.1-1.69-.3-.46-.93-.59-1.39-.28-.46.3-.59.93-.28,1.39.37.55.73,1.11,1.08,1.66Z"/><path class="cls-4" d="m245.8,276.52c-1.14,1.62-2.33,3.23-3.54,4.8-.34.44-.26,1.07.18,1.4.18.14.4.21.61.21.3,0,.59-.13.79-.39,1.23-1.59,2.44-3.23,3.6-4.87.32-.45.21-1.08-.24-1.39-.45-.32-1.08-.21-1.39.24Z"/><path class="cls-4" d="m207.19,313.26c-.56.35-1.12.71-1.68,1.05-.47.29-.62.91-.33,1.38.19.31.52.48.85.48.18,0,.36-.05.52-.15.57-.35,1.14-.71,1.71-1.07.47-.3.6-.91.31-1.38-.3-.47-.91-.6-1.38-.31Z"/><path class="cls-4" d="m56.75,81.21c-1.67,1.1-3.34,2.26-4.97,3.44-.45.32-.55.95-.22,1.4.2.27.5.41.81.41.2,0,.41-.06.59-.19,1.6-1.16,3.25-2.3,4.9-3.39.46-.3.59-.92.28-1.39-.3-.46-.92-.59-1.39-.28Z"/><path class="cls-4" d="m74.38,321.27c-.6-.29-1.19-.57-1.79-.87-.5-.25-1.1-.04-1.34.45-.24.5-.04,1.09.45,1.34.6.3,1.21.59,1.81.88.14.07.29.1.43.1.37,0,.73-.21.9-.57.24-.5.03-1.1-.47-1.33Z"/><path class="cls-4" d="m112.17,332.99c-.65-.1-1.31-.21-1.96-.33-.54-.09-1.06.27-1.16.81-.09.54.27,1.06.81,1.16.66.12,1.33.23,1.99.33.05,0,.11.01.16.01.48,0,.91-.35.99-.84.09-.55-.29-1.06-.83-1.15Z"/><path class="cls-4" d="m7.01,141.64c-.51-.22-1.1.02-1.31.52-.79,1.84-1.55,3.72-2.27,5.6-.2.52.06,1.09.58,1.29.12.04.24.07.35.07.4,0,.78-.25.93-.65.7-1.85,1.46-3.71,2.23-5.52.22-.51-.02-1.1-.52-1.31Z"/><path class="cls-4" d="m74.29,71.35c-1.81.85-3.63,1.76-5.41,2.69-.49.26-.68.86-.42,1.35.18.34.53.54.89.54.16,0,.32-.04.46-.11,1.75-.92,3.55-1.81,5.33-2.65.5-.24.71-.83.48-1.33-.24-.5-.83-.71-1.33-.48Z"/><path class="cls-4" d="m112.65,59.65c-1.98.3-3.98.65-5.94,1.04-.54.11-.89.63-.79,1.17.09.48.51.81.98.81.06,0,.13,0,.19-.02,1.94-.38,3.91-.73,5.86-1.02.55-.08.92-.59.84-1.14-.08-.55-.59-.92-1.14-.84Z"/><path class="cls-4" d="m87.21,326.6c-1.86-.67-3.73-1.38-5.56-2.13-.51-.21-1.1.04-1.3.55-.21.51.04,1.09.55,1.3,1.86.76,3.76,1.48,5.64,2.16.11.04.23.06.34.06.41,0,.8-.25.94-.66.19-.52-.08-1.09-.6-1.28Z"/><path class="cls-4" d="m92.86,328.48c-.63-.2-1.26-.4-1.89-.6-.53-.17-1.09.12-1.26.64-.17.52.12,1.09.64,1.26.64.21,1.28.41,1.92.61.1.03.2.05.3.05.43,0,.82-.28.95-.7.16-.53-.13-1.09-.66-1.25Z"/><path class="cls-4" d="m106.31,331.93c-1.93-.39-3.88-.83-5.81-1.31-.54-.13-1.08.19-1.21.73-.13.54.19,1.08.73,1.21,1.95.48,3.94.93,5.89,1.33.07.01.13.02.2.02.47,0,.88-.33.98-.8.11-.54-.24-1.07-.78-1.18Z"/><path class="cls-4" d="m125.98,334.48c-1.97-.11-3.97-.27-5.94-.46-.55-.06-1.04.35-1.09.9-.06.55.35,1.04.9,1.09,1.99.2,4.02.36,6.02.47.02,0,.04,0,.06,0,.53,0,.97-.41,1-.94.03-.55-.39-1.02-.94-1.05Z"/><path class="cls-4" d="m145.8,334.16c-1.97.18-3.96.31-5.93.4-.55.03-.98.49-.95,1.04.02.54.47.95,1,.95.02,0,.03,0,.05,0,2-.09,4.02-.23,6.02-.41.55-.05.96-.54.91-1.08-.05-.55-.54-.96-1.08-.91Z"/><path class="cls-4" d="m152.76,59.41c-1.98-.28-4-.52-6-.71-.56-.05-1.04.35-1.09.9-.05.55.35,1.04.9,1.09,1.97.19,3.96.42,5.91.7.05,0,.09,0,.14,0,.49,0,.92-.36.99-.86.08-.55-.3-1.05-.85-1.13Z"/><path class="cls-4" d="m151.7,333.5c-.65.09-1.31.17-1.96.25-.55.07-.94.56-.88,1.11.06.51.49.88.99.88.04,0,.08,0,.12,0,.67-.08,1.33-.16,1.99-.25.55-.07.93-.58.86-1.12-.07-.55-.58-.93-1.12-.86Z"/><path class="cls-4" d="m132.69,58.07h0c-2.01.01-4.04.07-6.04.17-.55.03-.98.5-.95,1.05.03.54.47.95,1,.95.02,0,.03,0,.05,0,1.97-.1,3.97-.15,5.95-.17.55,0,1-.45.99-1.01,0-.55-.45-.99-1-.99Z"/><path class="cls-4" d="m131.94,334.69c-.66,0-1.32-.02-1.98-.04-.6-.04-1.01.42-1.03.97-.02.55.42,1.01.97,1.03.67.02,1.34.03,2.01.04h.01c.55,0,.99-.44,1-.99,0-.55-.44-1.01-.99-1.01Z"/><path class="cls-4" d="m93.05,64.11c-1.92.58-3.84,1.22-5.73,1.89-.52.18-.79.75-.61,1.28.15.41.53.67.94.67.11,0,.22-.02.33-.06,1.86-.66,3.76-1.28,5.65-1.86.53-.16.83-.72.66-1.25-.16-.53-.72-.83-1.25-.66Z"/><path class="cls-4" d="m20.59,275.36c-.31-.46-.94-.57-1.39-.26-.46.31-.57.94-.26,1.39,1.14,1.65,2.33,3.3,3.54,4.9.2.26.5.4.8.4.21,0,.42-.07.6-.2.44-.33.53-.96.2-1.4-1.19-1.58-2.36-3.2-3.49-4.83Z"/><path class="cls-4" d="m16.35,123.97c-.47-.29-1.09-.14-1.38.33-1.06,1.72-2.09,3.47-3.06,5.23-.27.48-.1,1.09.39,1.36.15.09.32.13.49.13.35,0,.69-.19.87-.51.96-1.73,1.98-3.46,3.02-5.15.29-.47.14-1.09-.33-1.38Z"/><path class="cls-4" d="m26.52,283.32c-.35-.43-.98-.5-1.41-.15-.43.35-.5.98-.15,1.41.42.52.84,1.05,1.27,1.56.2.24.48.36.77.36.22,0,.45-.08.64-.23.43-.35.49-.98.13-1.41-.42-.51-.84-1.02-1.25-1.54Z"/><path class="cls-4" d="m15.26,266.99c-.28-.48-.89-.63-1.37-.35-.48.28-.63.89-.35,1.37.34.58.69,1.15,1.03,1.73.19.31.52.48.86.48.18,0,.36-.05.52-.15.47-.29.62-.9.34-1.37-.34-.57-.68-1.13-1.02-1.7Z"/><path class="cls-4" d="m26.77,107.94c-1.29,1.54-2.56,3.12-3.79,4.72-.34.44-.25,1.07.19,1.4.18.14.4.21.61.21.3,0,.6-.13.79-.39,1.21-1.57,2.46-3.14,3.73-4.65.35-.42.3-1.05-.12-1.41-.42-.36-1.06-.3-1.41.12Z"/><path class="cls-4" d="m13.29,263.54c-.95-1.73-1.88-3.5-2.76-5.28-.25-.5-.84-.7-1.34-.45-.5.25-.7.85-.45,1.34.89,1.8,1.83,3.6,2.8,5.35.18.33.52.52.88.52.16,0,.33-.04.48-.12.48-.27.66-.87.39-1.36Z"/><path class="cls-4" d="m69.06,318.59c-1.75-.93-3.5-1.91-5.2-2.91-.48-.28-1.09-.12-1.37.35-.28.48-.12,1.09.35,1.37,1.72,1.02,3.5,2.01,5.27,2.95.15.08.31.12.47.12.36,0,.7-.19.88-.53.26-.49.07-1.09-.41-1.35Z"/><path class="cls-4" d="m55.49,310.33c-.46-.31-1.08-.2-1.39.25s-.2,1.08.25,1.39c.55.38,1.11.76,1.67,1.14.17.11.36.17.56.17.32,0,.64-.16.83-.44.31-.46.18-1.08-.27-1.39-.55-.37-1.1-.74-1.65-1.12Z"/><path class="cls-4" d="m33,290.84c-.38-.4-1.01-.43-1.41-.05s-.43,1.01-.05,1.41c1.37,1.47,2.78,2.93,4.21,4.34.19.19.45.29.7.29s.52-.1.71-.3c.39-.39.38-1.03,0-1.41-1.4-1.39-2.8-2.83-4.15-4.28Z"/><path class="cls-4" d="m47.52,304.38c-.43-.35-1.06-.28-1.41.15-.35.43-.28,1.06.15,1.41,1.57,1.27,3.19,2.51,4.8,3.69.18.13.39.19.59.19.31,0,.61-.14.81-.41.33-.44.23-1.07-.21-1.4-1.59-1.17-3.18-2.39-4.73-3.64Z"/><path class="cls-4" d="m165.35,330.96c-1.92.46-3.88.88-5.81,1.25-.54.1-.9.63-.79,1.17.09.48.51.81.98.81.06,0,.13,0,.19-.02,1.97-.38,3.95-.81,5.9-1.27.54-.13.87-.67.74-1.2-.13-.54-.67-.86-1.2-.74Z"/><path class="cls-4" d="m40.02,297.88c-.4-.38-1.04-.35-1.41.05-.38.4-.35,1.04.05,1.41.49.46.99.91,1.49,1.37.19.17.43.26.67.26.27,0,.54-.11.74-.33.37-.41.34-1.04-.07-1.41-.49-.45-.98-.9-1.46-1.35Z"/><path class="cls-4" d="m40.8,93.49c-1.5,1.34-2.99,2.72-4.43,4.12-.4.38-.4,1.02-.02,1.41.2.2.46.3.72.3s.5-.09.7-.28c1.42-1.38,2.88-2.74,4.36-4.06.41-.37.45-1,.08-1.41-.37-.41-1-.45-1.41-.08Z"/><path class="cls-4" d="m5.01,245.52c-.69-1.85-1.36-3.73-1.97-5.62-.17-.52-.74-.81-1.26-.64-.52.17-.81.74-.64,1.26.62,1.91,1.3,3.83,2,5.7.15.4.53.65.94.65.12,0,.24-.02.35-.06.52-.19.78-.77.58-1.29Z"/><path class="cls-4" d="m260.16,144.22c.77,1.82,1.5,3.68,2.19,5.53.15.4.53.65.94.65.12,0,.23-.02.35-.06.52-.19.78-.77.59-1.29-.7-1.88-1.44-3.77-2.22-5.61-.21-.51-.8-.75-1.31-.53s-.75.8-.53,1.31Z"/><path class="cls-4" d="m265.46,159.17c.13.44.53.72.96.72.09,0,.19-.01.28-.04.53-.15.83-.71.68-1.24-.19-.64-.38-1.29-.58-1.93-.16-.53-.72-.82-1.25-.66-.53.16-.82.72-.66,1.25.19.63.38,1.26.57,1.9Z"/><path class="cls-4" d="m184.24,324.98c-1.84.73-3.71,1.43-5.58,2.08-.52.18-.8.75-.62,1.27.14.41.53.67.94.67.11,0,.22-.02.33-.06,1.89-.66,3.79-1.37,5.66-2.11.51-.2.76-.79.56-1.3-.2-.51-.79-.77-1.3-.56Z"/><path class="cls-4" d="m258.57,140.58c.17.37.53.59.91.59.14,0,.28-.03.41-.09.5-.23.73-.82.5-1.32-.28-.61-.56-1.22-.85-1.83-.24-.5-.83-.71-1.33-.48-.5.24-.71.83-.48,1.33.28.6.56,1.2.83,1.8Z"/><path class="cls-4" d="m166.13,64.01c1,.24,1.99.5,2.99.77.64.17,1.28.35,1.91.53.09.03.18.04.27.04.44,0,.84-.29.96-.73.15-.53-.16-1.08-.69-1.23-.65-.18-1.29-.36-1.94-.53-1.01-.27-2.02-.53-3.03-.78-.54-.13-1.08.2-1.21.73-.13.54.2,1.08.73,1.21Z"/><path class="cls-4" d="m180.81,68.41c.41,0,.79-.25.94-.66.19-.52-.08-1.09-.6-1.28-1.89-.68-3.81-1.33-5.72-1.93-.52-.16-1.09.13-1.25.65-.17.53.13,1.09.65,1.25,1.88.59,3.78,1.23,5.64,1.91.11.04.23.06.34.06Z"/><path class="cls-4" d="m199.06,76.55c.36,0,.7-.19.88-.53.26-.49.08-1.09-.41-1.35-1.77-.95-3.58-1.87-5.39-2.74-.5-.24-1.09-.03-1.33.47s-.03,1.1.47,1.33c1.78.86,3.57,1.77,5.31,2.7.15.08.31.12.47.12Z"/><path class="cls-4" d="m32.85,103.6c.27,0,.53-.11.73-.31.45-.48.91-.96,1.37-1.44.38-.4.38-1.03-.02-1.41-.4-.38-1.03-.38-1.41.02-.47.48-.93.97-1.39,1.46-.38.4-.36,1.03.04,1.41.19.18.44.27.69.27Z"/><path class="cls-4" d="m270.09,182.47c.21,1.96.39,3.95.52,5.92.03.53.47.93,1,.93.02,0,.04,0,.07,0,.55-.04.97-.51.93-1.06-.13-2-.31-4.02-.53-6.01-.06-.55-.56-.95-1.1-.89-.55.06-.95.55-.89,1.1Z"/><path class="cls-4" d="m266.51,162.99c.5,1.91.96,3.86,1.37,5.79.1.47.52.79.98.79.07,0,.14,0,.21-.02.54-.12.88-.65.77-1.19-.42-1.96-.89-3.94-1.39-5.87-.14-.53-.68-.86-1.22-.72-.53.14-.86.68-.72,1.22Z"/><path class="cls-4" d="m189.72,322.66c-.6.27-1.21.54-1.82.8-.51.22-.74.81-.52,1.31.16.38.53.6.92.6.13,0,.27-.03.4-.08.62-.27,1.23-.54,1.84-.81.5-.23.73-.82.5-1.32-.23-.5-.82-.73-1.32-.5Z"/><path class="cls-4" d="m269.31,176.58c.1.65.2,1.3.29,1.96.07.5.5.86.99.86.05,0,.09,0,.14,0,.55-.08.93-.58.85-1.13-.09-.66-.19-1.33-.29-1.99-.08-.55-.6-.92-1.14-.84-.55.08-.92.59-.84,1.14Z"/><path class="cls-4" d="m160.31,62.72c.65.13,1.3.26,1.94.4.07.02.14.02.21.02.46,0,.88-.32.98-.79.12-.54-.23-1.07-.77-1.19-.66-.14-1.31-.28-1.97-.41-.54-.11-1.07.24-1.18.78-.11.54.24,1.07.78,1.18Z"/><path class="cls-4" d="m187.86,71.26c.61.26,1.22.53,1.82.8.13.06.27.09.41.09.38,0,.75-.22.91-.59.22-.5,0-1.1-.51-1.32-.61-.27-1.23-.54-1.84-.81-.51-.22-1.1.02-1.31.52-.22.51.02,1.1.52,1.31Z"/><path class="cls-4" d="m.79,232.29c-.17-.64-.33-1.28-.49-1.92-.05-.19-.16-.35-.3-.48v3.63s.05,0,.08-.01c.53-.14.85-.69.71-1.22Z"/><path class="cls-4" d="m101.05,63.95c.08,0,.16,0,.24-.03.64-.16,1.28-.31,1.93-.45.54-.12.88-.66.75-1.2-.12-.54-.66-.88-1.2-.75-.65.15-1.31.3-1.96.46-.54.13-.87.67-.74,1.21.11.46.52.76.97.76Z"/><path class="cls-4" d="m82.04,70.06c.12,0,.25-.02.37-.07.61-.25,1.23-.49,1.85-.73.52-.2.77-.78.57-1.29-.2-.52-.78-.77-1.29-.57-.63.24-1.25.49-1.87.74-.51.21-.76.79-.55,1.3.16.39.53.63.93.63Z"/><path class="cls-4" d="m64.1,78.83c.17,0,.34-.04.5-.14.57-.33,1.15-.66,1.72-.99.48-.27.65-.88.38-1.36-.27-.48-.88-.65-1.36-.38-.58.33-1.17.66-1.75,1-.48.28-.64.89-.36,1.37.19.32.52.5.87.5Z"/><path class="cls-4" d="m120.73,60.66s.06,0,.09,0c.66-.06,1.31-.12,1.97-.17.55-.04.96-.52.92-1.08-.04-.55-.52-.96-1.08-.92-.67.05-1.33.11-2,.17-.55.05-.95.54-.9,1.09.05.52.48.91.99.91Z"/><path class="cls-4" d="m47.59,90.08c.22,0,.44-.07.62-.22.52-.41,1.04-.82,1.57-1.22.44-.34.52-.96.18-1.4-.34-.44-.96-.52-1.4-.18-.53.41-1.06.82-1.59,1.24-.43.34-.51.97-.16,1.4.2.25.49.38.78.38Z"/><path class="cls-4" d="m171.1,329.46c-.64.18-1.27.36-1.91.53-.53.14-.85.69-.71,1.23.12.45.52.74.96.74.09,0,.17-.01.26-.04.65-.17,1.29-.35,1.94-.54.53-.15.84-.7.69-1.24-.15-.53-.7-.84-1.24-.69Z"/><path class="cls-4" d="m140.63,60.25c.66.03,1.32.07,1.98.12.02,0,.05,0,.07,0,.52,0,.96-.4,1-.93.04-.55-.38-1.03-.93-1.06-.67-.05-1.34-.09-2.01-.12-.56-.04-1.02.39-1.05.95s.4,1.02.95,1.05Z"/><path class="cls-4" d="m1.02,161.68c.14-.53-.18-1.08-.71-1.22-.1-.03-.21-.02-.31-.02v5.31c.31-1.31.63-2.62.98-3.9l.05-.17Z"/><rect class="cls-3" x="358.26" y="631.37" width="33.52" height=".5"/><rect class="cls-3" y="631.37" width="34.55" height=".5"/><rect class="cls-3" x="324.24" y="631.37" width="33.52" height=".5"/><rect class="cls-3" x="392.28" y="631.37" width="81.72" height=".5"/><rect class="cls-3" x="142.79" y="631.37" width="39.19" height=".5"/><rect class="cls-3" x="182.48" y="631.37" width="33.52" height=".5"/><rect class="cls-3" x="35.05" y="631.37" width="33.52" height=".5"/><rect class="cls-3" x="216.5" y="631.37" width="33.52" height=".5"/><rect class="cls-3" x="250.52" y="631.37" width="33.52" height=".5"/><rect class="cls-3" x="284.54" y="631.37" width="39.19" height=".5"/><rect class="cls-3" x="69.07" y="631.37" width="33.52" height=".5"/><rect class="cls-3" x="103.09" y="631.37" width="39.19" height=".5"/><rect class="cls-3" x="34.55" y="688.58" width=".5" height="27.86"/><rect class="cls-3" x="34.55" y="716.94" width=".5" height="42.54"/><rect class="cls-3" x="34.55" y="657.39" width=".5" height="30.69"/><polygon class="cls-3" points="34.55 631.87 34.55 656.89 35.05 656.89 35.05 631.87 35.05 631.37 35.05 595 34.55 595 34.55 631.37 34.55 631.87"/><rect class="cls-3" x="68.57" y="688.58" width=".5" height="27.86"/><rect class="cls-3" x="68.57" y="657.39" width=".5" height="30.69"/><rect class="cls-3" x="68.57" y="716.94" width=".5" height="42.54"/><polygon class="cls-3" points="68.57 631.87 68.57 656.89 69.07 656.89 69.07 631.87 69.07 631.37 69.07 595 68.57 595 68.57 631.37 68.57 631.87"/><rect class="cls-3" x="102.59" y="688.58" width=".5" height="27.86"/><rect class="cls-3" x="102.59" y="657.39" width=".5" height="30.69"/><rect class="cls-3" x="102.59" y="716.94" width=".5" height="42.54"/><polygon class="cls-3" points="102.59 631.87 102.59 656.89 103.09 656.89 103.09 631.87 103.09 631.37 103.09 595 102.59 595 102.59 631.37 102.59 631.87"/><rect class="cls-3" x="142.29" y="688.58" width=".5" height="27.86"/><rect class="cls-3" x="142.29" y="657.39" width=".5" height="30.69"/><rect class="cls-3" x="142.29" y="716.94" width=".5" height="42.54"/><polygon class="cls-3" points="142.29 631.87 142.29 656.89 142.79 656.89 142.79 631.87 142.79 631.37 142.79 595 142.29 595 142.29 631.37 142.29 631.87"/><rect class="cls-3" x="181.98" y="688.58" width=".5" height="27.86"/><rect class="cls-3" x="181.98" y="657.39" width=".5" height="30.69"/><rect class="cls-3" x="181.98" y="716.94" width=".5" height="42.54"/><polygon class="cls-3" points="181.98 631.87 181.98 656.89 182.48 656.89 182.48 631.87 182.48 631.37 182.48 595 181.98 595 181.98 631.37 181.98 631.87"/><rect class="cls-3" x="216" y="716.94" width=".5" height="42.54"/><rect class="cls-3" x="216" y="688.58" width=".5" height="27.86"/><rect class="cls-3" x="216" y="657.39" width=".5" height="30.69"/><polygon class="cls-3" points="216 631.87 216 656.89 216.5 656.89 216.5 631.87 216.5 631.37 216.5 595 216 595 216 631.37 216 631.87"/><rect class="cls-3" x="250.02" y="716.94" width=".5" height="42.54"/><rect class="cls-3" x="250.02" y="657.39" width=".5" height="30.69"/><rect class="cls-3" x="250.02" y="688.58" width=".5" height="27.86"/><polygon class="cls-3" points="250.02 631.87 250.02 656.89 250.52 656.89 250.52 631.87 250.52 631.37 250.52 595 250.02 595 250.02 631.37 250.02 631.87"/><rect class="cls-3" x="284.04" y="688.58" width=".5" height="27.86"/><rect class="cls-3" x="284.04" y="716.94" width=".5" height="42.54"/><rect class="cls-3" x="284.04" y="657.39" width=".5" height="30.69"/><polygon class="cls-3" points="284.04 631.87 284.04 656.89 284.54 656.89 284.54 631.87 284.54 631.37 284.54 595 284.04 595 284.04 631.37 284.04 631.87"/><rect class="cls-3" x="323.74" y="716.94" width=".5" height="42.54"/><rect class="cls-3" x="323.74" y="657.39" width=".5" height="30.69"/><rect class="cls-3" x="323.74" y="688.58" width=".5" height="27.86"/><polygon class="cls-3" points="323.74 631.87 323.74 656.89 324.24 656.89 324.24 631.87 324.24 631.37 324.24 595 323.74 595 323.74 631.37 323.74 631.87"/><rect class="cls-3" x="357.76" y="716.94" width=".5" height="42.54"/><rect class="cls-3" x="357.76" y="657.39" width=".5" height="30.69"/><rect class="cls-3" x="357.76" y="688.58" width=".5" height="27.86"/><polygon class="cls-3" points="357.76 631.87 357.76 656.89 358.26 656.89 358.26 631.87 358.26 631.37 358.26 595 357.76 595 357.76 631.37 357.76 631.87"/><rect class="cls-3" x="391.78" y="716.94" width=".5" height="42.54"/><rect class="cls-3" x="391.78" y="688.58" width=".5" height="27.86"/><rect class="cls-3" x="391.78" y="657.39" width=".5" height="30.69"/><polygon class="cls-3" points="391.78 631.87 391.78 656.89 392.28 656.89 392.28 631.87 392.28 631.37 392.28 595 391.78 595 391.78 631.37 391.78 631.87"/><polygon class="cls-3" points="35.05 657.39 68.57 657.39 69.07 657.39 102.59 657.39 103.09 657.39 142.29 657.39 142.79 657.39 181.98 657.39 182.48 657.39 216 657.39 216.5 657.39 250.02 657.39 250.52 657.39 284.04 657.39 284.54 657.39 323.74 657.39 324.24 657.39 357.76 657.39 358.26 657.39 391.78 657.39 392.28 657.39 474 657.39 474 656.89 392.28 656.89 391.78 656.89 358.26 656.89 357.76 656.89 324.24 656.89 323.74 656.89 284.54 656.89 284.04 656.89 250.52 656.89 250.02 656.89 216.5 656.89 216 656.89 182.48 656.89 181.98 656.89 142.79 656.89 142.29 656.89 103.09 656.89 102.59 656.89 69.07 656.89 68.57 656.89 35.05 656.89 34.55 656.89 0 656.89 0 657.39 34.55 657.39 35.05 657.39"/><polygon class="cls-3" points="35.05 688.58 68.57 688.58 69.07 688.58 102.59 688.58 103.09 688.58 142.29 688.58 142.79 688.58 181.98 688.58 182.48 688.58 216 688.58 216.5 688.58 250.02 688.58 250.52 688.58 284.04 688.58 284.54 688.58 323.74 688.58 324.24 688.58 357.76 688.58 358.26 688.58 391.78 688.58 392.28 688.58 474 688.58 474 688.08 392.28 688.08 391.78 688.08 358.26 688.08 357.76 688.08 324.24 688.08 323.74 688.08 284.54 688.08 284.04 688.08 250.52 688.08 250.02 688.08 216.5 688.08 216 688.08 182.48 688.08 181.98 688.08 142.79 688.08 142.29 688.08 103.09 688.08 102.59 688.08 69.07 688.08 68.57 688.08 35.05 688.08 34.55 688.08 0 688.08 0 688.58 34.55 688.58 35.05 688.58"/><polygon class="cls-3" points="35.05 716.94 68.57 716.94 69.07 716.94 102.59 716.94 103.09 716.94 142.29 716.94 142.79 716.94 181.98 716.94 182.48 716.94 216 716.94 216.5 716.94 250.02 716.94 250.52 716.94 284.04 716.94 284.54 716.94 323.74 716.94 324.24 716.94 357.76 716.94 358.26 716.94 391.78 716.94 392.28 716.94 474 716.94 474 716.44 392.28 716.44 391.78 716.44 358.26 716.44 357.76 716.44 324.24 716.44 323.74 716.44 284.54 716.44 284.04 716.44 250.52 716.44 250.02 716.44 216.5 716.44 216 716.44 182.48 716.44 181.98 716.44 142.79 716.44 142.29 716.44 103.09 716.44 102.59 716.44 69.07 716.44 68.57 716.44 35.05 716.44 34.55 716.44 0 716.44 0 716.94 34.55 716.94 35.05 716.94"/><path class="cls-4" d="m695.47,499.73h0c-.95,5.01-8.09,3.9-11.69,4.03-2.93.1-5.86.61-8.66,1.48-5.38,1.67-10.55,4.87-13.56,9.75-3.18,5.15-2.72,10.81-1.34,16.45,1.45,5.92,4.48,16.02-3.74,18.37-8.54,2.45-17.73-3.48-26.07,1.21-12.37,6.97-5.2,23.15-6.42,34.01-.49,4.35-2.53,8.53-7.16,9.49-2.77.58-5.73-.08-8.48-.46-5.04-.71-10.05-1.14-14.65,1.48-11.36,6.49-9.96,19.64-9.29,30.67.43,7.04-1.39,13.27-9.29,14.1-4.9.51-9.87-.47-14.76.27-12.16,1.84-14.54,13.26-13.59,23.86.63,6.99,3.26,19.4-4.87,23.19-5.88,2.74-12.88-1.95-19.15-.1-5.76,1.7-9.64,7.43-9.84,13.32-.23,6.66,3.81,12.41,9.16,16,2.66,1.79,5.8-2.12,3.12-3.93-6.24-4.19-11.29-14.52-2.91-19.68,5.29-3.26,12.12.79,17.92.06,12.19-1.53,13.13-16.09,11.98-25.63-.79-6.6-2.37-16.72,4.55-20.73,4.25-2.46,9.77-1.57,14.46-1.53,10.18.1,17.98-4.52,18.28-15.58.16-5.96-1.59-12.01-.63-17.94,1.14-7.06,5.82-13.51,13.49-13.43,5.23.05,10.38,1.98,15.63.9,4.9-1,8.45-4.57,10.04-9.25,1.95-5.74.99-11.84.29-17.7-.82-6.93-.83-16.6,7.81-18.12,8.11-1.43,17.08,3.52,24.75-.92,14.36-8.3-2.11-25.79,5.38-36.44,4.78-6.8,13.6-8.17,21.28-8.22,5.87-.04,11.7-1.86,12.92-8.29.6-3.17-4.36-3.88-4.96-.71Z"/></g></g></svg>