<svg width="516" height="165" viewBox="0 0 516 165" fill="none" xmlns="http://www.w3.org/2000/svg">
<g style="mix-blend-mode:overlay" opacity="0.4">
<line y1="36.617" x2="516" y2="36.617" stroke="#FAFAFA" stroke-width="0.5"/>
<line x1="37.1072" y1="1.02239e-08" x2="37.1072" y2="164.483" stroke="#FAFAFA" stroke-width="0.5"/>
<line x1="76.7997" y1="1.02239e-08" x2="76.7997" y2="164.483" stroke="#FAFAFA" stroke-width="0.5"/>
<line x1="110.821" y1="1.02239e-08" x2="110.821" y2="164.483" stroke="#FAFAFA" stroke-width="0.5"/>
<line x1="144.844" y1="1.02239e-08" x2="144.843" y2="164.483" stroke="#FAFAFA" stroke-width="0.5"/>
<line x1="184.536" y1="1.02239e-08" x2="184.536" y2="164.483" stroke="#FAFAFA" stroke-width="0.5"/>
<line x1="224.228" y1="1.02239e-08" x2="224.228" y2="164.483" stroke="#FAFAFA" stroke-width="0.5"/>
<line x1="258.25" y1="1.02239e-08" x2="258.25" y2="164.483" stroke="#FAFAFA" stroke-width="0.5"/>
<line x1="292.272" y1="1.02239e-08" x2="292.272" y2="164.483" stroke="#FAFAFA" stroke-width="0.5"/>
<line x1="326.294" y1="1.02239e-08" x2="326.294" y2="164.483" stroke="#FAFAFA" stroke-width="0.5"/>
<line x1="365.986" y1="1.02239e-08" x2="365.986" y2="164.483" stroke="#FAFAFA" stroke-width="0.5"/>
<line x1="400.008" y1="1.02239e-08" x2="400.008" y2="164.483" stroke="#FAFAFA" stroke-width="0.5"/>
<line x1="434.03" y1="1.02239e-08" x2="434.03" y2="164.483" stroke="#FAFAFA" stroke-width="0.5"/>
<line y1="62.1421" x2="516" y2="62.1421" stroke="#FAFAFA" stroke-width="0.5"/>
<line y1="93.3354" x2="516" y2="93.3354" stroke="#FAFAFA" stroke-width="0.5"/>
<line y1="121.694" x2="516" y2="121.694" stroke="#FAFAFA" stroke-width="0.5"/>
</g>
</svg>
