<svg width="189" height="221" viewBox="0 0 189 221" fill="none" xmlns="http://www.w3.org/2000/svg">
<g style="mix-blend-mode:overlay" opacity="0.2">
<path d="M183.473 2.73351C182.527 7.74125 175.384 6.6362 171.784 6.76203C168.85 6.86513 165.928 7.37016 163.122 8.24219C157.741 9.91434 152.569 13.1138 149.564 17.9884C146.389 23.1397 146.845 28.7986 148.223 34.4416C149.668 40.3621 152.699 50.4592 144.479 52.8143C135.94 55.2602 126.744 49.3344 118.407 54.0283C106.034 60.9946 113.203 77.1738 111.986 88.0416C111.499 92.3879 109.459 96.5693 104.827 97.5335C102.059 98.1091 99.096 97.4567 96.3478 97.0691C91.3088 96.3592 86.2953 95.9304 81.7012 98.5532C70.3436 105.038 71.7363 118.197 72.4137 129.223C72.846 136.262 71.0259 142.49 63.1281 143.322C58.2249 143.837 53.2607 142.856 48.3684 143.596C36.2031 145.434 33.8243 156.851 34.7814 167.455C35.4124 174.446 38.0362 186.857 29.9067 190.646C24.0235 193.388 17.0297 188.694 10.7602 190.542C4.99921 192.24 1.12534 197.975 0.923937 203.862C0.697266 210.523 4.73654 216.274 10.089 219.866C12.7504 221.652 15.8922 217.741 13.2077 215.94C6.9693 211.753 1.91787 201.425 10.2956 196.26C15.5879 192.997 22.4123 197.048 28.2163 196.322C40.4046 194.796 41.3424 180.237 40.195 170.691C39.4008 164.087 37.8277 153.966 44.7491 149.963C48.9985 147.505 54.5238 148.39 59.2061 148.437C69.3875 148.539 77.1873 143.913 77.4879 132.859C77.6499 126.896 75.8962 120.851 76.8549 114.92C77.9966 107.857 82.6714 101.409 90.3397 101.485C95.5745 101.537 100.724 103.461 105.969 102.386C110.873 101.382 114.421 97.8131 116.007 93.1393C117.954 87.3939 116.993 81.2939 116.302 75.4343C115.485 68.5094 115.473 58.8394 124.111 57.315C132.218 55.8844 141.193 60.8309 148.859 56.3994C163.215 48.0995 146.752 30.6076 154.234 19.9589C159.012 13.157 167.839 11.7893 175.517 11.7372C181.39 11.6972 187.221 9.87566 188.436 3.44598C189.035 0.274304 184.071 -0.436692 183.472 2.73425L183.473 2.73351Z" fill="#D5C3DC"/>
</g>
</svg>
