<?xml version="1.0" encoding="utf-8"?>
<!-- Generator: Adobe Illustrator 27.4.1, SVG Export Plug-In . SVG Version: 6.00 Build 0)  -->
<svg version="1.1" id="Layer_1" xmlns="http://www.w3.org/2000/svg" xmlns:xlink="http://www.w3.org/1999/xlink" x="0px" y="0px"
	 viewBox="0 0 1448 483" style="enable-background:new 0 0 1448 483;" xml:space="preserve">
<style type="text/css">
	.st0{opacity:0.1;}
	.st1{fill:#C4C4C4;fill-opacity:0.7;}
	.st2{fill:#C4C4C4;stroke:#FAFAFA;stroke-opacity:0.2;}
	.st3{fill:#C4C4C4;fill-opacity:0.7;stroke:#FAFAFA;stroke-opacity:0.2;}
	.st4{filter:url(#Adobe_OpacityMaskFilter);}
	.st5{fill:url(#SVGID_00000005246074867235063350000002306566901004025015_);}
	.st6{opacity:0.7;mask:url(#SVGID_1_);}
	.st7{fill:#808080;}
</style>
<g class="st0">
	<path class="st1" d="M279.4,457.5L279.4,457.5l-8.3-19.7c-1.9-4.5,0.2-9.6,4.7-11.5l41.5-17.1l0,0c2.9-1.3,5.4-3.6,6.7-6.8
		l35.9-87.9c1.3-3.1,1.3-6.5,0-9.6l-17.5-41.5c-1.9-4.5,0.2-9.6,4.7-11.5l19.6-8.1c4.5-1.9,9.7,0.3,11.6,4.8l24.4,57.8
		c0.9,2.2,0.9,4.6,0,6.8l-49.3,120.5c-0.9,2.2-2.6,3.9-4.7,4.8L291,462.3C286.5,464.2,281.3,462.1,279.4,457.5z"/>
	<path class="st2" d="M347.1,251.9c-4.5,1.9-6.6,7-4.7,11.5l17.5,41.5c1.3,3.1,1.3,6.5,0,9.6L324,402.4c-1.3,3.1-3.7,5.5-6.7,6.8
		l0,0l-41.5,17.1c-4.5,1.9-6.6,7-4.7,11.5l8.3,19.6l0,0c1.9,4.6,7,6.7,11.6,4.9l57.8-23.9c2.2-0.9,3.8-2.6,4.7-4.8l49.3-120.5
		c0.9-2.2,0.8-4.6,0-6.8l-24.4-57.8c-1.9-4.5-7.1-6.7-11.6-4.8L347.1,251.9z M347.1,251.9l-0.7-1.7"/>
	<path class="st1" d="M249.4,395.2c0.6,6.6-5.9,11.5-12.2,8.9l-22.4-9.2c-3.1-1.3-5.2-4.2-5.5-7.4l0,0L206,352c-0.2-2.7-1.9-5-4.4-6
		l-27.1-11.2c-3.7-1.5-7.8,0.2-9.3,3.9l-9,22c-1.8,4.5-7,6.6-11.6,4.8l-19.8-8.2c-4.5-1.9-6.7-7.1-4.9-11.6l53.8-131.7
		c1.8-4.5,7-6.6,11.6-4.8l87.9,36.3c2.3,0.9,4,2.6,4.9,4.8l14.5,34.4c0.9,2.2,0.9,4.6,0,6.8l-19,46.4c-0.9,2.2-2.6,3.9-4.7,4.8
		l-18.7,7.7c-2.8,1.2-4.6,4.1-4.3,7.2c0,0,0,0,0,0L249.4,395.2z M244.2,275.7l-38.9-16.1c-3.7-1.5-7.9,0.3-9.2,3.9l-10.6,26
		c-1.5,3.7,0.2,7.8,3.9,9.3l38.9,16.1c1.8,0.7,3.8,0.6,5.4,0l5.7-2.3c1.9-0.7,3.2-2.2,3.9-3.8l7.3-17.8c0.7-1.8,0.6-3.8-0.1-5.5
		l-2.5-5.8C247.4,277.8,245.9,276.4,244.2,275.7z"/>
	<path class="st2" d="M249.4,395.2l1.8-0.2 M249.4,395.2c0.6,6.6-5.9,11.5-12.2,8.9l-22.4-9.2c-3.1-1.3-5.2-4.2-5.5-7.4l0,0L206,352
		c-0.2-2.7-1.9-5-4.4-6l-27.1-11.2c-3.7-1.5-7.8,0.2-9.3,3.9l-9,22c-1.8,4.5-7,6.6-11.6,4.8l-19.8-8.2c-4.5-1.9-6.7-7.1-4.9-11.6
		l53.8-131.7c1.8-4.5,7-6.6,11.6-4.8l87.9,36.3c2.3,0.9,4,2.6,4.9,4.8l14.5,34.4c0.9,2.2,0.9,4.6,0,6.8l-19,46.4
		c-0.9,2.2-2.6,3.9-4.7,4.8l-18.7,7.7c-2.8,1.2-4.6,4.1-4.3,7.2 M249.4,395.2l-3.5-37.5 M245.9,357.7
		C245.9,357.7,245.9,357.7,245.9,357.7z M244.2,275.7l-38.9-16.1c-3.7-1.5-7.9,0.3-9.2,3.9l-10.6,26c-1.5,3.7,0.2,7.8,3.9,9.3
		l38.9,16.1c1.8,0.7,3.8,0.6,5.4,0l5.7-2.3c1.9-0.7,3.2-2.2,3.9-3.8l7.3-17.8c0.7-1.8,0.6-3.8-0.1-5.5l-2.5-5.8
		C247.4,277.8,245.9,276.4,244.2,275.7z"/>
	<path class="st3" d="M64.2,304.5L64.2,304.5l17.5,41.6c1.9,4.5-0.2,9.6-4.7,11.5l-19.6,8.1l0,0c-4.5,1.9-9.7-0.2-11.6-4.7
		l-24.4-57.8c-0.9-2.2-0.9-4.6,0-6.8l49.3-120.5c0.9-2.2,2.6-3.9,4.8-4.8l57.8-23.9c4.5-1.9,9.7,0.3,11.6,4.8l8.3,19.6
		c1.9,4.5-0.2,9.6-4.7,11.5l-41.5,17.1c-3.1,1.3-5.5,3.7-6.7,6.8L64.2,295C62.9,298.1,63.1,301.5,64.2,304.5z"/>
</g>
<defs>
	<filter id="Adobe_OpacityMaskFilter" filterUnits="userSpaceOnUse" x="1084.7" y="0" width="363.3" height="234.1">
		<feColorMatrix  type="matrix" values="1 0 0 0 0  0 1 0 0 0  0 0 1 0 0  0 0 0 1 0"/>
	</filter>
</defs>
<mask maskUnits="userSpaceOnUse" x="1084.7" y="0" width="363.3" height="234.1" id="SVGID_1_">
	<g class="st4">
		
			<linearGradient id="SVGID_00000011739847416340559780000014897369134371709098_" gradientUnits="userSpaceOnUse" x1="1264.4517" y1="-2.000888e-11" x2="1264.4517" y2="241.5">
			<stop  offset="0" style="stop-color:#FFFFFF"/>
			<stop  offset="0.7876" style="stop-color:#000000;stop-opacity:0"/>
		</linearGradient>
		<rect x="1073.1" style="fill:url(#SVGID_00000011739847416340559780000014897369134371709098_);" width="382.7" height="241.5"/>
	</g>
</mask>
<g class="st6">
	<ellipse class="st7" cx="1189.4" cy="232" rx="2" ry="2.1"/>
	<ellipse class="st7" cx="1172.3" cy="232" rx="2" ry="2.1"/>
	<ellipse class="st7" cx="1155.2" cy="232" rx="2" ry="2.1"/>
	<ellipse class="st7" cx="1138.1" cy="232" rx="2" ry="2.1"/>
	<ellipse class="st7" cx="1189.4" cy="211.1" rx="2" ry="2.1"/>
	<ellipse class="st7" cx="1172.3" cy="211.1" rx="2" ry="2.1"/>
	<ellipse class="st7" cx="1155.2" cy="211.1" rx="2" ry="2.1"/>
	<ellipse class="st7" cx="1138.1" cy="211.1" rx="2" ry="2.1"/>
	<ellipse class="st7" cx="1189.4" cy="190.2" rx="2" ry="2.1"/>
	<ellipse class="st7" cx="1172.3" cy="190.2" rx="2" ry="2.1"/>
	<ellipse class="st7" cx="1155.2" cy="190.2" rx="2" ry="2.1"/>
	<ellipse class="st7" cx="1138.1" cy="190.2" rx="2" ry="2.1"/>
	<ellipse class="st7" cx="1189.4" cy="169.3" rx="2" ry="2.1"/>
	<ellipse class="st7" cx="1172.3" cy="169.3" rx="2" ry="2.1"/>
	<ellipse class="st7" cx="1155.2" cy="169.3" rx="2" ry="2.1"/>
	<ellipse class="st7" cx="1138.1" cy="169.3" rx="2" ry="2.1"/>
	<ellipse class="st7" cx="1189.4" cy="148.4" rx="2" ry="2.1"/>
	<ellipse class="st7" cx="1172.3" cy="148.4" rx="2" ry="2.1"/>
	<ellipse class="st7" cx="1155.2" cy="148.4" rx="2" ry="2.1"/>
	<ellipse class="st7" cx="1138.1" cy="148.4" rx="2" ry="2.1"/>
	<ellipse class="st7" cx="1189.4" cy="127.5" rx="2" ry="2.1"/>
	<ellipse class="st7" cx="1172.3" cy="127.5" rx="2" ry="2.1"/>
	<ellipse class="st7" cx="1155.2" cy="127.5" rx="2" ry="2.1"/>
	<ellipse class="st7" cx="1138.1" cy="127.5" rx="2" ry="2.1"/>
	<ellipse class="st7" cx="1121" cy="232" rx="2" ry="2.1"/>
	<ellipse class="st7" cx="1103.8" cy="232" rx="2" ry="2.1"/>
	<ellipse class="st7" cx="1086.7" cy="232" rx="2" ry="2.1"/>
	<ellipse class="st7" cx="1121" cy="211.1" rx="2" ry="2.1"/>
	<ellipse class="st7" cx="1103.8" cy="211.1" rx="2" ry="2.1"/>
	<ellipse class="st7" cx="1086.7" cy="211.1" rx="2" ry="2.1"/>
	<ellipse class="st7" cx="1121" cy="190.2" rx="2" ry="2.1"/>
	<ellipse class="st7" cx="1103.8" cy="190.2" rx="2" ry="2.1"/>
	<ellipse class="st7" cx="1086.7" cy="190.2" rx="2" ry="2.1"/>
	<ellipse class="st7" cx="1121" cy="169.3" rx="2" ry="2.1"/>
	<ellipse class="st7" cx="1103.8" cy="169.3" rx="2" ry="2.1"/>
	<ellipse class="st7" cx="1086.7" cy="169.3" rx="2" ry="2.1"/>
	<ellipse class="st7" cx="1121" cy="148.4" rx="2" ry="2.1"/>
	<ellipse class="st7" cx="1103.8" cy="148.4" rx="2" ry="2.1"/>
	<ellipse class="st7" cx="1086.7" cy="148.4" rx="2" ry="2.1"/>
	<ellipse class="st7" cx="1121" cy="127.5" rx="2" ry="2.1"/>
	<ellipse class="st7" cx="1103.8" cy="127.5" rx="2" ry="2.1"/>
	<ellipse class="st7" cx="1086.7" cy="127.5" rx="2" ry="2.1"/>
	<ellipse class="st7" cx="1189.4" cy="106.6" rx="2" ry="2.1"/>
	<ellipse class="st7" cx="1172.3" cy="106.6" rx="2" ry="2.1"/>
	<ellipse class="st7" cx="1155.2" cy="106.6" rx="2" ry="2.1"/>
	<ellipse class="st7" cx="1138.1" cy="106.6" rx="2" ry="2.1"/>
	<ellipse class="st7" cx="1189.4" cy="85.7" rx="2" ry="2.1"/>
	<ellipse class="st7" cx="1172.3" cy="85.7" rx="2" ry="2.1"/>
	<ellipse class="st7" cx="1155.2" cy="85.7" rx="2" ry="2.1"/>
	<ellipse class="st7" cx="1138.1" cy="85.7" rx="2" ry="2.1"/>
	<ellipse class="st7" cx="1189.4" cy="64.8" rx="2" ry="2.1"/>
	<ellipse class="st7" cx="1172.3" cy="64.8" rx="2" ry="2.1"/>
	<ellipse class="st7" cx="1155.2" cy="64.8" rx="2" ry="2.1"/>
	<ellipse class="st7" cx="1138.1" cy="64.8" rx="2" ry="2.1"/>
	<ellipse class="st7" cx="1189.4" cy="43.9" rx="2" ry="2.1"/>
	<ellipse class="st7" cx="1172.3" cy="43.9" rx="2" ry="2.1"/>
	<ellipse class="st7" cx="1155.2" cy="43.9" rx="2" ry="2.1"/>
	<ellipse class="st7" cx="1138.1" cy="43.9" rx="2" ry="2.1"/>
	<ellipse class="st7" cx="1189.4" cy="23" rx="2" ry="2.1"/>
	<ellipse class="st7" cx="1172.3" cy="23" rx="2" ry="2.1"/>
	<ellipse class="st7" cx="1155.2" cy="23" rx="2" ry="2.1"/>
	<ellipse class="st7" cx="1138.1" cy="23" rx="2" ry="2.1"/>
	<ellipse class="st7" cx="1189.4" cy="2.1" rx="2" ry="2.1"/>
	<ellipse class="st7" cx="1172.3" cy="2.1" rx="2" ry="2.1"/>
	<ellipse class="st7" cx="1155.2" cy="2.1" rx="2" ry="2.1"/>
	<ellipse class="st7" cx="1138.1" cy="2.1" rx="2" ry="2.1"/>
	<ellipse class="st7" cx="1121" cy="106.6" rx="2" ry="2.1"/>
	<ellipse class="st7" cx="1103.8" cy="106.6" rx="2" ry="2.1"/>
	<ellipse class="st7" cx="1086.7" cy="106.6" rx="2" ry="2.1"/>
	<ellipse class="st7" cx="1121" cy="85.7" rx="2" ry="2.1"/>
	<ellipse class="st7" cx="1103.8" cy="85.7" rx="2" ry="2.1"/>
	<ellipse class="st7" cx="1086.7" cy="85.7" rx="2" ry="2.1"/>
	<ellipse class="st7" cx="1121" cy="64.8" rx="2" ry="2.1"/>
	<ellipse class="st7" cx="1103.8" cy="64.8" rx="2" ry="2.1"/>
	<ellipse class="st7" cx="1086.7" cy="64.8" rx="2" ry="2.1"/>
	<ellipse class="st7" cx="1121" cy="43.9" rx="2" ry="2.1"/>
	<ellipse class="st7" cx="1103.8" cy="43.9" rx="2" ry="2.1"/>
	<ellipse class="st7" cx="1086.7" cy="43.9" rx="2" ry="2.1"/>
	<ellipse class="st7" cx="1121" cy="23" rx="2" ry="2.1"/>
	<ellipse class="st7" cx="1103.8" cy="23" rx="2" ry="2.1"/>
	<ellipse class="st7" cx="1086.7" cy="23" rx="2" ry="2.1"/>
	<ellipse class="st7" cx="1121" cy="2.1" rx="2" ry="2.1"/>
	<ellipse class="st7" cx="1103.8" cy="2.1" rx="2" ry="2.1"/>
	<ellipse class="st7" cx="1086.7" cy="2.1" rx="2" ry="2.1"/>
	<ellipse class="st7" cx="1446" cy="232" rx="2" ry="2.1"/>
	<ellipse class="st7" cx="1428.9" cy="232" rx="2" ry="2.1"/>
	<ellipse class="st7" cx="1411.7" cy="232" rx="2" ry="2.1"/>
	<ellipse class="st7" cx="1394.6" cy="232" rx="2" ry="2.1"/>
	<ellipse class="st7" cx="1446" cy="211.1" rx="2" ry="2.1"/>
	<ellipse class="st7" cx="1428.9" cy="211.1" rx="2" ry="2.1"/>
	<ellipse class="st7" cx="1411.7" cy="211.1" rx="2" ry="2.1"/>
	<ellipse class="st7" cx="1394.6" cy="211.1" rx="2" ry="2.1"/>
	<ellipse class="st7" cx="1446" cy="190.2" rx="2" ry="2.1"/>
	<ellipse class="st7" cx="1428.9" cy="190.2" rx="2" ry="2.1"/>
	<ellipse class="st7" cx="1411.7" cy="190.2" rx="2" ry="2.1"/>
	<ellipse class="st7" cx="1394.6" cy="190.2" rx="2" ry="2.1"/>
	<ellipse class="st7" cx="1446" cy="169.3" rx="2" ry="2.1"/>
	<ellipse class="st7" cx="1428.9" cy="169.3" rx="2" ry="2.1"/>
	<ellipse class="st7" cx="1411.7" cy="169.3" rx="2" ry="2.1"/>
	<ellipse class="st7" cx="1394.6" cy="169.3" rx="2" ry="2.1"/>
	<ellipse class="st7" cx="1446" cy="148.4" rx="2" ry="2.1"/>
	<ellipse class="st7" cx="1428.9" cy="148.4" rx="2" ry="2.1"/>
	<ellipse class="st7" cx="1411.7" cy="148.4" rx="2" ry="2.1"/>
	<ellipse class="st7" cx="1394.6" cy="148.4" rx="2" ry="2.1"/>
	<ellipse class="st7" cx="1446" cy="127.5" rx="2" ry="2.1"/>
	<ellipse class="st7" cx="1428.9" cy="127.5" rx="2" ry="2.1"/>
	<ellipse class="st7" cx="1411.7" cy="127.5" rx="2" ry="2.1"/>
	<ellipse class="st7" cx="1394.6" cy="127.5" rx="2" ry="2.1"/>
	<ellipse class="st7" cx="1377.5" cy="232" rx="2" ry="2.1"/>
	<ellipse class="st7" cx="1360.4" cy="232" rx="2" ry="2.1"/>
	<ellipse class="st7" cx="1343.3" cy="232" rx="2" ry="2.1"/>
	<ellipse class="st7" cx="1326.1" cy="232" rx="2" ry="2.1"/>
	<ellipse class="st7" cx="1377.5" cy="211.1" rx="2" ry="2.1"/>
	<ellipse class="st7" cx="1360.4" cy="211.1" rx="2" ry="2.1"/>
	<ellipse class="st7" cx="1343.3" cy="211.1" rx="2" ry="2.1"/>
	<ellipse class="st7" cx="1326.1" cy="211.1" rx="2" ry="2.1"/>
	<ellipse class="st7" cx="1377.5" cy="190.2" rx="2" ry="2.1"/>
	<ellipse class="st7" cx="1360.4" cy="190.2" rx="2" ry="2.1"/>
	<ellipse class="st7" cx="1343.3" cy="190.2" rx="2" ry="2.1"/>
	<ellipse class="st7" cx="1326.1" cy="190.2" rx="2" ry="2.1"/>
	<ellipse class="st7" cx="1377.5" cy="169.3" rx="2" ry="2.1"/>
	<ellipse class="st7" cx="1360.4" cy="169.3" rx="2" ry="2.1"/>
	<ellipse class="st7" cx="1343.3" cy="169.3" rx="2" ry="2.1"/>
	<ellipse class="st7" cx="1326.1" cy="169.3" rx="2" ry="2.1"/>
	<ellipse class="st7" cx="1377.5" cy="148.4" rx="2" ry="2.1"/>
	<ellipse class="st7" cx="1360.4" cy="148.4" rx="2" ry="2.1"/>
	<ellipse class="st7" cx="1343.3" cy="148.4" rx="2" ry="2.1"/>
	<ellipse class="st7" cx="1326.1" cy="148.4" rx="2" ry="2.1"/>
	<ellipse class="st7" cx="1377.5" cy="127.5" rx="2" ry="2.1"/>
	<ellipse class="st7" cx="1360.4" cy="127.5" rx="2" ry="2.1"/>
	<ellipse class="st7" cx="1343.3" cy="127.5" rx="2" ry="2.1"/>
	<ellipse class="st7" cx="1326.1" cy="127.5" rx="2" ry="2.1"/>
	<ellipse class="st7" cx="1309" cy="232" rx="2" ry="2.1"/>
	<ellipse class="st7" cx="1291.9" cy="232" rx="2" ry="2.1"/>
	<ellipse class="st7" cx="1274.8" cy="232" rx="2" ry="2.1"/>
	<ellipse class="st7" cx="1257.7" cy="232" rx="2" ry="2.1"/>
	<ellipse class="st7" cx="1309" cy="211.1" rx="2" ry="2.1"/>
	<ellipse class="st7" cx="1291.9" cy="211.1" rx="2" ry="2.1"/>
	<ellipse class="st7" cx="1274.8" cy="211.1" rx="2" ry="2.1"/>
	<ellipse class="st7" cx="1257.7" cy="211.1" rx="2" ry="2.1"/>
	<ellipse class="st7" cx="1309" cy="190.2" rx="2" ry="2.1"/>
	<ellipse class="st7" cx="1291.9" cy="190.2" rx="2" ry="2.1"/>
	<ellipse class="st7" cx="1274.8" cy="190.2" rx="2" ry="2.1"/>
	<ellipse class="st7" cx="1257.7" cy="190.2" rx="2" ry="2.1"/>
	<ellipse class="st7" cx="1309" cy="169.3" rx="2" ry="2.1"/>
	<ellipse class="st7" cx="1291.9" cy="169.3" rx="2" ry="2.1"/>
	<ellipse class="st7" cx="1274.8" cy="169.3" rx="2" ry="2.1"/>
	<ellipse class="st7" cx="1257.7" cy="169.3" rx="2" ry="2.1"/>
	<ellipse class="st7" cx="1309" cy="148.4" rx="2" ry="2.1"/>
	<ellipse class="st7" cx="1291.9" cy="148.4" rx="2" ry="2.1"/>
	<ellipse class="st7" cx="1274.8" cy="148.4" rx="2" ry="2.1"/>
	<ellipse class="st7" cx="1257.7" cy="148.4" rx="2" ry="2.1"/>
	<ellipse class="st7" cx="1309" cy="127.5" rx="2" ry="2.1"/>
	<ellipse class="st7" cx="1291.9" cy="127.5" rx="2" ry="2.1"/>
	<ellipse class="st7" cx="1274.8" cy="127.5" rx="2" ry="2.1"/>
	<ellipse class="st7" cx="1257.7" cy="127.5" rx="2" ry="2.1"/>
	<ellipse class="st7" cx="1240.5" cy="232" rx="2" ry="2.1"/>
	<ellipse class="st7" cx="1223.4" cy="232" rx="2" ry="2.1"/>
	<ellipse class="st7" cx="1206.3" cy="232" rx="2" ry="2.1"/>
	<ellipse class="st7" cx="1189.2" cy="232" rx="2" ry="2.1"/>
	<ellipse class="st7" cx="1240.5" cy="211.1" rx="2" ry="2.1"/>
	<ellipse class="st7" cx="1223.4" cy="211.1" rx="2" ry="2.1"/>
	<ellipse class="st7" cx="1206.3" cy="211.1" rx="2" ry="2.1"/>
	<ellipse class="st7" cx="1189.2" cy="211.1" rx="2" ry="2.1"/>
	<ellipse class="st7" cx="1240.5" cy="190.2" rx="2" ry="2.1"/>
	<ellipse class="st7" cx="1223.4" cy="190.2" rx="2" ry="2.1"/>
	<ellipse class="st7" cx="1206.3" cy="190.2" rx="2" ry="2.1"/>
	<ellipse class="st7" cx="1189.2" cy="190.2" rx="2" ry="2.1"/>
	<ellipse class="st7" cx="1240.5" cy="169.3" rx="2" ry="2.1"/>
	<ellipse class="st7" cx="1223.4" cy="169.3" rx="2" ry="2.1"/>
	<ellipse class="st7" cx="1206.3" cy="169.3" rx="2" ry="2.1"/>
	<ellipse class="st7" cx="1189.2" cy="169.3" rx="2" ry="2.1"/>
	<ellipse class="st7" cx="1240.5" cy="148.4" rx="2" ry="2.1"/>
	<ellipse class="st7" cx="1223.4" cy="148.4" rx="2" ry="2.1"/>
	<ellipse class="st7" cx="1206.3" cy="148.4" rx="2" ry="2.1"/>
	<ellipse class="st7" cx="1189.2" cy="148.4" rx="2" ry="2.1"/>
	<ellipse class="st7" cx="1240.5" cy="127.5" rx="2" ry="2.1"/>
	<ellipse class="st7" cx="1223.4" cy="127.5" rx="2" ry="2.1"/>
	<ellipse class="st7" cx="1206.3" cy="127.5" rx="2" ry="2.1"/>
	<ellipse class="st7" cx="1189.2" cy="127.5" rx="2" ry="2.1"/>
	<ellipse class="st7" cx="1446" cy="106.6" rx="2" ry="2.1"/>
	<ellipse class="st7" cx="1428.9" cy="106.6" rx="2" ry="2.1"/>
	<ellipse class="st7" cx="1411.7" cy="106.6" rx="2" ry="2.1"/>
	<ellipse class="st7" cx="1394.6" cy="106.6" rx="2" ry="2.1"/>
	<ellipse class="st7" cx="1446" cy="85.7" rx="2" ry="2.1"/>
	<ellipse class="st7" cx="1428.9" cy="85.7" rx="2" ry="2.1"/>
	<ellipse class="st7" cx="1411.7" cy="85.7" rx="2" ry="2.1"/>
	<ellipse class="st7" cx="1394.6" cy="85.7" rx="2" ry="2.1"/>
	<ellipse class="st7" cx="1446" cy="64.8" rx="2" ry="2.1"/>
	<ellipse class="st7" cx="1428.9" cy="64.8" rx="2" ry="2.1"/>
	<ellipse class="st7" cx="1411.7" cy="64.8" rx="2" ry="2.1"/>
	<ellipse class="st7" cx="1394.6" cy="64.8" rx="2" ry="2.1"/>
	<ellipse class="st7" cx="1446" cy="43.9" rx="2" ry="2.1"/>
	<ellipse class="st7" cx="1428.9" cy="43.9" rx="2" ry="2.1"/>
	<ellipse class="st7" cx="1411.7" cy="43.9" rx="2" ry="2.1"/>
	<ellipse class="st7" cx="1394.6" cy="43.9" rx="2" ry="2.1"/>
	<ellipse class="st7" cx="1446" cy="23" rx="2" ry="2.1"/>
	<ellipse class="st7" cx="1428.9" cy="23" rx="2" ry="2.1"/>
	<ellipse class="st7" cx="1411.7" cy="23" rx="2" ry="2.1"/>
	<ellipse class="st7" cx="1394.6" cy="23" rx="2" ry="2.1"/>
	<ellipse class="st7" cx="1446" cy="2.1" rx="2" ry="2.1"/>
	<ellipse class="st7" cx="1428.9" cy="2.1" rx="2" ry="2.1"/>
	<ellipse class="st7" cx="1411.7" cy="2.1" rx="2" ry="2.1"/>
	<ellipse class="st7" cx="1394.6" cy="2.1" rx="2" ry="2.1"/>
	<ellipse class="st7" cx="1377.5" cy="106.6" rx="2" ry="2.1"/>
	<ellipse class="st7" cx="1360.4" cy="106.6" rx="2" ry="2.1"/>
	<ellipse class="st7" cx="1343.3" cy="106.6" rx="2" ry="2.1"/>
	<ellipse class="st7" cx="1326.1" cy="106.6" rx="2" ry="2.1"/>
	<ellipse class="st7" cx="1377.5" cy="85.7" rx="2" ry="2.1"/>
	<ellipse class="st7" cx="1360.4" cy="85.7" rx="2" ry="2.1"/>
	<ellipse class="st7" cx="1343.3" cy="85.7" rx="2" ry="2.1"/>
	<ellipse class="st7" cx="1326.1" cy="85.7" rx="2" ry="2.1"/>
	<ellipse class="st7" cx="1377.5" cy="64.8" rx="2" ry="2.1"/>
	<ellipse class="st7" cx="1360.4" cy="64.8" rx="2" ry="2.1"/>
	<ellipse class="st7" cx="1343.3" cy="64.8" rx="2" ry="2.1"/>
	<ellipse class="st7" cx="1326.1" cy="64.8" rx="2" ry="2.1"/>
	<ellipse class="st7" cx="1377.5" cy="43.9" rx="2" ry="2.1"/>
	<ellipse class="st7" cx="1360.4" cy="43.9" rx="2" ry="2.1"/>
	<ellipse class="st7" cx="1343.3" cy="43.9" rx="2" ry="2.1"/>
	<ellipse class="st7" cx="1326.1" cy="43.9" rx="2" ry="2.1"/>
	<ellipse class="st7" cx="1377.5" cy="23" rx="2" ry="2.1"/>
	<ellipse class="st7" cx="1360.4" cy="23" rx="2" ry="2.1"/>
	<ellipse class="st7" cx="1343.3" cy="23" rx="2" ry="2.1"/>
	<ellipse class="st7" cx="1326.1" cy="23" rx="2" ry="2.1"/>
	<ellipse class="st7" cx="1377.5" cy="2.1" rx="2" ry="2.1"/>
	<ellipse class="st7" cx="1360.4" cy="2.1" rx="2" ry="2.1"/>
	<ellipse class="st7" cx="1343.3" cy="2.1" rx="2" ry="2.1"/>
	<ellipse class="st7" cx="1326.1" cy="2.1" rx="2" ry="2.1"/>
	<ellipse class="st7" cx="1309" cy="106.6" rx="2" ry="2.1"/>
	<ellipse class="st7" cx="1291.9" cy="106.6" rx="2" ry="2.1"/>
	<ellipse class="st7" cx="1274.8" cy="106.6" rx="2" ry="2.1"/>
	<ellipse class="st7" cx="1257.7" cy="106.6" rx="2" ry="2.1"/>
	<ellipse class="st7" cx="1309" cy="85.7" rx="2" ry="2.1"/>
	<ellipse class="st7" cx="1291.9" cy="85.7" rx="2" ry="2.1"/>
	<ellipse class="st7" cx="1274.8" cy="85.7" rx="2" ry="2.1"/>
	<ellipse class="st7" cx="1257.7" cy="85.7" rx="2" ry="2.1"/>
	<ellipse class="st7" cx="1309" cy="64.8" rx="2" ry="2.1"/>
	<ellipse class="st7" cx="1291.9" cy="64.8" rx="2" ry="2.1"/>
	<ellipse class="st7" cx="1274.8" cy="64.8" rx="2" ry="2.1"/>
	<ellipse class="st7" cx="1257.7" cy="64.8" rx="2" ry="2.1"/>
	<ellipse class="st7" cx="1309" cy="43.9" rx="2" ry="2.1"/>
	<ellipse class="st7" cx="1291.9" cy="43.9" rx="2" ry="2.1"/>
	<ellipse class="st7" cx="1274.8" cy="43.9" rx="2" ry="2.1"/>
	<ellipse class="st7" cx="1257.7" cy="43.9" rx="2" ry="2.1"/>
	<ellipse class="st7" cx="1309" cy="23" rx="2" ry="2.1"/>
	<ellipse class="st7" cx="1291.9" cy="23" rx="2" ry="2.1"/>
	<ellipse class="st7" cx="1274.8" cy="23" rx="2" ry="2.1"/>
	<ellipse class="st7" cx="1257.7" cy="23" rx="2" ry="2.1"/>
	<ellipse class="st7" cx="1309" cy="2.1" rx="2" ry="2.1"/>
	<ellipse class="st7" cx="1291.9" cy="2.1" rx="2" ry="2.1"/>
	<ellipse class="st7" cx="1274.8" cy="2.1" rx="2" ry="2.1"/>
	<ellipse class="st7" cx="1257.7" cy="2.1" rx="2" ry="2.1"/>
	<ellipse class="st7" cx="1240.5" cy="106.6" rx="2" ry="2.1"/>
	<ellipse class="st7" cx="1223.4" cy="106.6" rx="2" ry="2.1"/>
	<ellipse class="st7" cx="1206.3" cy="106.6" rx="2" ry="2.1"/>
	<ellipse class="st7" cx="1189.2" cy="106.6" rx="2" ry="2.1"/>
	<ellipse class="st7" cx="1240.5" cy="85.7" rx="2" ry="2.1"/>
	<ellipse class="st7" cx="1223.4" cy="85.7" rx="2" ry="2.1"/>
	<ellipse class="st7" cx="1206.3" cy="85.7" rx="2" ry="2.1"/>
	<ellipse class="st7" cx="1189.2" cy="85.7" rx="2" ry="2.1"/>
	<ellipse class="st7" cx="1240.5" cy="64.8" rx="2" ry="2.1"/>
	<ellipse class="st7" cx="1223.4" cy="64.8" rx="2" ry="2.1"/>
	<ellipse class="st7" cx="1206.3" cy="64.8" rx="2" ry="2.1"/>
	<ellipse class="st7" cx="1189.2" cy="64.8" rx="2" ry="2.1"/>
	<ellipse class="st7" cx="1240.5" cy="43.9" rx="2" ry="2.1"/>
	<ellipse class="st7" cx="1223.4" cy="43.9" rx="2" ry="2.1"/>
	<ellipse class="st7" cx="1206.3" cy="43.9" rx="2" ry="2.1"/>
	<ellipse class="st7" cx="1189.2" cy="43.9" rx="2" ry="2.1"/>
	<ellipse class="st7" cx="1240.5" cy="23" rx="2" ry="2.1"/>
	<ellipse class="st7" cx="1223.4" cy="23" rx="2" ry="2.1"/>
	<ellipse class="st7" cx="1206.3" cy="23" rx="2" ry="2.1"/>
	<ellipse class="st7" cx="1189.2" cy="23" rx="2" ry="2.1"/>
	<ellipse class="st7" cx="1240.5" cy="2.1" rx="2" ry="2.1"/>
	<ellipse class="st7" cx="1223.4" cy="2.1" rx="2" ry="2.1"/>
	<ellipse class="st7" cx="1206.3" cy="2.1" rx="2" ry="2.1"/>
	<ellipse class="st7" cx="1189.2" cy="2.1" rx="2" ry="2.1"/>
</g>
</svg>
