<svg xmlns="http://www.w3.org/2000/svg" xmlns:xlink="http://www.w3.org/1999/xlink" fill-rule="evenodd" stroke-miterlimit="10" clip-rule="evenodd" viewBox="0 0 1200 1000">

<defs>
<ellipse id="el1" cx="86.8" cy="7.2" fill="#cbcbcb" rx="86.8" ry="7.2"/>
<circle id="el3" cx="54.8" cy="54.8" r="54.8" fill="#fff" stroke="#303591" stroke-width="18.94"/>
<circle id="el5" cx="47.2" cy="47.2" r="47.2" fill="#fff" stroke="#303591" stroke-width="16.3"/>
<circle id="el7" cx="47.2" cy="47.2" r="47.2" fill="#fff" stroke="#303591" stroke-width="16.3"/>
<circle id="el9" cx="53.2" cy="47.2" r="47.2" fill="#fff" stroke="#303591" stroke-width="16.3"/>
<circle id="el11" cx="40.6" cy="40.6" r="40.6" fill="#fff" stroke="#303591" stroke-width="14.06"/>
<ellipse id="el12" cx="74.4" cy="6" fill="#cbcbcb" rx="74.4" ry="6"/>
<circle id="el14" cx="32.4" cy="32.4" r="32.4" fill="#fff" stroke="#303591" stroke-width="11.23"/>
<circle id="el16" cx="28" cy="28" r="28" fill="#fff" stroke="#303591" stroke-width="9.67"/>
</defs>
<g id="bg">
<path fill="#f05a24" fill-rule="nonzero" d="M923.2 698.8c6.4 2.8 11.2 8.6 16.8 12.8 6.6 5 15 7.8 19.8 14.6 3.4 4.6 4.4 10.8 3 16.4-.6 2-2 4.2-4 4-1-.2-1.8-.8-2.6-1.6-5.4-5-10.2-10.4-14.6-16.4-.6-1-1.2-1.8-1.6-2.8-.4-.8-.4-1.6-1-2.4-.6-.8-1.6-1.2-2.6-1.6-6-2.6-11.4-6.6-15.8-11.4-.4-.4-.8-.8-1-1.2-.2-.6-.2-1.2-.2-1.8.2-3.4.6-7.2 2.6-10"/>
<path fill="#221f1f" fill-rule="nonzero" d="M923 699.4c4 1.8 7.4 4.6 10.6 7.4 3 2.8 6.2 5.4 9.8 7.6 7 4.4 15.2 8 18.4 16.2 1.6 3.8 2 8.8.4 12.6-.4.8-.8 2-1.8 2.4-1.2.8-2.4.2-3.4-.8-1.8-1.6-3.4-3.2-5-5-3.4-3.4-6.4-7.2-9.2-11-.6-.8-1.2-1.8-1.8-2.6-.4-1-.6-2-1.2-2.8-1-1.6-3.2-2.2-4.8-3-4.4-2.2-8.6-5.2-12.2-8.6-.8-.8-2.4-2-2.6-3.2-.2-1.2 0-2.6.2-3.8.2-2.6.8-5 2.4-7.2.4-.6-.6-1.2-1-.6-1.4 2-2 4.2-2.4 6.4-.2 1-.2 2-.4 3 0 1-.2 2 .2 3s1.2 1.8 2 2.4l2.8 2.8 5.4 4.2c2.2 1.4 4.4 2.6 6.6 3.6 1.2.6 2.2 1 2.8 2.2.4 1 .6 2 1.2 3 2.6 4.2 6.2 8.2 9.6 11.8 1.8 2 3.8 3.8 5.8 5.6 1.4 1.2 2.8 2.6 4.8 1.8 3.6-1.4 4-7.2 3.8-10.4-.2-4.4-1.8-8.6-4.8-12-2.8-3.4-6.6-5.8-10.2-8-4.4-2.6-8.8-5.4-12.8-8.8-4-3.6-7.8-7.2-12.8-9.4-.6-.2-1.2.8-.4 1.2z"/>
<circle cx="929.4" cy="680" r="24.4" fill="#fff" stroke="#303591" stroke-width="8.43"/>
<path fill="#c59b6d" fill-rule="nonzero" d="M959 734.6c1 .2 2 0 3-.2 1-.4 1.8-.8 2.8-1 1.2-.4 2.2-.4 3.4-.4.6 0 1.4.2 1.8.6.8.6.8 1.6.8 2.6 0 .4 0 .8-.2 1-.2.8-1 1.2-1.8 1.6-1 .6-1.8 1.2-2.4 2.2-.6.8-1.2 1.8-2 2-.8.4-1.8 0-2.6-.2-.6-.2-1.4-.4-2-.8-1-.6-1.6-1.8-2.2-3-.4-.8-.8-1.6-.4-2.4.2-.6 1-1 1.4-1.6"/>
<path fill="#f05a24" fill-rule="nonzero" d="M956.4 749.2c2-1.8 3.8-3.6 5.8-5.6.8-.8 1.6-1.6 2.6-1.8 1.2-.4 2.4 0 3.6 0 1.4 0 4-3.2 5.2-2.4.8.6 0 4.2.4 5.2s.8 2.2 1.4 3.2c1.8 4 3 8 4 12.2.4 1.4.6 3 .8 4.6.2 1.6.2 3.6-1.2 4.8-.2.2-.4.2-.6.2-.4 0-.8-.2-1-.6-1.4-1.6-2.2-3.8-3.8-5.4-1-1-2.4-1.6-3.8-2-1.6-.6-3.2-1-5-1.6-2.8-.8-5.4-1.6-8.2-1.8-1 0-1.8 0-2.8-.4-.8-.4-1.6-1.2-1.4-2.2 0-.6.4-1 .8-1.4 2.8-3.4 5.8-6.6 8.6-10"/>
<path fill="#f05a24" fill-rule="nonzero" d="M957 749.6c1.4-1.2 2.6-2.6 4-3.8 1.4-1.2 2.8-3.4 4.8-3.4 1.2-.2 2.4.2 3.4-.2s1.8-1.2 2.6-1.8c.2-.2.8-.6 1.2-.6.4 0 .2.2.4.6 0 1-.2 2.2 0 3.2 0 1.2.6 2 1 3 .8 1.6 1.4 3.2 2 4.8 1.2 3.2 2 6.4 2.6 9.8.4 1.6.6 3.2.6 4.8 0 .6-.2 1.4-.6 1.8-.8 1.2-1.6-.2-2-1-.6-1-1.2-2.2-2-3.2-1-1.2-2.2-2-3.6-2.6-3-1.2-6.2-2.2-9.4-3-1.8-.4-3.4-.8-5.2-1-1 0-2.2 0-3-.8-1.2-1 0-2 .8-3 2.6-3 5.4-6.2 8-9.2.6-.6-.4-1.8-1-1-2.8 3.4-5.8 6.6-8.6 10-.8 1-1.4 2-.8 3.4.8 1.4 2.2 1.8 3.6 2 4.4.4 8.4 1.6 12.4 3 1.8.6 4 1.2 5.4 2.6 1.2 1.2 2 3 3 4.4.8 1 1.6 2 3 1.2 1.2-.6 1.6-2.2 1.8-3.4.2-1.8-.2-3.6-.6-5.2-.4-2-.8-4-1.4-6-.6-2-1.2-3.8-2-5.6-.6-1.8-1.8-3.6-2.2-5.4-.4-1.4 1-4.8-1-5.6-1-.4-2.2.4-3 1l-1.8 1.2c-.8.4-1.8.2-2.6.2-2.2 0-3.4 1-5 2.4-1.8 1.8-3.8 3.6-5.6 5.4-1 .6 0 1.6.8 1z"/>
<path fill="#f6921e" fill-rule="nonzero" d="M664.6 713.4c-1.6.8-3 2.4-4 4-3 4.8-5.2 10.2-8.2 14.8-.4.4-.6 1-1 1.4-.6.6-1.4.8-2 1-6.2 2.2-12.6 3.4-19.2 4 .4 2.2.6 4.2 1 6.4 0 .2 0 .6.2.6.2.2.4.2.6.2 4.2.4 8.4-.2 12.4-1.2 1.8-.6 3.8-1.2 5.6-1.6 1.4-.2 3-.4 4.4-1 2.4-1 4.2-3 5.6-5.2 1.4-2.2 2.8-4.6 4.6-6.4"/>
<path fill-rule="nonzero" d="M664.2 712.8c-3 1.6-4.8 5-6.4 7.8-1.8 3.4-3.4 6.8-5.4 10-.4.8-1 1.8-1.6 2.2-.8.6-2 1-2.8 1.2-1.8.6-3.8 1.2-5.6 1.6-4 1-8.2 1.6-12.2 2-.6 0-.8.4-.8 1l.6 3.6c.2 1 .2 2.2.6 3.2.6 1.6 3.4 1.2 4.8 1 4.4 0 8.4-1.2 12.4-2.4 2-.6 4-.8 6.2-1.2 1.6-.4 3.2-1.4 4.4-2.6 2.8-2.8 4.4-6.6 7.2-9.6.6-.6-.4-1.8-1-1-2.4 2.4-4 5.6-6.2 8.4-1 1.2-2.4 2.4-3.8 3.2-1.8.6-3.6.8-5.4 1.2-3.8 1-7.2 2.2-11.2 2.6-1 0-1.8.2-2.8.2-.8 0-2.4.2-3-.4-.2-.2-.2-1-.2-1.4 0-.4-.2-1-.2-1.4-.2-1.2-.4-2.2-.6-3.4-.2.4-.4.6-.8 1 4-.4 8.2-1 12.2-1.8 2-.4 4-1 5.8-1.6 1.6-.6 3.2-1 4.2-2.2 2.4-2.8 3.8-6.6 5.6-9.8.8-1.8 1.8-3.4 2.8-5 1-1.8 2.2-3.6 4.2-4.4.6-1.2-.2-2.4-1-2z"/>
<circle cx="615.4" cy="750.8" r="24.4" fill="#fff" stroke="#303591" stroke-width="8.43"/>
<path fill="#3a2416" fill-rule="nonzero" d="M667.6 700.6c.2 1.2.2 2.6 0 3.8-.2 1.2-1.2 2.4-2.4 2.6-1.2.2-2.8-.4-3.6.6-.4.4-.4 1-.6 1.4-.2 1.4-.8 2.6-.8 4s.6 2.8 2 3.2c1.2.4 2.2-.2 3.4-.6 1.6-.6 3.2-1 5-1 1.8 0 3.8.2 5.4-.8 1.8-1.2 2.2-3.8 1.6-5.8-.6-2-2.2-3.8-3.6-5.4-.6-.8-1.4-1.6-1.4-2.6v-.6c-.2-.2-.4-.2-.6-.2-.6 0-1.4 0-2-.2-.6 0-1.2 0-1.6.2-.6.4-1 1-.8 1.4"/>
<path fill-rule="nonzero" d="M667.2 700.6c.2 2.2.4 5.8-2.8 5.8-.8 0-1.6-.2-2.4.2-.8.4-1.2 1.2-1.4 2-.4 2-1.4 4.2-.6 6.2.8 1.8 2.4 2.4 4.2 1.8 1-.4 2-.8 3.2-1 1.2-.4 2.6-.4 3.8-.4 2 0 4.2 0 5.6-1.4 3-3 1-7.4-1.4-10-.8-1-2-1.8-2.4-3-.4-.8 0-1.8-1.2-2-1.2-.4-5.4-.8-4.6 1.8.2.8 1.2.4 1-.2-.4-1.2 2.2-.8 2.8-.8h.8c.4 0 .2 0 .4.2.2.4 0 .8.2 1.2.6 1.4 2.2 2.6 3 3.8 1 1.4 2 3 2 4.8 0 1.8-.8 3.4-2.4 4-1.8.6-3.8.2-5.6.4-1.8.2-3.4.8-5.2 1.4-1 .2-1.8.4-2.6-.4-.6-.6-.8-1.6-.8-2.4 0-1 .4-2 .6-3 .2-1 .2-2.2 1.6-2.2.8 0 1.6.2 2.2 0 .8-.2 1.4-.6 2-1.2 1.2-1.6 1.2-3.6 1-5.6 0-.6-1.2-.6-1 0z"/>
<path fill="#f6921e" fill-rule="nonzero" d="M671 708.6c-5 2.4-6.2 8.8-9.2 13.6-2 3.4-5 6-6.8 9.6-1.6 3.6-1.4 8.6 2 10.4.6.4 1.2.6 1.4 1.2.2.4.2.8.2 1.2-.8 10.4-4.8 21.2-1.4 31.2.2.4.4 1 .8 1.2.4.2.8.4 1.4.4 8.8.6 17.4-1.6 26-3.6.4 0 .8-.2 1-.6v-.6c-1.2-6.8-4-13.8-2.4-20.4.6-2.8 2-5.2 3.2-7.8 3.4-8 4.8-16.8 3.8-25.4-.2-2.4-.8-5-2.2-7-1-1.4-2.2-2.6-3.6-3.4-4.2-2.4-9.6-2.4-13.8 0"/>
<path fill-rule="nonzero" d="M670.8 708c-4.8 2.4-6.2 8-8.6 12.4-2.6 5-8.2 9-8.6 15-.2 2.2.4 4.6 2 6.2 1 1 2.6 1.2 2.6 2.8 0 1.8-.4 4-.8 5.8-1 6.8-2.6 13.6-1.8 20.6.2 1.6.6 3 1 4.6.4 1.2.8 2.2 2.2 2.4 3.4.6 7.2 0 10.6-.4 3.6-.4 7.2-1.2 10.6-2 1.8-.4 3.6-.6 5.2-1.2 1-.4 1.4-.8 1.4-1.8-.4-3.6-1.6-7-2.2-10.4-.6-3.6-.8-7.4.4-11 1-3.2 2.8-6.2 4-9.4 1.2-3.2 2-6.6 2.4-10 .6-3.8.6-7.6.4-11.4-.2-3.4-.8-6.8-3-9.4-4.2-5.2-12-6-17.6-2.8-.6.4 0 1.2.6 1 5.2-3 12.8-2.2 16.4 2.8 1.8 2.6 2.2 5.8 2.6 9 .2 3 .2 6.2-.2 9.2-.4 3.2-1 6.2-2 9.2-1 3.2-2.4 6-3.6 9-1.2 2.8-1.8 5.6-1.8 8.6 0 3.2.6 6.2 1.4 9.2.4 1.6.8 3 1 4.6.2.6.6 1.8.4 2.2-.2.8-1.8.8-2.4 1-3.2.8-6.4 1.6-9.8 2-3.4.6-6.8 1-10.2 1H661c-.8 0-2.2.2-2.8-.8-.4-.6-.6-1.6-.8-2.2-.2-.8-.4-1.8-.6-2.6-1-6.6.4-13.2 1.4-19.6l.6-4.2c.2-1.2.6-3 .2-4.2-.4-.8-1.4-1.2-2-1.6-1-.8-1.6-1.8-2-3-1.8-6.6 4.4-11.2 7.4-16.2 2.8-4.4 3.8-10.8 9-13.4.6-.4 0-1.2-.6-1z"/>
<path fill="#cbcbcb" fill-rule="nonzero" d="M506.6 872.6c-4 1-7.2 3.8-10.2 6.6-2.2 2.2-4.6 4.6-4.8 7.6-.2 4.8 4.6 7.8 9 9.8 4.8 2.2 9.6 4.6 15 4.8 5.2.4 11-1.8 13.6-6.4 1-1.6 1.4-3.6 2.8-4.8 1.6-1.6 4.2-1.8 6.6-1.8 8.2-.2 16.4-.2 24.8-.4-.4-3.4-4-5.6-7.4-6.6-3.4-1-7-1.4-9.8-3.6-1.6-1.2-3-3.2-4.8-4.2-2.2-1.4-4.8-1.6-7.2-1.8-4.4-.4-8.8-.6-13.2-1-5-.4-10.2-.8-15 1"/>
<path fill="#8c9ed0" fill-opacity=".44" fill-rule="nonzero" d="M959.4 362.6c-6.6 0-13 1.4-19 3.6-15.2-23.6-39.2-41.8-67.8-51-2.8-68.8-64.6-124-140.8-124-61.6 0-113.8 36-133 86.4-8.8-6.6-19.6-10.4-31.2-10.4-22.6 0-41.8 14.6-50 35.2-2.6-.2-5.4-.4-8.2-.4-63.6 0-115 49.8-115 111.8 0 7.2.8 20.4 2 20.4h614.8c1.4 0 2-9.6 2-15 .4-31.4-23.8-56.6-53.8-56.6z"/>
<path fill="#8c9ed0" fill-opacity=".46" fill-rule="nonzero" d="M184.4 294.6c2.4 0 4.6.4 6.8 1.4 5.4-8.4 14-14.8 24-18.2 1-24.4 23-44 50-44 21.8 0 40.4 12.8 47.2 30.6 3.2-2.4 7-3.8 11-3.8 8 0 14.8 5.2 17.8 12.6 1 0 2-.2 2.8-.2 22.6 0 40.8 17.6 40.8 39.8 0 2.6-.2 7.2-.8 7.2H165.6c-.4 0-.8-3.4-.8-5.4.4-11.2 9-20 19.6-20z"/>
<path fill="#b2b2b2" fill-rule="nonzero" d="M671.2 843.6c-12.4 4-25.4 5-38.4 6 12.4 2.4 25 4.2 37.6 5 1 0 2.4.4 2.4 1.6 0 .6-.4 1-.8 1.4-5 4.4-11.6 6.8-18.2 8.2-6.6 1.4-13.2 1.6-20 2.4-.8 0-1.6.2-2.2.8 10.6 4.4 22.4 4.6 33.8 4.8 14.6.2 29 .2 43.6.4 1.8 0 4-.6 4-2.2 0-.4-.2-1-.4-1.4-2.2-4.2-6.6-6.6-10-9.8-.8-.8-1.6-1.4-1.8-2.4-.2-1-.2-2.2.6-2.8.6-.4 1.6-.6 2.2-1 1.2-1 1-3 0-4.2-1-1.2-2.8-1.6-4.2-1.8-6.2-1.4-12.6-2.8-18.8-4.2-3.2-.8-6.6-1.4-9.6-.6"/>
<path fill="#895d3b" fill-rule="nonzero" d="M661 818c.8 1 1.4 2.4 1.8 3.8 2.2 6 4.4 12.6 4.2 19.6 0 1-.2 2.2-.6 3.2-1 3-3.4 3.6-5.4 4.2 4.8.2 9.6.2 14.4-.4 0-4 .8-8 .8-12 0-3.2-.4-6.2-1.2-9.2-1.6-6.4-4.8-12.6-9.2-13-1-.2-2.2.2-3 1.4-.6 1-.8 2.6-1.8 3"/>
<path fill-rule="nonzero" d="M660.8 818.2c1.6 2.4 2.4 5.4 3.4 8 1 2.8 1.8 5.6 2.2 8.4.4 3 .8 6.6 0 9.4-.8 2.6-2.8 3.8-5.4 4.4-.4 0-.2.6 0 .6 4.8.2 9.6.2 14.4-.4.2 0 .4-.2.4-.4 0-5 1.2-9.8.8-15-.4-4.2-1.2-8.2-3-12-1.2-2.8-3.2-6-6.2-7.4-1-.4-2.4-.6-3.4-.2-.6.4-1.2.8-1.4 1.6-.4.8-.6 2-1.4 2.6-.4.2 0 .8.4.6 1.2-.6 1.2-2.4 2-3.4 1.2-1.6 3.4-1 4.8-.2 2.8 1.8 4.6 5.4 5.6 8.4 1.4 3.8 2.2 7.8 2.2 11.8.2 4.4-.8 8.6-.8 13l.4-.4c-4.8.6-9.6.6-14.4.4v.6c2-.4 4.2-1.2 5.2-3.2 1.6-2.8 1.2-6.6.8-9.4-.4-3.4-1.2-6.6-2.2-9.8-1-3-1.8-6.4-3.6-8.8-.4.2-1 .4-.8.8z"/>
<path fill="#3a2416" fill-rule="nonzero" d="M665.8 840.4c.6-.2 1.2.4 1.2 1-.2 2.6-1.2 5.2-3.4 6.6-2.2 1.2-5 1.4-7.6 1.4 4 1 8.4 1 12.6.8 3 0 6.4-.2 9.4.2.8.2 1.4 0 2-.6.4-.2.4-.6.6-1 1.4-3.4.8-7.6-1.4-10.6-1.6-2.4 3-5-7.4-4-3.2.2-6.2 3-6 6.2"/>
<path fill-rule="nonzero" d="M665.8 840.6c.4 0 .8.8.8 1.2 0 .4-.2.8-.2 1.2-.2.6-.2 1-.4 1.6-.4 1.2-1.2 2.2-2.4 3-2.2 1.4-5.2 1.6-7.8 1.6-.4 0-.6.8-.2.8 5.6 1.4 11.4.8 17.2.8 1.4 0 3 0 4.4.2 1 .2 1.8.2 2.6-.4 1.6-1.2 1.8-4 1.8-5.8 0-2.4-.8-4.6-2-6.6-.4-.8-.4-1.2-.4-2.2.2-2-1.6-2.4-3.2-2.4-2.4 0-5.2 0-7.2 1.2s-3.4 3.2-3.4 5.6c0 .6 1 .6 1 0 0-2.2 1.6-4 3.4-5 1.8-.8 4-.8 6-.8.6 0 2 0 2.4.6.2.4 0 1 0 1.2 0 .6 0 1.2.2 1.8.2.6.8 1.2 1 1.8.4 1 .8 2.2 1 3.2.2 1 .2 2 0 3s-.4 2.8-1.4 3.4c-.8.6-2.2.2-3.2.2-1.2-.2-2.4-.2-3.6-.2-5.6 0-11 .6-16.4-.6 0 .2 0 .6-.2.8 3.4 0 7.6-.4 9.8-3.4 1-1.2 1.4-2.8 1.6-4.4.2-1-.2-2.4-1.6-2 0 .2 0 .6.4.6z"/>
<path fill="#009247" fill-rule="nonzero" d="M657.8 797.2c.2 5.4 1.2 10.2 2.6 15.2 1.4 5 2 10.6-.4 15 6.8-.6 13.8-.6 20.8 0 .8-10.6-3-22.2-11.8-28.4-3-2.2-7-3.6-10.4-2.4"/>
<path fill-rule="nonzero" d="M657.2 797.2c.2 5.2 1.2 10 2.4 15 1.2 4.8 2 10.2-.4 14.8-.2.4 0 .8.4.8 7-.6 13.8-.6 20.8 0 .2 0 .6-.2.6-.6.4-7.2-1-14.8-4.8-21-3.6-5.8-10.8-12.4-18.2-10.2-.6.2-.4 1.2.2 1 7.2-2.2 14.2 5 17.6 10.6 3.4 6 4.6 12.8 4.2 19.6l.6-.6c-7-.6-13.8-.6-20.8 0 .2.2.4.6.4.8 2.2-4.4 1.8-9.4.8-14-1.2-5.4-2.6-10.8-2.8-16.4.2-.6-1-.6-1 .2z"/>
<path fill="#895d3b" fill-rule="nonzero" d="M671.6 825c1 1.4 1.8 3.4 2.6 5.2 3.2 8.2 6.2 17 5.8 26.6 0 1.4-.2 3-.6 4.4-1.4 4-4.6 5-7.6 5.6 6.6.4 13.2.2 19.8-.6 0-5.4 1.2-10.8 1.2-16.4 0-4.2-.6-8.4-1.6-12.4-2.2-8.6-6.6-17-12.8-17.6-1.4-.2-3.2.2-4.2 2-.8 1.4-1.2 3.6-2.4 4"/>
<path fill-rule="nonzero" d="M671.2 825.2c1.2 1.6 2 3.6 2.6 5.6.6 1.8 1.4 3.6 2 5.4 1.4 3.8 2.4 7.8 3.2 12 .6 4 1.2 8.8-.2 12.8-1 3.4-4 4.8-7.4 5.4-.4.2-.4.8.2.8 6.6.4 13.2.2 19.8-.6.2 0 .4-.2.4-.4 0-5.2 1-10.2 1.2-15.4.2-4.8-.6-9.6-1.8-14.2-1-4-2.6-7.8-4.8-11.4-1.8-2.6-4-5.2-7.2-6-1.6-.4-3.2-.2-4.4.8-.8.6-1.2 1.4-1.6 2.2-.4 1-.8 2.2-1.8 2.8-.4.2 0 1 .4.8 1.2-.6 1.6-2.2 2.2-3.4.8-1.8 2.4-2.8 4.4-2.4 3.2.6 5.6 3.2 7.4 6 2.2 3.4 3.6 7.2 4.6 11 1.2 4.4 1.8 9 1.6 13.4-.2 5.2-1.2 10.4-1.2 15.6l.4-.4c-6.6.8-13.2.8-19.8.6 0 .2 0 .6.2.8 3-.6 5.8-1.8 7.4-4.6.8-1.8 1.2-3.6 1.2-5.6.2-2.4 0-4.8-.2-7.2-.6-4.4-1.6-8.8-3-13-.6-2-1.4-4.2-2.2-6.2-.8-2-1.6-4-2.8-5.8-.4-.2-1.2.2-.8.6z"/>
<path fill="#3a2416" fill-rule="nonzero" d="M676.8 855.4c.8-.4 1.6.6 1.6 1.4-.2 3.4-1.6 7-4.8 8.6-3.2 1.8-7 2-10.6 2 5.6 1.4 11.8 1.4 17.4 1.2 4.2-.2 8.8-.2 13 .4 1.2.2 1.8 0 2.8-.8.4-.4.6-.8.8-1.4 1.8-4.6 1-10.2-2-14.2-2.2-3.2 4.2-6.8-10.4-5.2-4 .4-8.2 4.2-8 8"/>
<path fill-rule="nonzero" d="M676.8 855.8c2-.2.4 4.4 0 5.2-.6 1.4-1.6 2.8-3 3.8-3.2 2-7.2 2.2-10.8 2-.6 0-.8 1-.2 1.2 7.6 1.8 15.4 1.2 23.2 1.2 2 0 4 0 6 .2 1.4.2 2.8.4 4-.4 2.4-1.6 2.8-5.6 2.6-8.2-.2-3.4-1.4-6-3-8.8-.4-.8-.4-1.6-.4-2.6 0-.8 0-1.8-.6-2.4-1-1-2.6-1-4-1-3.2 0-7 0-9.8 1.6-2.6 1.4-5 4.4-4.8 7.6 0 .8 1.4.8 1.4 0 0-2.8 2-5.2 4.6-6.4 2.4-1.2 5.6-1.2 8.4-1.2.8 0 2.8-.2 3.4.6.2.4.2 1 0 1.6 0 .8 0 1.6.2 2.4.4.8 1 1.6 1.4 2.4.8 1.4 1.2 2.8 1.4 4.2.2 1.6.4 3.2.2 4.6-.2 1.2-.6 3.2-1.4 4.2-1.2 1-2.6.6-4 .4-1.8-.2-3.8-.2-5.6-.2-7.6 0-15.4.8-23-.8 0 .4-.2.8-.2 1.2 4.6 0 10.4-.4 13.4-4.2 1.4-1.6 2-3.6 2.4-5.6.2-.8.4-1.8-.2-2.4-.4-.6-1.2-.8-1.8-.6-.4-.2-.2.4.2.4z"/>
<path fill="#895d3b" fill-rule="nonzero" d="M629 752.6c-1.2-.8-2-2-2.6-3.2-.6-1-1.2-2.2-2.4-2.2-.4 1 .8 2.4-.2 3-.2.2-.6 0-.8 0-1.8-.4-3.6-.6-5.6-1-1.2-.2-2.2-.2-3 .8 2.8.4 4.8 1.2 7.2 2.6-.6.6-1.6.4-2.4.2-1.8-.4-4.8-1.4-6 .2 2.2 1.4 5.6 1.8 8 2.6-1.8 0-3.6.2-5.4.2-.6 0-1.4.2-1.4.8 0 .8 1.2.8 1.8.6 1.6-.4 3.2-.4 4.8-.2.4 0 1 .4.8.8 0 .2-.2.2-.4.4-1.4.6-2.6 1.2-4 2 0 .8.8 1.2 1.6 1.2s1.4-.4 2.2-.6c2.4-1.2 5-2 7.8-2.4.6 0 1.2-.2 1.8-.4.6-.4 1-1.2 1-2-.2-1.6-1.4-3-2.8-3.4"/>
<path fill-rule="nonzero" d="M629.2 752.4c-1.2-1-2-2.4-2.8-3.6-.6-1-1.2-1.8-2.4-2-.2 0-.4 0-.6.4-.2.8.4 1.4.2 2.2 0 .8-1.6.4-2 .2-.6-.2-1.4-.2-2-.4-1.8-.4-4-1-5.4.6-.2.2-.2.6.2.6 2.6.4 4.8 1.4 7 2.6v-.6c-.6.6-2 .2-2.8 0-.8-.2-1.6-.4-2.2-.4-1.2-.2-2.6-.2-3.4 1-.2.2 0 .4.2.6 2.6 1.4 5.4 1.6 8 2.6v-.6c-1.2 0-2.4 0-3.4.2-.8 0-1.8 0-2.8.2-.8.2-1.6 1.4-.6 2 .4.2 1 .2 1.6.2 1-.2 2-.4 3.2-.4.6 0 1.4 0 1.8.2.2 0 .2 0 .4.2s0 .2-.2.4-.4.2-.6.2c-1 .4-2 1-3 1.4-.2 0-.2.2-.2.4.4 2 2.6 1.6 4 1 2.4-1 4.8-1.8 7.2-2.2 1-.2 2-.2 2.8-.8.6-.6 1-1.4 1-2.2-.4-2.2-1.6-3.8-3.2-4-.4 0-.8.4-.4.6 1.2.6 2.4 1.8 2.2 3.4-.4 1.8-2.8 1.6-4.2 2-1.6.4-3 .8-4.6 1.4-1 .4-4.2 2.4-4.6.4 0 .2-.2.2-.2.4.8-.4 1.8-.8 2.6-1.2.6-.2 1.8-.6 2-1.2.6-1.4-2-1.4-2.6-1.4-1 0-1.8 0-2.8.2-.4 0-1 .2-1.4.2h-.6c-.2-.2-.4-.4-.2-.6.2-.2 1-.2 1.4-.2h1.6c1 0 2.2 0 3.2-.2.4 0 .4-.6 0-.6-2.6-1-5.6-1.2-7.8-2.6v.6c1.2-1.2 3.2-.6 4.8-.2 1.2.2 2.8.8 3.8-.2.2-.2.2-.4 0-.6-2.4-1.2-4.6-2.2-7.2-2.8 0 .2.2.4.2.6 1-1 2.4-.6 3.8-.4 1.4.2 2.8.6 4.4.8.6 0 1.4 0 1.6-.8.2-.8-.4-1.6-.2-2.6-.2.2-.4.2-.6.4 1.4.2 2 1.8 2.6 2.8.6 1 1.4 2 2.4 2.6.8 0 1.2-.6.8-.8z"/>
<path fill="#895d3b" fill-rule="nonzero" d="M681.4 700c2.4-.6 5-2 5.6-4.6.4-1.2.2-2.4 0-3.6-.8-3.4-3-6.4-6-8.2-2.8-1.8-6.2-2.6-9.6-2.6-1.8 0-3.6.4-5.2 1.4-1.6 1-2.6 3-2.2 4.8.2 1.2 1 2.4.8 3.4-.2 1.6-3 2.8-3.6 4.2.8.4 2.4.6 2 1.4-.2.4-.6.6-.6 1s.6.6.6 1c.6 1.2 0 2.6.8 3.8.4.8 1.2.6 2 .8 1.6.6 4 .6 5.8.2.2 0 0 .6.2.8.2.2.4.4.6.8.2.8.6 1.8.8 2.6"/>
<path fill-rule="nonzero" d="M681.4 700.4c3-.8 6-2.8 6.2-6.2.4-3.6-1.8-7.4-4.4-9.8-2.8-2.6-6.6-3.8-10.6-4-3.4-.2-7.4.6-9 4.2-.4.8-.4 1.8-.2 2.6.2 1.2 1 2.4.6 3.6-.6 1.6-2.6 2.2-3.4 3.8-.2.2 0 .6.2.6.4.2 1.4.4 1.6.6.2.4-.6 1-.6 1.4 0 .8.8 1.4 1 2.2.2.8 0 1.6.4 2.4.6 1.4 2.2 1.4 3.4 1.8.8.2 1.6.2 2.6.2h1.4l1-.2c0-.2-.2-.4-.2-.4 0 .4 0 .6.2 1.2.6 1 .8 2 1.2 3.2.2.6 1.2.4 1-.2-.4-1-.6-2-1-2.8l-.6-1.2c0-.2 0-.4-.2-.4-.6-.2-1.2 0-1.8.2-1 0-2 0-3-.2-.6-.2-2-.2-2.6-.6-.8-.6-.6-2.2-.8-3 0-.6-.8-1.4-.6-2 0-.4.6-.6.4-1.2-.2-1-1.6-1.2-2.4-1.6 0 .2.2.4.2.6.6-1.4 2.4-2 3.2-3.4 1-1.6-.2-3.2-.4-4.8-.2-2.6 2-4.4 4.2-5.2 2.2-.6 4.6-.4 6.8 0 4.2.8 8 3.4 10 7.4 1 2 1.8 4.8.6 7-1 1.8-3 2.8-5 3.4-.2.2 0 1 .6.8z"/>
<path fill="#c1976b" fill-rule="nonzero" d="M666.2 694.4c.2.4 0 .8-.2 1"/>
<path fill-rule="nonzero" d="M666 694.4s0 .2 0 0c0 .2 0 0 0 0v.2-.2.4-.2.4c0 .2 0 .2.2.4 0 0 .2.2.4.2s.4 0 .4-.2l.2-.2c0-.2.2-.2.2-.4v-.4c0-.2 0-.2-.2-.4 0-.2-.4-.2-.4-.2-.8.2-1 .4-.8.6z"/>
<path fill="#895d3b" fill-rule="nonzero" d="M681 700.2c.2 1.2.2 2.6.4 3.8 0 .6 0 1.4-.2 2-.4.8-1 1.4-1.8 1.6-1.6.8-3.4 1-5 1-.4 0-.6 0-.8-.2-.2-.2-.4-.6-.2-.8"/>
<path fill-rule="nonzero" d="M680.6 700.2c.2 1.2.2 2.6.4 3.8 0 .6.2 1.2-.2 1.8-.2.4-.6.8-1 1-1 .6-2 1-3.2 1.2-.6.2-1.2.2-1.6.2-.2 0-1.4 0-1.2-.4.4-.6-.6-1.2-1-.6s-.2 1.2.4 1.6c.6.4 1.4.4 2 .4 1.6 0 3-.4 4.4-1 1.2-.6 2.2-1.4 2.4-3 0-.8 0-1.6-.2-2.4 0-.8-.2-1.8-.2-2.6s-1.2-.8-1 0z"/>
<path fill="#009247" fill-rule="nonzero" d="M655 780c.8 14.8 5.4 26.8 11.8 39 2 4 4.6 8 5 13 8.8-1.4 17.8-2.2 26.8-2.2-2.8-4-5.4-8.2-8-12.4-1.2-2-2.4-4.2-3-6.8-1.4-6.4 2.2-13 3-19.6 1-7.2-1.4-14.4-3.8-21.2-9.2 5.2-22.2.2-32 3.6v3c-.6 0 .2 3 .2 3.6"/>
<path fill-rule="nonzero" d="M654.6 780c.8 14.2 5.6 27.4 12.2 40 2 3.8 4 7.6 4.4 12 0 .4.2.4.6.4 8.8-1.4 17.6-2.2 26.6-2.2.4 0 .6-.4.4-.6-2.4-3.6-4.8-7.2-7-10.8-2.2-3.6-4.4-7.2-4.2-11.6 0-4 1.4-8 2.4-11.8 1-4 1.4-8 .8-12-.6-4.8-2.2-9.2-3.8-13.8-.2-.2-.4-.4-.6-.2-9.8 5.4-21.6 0-32 3.4-.2 0-.4.2-.4.4v2.4h.2c0 .2-.4.6-.2.8 0 1.6.4 2.6.6 3.6 0 .6 1 .6 1 0l-.6-3c0-.4 0-.2.2-.8.2-1 0-2 0-3l-.4.4c10.4-3.4 22.2 2 32.2-3.6-.2 0-.4-.2-.6-.2 1.4 4 2.8 8.2 3.6 12.4.8 4.4.4 8.8-.8 13.2-1 3.8-2.2 7.6-2.4 11.4-.2 4 1.4 7.2 3.4 10.6 2.6 4.2 5.2 8.4 8 12.4.2-.2.2-.4.4-.6-9 0-18 .8-26.8 2.2.2.2.4.2.6.4-.4-3.4-1.6-6.6-3.2-9.6-1.6-3.2-3.2-6.2-4.8-9.4-3-6.4-5.6-13.2-7-20-1-4.2-1.6-8.6-1.8-12.8-.2-.6-1-.6-1 0z"/>
<path fill="#3a2416" fill-rule="nonzero" d="M664 682.8c-.4 1.2.6 2.6 1.8 3.2 1.2.6 2.6 1 3.6 1.6 1.2.6 2.2 2 1.8 3.2-.2.8-.8 1.4-.6 2.2.4 1.6 3.4.2 4.4 1.6.4.6.2 1.4-.2 2-.4.6-1 1.2-1.2 1.8 1.4 1.4 2.8 3.2 2 5-.4.8-1.2 1.2-1.8 1.8-.6.6-1.6 1-1.2 1.8-2.2-.2-4.4 2.2-5.8 3.8 1.8.4 4.2-1.2 5.8-1.8 1.4-.6 3-.4 4.6-.6 1.6-.2 3.2-.4 4.2.8.4.4.6 1 1.2 1.4.4.4 1 .4 1.6.6 1 .2 2 .6 2.8 1.4.6.8.8 2.2 0 2.8l-.4.4c-.2.4.4 1 1 1.2 2.4 1.2 4 4.8 2.4 6.8.4 1 2 2.8 2.8 2 .8-.8 1.8-3.8 1.8-4.8s-1.2-2.2-1-3.4c.4-1.6 1.6-3 1.6-4.6 0-2-1.4-3.4-2.8-4.8-.8-.8-1.4-1.6-1.2-2.6.2-.4.4-.8.6-1.4.6-1.2 0-2.6-1-3.2.8-.8 1.2-1.8 1.4-3 .2-1.2-.2-2.4.2-3.6.2-1.2 1-2.2 1.6-3.4.6-1.2 1-2.4.2-3.6-1-1.8-4-1.4-5-3.2-.4-.8-.4-1.6-.8-2.4-.8-1.6-2.8-2-4.6-2-1.8 0-3.6 0-5-1-.6-.4-1-1.2-1.4-1.6-1.2-.8-2.8-.6-4.2-.2-1.4.6-2.8 1.4-4.2 1.4-1 0-2-.2-2.8.2-2 .8-2.2 2.8-2.2 4.2"/>
<path fill-rule="nonzero" d="M663.6 682.8c-.4 1.8.8 3.2 2.4 4 1 .6 2.2.8 3.2 1.4.6.4 1.2.8 1.6 1.4.4.8 0 1.6-.2 2.4-.6 1.4 0 2.4 1.4 2.6.6.2 1.6-.2 2.2.2.8.4.6 1.4.2 2-.4.6-.8 1-1 1.4-.2.2 0 .4 0 .6.8.8 1.6 1.6 2 2.6.4 1.2-.2 2.2-1.2 3-1 .8-2.2 1.4-2 2.8l.6-.6c-2.6 0-4.6 2.2-6.2 4-.2.2-.2.8.2.8 2.8.6 5.2-2 8-2.4 1.4-.2 3-.4 4.4-.4 1 0 1.6.4 2.2 1.2.4.4.8.8 1.4 1.2 1.4.6 4.2.6 4.2 2.8 0 1-1.4 1.6-.6 2.6.4.4 1 .6 1.4 1 .6.4 1.2 1 1.6 1.6.8 1.2 1 2.8 0 4-.2.2 0 .4 0 .6.4 1 1.4 2.2 2.6 2.4 1 .2 1.6-.6 2-1.4.6-1.2 1-2.6 1.2-3.8.2-1.6-1.2-2.6-.8-4.2.6-1.6 1.6-3 1.4-4.6-.2-1.6-1.2-2.8-2.2-4-.6-.6-1.8-1.6-1.8-2.6 0-.8.8-1.4 1-2.2.2-1.2-.4-2.4-1.6-3 0 .2 0 .6.2.8 1.4-1.6 1.6-3.4 1.4-5.4 0-1.4.4-2.4 1-3.6.4-.8 1-1.6 1.2-2.6.4-1.4-.2-2.8-1.4-3.6-1.4-.8-3.6-.8-4.2-2.6-.6-1.6-.6-2.8-2.4-3.6-1.6-.8-3.4-.6-5-.6-1.2 0-2.2-.4-3.2-1.2-.6-.6-1-1.2-2-1.6-1.6-.6-3.4 0-4.8.6-1.2.6-2.4 1-3.8 1-1 0-2-.2-2.8.4-1.6 1-1.8 3-1.8 4.6 0 .6 1 .6 1 0 0-1.8.4-3.8 2.6-3.8 1.6 0 2.8-.2 4.4-.8 1.8-.8 4-1.8 5.6-.2 1 1 1.8 2 3.4 2.2 1.4.2 3 0 4.4.2.8.2 1.8.4 2.4 1 .6.6.6 1.6 1 2.4.4 1 1.2 1.8 2.2 2.2 1.2.6 3 .8 3.2 2.4.2 2-1.6 3.6-2.2 5.4-.2 1-.2 1.8-.2 2.8 0 1.4-.2 2.6-1.2 3.8-.2.2-.2.6.2.8.6.4 1 1 1 1.8 0 .6-.6 1.2-.8 1.8-.4 1 0 2 .6 2.8.8 1 1.8 1.8 2.6 3 1 1.6.6 3.2-.2 4.8-.4 1-1 1.8-.6 2.8.2 1.2 1 2 .8 3.2-.2 1-.6 2.2-1 3-.8 1.6-2-.2-2.6-1.2v.6c1.6-2.2.4-5.4-1.6-7-.2-.2-.6-.4-.8-.6-.2 0-.2-.2-.4-.2-.4-.2-.4-.4-.2-.6 0-.2.4-.6.4-.8.2-.2.2-.4.2-.8.2-1.4-.8-2.6-2-3.2-.8-.4-1.6-.4-2.4-.8-1-.4-1.2-1.2-2-1.8-1.2-1-2.8-.6-4.2-.6-1.8.2-3.4.2-5.2.8-1.6.6-3.4 2-5.2 1.8 0 .2.2.6.2.8 1.4-1.6 3.2-3.6 5.6-3.6.4 0 .6-.4.6-.6-.2-.6 1.6-1.6 2-2 .6-.6 1.2-1.2 1.2-2.2.2-1.8-1.2-3.6-2.4-4.8v.6c.8-1.2 2.6-3 1.2-4.6-.4-.4-1-.6-1.8-.6-1 0-2.8.2-2.2-1.2.2-.8.8-1.6.6-2.4-.2-.8-.8-1.6-1.4-2.2-1.6-1.4-6.4-1.6-6-4.6.2-.2-.8-.6-.8.2z"/>
<circle cx="295.2" cy="709.4" r="37.8" fill="#fff" stroke="#303591" stroke-width="13.06"/>
<path fill="#c1976b" fill-rule="nonzero" d="M320 740.4c2.8 1.8 4.2 4 6.4 6.4.4.4.8.8 1 1.4.2.6 0 1.2-.6 1.4-.4.2-.8 0-1.2-.2-.6-.2-1.2-.8-1.8-1-.6-.2-1.4-.2-2 .4-1 1 .2 3.4-1.2 3.8-1.2.4-1.8-1.4-3-1.6-.8 0-1.4.8-1.6 1.6-.2.8-.2 1.6-.6 2.4-1.2-.2-1.6-2.2-2.8-2-.6 0-.8.6-1.2 1-.4.4-1 .6-1.4.2-.2-.2-.2-.4-.2-.6-.4-3-.6-6-.8-8.8 0-.8 0-1.8.6-2.2.8.8 2 2.2 2.6 3.2.6-.8-.2-2.8.6-3.6 1.4.2 2.4 1.2 3 2.4.6-.4.6-1.4.2-2-.4-.6-.8-1.4-.4-2 1 0 2.4 2 3.6 3l-1.2-4.2c1-.2 3 1.2 3.6 2"/>
<path fill-rule="nonzero" d="M319.8 740.6c2.2 1.8 4 4 6 6.2.4.4 2 2.6.2 2.4-.6 0-1.2-.6-1.8-1-.8-.4-2-.4-2.6.4-.6.8-.4 1.8-.4 2.6 0 .6-.2 1.2-1 1-.4-.2-.8-.6-1.2-1-.8-.6-1.6-.8-2.4 0-1.2 1-1 2.6-1.4 3.8.2 0 .4-.2.4-.2-1-.2-1.4-1.6-2.4-2-.4-.2-1 0-1.2.2-.4.2-1.2 1.6-1.6.8-.2-.4-.2-1-.2-1.4 0-.4-.2-1-.2-1.4 0-1-.2-1.8-.2-2.8v-2.8c0-.8 0-1.6.6-2.4h-.6c1 .8 2 1.8 2.6 3 .2.2.6.2.8 0 .8-1.2-.2-2.6.6-3.6-.2 0-.4.2-.4.2 1.2.2 2.2 1 2.8 2.2 0 .2.4.2.6.2.6-.4.6-.8.6-1.4 0-1-1-1.8-.6-2.8-.2 0-.4.2-.4.2.6.2 1.2.8 1.8 1.2.6.6 1 1.2 1.6 1.6.2.2.8 0 .6-.4l-1.2-4.2c-.2.2-.2.4-.4.6 1.2 0 2.6 1 3.2 2 .4.4.8-.2.6-.6-.8-1-2.4-2.2-3.8-2.2-.2 0-.4.2-.4.6l1.2 4.2c.2-.2.4-.2.6-.4-1-1-2.2-2.8-3.8-3.2-.2 0-.4 0-.4.2-.2.6-.2 1 0 1.6.2.6 1 1.8.4 2.2.2 0 .4 0 .6.2-.6-1.4-1.8-2.2-3.2-2.6-.2 0-.4 0-.4.2-.8 1.2.2 2.6-.6 3.6h.8c-.6-1.2-1.6-2.2-2.6-3.2-.2-.2-.6-.2-.6 0-1.2 1.2-.8 3.4-.8 5 .2 2.2.2 4.6.8 6.6.4 1.4 1.6 1.2 2.6.4.4-.4.8-.8 1.4-.4.2.2.4.4.6.8.4.4.8.8 1.4 1 .2 0 .4 0 .4-.2.4-1 .6-4.6 2.4-3.6.8.4 1.4 1.6 2.4 1.4 1-.2 1.2-1.2 1.2-2 0-.6-.2-1.2.2-1.8.4-1 1.6-.6 2.4-.2 1 .4 2.4 1.4 3.2.2.8-1 .2-2.2-.6-3-2-2.4-4-5.2-6.8-6.6-1.4.2-1.8.4-1.4.6z"/>
<path fill="#8b6239" fill-rule="nonzero" d="M273.4 727.2c.4 10 3 18 7 21.2-5.2 3.8-11 5.6-15.2 1.2-.4-.4-.6-.8-.8-1.4-.2-.6-.2-1.2-.2-2-.2-2.8-.2-6 .2-9s1.2-6.2 2.6-8.2c.8-1.2 1.8-1.8 2.6-2.4 1.2-.8 2.6-1.8 3.8-.8"/>
<path fill-rule="nonzero" d="M272.8 727.2c.2 4.6.8 9.2 2.2 13.4 1 3 2.4 6.2 5 8.2 0-.4 0-.6.2-1-2.6 2-6 3.8-9.4 3.8-1.6 0-3.2-.8-4.6-1.8-.6-.6-1.2-1.2-1.4-2-.2-1-.2-2-.2-3-.2-3.8 0-7.8 1-11.4.4-1.6 1-3.4 2.4-4.8 1-1 3.6-3.2 4.8-2.2.6.4 1.4-.6.6-1-1.2-.8-2.6-.4-3.8.4-1.4.8-2.6 1.8-3.4 3-1.8 2.6-2.4 6.2-2.8 9.4-.2 2-.2 4-.2 5.8 0 1.6-.2 3.6.6 5 1.2 2.4 4.4 3.8 6.8 3.8 3.6.2 7.2-1.8 10-3.8.2-.2.4-.8.2-1-2.4-2-3.8-5-4.8-7.8-1.4-4.2-2-8.4-2-12.8 0-1-1.2-1-1.2-.2z"/>
<path fill="#cbcbcb" fill-rule="nonzero" d="M259 875.6c16.4 5 34 6.4 51.4 8-16.8 2.6-33.6 4.2-50.6 5-1.4 0-3.2.6-3.2 1.8 0 .6.6 1.2 1.2 1.6 6.6 5.2 15.4 8.2 24.2 9.8 8.8 1.6 17.8 2.2 26.8 3.2 1 .2 2.2.4 2.8 1-14.4 5-30.2 4.8-45.6 4.6l-58.6-.6c-2.2 0-5.4-.6-5.4-2.6 0-.6.4-1.2.6-1.6 3.2-4.6 9-7.4 13.8-11 1-.8 2.2-1.6 2.6-2.8.4-1.2.4-2.6-.8-3.4-.8-.6-2-.6-3-1.2-1.8-1-1.4-3.6.2-4.8 1.6-1.2 3.8-1.8 5.8-2 8.4-1.4 17-3 25.4-4.4 4.2-.8 8.8-1.6 13-.6"/>
<path fill="#c1976b" fill-rule="nonzero" d="M300.4 735.6c-.6-1.6-1.8-2.8-3-3.8-1-1-2.2-2-2-3.2 1.2-.2 2.6 1.6 3.4.6.2-.2.2-.6.2-1 .2-2.2.2-4.4.4-6.6 0-1.4.4-2.6 1.6-3.2-.2 3.2.2 5.8 1.2 8.8 1-.4 1-1.8 1-2.8 0-2.2-.4-5.8 1.8-6.8 1 2.8.6 6.8 1 9.6.6-2 1.2-4 1.6-6.2.2-.6.6-1.6 1.4-1.4.8.2.6 1.6.2 2.4-.8 1.8-1.4 3.6-1.6 5.4 0 .6.2 1.2.6 1.2.2 0 .4-.2.6-.4 1.2-1.4 2.2-2.8 3.4-4 .8.2 1.2 1.2 1 2.2-.2.8-.8 1.6-1.4 2.2-2 2.4-3.6 5.2-4.8 8.2-.2.6-.6 1.4-1 1.8-.6.6-1.6.8-2.6.6-1.6-.2-3-1.8-3-3.6"/>
<path fill-rule="nonzero" d="M300.6 735.6c-.6-1.4-1.4-2.4-2.4-3.4s-2.8-2.2-2.6-3.8c-.2.2-.2.4-.4.4 1-.2 1.8 1 3 .8 1-.2 1-1 1.2-1.8.2-1.6.2-3.4.4-5 0-1.6 0-3.2 1.4-4-.2-.2-.4-.2-.6-.4 0 3 .4 6 1.2 8.8 0 .2.4.4.6.2 1.4-.8 1.2-2.8 1.2-4.2 0-1.8-.2-4.2 1.6-5.2-.2 0-.4-.2-.6-.2 1.2 3 .6 6.6 1 9.6 0 .4.6.4.8 0 .6-2.2 1-4.4 1.8-6.4 0-.6.4-.8 1-.6v.8c-.2.4-.4 1-.6 1.4-.4.8-.6 1.8-1 2.6-.2 1-1 3 0 3.8.4.2.8.2 1.2-.2.8-.6 1.4-1.6 2-2.4.2-.4.6-1 1-1.2.2-.4.4-.4.6 0 .2.2.2.6.2.8 0 1-1 2-1.6 2.8-1.2 1.6-2.2 3.2-3.2 4.8-.4.8-1 1.8-1.2 2.8-.4 1-.8 2.2-1.8 2.6-2 .4-3.8-1.6-4.2-3.4 0-.4-.8-.2-.8.2 0 2 1.6 3.8 3.6 4.2 1 .2 2 0 2.8-.8 1-.8 1.2-2.2 1.8-3.4 1.2-2.6 2.8-5 4.6-7.4 1-1.4 1.6-3.6-.4-4.4-.2 0-.4 0-.4.2l-2.4 3c-.2.2-1 1.4-1.2 1.2-.4-.2.2-1.8.2-2 .2-1.2.6-2.6 1.2-3.8.2-.6.6-1.2.4-2-.2-1.2-1.6-1.4-2.2-.4-.6.8-.8 2-1 3l-1.2 4.2h.8c-.4-3.2-.2-6.4-1-9.6 0-.2-.4-.4-.6-.2-1.4.6-1.8 2.4-2 3.8v2.8c0 1 .2 2.4-.8 3 .2 0 .4.2.6.2-.8-2.8-1.4-5.8-1.2-8.6 0-.4-.4-.6-.6-.4-2.2 1.2-1.8 3.8-2 6 0 .8 0 1.6-.2 2.4 0 .6.2 2.4-.8 2.4-.4 0-1-.4-1.4-.6-.4-.2-.8-.4-1.2-.2-.2 0-.4.2-.4.4-.2 1.4.8 2.4 1.8 3.4 1.4 1.2 2.6 2.4 3.4 4 .2 0 .8-.2.6-.6z"/>
<path fill="#a57c52" fill-rule="nonzero" d="M269.6 867.8c-.6-.4 3.2 4.6 3.2 5.4.2 3.2 1.2 6.6 4 8.2 2.8 1.6 6.6 2.8 10 2.8-6.6.6-14.4.2-20.6 0-2.4-.2-5.8-.4-8.2-.2-1 0-1-.4-1.8-1-.4-.4-.2-1-.4-1.6-1.6-4.4-.6-9 2.2-12.8 2.2-3-.4-6.4 3.2-6 3.6.2 8.6 1.6 8.4 5.2"/>
<path fill-rule="nonzero" d="M269.6 867.4h-.2s-.2 0-.2.2c-.4.8 1.2 2.6 1.8 3.2.4.6 1 1.4 1.4 2 .4 1.2.2 2.4.6 3.6 1.8 5.8 8.4 8 14 8.2v-1.2c-4.8.4-9.4.4-14.2.2-4.4-.2-8.8-.6-13.2-.6-.8 0-1.8.4-2.4-.4-.6-.6-.8-2.4-1-3.2-.4-2.2-.2-4.6.6-6.8.4-1.2 1-2.2 1.6-3.2.4-.8 1-1.4 1.2-2.2.2-.6.2-1.4.4-2.2 0-.6-.2-1.4.2-1.8.6-.6 2 0 2.6 0 1 .2 1.8.4 2.8.8 1.8.6 3.6 1.8 3.6 3.8 0 .8 1.2.8 1.2 0 .4-4-4.8-5.4-7.8-6-1.4-.2-3.2-.6-3.8 1-.2.6-.2 1.4-.2 2.2 0 1.2-.2 2.2-1 3-1.4 2.2-2.6 4.4-2.8 7-.4 2.4.2 4.8.8 7.2.2.8.8 1.6 1.6 1.8.8.4 2 .2 3 .2 2.6 0 5.2.2 7.8.4 6.4.4 12.8.6 19.2 0 .8 0 .8-1.2 0-1.2-3 0-5.8-.8-8.4-2-2.6-1.2-4.2-3.4-4.8-6.4-.2-.8 0-1.8-.4-2.6-.2-.6-.6-1-1-1.6-.4-.6-1-1.4-1.4-2-.2-.2-.4-.6-.6-.8l-.2-.2c0-.2-.2-.2-.4.2-.2 0 0-.4-.4-.6z"/>
<path fill="#c0272d" fill-rule="nonzero" d="M275.2 800c1.8-.8 4.4 2.2 5.4 4 1 1.6 2.6 2.4 2.2 4.2-3.4 14.8-9.4 29.2-12.2 44.2-.8 4.4-.4 6.2 0 10.8.4 4.8 1.6 9 3.4 12.6-9 1.2-9-2-17.8-.8-.4 0-.8 0-1.2-.2-.4-.2-.6-.6-.6-1.2-5-15.6-2.8-33.2 6.2-47.4"/>
<path fill-rule="nonzero" d="M275.4 800.4c1.8-.6 4 2.2 4.8 3.6.4.8 1.2 1.6 1.8 2.4.8 1.2.2 2.8-.2 4.2-1.4 5.8-3.2 11.4-5 17-1.8 5.6-3.6 11.2-5 16.8-1.2 5-2.4 10.2-2 15.4.4 5.8 1.2 11.2 3.8 16.4.2-.4.4-.6.6-1-2 .2-4.2.4-6.2 0-1.4-.2-2.8-.6-4.2-.8-1.8-.4-3.4-.4-5.2-.2-.8 0-2.8.6-3.4 0-.4-.4-.4-1.2-.6-1.6-.2-.6-.4-1.4-.6-2-2.4-9.4-2.2-19.4.4-28.6 1.4-5.4 3.8-10.4 6.6-15 .4-.8-.6-1.4-1.2-.6-5.4 8.6-8.4 18.8-8.8 29-.2 5 .4 10 1.4 14.8.2 1.2.6 2.4 1 3.6.2.8.6 1.8 1.6 2 1 .2 2.2-.2 3.2-.2h3.4c1.8.2 3.4.6 5.2 1 2.4.4 4.8.4 7.2 0 .4 0 .8-.4.6-1-2.6-5.2-3.2-10.6-3.6-16.2-.4-5.6 1.2-11.4 2.6-16.8 1.6-6 3.4-11.8 5.4-17.6 1-3 1.8-6 2.6-9 .4-1.4.8-2.8 1-4.2.4-1.2 1-2.8.8-4.2 0-1-.8-1.8-1.4-2.4-.8-.8-1.4-1.8-2-2.8-1-1.2-3-3.2-4.8-2.4-.4-.2-.2.6.2.4z"/>
<path fill="#c0272d" fill-rule="nonzero" d="M260.8 826.6c-.8-6-.8-13.4 2.6-18.4 1.4-2.2 3.6-3.8 5.8-5.4 1.8-1.2 3.8-2.2 5.8-2.8 2-.6 7.6 1.4 9.2 2.8"/>
<path fill-rule="nonzero" d="M261 826.6c.2-1.8-.2-3.6-.2-5.2 0-1.8 0-3.8.4-5.6.6-3.8 2.2-7.2 5-9.8 1.6-1.4 3.2-2.6 5-3.6 1.6-.8 3.2-1.6 5-1.6 1.4.2 3 .6 4.4 1 1.2.4 2.2 1.2 3.4 1.4.4 0 .6-.4.6-.6-.4-.8-1.4-1.2-2.2-1.6-1.2-.6-2.6-1-3.8-1.2-2.8-.6-5 0-7.6 1.2-3 1.6-5.8 3.8-7.8 6.4-1.8 2.4-2.6 5.4-3 8.4-.2 1.8-.4 3.8-.2 5.6 0 1.6 0 3.6.8 5.2-.2.4.2.4.2 0z"/>
<path fill="#a57c52" fill-rule="nonzero" d="M244.4 883.6c-.8-.4-1.6.6-1.6 1.4.2 3.6 1.4 7.2 4.6 9.2 3.2 2 7 2.2 10.6 2.4-5.6 1.2-11.8 1-17.6.8-4.2-.2-8.8-.6-13 0-1.2.2-1.8-.2-2.8-1-.4-.4-.6-1-.8-1.4-1.6-4.8-.8-10.6 2.2-14.8 2.4-3.2 6.4-5.6 10.4-5.2 4 .4 8 4.4 7.8 8.6"/>
<path fill-rule="nonzero" d="M244.6 883.4c-.6-.2-1.4-.2-1.8.4-.6.8-.4 1.6-.4 2.4.2 2.2 1 4.2 2.2 6 3 4 8.8 4.6 13.4 4.8 0-.4-.2-.8-.2-1.2-5 1-10.2 1-15.4.8-5-.2-10-.4-15 0-2.8.2-3.2-2.8-3.6-5-.2-2.2 0-4.4.6-6.6 1.2-4.2 4.6-8 9-9.2 4.8-1.2 10.4 2.4 10.2 7.6 0 .8 1.2.8 1.4 0 .4-4.4-3.8-8.6-8-9.2-4.8-.6-9.6 2.4-12 6.4-2.6 4.2-3.4 10-1.6 14.6.4 1 1 1.6 1.8 2.2 1 .6 2.2.4 3.2.4 3-.4 6.2-.2 9.4 0 6.8.4 13.8.8 20.4-.8.6-.2.6-1.2-.2-1.2-3.6 0-7.8-.2-11-2.6-1.4-1-2.4-2.6-3-4.2-.2-.8-1.6-5.4.4-5.2.2.2.6-.2.2-.4z"/>
<path fill="#009145" fill-rule="nonzero" stroke="#000" stroke-width="1.26" d="M256.4 758.6l22.4-6.2 7.8 4.4v5.2l-1.2 5.8s-2.6 10.8-2.6 12.8v14.8c0 3-1.2 13.2-2.2 14.8-1 1.6 0-1 0-1l-24.4-28.4-4.6-10.6v-5l4.8-6.6z"/>
<path fill="#009145" fill-rule="nonzero" d="M287.2 747.8c5 .4 10-4 12.2-8.6.4-.6.6-1.4 1.2-1.8.4-.4 1-.4 1.6-.4 1.6-.2 3.4-.2 5-.4-1.2 4.8-2.4 9.4-3.6 14.2-.6 2.6-1.4 5.4-3.2 7.2-1.2 1.2-2.6 2-4 2.6-8 4-16.4 7.4-24.8 10.2-2.4.8-5 1.6-7.2.8"/>
<path fill-rule="nonzero" d="M287.2 748c3.6.4 7-1.6 9.4-4.2 1.2-1.4 2.4-2.8 3.2-4.4.2-.4.4-1 .8-1.2.6-.6 1.8-.6 2.6-.6 1.4-.2 2.6-.2 4-.4-.2-.2-.2-.4-.4-.6l-3 12c-.8 3.4-1.6 7.6-4.6 9.8-1.4 1-3.2 1.8-4.8 2.6-1.8.8-3.6 1.8-5.6 2.6-3.6 1.6-7.4 3.2-11.2 4.6-2.2.8-4.2 1.6-6.4 2.2-2.2.8-4.4 1.4-6.8.8-.6-.2-.8.6-.2.8 3.8 1.2 7.8-.8 11.4-2.2 4-1.4 8-3 12-4.8 3.8-1.6 7.8-3.2 11.4-5.4 3.2-2 4.4-5 5.2-8.4 1.2-5 2.6-9.8 3.8-14.8 0-.2-.2-.6-.4-.6-1.4.2-2.6.2-4 .4-.8 0-1.8 0-2.4.4-1.6.6-2 2.8-3 4.2-2.4 3.4-6.2 6.4-10.6 6.4-.6.4-.6.8-.4.8z"/>
<path fill="#009145" fill-rule="nonzero" d="M280.6 804c-4 .6.2 6.8-3.6 7.6-3.2.6-6.2 1-9.4.8-6-.4-11.4-3.4-16-7.2 2.4-7.6 4.6-15.4 3-23.2-1.2-5.6-3.8-14.4-3.8-20"/>
<path fill-rule="nonzero" d="M280.6 803.6c-2-.2-2.4 1.8-2.4 3.4 0 1 .2 2 0 2.8-.4 1.4-2.8 1.2-3.8 1.4-4.2.6-8.2.6-12-.8-3.8-1.2-7.2-3.4-10.2-5.8 0 .2.2.4.2.6 2.4-7.8 4.6-15.8 2.8-24-1.4-6.4-3.4-12.8-3.8-19.4 0-.6-1-.8-1 0-.2 6.4 2 12.6 3.4 18.8 1 4 1 8 .4 12-.6 4.2-1.8 8.2-3 12.2 0 .2 0 .6.2.6 3 2.4 6.2 4.4 9.8 5.8 4 1.6 8 1.8 12.2 1.2 1-.2 2-.2 3-.4.6-.2 1.4-.2 2-.6.8-.4 1.2-1.2 1.4-2 .2-1 0-2 0-3 0-1.2.4-1.8 1.4-2.6-.2.2-.2-.2-.6-.2z"/>
<path fill="#009145" fill-rule="nonzero" d="M287.2 765.4c-2.2 6.4-5.6 17.2-4.4 23.8 1.2 6.8.6 14.2 0 21.2 0 .8-1.8-.8-2.2 0-.4.8-3.4 0-4.2 0"/>
<path fill-rule="nonzero" d="M286.6 765.2c-2.2 6.4-4.2 13-4.6 19.6-.2 3.8.8 7.4.8 11 0 2.2 0 4.6-.2 6.8s-.6 4.4-.4 6.6v.4l-.2-.2c-.2 0-.6-.2-.8-.2-.6 0-.6.2-1 .4-.8.4-2.6-.2-3.8-.2-.8 0-.8 1.2 0 1.2 1.2 0 2.4.4 3.6.2.4 0 .6-.4 1-.4-.2 0 .4.2.4.2.2 0 .6.2.8.2 1.4 0 1.2-2.2 1.2-3.2.2-2.2.4-4.6.4-6.8v-7c-.2-2-.6-4.2-.8-6.2-.4-3.6.4-7.2 1.2-10.6 1-4 2.2-7.8 3.4-11.6.4-.6-.8-1-1-.2z"/>
<path fill="#009145" fill-rule="nonzero" d="M255.4 772.2c-4-6.4-8.6-17.4-6.8-24.6 1-4 3.4-8.2 7.4-9.2 4.4-1.2 9 1.6 13.2 3.8 8.8 4.6 18.8 6.8 28.8 6"/>
<path fill-rule="nonzero" d="M255.4 772.2c-2-4.6-4.4-8.8-5.8-13.6-1.4-4.8-1.6-9.6.6-14.2 1-2.2 2.6-4.2 4.8-5.2 2.8-1.4 6-.6 8.8.6 2.6 1.2 5 2.8 7.6 4 2.4 1.2 5 2.2 7.6 2.8 6 1.8 12.8 2.8 19 2 .4 0 .6-.8 0-.8-6.4.2-12.6-.2-18.8-2-3-1-6-2-9-3.6-2.6-1.4-5.2-3-8-4-2.4-.8-5-1-7.4 0-2.2 1-3.8 2.8-4.8 4.8-2.4 4.4-2.6 9-1.6 13.8.6 2.8 1.6 5.6 2.8 8.4 1.2 2.4 2.4 5 4.2 7 0 .2 0 .2 0 0z"/>
<path fill="#c1976b" fill-rule="nonzero" d="M256.6 731.4c-2.6-.8-5.4-2.2-6-5-.4-1.2-.2-2.6.2-3.8 1-3.6 3.6-6.6 6.6-8.4 3.2-1.8 7-2.6 10.6-2.4 2 0 4 .4 5.6 1.6 1.6 1.2 2.8 3.2 2.4 5.2-.2 1.2-1 2.4-.8 3.6.2 1.6 2 2.4 3 3.8-1 0-2 1.2-1.6 2.2.2.4.4.8.4 1.2 0 .4-.2.6-.4 1-.6 1.2-.2 2.8-.8 3.8-.6.8-1.4 1-2.4 1.2-1.8.6-3.8 1-5.6.6-.2 0-.6-.2-.8 0-.4.2-.4.4-.6.8-.4 1-.6 1.8-1 2.8"/>
<path fill-rule="nonzero" d="M256.6 731c-2-.6-4.2-1.6-5.2-3.4-1.4-2.2-.6-5 .6-7 2-4.2 6.2-6.8 10.6-7.8 4-.8 11.2-1 12.8 3.8.6 2.2-1.4 4-.6 6.2.4 1.6 2.2 2.4 3.2 3.6.2-.2.2-.6.4-.8-1.2 0-2.4 1.2-2.2 2.4 0 .6.6 1 .2 1.8-.2.4-.4.8-.4 1.2-.2 1.2 0 2.6-1 3.4-.8.6-2.2.8-3.2 1.2-1.4.4-2.6.4-4.2.2-2-.2-2.4 2.4-2.8 3.8-.2.6.8.8 1 .2.4-1 .6-3 1.8-3.2.4 0 1 .2 1.4.2h1.4c1.6-.2 3.6-.6 4.8-1.4 1.4-.8 1.4-2.2 1.6-3.6.2-.8.8-1.6.8-2.4 0-.4-.2-.6-.2-.8-.2-.8-.2-1.8 1-2 .4 0 .6-.4.4-.8-1.4-1.6-3.4-2.4-2.8-5 .6-1.8 1.2-3.2.4-5-1.6-3.6-5.8-4.2-9.4-4.2-7.4 0-15.8 4.6-16.8 12.4-.6 4.2 2.8 6.8 6.6 7.8.2.2.4-.6-.2-.8z"/>
<path fill="#c1976b" fill-rule="nonzero" d="M273.2 725.8c-.2.4 0 .8.2 1"/>
<path fill-rule="nonzero" d="M272.8 725.6c0 .2-.2.2-.2.4v.4c0 .2 0 .2.2.4 0 0 0 .2.2.2l.2.2h.2s.2 0 .2-.2l.2-.2v-.4.2-.2.2-.2.2-.2.2-.2c0-.2 0-.4-.2-.4-.4-.6-.6-.6-.8-.4z"/>
<path fill="#c1976b" fill-rule="nonzero" d="M256.8 731.4c-.2 1.4-.4 2.6-.6 4 0 .6-.2 1.4.2 2 .4.8 1.2 1.4 2 1.8 1.8.8 3.6 1.2 5.4 1.2.4 0 .8 0 1-.2.2-.2.4-.6.2-.8"/>
<path fill-rule="nonzero" d="M256.2 731.4c-.2 1-.2 1.8-.4 2.8-.2.8-.2 1.6-.2 2.4 0 1.6 1 2.6 2.4 3.2 1.4.8 3 1.2 4.8 1.2.8 0 1.6.2 2.4-.2.6-.4 1-1.2.6-1.8-.4-.6-1.4 0-1 .6.2.2-1.2.2-1.4.2-.6 0-1.2 0-1.8-.2-1.2-.2-2.4-.6-3.4-1.2-.4-.2-.8-.6-1-1-.2-.6-.2-1.2-.2-1.6.2-1.4.4-2.6.6-4 0-.4 0-.6-.4-.8-.6-.2-1 0-1 .4z"/>
<g>
  <path fill="#8b6239" fill-rule="nonzero" d="M275.4 715.8c-1.6.2-3.4.2-4.8 1-1.6.6-2.8 1.8-3.2 3.4-.2.8 0 1.4-.2 2.2-.4 2.4-2.8 4.2-4.2 6.2-1.2 1.8-1.8 4-2 6.2-.2 1.4-.4 2.8-.4 4.2 0 .8 0 1.8.4 2.6.6 1.4 2.2 2.2 2.8 3.4-3.8-1.8-8.4-1.8-12.2-.2-3.8 1.6-2.4 7.6-3.4 11.6-1-1.4-5.6-5.6-5.8-7.2-.4-2.8-.8-5.8-.4-8.6s1.6-5.8 3.8-7.6c.4-.2.8-.6.8-1 0-.2 0-.6-.2-.8-1-2.2-1.4-4.6-1.4-7 0-.6 0-1.4.4-2 .8-2 3.4-2.8 4.6-4.6.8-1.2 1-2.6 1.8-3.6.6-.8 1.4-1.2 2.2-1.6 1.6-.8 3-1.8 4.6-2.6 1.8-1 3.8-2.2 6-2.2s4.2 1.2 6 2.4c.8.6 1.8 1.4 2.8 1.6.6.2 1 .2 1.6.4 1.2.6 1.6 2 1.2 3.2"/>
  <path fill-rule="nonzero" d="M275.4 715.2c-2.8.2-6.4.6-8.2 3.4-.8 1.4-.4 2.8-.8 4.2-.6 2-2.4 3.2-3.6 4.8-2.2 2.8-2.6 6.2-2.8 9.6-.2 1.4-.4 3 .2 4.4.6 1.4 2.2 2.2 2.8 3.6l1-1c-4-1.8-10.4-2.6-14 .4-3.2 2.6-2 7.8-2.8 11.4.4 0 .8-.2 1.2-.2-1.2-1.6-2.6-2.8-4-4.4-2-2.4-2.2-5-2.2-8 0-4 1-7.2 3.8-10 1.8-2-.2-4.2-.4-6.8-.2-2-.4-4.2 1.2-5.8 1-1 2.2-1.6 3-2.6.8-1 1.2-2 1.6-3 .8-1.6 2.2-2.4 3.8-3.2 3-1.8 6.8-4.8 10.6-3.8 1.8.4 3.2 1.6 4.8 2.6 1.4.8 5.2 2 4.4 4-.2.8 1 1.2 1.4.4 1.2-3.8-2.8-4.2-5.2-5.6-3.4-2.2-6.2-4-10.2-2.4-1.8.8-3.6 1.8-5.4 2.8-1.6.8-3.4 1.6-4.6 3-1.2 1.4-1.4 3.2-2.8 4.6-1 1-2.4 1.8-3.4 3-.8 1.2-1 2.6-1 4.2 0 1 .2 2 .4 2.8.2 1 1 2.4 1 3.4 0 1.4-2.4 3.4-3.2 4.8-.6 1.4-1 3-1.2 4.6-.4 3.2-.6 7.8 1.4 10.6 1.4 2 3.6 3.6 5 5.6.4.4 1 .2 1.2-.2.8-3 0-6.4 1.4-9.2 2-4.4 10-3.2 13.4-1.8.6.2 1.2-.2 1-1-.6-1-1.2-1.6-2-2.4-1.4-1.6-1.2-3.2-1-5 .2-3.4.8-6.8 3.2-9.6 1.4-1.6 3-3 3.4-5.2.2-1.6 0-3 1.4-4.2 1.6-1.4 4-1.6 6.2-1.8.8.2.8-1 0-1z"/>
</g>
<g>
  <path fill="#c0272d" fill-rule="nonzero" d="M282.8 810.2c-2.6 13.4-1.8 25.2-9 36.6-7.2 11.2-16.2 21-25.4 30.6-1.4 1.4-1.4 5.4-3.4 6.2-4 1.4-9.6-3.6-13-6.2-.6-.6-1.4-1.2-1.6-2 0-.4.2-1 .2-1.4 2.6-7 8.2-12.4 13-18.2 4.6-5.8 8.6-13.4 6.6-20.6-.6-2.6-2-5-2.8-7.6-1.8-6.6.8-13.8 3.6-20.2.6-1.2 1-2.6 2.2-3.4 1-.8 2.2-1.2 3.6-1.4 8.4-1.8 16.8-2.8 25.2-3.2 1.2 0 2.4.4 3.6.4 1.2.2-2.6 3.2-2.8 10.4"/>
  <path fill-rule="nonzero" d="M282.4 810.2c-2 7.2-2.2 14.6-3.8 21.8-.8 3.6-1.8 7.2-3.4 10.4-1.8 3.6-4 6.8-6.4 10-4.8 6.6-10.2 12.8-15.8 18.8-1.4 1.6-2.8 3-4.2 4.6-1 1-1.8 2-2.2 3.4-.4 1.2-.6 2.6-1.4 3.6-1 1-2.8.6-3.8.2-3-1-5.4-3.2-8-5.2-.6-.4-1-.8-1.6-1.2-1-1-.6-1.8-.2-3 .8-1.8 1.6-3.4 2.6-5 4-6.2 9.6-11 13.4-17.2 1.8-3 3.2-6.4 3.6-9.8.4-3.8-.6-7-2-10.6-1.6-4-2.2-8-1.4-12.2.8-4 2.4-8 4-11.6 1-2 2.2-3 4.4-3.4l6-1.2c4.2-.8 8.6-1.4 13-1.6 2.2-.2 4.4-.4 6.4-.4 1 0 1.8.2 2.8.4h.6c.4 0 .6.2.2-.4-.4-.8-.2-.2-.2-.2-.4.2-.8 1.6-1 2-.6 1-1 2.2-1.4 3.4-.4 1.6-.6 3.2-.6 4.6 0 .8 1.4.8 1.4 0 .2-3 1-6 2.4-8.6.2-.4.8-1 .6-1.6 0-1-1.2-.8-2-1-4.2-.6-8.6 0-13 .4-4.6.6-9 1.2-13.4 2.2-1.8.4-3.8.6-5.4 1.8-1.4 1.2-2 2.8-2.8 4.4-1.6 3.8-3.2 7.8-3.8 12.2-.2 2-.2 4.2.2 6.2s1.2 4 2 5.8c1.8 4 2.2 8 .8 12.4-2.4 8-8.8 13.6-13.8 20.2-2.2 2.8-4.4 6-5.6 9.4-.6 1.6.4 2.8 1.6 3.8 1.2 1 2.4 2 3.8 2.8 2.4 1.8 5.4 3.8 8.4 3.8s3.6-2.6 4.4-5c.6-1.8 2-3 3.4-4.4 1.6-1.6 3-3.2 4.6-4.8 3-3.2 6-6.6 8.8-10 5.2-6.4 10.6-13.2 13.4-21 2.6-7.4 3.4-15.2 4.2-23 .2-2 .6-4.2.8-6.2.2-.4-.4-.4-.6 0z"/>
</g>
<g>
  <path fill="#754d29" fill-rule="nonzero" d="M522.6 727c-.2-2.2-.6-3.8-.2-5.8h-10.2c0 1.2-.8 2.2-.8 3.2-.2 2.6.4 5.8 3 7.4 1.6 1 4.2 1 5.8 0 1.8-1 3.2-3.2 2.4-4.8"/>
  <path fill-rule="nonzero" d="M523 727c-.2-2-.4-3.8-.2-5.8 0-.2-.2-.6-.4-.6h-10.2c-.2 0-.4.2-.4.4-.2 1-.6 1.8-.8 2.8-.2.8-.2 1.6 0 2.4.2 1.6.6 3.2 1.6 4.4 2.2 2.8 6.2 3 8.8.8 1.4-1.2 2.4-3 1.6-4.8-.2-.6-1 0-.8.4.6 1.4-.6 2.8-1.6 3.6-1.2 1-2.6 1.4-4.2 1.2-3-.4-4.4-3.2-4.6-6 0-.8 0-1.6.2-2.4.2-.8.6-1.8.8-2.6l-.4.4h10.2c-.2-.2-.4-.4-.4-.6-.4 2 0 4 0 6 0 1 1 1 .8.4z"/>
</g>
<g>
  <path fill="#603917" fill-rule="nonzero" d="M531.8 864.8c-1.8 4.6-.6 8 3 11.2 3.6 3.4 9.2 7.4 14 7.6-9.6.6-21.8.6-30.8 0 .8-5.4 2.6-19.4 3.4-24.8"/>
  <path fill-rule="nonzero" d="M531.2 864.6c-.8 2.2-1.2 4.6-.4 6.8.8 2.4 2.6 4.2 4.4 5.8 3.8 3.4 8.6 6.6 13.6 7.2v-1.2c-10.2.6-20.6.6-30.8 0 .2.2.4.6.6.8 1.2-8.2 2.2-16.6 3.4-24.8.2-.8-1.2-1.2-1.2-.4-1.2 8.2-2.2 16.6-3.4 24.8 0 .4.2.8.6.8 10.2.8 20.6.6 30.8 0 .8 0 .8-1.2 0-1.2-4.6-.4-9-3.4-12.4-6.4-1.6-1.4-3.2-3-4.2-5-1-2.2-.6-4.6.2-6.8.2-.8-1-1.2-1.2-.4z"/>
  <g>
    <path fill="#603917" fill-rule="nonzero" d="M531.8 864.8c-3.8-.6-8.2-5.6-10.4-6"/>
    <path fill-rule="nonzero" d="M532 864.2c-2.2-.4-4-1.8-5.6-3-.8-.6-1.6-1.2-2.6-1.8-.6-.4-1.4-1-2.2-1-.8-.2-1.2 1-.4 1.2.8.2 1.4.6 2 1 .8.6 1.8 1.2 2.6 2 1.8 1.2 3.6 2.6 5.8 3 .8-.2 1.2-1.4.4-1.4z"/>
  </g>
</g>
<g>
  <path fill="#2e3191" fill-rule="nonzero" d="M541 802.6c0 5.6-5 20-5.8 25.6C533 841 532.4 846 531 859c-.2 2.6 1.4 4 .8 6.6-.2.8.6 2 0 2.4-.8.6-1.8.6-2.8.6-2.4-.2-7.4 0-9.8-.2"/>
  <path fill-rule="nonzero" d="M540.4 802.6c0 5.8-2.4 11.8-3.8 17.4-1.6 6.2-2.8 12.2-3.8 18.6-.4 3.2-1 6.4-1.4 9.8-.4 3.8-1.2 7.8-1.2 11.4 0 2 .8 3.6.8 5.6v.8c.4.8 0 1.4-1.4 1.8h-1.2c-3.2-.2-6.2 0-9.4-.2-.8 0-.8 1.2 0 1.2 3.2.2 6.6.2 9.8.2 1 0 2.6.2 3.4-.8.6-.8.2-2.6.2-3.6 0-1.8-.8-3.4-.8-5-.2-2.2.4-4.6.6-7 .4-4 .8-8 1.4-11.8 1-7 2.2-13.8 4-20.6 1.6-5.6 3.8-11.8 4-17.6 0-1-1.2-1-1.2-.2z"/>
  <g>
    <path fill="#2e3191" fill-rule="nonzero" d="M541 802.6c-5.8-5.2-14.6-8.6-22.2-8-7.6.6-14.8 3.6-21.6 7.2-.2 4.8 4.4 16.6 4.8 21.4 1.4 17.8 1.8 28 6.6 45 .2.4.2 1 .6 1.2.4.4.8.4 1.2.6 2.4.6 5 .6 7.4-.2-1.4-16.6 0-33.4 4-49.4-3 15.8-6 32.2-2.8 47.8"/>
    <path fill-rule="nonzero" d="M541.4 802.2c-5.6-5-13-8.2-20.4-8.2-8.4-.2-16.8 3.4-24 7.4-.2.2-.4.4-.4.6 0 5.4 2.4 11 3.6 16.2 1.8 6.8 1.6 14 2.4 20.8.6 7 1.6 14 3.2 21 .4 2 1 4 1.4 5.8.4 1.4.6 3.2 1.6 4.2 2 2 6.8 1.2 9.2.6.2 0 .4-.4.4-.6-1.4-16.6 0-33.2 4-49.2-.4-.2-.8-.2-1.2-.4-3 15.8-6 32.2-2.8 48.2.2.8 1.4.4 1.2-.4-3.2-15.8-.2-31.8 2.8-47.6.2-.8-1-1.2-1.2-.4-3 12.2-4.6 24.6-4.6 37.2 0 3.2.2 6.4.4 9.6.2 1.8.4 2.4-1.6 2.8-2.2.2-4.8.4-6-1.8-.6-1.2-.8-3.2-1.2-4.4-.4-1.4-.6-2.8-1-4.2-.6-2.6-1-5.2-1.6-7.8-.8-5.2-1.4-10.4-1.8-15.6-.4-4.8-.4-10-1.2-14.8-.8-4-2-8-3.2-11.8-.4-1.8-1-3.8-1.2-5.6 0-.4-.2-1-.2-1.2.2-.8 0-.2.4-.6.8-1 3.6-1.8 4.8-2.4 6-2.8 12.8-4.8 19.4-4.4 6.6.6 13 3.4 18 7.8.6.6 1.4-.2.8-.8z"/>
  </g>
</g>
<g>
  <path fill="#754d29" fill-rule="nonzero" d="M528 709.2c.8-3 1.2-6.6-.4-9.4-1.6-2.8-2.8-5.6-5.6-7.4-1-.6-3.6-1.6-5-1.6-4.6.6-8.8 2.8-10.4 7.2-1.8 4.2-1.2 9.2-.2 13.6.4 2.4 1 4.8 2.2 6.8 1.2 2.2 3 4 5.2 4.8 3.8 1.2 7.8-.8 10.2-4 2.4-3 3.4-7 4.2-10.8"/>
  <path fill-rule="nonzero" d="M528.4 709.4c.6-3 1.2-6.4-.2-9.2-1.2-2.6-2.8-5.6-5.2-7.4-1.8-1.4-4.2-2.4-6.4-2.2-2.6.4-5.4 1.4-7.4 3.2-5.2 4.4-4.6 12.2-3.4 18.2 1 5.6 4 13 11 12.2 7.6-.8 10.4-9 11.6-15.4.2-.6-.8-.8-1-.2-1.2 5.2-2.8 11.4-8 13.8-2.8 1.4-6 1-8.4-1-2.2-2-3.2-4.8-4-7.6-1.4-5.4-2.6-12.6.8-17.6 1.6-2.2 3.8-3.6 6.4-4.4 2.4-.8 4.6-.6 6.8.6 2.6 1.4 4.2 4 5.6 6.6 1.8 3.2 1.6 6.4.8 10 0 .6.8 1 1 .4z"/>
</g>
<g>
  <path fill="#603917" fill-rule="nonzero" d="M521.4 868.6c-1.8 2.8-3.4 8.2-2.2 11.4"/>
  <path fill-rule="nonzero" d="M520.8 868.4c-1 1.8-1.8 3.8-2.2 5.8-.4 2-.6 4.2 0 6 .2.8 1.6.4 1.2-.4-.6-1.8-.4-3.8 0-5.4.4-1.8 1.2-3.6 2.2-5.4.4-.8-.8-1.4-1.2-.6z"/>
  <path fill="#603917" fill-rule="nonzero" d="M521.4 868.6c-4.4 0-9 .2-13.4.2h-.4c-.2.2-.2.6 0 .8 1.4 3 2 7.8 1.6 11l10.4-.6s-1.2-3.8-.4-6c.8-1.8 2.2-5.4 2.2-5.4z"/>
  <path fill-rule="nonzero" d="M521.4 868c-2.6 0-5.4.2-8 .2h-4.2c-.8 0-2.4-.2-2.4 1 0 .4.2.8.4 1.2.2.4.4.8.4 1.2.4 1 .6 2 .8 3 .4 2 .4 4 .2 6 0 .4.2.8.6.8 3.4-.2 7-.4 10.4-.6.4 0 .8-.4.6-.8-.6-1.8-1-3.8-.4-5.6.6-2 1.4-3.8 2.2-5.6.4-.8-1-1-1.2-.4-.2.8-.6 1.4-.8 2.2-.4 1.2-1 2.4-1.4 3.8-.6 1.8 0 4.2.6 6 .2-.2.4-.6.6-.8-3.4.2-7 .4-10.4.6.2.2.4.6.6.8.6-3.6.2-7.4-1.2-10.8 0-.2-.2-.4-.2-.6 0-.2 0-.2-.2-.2h6c2.6 0 5-.2 7.6-.2.2 0 .2-1.2-.6-1.2z"/>
  <g>
    <path fill="#603917" fill-rule="nonzero" d="M524.4 883.8c-.8-1.2-4-4.8-5.2-5.8-1.6-1.4-3.2-1.8-5.2-1.4-.8.2-3-.2-3.8.4-3.2 2.4-5 5-7.6 8 2.8 3 7.2 4.6 11.4 4 4.2-.6 8.4-1.6 10.4-5.2"/>
    <path fill-rule="nonzero" d="M524.8 883.4c-1.4-1.6-2.6-3.2-4.2-4.6-1.6-1.8-3.4-3-6-2.8-.6 0-1.2.2-1.8.2h-1.6c-1.2 0-2 .6-3 1.4-2.4 2-4.2 4.6-6.4 7-.2.2-.2.6 0 1 3.2 3.2 7.8 4.8 12.2 4.2 4-.6 8.4-1.6 10.6-5.4.4-.8-.6-1.4-1.2-.6-2 3.4-6 4.2-9.6 4.8-4.2.6-8.4-.8-11.4-3.8v1c2-2 3.6-4.4 5.6-6.2 1-1 1.8-1.8 3.2-1.8 1 0 2 0 3-.2 2.4-.4 4 1.2 5.6 3l3.6 4.2c1 .2 1.8-.8 1.4-1.4z"/>
  </g>
</g>
<g>
  <path fill="#989898" fill-rule="nonzero" d="M509.6 727.6c.4-.2.8-.6 1.2-.8-5 3.4-10 7-15.2 10.4-2 1.4-4.2 3-4.6 5.4-.2 1.6.2 3 .2 4.6 0 2.4-1 4.6-1.8 6.8-2 5.4-2.8 11.4-2 17 0 0-1 4.6.4 7.4 1.6 2.8.4 5.8 4.2 4.8l3.8-1c-.2 3 0 5.8.2 8.8 0 .4.2 1 .4 1.4.8 1.4-2 10-.2 9.8 12.8-2 28.6.2 41.4 2.4.6 0 5.2.8 5.6.4.4-.2-1.8-9.4-1.6-9.8 1-2.2-1.4-9.8-1.2-12.2 0 0 5.2 1.4 8.2 2.4 3 1 3.8.2 4-2.6 0-2.8-1.8-15-1.8-15 .6-6.8-3.8-12.6-7.6-18-.6-.8-1-1.6-1.2-2.6-.4-2.2.8-4.4.4-6.4-.4-2.4-2.6-3.8-4.6-5-3.4-2-6.8-4-10.4-6-.6-.4-1.4-.8-2.2-.8-.8 0-1.4.2-2.2.4-2.2.8-4.6 1.8-6.8 1.4-2.6-.6-6-4.4-5.4-3.8"/>
  <path fill-rule="nonzero" d="M509.6 727.8c.4-.2.8-.6 1.2-.8.4-.2 0-.8-.4-.6-5.4 3.8-11.2 7.4-16.4 11.4-2 1.4-3.6 3.2-3.6 5.8 0 1.6.4 3 .2 4.6-.2 1.8-.8 3.4-1.6 5-1.2 2.8-2 5.8-2.4 8.8-.2 1.6-.4 3-.4 4.6 0 1.4.4 3 .2 4.4 0 1.8-.4 3.4-.2 5.2.2 1 .4 1.8 1 2.8.4 1 .6 2 1 3 1 3.4 5 1.4 7.6.8-.2-.2-.4-.2-.6-.4-.2 2.6 0 5 .2 7.6 0 .8.2 1.8.4 2.6.2.4.2.8.2 1.2-.2 2.4-1 4.8-1 7.2 0 .6 0 1.4.6 1.8.4.2.8 0 1.2 0 1.2-.2 2.4-.4 3.6-.4 4.4-.4 9-.4 13.4 0 8.4.4 16.6 2 24.8 3.2 1.2.2 2.6.4 3.8.4.6 0 1.2 0 1.2-.6.2-.6-.2-1.6-.4-2.2-.2-1.2-.4-2.6-.8-3.8-.2-1-.6-2.2-.6-3.2 0-.8.2-2 .2-3-.2-3.2-1.4-6.4-1.4-9.6-.2.2-.4.2-.6.4 2.6.6 5.2 1.4 7.6 2.2 2.2.8 4.6 1.2 5-1.8.2-2.2-.2-4.4-.4-6.6-.4-2.6-.6-5-1-7.6-.4-2.2-.2-4.4-.6-6.8-1-4-3.2-7.6-5.6-11-1.2-1.8-3-3.6-3-5.8 0-2 1-3.8.4-6-.4-1.4-1.6-2.6-2.8-3.4-1.8-1.4-3.8-2.4-5.8-3.4l-7.2-4.2c-2.2-1-4 0-6 .6-1.4.4-3 1-4.4.6-.8-.2-1.6-.8-2.4-1.2-1-.8-2-1.6-3-2.6-.2.2-.4.4-.6.8.4.4 1-.2.6-.6 0 0 0-.2-.2-.2-.4-.2-.8.4-.6.8 1.4 1.6 3.4 3.2 5.4 3.8 1.8.6 3.6 0 5.2-.6 1-.4 2-.8 3-1 1.4-.4 2.6.4 3.8 1 2 1.2 4 2.4 6 3.4 1.8 1 3.8 2 5.4 3.2 2 1.4 3 3.2 2.6 5.6-.2 1.6-.8 3.4-.2 5 .6 1.8 2 3.2 3 4.8 1.2 1.6 2.2 3.4 3.2 5.2 1 1.8 1.8 3.6 2.2 5.6.4 1.6.2 3 .4 4.6.2 1.6.6 3.2.8 4.8.4 2.6.8 5.2 1 7.8 0 1 .2 2.2 0 3.2-.2 2.2-1.8 1.8-3.4 1.2-2.6-1-5.4-1.6-8-2.4-.2 0-.6.2-.6.4 0 2.6.8 5 1.2 7.6.2 1.2.4 2.6.2 4-.2.6-.2 1 0 1.6.4 2.2.8 4.2 1.2 6.4.2.8.4 1.6.4 2.2 0-.4.2 0 0-.2h-.6c-.6 0-1.2-.2-2-.2-3.2-.4-6.2-1-9.4-1.4-4-.6-8.2-1.2-12.2-1.6-4.2-.4-8.4-.6-12.8-.6-2 0-4 .2-6 .4-.8 0-1.8.2-2.6.2s-1 .4-1.2-.2c-.2-1.2.2-2.6.4-3.6l.6-3.6c.2-1.4-.4-2.4-.4-3.6-.2-2.6-.4-5.4-.2-8 0-.2-.2-.4-.6-.4-.6.2-1.2.4-1.8.4-1 .2-2.4.8-3.4.6-.8-.2-1-1.2-1.2-2-.6-2-1.6-3.6-1.8-5.8-.2-1.4.2-2.8.2-4.2 0-1.2-.2-2.6-.2-3.8 0-1.6 0-3 .2-4.6.4-3 1-6 2.2-8.8 1-2.6 2-5 1.8-7.8-.2-1.4-.6-2.8 0-4.4.4-1.2 1.4-2.2 2.4-3.2 2.6-2.2 5.4-3.8 8.2-5.8 3-2 5.8-4 8.8-6.2-.2-.2-.2-.4-.4-.6-.4.2-.8.6-1.2.8-.6.4-.2 1 0 .8z"/>
</g>
<circle cx="505.4" cy="755" r="24.4" fill="#fff" stroke="#303591" stroke-width="8.43"/>
<g>
  <path fill="#754d29" fill-rule="nonzero" d="M491.8 773.4c-2 2.8-2.8 3.6-5.4 6-.4.4-1 .8-1.6 1-.6.2-1.4 0-1.6-.6-.2-.4-.2-.8 0-1.2.2-.8.6-1.4.8-2 .2-.8.2-1.6-.4-2-1.2-1-3.6.4-4.2-1-.4-1.2 1.4-2.2 1.4-3.4 0-.8-1-1.6-1.8-1.8-.8-.2-1.8-.2-2.6-.4.2-1.4 2.2-2 2-3.2-.2-.6-.6-.8-1.2-1.2-.4-.4-.8-1-.4-1.4.2-.2.4-.2.6-.2 3.2-.6 6.4-1.2 9.6-1.4.8 0 2.2-.2 2.6.6-.6 1-2.6 2-3.6 2.6.8 1 3.2.2 4.4.8-.2 1.4-1 2.8-2.4 3.4.4.6 1.4.4 2.2 0 .6-.4 1.6-1 2.2-.6-1 1.4-2 2.8-3 4 1.4-.6 3-1 4.4-1.6.2.8-1.4 2.8-2 3.6"/>
  <path fill-rule="nonzero" d="M491.6 773.2c-1.8 2-3.4 4-5.4 5.8-.4.4-.6.6-1.2.8-.8.4-1.6-.2-1.4-1.2.2-.8.6-1.4.8-2 .2-.8.2-2-.8-2.6-1-.6-2-.2-3-.2-2.2 0-.2-2 .2-2.8.4-.8.4-1.8-.4-2.4-1.2-1-2.8-.6-4-1.2 0 .2.2.2.2.4.2-1.2 2-1.8 2-3.2 0-.8-.8-1.2-1.2-1.6-.2-.2-.4-.8 0-1.2.2-.2.6-.2.8-.2.6-.2 1.2-.2 2-.4 2.4-.4 5-.8 7.4-.8h1.4c.6.2.4.2 0 .6l-.6.6c-.8.6-1.6.8-2.2 1.4-.2.2-.2.4 0 .4 1.2 1.2 3 .4 4.4.8 0-.2-.2-.2-.2-.4-.2 1.4-1 2.6-2.2 3.2-.2.2-.2.4 0 .4 1.2 1.6 3.2-1 4.6-.4 0-.2-.2-.2-.2-.4-1 1.4-2 2.8-3 4-.2.2 0 .6.2.4 1.4-.6 3-1 4.4-1.6-.2 0-.2-.2-.4-.2-.2 1.8-1.6 3-2.2 4-.4.4.2.6.4.4.8-1.2 2.2-2.4 2.4-4 0-.2-.2-.4-.4-.2-1.4.6-3 1-4.4 1.6 0 .2.2.4.2.4 1.2-1.4 2.2-2.6 3-4.2.2-.2 0-.4-.2-.4-.6-.2-1-.2-1.6.2-.8.4-2 1.4-2.6.4v.4c1.4-.8 2.2-2 2.4-3.6 0-.2 0-.4-.2-.4-1.2-.4-3.2.2-4.2-.8v.4c1.2-.6 3-1.2 3.6-2.6v-.4c-1-1.4-3.4-.8-4.8-.6-2.4.2-5 .6-7.4 1.2-.6.2-1.4.2-1.4 1 0 .6.4 1.2.8 1.4.4.4 1.2.8.8 1.6-.2.4-.6.6-.8 1-.4.4-1 1-1 1.6 0 .2 0 .4.2.4 1.2.4 5.4.4 3.8 2.8-.4.8-1.4 1.4-1.2 2.4.2 1 1.2 1.2 2.2 1.2.6 0 1.2-.2 1.8 0 1.4.4 1 1.8.6 2.8-.4 1-1.4 2.4-.2 3.2 1 .8 2.2 0 3-.8 2-2 4-4 5.4-6.4.2.2 0 0-.2 0z"/>
</g>
<circle cx="550.8" cy="763.8" r="10" fill="#fff" stroke="#303591" stroke-width="5.76"/>
<g>
  <path fill="#754d29" fill-rule="nonzero" d="M557.4 770.8c1.8 3 1.8 4.2 2.6 7.6.2.6.4 1.2.2 1.8-.2.6-.6 1.2-1.2 1.2-.4 0-.8-.4-1.2-.6-.4-.6-.8-1.2-1.4-1.8-.6-.6-1.4-1-2-.6-1.4.6-1.4 3.4-3 3.2-1.2-.2-1.2-2.2-2.4-3-.8-.4-1.8 0-2.4.8-.6.6-1 1.6-1.8 2-1-.8-.6-3-1.8-3.2-.6-.2-1 .2-1.6.4-.6.2-1.4.2-1.4-.4v-.8c1-3.2 2.2-6.2 3.4-9 .4-.8.8-1.6 1.8-2 .4 1 .6 2.2.6 3.4 1-.6 2-1.4 2.6-2.6 1.2.8 1.8 2.2 1.8 3.8.8 0 1.2-1 1.2-1.8s0-1.8.6-2.2c.8 1.4 1.4 3 2 4.6.2-1.6.6-3 .8-4.6 1.2.8 2.2 2.8 2.6 3.8"/>
  <path fill-rule="nonzero" d="M557.2 771c.6 1.2 1.2 2.6 1.6 4 .4 1.4.8 2.8 1 4.4 0 .6 0 2-1 1.8-.6-.2-1-.8-1.2-1.2-.4-.4-.6-1-1.2-1.4-.8-.6-2-.8-2.8 0-.8.8-.8 2-1.6 2.6-1.2 1-1.6-1.2-2.2-2-.6-.8-1.4-1-2.2-.8-1.4.6-1.8 2-3 3h.4c-.8-.8-.6-2.2-1.4-3-.4-.4-.6-.4-1.2-.4-.8 0-2.4 1.4-2.2-.4 0-.8.6-1.8.8-2.6.4-1 .6-1.8 1-2.8.4-1 .8-2 1.4-3 .4-.8.8-1.8 1.6-2.2-.2 0-.2-.2-.4-.2.4 1 .6 2.2.6 3.4 0 .2.2.4.4.2 1.2-.6 2-1.4 2.8-2.6h-.4c1.2.8 1.8 2 1.8 3.6 0 .2.2.4.4.2 2-.4.6-3.2 1.8-4.2h-.4c.8 1.4 1.4 3 2 4.6 0 .2.6.4.6 0 .2-1.6.6-3 .8-4.6-.2 0-.4 0-.6.2 1.6.6 2.2 2 2.8 3.4 0 .4.6.2.4-.2-.4-1.4-1.2-3-2.2-4-.2-.2-.4-.2-.6.2-.2 1.6-.6 3-.8 4.6h.6c-.6-1.6-1.2-3.2-2-4.6 0-.2-.4-.2-.4 0-.4.4-.6.8-.6 1.4 0 .8.2 2.4-.8 2.6.2 0 .2.2.4.2 0-1.6-.8-3-2-4-.2-.2-.4-.2-.4 0-.6 1-1.4 1.8-2.6 2.4.2 0 .4.2.4.2 0-1.2-.2-2.4-.6-3.6 0-.2-.2-.4-.4-.2-1.6.6-2.2 2.8-2.8 4.2-1 2.2-1.8 4.4-2.4 6.8-.2.6-.4 1.2.2 1.8.4.4 1 .2 1.6.2.6-.2 1.4-.8 2 0 .2.4.2.8.4 1.2.2.6.4 1.2.8 1.6.2.2.4.2.4 0 1-.8 2.8-4.4 4.2-2.2.6.8.6 2 1.6 2.4 2.6 1.2 2.4-5.4 5.2-2.6.8.8 1.4 2.8 3 2.6 1.2-.2 1.6-1.6 1.4-2.8-.2-1.6-.8-3-1.2-4.6-.4-1.4-1-2.6-1.8-3.8-.8-.2-1.2 0-1 .2z"/>
</g>
<g>
  <path fill="#f6921e" fill-rule="nonzero" d="M670.6 720.2c-3.6 6.2-7.4 12.4-11.6 18.4-1.6 2.4-3.4 4.8-5.6 6.6-6.2 5-14.8 4.4-22.6 5.8-.4 0-1 .2-1.2.6-.4.4-.4.8-.4 1.4v6.6c5.4 0 10.8-1 16-2.2 5.8-1.2 11.4-2.4 17.2-3.6 1.8-.4 3.6-.8 5.2-1.8 2-1.4 3.2-3.6 4.4-5.6 3.8-6.8 7.4-13.4 11.2-20.2"/>
  <path fill-rule="nonzero" d="M670.2 719.8l-7.2 12c-2.4 3.8-4.8 8-8 11.2-5.6 6-14.2 5.8-21.8 6.8-1.4.2-3.8.2-4.2 2-.2 1 0 2.4 0 3.4v4c0 .2.2.6.6.6 4.6 0 9.2-.8 13.6-1.6 4.6-1 9.4-2 14-3 2.4-.4 4.6-1 7-1.6 1.8-.4 3.6-1 5.2-2.4 1.4-1.2 2.4-2.8 3.2-4.4 1.2-2 2.4-4.2 3.6-6.4 2.6-4.8 5.4-9.6 8-14.4.4-.6-.6-1.2-1-.6l-6.6 12c-1.2 2-2.2 4-3.4 6-1 1.8-1.8 3.6-3 5.2-2.8 3.8-7.4 4-11.8 5s-8.8 2-13.4 2.8c-5 1-10.2 2.2-15.4 2l.6.6v-3.2c0-1-.2-2.2 0-3.2.2-1.4 1.6-1.6 2.8-1.8 1-.2 2.2-.2 3.2-.4 3.6-.4 7.2-.8 10.8-1.6 3.4-1 6.6-2.4 9-5 3-3 5.2-6.8 7.4-10.2 2.8-4.4 5.6-8.8 8.2-13.4-.2-.4-1.2-1-1.4-.4z"/>
</g>
<g>
  <path fill-rule="nonzero" d="M665.2 722.2c.2 2 .2 4.2-.2 6.2 0 .2 0 .6.4.6.2 0 .6 0 .6-.4.4-2.2.4-4.4.2-6.4 0-.2-.2-.6-.6-.6 0 0-.4.2-.4.6z"/>
</g>
<g>
  <path fill-rule="nonzero" d="M677.6 737.2c.4-.2.8-.6 1-1 .4-.2.6-.6 1-.8.8-.4 1.6-.8 2.4-.8.2 0 .6-.2.6-.6 0-.2-.2-.6-.6-.6-1 0-1.8.4-2.8.8-.4.2-.8.6-1.2.8-.4.4-.6.8-1 1-.2.2-.4.4-.2.8s.6.4.8.4z"/>
</g>
<g>
  <path fill="#b2b2b2" fill-rule="nonzero" d="M965.6 884.8c-15.8 5-32.6 7-49.2 9 16.2 1.6 32.6 2.4 49 2.6 1.4 0 3.2.4 3.2 1.4 0 .6-.6 1-1 1.4-6.2 4.8-14.6 7.8-23 9.6-8.4 1.8-17 2.6-25.6 3.8-1 .2-2.2.4-2.8 1 14 3.8 29.2 3.2 44 2.4 18.8-1 37.6-1.8 56.4-2.8 2.2-.2 5.2-.8 5-2.6 0-.6-.4-1-.6-1.4-3.2-4-9-6.2-13.6-9.2-1-.6-2-1.4-2.6-2.4-.6-1-.4-2.2.6-3 .8-.6 2-.6 2.8-1.2 1.6-1 1.2-3.2-.4-4.2-1.4-1-3.6-1.4-5.6-1.6l-24.6-3c-4.2-.6-8.6-1-12.6 0"/>
</g>
<g>
  <path fill="#c1976b" fill-rule="nonzero" d="M914.8 695.4c-3-.2-4-.2-7.4 0-.6 0-1.2 0-1.8.4-.6.4-.8 1-.6 1.6.2.4.6.6 1 .8.6.2 1.4.4 2 .6.6.2 1.2 1 1.2 1.6-.2 1.4-2.6 2.4-2 3.6.6 1.2 2.4.4 3.4 1.2.6.6.6 1.6.2 2.4-.4.8-1 1.4-1.4 2.2 1 .8 2.8-.4 3.6.6.4.4.2 1 .2 1.6 0 .6.2 1.2.8 1.2.2 0 .4-.2.6-.2 2.6-1.8 4.8-3.8 7.2-6 .6-.6 1.2-1.4 1.2-2.2-1-.2-2.8.4-3.8.8.2-1.2 1.8-2 2-3.4-1.2-.8-2.6-1-4-.6-.2-.8.6-1.4 1.4-1.6.8-.2 1.6-.4 1.8-1.2-.8-1.2-3.2-.4-4.8-.4 1.4-.8 2.6-1.4 4-2.2-.4-1.2-3.8-.8-4.8-.8"/>
  <path fill="#221f1f" fill-rule="nonzero" d="M914.8 695.2c-2-.4-4-.4-6.2-.2-1.2 0-2.6 0-3.4.6-.6.6-1 1.6-.6 2.2.6 1 2 1 2.8 1.4.6.2 1.4.8 1.2 1.6-.2.4-.6.8-.8 1-.4.4-1 1-1.2 1.8-.2.6.2 1.2.8 1.6.8.4 2.4 0 3 .8.6 1.2-1.2 2.8-1.6 4 0 .2 0 .4.2.4.6.4 1.2.4 1.8.2.4 0 .8-.2 1.2 0 .6.2.4 1 .4 1.6 0 .6.2 1.2.6 1.4.6.4 1.2 0 1.8-.4 1.6-1.2 3.4-2.6 4.8-4 1.2-1.2 3.4-2.6 3.4-4.4 0-.2-.2-.4-.4-.4-1.4-.4-2.8.2-4.2.8l.6.6c.2-1.4 1.6-2 2-3.4 0-.2 0-.4-.2-.4-1.2-.8-2.8-1-4.2-.6.2 0 .4.2.6.2-.2-1 2-1.2 2.6-1.8.6-.4.8-1 .2-1.6-1.2-1-3.4-.2-5-.2 0 .2.2.6.2.8 1.4-.8 2.6-1.4 4-2.2.2-.2.2-.4.2-.4 0-1.8-3.6-1.2-4.6-1-.6-.2-.6.8 0 .8s4-.4 4 .4c0-.2.2-.2.2-.4-1.4.8-2.6 1.4-4 2.2-.4.2-.2.8.2.8.8 0 1.6-.2 2.4-.2.4 0 2.6 0 1.6.6-.6.4-1.4.4-2 1-.6.4-.8 1-.6 1.6 0 .2.4.4.6.2 1.2-.4 2.6-.2 3.6.4 0-.2-.2-.4-.2-.4-.4 1.4-1.6 2-2 3.4 0 .4.2.6.6.6 1-.4 2.4-1 3.6-.6-.2-.2-.2-.4-.4-.4 0 1-.8 1.6-1.6 2.4-.6.6-1.2 1.2-2 1.8-1.4 1.2-2.8 2.4-4.4 3.6-1 .8-.8-.8-1-1.4 0-.4-.2-1-.6-1.2-1-.6-2.4.2-3.4-.4 0 .2.2.4.2.4.6-1.2 1.8-2.2 1.8-3.8 0-1-.8-1.6-1.6-1.8-.8-.2-3 0-2-1.4.6-.8 1.4-1.2 1.8-2 .4-1 0-1.8-.8-2.4-.6-.4-1.4-.6-2-.8-.4-.2-.8-.2-1-.4-.6-.8.4-1.2 1-1.4 2.6-.6 5.4 0 8-.2.2-.4.4-1 0-1z"/>
</g>
<g>
  <path fill="#c1976b" fill-rule="nonzero" d="M933.4 693.8c.6-1.6 2-2.8 3.2-4 1-1 2.4-2 2-3.4-1.2-.2-2.8 1.6-3.6.6-.2-.2-.2-.6-.2-1-.2-2.2-.2-4.6-.4-6.8 0-1.6-.4-2.6-1.6-3.4.2 3.4-.2 6-1.2 9.2-1-.4-1-1.8-1-3 0-2.4.4-6-1.8-7-1 3-.6 7-1 10.2-.6-2.2-1.2-4.2-1.8-6.4-.2-.8-.6-1.6-1.4-1.4-1 .2-.6 1.6-.2 2.4.8 1.8 1.4 3.8 1.6 5.8 0 .6-.2 1.4-.6 1.2-.2 0-.4-.2-.6-.4-1.2-1.4-2.2-2.8-3.4-4.2-.8.2-1.2 1.4-1 2.2.2.8.8 1.6 1.4 2.4 2 2.6 3.8 5.4 5 8.6.2.6.6 1.4 1 2 .6.6 1.8.8 2.6.6 1.4-.6 2.8-2.2 3-4.2"/>
  <path fill="#221f1f" fill-rule="nonzero" d="M933.8 694.2c.8-1.8 2.2-2.8 3.6-4.2 1-1 2-2 2-3.6 0-.4-.4-.8-.8-.8s-.8 0-1.4.2c-.4.2-1.2.8-1.4.6-.8-.2-.4-1.8-.4-2.4 0-.8 0-1.8-.2-2.6-.2-2.4.2-5.2-2.2-6.4-.4-.2-1 0-1 .6.2 3-.4 6.2-1.2 9 .4-.2.6-.2 1-.4-.8-.6-.6-2-.6-2.8v-3c-.2-1.6-.6-3.4-2.2-4.2-.4-.2-.8 0-.8.4-.8 3.4-.6 6.8-1 10.2h1.2c-.4-1.4-.8-2.8-1-4-.2-1-.4-2.4-1-3.4-.8-1.2-2.6-1.2-2.8.4 0 .8.2 1.4.4 2 .6 1.2 1 2.4 1.2 3.8 0 .4.4 1.6.2 2-.2.2-.2 0-.4-.4l-.6-.6c-.8-1-1.8-2.2-2.6-3.2-.2-.2-.4-.2-.6-.2-2.2.8-1.6 3.4-.6 5 1.8 2.4 3.4 4.8 4.6 7.6.6 1.2.8 2.6 1.8 3.6.8.8 2 1 3.2 1 2.2-.4 4-2.4 3.8-4.6 0-.6-1-.8-1.2-.2-.4 1.8-1.8 3.6-3.8 3.2-1.2-.2-1.6-1.2-2-2-.4-.8-.8-1.8-1.2-2.6-.8-1.8-1.8-3.4-3-5-.6-1-3.8-4-1.8-5-.2 0-.4-.2-.6-.2.8 1 1.6 1.8 2.2 2.8.6.6 1.2 2 2 2 1.8.2 1.4-2.2 1.2-3.2-.2-1.2-.6-2.2-1-3.2-.2-.4-1.4-2.4-.8-2.8.4-.2.8.6.8.8 0 .2.2.6.2.8.2.6.4 1.2.6 2 .4 1.2.8 2.6 1 3.8.2.6 1 .6 1.2 0 .4-3.2-.2-7 1.2-10.2-.2.2-.6.2-.8.4 1.8 1 1.4 3.6 1.4 5.4 0 1.6-.2 3.6 1.4 4.6.4.2.8 0 1-.4 1-3.2 1.4-6.2 1.4-9.4-.4.2-.6.4-1 .6 1.4 1 1.4 2.4 1.4 4 0 1.8.2 3.6.4 5.4 0 1 .2 2 1.4 2.2 1.2.2 2-1 3-.8-.2-.2-.4-.4-.6-.8.2 1.6-1.8 2.8-2.6 3.6-1 1-2 2.2-2.4 3.6-.4 1.2.6 1.6.8 1z"/>
</g>
<g>
  <path fill="#603917" fill-rule="nonzero" d="M958.2 875c.6-.4-3.4 4.8-3.4 5.6-.2 3.4-1.4 6.8-4.4 8.6-3 1.8-7 2.8-10.4 3 6.8.6 15 .4 21.6 0 2.6-.2 6-.4 8.6-.2 1 0 1-.4 1.8-1 .4-.4.2-1.2.4-1.6 1.6-4.6.6-9.4-2.2-13.4-2.2-3 .6-6.8-3.2-6.4-3.8.4-9.2 1.8-8.8 5.6"/>
  <path fill="#221f1f" fill-rule="nonzero" d="M958.4 875.2c-.2-.4-.2-.4-.4-.4v.2s-.2.2-.2.4c-.2.2-.4.6-.6.8-.6.6-1 1.4-1.4 2-.4.6-.8 1-1 1.6-.4.8-.2 1.8-.4 2.8-.6 3-2.2 5.2-4.8 6.4-2.8 1.4-6 2.2-9 2.2-.8 0-.8 1.2 0 1.2 6 .6 12 .4 18 .2 2.8-.2 5.6-.4 8.4-.4h3.6c1.2 0 1.6-.2 2.4-1 .8-.8.8-1.6 1-2.6.4-1.4.6-2.6.6-4 0-2.6-.6-5.2-2-7.6-.6-1.2-1.6-2-2-3.4-.2-1-.2-1.8-.2-2.8-.2-1.8-1.2-2.4-2.8-2.4-3.4.2-9.8 1.8-9.4 6.4 0 .8 1.2.8 1.2 0 0-3.8 5.4-4.8 8.2-5 .8 0 1.4 0 1.4.8.2.8 0 1.6.2 2.4.2 2 1.4 3.4 2.4 5.2 1.2 2.2 1.8 4.6 1.6 7.2 0 1.2-.4 2.4-.8 3.4-.2 1-.4 2-1.6 2.2-1 0-2-.2-3 0-1.2 0-2.4 0-3.4.2-2.2.2-4.6.2-6.8.4-5.6.2-11.2.4-16.8-.2v1.2c3.4-.2 7-1.2 10-2.8 2.8-1.6 4.4-4.2 5-7.2.2-1 .2-2 .6-3 .6-.8 1.2-1.8 1.8-2.6.4-.4 1-1.2 1-2 0-.4-.2-.6-.6-.4-.8.2-.6.8-.2.6z"/>
</g>
<g>
  <path fill="#282560" fill-rule="nonzero" d="M952.4 804.2c-1.8-.8-9 1.8-10 3.6s-.6 4-.2 5.8c3.4 15.4 12 29.6 14.8 45.2.8 4.6.4 6.6 0 11.2-.4 5.2-1.6 9.4-3.6 13.2 9.4 1.2 9.4-2 18.6-.8.4 0 1 .2 1.4-.2.4-.2.6-.8.8-1.2 5.2-16.2 3-34.8-6.2-49.4"/>
  <path fill="#221f1f" fill-rule="nonzero" d="M952.6 803.8c-1.4-.6-3.4 0-4.8.4-1.8.6-3.8 1.2-5.2 2.4-1.8 1.6-1.4 4.6-1 6.6.6 3.4 1.6 6.6 2.8 9.8 2.2 6.6 5 12.8 7.4 19.2 2.4 6.2 4.8 13 5.2 19.8.2 3.4-.2 7-.8 10.4-.6 3.6-1.6 7.2-3.2 10.4-.2.4 0 1 .6 1 2.2.2 4.6.4 6.8 0 1.6-.2 3-.6 4.6-.8 2.2-.4 4.6-.4 6.8 0 .8 0 1.8.2 2.6-.4.8-.8 1-2.4 1.2-3.4 3-10.2 2.8-21.2.2-31.4-1.6-5.8-4-11.4-7.2-16.4-.4-.8-1.6 0-1.2.6 5.4 8.6 8.4 18.6 9 28.8.2 5-.2 10.2-1.2 15-.2 1.2-.6 2.2-.8 3.4l-.6 1.8c-.4 1-1 .8-1.8.8-2-.2-4.2-.4-6.2 0-1.6.2-3.2.6-4.8.8-2.4.4-4.8.2-7.2 0 .2.4.4.6.6 1 2.8-5.4 3.6-11.2 4-17.4.6-6-1-12-2.8-17.6-2-6.2-4.6-12.4-7-18.4-1.2-3-2.4-6.2-3.4-9.2-1-3-2-6.2-2.4-9.2-.2-1.4-.4-3.4.8-4.4.8-.6 1.8-1.2 2.6-1.6 1-.6 2.2-1 3.4-1.2.8-.2 2-.6 2.8-.2.4.2.6-.4.2-.6z"/>
  <g>
    <path fill="#282560" fill-rule="nonzero" d="M967.6 832c.8-6.2 1-14-2.6-19.4-1.6-2.2-3.8-4-6-5.6-1.8-1.2-4-2.4-6.2-2.8-2.2-.4-8 1.4-9.6 2.8"/>
    <path fill="#221f1f" fill-rule="nonzero" d="M968 832.2c.6-1.4.6-3.2.8-4.6.2-1.8.2-3.6 0-5.2-.2-3.2-1-6.4-2.6-9-1.8-3-4.6-5.2-7.6-7-2.4-1.6-5.2-2.8-8.2-2.4-1.6.2-3.2.6-4.6 1.2-1 .4-2.6.8-3 2-.2.4.2.8.6.8 1.2-.2 2.4-1.2 3.8-1.6 1.4-.6 3-1 4.4-1 1.8-.2 3.8.8 5.4 1.6 1.8 1 3.6 2.2 5.2 3.6 3 2.8 4.6 6.2 5.2 10.2.4 2 .4 4 .4 5.8 0 1.8-.4 3.8-.2 5.8-.2 0 .2 0 .4-.2z"/>
  </g>
</g>
<g>
  <path fill="#603917" fill-rule="nonzero" d="M982.6 891.8c.6-.4 1.4.6 1.4 1.4-.2 3.8-1.2 7.6-4 9.6s-6 2.2-9.2 2.4c4.8 1.4 10.2 1.2 15.2.8 3.6-.2 7.6-.4 11.2.2 1 .2 1.6-.2 2.4-1 .4-.4.6-1 .8-1.6 1.4-5.2.8-11-2-15.4-2.2-3.4-5.6-5.8-9-5.4-3.6.4-7 4.6-6.6 8.8"/>
  <path fill="#221f1f" fill-rule="nonzero" d="M982.6 892.2c1.6-.4.4 4.6.2 5.2-.4 1.6-1.2 3-2.2 4.2-2.4 2.6-6.6 3-10 3-.6 0-.8 1-.2 1.2 5.6 1.6 11.2 1.2 17 .8 3-.2 5.8-.2 8.8 0 .8.2 1.8.4 2.6 0s1.6-1.2 1.8-2c1.8-4.4 1.2-10-.6-14.4-1.6-4-5.2-8-9.8-8.2-4.8-.2-8.8 5-8.4 9.6 0 .8 1.2.8 1.2 0 0-3.8 2.8-8.4 7.2-8.2 4.2.2 7.4 4.4 8.8 8 1.4 3.8 1.8 8.8.4 12.6-.4 1.2-1.2 1.6-2.4 1.4-1.2-.2-2.2-.2-3.4-.2-2.2 0-4.6 0-6.8.2-5.4.4-10.8.6-16-.8 0 .4-.2.8-.2 1.2 4.4-.2 9.6-1 12-5.2 1-1.8 1.6-4 1.8-6 0-1 .2-1.8-.4-2.6-.4-.4-1-.6-1.6-.4-.4.2-.2.6.2.6z"/>
</g>
<g>
  <path fill="#282560" fill-rule="nonzero" d="M942.8 814.8c2.4 14 7.6 26.4 14 38.4 6.4 11.8 14.6 22 22.6 32.2 1.2 1.6 1.4 5.8 3 6.4 3.6 1.6 8.6-3.8 11.8-6.4.6-.6 1.2-1.2 1.4-2 0-.4 0-1-.2-1.4-2.4-7.4-7.4-13-11.6-19-4.2-6.2-7.6-14-6-21.6.6-2.8 1.8-5.2 2.6-7.8 1.6-7-.8-14.4-3.2-21-.4-1.4-1-2.6-1.8-3.6-.8-.8-2-1.2-3.2-1.4-7.4-2-15-3-22.6-3.6-1.2 0-2.2-.2-3.2.4-1 .6-4.2 8-3.6 10.4"/>
  <path fill="#221f1f" fill-rule="nonzero" d="M942.4 814.8c.8 8.2 3.6 16.4 6.8 24 3.2 7.8 7 15.2 11.6 22.2 4.6 7.2 9.8 14 15.2 20.8 1.2 1.4 2.8 3 3.6 4.6.6 1.4.8 2.8 1.4 4.2 1 2.4 3.6 2.6 5.8 1.6 2.8-1.2 5.2-3.6 7.4-5.6 1-1 2.4-1.8 2.4-3.4.2-1.6-1-3.6-1.6-5.2-3.4-7.2-9-12.8-12.8-19.8-2-3.8-3.6-7.8-3.8-12-.2-2.2.2-4.4.8-6.4.6-2 1.6-4 2-6 1-4 .6-8.4-.2-12.4-.6-2.2-1.2-4.4-2-6.4-.6-1.8-1.2-3.8-2.2-5.4-1-1.6-2.4-2.4-4-2.8-2.2-.6-4.2-1-6.4-1.4-4.4-.8-9-1.6-13.4-2-2.6-.2-6.4-1.2-8 1.4-1.4 2.2-2.2 4.6-2.8 7.2-.2 1-.4 2-.2 3 .2.8 1.4.4 1.4-.4-.4-2 .8-4.8 1.6-6.6.4-.8.8-1.8 1.4-2.6.8-1.2 3.2-.8 4.4-.6 4.2.2 8.4.8 12.6 1.6 2 .4 4 .8 6.2 1.2 1.8.4 4.2.6 5.6 2 1.4 1.4 1.8 3.8 2.4 5.4.6 2 1.4 4 1.8 6 1 4 1.6 8.2.6 12.4-.8 3.8-2.8 7.2-3 11-.2 3.6.6 7.2 2 10.6 2.8 6.8 7.6 12.2 11.6 18.2 1 1.4 2 3 2.8 4.6.4.8.8 1.8 1.2 2.8.4.8.8 2 .8 2.8-.2 1.4-2.2 2.6-3.2 3.4-1.2 1-2.4 2.2-3.8 3-1.2.8-2.4 1.6-3.8 1.8-1.6.2-2.2-.6-2.6-2-.4-1.2-.6-2.4-1.2-3.6-.6-1.4-1.8-2.6-2.8-3.8-5-6.2-9.8-12.6-14.2-19.2-8.6-13-15.2-27.4-19-42.4-.4-1.8-1-3.8-1.4-5.6-.4-.8-1-.6-1-.2z"/>
</g>
<path fill="#f05a2a" fill-rule="nonzero" stroke="#f05a2a" stroke-width="1.53" d="M975.2 758.8l-23-6.4-8 4.6v5.4l1.2 6s1.4 10.4.6 13.8c-.8 3.2-3.2 13-3.2 16.2 0 3.2-.2 11.8.8 13.4.8 1.6 6.6 0 6.6 0l25.2-29.6 4.8-11V766l-5-7.2z"/>
<g>
  <path fill="#f05a2a" fill-rule="nonzero" d="M942.8 813.2c4 .8 7.6 0 11.8.8 3.2.6 6.4 1.2 9.6 1 6.2-.4 11.8-3.6 16.6-7.4-2.4-7.8-4.8-16.2-3-24.2 1.2-5.8 4-15 4-21"/>
  <path fill="#221f1f" fill-rule="nonzero" d="M942.6 813.6c1.4.8 3.2.8 5 .8 1.8 0 3.6 0 5.4.2 3.8.4 7.6 1.4 11.4 1.2 6.4-.4 12.2-3.6 17.2-7.6.2-.2.2-.6.2-.8-1.2-4.2-2.4-8.2-3.2-12.6-.6-4.2-.6-8.4.4-12.8 1.4-6.4 3.8-13 3.6-19.8 0-.8-1.2-.8-1.4 0-.6 6.8-2.6 13.6-4 20.2-1.8 8.4.4 17 3 25.2 0-.2.2-.6.2-.8-5 4-10.8 7.2-17.2 7.4-3.6 0-7-.8-10.4-1.2-1.6-.2-3.4 0-5.2-.2-1.6 0-3.2-.4-4.8 0-.4.2-.4.6-.2.8z"/>
</g>
<g>
  <path fill="#221f1f" fill-rule="nonzero" d="M943.2 766.6c2.8 8.6-.4 18-1.8 26.8-.8 4.4-1.2 8.8-1.2 13.4 0 1.6 0 4 .8 5.4.6 1 2.2 2 3.4 2.2 1 .2 1.4-1.4.4-1.4-.8-.2-1.4-.6-2-1-.8-.6-.8-1.6-1-2.6-.2-2-.2-4.2 0-6.2.2-4.4 1-8.6 1.6-13 1.4-7.8 3.4-16 1-23.8 0-1.2-1.4-.8-1.2.2z"/>
</g>
<g>
  <path fill="#c59b6d" fill-rule="nonzero" d="M970 733.8c2.8-.2 6-1 7.4-3.4.6-1.2.8-2.6.8-3.8 0-3.8-2-7.6-4.8-10.2-2.8-2.6-6.4-4.4-10.2-5-2-.4-4.2-.6-6.2.2s-3.6 2.6-3.6 4.6c0 1.4.6 2.6 0 3.8-.6 1.6-2.6 2.2-4 3 1 .6 1.6 1.6 1.2 2.6-.2.4-.6.6-.6 1s.2.8.2 1.2c.4 1.4-.6 2.8 0 4.2.4.8 1.2 1.4 2 1.8 1.8 1 3.6 2 5.6 2 .4 0 .6 0 .8.2.2.2.4.6.4 1 .2 1 .2 2 .4 3"/>
  <path fill="#221f1f" fill-rule="nonzero" d="M970 734.2c3.2-.2 6.8-1.2 8.2-4.4 1.4-3.6 0-8-2-11-2.2-3.4-5.6-5.8-9.4-7-3.6-1.2-8.2-2.2-11.4.2-1.6 1.2-2.4 3-2.2 5 .2 1.4.4 2.8-.8 3.8-.8.8-2 1.2-3 1.8-.2.2-.2.6 0 .8 1 .6 1.2 1.4.6 2.4-.2.2-.4.4-.4.8-.2.8.2 1.6.2 2.4-.2 1.8-.6 3.2.8 4.4 1.4 1.2 3.2 2 5 2.6.4.2.8.2 1.2.2h1.2c.8.4.8 2.8.8 3.6 0 .6 1 .6 1 0-.2-1-.2-2.2-.4-3.2-.2-.6-.4-1.2-1-1.4-.4-.2-1 0-1.4 0-.6 0-1.2-.2-1.8-.4-1.2-.4-2.4-1-3.4-1.8-1.4-1-1.4-2-1.2-3.6.2-1-.2-2.2.2-3.2.2-.6.6-1 .4-1.8-.2-.8-.8-1.4-1.4-1.8v.8c1.2-.8 2.6-1.2 3.6-2.4s.8-2.6.6-4.2c-.4-4.8 5-6 8.8-5.4 7.4 1.2 14.6 6.8 15 14.8 0 2.2-.4 4.4-2.4 5.6-1.6 1-3.6 1.4-5.4 1.6-.6 0-.6.8 0 .8z"/>
</g>
<g>
  <path fill="#221f1f" fill-rule="nonzero" d="M952.4 724.2s.2 0 0 0c.2.2 0 0 0 0 .2 0 .2.2 0 0v.2-.2.4l-.2.2h-.2.2-.2s-.2 0-.2.2c0 0-.2.2 0 .4 0 0 0 .2.2.2 0 0 .2 0 .2.2h.4c.2 0 .2-.2.4-.2.2-.2.2-.2.2-.4v-.4c0-.2-.2-.4-.2-.4-.2-.2-.4-.2-.4 0-.2-.6-.2-.4-.2-.2z"/>
</g>
<g>
  <path fill="#c59b6d" fill-rule="nonzero" d="M972 732.6l.6 4.2c0 .8.2 1.4-.2 2.2-.4.8-1.2 1.4-2 1.8-1.8.8-3.8 1.2-5.8 1.2-.4 0-.8 0-1-.2-.2-.2-.2-.6-.2-1"/>
  <path fill="#221f1f" fill-rule="nonzero" d="M971.6 732.8c.2 1.4.4 2.8.6 4.4 0 .6 0 1.4-.2 1.8-.4.4-.8.8-1.2 1-1.2.6-2.4 1-3.6 1.2-.6.2-1.4.2-2 .2h-.8c-.2-.2-.2-.4-.2-.6 0-.6-1-.6-1 0 0 .8 0 1.4.8 1.6.6.2 1.6.2 2.2.2 1.6-.2 3.2-.6 4.8-1.2 1.4-.6 2.4-1.6 2.4-3.2 0-.8-.2-1.8-.2-2.6-.2-1-.2-1.8-.4-2.8-.4-1-1.4-.8-1.2 0z"/>
</g>
<g>
  <path fill="#3a2416" fill-rule="nonzero" d="M958.4 706.6c-1.6.4-3.4 1.2-4.2 2.8-.8 1.4-.6 3.4.4 4.6 1.8 2.2 5.8 2.2 6.8 4.8.8 2-.8 4.4-2.2 6 .2.6 1.2.6 1.8.4.6-.2 1.2-.6 1.8-.8 1.4-.2 2.6 1.6 2.4 3-.4 1.4-1.6 2.4-3 2.8 1 1.8 3.2 2.6 5.2 3.2 2 .6 3.8 1.4 5.8 1 1-.2 2-.6 2.8-1.2.8-.6 1.6-1.4 2.2-2.4 2-2.6 3.4-5.8 3-9-.2-2.8-1.8-5.2-3.2-7.4-.8-1.2-1.8-2.6-3-3.2-1-.6-2.2-1-3-1.8-.4-.4-.6-1-1.2-1.6-1.4-1.6-4-1-6.2-1.2-1.2-.2-2.4-.6-3.6-.8-1.2-.2-2.6-.2-3.4.8"/>
  <path fill="#221f1f" fill-rule="nonzero" d="M958.2 706.2c-1.8.6-3.8 1.6-4.6 3.4-.8 1.8-.2 3.8 1.2 5.2 1.4 1.2 3.2 1.6 4.8 2.6 3.2 1.8 1.4 5-.6 7.2-.2.2-.2.4 0 .6 1 1.6 2.6.4 3.8 0 1.4-.4 2.4 1.2 2 2.6-.4 1.2-1.6 1.8-2.6 2.2-.2 0-.4.4-.2.8 1 1.6 2.6 2.4 4.4 3.2 2 .8 4.4 1.6 6.6 1.4 4.2-.2 7-4.4 8.4-8 1.8-4.6 0-8.8-2.4-12.6-1.2-1.8-2.4-3.2-4.2-4.2-1.2-.6-1.8-1-2.6-2.2-.4-.6-1-1.2-1.8-1.6-2-.8-4.4-.2-6.6-.8-2.2-.6-4.2-1.2-6.2.4-.4.4.2 1 .6.6 1.8-1.4 4.2-.2 6 .2 1.4.2 3 0 4.4.2 1 .2 1.8.6 2.4 1.4.4.6.8 1.2 1.2 1.6 1.4 1 3 1.4 4.2 2.8 2.4 2.8 4.8 6.8 4.4 10.6-.2 3.6-2.6 8.2-5.8 9.8-2.4 1.2-4.8.4-7.2-.4-2-.6-4.2-1.4-5.4-3.2 0 .2-.2.4-.2.8 2-.6 4.2-2.4 3.2-4.8-.4-.8-1-1.6-2-1.8-.6-.2-1.2 0-1.6.2-.6.2-1.8 1.2-2.4.4v.6c1.4-1.6 2.8-3.4 2.6-5.6-.2-1.6-1.4-2.8-2.8-3.4-1.6-.8-3.8-1.4-4.8-3.2-1.4-3 1.4-5 4-5.8.6-.4.4-1.4-.2-1.2z"/>
</g>
<g>
  <path fill="#f05a24" fill-rule="nonzero" d="M964.6 741.6c-13.8-11.2-24-27-28.2-44.2-.2-.4-.2-1-.8-1.2-.2-.2-.6-.2-1-.2-3.4 0-7 0-10.4.4-.2 4.6 1.4 9.2 3 13.6 6 15 14 29.8 15.4 46 .2 3.6.2 7 1 10.4"/>
  <path fill="#221f1f" fill-rule="nonzero" d="M965.2 741.2c-13.4-11-23.4-26.2-27.8-43-.2-.8-.4-1.8-1-2.4-.8-.6-1.8-.6-2.8-.6-3 0-6 .2-9.2.4-.4 0-.8.2-.8.8-.2 4.8 1.4 9.4 3.2 14 1.8 4.2 3.6 8.6 5.4 12.8 3.8 8.6 7.4 17.4 9.2 26.8 1 5.6.8 11.2 2 16.6.2 1 1.6.6 1.4-.4-1-4.8-.8-9.6-1.6-14.4-.6-4.6-2-9.2-3.4-13.6-3-8.8-7-17.2-10.6-25.8-2.2-5.2-4.4-10.4-4.2-16l-.8.8c2.6-.2 5-.4 7.6-.4.8 0 3-.4 3.4.2.2.4.4 1.2.4 1.4.2.6.2 1 .4 1.6 1.2 4 2.6 7.8 4.2 11.6 3.4 7.6 8 14.4 13.4 20.8 3.2 3.6 6.6 6.8 10.2 9.8 1 .6 2-.4 1.4-1z"/>
</g>
<g>
  <path fill="#f05a24" fill-rule="nonzero" d="M972.8 738.6c3.6.8 5.6 4.6 7 8 1.4 3.4 2.6 7 2.8 10.8.2 3.8 0 7.6-1.6 11"/>
  <path fill="#221f1f" fill-rule="nonzero" d="M972.6 739.4c4.8 1.4 6.8 7.4 8 11.6 1.6 5.4 2.2 11.6-.2 16.8-.4.8 1 1.6 1.4.8 2.6-6 2.2-12.4.2-18.6-1.4-4.6-3.6-10.8-9-12.2-1-.2-1.4 1.4-.4 1.6z"/>
</g>
</g>

<g id="data_aa">
<use id="data_a1" x="309.2" y="844.2" transform="translate(396 851.4) scale(0) translate(-396 -851.4)" xlink:href="#el1"/>
<path id="data_a2" fill="none" stroke-dasharray="704.2" stroke-dashoffset="-704.2" stroke="#303591" stroke-width="42" d="M390.366 148v704.2"/>
<use id="data_a3" x="335.4" y="98" transform="translate(390.2 152.8) scale(0) translate(-390.2 -152.8)" xlink:href="#el3"/>
<path id="data_a4" fill="none" stroke-dasharray="380.12" stroke-dashoffset="380.12" stroke="#303591" stroke-width="36" d="M390.366 624.537L638.236 496.2l.386-101.003"/>
<use id="data_a5" x="591.4" y="346.2" transform="translate(638.6 393.4) scale(0) translate(-638.6 -393.4)" xlink:href="#el5"/>
<path id="data_a6" fill="none" stroke-dasharray="274.87" stroke-dashoffset="274.87" stroke="#303591" stroke-width="36" d="M390.366 566.422L232.23 494.417 227.775 393.4"/>
<use id="data_a7" x="180.8" y="346.2" transform="translate(228 393.4) scale(0) translate(-228 -393.4)" xlink:href="#el7"/>
<path id="data_a8" fill="none" stroke-dasharray="366.81" stroke-dashoffset="366.81" stroke="#303591" stroke-width="36" d="M390.366 548.87l114.886-128.987.386-194.083"/>
<use id="data_a9" x="452.4" y="178.6" transform="translate(502.6 225.8) scale(0) translate(-502.6 -225.8)" xlink:href="#el9"/>
<path id="data_a10" fill="none" stroke-dasharray="302.98" stroke-dashoffset="302.98" stroke="#303591" stroke-width="30" d="M390.366 446.022l-81.644-59.456L268.6 188.6"/>
<use id="data_a11" x="228" y="148" transform="translate(268.6 188.6) scale(0) translate(-268.6 -188.6)" xlink:href="#el11"/>
<use id="data_a12" x="744.8" y="840.8" transform="translate(819.2 846.8) scale(0) translate(-819.2 -846.8)" xlink:href="#el12"/>
<path id="data_a13" fill="none" stroke-dasharray="288.2" stroke-dashoffset="-288.2" stroke="#303591" stroke-width="24" d="M819.2 558.6v288.2"/>
<use id="data_a14" x="786.8" y="526.2" transform="translate(819.2 558.6) scale(0) translate(-819.2 -558.6)" xlink:href="#el14"/>
<path id="data_a15" fill="none" stroke-dasharray="240" stroke-dashoffset="-240" stroke="#303591" stroke-width="22" d="M888.4 513.6v138.393L819.2 726.4"/>
<use id="data_a16" x="860.4" y="485.6" transform="translate(888.4 513.6) scale(0) translate(-888.4 -513.6)" xlink:href="#el16"/>
</g>

<a id="trg" >
    <rect width="1200" height="1000" opacity="0" />
</a>
</svg>
