<svg
              version="1.1"
              id="b"
              xmlns="http://www.w3.org/2000/svg"
              xmlns:xlink="http://www.w3.org/1999/xlink"
              x="0px"
              y="0px"
              viewBox="0 0 797.8 225.8"
              style="enable-background: new 0 0 797.8 225.8, fill: #fff;"
              fill="#fff"
              width="200px"
              xml:space="preserve"
              class="logo"
            >
              <g id="c">
                <g>
                  <path
                    class="st0"
                    d="M362.8,36.4h-46c-2.7,0-5.2,1.1-7.1,2.9L276,73c-1.9,1.9-2.9,4.4-2.9,7.1v100.1c0,5.5,4.5,10,10,10h20
              c5.5,0,10-4.5,10-10v-22c0-2.8,2.2-5,5-5h43.5c2.8,0,5,2.2,5,5v21.9c0,5.5,4.5,10,10,10h20c5.5,0,10-4.5,10-10v-100
              c0-2.7-1.1-5.2-2.9-7.1L370,39.3C368,37.4,365.4,36.4,362.8,36.4L362.8,36.4z M313,108.2V94.6c0-1.3,0.5-2.6,1.5-3.5l13.2-13.2
              c0.9-0.9,2.2-1.5,3.5-1.5h17c1.3,0,2.6,0.5,3.5,1.5l13.2,13.2c0.9,0.9,1.5,2.2,1.5,3.5v13.6c0,2.8-2.2,5-5,5h-43.5
              C315.3,113.2,313,110.9,313,108.2L313,108.2z"
                  />
                  <path
                    class="st0"
                    d="M541.3,66.3v-20c0-5.5-4.5-10-10-10h-94.7c-5.5,0-10,4.5-10,10v133.8c0,5.5,4.5,10,10,10h20
              c5.5,0,10-4.5,10-10v-22c0-2.8,2.2-5,5-5H515c5.5,0,10-4.5,10-10v-20c0-5.5-4.5-10-10-10h-43.4c-2.8,0-5-2.2-5-5V81.3
              c0-2.8,2.2-5,5-5h59.7C536.9,76.3,541.3,71.8,541.3,66.3z"
                  />
                  <path
                    class="st0"
                    d="M680.4,36.3H566.9c-5.5,0-10,4.5-10,10v20c0,5.5,4.5,10,10,10H599c2.8,0,5,2.2,5,5v98.8c0,5.5,4.5,10,10,10
              h20c5.5,0,10-4.5,10-10V81.3c0-2.8,2.2-5,5-5h31.3c5.5,0,10-4.5,10-10v-20C690.4,40.8,685.9,36.3,680.4,36.3L680.4,36.3z"
                  />
                  <path
                    class="st0"
                    d="M44.4,222.9L2.9,181.4C1,179.5,0,177,0,174.3V51.9c0-2.7,1.1-5.2,2.9-7.1L44.4,3.3c3.9-3.9,10.2-3.9,14.1,0
              l14.1,14.1c3.9,3.9,3.9,10.2,0,14.1L42.8,61.3c-1.9,1.9-2.9,4.4-2.9,7.1v89.3c0,2.7,1.1,5.2,2.9,7.1l29.8,29.8
              c3.9,3.9,3.9,10.2,0,14.1l-14.1,14.1C54.6,226.8,48.3,226.8,44.4,222.9L44.4,222.9z"
                  />
                  <path
                    class="st0"
                    d="M252.6,175.7l-16.3-31.3c-1-1.9-0.6-4.3,0.9-5.8l13.4-13.4c1.9-1.9,2.9-4.4,2.9-7.1V71c0-2.7-1.1-5.2-2.9-7.1
              l-24.7-24.7c-1.9-1.9-4.4-2.9-7.1-2.9H130c-5.5,0-10,4.5-10,10v133.8c0,5.5,4.5,10,10,10h20c5.5,0,10-4.5,10-10v-22.4
              c0-2.8,2.2-5,5-5h27.4c1.9,0,3.6,1,4.4,2.7l15.4,29.5c1.7,3.3,5.1,5.4,8.9,5.4h22.6C251.3,190.3,256.1,182.4,252.6,175.7
              L252.6,175.7z M165.1,76.3h39.3c1.3,0,2.6,0.5,3.5,1.5l4.2,4.2c0.9,0.9,1.5,2.2,1.5,3.5v18.1c0,1.3-0.5,2.6-1.5,3.5l-4.1,4.1
              c-0.9,0.9-2.2,1.5-3.5,1.5h-39.3c-2.8,0-5-2.2-5-5V81.3C160.1,78.6,162.3,76.3,165.1,76.3L165.1,76.3z"
                  />
                  <path
                    class="st0"
                    d="M739.3,222.4l-14.1-14.1c-3.9-3.9-3.9-10.2,0-14.1l29.8-29.8c1.8-1.9,2.9-4.4,2.9-7.1V68c0-2.7-1-5.2-2.9-7.1
              l-29.8-29.8c-3.9-3.9-3.9-10.2,0-14.1l14.1-14.1c3.9-3.9,10.2-3.9,14.1,0l41.5,41.5c1.8,1.9,2.9,4.4,2.9,7.1v122.4
              c0,2.7-1,5.2-2.9,7.1l-41.5,41.5C749.5,226.4,743.2,226.4,739.3,222.4z"
                  />
                </g>
              </g>
            </svg>