<svg width="95" height="45" viewBox="0 0 95 45" fill="none" xmlns="http://www.w3.org/2000/svg">
<g clip-path="url(#clip0_1958_533)">
<path d="M21.2285 16.1802V14.558H22.1937V10.4805H21.2236V8.73389H26.3973V10.4805H25.4273V14.5567H26.3973V16.1802H21.2285Z" fill="white"/>
<path d="M31.0835 16.1802V14.5579H31.8352V12.8594C31.8352 12.3476 31.4699 12.118 31.0002 12.118C30.4051 12.118 29.9562 12.5566 29.9562 13.1518V14.5579H30.7287V16.1802H26.678V14.5579H27.4088V12.1112H26.678V10.4863H29.8727V11.6062C29.9247 11.5643 29.9771 11.502 30.0187 11.4494C30.6035 10.781 31.2718 10.541 32.1486 10.541C33.3803 10.541 34.3826 11.0418 34.3826 12.4101V14.5572H35.0403V16.1797H31.0835" fill="white"/>
<path d="M41.4909 12.8886L39.3056 13.1291C39.2797 12.5225 39.1547 11.8808 38.4153 11.8808C37.476 11.8808 37.4031 12.6638 37.4031 13.4161V13.4319C37.4031 14.1836 37.476 14.9672 38.4153 14.9672C38.9083 14.9672 39.3432 14.6845 39.3432 14.0863L39.4143 14.087L41.5193 14.0883L41.5015 14.2764C41.1423 16.0475 39.5451 16.3246 38.3945 16.3246C36.5892 16.3246 34.8149 15.4368 34.8149 13.4214V13.427C34.8149 11.4117 36.589 10.5239 38.3945 10.5239C38.3945 10.5239 41.2246 10.3406 41.4909 12.8893" fill="white"/>
<path d="M43.2468 15.38C43.2468 15.8869 42.8359 16.2983 42.3291 16.2983C41.8224 16.2983 41.4116 15.8869 41.4116 15.38C41.4116 14.873 41.8224 14.4614 42.3291 14.4614C42.8359 14.4614 43.2468 14.8725 43.2468 15.38Z" fill="white"/>
<path d="M44.4705 16.147V5.54102H48.0045C50.6432 5.54102 51.5342 6.74534 51.5342 8.36534C51.5342 9.35763 51.0763 10.0997 50.4041 10.5078C51.4309 10.9306 52.0181 11.9453 52.0181 13.0298C52.0181 14.7556 50.7313 16.1473 48.5725 16.1473L44.4705 16.147ZM47.7729 7.5261H47.3951V9.76746H47.7899C48.302 9.76746 48.8664 9.4761 48.8664 8.60127C48.8664 7.74322 48.3421 7.5261 47.7729 7.5261ZM47.924 14.1619C48.8196 14.1619 49.1351 13.5736 49.1351 12.9457C49.1351 12.0546 48.6517 11.7022 47.8061 11.7022H47.3951V14.1619H47.924Z" fill="white"/>
<path d="M71.7966 9.88667V8.01192H70.2441L70.2233 6.10107H67.5775V14.1034C67.5775 15.1674 67.9489 16.1473 69.4171 16.1473H71.7966V14.154H70.8347C70.413 14.154 70.2441 14.019 70.2441 13.5291V9.88641H71.7966V9.88667Z" fill="white"/>
<path d="M63.6183 7.3357C61.3998 7.3357 60.1727 8.68138 60.1727 10.0779C60.1727 11.2555 60.828 12.1977 62.3409 12.6012L63.3493 12.8704C64.0047 13.0388 64.4253 13.2068 64.4253 13.7117C64.4253 14.0819 64.1225 14.4521 63.4334 14.4521C62.7074 14.4521 62.2195 14.0308 62.2403 13.3871L60.1241 14.4203C60.513 15.5425 61.7389 16.2686 63.4331 16.2686C65.7695 16.2686 67.0132 14.9732 67.0132 13.4422C67.0132 11.6928 65.6687 11.1711 64.5256 10.8683L63.3661 10.5655C62.8451 10.431 62.6432 10.1954 62.6432 9.87579C62.6432 9.55621 62.9122 9.18604 63.568 9.18604C64.2142 9.18604 64.6687 9.56155 64.6882 10.1285L66.7226 9.09147C66.4584 8.21943 65.4457 7.3357 63.6183 7.3357Z" fill="white"/>
<path d="M56.3937 14.1153C55.6038 14.1153 55.1836 13.5097 55.1498 12.2647H59.5869C60.0241 9.30363 58.6458 7.36914 56.2088 7.36914C53.8216 7.36914 52.4434 9.32067 52.4434 11.8778C52.4434 14.4687 53.9395 16.2687 56.1918 16.2687C57.8167 16.2687 58.8251 15.623 59.5318 14.4291L57.4535 13.4141C57.1708 13.8552 56.8385 14.1153 56.3937 14.1153ZM56.2591 9.40482C56.8139 9.40482 57.0994 9.90948 57.0829 10.8685H55.1999C55.3515 9.75821 55.8049 9.40482 56.2589 9.40482H56.2591Z" fill="white"/>
<path d="M47.4017 22.0763C47.8882 21.0087 48.6743 20.2969 49.7971 20.2969C51.7992 20.2969 52.9407 22.4693 52.9407 25.2601C52.9407 28.0509 51.7804 30.2236 49.7971 30.2236C48.6934 30.2236 47.9072 29.6055 47.4017 28.5006V33.612H44.4641V20.5031H47.4017V22.0763ZM48.6743 22.9379C47.9448 22.9379 47.3459 23.8557 47.3459 25.2601C47.3459 26.6838 47.9448 27.6011 48.6743 27.6011C49.4414 27.6011 50.0028 26.6836 50.0028 25.2601C50.0028 23.8557 49.4414 22.9379 48.6743 22.9379Z" fill="#FAFAFA"/>
<path d="M38.5004 30.0864H35.5625V17.5757H38.5004V30.0864Z" fill="#FAFAFA"/>
<path d="M28.6191 25.2455C28.6191 28.2681 26.8977 30.2331 24.2776 30.2331C21.6574 30.2331 19.9177 28.2681 19.9177 25.2455C19.9177 22.2038 21.658 20.2388 24.2776 20.2388C26.8972 20.2388 28.6191 22.2038 28.6191 25.2455ZM25.6068 25.2455C25.6068 23.3186 25.0266 22.6761 24.2778 22.6761C23.4546 22.6761 22.9123 23.3186 22.9123 25.2455C22.9123 27.0213 23.436 27.8336 24.2778 27.8336C25.0266 27.8336 25.6068 27.0213 25.6068 25.2455Z" fill="#FAFAFA"/>
<path d="M56.6561 30.0864H53.7456V17.5757H56.6784L56.6561 30.0864Z" fill="#FAFAFA"/>
<path d="M41.5481 24.6484L43.8527 30.1486H40.6156L38.5106 24.6484H41.5481Z" fill="#FAFAFA"/>
<path d="M32.2703 21.8471V20.5991H29.3322V30.1137H32.2703V24.5288C32.5703 23.0161 33.9872 22.8371 34.8348 23.2503V20.5025C34.1612 20.3141 33.1273 20.6126 32.2703 21.8471Z" fill="#FAFAFA"/>
<path d="M64.9128 28.6992V23.4538C64.9128 21.443 63.8238 20.2964 61.364 20.2964C59.497 20.2964 58.307 21.0352 57.9145 22.0916L60.1592 23.2356C60.1592 23.2356 60.1755 23.2331 60.1755 23.2277C60.1912 22.7836 60.3944 22.42 60.9885 22.42C61.5893 22.42 61.9459 22.8146 61.9459 23.5852V24.2055C60.5943 24.4122 59.8447 24.6754 59.1312 25.0699C57.8734 25.7465 57.4413 26.6861 57.4413 27.7387C57.4413 28.9977 58.2676 30.2755 60.0324 30.2566C60.9149 30.2566 61.49 29.8982 62.002 28.8848C62.002 29.7049 62.1989 30.0499 62.1989 30.0499H65.1452L65.1457 29.9755C65.0776 29.7901 64.9122 29.2806 64.9122 28.6994L64.9128 28.6992ZM61.9462 27.0619C61.9462 27.682 61.6271 28.0954 61.0823 28.0954C60.6505 28.0954 60.4168 27.7194 60.4168 27.1745C60.4168 26.7423 60.5377 26.3851 60.876 26.1596C61.1763 25.9529 61.5329 25.8212 61.9462 25.7274V27.0619Z" fill="#FAFAFA"/>
<path d="M69.922 27.798C69.2296 27.798 68.6494 27.1238 68.6494 25.2508C68.6494 23.3779 69.3419 22.7224 70.0155 22.7224C70.4295 22.7224 70.7237 22.9655 70.901 23.3179L73.2546 22.1181C72.6244 20.9733 71.4199 20.2876 70.0155 20.2876C66.9653 20.2876 65.6552 22.7224 65.6552 25.2508C65.6552 28.1913 67.1896 30.2329 69.8471 30.2329C71.7628 30.2329 72.9013 29.3107 73.4385 28.1921L70.9802 26.9916C70.7727 27.5461 70.3805 27.798 69.922 27.798Z" fill="#FAFAFA"/>
<path d="M85.8462 20.2642C83.3762 20.2642 82.0102 21.7624 82.0102 23.317C82.0102 24.6281 82.7397 25.6769 84.4243 26.1264L85.5468 26.4261C86.2763 26.6135 86.7447 26.8006 86.7447 27.3627C86.7447 27.7746 86.4076 28.187 85.6405 28.187C84.8325 28.187 84.2777 27.6833 84.3008 26.9666C84.3008 26.9628 84.2917 26.9598 84.2917 26.9598L81.9464 28.1051C82.3759 29.36 83.7494 30.2097 85.6405 30.2097C88.2416 30.2097 89.6262 28.7674 89.6262 27.0632C89.6262 25.1155 88.1293 24.5348 86.8567 24.1977L85.5658 23.8606C84.9857 23.7109 84.7609 23.4485 84.7609 23.0928C84.7609 22.7371 85.0603 22.325 85.7904 22.325C86.5125 22.325 87.021 22.7453 87.0393 23.3803L87.0482 23.3885L89.3084 22.2406C89.0242 21.2631 87.8951 20.2649 85.8465 20.2649L85.8462 20.2642Z" fill="#FAFAFA"/>
<path d="M77.7329 27.8119C76.8532 27.8119 76.3856 27.1377 76.348 25.7516H81.288C81.7745 22.4552 80.2402 20.3013 77.5271 20.3013C74.8697 20.3013 73.3352 22.474 73.3352 25.3209C73.3352 28.2053 75.0007 30.2092 77.5083 30.2092C79.3507 30.2092 80.4815 29.464 81.2705 28.0873L78.96 26.959C78.6351 27.4952 78.2529 27.8119 77.7331 27.8119H77.7329ZM77.583 22.5675C78.2008 22.5675 78.5185 23.1294 78.5003 24.1969H76.4039C76.5728 22.9608 77.0775 22.5675 77.583 22.5675Z" fill="#FAFAFA"/>
<path d="M16.3179 25.3936L14.627 17.5796H11.8748L10.1841 25.3936L8.67295 17.5796H5.38123L8.2772 30.1826H11.497L13.08 22.7109L14.645 30.1826H17.3494L16.3179 25.3936Z" fill="#FAFAFA"/>
<path d="M20.743 17.5791H17.9189L16.3199 25.4361H18.9672L20.743 17.5791Z" fill="#FAFAFA"/>
<path d="M43.4295 20.5146H39.6854L41.5562 24.0966L43.4295 20.5146Z" fill="#FF7300"/>
<g filter="url(#filter0_d_1958_533)">
<path d="M89.5799 33.3271H65.9005V33.5814H89.5799V33.3271Z" fill="#FF7300"/>
</g>
<path d="M79.0748 41.6957V42.2794H77.1042C77.1042 42.2176 77.0996 42.1423 77.0996 42.0582C77.0996 41.9166 77.1085 41.7666 77.1306 41.6603C77.2721 40.8818 78.4428 40.4707 78.4428 39.8471C78.4428 39.6173 78.3059 39.5023 78.1027 39.5023C77.789 39.5023 77.7313 39.7721 77.7976 40.1171L77.1352 40.1613C76.998 39.5156 77.3028 38.9761 78.1248 38.9761C78.7652 38.9761 79.1497 39.2946 79.1497 39.8473C79.1497 40.7939 77.948 41.0857 77.8817 41.6959H79.0745L79.0748 41.6957Z" fill="#D9D9D9"/>
<path d="M79.6544 40.6693C79.6544 39.5903 80.1627 38.9756 80.9755 38.9756C81.8153 38.9756 82.2039 39.5771 82.2039 40.6164C82.2039 41.7086 81.7752 42.3323 80.9138 42.3323C80.0525 42.3323 79.6544 41.7262 79.6544 40.6693ZM81.4838 40.6297C81.4838 39.8423 81.3291 39.524 80.9534 39.524C80.5958 39.524 80.3791 39.8377 80.3791 40.6472C80.3791 41.4475 80.5381 41.806 80.9356 41.806C81.3202 41.806 81.4835 41.4699 81.4835 40.6297H81.4838Z" fill="#D9D9D9"/>
<path d="M84.7585 41.6957V42.2794H82.7879C82.7879 42.2176 82.7833 42.1423 82.7833 42.0582C82.7833 41.9166 82.7922 41.7666 82.8143 41.6603C82.9558 40.8818 84.1265 40.4707 84.1265 39.8471C84.1265 39.6173 83.9896 39.5023 83.7862 39.5023C83.4727 39.5023 83.4151 39.7721 83.4813 40.1171L82.8189 40.1613C82.6817 39.5156 82.9865 38.9761 83.8085 38.9761C84.4489 38.9761 84.8334 39.2946 84.8334 39.8473C84.8334 40.7939 83.6317 41.0857 83.5654 41.6959H84.7583L84.7585 41.6957Z" fill="#D9D9D9"/>
<path d="M86.0187 40.3775C86.5049 40.3597 86.7302 40.2315 86.7302 39.8687C86.7302 39.599 86.5844 39.5019 86.3812 39.5019C86.116 39.5019 86.0012 39.6435 86.0718 40.1166L85.4134 40.1608C85.2811 39.4975 85.5724 38.9756 86.3987 38.9756C87.035 38.9756 87.4326 39.2586 87.4326 39.7851C87.4326 40.2493 87.1542 40.4751 86.8184 40.5765C87.2646 40.6782 87.4991 40.9744 87.4991 41.3725C87.4991 42.0008 87.0792 42.3323 86.4251 42.3323C85.6608 42.3323 85.3824 41.9784 85.3514 41.324L86.0363 41.2795C86.0627 41.6423 86.1597 41.8058 86.4427 41.8058C86.6548 41.8058 86.7963 41.6552 86.7963 41.3723C86.7963 40.9963 86.5488 40.877 86.0761 40.9035L86.0187 40.3775Z" fill="#D9D9D9"/>
</g>
<defs>
<filter id="filter0_d_1958_533" x="51.9005" y="19.3271" width="51.6793" height="28.2544" filterUnits="userSpaceOnUse" color-interpolation-filters="sRGB">
<feFlood flood-opacity="0" result="BackgroundImageFix"/>
<feColorMatrix in="SourceAlpha" type="matrix" values="0 0 0 0 0 0 0 0 0 0 0 0 0 0 0 0 0 0 127 0" result="hardAlpha"/>
<feOffset/>
<feGaussianBlur stdDeviation="7"/>
<feColorMatrix type="matrix" values="0 0 0 0 1 0 0 0 0 1 0 0 0 0 1 0 0 0 0.7 0"/>
<feBlend mode="normal" in2="BackgroundImageFix" result="effect1_dropShadow_1958_533"/>
<feBlend mode="normal" in="SourceGraphic" in2="effect1_dropShadow_1958_533" result="shape"/>
</filter>
<clipPath id="clip0_1958_533">
<rect width="95" height="45" fill="white"/>
</clipPath>
</defs>
</svg>
