<svg width="823" height="1201" viewBox="0 0 823 1201" fill="none" xmlns="http://www.w3.org/2000/svg">
<g style="mix-blend-mode:soft-light" opacity="0.4">
<path d="M182.533 194.8L355.958 198.987C382.608 199.63 407.527 208.921 426.788 225.395C467.613 260.313 475.351 320.32 445.37 369.505L432.84 390.062C399.525 444.717 336.216 476.113 274.418 468.625L162.142 455.021C91.4471 446.456 41.4516 389.341 43.3265 319.286C48.0024 249.716 111.334 193.081 182.533 194.8Z" fill="#F0336C"/>
</g>
<g style="mix-blend-mode:soft-light" opacity="0.4">
<path d="M434.533 904.8L607.958 908.987C634.608 909.63 659.527 918.921 678.788 935.395C719.613 970.313 727.351 1030.32 697.37 1079.51L684.84 1100.06C651.525 1154.72 588.216 1186.11 526.418 1178.63L414.142 1165.02C343.447 1156.46 293.452 1099.34 295.326 1029.29C300.002 959.716 363.334 903.081 434.533 904.8Z" fill="#F0336C"/>
</g>
<g style="mix-blend-mode:overlay" opacity="0.4">
<path d="M130 0L955 0L955 534L130 534L130 0Z" fill="#26087C"/>
</g>
</svg>
