<?xml version="1.0" encoding="utf-8"?>
<!-- Generator: Adobe Illustrator 26.3.1, SVG Export Plug-In . SVG Version: 6.00 Build 0)  -->
<svg version="1.1" xmlns="http://www.w3.org/2000/svg" xmlns:xlink="http://www.w3.org/1999/xlink" x="0px" y="0px"
	 viewBox="0 0 865 444" style="enable-background:new 0 0 865 444;" xml:space="preserve">
<style type="text/css">
	.st0{fill:#0091E2;}
	.st1{fill:#FFFFFF;}
</style>
<g id="svg250" xmlns:svg="http://www.w3.org/2000/svg" xmlns:sodipodi="http://sodipodi.sourceforge.net/DTD/sodipodi-0.dtd" xmlns:inkscape="http://www.inkscape.org/namespaces/inkscape">
	<rect y="0.4" class="st0" width="865" height="443.6"/>
	
		<sodipodi:namedview  bordercolor="#000000" borderopacity="0.25" id="namedview252" inkscape:current-layer="layer2" inkscape:cx="302.56421" inkscape:cy="278.69454" inkscape:deskcolor="#d1d1d1" inkscape:document-units="mm" inkscape:pagecheckerboard="0" inkscape:pageopacity="0.0" inkscape:showpageshadow="2" inkscape:window-height="1011" inkscape:window-maximized="0" inkscape:window-width="1920" inkscape:window-x="3840" inkscape:window-y="32" inkscape:zoom="0.77504209" pagecolor="#ffffff" showgrid="false">
		</sodipodi:namedview>
	<g id="layer1" inkscape:groupmode="layer" sodipodi:insensitive="true" inkscape:label="Layer 1">
		<path id="path380" sodipodi:nodetypes="ccccc" d="M0,444L865,0l0,0L0,0.8V444z"/>
	</g>
</g>
<g id="Layer_3">
	<g id="Page-1">
		<g id="Black-Next.js" transform="translate(-247.000000, -138.000000)">
			<g id="next-black" transform="translate(247.000000, 138.000000)">
				<g id="EXT-_x2B_-Type-something">
					<path id="EXT" class="st1" d="M118.9,92.3h63v5h-57.3v37.5h53.9v5h-53.9v41.2h57.9v5h-63.7V92.3z M187.6,92.3h6.7l29.7,41.2
						l30.3-41.2L295.6,40l-67.8,97.9l34.9,48.2h-7L224,142.2L192,186h-6.8l35.2-48.2L187.6,92.3z M265.2,97.3v-5H337v5h-33.1V186
						h-5.8V97.3H265.2z"/>
					<polygon id="Type-something" class="st1" points="40,92.3 47.2,92.3 146.8,240.7 105.7,186 46,99.4 45.8,186 40,186 					"/>
				</g>
				<path id="_x2E_JS" class="st1" d="M336.5,179.6c1.2,0,2.1-0.9,2.1-2.1c0-1.2-0.9-2.1-2.1-2.1c-1.2,0-2.1,0.9-2.1,2.1
					C334.4,178.6,335.3,179.6,336.5,179.6z M342.1,174.1c0,3.5,2.5,5.7,6.2,5.7c3.9,0,6.3-2.3,6.3-6.4v-14.3h-3.1v14.3
					c0,2.3-1.1,3.5-3.1,3.5c-1.8,0-3-1.1-3.1-2.8H342.1z M358.7,173.9c0.2,3.6,3.2,5.9,7.7,5.9c4.8,0,7.8-2.4,7.8-6.3
					c0-3-1.7-4.7-5.9-5.7l-2.2-0.5c-2.6-0.6-3.7-1.4-3.7-2.9c0-1.8,1.7-3,4.1-3c2.4,0,4,1.2,4.3,3h3.1c-0.2-3.4-3.2-5.8-7.3-5.8
					c-4.4,0-7.4,2.4-7.4,6c0,3,1.7,4.7,5.3,5.6l2.6,0.6c2.7,0.6,3.9,1.6,3.9,3.1c0,1.8-1.9,3.1-4.4,3.1c-2.7,0-4.6-1.2-4.9-3.1
					H358.7z"/>
			</g>
		</g>
	</g>
	<g id="_x38_NWRsY.tif">
	</g>
	<g id="_2145659161296">
		<g>
			<g>
				<path class="st1" d="M594.8,337.7c-2.4-0.1-4.2,1.7-4.3,4c0,0.1,0,0.2,0,0.3v20.6c-9.9-8-24.5-6.4-32.4,3.5
					c-3.3,4.1-5.1,9.2-5.1,14.5c-0.2,12.7,9.9,23.2,22.7,23.5c12.7,0.2,23.2-9.9,23.5-22.7c0-0.3,0-0.5,0-0.8v-38.6
					c0-1.2-0.4-2.3-1.2-3C597,338.1,595.9,337.7,594.8,337.7L594.8,337.7z M589.3,386.1c-1.4,3.5-4.2,6.2-7.6,7.8
					c-3.7,1.5-7.7,1.5-11.3,0c-3.5-1.5-6.1-4.3-7.6-7.7c-1.5-3.5-1.5-7.6,0-11.2c1.5-3.5,4.2-6.2,7.6-7.6c3.6-1.6,7.6-1.6,11.3,0
					c3.5,1.5,6.2,4.2,7.6,7.7C590.9,378.5,590.9,382.6,589.3,386.1z"/>
			</g>
			<g>
				<path class="st1" d="M642.9,364.2c-8.9-9-23.6-9-32.6,0c-4.3,4.3-6.7,10.2-6.7,16.3c-0.2,12.7,9.9,23.2,22.7,23.5
					c12.7,0.2,23.2-9.9,23.5-22.7c0-0.3,0-0.5,0-0.8c0-3-0.6-6-1.7-8.8C646.9,368.8,645.1,366.4,642.9,364.2L642.9,364.2z M640,386
					c-0.7,1.7-1.8,3.2-3.1,4.5c-1.3,1.3-2.9,2.4-4.5,3.1c-3.7,1.6-7.7,1.6-11.3,0c-3.5-1.4-6.2-4.3-7.7-7.6c-1.5-3.5-1.5-7.6,0-11.2
					c1.5-3.5,4.2-6.1,7.7-7.7c3.6-1.5,7.6-1.5,11.3,0c1.7,0.7,3.2,1.9,4.5,3.2c1.3,1.2,2.4,2.9,3.1,4.5
					C641.5,378.5,641.5,382.6,640,386z"/>
			</g>
			<path class="st1" d="M738.3,361.7c0-0.6-0.2-1.2-0.4-1.7c-0.2-0.5-0.6-0.9-0.9-1.4c-0.4-0.4-0.9-0.7-1.4-0.9
				c-0.5-0.2-1.1-0.4-1.6-0.4c-0.8,0-1.6,0.2-2.4,0.6L707,374v-32c0-1.2-0.4-2.2-1.2-3c-0.8-0.8-1.9-1.3-3-1.3
				c-2.4,0-4.3,1.9-4.3,4.3c0,0,0,0,0,0.1v57.2c0,1.2,0.4,2.2,1.2,3c0.8,0.9,1.9,1.3,3,1.3s2.2-0.4,3-1.3c0.8-0.8,1.3-1.9,1.2-3
				v-14.8l5-3.3l19.1,21.4c0.8,0.7,1.8,1.2,2.9,1.1c0.6,0,1.2-0.1,1.7-0.4c0.5-0.2,0.9-0.5,1.4-0.9c0.4-0.4,0.7-0.9,1-1.4
				c0.2-0.5,0.3-1.1,0.3-1.7c0-1.1-0.4-2.2-1.1-3l-17.7-19.9l17.3-11.2C737.8,364.4,738.4,363.1,738.3,361.7z"/>
			<path class="st1" d="M666.9,370.3c1.3-1.3,2.9-2.4,4.6-3.2c1.9-0.7,3.7-1.1,5.7-1.1c1.7,0,3.4,0.2,5,0.9c1.6,0.6,3.1,1.5,4.4,2.7
				c0.8,0.6,1.8,0.9,2.8,0.9c1.2,0.1,2.4-0.4,3.2-1.2c0.7-0.8,1.2-1.9,1.2-3.1c0-1.2-0.5-2.5-1.5-3.2c-4.2-3.7-9.5-5.8-15.1-5.6
				c-12.7,0-23.1,10.4-23.1,23.1s10.3,23,23,23.1c5.6,0,10.9-2,15.2-5.6c0.9-0.8,1.4-2,1.4-3.2c0.1-2.4-1.7-4.2-4-4.3
				c-0.1,0-0.2,0-0.3,0c-1,0-1.9,0.2-2.7,0.9c-1.3,1.1-2.8,2-4.3,2.7c-1.6,0.6-3.4,0.9-5,0.9c-1.9,0-3.8-0.4-5.7-1.2
				c-1.7-0.7-3.2-1.8-4.6-3.1c-5.7-5.7-5.7-14.8-0.1-20.4C666.9,370.3,666.9,370.3,666.9,370.3z"/>
			<path class="st1" d="M823.8,360.3c-0.9-0.8-1.8-1.4-2.9-1.7c-1.2-0.4-2.5-0.7-3.9-0.9c-1.3-0.2-2.6-0.2-3.9-0.2
				c-2.6,0-5.3,0.4-7.8,1.4c-2.4,0.9-4.7,2.2-6.7,3.8v-0.9c-0.1-2.4-2.1-4.2-4.5-4.1c-2.3,0.1-4.1,1.9-4.2,4.1v37.6
				c0.1,2.4,2.1,4.2,4.5,4.2c2.3-0.1,4.1-1.9,4.2-4.2v-18.8c0-1.9,0.4-3.9,1.2-5.7c0.7-1.7,1.7-3.2,3.1-4.5c1.3-1.3,2.9-2.4,4.5-3.1
				c1.8-0.7,3.7-1.2,5.7-1.2c2,0,3.9,0.4,5.7,1c0.6,0.3,1.2,0.4,1.8,0.4c0.6,0,1.2-0.1,1.7-0.3s0.9-0.6,1.4-1
				c0.4-0.3,0.7-0.9,0.9-1.4c0.2-0.5,0.4-1.1,0.4-1.7C825.1,362.1,824.6,361.1,823.8,360.3z"/>
			<g>
				<path class="st1" d="M783.9,371.7c-3.7-8.6-12.1-14.2-21.4-14.2c-12.7,0-23,10.3-23.1,23l0,0c0,12.7,10.4,23.1,23.1,23.1
					c5.5,0,10.9-2,15-5.6c0.1-0.1,0.2-0.1,0.2-0.1c0.4-0.3,0.7-0.7,0.9-1.1c1.4-2,0.9-4.7-1.1-6.1c-1.6-1.1-3.8-0.9-5.3,0.6
					c-0.1,0.1-0.6,0.5-0.6,0.6l-0.1,0.1c-1.2,1-2.6,1.9-4.2,2.4c-1.6,0.6-3.2,0.9-5,0.7c-1.6,0-3.1-0.2-4.7-0.7
					c-1.4-0.5-2.8-1.2-4-2.1c-1.2-0.9-2.3-2-3.2-3.2c-0.9-1.2-1.6-2.7-2-4.2h32.6c1.1,0,2.2-0.4,3-1.2c0.9-0.7,1.3-1.9,1.2-3
					C785.6,377.5,784.9,374.5,783.9,371.7L783.9,371.7z M748.6,376.3c0.4-1.5,1.1-2.9,2-4.1c0.9-1.2,1.9-2.3,3.2-3.2
					c1.2-0.9,2.6-1.6,4-2.1c1.5-0.5,3-0.7,4.6-0.7c1.5,0,3.1,0.2,4.5,0.7c2.9,0.9,5.5,2.8,7.3,5.3c0.9,1.2,1.6,2.7,2.1,4.1H748.6z"
					/>
			</g>
			<g>
				<path class="st1" d="M809.2,397.4c-1.7,0-3,1.4-3,3c0,1.6,1.4,2.9,3,2.9s3-1.4,3-2.9C812.2,398.7,810.8,397.4,809.2,397.4
					L809.2,397.4L809.2,397.4z M809.2,402.7c-1.3,0.1-2.4-0.9-2.5-2.2c-0.1-1.3,0.9-2.4,2.2-2.5c1.3-0.1,2.4,0.9,2.5,2.2
					c0,0.1,0,0.1,0,0.2C811.5,401.6,810.5,402.7,809.2,402.7C809.2,402.7,809.2,402.7,809.2,402.7z"/>
			</g>
			<g>
				<path class="st1" d="M809.8,400.4L809.8,400.4c0.4-0.1,0.6-0.4,0.6-0.7c0-0.3-0.1-0.5-0.3-0.7c-0.3-0.1-0.6-0.2-1-0.2
					s-0.8,0-1.2,0.1v3h0.7v-1.2h0.2c0.4,0,0.6,0.2,0.7,0.4c0.1,0.2,0.1,0.5,0.2,0.7h0.7c-0.1-0.2-0.2-0.5-0.2-0.7
					C810.4,400.8,810.1,400.5,809.8,400.4L809.8,400.4z M809,400.1h-0.3v-0.9c0.1,0,0.2,0,0.3,0c0.4,0,0.7,0.2,0.7,0.4
					C809.7,400,809.3,400.2,809,400.1z"/>
			</g>
		</g>
		<g>
			<path class="st1" d="M769.8,248.7c-0.4-0.4-4.6-3.5-13.4-3.5c-2.3,0-4.7,0.2-7,0.6c-1.7-11.7-11.4-17.3-11.8-17.6l-2.4-1.4
				l-1.6,2.2c-1.9,3-3.4,6.3-4.2,9.8c-1.6,6.6-0.6,12.9,2.7,18.3c-4,2.3-10.6,2.8-12,2.9H611.8c-2.9,0-5.2,2.2-5.2,5.1
				c-0.1,9.5,1.5,18.9,4.8,27.9c3.7,9.8,9.3,17,16.5,21.5c8.1,5,21.4,7.8,36.3,7.8c6.7,0,13.4-0.6,20.1-1.8
				c9.3-1.7,18.1-4.9,26.3-9.6c6.8-3.9,12.8-8.9,17.9-14.7c8.6-9.8,13.8-20.6,17.5-30.2c0.6,0,1,0,1.6,0c9.4,0,15.2-3.8,18.4-7
				c2.2-2,3.7-4.5,4.9-7.2l0.7-2L769.8,248.7z"/>
			<path class="st1" d="M621.8,256.8h14.5c0.7,0,1.3-0.5,1.3-1.3l0,0v-13c0-0.7-0.6-1.3-1.3-1.3l0,0h-14.5c-0.7,0-1.3,0.6-1.3,1.3
				l0,0v13C620.6,256.3,621.1,256.8,621.8,256.8L621.8,256.8z"/>
			<path class="st1" d="M641.9,256.8h14.5c0.7,0,1.3-0.5,1.3-1.3l0,0v-13c0-0.7-0.5-1.3-1.3-1.3l0,0h-14.5c-0.7,0-1.3,0.6-1.3,1.3
				v13C640.6,256.3,641.2,256.8,641.9,256.8z"/>
			<path class="st1" d="M662.3,256.8h14.5c0.7,0,1.3-0.5,1.3-1.3l0,0v-13c0-0.7-0.6-1.3-1.3-1.3l0,0h-14.5c-0.7,0-1.3,0.6-1.3,1.3
				l0,0v13C661,256.3,661.5,256.8,662.3,256.8L662.3,256.8z"/>
			<path class="st1" d="M682.4,256.8h14.5c0.7,0,1.3-0.5,1.3-1.3v-13c0-0.7-0.5-1.3-1.3-1.3l0,0h-14.5c-0.7,0-1.3,0.6-1.3,1.3l0,0
				v13C681.1,256.3,681.7,256.8,682.4,256.8L682.4,256.8z"/>
			<path class="st1" d="M641.9,238.2h14.5c0.7,0,1.3-0.6,1.3-1.3v-13c0-0.7-0.5-1.3-1.3-1.3l0,0h-14.5c-0.7,0-1.3,0.6-1.3,1.3v13
				C640.6,237.6,641.2,238.2,641.9,238.2z"/>
			<path class="st1" d="M662.3,238.2h14.5c0.7,0,1.3-0.6,1.3-1.3v-13c0-0.7-0.6-1.3-1.3-1.3l0,0h-14.5c-0.7,0-1.3,0.6-1.3,1.3l0,0
				v13C661,237.6,661.5,238.2,662.3,238.2z"/>
			<path class="st1" d="M682.4,238.2h14.5c0.7,0,1.3-0.6,1.3-1.3v-13c0-0.7-0.6-1.3-1.3-1.3h-14.5c-0.7,0-1.3,0.6-1.3,1.3l0,0v13
				C681.1,237.6,681.7,238.2,682.4,238.2z"/>
			<path class="st1" d="M682.4,219.6h14.5c0.7,0,1.3-0.6,1.3-1.3v-13c0-0.7-0.6-1.3-1.3-1.3h-14.5c-0.7,0-1.3,0.6-1.3,1.3l0,0v13
				C681.1,219,681.7,219.6,682.4,219.6z"/>
			<path class="st1" d="M702.6,256.8h14.5c0.7,0,1.3-0.5,1.3-1.3v-13c0-0.7-0.5-1.3-1.3-1.3l0,0h-14.5c-0.7,0-1.3,0.6-1.3,1.3l0,0
				v13C701.4,256.3,702,256.8,702.6,256.8z"/>
		</g>
	</g>
</g>
<g id="Layer_2">
	<g id="_x38_ttwGB.tif">
	</g>
</g>
</svg>
