<svg width="377" height="198" viewBox="0 0 377 198" fill="none" xmlns="http://www.w3.org/2000/svg">
<g opacity="0.5">
<g style="mix-blend-mode:overlay">
<mask id="mask0_1248_47378" style="mask-type:alpha" maskUnits="userSpaceOnUse" x="-1" y="0" width="221" height="198">
<ellipse cx="218.301" cy="195.693" rx="1.69903" ry="1.7632" transform="rotate(-180 218.301 195.693)" fill="#808080"/>
<ellipse cx="203.861" cy="195.693" rx="1.69904" ry="1.7632" transform="rotate(-180 203.861 195.693)" fill="#808080"/>
<ellipse cx="189.421" cy="195.693" rx="1.69903" ry="1.7632" transform="rotate(-180 189.421 195.693)" fill="#808080"/>
<ellipse cx="174.981" cy="195.693" rx="1.69904" ry="1.7632" transform="rotate(-180 174.981 195.693)" fill="#808080"/>
<ellipse cx="218.301" cy="178.064" rx="1.69903" ry="1.7632" transform="rotate(-180 218.301 178.064)" fill="#808080"/>
<ellipse cx="203.861" cy="178.064" rx="1.69904" ry="1.7632" transform="rotate(-180 203.861 178.064)" fill="#808080"/>
<ellipse cx="189.421" cy="178.064" rx="1.69903" ry="1.7632" transform="rotate(-180 189.421 178.064)" fill="#808080"/>
<ellipse cx="174.981" cy="178.063" rx="1.69904" ry="1.7632" transform="rotate(-180 174.981 178.063)" fill="#808080"/>
<ellipse cx="218.301" cy="160.433" rx="1.69903" ry="1.7632" transform="rotate(-180 218.301 160.433)" fill="#808080"/>
<ellipse cx="203.861" cy="160.433" rx="1.69904" ry="1.7632" transform="rotate(-180 203.861 160.433)" fill="#808080"/>
<ellipse cx="189.421" cy="160.433" rx="1.69903" ry="1.7632" transform="rotate(-180 189.421 160.433)" fill="#808080"/>
<ellipse cx="174.981" cy="160.433" rx="1.69904" ry="1.7632" transform="rotate(-180 174.981 160.433)" fill="#808080"/>
<ellipse cx="218.301" cy="142.804" rx="1.69903" ry="1.7632" transform="rotate(-180 218.301 142.804)" fill="#808080"/>
<ellipse cx="203.861" cy="142.804" rx="1.69904" ry="1.7632" transform="rotate(-180 203.861 142.804)" fill="#808080"/>
<ellipse cx="189.421" cy="142.804" rx="1.69903" ry="1.7632" transform="rotate(-180 189.421 142.804)" fill="#808080"/>
<ellipse cx="174.981" cy="142.804" rx="1.69904" ry="1.7632" transform="rotate(-180 174.981 142.804)" fill="#808080"/>
<ellipse cx="218.301" cy="125.174" rx="1.69903" ry="1.7632" transform="rotate(-180 218.301 125.174)" fill="#808080"/>
<ellipse cx="203.861" cy="125.174" rx="1.69904" ry="1.7632" transform="rotate(-180 203.861 125.174)" fill="#808080"/>
<ellipse cx="189.421" cy="125.174" rx="1.69903" ry="1.7632" transform="rotate(-180 189.421 125.174)" fill="#808080"/>
<ellipse cx="174.981" cy="125.174" rx="1.69904" ry="1.7632" transform="rotate(-180 174.981 125.174)" fill="#808080"/>
<ellipse cx="218.301" cy="107.543" rx="1.69903" ry="1.7632" transform="rotate(-180 218.301 107.543)" fill="#808080"/>
<ellipse cx="203.861" cy="107.543" rx="1.69904" ry="1.7632" transform="rotate(-180 203.861 107.543)" fill="#808080"/>
<ellipse cx="189.421" cy="107.543" rx="1.69903" ry="1.7632" transform="rotate(-180 189.421 107.543)" fill="#808080"/>
<ellipse cx="174.981" cy="107.543" rx="1.69904" ry="1.7632" transform="rotate(-180 174.981 107.543)" fill="#808080"/>
<ellipse cx="160.54" cy="195.693" rx="1.69904" ry="1.7632" transform="rotate(-180 160.54 195.693)" fill="#808080"/>
<ellipse cx="146.101" cy="195.693" rx="1.69903" ry="1.7632" transform="rotate(-180 146.101 195.693)" fill="#808080"/>
<ellipse cx="131.66" cy="195.693" rx="1.69903" ry="1.7632" transform="rotate(-180 131.66 195.693)" fill="#808080"/>
<ellipse cx="117.22" cy="195.693" rx="1.69904" ry="1.7632" transform="rotate(-180 117.22 195.693)" fill="#808080"/>
<ellipse cx="160.54" cy="178.063" rx="1.69904" ry="1.7632" transform="rotate(-180 160.54 178.063)" fill="#808080"/>
<ellipse cx="146.1" cy="178.063" rx="1.69904" ry="1.7632" transform="rotate(-180 146.1 178.063)" fill="#808080"/>
<ellipse cx="131.66" cy="178.063" rx="1.69904" ry="1.7632" transform="rotate(-180 131.66 178.063)" fill="#808080"/>
<ellipse cx="117.22" cy="178.063" rx="1.69904" ry="1.7632" transform="rotate(-180 117.22 178.063)" fill="#808080"/>
<ellipse cx="160.54" cy="160.433" rx="1.69904" ry="1.7632" transform="rotate(-180 160.54 160.433)" fill="#808080"/>
<ellipse cx="146.1" cy="160.433" rx="1.69904" ry="1.7632" transform="rotate(-180 146.1 160.433)" fill="#808080"/>
<ellipse cx="131.66" cy="160.433" rx="1.69904" ry="1.7632" transform="rotate(-180 131.66 160.433)" fill="#808080"/>
<ellipse cx="117.22" cy="160.433" rx="1.69904" ry="1.7632" transform="rotate(-180 117.22 160.433)" fill="#808080"/>
<ellipse cx="160.54" cy="142.804" rx="1.69904" ry="1.7632" transform="rotate(-180 160.54 142.804)" fill="#808080"/>
<ellipse cx="146.1" cy="142.804" rx="1.69904" ry="1.7632" transform="rotate(-180 146.1 142.804)" fill="#808080"/>
<ellipse cx="131.66" cy="142.804" rx="1.69904" ry="1.7632" transform="rotate(-180 131.66 142.804)" fill="#808080"/>
<ellipse cx="117.22" cy="142.804" rx="1.69904" ry="1.7632" transform="rotate(-180 117.22 142.804)" fill="#808080"/>
<ellipse cx="160.54" cy="125.174" rx="1.69904" ry="1.7632" transform="rotate(-180 160.54 125.174)" fill="#808080"/>
<ellipse cx="146.1" cy="125.174" rx="1.69904" ry="1.7632" transform="rotate(-180 146.1 125.174)" fill="#808080"/>
<ellipse cx="131.66" cy="125.174" rx="1.69904" ry="1.7632" transform="rotate(-180 131.66 125.174)" fill="#808080"/>
<ellipse cx="117.22" cy="125.174" rx="1.69904" ry="1.7632" transform="rotate(-180 117.22 125.174)" fill="#808080"/>
<ellipse cx="160.54" cy="107.543" rx="1.69904" ry="1.7632" transform="rotate(-180 160.54 107.543)" fill="#808080"/>
<ellipse cx="146.1" cy="107.543" rx="1.69903" ry="1.7632" transform="rotate(-180 146.1 107.543)" fill="#808080"/>
<ellipse cx="131.66" cy="107.543" rx="1.69904" ry="1.7632" transform="rotate(-180 131.66 107.543)" fill="#808080"/>
<ellipse cx="117.22" cy="107.543" rx="1.69904" ry="1.7632" transform="rotate(-180 117.22 107.543)" fill="#808080"/>
<ellipse cx="102.78" cy="195.693" rx="1.69903" ry="1.7632" transform="rotate(-180 102.78 195.693)" fill="#808080"/>
<ellipse cx="88.3398" cy="195.693" rx="1.69903" ry="1.7632" transform="rotate(-180 88.3398 195.693)" fill="#808080"/>
<ellipse cx="73.8997" cy="195.693" rx="1.69903" ry="1.7632" transform="rotate(-180 73.8997 195.693)" fill="#808080"/>
<ellipse cx="59.46" cy="195.693" rx="1.69903" ry="1.7632" transform="rotate(-180 59.46 195.693)" fill="#808080"/>
<ellipse cx="102.78" cy="178.063" rx="1.69903" ry="1.7632" transform="rotate(-180 102.78 178.063)" fill="#808080"/>
<ellipse cx="88.3398" cy="178.063" rx="1.69903" ry="1.7632" transform="rotate(-180 88.3398 178.063)" fill="#808080"/>
<ellipse cx="73.8997" cy="178.063" rx="1.69903" ry="1.7632" transform="rotate(-180 73.8997 178.063)" fill="#808080"/>
<ellipse cx="59.46" cy="178.063" rx="1.69903" ry="1.7632" transform="rotate(-180 59.46 178.063)" fill="#808080"/>
<ellipse cx="102.78" cy="160.433" rx="1.69905" ry="1.7632" transform="rotate(-180 102.78 160.433)" fill="#808080"/>
<ellipse cx="88.3398" cy="160.433" rx="1.69903" ry="1.7632" transform="rotate(-180 88.3398 160.433)" fill="#808080"/>
<ellipse cx="73.8997" cy="160.433" rx="1.69903" ry="1.7632" transform="rotate(-180 73.8997 160.433)" fill="#808080"/>
<ellipse cx="59.46" cy="160.433" rx="1.69905" ry="1.7632" transform="rotate(-180 59.46 160.433)" fill="#808080"/>
<ellipse cx="102.78" cy="142.804" rx="1.69903" ry="1.7632" transform="rotate(-180 102.78 142.804)" fill="#808080"/>
<ellipse cx="88.3398" cy="142.804" rx="1.69903" ry="1.7632" transform="rotate(-180 88.3398 142.804)" fill="#808080"/>
<ellipse cx="73.8997" cy="142.804" rx="1.69903" ry="1.7632" transform="rotate(-180 73.8997 142.804)" fill="#808080"/>
<ellipse cx="59.46" cy="142.804" rx="1.69905" ry="1.7632" transform="rotate(-180 59.46 142.804)" fill="#808080"/>
<ellipse cx="102.78" cy="125.174" rx="1.69903" ry="1.7632" transform="rotate(-180 102.78 125.174)" fill="#808080"/>
<ellipse cx="88.3398" cy="125.174" rx="1.69903" ry="1.7632" transform="rotate(-180 88.3398 125.174)" fill="#808080"/>
<ellipse cx="73.8997" cy="125.174" rx="1.69905" ry="1.7632" transform="rotate(-180 73.8997 125.174)" fill="#808080"/>
<ellipse cx="59.46" cy="125.174" rx="1.69905" ry="1.7632" transform="rotate(-180 59.46 125.174)" fill="#808080"/>
<ellipse cx="102.78" cy="107.543" rx="1.69903" ry="1.7632" transform="rotate(-180 102.78 107.543)" fill="#808080"/>
<ellipse cx="88.3398" cy="107.543" rx="1.69903" ry="1.7632" transform="rotate(-180 88.3398 107.543)" fill="#808080"/>
<ellipse cx="73.8997" cy="107.543" rx="1.69905" ry="1.7632" transform="rotate(-180 73.8997 107.543)" fill="#808080"/>
<ellipse cx="59.46" cy="107.543" rx="1.69905" ry="1.7632" transform="rotate(-180 59.46 107.543)" fill="#808080"/>
<ellipse cx="45.0196" cy="195.693" rx="1.69903" ry="1.7632" transform="rotate(-180 45.0196 195.693)" fill="#808080"/>
<ellipse cx="30.5795" cy="195.693" rx="1.69903" ry="1.7632" transform="rotate(-180 30.5795 195.693)" fill="#808080"/>
<ellipse cx="16.1391" cy="195.693" rx="1.69903" ry="1.7632" transform="rotate(-180 16.1391 195.693)" fill="#808080"/>
<ellipse cx="1.69892" cy="195.693" rx="1.69903" ry="1.7632" transform="rotate(-180 1.69892 195.693)" fill="#808080"/>
<ellipse cx="45.0196" cy="178.063" rx="1.69903" ry="1.7632" transform="rotate(-180 45.0196 178.063)" fill="#808080"/>
<ellipse cx="30.5795" cy="178.063" rx="1.69903" ry="1.7632" transform="rotate(-180 30.5795 178.063)" fill="#808080"/>
<ellipse cx="16.1391" cy="178.063" rx="1.69903" ry="1.7632" transform="rotate(-180 16.1391 178.063)" fill="#808080"/>
<ellipse cx="1.69892" cy="178.063" rx="1.69903" ry="1.7632" transform="rotate(-180 1.69892 178.063)" fill="#808080"/>
<ellipse cx="45.0196" cy="160.433" rx="1.69903" ry="1.7632" transform="rotate(-180 45.0196 160.433)" fill="#808080"/>
<ellipse cx="30.5795" cy="160.433" rx="1.69903" ry="1.7632" transform="rotate(-180 30.5795 160.433)" fill="#808080"/>
<ellipse cx="16.139" cy="160.433" rx="1.69903" ry="1.7632" transform="rotate(-180 16.139 160.433)" fill="#808080"/>
<ellipse cx="1.69892" cy="160.433" rx="1.69903" ry="1.7632" transform="rotate(-180 1.69892 160.433)" fill="#808080"/>
<ellipse cx="45.0196" cy="142.804" rx="1.69903" ry="1.7632" transform="rotate(-180 45.0196 142.804)" fill="#808080"/>
<ellipse cx="30.5795" cy="142.804" rx="1.69903" ry="1.7632" transform="rotate(-180 30.5795 142.804)" fill="#808080"/>
<ellipse cx="16.139" cy="142.804" rx="1.69903" ry="1.7632" transform="rotate(-180 16.139 142.804)" fill="#808080"/>
<ellipse cx="1.69892" cy="142.804" rx="1.69903" ry="1.7632" transform="rotate(-180 1.69892 142.804)" fill="#808080"/>
<ellipse cx="45.0196" cy="125.174" rx="1.69903" ry="1.7632" transform="rotate(-180 45.0196 125.174)" fill="#808080"/>
<ellipse cx="30.5795" cy="125.174" rx="1.69903" ry="1.7632" transform="rotate(-180 30.5795 125.174)" fill="#808080"/>
<ellipse cx="16.139" cy="125.174" rx="1.69903" ry="1.7632" transform="rotate(-180 16.139 125.174)" fill="#808080"/>
<ellipse cx="1.69892" cy="125.174" rx="1.69903" ry="1.7632" transform="rotate(-180 1.69892 125.174)" fill="#808080"/>
<ellipse cx="45.0196" cy="107.543" rx="1.69903" ry="1.7632" transform="rotate(-180 45.0196 107.543)" fill="#808080"/>
<ellipse cx="30.5795" cy="107.543" rx="1.69903" ry="1.7632" transform="rotate(-180 30.5795 107.543)" fill="#808080"/>
<ellipse cx="16.139" cy="107.543" rx="1.69903" ry="1.7632" transform="rotate(-180 16.139 107.543)" fill="#808080"/>
<ellipse cx="1.69892" cy="107.543" rx="1.69903" ry="1.7632" transform="rotate(-180 1.69892 107.543)" fill="#808080"/>
<ellipse cx="218.301" cy="89.9129" rx="1.69903" ry="1.7632" transform="rotate(-180 218.301 89.9129)" fill="#808080"/>
<ellipse cx="203.861" cy="89.9129" rx="1.69904" ry="1.7632" transform="rotate(-180 203.861 89.9129)" fill="#808080"/>
<ellipse cx="189.421" cy="89.9129" rx="1.69903" ry="1.7632" transform="rotate(-180 189.421 89.9129)" fill="#808080"/>
<ellipse cx="174.981" cy="89.9129" rx="1.69904" ry="1.7632" transform="rotate(-180 174.981 89.9129)" fill="#808080"/>
<ellipse cx="218.301" cy="72.2833" rx="1.69903" ry="1.7632" transform="rotate(-180 218.301 72.2833)" fill="#808080"/>
<ellipse cx="203.861" cy="72.2833" rx="1.69904" ry="1.7632" transform="rotate(-180 203.861 72.2833)" fill="#808080"/>
<ellipse cx="189.421" cy="72.2833" rx="1.69903" ry="1.7632" transform="rotate(-180 189.421 72.2833)" fill="#808080"/>
<ellipse cx="174.981" cy="72.2834" rx="1.69904" ry="1.7632" transform="rotate(-180 174.981 72.2834)" fill="#808080"/>
<ellipse cx="218.301" cy="54.6531" rx="1.69903" ry="1.7632" transform="rotate(-180 218.301 54.6531)" fill="#808080"/>
<ellipse cx="203.861" cy="54.6529" rx="1.69904" ry="1.7632" transform="rotate(-180 203.861 54.6529)" fill="#808080"/>
<ellipse cx="189.421" cy="54.6529" rx="1.69903" ry="1.7632" transform="rotate(-180 189.421 54.6529)" fill="#808080"/>
<ellipse cx="174.981" cy="54.6529" rx="1.69903" ry="1.7632" transform="rotate(-180 174.981 54.6529)" fill="#808080"/>
<ellipse cx="218.301" cy="37.0231" rx="1.69903" ry="1.7632" transform="rotate(-180 218.301 37.0231)" fill="#808080"/>
<ellipse cx="203.861" cy="37.0231" rx="1.69904" ry="1.7632" transform="rotate(-180 203.861 37.0231)" fill="#808080"/>
<ellipse cx="189.421" cy="37.0231" rx="1.69903" ry="1.7632" transform="rotate(-180 189.421 37.0231)" fill="#808080"/>
<ellipse cx="174.981" cy="37.0231" rx="1.69903" ry="1.7632" transform="rotate(-180 174.981 37.0231)" fill="#808080"/>
<ellipse cx="218.301" cy="19.3929" rx="1.69903" ry="1.7632" transform="rotate(-180 218.301 19.3929)" fill="#808080"/>
<ellipse cx="203.861" cy="19.3929" rx="1.69904" ry="1.7632" transform="rotate(-180 203.861 19.3929)" fill="#808080"/>
<ellipse cx="189.421" cy="19.3929" rx="1.69903" ry="1.7632" transform="rotate(-180 189.421 19.3929)" fill="#808080"/>
<ellipse cx="174.981" cy="19.3929" rx="1.69903" ry="1.7632" transform="rotate(-180 174.981 19.3929)" fill="#808080"/>
<ellipse cx="218.301" cy="1.76316" rx="1.69903" ry="1.7632" transform="rotate(-180 218.301 1.76316)" fill="#808080"/>
<ellipse cx="203.861" cy="1.76316" rx="1.69904" ry="1.7632" transform="rotate(-180 203.861 1.76316)" fill="#808080"/>
<ellipse cx="189.421" cy="1.76323" rx="1.69903" ry="1.7632" transform="rotate(-180 189.421 1.76323)" fill="#808080"/>
<ellipse cx="174.981" cy="1.76323" rx="1.69903" ry="1.7632" transform="rotate(-180 174.981 1.76323)" fill="#808080"/>
<ellipse cx="160.54" cy="89.9129" rx="1.69904" ry="1.7632" transform="rotate(-180 160.54 89.9129)" fill="#808080"/>
<ellipse cx="146.1" cy="89.9129" rx="1.69904" ry="1.7632" transform="rotate(-180 146.1 89.9129)" fill="#808080"/>
<ellipse cx="131.66" cy="89.9129" rx="1.69904" ry="1.7632" transform="rotate(-180 131.66 89.9129)" fill="#808080"/>
<ellipse cx="117.22" cy="89.9129" rx="1.69904" ry="1.7632" transform="rotate(-180 117.22 89.9129)" fill="#808080"/>
<ellipse cx="160.54" cy="72.2834" rx="1.69904" ry="1.7632" transform="rotate(-180 160.54 72.2834)" fill="#808080"/>
<ellipse cx="146.1" cy="72.2834" rx="1.69904" ry="1.7632" transform="rotate(-180 146.1 72.2834)" fill="#808080"/>
<ellipse cx="131.66" cy="72.2833" rx="1.69904" ry="1.7632" transform="rotate(-180 131.66 72.2833)" fill="#808080"/>
<ellipse cx="117.22" cy="72.2833" rx="1.69904" ry="1.7632" transform="rotate(-180 117.22 72.2833)" fill="#808080"/>
<ellipse cx="160.54" cy="54.6529" rx="1.69904" ry="1.7632" transform="rotate(-180 160.54 54.6529)" fill="#808080"/>
<ellipse cx="146.101" cy="54.6529" rx="1.69903" ry="1.7632" transform="rotate(-180 146.101 54.6529)" fill="#808080"/>
<ellipse cx="131.66" cy="54.6529" rx="1.69904" ry="1.7632" transform="rotate(-180 131.66 54.6529)" fill="#808080"/>
<ellipse cx="117.22" cy="54.6529" rx="1.69904" ry="1.7632" transform="rotate(-180 117.22 54.6529)" fill="#808080"/>
<ellipse cx="160.54" cy="37.0231" rx="1.69904" ry="1.7632" transform="rotate(-180 160.54 37.0231)" fill="#808080"/>
<ellipse cx="146.1" cy="37.0231" rx="1.69904" ry="1.7632" transform="rotate(-180 146.1 37.0231)" fill="#808080"/>
<ellipse cx="131.66" cy="37.0231" rx="1.69904" ry="1.7632" transform="rotate(-180 131.66 37.0231)" fill="#808080"/>
<ellipse cx="117.22" cy="37.0231" rx="1.69904" ry="1.7632" transform="rotate(-180 117.22 37.0231)" fill="#808080"/>
<ellipse cx="160.54" cy="19.3929" rx="1.69904" ry="1.7632" transform="rotate(-180 160.54 19.3929)" fill="#808080"/>
<ellipse cx="146.1" cy="19.3929" rx="1.69904" ry="1.7632" transform="rotate(-180 146.1 19.3929)" fill="#808080"/>
<ellipse cx="131.66" cy="19.3929" rx="1.69904" ry="1.7632" transform="rotate(-180 131.66 19.3929)" fill="#808080"/>
<ellipse cx="117.22" cy="19.3929" rx="1.69904" ry="1.7632" transform="rotate(-180 117.22 19.3929)" fill="#808080"/>
<ellipse cx="160.54" cy="1.76323" rx="1.69904" ry="1.7632" transform="rotate(-180 160.54 1.76323)" fill="#808080"/>
<ellipse cx="146.1" cy="1.76323" rx="1.69904" ry="1.7632" transform="rotate(-180 146.1 1.76323)" fill="#808080"/>
<ellipse cx="131.66" cy="1.76323" rx="1.69904" ry="1.7632" transform="rotate(-180 131.66 1.76323)" fill="#808080"/>
<ellipse cx="117.22" cy="1.76323" rx="1.69904" ry="1.7632" transform="rotate(-180 117.22 1.76323)" fill="#808080"/>
<ellipse cx="102.78" cy="89.9129" rx="1.69903" ry="1.7632" transform="rotate(-180 102.78 89.9129)" fill="#808080"/>
<ellipse cx="88.3398" cy="89.9129" rx="1.69903" ry="1.7632" transform="rotate(-180 88.3398 89.9129)" fill="#808080"/>
<ellipse cx="73.8997" cy="89.9129" rx="1.69905" ry="1.7632" transform="rotate(-180 73.8997 89.9129)" fill="#808080"/>
<ellipse cx="59.46" cy="89.9129" rx="1.69905" ry="1.7632" transform="rotate(-180 59.46 89.9129)" fill="#808080"/>
<ellipse cx="102.78" cy="72.2833" rx="1.69903" ry="1.7632" transform="rotate(-180 102.78 72.2833)" fill="#808080"/>
<ellipse cx="88.3398" cy="72.2833" rx="1.69903" ry="1.7632" transform="rotate(-180 88.3398 72.2833)" fill="#808080"/>
<ellipse cx="73.8997" cy="72.2833" rx="1.69905" ry="1.7632" transform="rotate(-180 73.8997 72.2833)" fill="#808080"/>
<ellipse cx="59.4598" cy="72.2833" rx="1.69905" ry="1.7632" transform="rotate(-180 59.4598 72.2833)" fill="#808080"/>
<ellipse cx="102.78" cy="54.6531" rx="1.69903" ry="1.7632" transform="rotate(-180 102.78 54.6531)" fill="#808080"/>
<ellipse cx="88.3398" cy="54.6531" rx="1.69903" ry="1.7632" transform="rotate(-180 88.3398 54.6531)" fill="#808080"/>
<ellipse cx="73.8997" cy="54.6531" rx="1.69903" ry="1.7632" transform="rotate(-180 73.8997 54.6531)" fill="#808080"/>
<ellipse cx="59.46" cy="54.6531" rx="1.69905" ry="1.7632" transform="rotate(-180 59.46 54.6531)" fill="#808080"/>
<ellipse cx="102.78" cy="37.0231" rx="1.69903" ry="1.7632" transform="rotate(-180 102.78 37.0231)" fill="#808080"/>
<ellipse cx="88.3398" cy="37.0231" rx="1.69903" ry="1.7632" transform="rotate(-180 88.3398 37.0231)" fill="#808080"/>
<ellipse cx="73.8997" cy="37.0231" rx="1.69903" ry="1.7632" transform="rotate(-180 73.8997 37.0231)" fill="#808080"/>
<ellipse cx="59.46" cy="37.0231" rx="1.69905" ry="1.7632" transform="rotate(-180 59.46 37.0231)" fill="#808080"/>
<ellipse cx="102.78" cy="19.3929" rx="1.69903" ry="1.7632" transform="rotate(-180 102.78 19.3929)" fill="#808080"/>
<ellipse cx="88.3398" cy="19.3929" rx="1.69903" ry="1.7632" transform="rotate(-180 88.3398 19.3929)" fill="#808080"/>
<ellipse cx="73.8997" cy="19.3929" rx="1.69903" ry="1.7632" transform="rotate(-180 73.8997 19.3929)" fill="#808080"/>
<ellipse cx="59.46" cy="19.3929" rx="1.69905" ry="1.7632" transform="rotate(-180 59.46 19.3929)" fill="#808080"/>
<ellipse cx="102.78" cy="1.76323" rx="1.69903" ry="1.7632" transform="rotate(-180 102.78 1.76323)" fill="#808080"/>
<ellipse cx="88.3398" cy="1.76323" rx="1.69903" ry="1.7632" transform="rotate(-180 88.3398 1.76323)" fill="#808080"/>
<ellipse cx="73.8998" cy="1.76316" rx="1.69903" ry="1.7632" transform="rotate(-180 73.8998 1.76316)" fill="#808080"/>
<ellipse cx="59.46" cy="1.76323" rx="1.69905" ry="1.7632" transform="rotate(-180 59.46 1.76323)" fill="#808080"/>
<ellipse cx="45.0196" cy="89.9129" rx="1.69903" ry="1.7632" transform="rotate(-180 45.0196 89.9129)" fill="#808080"/>
<ellipse cx="30.5795" cy="89.9129" rx="1.69905" ry="1.7632" transform="rotate(-180 30.5795 89.9129)" fill="#808080"/>
<ellipse cx="16.139" cy="89.9129" rx="1.69903" ry="1.7632" transform="rotate(-180 16.139 89.9129)" fill="#808080"/>
<ellipse cx="1.69892" cy="89.9129" rx="1.69903" ry="1.7632" transform="rotate(-180 1.69892 89.9129)" fill="#808080"/>
<ellipse cx="45.0196" cy="72.2834" rx="1.69903" ry="1.7632" transform="rotate(-180 45.0196 72.2834)" fill="#808080"/>
<ellipse cx="30.5795" cy="72.2834" rx="1.69905" ry="1.7632" transform="rotate(-180 30.5795 72.2834)" fill="#808080"/>
<ellipse cx="16.139" cy="72.2834" rx="1.69903" ry="1.7632" transform="rotate(-180 16.139 72.2834)" fill="#808080"/>
<ellipse cx="1.69892" cy="72.2834" rx="1.69903" ry="1.7632" transform="rotate(-180 1.69892 72.2834)" fill="#808080"/>
<ellipse cx="45.0196" cy="54.6529" rx="1.69903" ry="1.7632" transform="rotate(-180 45.0196 54.6529)" fill="#808080"/>
<ellipse cx="30.5795" cy="54.6529" rx="1.69905" ry="1.7632" transform="rotate(-180 30.5795 54.6529)" fill="#808080"/>
<ellipse cx="16.139" cy="54.6529" rx="1.69903" ry="1.7632" transform="rotate(-180 16.139 54.6529)" fill="#808080"/>
<ellipse cx="1.69892" cy="54.6529" rx="1.69903" ry="1.7632" transform="rotate(-180 1.69892 54.6529)" fill="#808080"/>
<ellipse cx="45.0196" cy="37.0231" rx="1.69903" ry="1.7632" transform="rotate(-180 45.0196 37.0231)" fill="#808080"/>
<ellipse cx="30.5795" cy="37.0231" rx="1.69905" ry="1.7632" transform="rotate(-180 30.5795 37.0231)" fill="#808080"/>
<ellipse cx="16.139" cy="37.0231" rx="1.69903" ry="1.7632" transform="rotate(-180 16.139 37.0231)" fill="#808080"/>
<ellipse cx="1.69892" cy="37.0231" rx="1.69903" ry="1.7632" transform="rotate(-180 1.69892 37.0231)" fill="#808080"/>
<ellipse cx="45.0196" cy="19.3928" rx="1.69903" ry="1.7632" transform="rotate(-180 45.0196 19.3928)" fill="#808080"/>
<ellipse cx="30.5795" cy="19.3928" rx="1.69905" ry="1.7632" transform="rotate(-180 30.5795 19.3928)" fill="#808080"/>
<ellipse cx="16.139" cy="19.3929" rx="1.69903" ry="1.7632" transform="rotate(-180 16.139 19.3929)" fill="#808080"/>
<ellipse cx="1.69892" cy="19.3929" rx="1.69903" ry="1.7632" transform="rotate(-180 1.69892 19.3929)" fill="#808080"/>
<ellipse cx="45.0196" cy="1.76323" rx="1.69905" ry="1.7632" transform="rotate(-180 45.0196 1.76323)" fill="#808080"/>
<ellipse cx="30.5795" cy="1.76323" rx="1.69905" ry="1.7632" transform="rotate(-180 30.5795 1.76323)" fill="#808080"/>
<ellipse cx="16.1391" cy="1.76323" rx="1.69903" ry="1.7632" transform="rotate(-180 16.1391 1.76323)" fill="#808080"/>
<ellipse cx="1.6989" cy="1.76323" rx="1.69905" ry="1.7632" transform="rotate(-180 1.6989 1.76323)" fill="#808080"/>
</mask>
<g mask="url(#mask0_1248_47378)">
<rect x="72" y="-57.228" width="169" height="228" fill="url(#paint0_linear_1248_47378)"/>
</g>
</g>
<g style="mix-blend-mode:overlay">
<mask id="mask1_1248_47378" style="mask-type:alpha" maskUnits="userSpaceOnUse" x="156" y="0" width="221" height="198">
<ellipse cx="375.301" cy="195.693" rx="1.69903" ry="1.7632" transform="rotate(-180 375.301 195.693)" fill="#808080"/>
<ellipse cx="360.861" cy="195.693" rx="1.69904" ry="1.7632" transform="rotate(-180 360.861 195.693)" fill="#808080"/>
<ellipse cx="346.421" cy="195.693" rx="1.69903" ry="1.7632" transform="rotate(-180 346.421 195.693)" fill="#808080"/>
<ellipse cx="331.981" cy="195.693" rx="1.69904" ry="1.7632" transform="rotate(-180 331.981 195.693)" fill="#808080"/>
<ellipse cx="375.301" cy="178.064" rx="1.69903" ry="1.7632" transform="rotate(-180 375.301 178.064)" fill="#808080"/>
<ellipse cx="360.861" cy="178.064" rx="1.69904" ry="1.7632" transform="rotate(-180 360.861 178.064)" fill="#808080"/>
<ellipse cx="346.421" cy="178.064" rx="1.69903" ry="1.7632" transform="rotate(-180 346.421 178.064)" fill="#808080"/>
<ellipse cx="331.981" cy="178.063" rx="1.69904" ry="1.7632" transform="rotate(-180 331.981 178.063)" fill="#808080"/>
<ellipse cx="375.301" cy="160.433" rx="1.69903" ry="1.7632" transform="rotate(-180 375.301 160.433)" fill="#808080"/>
<ellipse cx="360.861" cy="160.433" rx="1.69904" ry="1.7632" transform="rotate(-180 360.861 160.433)" fill="#808080"/>
<ellipse cx="346.421" cy="160.433" rx="1.69903" ry="1.7632" transform="rotate(-180 346.421 160.433)" fill="#808080"/>
<ellipse cx="331.981" cy="160.433" rx="1.69904" ry="1.7632" transform="rotate(-180 331.981 160.433)" fill="#808080"/>
<ellipse cx="375.301" cy="142.804" rx="1.69903" ry="1.7632" transform="rotate(-180 375.301 142.804)" fill="#808080"/>
<ellipse cx="360.861" cy="142.804" rx="1.69904" ry="1.7632" transform="rotate(-180 360.861 142.804)" fill="#808080"/>
<ellipse cx="346.421" cy="142.804" rx="1.69903" ry="1.7632" transform="rotate(-180 346.421 142.804)" fill="#808080"/>
<ellipse cx="331.981" cy="142.804" rx="1.69904" ry="1.7632" transform="rotate(-180 331.981 142.804)" fill="#808080"/>
<ellipse cx="375.301" cy="125.174" rx="1.69903" ry="1.7632" transform="rotate(-180 375.301 125.174)" fill="#808080"/>
<ellipse cx="360.861" cy="125.174" rx="1.69904" ry="1.7632" transform="rotate(-180 360.861 125.174)" fill="#808080"/>
<ellipse cx="346.421" cy="125.174" rx="1.69903" ry="1.7632" transform="rotate(-180 346.421 125.174)" fill="#808080"/>
<ellipse cx="331.981" cy="125.174" rx="1.69904" ry="1.7632" transform="rotate(-180 331.981 125.174)" fill="#808080"/>
<ellipse cx="375.301" cy="107.543" rx="1.69903" ry="1.7632" transform="rotate(-180 375.301 107.543)" fill="#808080"/>
<ellipse cx="360.861" cy="107.543" rx="1.69904" ry="1.7632" transform="rotate(-180 360.861 107.543)" fill="#808080"/>
<ellipse cx="346.421" cy="107.543" rx="1.69903" ry="1.7632" transform="rotate(-180 346.421 107.543)" fill="#808080"/>
<ellipse cx="331.981" cy="107.543" rx="1.69904" ry="1.7632" transform="rotate(-180 331.981 107.543)" fill="#808080"/>
<ellipse cx="317.54" cy="195.693" rx="1.69904" ry="1.7632" transform="rotate(-180 317.54 195.693)" fill="#808080"/>
<ellipse cx="303.101" cy="195.693" rx="1.69903" ry="1.7632" transform="rotate(-180 303.101 195.693)" fill="#808080"/>
<ellipse cx="288.66" cy="195.693" rx="1.69903" ry="1.7632" transform="rotate(-180 288.66 195.693)" fill="#808080"/>
<ellipse cx="274.22" cy="195.693" rx="1.69904" ry="1.7632" transform="rotate(-180 274.22 195.693)" fill="#808080"/>
<ellipse cx="317.54" cy="178.063" rx="1.69904" ry="1.7632" transform="rotate(-180 317.54 178.063)" fill="#808080"/>
<ellipse cx="303.1" cy="178.063" rx="1.69904" ry="1.7632" transform="rotate(-180 303.1 178.063)" fill="#808080"/>
<ellipse cx="288.66" cy="178.063" rx="1.69904" ry="1.7632" transform="rotate(-180 288.66 178.063)" fill="#808080"/>
<ellipse cx="274.22" cy="178.063" rx="1.69904" ry="1.7632" transform="rotate(-180 274.22 178.063)" fill="#808080"/>
<ellipse cx="317.54" cy="160.433" rx="1.69904" ry="1.7632" transform="rotate(-180 317.54 160.433)" fill="#808080"/>
<ellipse cx="303.1" cy="160.433" rx="1.69904" ry="1.7632" transform="rotate(-180 303.1 160.433)" fill="#808080"/>
<ellipse cx="288.66" cy="160.433" rx="1.69904" ry="1.7632" transform="rotate(-180 288.66 160.433)" fill="#808080"/>
<ellipse cx="274.22" cy="160.433" rx="1.69904" ry="1.7632" transform="rotate(-180 274.22 160.433)" fill="#808080"/>
<ellipse cx="317.54" cy="142.804" rx="1.69904" ry="1.7632" transform="rotate(-180 317.54 142.804)" fill="#808080"/>
<ellipse cx="303.1" cy="142.804" rx="1.69904" ry="1.7632" transform="rotate(-180 303.1 142.804)" fill="#808080"/>
<ellipse cx="288.66" cy="142.804" rx="1.69904" ry="1.7632" transform="rotate(-180 288.66 142.804)" fill="#808080"/>
<ellipse cx="274.22" cy="142.804" rx="1.69904" ry="1.7632" transform="rotate(-180 274.22 142.804)" fill="#808080"/>
<ellipse cx="317.54" cy="125.174" rx="1.69904" ry="1.7632" transform="rotate(-180 317.54 125.174)" fill="#808080"/>
<ellipse cx="303.1" cy="125.174" rx="1.69904" ry="1.7632" transform="rotate(-180 303.1 125.174)" fill="#808080"/>
<ellipse cx="288.66" cy="125.174" rx="1.69904" ry="1.7632" transform="rotate(-180 288.66 125.174)" fill="#808080"/>
<ellipse cx="274.22" cy="125.174" rx="1.69904" ry="1.7632" transform="rotate(-180 274.22 125.174)" fill="#808080"/>
<ellipse cx="317.54" cy="107.543" rx="1.69904" ry="1.7632" transform="rotate(-180 317.54 107.543)" fill="#808080"/>
<ellipse cx="303.1" cy="107.543" rx="1.69903" ry="1.7632" transform="rotate(-180 303.1 107.543)" fill="#808080"/>
<ellipse cx="288.66" cy="107.543" rx="1.69904" ry="1.7632" transform="rotate(-180 288.66 107.543)" fill="#808080"/>
<ellipse cx="274.22" cy="107.543" rx="1.69904" ry="1.7632" transform="rotate(-180 274.22 107.543)" fill="#808080"/>
<ellipse cx="259.78" cy="195.693" rx="1.69903" ry="1.7632" transform="rotate(-180 259.78 195.693)" fill="#808080"/>
<ellipse cx="245.34" cy="195.693" rx="1.69903" ry="1.7632" transform="rotate(-180 245.34 195.693)" fill="#808080"/>
<ellipse cx="230.9" cy="195.693" rx="1.69903" ry="1.7632" transform="rotate(-180 230.9 195.693)" fill="#808080"/>
<ellipse cx="216.46" cy="195.693" rx="1.69903" ry="1.7632" transform="rotate(-180 216.46 195.693)" fill="#808080"/>
<ellipse cx="259.78" cy="178.063" rx="1.69903" ry="1.7632" transform="rotate(-180 259.78 178.063)" fill="#808080"/>
<ellipse cx="245.34" cy="178.063" rx="1.69903" ry="1.7632" transform="rotate(-180 245.34 178.063)" fill="#808080"/>
<ellipse cx="230.9" cy="178.063" rx="1.69903" ry="1.7632" transform="rotate(-180 230.9 178.063)" fill="#808080"/>
<ellipse cx="216.46" cy="178.063" rx="1.69903" ry="1.7632" transform="rotate(-180 216.46 178.063)" fill="#808080"/>
<ellipse cx="259.78" cy="160.433" rx="1.69905" ry="1.7632" transform="rotate(-180 259.78 160.433)" fill="#808080"/>
<ellipse cx="245.34" cy="160.433" rx="1.69903" ry="1.7632" transform="rotate(-180 245.34 160.433)" fill="#808080"/>
<ellipse cx="230.9" cy="160.433" rx="1.69903" ry="1.7632" transform="rotate(-180 230.9 160.433)" fill="#808080"/>
<ellipse cx="216.46" cy="160.433" rx="1.69905" ry="1.7632" transform="rotate(-180 216.46 160.433)" fill="#808080"/>
<ellipse cx="259.78" cy="142.804" rx="1.69903" ry="1.7632" transform="rotate(-180 259.78 142.804)" fill="#808080"/>
<ellipse cx="245.34" cy="142.804" rx="1.69903" ry="1.7632" transform="rotate(-180 245.34 142.804)" fill="#808080"/>
<ellipse cx="230.9" cy="142.804" rx="1.69903" ry="1.7632" transform="rotate(-180 230.9 142.804)" fill="#808080"/>
<ellipse cx="216.46" cy="142.804" rx="1.69905" ry="1.7632" transform="rotate(-180 216.46 142.804)" fill="#808080"/>
<ellipse cx="259.78" cy="125.174" rx="1.69903" ry="1.7632" transform="rotate(-180 259.78 125.174)" fill="#808080"/>
<ellipse cx="245.34" cy="125.174" rx="1.69903" ry="1.7632" transform="rotate(-180 245.34 125.174)" fill="#808080"/>
<ellipse cx="230.9" cy="125.174" rx="1.69905" ry="1.7632" transform="rotate(-180 230.9 125.174)" fill="#808080"/>
<ellipse cx="216.46" cy="125.174" rx="1.69905" ry="1.7632" transform="rotate(-180 216.46 125.174)" fill="#808080"/>
<ellipse cx="259.78" cy="107.543" rx="1.69903" ry="1.7632" transform="rotate(-180 259.78 107.543)" fill="#808080"/>
<ellipse cx="245.34" cy="107.543" rx="1.69903" ry="1.7632" transform="rotate(-180 245.34 107.543)" fill="#808080"/>
<ellipse cx="230.9" cy="107.543" rx="1.69905" ry="1.7632" transform="rotate(-180 230.9 107.543)" fill="#808080"/>
<ellipse cx="216.46" cy="107.543" rx="1.69905" ry="1.7632" transform="rotate(-180 216.46 107.543)" fill="#808080"/>
<ellipse cx="202.02" cy="195.693" rx="1.69903" ry="1.7632" transform="rotate(-180 202.02 195.693)" fill="#808080"/>
<ellipse cx="187.58" cy="195.693" rx="1.69903" ry="1.7632" transform="rotate(-180 187.58 195.693)" fill="#808080"/>
<ellipse cx="173.139" cy="195.693" rx="1.69903" ry="1.7632" transform="rotate(-180 173.139 195.693)" fill="#808080"/>
<ellipse cx="158.699" cy="195.693" rx="1.69903" ry="1.7632" transform="rotate(-180 158.699 195.693)" fill="#808080"/>
<ellipse cx="202.02" cy="178.063" rx="1.69903" ry="1.7632" transform="rotate(-180 202.02 178.063)" fill="#808080"/>
<ellipse cx="187.58" cy="178.063" rx="1.69903" ry="1.7632" transform="rotate(-180 187.58 178.063)" fill="#808080"/>
<ellipse cx="173.139" cy="178.063" rx="1.69903" ry="1.7632" transform="rotate(-180 173.139 178.063)" fill="#808080"/>
<ellipse cx="158.699" cy="178.063" rx="1.69903" ry="1.7632" transform="rotate(-180 158.699 178.063)" fill="#808080"/>
<ellipse cx="202.02" cy="160.433" rx="1.69903" ry="1.7632" transform="rotate(-180 202.02 160.433)" fill="#808080"/>
<ellipse cx="187.58" cy="160.433" rx="1.69903" ry="1.7632" transform="rotate(-180 187.58 160.433)" fill="#808080"/>
<ellipse cx="173.139" cy="160.433" rx="1.69903" ry="1.7632" transform="rotate(-180 173.139 160.433)" fill="#808080"/>
<ellipse cx="158.699" cy="160.433" rx="1.69903" ry="1.7632" transform="rotate(-180 158.699 160.433)" fill="#808080"/>
<ellipse cx="202.02" cy="142.804" rx="1.69903" ry="1.7632" transform="rotate(-180 202.02 142.804)" fill="#808080"/>
<ellipse cx="187.58" cy="142.804" rx="1.69903" ry="1.7632" transform="rotate(-180 187.58 142.804)" fill="#808080"/>
<ellipse cx="173.139" cy="142.804" rx="1.69903" ry="1.7632" transform="rotate(-180 173.139 142.804)" fill="#808080"/>
<ellipse cx="158.699" cy="142.804" rx="1.69903" ry="1.7632" transform="rotate(-180 158.699 142.804)" fill="#808080"/>
<ellipse cx="202.02" cy="125.174" rx="1.69903" ry="1.7632" transform="rotate(-180 202.02 125.174)" fill="#808080"/>
<ellipse cx="187.58" cy="125.174" rx="1.69903" ry="1.7632" transform="rotate(-180 187.58 125.174)" fill="#808080"/>
<ellipse cx="173.139" cy="125.174" rx="1.69903" ry="1.7632" transform="rotate(-180 173.139 125.174)" fill="#808080"/>
<ellipse cx="158.699" cy="125.174" rx="1.69903" ry="1.7632" transform="rotate(-180 158.699 125.174)" fill="#808080"/>
<ellipse cx="202.02" cy="107.543" rx="1.69903" ry="1.7632" transform="rotate(-180 202.02 107.543)" fill="#808080"/>
<ellipse cx="187.58" cy="107.543" rx="1.69903" ry="1.7632" transform="rotate(-180 187.58 107.543)" fill="#808080"/>
<ellipse cx="173.139" cy="107.543" rx="1.69903" ry="1.7632" transform="rotate(-180 173.139 107.543)" fill="#808080"/>
<ellipse cx="158.699" cy="107.543" rx="1.69903" ry="1.7632" transform="rotate(-180 158.699 107.543)" fill="#808080"/>
<ellipse cx="375.301" cy="89.9129" rx="1.69903" ry="1.7632" transform="rotate(-180 375.301 89.9129)" fill="#808080"/>
<ellipse cx="360.861" cy="89.9129" rx="1.69904" ry="1.7632" transform="rotate(-180 360.861 89.9129)" fill="#808080"/>
<ellipse cx="346.421" cy="89.9129" rx="1.69903" ry="1.7632" transform="rotate(-180 346.421 89.9129)" fill="#808080"/>
<ellipse cx="331.981" cy="89.9129" rx="1.69904" ry="1.7632" transform="rotate(-180 331.981 89.9129)" fill="#808080"/>
<ellipse cx="375.301" cy="72.2833" rx="1.69903" ry="1.7632" transform="rotate(-180 375.301 72.2833)" fill="#808080"/>
<ellipse cx="360.861" cy="72.2833" rx="1.69904" ry="1.7632" transform="rotate(-180 360.861 72.2833)" fill="#808080"/>
<ellipse cx="346.421" cy="72.2833" rx="1.69903" ry="1.7632" transform="rotate(-180 346.421 72.2833)" fill="#808080"/>
<ellipse cx="331.981" cy="72.2834" rx="1.69904" ry="1.7632" transform="rotate(-180 331.981 72.2834)" fill="#808080"/>
<ellipse cx="375.301" cy="54.6531" rx="1.69903" ry="1.7632" transform="rotate(-180 375.301 54.6531)" fill="#808080"/>
<ellipse cx="360.861" cy="54.6529" rx="1.69904" ry="1.7632" transform="rotate(-180 360.861 54.6529)" fill="#808080"/>
<ellipse cx="346.421" cy="54.6529" rx="1.69903" ry="1.7632" transform="rotate(-180 346.421 54.6529)" fill="#808080"/>
<ellipse cx="331.981" cy="54.6529" rx="1.69903" ry="1.7632" transform="rotate(-180 331.981 54.6529)" fill="#808080"/>
<ellipse cx="375.301" cy="37.0231" rx="1.69903" ry="1.7632" transform="rotate(-180 375.301 37.0231)" fill="#808080"/>
<ellipse cx="360.861" cy="37.0231" rx="1.69904" ry="1.7632" transform="rotate(-180 360.861 37.0231)" fill="#808080"/>
<ellipse cx="346.421" cy="37.0231" rx="1.69903" ry="1.7632" transform="rotate(-180 346.421 37.0231)" fill="#808080"/>
<ellipse cx="331.981" cy="37.0231" rx="1.69903" ry="1.7632" transform="rotate(-180 331.981 37.0231)" fill="#808080"/>
<ellipse cx="375.301" cy="19.3929" rx="1.69903" ry="1.7632" transform="rotate(-180 375.301 19.3929)" fill="#808080"/>
<ellipse cx="360.861" cy="19.3929" rx="1.69904" ry="1.7632" transform="rotate(-180 360.861 19.3929)" fill="#808080"/>
<ellipse cx="346.421" cy="19.3929" rx="1.69903" ry="1.7632" transform="rotate(-180 346.421 19.3929)" fill="#808080"/>
<ellipse cx="331.981" cy="19.3929" rx="1.69903" ry="1.7632" transform="rotate(-180 331.981 19.3929)" fill="#808080"/>
<ellipse cx="375.301" cy="1.76316" rx="1.69903" ry="1.7632" transform="rotate(-180 375.301 1.76316)" fill="#808080"/>
<ellipse cx="360.861" cy="1.76316" rx="1.69904" ry="1.7632" transform="rotate(-180 360.861 1.76316)" fill="#808080"/>
<ellipse cx="346.421" cy="1.76323" rx="1.69903" ry="1.7632" transform="rotate(-180 346.421 1.76323)" fill="#808080"/>
<ellipse cx="331.981" cy="1.76323" rx="1.69903" ry="1.7632" transform="rotate(-180 331.981 1.76323)" fill="#808080"/>
<ellipse cx="317.54" cy="89.9129" rx="1.69904" ry="1.7632" transform="rotate(-180 317.54 89.9129)" fill="#808080"/>
<ellipse cx="303.1" cy="89.9129" rx="1.69904" ry="1.7632" transform="rotate(-180 303.1 89.9129)" fill="#808080"/>
<ellipse cx="288.66" cy="89.9129" rx="1.69904" ry="1.7632" transform="rotate(-180 288.66 89.9129)" fill="#808080"/>
<ellipse cx="274.22" cy="89.9129" rx="1.69904" ry="1.7632" transform="rotate(-180 274.22 89.9129)" fill="#808080"/>
<ellipse cx="317.54" cy="72.2834" rx="1.69904" ry="1.7632" transform="rotate(-180 317.54 72.2834)" fill="#808080"/>
<ellipse cx="303.1" cy="72.2834" rx="1.69904" ry="1.7632" transform="rotate(-180 303.1 72.2834)" fill="#808080"/>
<ellipse cx="288.66" cy="72.2833" rx="1.69904" ry="1.7632" transform="rotate(-180 288.66 72.2833)" fill="#808080"/>
<ellipse cx="274.22" cy="72.2833" rx="1.69904" ry="1.7632" transform="rotate(-180 274.22 72.2833)" fill="#808080"/>
<ellipse cx="317.54" cy="54.6529" rx="1.69904" ry="1.7632" transform="rotate(-180 317.54 54.6529)" fill="#808080"/>
<ellipse cx="303.101" cy="54.6529" rx="1.69903" ry="1.7632" transform="rotate(-180 303.101 54.6529)" fill="#808080"/>
<ellipse cx="288.66" cy="54.6529" rx="1.69904" ry="1.7632" transform="rotate(-180 288.66 54.6529)" fill="#808080"/>
<ellipse cx="274.22" cy="54.6529" rx="1.69904" ry="1.7632" transform="rotate(-180 274.22 54.6529)" fill="#808080"/>
<ellipse cx="317.54" cy="37.0231" rx="1.69904" ry="1.7632" transform="rotate(-180 317.54 37.0231)" fill="#808080"/>
<ellipse cx="303.1" cy="37.0231" rx="1.69904" ry="1.7632" transform="rotate(-180 303.1 37.0231)" fill="#808080"/>
<ellipse cx="288.66" cy="37.0231" rx="1.69904" ry="1.7632" transform="rotate(-180 288.66 37.0231)" fill="#808080"/>
<ellipse cx="274.22" cy="37.0231" rx="1.69904" ry="1.7632" transform="rotate(-180 274.22 37.0231)" fill="#808080"/>
<ellipse cx="317.54" cy="19.3929" rx="1.69904" ry="1.7632" transform="rotate(-180 317.54 19.3929)" fill="#808080"/>
<ellipse cx="303.1" cy="19.3929" rx="1.69904" ry="1.7632" transform="rotate(-180 303.1 19.3929)" fill="#808080"/>
<ellipse cx="288.66" cy="19.3929" rx="1.69904" ry="1.7632" transform="rotate(-180 288.66 19.3929)" fill="#808080"/>
<ellipse cx="274.22" cy="19.3929" rx="1.69904" ry="1.7632" transform="rotate(-180 274.22 19.3929)" fill="#808080"/>
<ellipse cx="317.54" cy="1.76323" rx="1.69904" ry="1.7632" transform="rotate(-180 317.54 1.76323)" fill="#808080"/>
<ellipse cx="303.1" cy="1.76323" rx="1.69904" ry="1.7632" transform="rotate(-180 303.1 1.76323)" fill="#808080"/>
<ellipse cx="288.66" cy="1.76323" rx="1.69904" ry="1.7632" transform="rotate(-180 288.66 1.76323)" fill="#808080"/>
<ellipse cx="274.22" cy="1.76323" rx="1.69904" ry="1.7632" transform="rotate(-180 274.22 1.76323)" fill="#808080"/>
<ellipse cx="259.78" cy="89.9129" rx="1.69903" ry="1.7632" transform="rotate(-180 259.78 89.9129)" fill="#808080"/>
<ellipse cx="245.34" cy="89.9129" rx="1.69903" ry="1.7632" transform="rotate(-180 245.34 89.9129)" fill="#808080"/>
<ellipse cx="230.9" cy="89.9129" rx="1.69905" ry="1.7632" transform="rotate(-180 230.9 89.9129)" fill="#808080"/>
<ellipse cx="216.46" cy="89.9129" rx="1.69905" ry="1.7632" transform="rotate(-180 216.46 89.9129)" fill="#808080"/>
<ellipse cx="259.78" cy="72.2833" rx="1.69903" ry="1.7632" transform="rotate(-180 259.78 72.2833)" fill="#808080"/>
<ellipse cx="245.34" cy="72.2833" rx="1.69903" ry="1.7632" transform="rotate(-180 245.34 72.2833)" fill="#808080"/>
<ellipse cx="230.9" cy="72.2833" rx="1.69905" ry="1.7632" transform="rotate(-180 230.9 72.2833)" fill="#808080"/>
<ellipse cx="216.46" cy="72.2833" rx="1.69905" ry="1.7632" transform="rotate(-180 216.46 72.2833)" fill="#808080"/>
<ellipse cx="259.78" cy="54.6531" rx="1.69903" ry="1.7632" transform="rotate(-180 259.78 54.6531)" fill="#808080"/>
<ellipse cx="245.34" cy="54.6531" rx="1.69903" ry="1.7632" transform="rotate(-180 245.34 54.6531)" fill="#808080"/>
<ellipse cx="230.9" cy="54.6531" rx="1.69903" ry="1.7632" transform="rotate(-180 230.9 54.6531)" fill="#808080"/>
<ellipse cx="216.46" cy="54.6531" rx="1.69905" ry="1.7632" transform="rotate(-180 216.46 54.6531)" fill="#808080"/>
<ellipse cx="259.78" cy="37.0231" rx="1.69903" ry="1.7632" transform="rotate(-180 259.78 37.0231)" fill="#808080"/>
<ellipse cx="245.34" cy="37.0231" rx="1.69903" ry="1.7632" transform="rotate(-180 245.34 37.0231)" fill="#808080"/>
<ellipse cx="230.9" cy="37.0231" rx="1.69903" ry="1.7632" transform="rotate(-180 230.9 37.0231)" fill="#808080"/>
<ellipse cx="216.46" cy="37.0231" rx="1.69905" ry="1.7632" transform="rotate(-180 216.46 37.0231)" fill="#808080"/>
<ellipse cx="259.78" cy="19.3929" rx="1.69903" ry="1.7632" transform="rotate(-180 259.78 19.3929)" fill="#808080"/>
<ellipse cx="245.34" cy="19.3929" rx="1.69903" ry="1.7632" transform="rotate(-180 245.34 19.3929)" fill="#808080"/>
<ellipse cx="230.9" cy="19.3929" rx="1.69903" ry="1.7632" transform="rotate(-180 230.9 19.3929)" fill="#808080"/>
<ellipse cx="216.46" cy="19.3929" rx="1.69905" ry="1.7632" transform="rotate(-180 216.46 19.3929)" fill="#808080"/>
<ellipse cx="259.78" cy="1.76323" rx="1.69903" ry="1.7632" transform="rotate(-180 259.78 1.76323)" fill="#808080"/>
<ellipse cx="245.34" cy="1.76323" rx="1.69903" ry="1.7632" transform="rotate(-180 245.34 1.76323)" fill="#808080"/>
<ellipse cx="230.9" cy="1.76316" rx="1.69903" ry="1.7632" transform="rotate(-180 230.9 1.76316)" fill="#808080"/>
<ellipse cx="216.46" cy="1.76323" rx="1.69905" ry="1.7632" transform="rotate(-180 216.46 1.76323)" fill="#808080"/>
<ellipse cx="202.02" cy="89.9129" rx="1.69903" ry="1.7632" transform="rotate(-180 202.02 89.9129)" fill="#808080"/>
<ellipse cx="187.58" cy="89.9129" rx="1.69905" ry="1.7632" transform="rotate(-180 187.58 89.9129)" fill="#808080"/>
<ellipse cx="173.139" cy="89.9129" rx="1.69903" ry="1.7632" transform="rotate(-180 173.139 89.9129)" fill="#808080"/>
<ellipse cx="158.699" cy="89.9129" rx="1.69903" ry="1.7632" transform="rotate(-180 158.699 89.9129)" fill="#808080"/>
<ellipse cx="202.02" cy="72.2834" rx="1.69903" ry="1.7632" transform="rotate(-180 202.02 72.2834)" fill="#808080"/>
<ellipse cx="187.58" cy="72.2834" rx="1.69905" ry="1.7632" transform="rotate(-180 187.58 72.2834)" fill="#808080"/>
<ellipse cx="173.139" cy="72.2834" rx="1.69903" ry="1.7632" transform="rotate(-180 173.139 72.2834)" fill="#808080"/>
<ellipse cx="158.699" cy="72.2834" rx="1.69903" ry="1.7632" transform="rotate(-180 158.699 72.2834)" fill="#808080"/>
<ellipse cx="202.02" cy="54.6529" rx="1.69903" ry="1.7632" transform="rotate(-180 202.02 54.6529)" fill="#808080"/>
<ellipse cx="187.58" cy="54.6529" rx="1.69905" ry="1.7632" transform="rotate(-180 187.58 54.6529)" fill="#808080"/>
<ellipse cx="173.139" cy="54.6529" rx="1.69903" ry="1.7632" transform="rotate(-180 173.139 54.6529)" fill="#808080"/>
<ellipse cx="158.699" cy="54.6529" rx="1.69903" ry="1.7632" transform="rotate(-180 158.699 54.6529)" fill="#808080"/>
<ellipse cx="202.02" cy="37.0231" rx="1.69903" ry="1.7632" transform="rotate(-180 202.02 37.0231)" fill="#808080"/>
<ellipse cx="187.58" cy="37.0231" rx="1.69905" ry="1.7632" transform="rotate(-180 187.58 37.0231)" fill="#808080"/>
<ellipse cx="173.139" cy="37.0231" rx="1.69903" ry="1.7632" transform="rotate(-180 173.139 37.0231)" fill="#808080"/>
<ellipse cx="158.699" cy="37.0231" rx="1.69903" ry="1.7632" transform="rotate(-180 158.699 37.0231)" fill="#808080"/>
<ellipse cx="202.02" cy="19.3928" rx="1.69903" ry="1.7632" transform="rotate(-180 202.02 19.3928)" fill="#808080"/>
<ellipse cx="187.58" cy="19.3928" rx="1.69905" ry="1.7632" transform="rotate(-180 187.58 19.3928)" fill="#808080"/>
<ellipse cx="173.139" cy="19.3929" rx="1.69903" ry="1.7632" transform="rotate(-180 173.139 19.3929)" fill="#808080"/>
<ellipse cx="158.699" cy="19.3929" rx="1.69903" ry="1.7632" transform="rotate(-180 158.699 19.3929)" fill="#808080"/>
<ellipse cx="202.02" cy="1.76323" rx="1.69905" ry="1.7632" transform="rotate(-180 202.02 1.76323)" fill="#808080"/>
<ellipse cx="187.58" cy="1.76323" rx="1.69905" ry="1.7632" transform="rotate(-180 187.58 1.76323)" fill="#808080"/>
<ellipse cx="173.139" cy="1.76323" rx="1.69903" ry="1.7632" transform="rotate(-180 173.139 1.76323)" fill="#808080"/>
<ellipse cx="158.699" cy="1.76323" rx="1.69905" ry="1.7632" transform="rotate(-180 158.699 1.76323)" fill="#808080"/>
</mask>
<g mask="url(#mask1_1248_47378)">
<rect x="229" y="-57.228" width="169" height="228" fill="url(#paint1_linear_1248_47378)"/>
</g>
</g>
</g>
<defs>
<linearGradient id="paint0_linear_1248_47378" x1="156.5" y1="-57.228" x2="156.5" y2="170.772" gradientUnits="userSpaceOnUse">
<stop stop-color="white"/>
<stop offset="1" stop-color="#D9D9D9" stop-opacity="0"/>
</linearGradient>
<linearGradient id="paint1_linear_1248_47378" x1="313.5" y1="-57.228" x2="313.5" y2="170.772" gradientUnits="userSpaceOnUse">
<stop stop-color="white"/>
<stop offset="1" stop-color="#D9D9D9" stop-opacity="0"/>
</linearGradient>
</defs>
</svg>
