<svg width="1067" height="760" viewBox="0 0 1067 760" fill="none" xmlns="http://www.w3.org/2000/svg">
<g style="mix-blend-mode:overlay" opacity="0.8">
<rect x="774.777" y="0.669513" width="133.721" height="133.721" rx="7.5" transform="rotate(26.233 774.777 0.669513)" stroke="white"/>
</g>
<g style="mix-blend-mode:overlay" opacity="0.2">
<rect x="971.415" y="86.9444" width="82.7573" height="82.7573" rx="8" transform="rotate(-9.47149 971.415 86.9444)" fill="#D9D9D9"/>
</g>
<g style="mix-blend-mode:soft-light" opacity="0.8">
<circle cx="175.583" cy="197.381" r="138.281" transform="rotate(15 175.583 197.381)" stroke="white" stroke-width="2" stroke-linecap="round" stroke-linejoin="round" stroke-dasharray="2 4 6 8"/>
</g>
<g style="mix-blend-mode:overlay" opacity="0.4">
<line y1="631.617" x2="516" y2="631.617" stroke="#FAFAFA" stroke-width="0.5"/>
<line x1="37.1072" y1="595" x2="37.1072" y2="759.483" stroke="#FAFAFA" stroke-width="0.5"/>
<line x1="76.7997" y1="595" x2="76.7997" y2="759.483" stroke="#FAFAFA" stroke-width="0.5"/>
<line x1="110.821" y1="595" x2="110.821" y2="759.483" stroke="#FAFAFA" stroke-width="0.5"/>
<line x1="144.844" y1="595" x2="144.843" y2="759.483" stroke="#FAFAFA" stroke-width="0.5"/>
<line x1="184.536" y1="595" x2="184.536" y2="759.483" stroke="#FAFAFA" stroke-width="0.5"/>
<line x1="224.228" y1="595" x2="224.228" y2="759.483" stroke="#FAFAFA" stroke-width="0.5"/>
<line x1="258.25" y1="595" x2="258.25" y2="759.483" stroke="#FAFAFA" stroke-width="0.5"/>
<line x1="292.272" y1="595" x2="292.272" y2="759.483" stroke="#FAFAFA" stroke-width="0.5"/>
<line x1="326.294" y1="595" x2="326.294" y2="759.483" stroke="#FAFAFA" stroke-width="0.5"/>
<line x1="365.986" y1="595" x2="365.986" y2="759.483" stroke="#FAFAFA" stroke-width="0.5"/>
<line x1="400.008" y1="595" x2="400.008" y2="759.483" stroke="#FAFAFA" stroke-width="0.5"/>
<line x1="434.03" y1="595" x2="434.03" y2="759.483" stroke="#FAFAFA" stroke-width="0.5"/>
<line y1="657.142" x2="516" y2="657.142" stroke="#FAFAFA" stroke-width="0.5"/>
<line y1="688.335" x2="516" y2="688.335" stroke="#FAFAFA" stroke-width="0.5"/>
<line y1="716.694" x2="516" y2="716.694" stroke="#FAFAFA" stroke-width="0.5"/>
</g>
<g style="mix-blend-mode:overlay" opacity="0.2">
<path d="M737.473 499.734C736.527 504.741 729.384 503.636 725.784 503.762C722.85 503.865 719.928 504.37 717.122 505.242C711.741 506.914 706.569 510.114 703.564 514.988C700.389 520.14 700.845 525.799 702.223 531.442C703.668 537.362 706.699 547.459 698.479 549.814C689.94 552.26 680.744 546.334 672.407 551.028C660.034 557.995 667.203 574.174 665.986 585.042C665.499 589.388 663.459 593.569 658.827 594.533C656.059 595.109 653.096 594.457 650.348 594.069C645.309 593.359 640.295 592.93 635.701 595.553C624.344 602.038 625.736 615.197 626.414 626.223C626.846 633.263 625.026 639.49 617.128 640.322C612.225 640.837 607.261 639.856 602.368 640.596C590.203 642.434 587.824 653.851 588.781 664.455C589.412 671.446 592.036 683.857 583.907 687.646C578.024 690.388 571.03 685.694 564.76 687.542C558.999 689.24 555.125 694.975 554.924 700.862C554.697 707.523 558.737 713.274 564.089 716.866C566.75 718.652 569.892 714.741 567.208 712.94C560.969 708.753 555.918 698.425 564.296 693.26C569.588 689.997 576.412 694.048 582.216 693.322C594.405 691.796 595.342 677.237 594.195 667.691C593.401 661.087 591.828 650.966 598.749 646.963C602.998 644.505 608.524 645.39 613.206 645.437C623.388 645.539 631.187 640.913 631.488 629.859C631.65 623.896 629.896 617.851 630.855 611.92C631.997 604.857 636.671 598.409 644.34 598.485C649.574 598.537 654.724 600.461 659.969 599.386C664.873 598.382 668.421 594.813 670.007 590.139C671.954 584.394 670.993 578.294 670.302 572.434C669.485 565.509 669.473 555.839 678.111 554.315C686.218 552.884 695.193 557.831 702.859 553.399C717.215 545.1 700.752 527.608 708.234 516.959C713.012 510.157 721.839 508.789 729.517 508.737C735.39 508.697 741.221 506.876 742.436 500.446C743.035 497.274 738.071 496.563 737.472 499.734L737.473 499.734Z" fill="#D5C3DC"/>
</g>
</svg>
