<?xml version="1.0" encoding="UTF-8"?><svg id="Layer_2" xmlns="http://www.w3.org/2000/svg" viewBox="0 0 883 706.5"><defs><style>.cls-1{fill:none;}.cls-2{fill:#fdfdfd;}.cls-3{fill:#260525;}.cls-4{fill:#072388;}</style></defs><g id="Layer_1-2"><path class="cls-1" d="m0,0v36.32c13.82-6.5,29.18-10.02,45.06-9.64l129.28,3.12c19.86.48,38.44,7.41,52.8,19.69,17.5,14.97,26.83,36.13,27.36,58.38,14.98-38.4,54.33-66.23,97.57-65.19l129.28,3.12c19.86.48,38.44,7.41,52.8,19.69,30.43,26.03,36.2,70.76,13.85,107.42l-9.34,15.32c-24.83,40.74-72.03,64.15-118.09,58.56l-83.69-10.14c-50.46-6.11-86.75-45.42-88.51-94.59-1.98,5.05-4.42,10.02-7.36,14.85l-9.34,15.32c-24.83,40.74-72.03,64.15-118.09,58.56l-83.69-10.14c-10.65-1.29-20.66-4.08-29.86-8.11v283.45h630.56v210.5h252.44V0H0Z"/><path class="cls-2" d="m336.86,236.66l83.69,10.14c46.07,5.58,93.26-17.82,118.09-58.56l9.34-15.32c22.35-36.66,16.58-81.39-13.85-107.42-14.36-12.28-32.93-19.21-52.8-19.69l-129.28-3.12c-43.24-1.04-82.59,26.79-97.57,65.19.27,11.34-1.75,22.96-6.14,34.2,1.76,49.17,38.05,88.48,88.51,94.59Z"/><path class="cls-4" d="m113.56,230.8c46.07,5.58,93.26-17.82,118.09-58.56l9.34-15.32c2.94-4.83,5.38-9.8,7.36-14.85-.08-2.18-.11-4.37-.05-6.59.65-9.61,2.79-18.88,6.2-27.61-.53-22.25-9.85-43.41-27.36-58.38-14.36-12.28-32.93-19.21-52.8-19.69l-129.28-3.12c-15.89-.38-31.24,3.13-45.06,9.64v176.23c9.2,4.03,19.21,6.82,29.86,8.11l83.69,10.14Z"/><path class="cls-4" d="m248.35,142.07c4.4-11.23,6.41-22.86,6.14-34.2-3.4,8.73-5.55,18-6.2,27.61-.06,2.22-.02,4.41.05,6.59Z"/><rect class="cls-3" y="496" width="630.56" height="210.5"/></g></svg>