<svg width="883" height="1413" viewBox="0 0 883 1413" fill="none" xmlns="http://www.w3.org/2000/svg">
<g style="mix-blend-mode:soft-light" opacity="0.2">
<path d="M186.61 1172.85L257.489 1128.53C278.937 1115.12 307.284 1109.85 336.078 1113.91C379.038 1119.97 416.081 1145.72 430.042 1179.23L440.022 1203.19C462.181 1256.38 438.819 1310.99 382.767 1337.03L358.9 1348.12C301.584 1374.75 223.604 1361.36 175.879 1316.69C128.847 1270.09 133.631 1205.98 186.61 1172.85Z" fill="#F246CC"/>
</g>
<g style="mix-blend-mode:soft-light" opacity="0.2">
<path d="M352.065 42.6862L481.341 45.8072C501.206 46.2868 519.782 53.2126 534.14 65.4927C564.572 91.5211 570.339 136.252 547.991 172.916L538.651 188.24C513.817 228.981 466.625 252.385 420.559 246.803L336.865 236.662C284.167 230.277 246.899 187.702 248.297 135.482C251.782 83.622 298.991 41.4049 352.065 42.6862Z" fill="#FDFDFD"/>
</g>
<g style="mix-blend-mode:soft-light">
<path d="M45.0648 26.6862L174.341 29.8072C194.206 30.2868 212.782 37.2126 227.14 49.4927C257.572 75.5211 263.339 120.252 240.991 156.916L231.651 172.24C206.817 212.981 159.625 236.385 113.559 230.803L29.8648 220.662C-22.8329 214.277 -60.1009 171.702 -58.7033 119.482C-55.2178 67.622 -8.00876 25.4049 45.0648 26.6862Z" fill="#072388"/>
</g>
<g style="mix-blend-mode:soft-light">
<path d="M644.57 1146.82L752.811 1147.55C779.036 1147.73 803.35 1157.68 820.772 1175.37C849.62 1204.66 854.795 1250.03 833.698 1288.7L820.567 1312.77C790.466 1367.95 728.363 1400.57 667.471 1393.2L619.703 1387.41C555.434 1379.62 510.603 1326.82 514.119 1263.06C519.899 1198.5 578.393 1146.38 644.57 1146.82Z" fill="#6C6FF5"/>
</g>
<g style="mix-blend-mode:overlay" opacity="0.8">
<path d="M-310 496L630.557 496L630.557 1105.3H-310L-310 496Z" fill="#260525"/>
</g>
</svg>
