<?xml version="1.0" encoding="UTF-8"?><svg id="Layer_2" xmlns="http://www.w3.org/2000/svg" viewBox="0 0 823 600.5"><defs><style>.cls-1{fill:none;}.cls-2{fill:#f0336c;}.cls-3{opacity:.4;}</style></defs><g id="Layer_1-2"><g class="cls-3"><path class="cls-1" d="m0,0v600.5h823V0H0Zm697.37,479.01l-12.53,20.55c-33.32,54.66-96.62,86.05-158.42,78.57l-112.28-13.61c-70.7-8.56-120.69-65.68-118.82-135.73,4.68-69.57,68.01-126.21,139.21-124.49l173.42,4.19c26.65.64,51.57,9.93,70.83,26.41,40.82,34.92,48.56,94.92,18.58,144.11Z"/><path class="cls-2" d="m678.79,334.9c-19.26-16.47-44.18-25.77-70.83-26.41l-173.42-4.19c-71.2-1.72-134.53,54.92-139.21,124.49-1.87,70.05,48.12,127.17,118.82,135.73l112.28,13.61c61.8,7.48,125.11-23.91,158.42-78.57l12.53-20.55c29.98-49.19,22.24-109.2-18.58-144.11Z"/></g></g></svg>