<?xml version="1.0" encoding="UTF-8"?><svg id="Layer_2" xmlns="http://www.w3.org/2000/svg" viewBox="0 0 1327 396"><defs><style>.cls-1{fill:none;}.cls-2{opacity:.1;}.cls-3{fill:#c4c4c4;}</style></defs><g id="Layer_1-2"><g class="cls-2"><rect class="cls-1" x="291.93" y="162.41" width="33.52" height="30.69"/><rect class="cls-1" x="291.93" y="136.88" width="33.52" height="25.02"/><rect class="cls-1" x="291.93" y="193.6" width="33.52" height="27.86"/><rect class="cls-1" x="252.24" y="162.41" width="39.19" height="30.69"/><rect class="cls-1" x="325.95" y="193.6" width="33.52" height="27.86"/><rect class="cls-1" x="252.24" y="136.88" width="39.19" height="25.02"/><rect class="cls-1" x="252.24" y="193.6" width="39.19" height="27.86"/><rect class="cls-1" x="0" y="136.87" width="2.25" height="25.02"/><path class="cls-1" d="m916.1,43.32L937.45,0h-125.1l94.38,46.51c3.46,1.7,7.67.28,9.37-3.18Z"/><rect class="cls-1" x="0" y="162.39" width="2.24" height="30.69"/><rect class="cls-1" x="325.95" y="136.88" width="33.52" height="25.02"/><rect class="cls-1" x="0" y="193.59" width="2.24" height="27.86"/><rect class="cls-1" x="325.95" y="162.41" width="33.52" height="30.69"/><path class="cls-1" d="m1113.86,0l-53.16,8.87c-4.36.73-8.48-2.22-9.21-6.57l-.38-2.29h-112.55l-21.57,43.77c-1.39,2.82-4.24,4.46-7.19,4.46-1.19,0-2.39-.26-3.52-.82L810.09,0H0v136.37h2.25s0-36.37,0-36.37h.5v36.37s33.52,0,33.52,0v-36.37h.5v36.37s33.52,0,33.52,0v-36.37h.5v36.37s39.19,0,39.19,0v-36.37h.5v36.37s39.19,0,39.19,0v-36.37h.5v36.37s33.52,0,33.52,0v-36.37h.5v36.37s33.52,0,33.52,0v-36.37h.5v36.37s33.52,0,33.52,0v-36.37h.5v36.37s39.19,0,39.19,0v-36.37h.5v36.37s33.52,0,33.52,0v-36.37h.5v36.37s33.52,0,33.52,0v-36.37h.5v36.37s81.72,0,81.72,0v.5h-81.72s0,25.02,0,25.02h81.72v.5h-81.72s0,30.69,0,30.69h81.72v.5h-81.72s0,27.86,0,27.86h81.72v.5h-81.72s0,42.53,0,42.53h-.5v-42.54s-33.52,0-33.52,0v42.54h-.5v-42.54s-33.52,0-33.52,0v42.54h-.5v-42.54s-39.19,0-39.19,0v42.54h-.5v-42.54s-33.52,0-33.52,0v42.54h-.5v-42.54s-33.52,0-33.52,0v42.54h-.5v-42.54s-33.52,0-33.52,0v42.54h-.5v-42.54s-39.19,0-39.19,0v42.54h-.5v-42.54s-39.19,0-39.19,0v42.54h-.5v-42.54s-33.52,0-33.52,0v42.54h-.5v-42.54s-33.52,0-33.52,0v42.54h-.5v-42.54s-2.24,0-2.24,0v174.05h1327V0h-213.14Zm200.45,392.04c-6.53.28-9.63-4.98-11.01-10.69-1.8-7.47-5.14-15.75-12.85-18.85-12.07-4.86-25.36,15.14-36.71,3.05-6.06-6.46-3.28-16.32-6.52-23.89-3.45-8.07-12.86-5.85-19.42-3.48-5.55,2.01-11.27,4.33-17.31,3.74-4.91-.48-9.19-3.12-11.29-7.67-2.24-4.86-1.53-10.31-2.67-15.42-1.68-7.48-9.02-10.57-16.16-10.08-5.99.42-11.48,3.5-17.32,4.7-10.83,2.22-17.11-4.32-19.33-14.26-1.02-4.57-1.41-10.15-4.77-13.73-5.48-5.83-14.97-1.99-21.22.28-9.04,3.29-23.43,5.69-27.69-5.83-2.03-5.49.37-13.05-4.02-17.46-6.93-6.98-15.84.29-18.5,7.31-1.14,3.02-5.66.85-4.53-2.14,2.28-6.03,6.96-11.27,13.5-12.56,5.78-1.14,12.24,1.33,15.21,6.55,3.22,5.68.24,13.56,4.25,18.67,5.54,7.05,17.03,1.68,23.7-.53,10.1-3.34,21.76-3.62,26.32,7.8,1.83,4.6,2.01,9.65,3.63,14.31,2.6,7.5,9.08,7.86,15.84,5.84,10.58-3.17,23.08-7.52,31.97,2.07,3.6,3.88,4.33,8.86,4.78,13.92.25,2.76.29,5.8,1.48,8.36,1.99,4.29,6.53,5.33,10.87,4.81,10.86-1.29,24.98-11.95,34.58-1.48,6.47,7.05,2.79,17.35,7.12,25.11,4.16,7.47,13.3,2.22,18.74-.53,5.18-2.62,10.59-4.36,16.33-2.44,5.43,1.82,9.72,6.12,12.57,10.98,1.49,2.53,2.65,5.26,3.41,8.1.95,3.48,1.5,10.68,6.59,10.47,3.22-.14,3.66,4.86.43,4.99Z"/><rect class="cls-1" x="110.48" y="193.59" width="39.19" height="27.86"/><rect class="cls-1" x="36.77" y="136.87" width="33.52" height="25.02"/><rect class="cls-1" x="70.79" y="193.59" width="39.19" height="27.86"/><rect class="cls-1" x="70.79" y="162.4" width="39.19" height="30.69"/><rect class="cls-1" x="70.79" y="136.87" width="39.19" height="25.02"/><rect class="cls-1" x="218.22" y="136.88" width="33.52" height="25.02"/><rect class="cls-1" x="2.74" y="162.39" width="33.52" height="30.69"/><rect class="cls-1" x="36.76" y="193.59" width="33.52" height="27.86"/><rect class="cls-1" x="2.74" y="193.59" width="33.52" height="27.86"/><rect class="cls-1" x="2.75" y="136.87" width="33.52" height="25.02"/><rect class="cls-1" x="36.77" y="162.39" width="33.52" height="30.69"/><rect class="cls-1" x="150.17" y="136.88" width="33.52" height="25.02"/><rect class="cls-1" x="218.22" y="193.6" width="33.52" height="27.86"/><rect class="cls-1" x="218.22" y="162.4" width="33.52" height="30.69"/><rect class="cls-1" x="184.19" y="193.6" width="33.52" height="27.86"/><rect class="cls-1" x="184.2" y="162.4" width="33.52" height="30.69"/><rect class="cls-1" x="150.17" y="162.4" width="33.52" height="30.69"/><rect class="cls-1" x="184.2" y="136.88" width="33.52" height="25.02"/><rect class="cls-1" x="150.17" y="193.59" width="33.52" height="27.86"/><rect class="cls-1" x="110.48" y="162.4" width="39.19" height="30.69"/><rect class="cls-1" x="110.48" y="136.87" width="39.19" height="25.02"/><path class="cls-3" d="m909.8,48.23c2.95,0,5.8-1.64,7.19-4.46L938.56,0h-1.11l-21.35,43.32c-1.71,3.46-5.91,4.89-9.37,3.18L812.35,0h-2.26l96.19,47.41c1.13.56,2.34.82,3.52.82Z"/><path class="cls-3" d="m1060.7,8.87l53.16-8.87h-62.75l.38,2.29c.73,4.36,4.85,7.3,9.21,6.57Z"/><path class="cls-3" d="m2.24,264.48h.5v-42.54s33.52,0,33.52,0v42.54s.5,0,.5,0v-42.54s33.52,0,33.52,0v42.54s.5,0,.5,0v-42.54s39.19,0,39.19,0v42.54s.5,0,.5,0v-42.54s39.19,0,39.19,0v42.54s.5,0,.5,0v-42.54s33.52,0,33.52,0v42.54s.5,0,.5,0v-42.54s33.52,0,33.52,0v42.54s.5,0,.5,0v-42.54s33.52,0,33.52,0v42.54s.5,0,.5,0v-42.54s39.19,0,39.19,0v42.54s.5,0,.5,0v-42.54s33.52,0,33.52,0v42.54s.5,0,.5,0v-42.54s33.52,0,33.52,0v42.54s.5,0,.5,0v-42.54s81.72,0,81.72,0v-.5h-81.72s0-27.86,0-27.86h81.72s0-.5,0-.5h-81.72s0-30.7,0-30.7h81.72s0-.5,0-.5h-81.72s0-25.03,0-25.03h81.72s0-.5,0-.5h-81.72s0-36.37,0-36.37h-.5v36.37s-33.52,0-33.52,0v-36.37s-.5,0-.5,0v36.37s-33.52,0-33.52,0v-36.37s-.5,0-.5,0v36.37s-39.19,0-39.19,0v-36.37s-.5,0-.5,0v36.37s-33.52,0-33.52,0v-36.37s-.5,0-.5,0v36.37s-33.52,0-33.52,0v-36.37s-.5,0-.5,0v36.37s-33.52,0-33.52,0v-36.37s-.5,0-.5,0v36.37s-39.19,0-39.19,0v-36.37s-.5,0-.5,0v36.37s-39.19,0-39.19,0v-36.37s-.5,0-.5,0v36.37s-33.52,0-33.52,0v-36.37s-.5,0-.5,0v36.37s-33.52,0-33.52,0v-36.37s-.5,0-.5,0v36.37s-2.25,0-2.25,0v.5h2.25s0,25.02,0,25.02H0s0,.5,0,.5h2.25s0,30.69,0,30.69H0s0,.5,0,.5h2.24s0,27.86,0,27.86H0s0,.5,0,.5h2.24s0,42.54,0,42.54Zm323.71-127.6h33.52s0,25.03,0,25.03h-33.52s0-25.03,0-25.03Zm0,25.52h33.52s0,30.7,0,30.7h-33.52s0-30.7,0-30.7Zm0,31.19h33.52s0,27.86,0,27.86h-33.52s0-27.86,0-27.86Zm-34.02-56.72h33.52s0,25.03,0,25.03h-33.52s0-25.03,0-25.03Zm0,25.52h33.52s0,30.7,0,30.7h-33.52s0-30.7,0-30.7Zm0,31.19h33.52s0,27.86,0,27.86h-33.52s0-27.86,0-27.86Zm-39.69-56.72h39.19s0,25.03,0,25.03h-39.19s0-25.03,0-25.03Zm0,25.52h39.19s0,30.7,0,30.7h-39.19s0-30.7,0-30.7Zm0,31.19h39.19s0,27.86,0,27.86h-39.19s0-27.86,0-27.86Zm-34.02-56.72h33.52s0,25.03,0,25.03h-33.52s0-25.03,0-25.03Zm0,25.52h33.52s0,30.7,0,30.7h-33.52s0-30.7,0-30.7Zm0,31.19h33.52s0,27.86,0,27.86h-33.52s0-27.86,0-27.86Zm-34.02-56.72h33.52s0,25.03,0,25.03h-33.52s0-25.03,0-25.03Zm0,25.52h33.52s0,30.7,0,30.7h-33.52s0-30.7,0-30.7Zm0,31.19h33.52s0,27.86,0,27.86h-33.52s0-27.86,0-27.86Zm-34.02-56.72h33.52s0,25.03,0,25.03h-33.52s0-25.03,0-25.03Zm0,25.52h33.52s0,30.7,0,30.7h-33.52s0-30.7,0-30.7Zm0,31.19h33.52s0,27.86,0,27.86h-33.52s0-27.86,0-27.86Zm-39.69-56.72h39.19s0,25.03,0,25.03h-39.19s0-25.03,0-25.03Zm0,25.52h39.19s0,30.7,0,30.7h-39.19s0-30.7,0-30.7Zm0,31.19h39.19s0,27.86,0,27.86h-39.19s0-27.86,0-27.86Zm-39.69-56.72h39.19s0,25.03,0,25.03h-39.19s0-25.03,0-25.03Zm0,25.52h39.19s0,30.7,0,30.7h-39.19s0-30.7,0-30.7Zm0,31.19h39.19s0,27.86,0,27.86h-39.19s0-27.86,0-27.86Zm-34.02-56.72h33.52s0,25.03,0,25.03h-33.52s0-25.03,0-25.03Zm0,25.52h33.52s0,30.7,0,30.7h-33.52s0-30.7,0-30.7Zm0,31.19h33.52s0,27.86,0,27.86h-33.52s0-27.86,0-27.86ZM2.75,136.87h33.52s0,25.03,0,25.03H2.75s0-25.03,0-25.03Zm0,25.52h33.52s0,30.7,0,30.7H2.74s0-30.7,0-30.7Zm0,31.19h33.52s0,27.86,0,27.86H2.74s0-27.86,0-27.86Z"/><path class="cls-3" d="m1313.88,387.04c-5.09.22-5.64-6.99-6.59-10.47-.76-2.83-1.92-5.56-3.41-8.1-2.85-4.86-7.14-9.17-12.57-10.98-5.74-1.92-11.15-.19-16.33,2.44-5.44,2.75-14.58,8-18.74.53-4.33-7.76-.65-18.06-7.12-25.11-9.6-10.46-23.72.2-34.58,1.48-4.34.51-8.88-.52-10.87-4.81-1.19-2.56-1.23-5.6-1.48-8.36-.45-5.07-1.18-10.05-4.78-13.92-8.89-9.59-21.39-5.23-31.97-2.07-6.76,2.02-13.24,1.67-15.84-5.84-1.62-4.66-1.8-9.71-3.63-14.31-4.56-11.43-16.22-11.15-26.32-7.8-6.67,2.2-18.16,7.58-23.7.53-4.01-5.11-1.03-12.98-4.25-18.67-2.97-5.22-9.43-7.69-15.21-6.55-6.54,1.29-11.22,6.54-13.5,12.56-1.13,3,3.39,5.17,4.53,2.14,2.66-7.03,11.57-14.29,18.5-7.31,4.39,4.41,1.99,11.98,4.02,17.46,4.26,11.52,18.65,9.12,27.69,5.83,6.25-2.28,15.74-6.11,21.22-.28,3.36,3.58,3.75,9.16,4.77,13.73,2.22,9.94,8.5,16.48,19.33,14.26,5.84-1.2,11.33-4.28,17.32-4.7,7.14-.49,14.48,2.59,16.16,10.08,1.14,5.11.43,10.56,2.67,15.42,2.1,4.55,6.38,7.19,11.29,7.67,6.04.59,11.76-1.73,17.31-3.74,6.56-2.37,15.97-4.58,19.42,3.48,3.24,7.57.46,17.43,6.52,23.89,11.35,12.09,24.64-7.92,36.71-3.05,7.71,3.1,11.05,11.39,12.85,18.85,1.38,5.71,4.48,10.97,11.01,10.69,3.23-.14,2.79-5.13-.43-4.99Z"/></g></g></svg>