<?xml version="1.0" encoding="UTF-8"?><svg id="Layer_2" xmlns="http://www.w3.org/2000/svg" viewBox="0 0 383.69 317.45"><defs><style>.cls-1{opacity:.1;}.cls-2,.cls-3{fill:rgba(196,196,196,.7);}.cls-3,.cls-4{stroke:rgba(250,250,250,.2);}.cls-4{fill:#c4c4c4;}</style></defs><g id="Layer_1-2"><g class="cls-1"><path class="cls-2" d="m259.22,311.41v-.02s-8.29-19.65-8.29-19.65c-1.9-4.5.2-9.62,4.69-11.48l41.49-17.14.05-.02c2.93-1.31,5.39-3.64,6.67-6.77l35.93-87.89c1.26-3.09,1.29-6.47-.02-9.58l-17.51-41.53c-1.9-4.5.2-9.62,4.69-11.48l19.63-8.11c4.51-1.86,9.7.28,11.6,4.8l24.37,57.81c.86,2.2.9,4.62.02,6.79l-49.25,120.47c-.91,2.22-2.56,3.91-4.74,4.81l-57.78,23.86c-4.51,1.86-9.69-.28-11.56-4.88Z"/><path class="cls-4" d="m326.93,105.85c-4.5,1.86-6.59,6.98-4.69,11.48l17.51,41.53c1.31,3.11,1.29,6.48.02,9.58l-35.93,87.89c-1.28,3.13-3.74,5.47-6.67,6.77l-.05.02-41.49,17.14c-4.5,1.86-6.59,6.98-4.69,11.48l8.28,19.65v.02c1.88,4.6,7.05,6.74,11.57,4.88l57.78-23.86c2.18-.9,3.83-2.59,4.74-4.81l49.25-120.47c.89-2.18.84-4.59-.02-6.79l-24.37-57.81c-1.9-4.52-7.09-6.66-11.6-4.8l-19.63,8.11Zm0,0l-.69-1.68"/><path class="cls-2" d="m229.23,249.09c.63,6.61-5.89,11.48-12.2,8.87l-22.37-9.25c-3.15-1.3-5.23-4.18-5.52-7.44h0s-3.37-35.31-3.37-35.31c-.16-2.75-1.93-4.99-4.38-6l-27.12-11.21c-3.68-1.52-7.81.16-9.32,3.87l-9.01,22.05c-1.82,4.46-7.02,6.64-11.56,4.76l-19.8-8.18c-4.54-1.88-6.71-7.09-4.89-11.56l53.84-131.69c1.82-4.46,7.02-6.63,11.56-4.76l87.9,36.34c2.25.93,3.96,2.6,4.88,4.79l14.5,34.39c.85,2.2.9,4.62.02,6.79l-18.95,46.36c-.91,2.22-2.56,3.91-4.74,4.81l-18.66,7.7c-2.8,1.16-4.64,4.1-4.34,7.2,0,0,0,0,0,0l3.54,37.47Zm-5.22-119.41l-38.9-16.08c-3.67-1.52-7.87.26-9.24,3.94l-10.61,25.95c-1.51,3.71.25,7.82,3.92,9.34l38.9,16.08c1.77.73,3.79.64,5.44-.04l5.67-2.34c1.87-.68,3.23-2.15,3.92-3.84l7.28-17.82c.73-1.78.61-3.81-.08-5.46l-2.45-5.81c-.69-1.87-2.17-3.23-3.85-3.92Z"/><path class="cls-4" d="m229.23,249.09l1.8-.17m-1.8.17c.63,6.61-5.89,11.48-12.2,8.87l-22.37-9.25c-3.15-1.3-5.23-4.18-5.52-7.44h0s-3.37-35.31-3.37-35.31c-.16-2.75-1.93-4.99-4.38-6l-27.12-11.21c-3.68-1.52-7.81.16-9.32,3.87l-9.01,22.05c-1.82,4.46-7.02,6.64-11.56,4.76l-19.8-8.18c-4.54-1.88-6.71-7.09-4.89-11.56l53.84-131.69c1.82-4.46,7.02-6.63,11.56-4.76l87.9,36.34c2.25.93,3.96,2.6,4.88,4.79l14.5,34.39c.85,2.2.9,4.62.02,6.79l-18.95,46.36c-.91,2.22-2.56,3.91-4.74,4.81l-18.66,7.7c-2.8,1.16-4.64,4.1-4.34,7.2m3.54,37.47l-3.54-37.47m-1.68-81.94l-38.9-16.08c-3.67-1.52-7.87.26-9.24,3.94l-10.61,25.95c-1.51,3.71.25,7.82,3.92,9.34l38.9,16.08c1.77.73,3.79.64,5.44-.04l5.67-2.34c1.87-.68,3.23-2.15,3.92-3.84l7.28-17.82c.73-1.78.61-3.81-.08-5.46l-2.45-5.81c-.69-1.87-2.17-3.23-3.85-3.92Z"/><path class="cls-3" d="m44.01,158.46l.02.05,17.51,41.52c1.9,4.5-.2,9.62-4.69,11.48l-19.63,8.11h-.02c-4.55,1.96-9.72-.18-11.62-4.7L1.19,157.09c-.92-2.19-.91-4.55,0-6.77L50.44,29.85c.89-2.18,2.61-3.86,4.76-4.82L112.95,1.17c4.51-1.86,9.7.28,11.6,4.8l8.28,19.65c1.9,4.5-.2,9.62-4.69,11.48l-41.49,17.14c-3.11,1.28-5.45,3.7-6.71,6.79l-35.93,87.89c-1.28,3.13-1.17,6.53,0,9.53Z"/></g></g></svg>