<?xml version="1.0" encoding="UTF-8"?><svg id="Layer_2" xmlns="http://www.w3.org/2000/svg" viewBox="0 0 1208.65 324"><defs><style>.cls-1{fill:none;}.cls-2{opacity:.1;}.cls-3{fill:#c4c4c4;}</style></defs><g id="Layer_1-2"><g class="cls-2"><path class="cls-1" d="m0,0v324h9.47L.11,268.02c-.73-4.36,2.21-8.48,6.57-9.21l65.85-11.02c4.36-.73,8.48,2.21,9.21,6.57l11,65.83c.22,1.32.1,2.61-.29,3.8h69.05l54.73-111.16c1.95-3.96,6.75-5.59,10.71-3.65l125.89,61.97c1.92.94,3.35,2.58,4.04,4.6.69,2.02.55,4.19-.4,6.11l-20.74,42.13h811.93l-66.99-33.01c-1.92-.94-3.35-2.58-4.04-4.6-.69-2.02-.55-4.19.4-6.11l38.44-78c.94-1.92,2.58-3.35,4.6-4.04,2.02-.69,4.19-.55,6.11.4l77.99,38.44c1.92.94,3.35,2.58,4.04,4.6.69,2.02.55,4.19-.4,6.11l-37.56,76.22h38.39V0H0Zm905.61,43.84c.54-.09,1.06.28,1.15.82.11.67.21,1.34.3,2.01.07.55-.32,1.05-.86,1.12-.04,0-.09,0-.13,0-.5,0-.93-.37-.99-.87-.08-.65-.18-1.29-.29-1.94-.09-.54.28-1.06.82-1.15Zm-2.77-9.59c.52-.19,1.09.07,1.29.59.24.64.46,1.28.67,1.92.17.52-.11,1.09-.64,1.26-.1.03-.21.05-.31.05-.42,0-.81-.27-.95-.69-.21-.62-.42-1.24-.65-1.85-.19-.52.07-1.09.59-1.29Zm-99.67,2.71c.21-.65.43-1.29.66-1.93.19-.52.76-.79,1.28-.6.52.19.79.76.6,1.28-.22.61-.44,1.23-.64,1.86-.14.42-.53.69-.95.69-.1,0-.21-.02-.31-.05-.53-.17-.81-.73-.64-1.26Zm-1.92,7.91c.09-.54.6-.92,1.15-.83.55.09.92.6.83,1.15-.11.65-.2,1.3-.28,1.94-.06.51-.49.88-.99.88-.04,0-.08,0-.13,0-.55-.07-.94-.57-.87-1.12.08-.67.18-1.34.29-2.01Zm.41,13.12c-.52,0-.96-.4-1-.93-.05-.68-.08-1.35-.1-2.03-.01-.55.42-1.01.97-1.03.52-.03,1.01.42,1.03.97.02.65.05,1.3.09,1.95.04.55-.38,1.03-.93,1.07-.02,0-.05,0-.07,0Zm1.87,9.81c-.09.02-.17.03-.26.03-.44,0-.85-.3-.97-.74-.17-.66-.33-1.31-.48-1.98-.12-.54.22-1.07.76-1.19.55-.12,1.07.22,1.19.76.14.64.3,1.27.46,1.9.14.53-.18,1.08-.71,1.22Zm3.64,9.3c-.14.07-.29.1-.43.1-.37,0-.73-.21-.9-.57-.29-.61-.58-1.23-.85-1.85-.22-.51.01-1.1.52-1.32.51-.22,1.1.01,1.32.52.26.6.53,1.19.82,1.78.24.5.03,1.1-.47,1.33Zm.91-47.99c-.16,0-.33-.04-.48-.12-.48-.27-.66-.87-.39-1.36.33-.6.67-1.19,1.02-1.77.29-.47.9-.63,1.37-.34.47.28.63.9.34,1.37-.34.56-.66,1.13-.98,1.7-.18.33-.52.52-.88.52Zm4.41,56.44c-.18.13-.39.2-.59.2-.31,0-.61-.14-.8-.4-.41-.55-.8-1.1-1.18-1.66-.31-.46-.2-1.08.26-1.39.46-.31,1.08-.2,1.39.26.37.54.75,1.07,1.14,1.6.33.44.24,1.07-.21,1.4Zm3.28-66.53c-.44.49-.87.98-1.29,1.48-.2.24-.48.36-.77.36-.23,0-.45-.08-.64-.23-.42-.35-.48-.98-.13-1.41.44-.52.88-1.04,1.34-1.54.37-.41,1-.44,1.41-.07s.44,1,.07,1.41Zm3.54,73.82c-.2.21-.47.32-.74.32-.24,0-.48-.09-.68-.26-.5-.46-.99-.93-1.48-1.41-.39-.39-.4-1.02,0-1.41.39-.39,1.02-.4,1.42,0,.47.46.94.91,1.42,1.36.41.37.43,1.01.06,1.41Zm3.68-80.44c-.52.39-1.04.8-1.54,1.21-.19.15-.41.23-.63.23-.29,0-.58-.13-.78-.37-.35-.43-.28-1.06.14-1.41.53-.43,1.06-.85,1.61-1.26.44-.33,1.07-.24,1.4.2.33.44.24,1.07-.2,1.4Zm4.41,86.3c-.19.31-.52.48-.85.48-.18,0-.36-.05-.52-.15-.58-.36-1.15-.72-1.72-1.1-.46-.31-.58-.93-.28-1.39s.93-.58,1.39-.28c.54.36,1.1.72,1.66,1.06.47.29.62.9.33,1.38Zm3.93-91.43c-.59.29-1.17.59-1.74.9-.15.08-.31.12-.47.12-.36,0-.7-.19-.88-.53-.26-.49-.08-1.09.41-1.35.6-.32,1.2-.63,1.81-.93.5-.24,1.09-.04,1.34.46.24.5.04,1.1-.46,1.34Zm5.12,95.64c-.15.4-.53.65-.94.65-.12,0-.24-.02-.35-.06-.64-.24-1.27-.49-1.89-.75-.51-.21-.75-.8-.54-1.31.21-.51.8-.75,1.31-.54.6.25,1.21.49,1.82.72.52.19.78.77.58,1.29Zm4.04-99.11c-.63.17-1.26.36-1.88.55-.1.03-.2.05-.3.05-.43,0-.82-.27-.95-.7-.17-.53.13-1.09.65-1.25.65-.2,1.3-.39,1.95-.57.53-.15,1.08.17,1.23.7.15.53-.17,1.08-.7,1.23Zm4.66,102.37c-.06,0-.11,0-.17-.01-.67-.11-1.33-.24-2-.38-.54-.11-.89-.65-.77-1.19.11-.54.65-.88,1.19-.77.64.14,1.29.26,1.93.37.54.09.91.61.82,1.16-.08.49-.51.83-.98.83Zm4.98-104.03c-.65.05-1.3.11-1.95.18-.04,0-.08,0-.11,0-.5,0-.93-.38-.99-.89-.06-.55.33-1.04.88-1.11.67-.08,1.35-.14,2.03-.19.54-.04,1.03.37,1.07.92s-.37,1.03-.92,1.07Zm4.99,104.78c-.36,0-.73.01-1.09.01-.31,0-.63,0-.94,0-.55,0-.99-.47-.98-1.02,0-.55.46-1,1.02-.98.66.01,1.31.01,1.96,0,.57,0,1.01.43,1.02.98.01.55-.43,1.01-.98,1.02Zm4.91-104.57s-.08,0-.12,0c-.65-.08-1.3-.14-1.95-.19-.55-.04-.96-.52-.92-1.08.04-.55.53-.96,1.08-.92.67.05,1.35.12,2.03.2.55.06.94.56.88,1.11-.06.51-.49.88-.99.88Zm5.19,103.39c-.66.14-1.33.27-2,.39-.06.01-.12.02-.17.02-.48,0-.9-.34-.98-.83-.1-.54.27-1.06.81-1.16.65-.11,1.29-.24,1.92-.38.54-.11,1.07.23,1.19.77.12.54-.23,1.07-.77,1.19Zm5.23-102.1c-.13.43-.53.71-.96.71-.1,0-.2-.01-.29-.04-.62-.19-1.25-.37-1.88-.54-.53-.14-.85-.69-.71-1.22s.69-.85,1.22-.71c.66.18,1.31.36,1.96.56.53.16.82.72.66,1.25Zm4.46,99.02c-.62.27-1.25.52-1.89.76-.12.04-.24.07-.36.07-.4,0-.78-.25-.93-.64-.2-.52.06-1.09.58-1.29.61-.23,1.22-.48,1.82-.73.5-.22,1.1.02,1.31.53s-.02,1.1-.53,1.31Zm4.68-95.01c-.18.34-.53.53-.88.53-.16,0-.32-.04-.47-.12-.58-.31-1.16-.6-1.75-.89-.5-.24-.7-.84-.46-1.34.24-.5.84-.7,1.34-.46.61.3,1.22.6,1.82.92.49.26.67.87.41,1.35Zm4.26,90.15c-.56.38-1.13.75-1.71,1.11-.16.1-.35.15-.53.15-.33,0-.66-.17-.85-.47-.29-.47-.15-1.09.32-1.38.56-.34,1.11-.7,1.65-1.06.46-.31,1.08-.19,1.39.27.31.46.19,1.08-.27,1.39Zm3.96-84.47c-.2.24-.49.37-.78.37-.22,0-.44-.07-.63-.22-.51-.41-1.02-.81-1.55-1.21-.44-.33-.53-.96-.2-1.4.33-.44.96-.53,1.4-.2.55.41,1.08.83,1.61,1.26.43.35.49.98.15,1.41Zm3.91,78.02c-.48.48-.97.95-1.47,1.41-.19.18-.44.26-.68.26-.27,0-.54-.11-.74-.32-.37-.41-.35-1.04.06-1.41.48-.44.95-.9,1.42-1.36.39-.39,1.02-.39,1.41,0,.39.39.39,1.02,0,1.41Zm3.08-70.88c-.19.16-.42.23-.64.23-.29,0-.57-.12-.77-.36-.42-.5-.85-.99-1.29-1.48-.37-.41-.34-1.04.07-1.41.41-.37,1.04-.34,1.41.07.46.5.9,1.02,1.34,1.54.36.42.3,1.05-.12,1.41Zm3.42,63.04c-.38.56-.78,1.12-1.18,1.67-.2.27-.5.41-.81.41-.21,0-.41-.06-.59-.19-.45-.33-.54-.95-.21-1.4.39-.53.77-1.06,1.14-1.6.31-.46.93-.58,1.39-.27.46.31.58.93.27,1.39Zm1.6-54.59c-.35,0-.69-.19-.88-.51-.32-.57-.65-1.14-.99-1.69-.29-.47-.14-1.09.33-1.37.48-.29,1.09-.14,1.38.33.35.58.7,1.17,1.03,1.76.27.48.09,1.09-.39,1.36-.15.09-.32.13-.49.13Zm3.29,45.66c-.27.63-.55,1.24-.84,1.86-.17.36-.53.57-.91.57-.14,0-.29-.03-.43-.1-.5-.24-.71-.83-.48-1.33.28-.59.55-1.19.81-1.79.22-.51.81-.74,1.31-.52.51.22.74.81.52,1.31Zm3.11-9.69c-.15.66-.3,1.32-.47,1.98-.12.45-.52.75-.97.75-.08,0-.17-.01-.25-.03-.54-.14-.86-.68-.72-1.22.17-.64.32-1.27.46-1.91.12-.54.65-.88,1.19-.76.54.12.88.65.76,1.19Zm1.14-8.06c-.03.53-.47.94-1,.94-.02,0-.04,0-.06,0-.55-.03-.97-.51-.94-1.06.04-.65.07-1.31.09-1.96.01-.54.46-.97,1-.97,0,0,.02,0,.03,0,.55.01.99.47.97,1.03-.02.68-.05,1.35-.09,2.03Zm121.23,241.62l-37.98,6.34c-4.36.73-8.48-2.22-9.21-6.57l-6.33-37.97c-.73-4.36,2.22-8.48,6.58-9.21l37.98-6.34c4.36-.73,8.48,2.22,9.21,6.57l6.33,37.97c.73,4.36-2.22,8.48-6.58,9.21Z"/><path class="cls-1" d="m355.93,276.08c-.6-1.77-1.86-3.2-3.53-4.02l-125.89-61.97c-.99-.49-2.04-.72-3.08-.72-2.58,0-5.08,1.44-6.29,3.91l-54.51,110.72h172l20.96-42.57c.83-1.68.95-3.58.35-5.35Z"/><path class="cls-1" d="m1207.27,241.99c-.6-1.77-1.86-3.2-3.53-4.03l-77.99-38.44c-.98-.48-2.03-.72-3.09-.72-.76,0-1.52.12-2.26.38-1.77.6-3.2,1.86-4.03,3.53l-38.44,78c-.83,1.68-.95,3.58-.35,5.35s1.86,3.2,3.53,4.03l68.81,33.91h19.22l37.78-76.66c.83-1.68.95-3.58.35-5.35Z"/><path class="cls-3" d="m356.88,275.76c-.69-2.02-2.12-3.66-4.04-4.6l-125.89-61.97c-3.96-1.95-8.76-.31-10.71,3.65l-54.73,111.16h1.11l54.51-110.72c1.22-2.47,3.71-3.91,6.29-3.91,1.04,0,2.09.23,3.08.72l125.89,61.97c1.68.83,2.93,2.25,3.53,4.02.6,1.77.48,3.67-.35,5.35l-20.96,42.57h1.11l20.74-42.13c.94-1.92,1.08-4.09.4-6.11Z"/><path class="cls-3" d="m92.75,320.2l-11-65.83c-.73-4.36-4.85-7.3-9.21-6.57l-65.85,11.02c-4.36.73-7.3,4.85-6.57,9.21l9.36,55.98h82.99c.39-1.19.51-2.48.29-3.8Z"/><path class="cls-3" d="m1208.22,241.67c-.69-2.02-2.12-3.66-4.04-4.6l-77.99-38.44c-1.92-.94-4.09-1.09-6.11-.4-2.02.69-3.66,2.12-4.6,4.04l-38.44,78c-.95,1.92-1.09,4.09-.4,6.11.69,2.02,2.12,3.66,4.04,4.6l66.99,33.01h2.26l-68.81-33.91c-1.68-.83-2.93-2.26-3.53-4.03s-.48-3.67.35-5.35l38.44-78c.83-1.68,2.26-2.93,4.03-3.53.74-.25,1.5-.38,2.26-.38,1.06,0,2.11.24,3.09.72l77.99,38.44c1.68.83,2.93,2.26,3.53,4.03.6,1.77.48,3.67-.35,5.35l-37.78,76.66h1.11l37.56-76.22c.95-1.92,1.09-4.09.4-6.11Z"/><rect class="cls-3" x="977.88" y="247.51" width="54.5" height="54.5" rx="8" ry="8" transform="translate(-31.51 169.14) rotate(-9.47)"/><path class="cls-3" d="m803.82,38.22c.1.03.21.05.31.05.42,0,.81-.27.95-.69.2-.63.42-1.24.64-1.86.19-.52-.08-1.09-.6-1.28-.52-.19-1.09.08-1.28.6-.23.64-.45,1.28-.66,1.93-.17.53.12,1.09.64,1.26Z"/><path class="cls-3" d="m902.91,37.39c.14.42.53.69.95.69.1,0,.21-.02.31-.05.52-.17.81-.74.64-1.26-.21-.65-.44-1.29-.67-1.92-.19-.52-.77-.78-1.29-.59-.52.19-.78.77-.59,1.29.23.61.44,1.23.65,1.85Z"/><path class="cls-3" d="m905.07,46.93c.07.5.5.87.99.87.04,0,.08,0,.13,0,.55-.07.93-.57.86-1.12-.09-.67-.19-1.34-.3-2.01-.09-.54-.61-.91-1.15-.82-.54.09-.91.61-.82,1.15.11.64.2,1.29.29,1.94Z"/><path class="cls-3" d="m801.83,48.01s.08,0,.13,0c.5,0,.93-.37.99-.88.08-.65.18-1.29.28-1.94.09-.54-.28-1.06-.83-1.15-.54-.09-1.06.28-1.15.83-.11.67-.21,1.34-.29,2.01-.07.55.32,1.05.87,1.12Z"/><path class="cls-3" d="m817.84,90.08c-.39-.39-1.03-.38-1.42,0-.39.39-.38,1.03,0,1.41.48.48.98.95,1.48,1.41.19.18.43.26.68.26.27,0,.54-.11.74-.32.37-.41.35-1.04-.06-1.41-.48-.44-.96-.9-1.42-1.36Z"/><path class="cls-3" d="m906.5,53.79s-.02,0-.03,0c-.54,0-.98.43-1,.97-.02.65-.05,1.31-.09,1.96-.03.55.38,1.03.94,1.06.02,0,.04,0,.06,0,.52,0,.96-.41,1-.94.04-.68.07-1.36.09-2.03.01-.55-.42-1.01-.97-1.03Z"/><path class="cls-3" d="m882.76,96.15c-.54.37-1.09.72-1.65,1.06-.47.29-.61.91-.32,1.38.19.31.52.47.85.47.18,0,.36-.05.53-.15.58-.36,1.15-.73,1.71-1.11.46-.31.58-.93.27-1.39-.31-.46-.93-.58-1.39-.27Z"/><path class="cls-3" d="m874.15,100.83c-.6.26-1.21.5-1.82.73-.52.2-.77.77-.58,1.29.15.4.53.64.93.64.12,0,.24-.02.36-.07.63-.24,1.27-.5,1.89-.76.51-.22.74-.8.53-1.31s-.81-.74-1.31-.53Z"/><path class="cls-3" d="m869.82,2.4c-.65-.2-1.3-.39-1.96-.56-.53-.14-1.08.17-1.22.71s.17,1.08.71,1.22c.63.17,1.26.35,1.88.54.1.03.2.04.29.04.43,0,.82-.28.96-.71.16-.53-.13-1.09-.66-1.25Z"/><path class="cls-3" d="m855.1,104.93c-.65.01-1.31.01-1.96,0-.56-.02-1.01.43-1.02.98,0,.55.43,1.01.98,1.02.31,0,.63,0,.94,0,.37,0,.73,0,1.09-.01.55-.01.99-.47.98-1.02-.01-.55-.45-.99-1.02-.98Z"/><path class="cls-3" d="m860.17.36c-.68-.08-1.35-.15-2.03-.2-.54-.04-1.03.37-1.08.92-.04.55.37,1.03.92,1.08.65.05,1.3.11,1.95.19.04,0,.08,0,.12,0,.5,0,.93-.38.99-.88.06-.55-.33-1.04-.88-1.11Z"/><path class="cls-3" d="m864.82,103.79c-.64.14-1.28.26-1.92.38-.54.1-.91.61-.81,1.16.08.49.51.83.98.83.06,0,.12,0,.17-.02.67-.12,1.33-.25,2-.39.54-.12.88-.65.77-1.19-.12-.54-.65-.88-1.19-.77Z"/><path class="cls-3" d="m886.08,10.68c-.44-.33-1.07-.24-1.4.2-.33.44-.24,1.07.2,1.4.52.39,1.04.8,1.55,1.21.19.15.41.22.63.22.29,0,.58-.13.78-.37.35-.43.28-1.06-.15-1.41-.53-.43-1.06-.85-1.61-1.26Z"/><path class="cls-3" d="m902.61,73.28c-.51-.22-1.1.02-1.31.52-.26.6-.53,1.2-.81,1.79-.24.5-.02,1.1.48,1.33.14.07.28.1.43.1.38,0,.73-.21.91-.57.29-.61.57-1.23.84-1.86.22-.51-.02-1.1-.52-1.31Z"/><path class="cls-3" d="m905.48,63.72c-.54-.12-1.07.22-1.19.76-.14.64-.29,1.27-.46,1.91-.14.53.18,1.08.72,1.22.08.02.17.03.25.03.44,0,.85-.3.97-.75.17-.66.33-1.32.47-1.98.12-.54-.22-1.07-.76-1.19Z"/><path class="cls-3" d="m900.72,27.45c-.33-.59-.67-1.18-1.03-1.76-.29-.47-.9-.62-1.38-.33-.47.29-.62.9-.33,1.37.34.56.67,1.12.99,1.69.18.33.52.51.88.51.17,0,.33-.04.49-.13.48-.27.66-.88.39-1.36Z"/><path class="cls-3" d="m893.6,17.53c-.37-.41-1-.44-1.41-.07-.41.37-.44,1-.07,1.41.44.49.87.98,1.29,1.48.2.24.48.36.77.36.23,0,.46-.08.64-.23.42-.36.48-.99.12-1.41-.44-.52-.88-1.03-1.34-1.54Z"/><path class="cls-3" d="m896.59,82.4c-.37.54-.75,1.08-1.14,1.6-.33.44-.23,1.07.21,1.4.18.13.39.19.59.19.31,0,.61-.14.81-.41.4-.55.8-1.1,1.18-1.67.31-.46.19-1.08-.27-1.39-.46-.31-1.08-.19-1.39.27Z"/><path class="cls-3" d="m890.33,89.94c-.46.46-.94.91-1.42,1.36-.41.37-.43,1.01-.06,1.41.2.21.47.32.74.32.24,0,.49-.09.68-.26.5-.46.99-.93,1.47-1.41.39-.39.39-1.02,0-1.41-.39-.39-1.02-.39-1.41,0Z"/><path class="cls-3" d="m879.21,6.3c-.6-.32-1.2-.63-1.82-.92-.5-.24-1.1-.03-1.34.46-.24.5-.03,1.1.46,1.34.59.29,1.17.58,1.75.89.15.08.31.12.47.12.36,0,.7-.19.88-.53.26-.49.07-1.09-.41-1.35Z"/><path class="cls-3" d="m814.3,17.68c-.45.5-.9,1.02-1.34,1.54-.35.42-.3,1.05.13,1.41.19.16.41.23.64.23.29,0,.57-.12.77-.36.42-.5.85-1,1.29-1.48.37-.41.34-1.04-.07-1.41s-1.04-.34-1.41.07Z"/><path class="cls-3" d="m811.57,82.56c-.31-.46-.93-.57-1.39-.26-.46.31-.57.93-.26,1.39.38.56.78,1.11,1.18,1.66.2.26.5.4.8.4.21,0,.42-.06.59-.2.44-.33.54-.96.21-1.4-.39-.53-.77-1.06-1.14-1.6Z"/><path class="cls-3" d="m806.83,73.99c-.22-.51-.81-.74-1.32-.52-.51.22-.74.81-.52,1.32.27.62.55,1.24.85,1.85.17.36.53.57.9.57.15,0,.29-.03.43-.1.5-.24.71-.84.47-1.33-.28-.59-.56-1.18-.82-1.78Z"/><path class="cls-3" d="m809.61,25.52c-.47-.29-1.09-.13-1.37.34-.35.58-.69,1.17-1.02,1.77-.27.48-.09,1.09.39,1.36.15.08.32.12.48.12.35,0,.69-.19.88-.52.32-.58.64-1.14.98-1.7.29-.47.13-1.09-.34-1.37Z"/><path class="cls-3" d="m802.67,56.92c-.04-.65-.08-1.3-.09-1.95-.02-.55-.51-1-1.03-.97-.55.02-.99.48-.97,1.03.02.68.05,1.36.1,2.03.04.53.48.93,1,.93.02,0,.05,0,.07,0,.55-.04.97-.51.93-1.07Z"/><path class="cls-3" d="m803.79,64.68c-.12-.54-.65-.87-1.19-.76-.54.12-.88.66-.76,1.19.15.66.31,1.32.48,1.98.12.45.52.74.97.74.08,0,.17-.01.26-.03.53-.14.85-.69.71-1.22-.17-.63-.32-1.27-.46-1.9Z"/><path class="cls-3" d="m827.09,97.33c-.56-.34-1.11-.7-1.66-1.06-.46-.31-1.08-.18-1.39.28s-.18,1.08.28,1.39c.56.38,1.14.74,1.72,1.1.16.1.34.15.52.15.34,0,.66-.17.85-.48.29-.47.14-1.09-.33-1.38Z"/><path class="cls-3" d="m839.98,1.88c-.66.18-1.31.37-1.95.57-.53.17-.82.73-.65,1.25.13.43.53.7.95.7.1,0,.2-.02.3-.05.62-.2,1.25-.38,1.88-.55.53-.15.85-.7.7-1.23-.15-.53-.7-.85-1.23-.7Z"/><path class="cls-3" d="m845.34,104.19c-.64-.11-1.28-.23-1.93-.37-.54-.11-1.07.23-1.19.77-.11.54.23,1.07.77,1.19.67.14,1.33.27,2,.38.06,0,.11.01.17.01.48,0,.9-.34.98-.83.09-.54-.27-1.06-.82-1.16Z"/><path class="cls-3" d="m835.88,101.63c-.61-.23-1.22-.47-1.82-.72-.51-.21-1.1.03-1.31.54-.21.51.03,1.1.54,1.31.62.26,1.25.51,1.89.75.12.04.23.06.35.06.4,0,.79-.25.94-.65.19-.52-.07-1.09-.58-1.29Z"/><path class="cls-3" d="m850,.15c-.68.05-1.35.11-2.03.19-.55.06-.94.56-.88,1.11.06.51.49.89.99.89.04,0,.08,0,.11,0,.65-.07,1.3-.14,1.95-.18.55-.04.96-.52.92-1.07s-.53-.96-1.07-.92Z"/><path class="cls-3" d="m830.47,5.48c-.61.3-1.21.61-1.81.93-.49.26-.67.87-.41,1.35.18.33.52.53.88.53.16,0,.32-.04.47-.12.58-.31,1.16-.61,1.74-.9.5-.24.7-.84.46-1.34-.24-.49-.84-.7-1.34-.46Z"/><path class="cls-3" d="m821.81,10.81c-.54.41-1.08.83-1.61,1.26-.43.35-.49.98-.14,1.41.2.24.49.37.78.37.22,0,.45-.07.63-.23.51-.41,1.02-.82,1.54-1.21.44-.33.53-.96.2-1.4-.33-.44-.96-.53-1.4-.2Z"/></g></g></svg>