<?xml version="1.0" encoding="UTF-8"?><svg id="Layer_2" xmlns="http://www.w3.org/2000/svg" viewBox="0 0 1208.65 324"><defs><style>.cls-1{fill:none;}.cls-2{opacity:.1;}.cls-3{fill:#c4c4c4;}</style></defs><g id="Layer_1-2"><g class="cls-2"><rect class="cls-1" x="295.42" y="191.86" width="33.52" height="30.69"/><rect class="cls-1" x="261.4" y="223.05" width="33.52" height="27.86"/><rect class="cls-1" x="295.42" y="223.05" width="33.52" height="27.86"/><rect class="cls-1" x="261.4" y="166.33" width="33.52" height="25.03"/><rect class="cls-1" x="261.4" y="191.86" width="33.52" height="30.69"/><rect class="cls-1" x="227.38" y="223.05" width="33.52" height="27.86"/><rect class="cls-1" x="187.69" y="166.33" width="39.19" height="25.03"/><rect class="cls-1" x="227.38" y="191.85" width="33.52" height="30.69"/><rect class="cls-1" x="227.38" y="166.33" width="33.52" height="25.03"/><rect class="cls-1" x="403.16" y="166.34" width="33.52" height="25.03"/><rect class="cls-1" x="403.16" y="191.86" width="33.52" height="30.69"/><rect class="cls-1" x="187.69" y="191.85" width="39.19" height="30.69"/><rect class="cls-1" x="403.16" y="223.06" width="33.52" height="27.86"/><rect class="cls-1" x="369.14" y="191.86" width="33.52" height="30.69"/><rect class="cls-1" x="329.45" y="166.33" width="39.19" height="25.03"/><rect class="cls-1" x="329.45" y="191.86" width="39.19" height="30.69"/><rect class="cls-1" x="369.14" y="223.05" width="33.52" height="27.86"/><rect class="cls-1" x="329.45" y="223.05" width="39.19" height="27.86"/><rect class="cls-1" x="295.43" y="166.33" width="33.52" height="25.03"/><rect class="cls-1" x="369.14" y="166.34" width="33.52" height="25.03"/><rect class="cls-1" x="113.98" y="166.32" width="33.52" height="25.03"/><rect class="cls-1" x="113.97" y="191.85" width="33.52" height="30.69"/><rect class="cls-1" x="79.95" y="223.04" width="33.52" height="27.86"/><rect class="cls-1" x="40.26" y="166.32" width="39.19" height="25.03"/><rect class="cls-1" x="148" y="191.85" width="39.19" height="30.69"/><rect class="cls-1" x="113.97" y="223.04" width="33.52" height="27.86"/><rect class="cls-1" x="79.95" y="191.85" width="33.52" height="30.69"/><rect class="cls-1" x="79.95" y="166.32" width="33.52" height="25.03"/><rect class="cls-1" x="148" y="223.04" width="39.19" height="27.86"/><rect class="cls-1" x="187.69" y="223.05" width="39.19" height="27.86"/><path class="cls-1" d="m154.79,20.5c.6,1.77,1.86,3.2,3.53,4.02l125.89,61.97c3.46,1.71,7.67.27,9.37-3.19L334.6,0h-172l-7.46,15.15c-.83,1.68-.95,3.58-.35,5.35Z"/><path class="cls-1" d="m1164.46,4.83c1.77-.6,3.2-1.86,4.03-3.53l.64-1.3h-19.1l9.09,4.48c1.68.83,3.58.95,5.35.35Z"/><path class="cls-1" d="m1170.24,0l-.86,1.74c-.94,1.92-2.58,3.35-4.6,4.04-.84.29-1.71.43-2.58.43-1.21,0-2.41-.28-3.53-.83l-10.91-5.38H335.72l-41.23,83.75c-1.39,2.83-4.24,4.47-7.19,4.47-1.18,0-2.39-.26-3.52-.82l-125.89-61.97c-1.92-.94-3.35-2.58-4.04-4.6s-.55-4.19.4-6.11l7.24-14.71h-69.04c-.91,2.72-3.25,4.86-6.27,5.36L20.32,16.38c-4.36.73-8.48-2.21-9.21-6.57L9.48,0H0v324h1208.65V0h-38.41Zm-248.33,128.08c.12-.54.64-.88,1.19-.77.54.12.88.65.77,1.19-.14.65-.28,1.3-.41,1.94-.1.47-.51.8-.98.8-.07,0-.13,0-.2-.02-.54-.11-.89-.64-.78-1.18.13-.66.27-1.31.41-1.97Zm-1.78,9.91c.08-.55.58-.92,1.13-.85.55.08.93.58.85,1.13-.09.66-.18,1.31-.27,1.97-.07.5-.5.87-.99.87-.04,0-.08,0-.13,0-.55-.07-.93-.57-.86-1.12.09-.66.18-1.33.27-1.99Zm-1.06,10.01c.04-.55.52-.96,1.07-.93.55.04.97.52.93,1.07-.05.66-.09,1.32-.12,1.98-.03.53-.47.94-1,.94-.02,0-.04,0-.06,0-.55-.03-.97-.5-.94-1.05.04-.67.08-1.34.12-2.01Zm-400.16,18.34h-81.72s0,25.02,0,25.02h81.72v.5h-81.72s0,30.69,0,30.69h81.72v.5h-81.72s0,27.86,0,27.86h81.72v.5h-81.72s0,42.53,0,42.53h-.5v-42.54s-33.52,0-33.52,0v42.54h-.5v-42.54s-33.52,0-33.52,0v42.54h-.5v-42.54s-39.19,0-39.19,0v42.54h-.5v-42.54s-33.52,0-33.52,0v42.54h-.5v-42.54s-33.52,0-33.52,0v42.54h-.5v-42.54s-33.52,0-33.52,0v42.54h-.5v-42.54s-39.19,0-39.19,0v42.54h-.5v-42.54s-39.19,0-39.19,0v42.54h-.5v-42.54s-33.52,0-33.52,0v42.54h-.5v-42.54s-33.52,0-33.52,0v42.54h-.5v-42.54s-39.19,0-39.19,0v42.54h-.5v-42.54s-36.86,0-36.86,0v-.5h36.86s0-27.86,0-27.86H2.9v-.5h36.86s0-30.69,0-30.69H2.9v-.5h36.86s0-25.02,0-25.02H2.9v-.5h36.86s0-36.37,0-36.37h.5v36.37s39.19,0,39.19,0v-36.37h.5v36.37s33.52,0,33.52,0v-36.37h.5v36.37s33.52,0,33.52,0v-36.37h.5v36.37s39.19,0,39.19,0v-36.37h.5v36.37s39.19,0,39.19,0v-36.37h.5v36.37s33.52,0,33.52,0v-36.37h.5v36.37s33.52,0,33.52,0v-36.37h.5v36.37s33.52,0,33.52,0v-36.37h.5v36.37s39.19,0,39.19,0v-36.37h.5v36.37s33.52,0,33.52,0v-36.37h.5v36.37s33.52,0,33.52,0v-36.37h.5v36.37s81.72,0,81.72,0v.5Zm199.44-59.21c-1.21,6.43-7.05,8.25-12.92,8.29-7.68.05-16.51,1.42-21.28,8.22-7.48,10.65,8.98,28.14-5.38,36.44-7.67,4.43-16.64-.52-24.75.91-8.64,1.53-8.63,11.19-7.81,18.12.69,5.86,1.65,11.96-.3,17.71-1.59,4.67-5.13,8.24-10.04,9.25-5.24,1.08-10.39-.85-15.63-.9-7.67-.08-12.34,6.37-13.49,13.43-.96,5.93.79,11.98.63,17.94-.3,11.05-8.1,15.68-18.28,15.58-4.68-.05-10.21-.93-14.46,1.52-6.92,4-5.35,14.12-4.56,20.73,1.15,9.54.21,24.1-11.98,25.63-5.8.73-12.63-3.32-17.92-.06-8.38,5.16-3.33,15.49,2.91,19.68,2.68,1.8-.46,5.71-3.12,3.92-5.35-3.59-9.39-9.34-9.16-16,.2-5.89,4.08-11.62,9.84-13.32,6.27-1.85,13.26,2.84,19.15.1,8.13-3.79,5.51-16.2,4.88-23.19-.96-10.6,1.42-22.02,13.59-23.86,4.89-.74,9.86.24,14.76-.27,7.9-.83,9.72-7.06,9.29-14.1-.68-11.02-2.07-24.18,9.29-30.67,4.59-2.62,9.61-2.19,14.65-1.48,2.75.39,5.71,1.04,8.48.46,4.63-.96,6.67-5.15,7.16-9.49,1.22-10.87-5.95-27.05,6.42-34.01,8.34-4.69,17.53,1.23,26.07-1.21,8.22-2.35,5.19-12.45,3.74-18.37-1.38-5.64-1.83-11.3,1.34-16.45,3.01-4.88,8.18-8.07,13.56-9.75,2.81-.87,5.73-1.38,8.66-1.48,3.6-.13,10.74.98,11.69-4.03h0c.6-3.17,5.56-2.46,4.96.71Zm200.4,52.94c-.01-.67-.02-1.34-.02-2.01,0-.55.45-1,1-1h0c.55,0,1,.45,1,1,0,.66,0,1.32.02,1.98,0,.55-.43,1.01-.98,1.02h-.02c-.54,0-.99-.44-1-.98Zm.53,10.04c-.06-.67-.11-1.33-.16-2-.04-.55.37-1.03.92-1.07.55-.03,1.03.37,1.07.92.05.66.1,1.32.16,1.97.05.55-.36,1.04-.91,1.08-.03,0-.06,0-.09,0-.51,0-.95-.39-1-.91Zm2.24,10.81c-.48,0-.91-.35-.99-.84-.11-.66-.21-1.32-.31-1.98-.08-.55.29-1.06.84-1.14.56-.08,1.05.3,1.14.84.1.65.2,1.31.3,1.96.09.54-.28,1.06-.83,1.15-.05,0-.11.01-.16.01Zm2.19,9.76c-.08.02-.16.03-.23.03-.45,0-.86-.31-.97-.77-.15-.65-.3-1.3-.45-1.96-.12-.54.22-1.07.76-1.19.53-.12,1.07.22,1.19.76.14.65.29,1.29.44,1.93.13.54-.2,1.08-.74,1.2Zm.12-70.43c.18-.65.36-1.29.55-1.94.16-.53.71-.83,1.24-.68.53.15.83.71.68,1.24-.19.63-.37,1.27-.54,1.91-.12.44-.52.73-.96.73-.09,0-.18-.01-.27-.04-.53-.15-.84-.7-.7-1.23Zm2.6,80.04c-.1.03-.2.05-.3.05-.42,0-.82-.27-.95-.7-.2-.64-.4-1.28-.59-1.92-.16-.53.14-1.09.67-1.24.53-.16,1.08.14,1.24.67.19.63.38,1.26.58,1.89.17.53-.13,1.09-.65,1.25Zm.42-89.64c.22-.63.45-1.27.69-1.89.19-.52.76-.78,1.29-.59.52.19.78.77.59,1.29-.23.62-.45,1.24-.68,1.87-.14.41-.53.67-.94.67-.11,0-.22-.02-.33-.06-.52-.18-.79-.76-.61-1.28Zm2.98,99.03c-.12.05-.25.07-.37.07-.4,0-.77-.24-.93-.63-.25-.62-.49-1.25-.73-1.88-.2-.52.06-1.09.58-1.29.51-.19,1.09.06,1.29.58.24.62.47,1.23.72,1.85.2.51-.05,1.09-.56,1.3Zm1.23-107.08c-.51-.22-.74-.81-.51-1.32.27-.62.54-1.23.82-1.84.23-.5.82-.72,1.32-.5.5.23.73.82.5,1.32-.27.6-.54,1.21-.81,1.81-.16.38-.53.6-.92.6-.13,0-.27-.03-.4-.08Zm2.84,116.21c-.14.07-.29.1-.43.1-.37,0-.73-.21-.9-.57-.29-.6-.58-1.21-.86-1.82-.23-.5-.01-1.1.49-1.33.51-.23,1.1-.01,1.33.49.28.6.56,1.2.85,1.79.24.5.03,1.1-.47,1.33Zm1.42-125.25c-.49-.26-.68-.86-.42-1.35.31-.6.63-1.19.95-1.78.26-.48.87-.67,1.36-.4.49.26.67.87.4,1.36-.32.58-.63,1.16-.94,1.75-.18.34-.53.53-.89.53-.16,0-.32-.04-.46-.11Zm3.29,134.06c-.16.09-.33.13-.5.13-.35,0-.68-.18-.87-.5-.33-.58-.66-1.17-.99-1.76-.27-.48-.09-1.09.39-1.36.48-.27,1.09-.09,1.36.39.32.58.64,1.16.97,1.73.27.48.11,1.09-.37,1.36Zm1.61-142.77c-.47-.29-.61-.91-.32-1.38.36-.57.72-1.14,1.08-1.71.3-.46.92-.6,1.38-.3.46.3.6.92.3,1.38-.36.56-.71,1.12-1.07,1.68-.19.3-.52.47-.85.47-.18,0-.36-.05-.53-.15Zm3.71,151.23c-.17.11-.36.17-.56.17-.32,0-.64-.16-.83-.44-.37-.56-.74-1.12-1.11-1.68-.3-.46-.17-1.08.29-1.38.46-.3,1.08-.17,1.38.29.36.56.73,1.11,1.1,1.66.31.46.18,1.08-.27,1.39Zm1.82-159.58c-.45-.32-.55-.95-.22-1.4.4-.54.8-1.09,1.2-1.62.33-.44.96-.53,1.4-.2.44.33.53.96.2,1.4-.4.53-.79,1.07-1.18,1.6-.2.27-.5.41-.81.41-.2,0-.41-.06-.59-.19Zm4.1,167.64c-.18.14-.4.21-.61.21-.3,0-.59-.13-.79-.39-.41-.53-.82-1.06-1.23-1.6-.33-.44-.25-1.07.19-1.4.44-.33,1.07-.25,1.4.19.4.53.8,1.05,1.21,1.58.34.44.26,1.06-.17,1.4Zm2.66-175.32c-.23,0-.46-.08-.64-.24-.42-.36-.48-.99-.12-1.41.43-.51.87-1.03,1.31-1.53.36-.42.99-.46,1.41-.1.42.36.46.99.1,1.41-.43.5-.87,1-1.29,1.51-.2.23-.48.36-.77.36Zm3.82,182.94c-.19.17-.43.26-.67.26-.27,0-.54-.11-.74-.33-.45-.5-.9-1-1.34-1.51-.36-.42-.32-1.05.09-1.41.41-.36,1.05-.32,1.41.09.44.5.88.99,1.32,1.48.37.41.34,1.04-.07,1.41Zm2.9-190.35c-.25,0-.5-.09-.7-.28-.4-.39-.4-1.02-.02-1.41.47-.48.94-.96,1.42-1.43.39-.39,1.02-.39,1.42,0,.39.39.39,1.02,0,1.41-.47.47-.94.94-1.4,1.41-.2.2-.46.3-.72.3Zm4.11,197.48c-.2.2-.46.31-.72.31-.25,0-.5-.09-.69-.28-.49-.47-.97-.94-1.45-1.41-.39-.39-.4-1.02,0-1.41.39-.39,1.02-.4,1.41,0,.47.47.95.93,1.42,1.39.4.38.41,1.02.03,1.41Zm3.13-204.39c-.28,0-.55-.11-.75-.34-.37-.41-.33-1.04.08-1.41.5-.45,1.01-.89,1.52-1.33.42-.36,1.05-.31,1.41.1.36.42.31,1.05-.1,1.41-.5.43-1,.87-1.5,1.31-.19.17-.43.25-.66.25Zm4.39,211c-.2.24-.48.36-.77.36-.22,0-.45-.08-.64-.23-.52-.43-1.03-.86-1.54-1.3-.42-.36-.47-.99-.11-1.41.36-.42.99-.47,1.41-.11.5.43,1.01.86,1.52,1.28.42.35.48.98.13,1.41Zm3.33-217.36c-.3,0-.6-.13-.79-.39-.34-.44-.25-1.07.18-1.4.53-.41,1.07-.81,1.61-1.22.44-.33,1.07-.24,1.4.21.33.44.24,1.07-.21,1.4-.53.4-1.06.79-1.58,1.2-.18.14-.4.21-.61.21Zm4.64,223.42c-.2.27-.5.42-.81.42-.2,0-.4-.06-.58-.19-.55-.39-1.09-.79-1.63-1.19-.45-.33-.54-.95-.21-1.4.33-.45.96-.54,1.4-.21.54.39,1.07.78,1.61,1.17.45.32.55.95.23,1.4Zm3.5-229.22c-.33,0-.64-.16-.84-.45-.3-.46-.18-1.08.28-1.39.56-.37,1.12-.74,1.69-1.1.46-.3,1.08-.16,1.38.3.3.47.16,1.08-.3,1.38-.56.36-1.11.72-1.67,1.08-.17.11-.36.17-.55.17Zm4.89,234.68c-.19.31-.52.48-.85.48-.18,0-.36-.05-.52-.15-.58-.35-1.15-.71-1.72-1.07-.47-.29-.61-.91-.31-1.38s.91-.61,1.38-.31c.56.35,1.13.7,1.69,1.05.47.29.62.9.33,1.37Zm3.65-239.88c-.35,0-.69-.18-.87-.51-.27-.48-.1-1.09.38-1.36.58-.33,1.17-.65,1.76-.97.49-.26,1.09-.08,1.36.4.26.49.08,1.09-.4,1.36-.58.32-1.16.64-1.74.96-.15.09-.32.13-.49.13Zm5.1,244.71c-.18.34-.53.54-.89.54-.15,0-.31-.04-.46-.11-.6-.31-1.19-.62-1.78-.94-.49-.26-.67-.87-.41-1.35.26-.49.86-.67,1.35-.41.58.31,1.17.62,1.76.92.49.25.68.86.43,1.35Zm3.78-249.29c-.38,0-.74-.21-.91-.57-.24-.5-.02-1.1.48-1.33.61-.29,1.21-.57,1.83-.84.5-.23,1.1,0,1.32.5.23.5,0,1.1-.5,1.32-.6.27-1.2.55-1.8.83-.14.06-.28.1-.42.1Zm5.29,253.48c-.16.38-.53.61-.92.61-.13,0-.26-.03-.39-.08-.62-.26-1.23-.53-1.85-.8-.5-.22-.73-.82-.51-1.32.22-.5.82-.73,1.32-.51.6.27,1.21.53,1.82.79.51.22.74.8.53,1.31Zm3.89-257.42c-.4,0-.78-.24-.93-.64-.2-.52.06-1.09.57-1.29.62-.24,1.25-.48,1.88-.71.52-.19,1.09.07,1.28.59.19.52-.07,1.09-.59,1.29-.62.23-1.24.46-1.85.7-.12.05-.24.07-.36.07Zm5.46,260.94c-.14.41-.53.67-.95.67-.11,0-.22-.02-.33-.05-.64-.22-1.27-.44-1.9-.67-.52-.19-.79-.76-.6-1.28.19-.52.76-.79,1.28-.6.62.22,1.25.44,1.87.66.52.18.8.75.62,1.27Zm3.98-264.21c-.43,0-.82-.28-.96-.71-.16-.53.13-1.09.66-1.25.64-.2,1.28-.39,1.93-.58.53-.15,1.08.15,1.24.68s-.15,1.09-.68,1.24c-.63.18-1.27.37-1.9.57-.1.03-.2.04-.29.04Zm5.6,267.06c-.12.45-.52.74-.96.74-.09,0-.17-.01-.26-.03-.65-.17-1.3-.35-1.94-.53-.53-.15-.84-.7-.69-1.23.15-.53.7-.84,1.23-.69.64.18,1.27.36,1.91.53.53.14.85.69.71,1.22Zm5.3,1.27c-.11.46-.52.78-.97.78-.07,0-.15,0-.22-.02-.65-.15-1.31-.3-1.96-.46-.54-.13-.87-.67-.74-1.21.13-.54.67-.87,1.21-.74.64.16,1.29.31,1.93.45.54.12.88.66.75,1.2Zm.91-271.37c-.65.14-1.29.28-1.93.43-.08.02-.15.03-.22.03-.46,0-.87-.31-.97-.78-.12-.54.21-1.07.75-1.2.65-.15,1.31-.29,1.96-.44.54-.12,1.07.23,1.19.77.12.54-.23,1.07-.77,1.19Zm7.94,274.01s-.1,0-.15-.01c-.66-.1-1.33-.21-1.99-.32-.54-.09-.91-.61-.82-1.15s.6-.91,1.15-.82c.65.11,1.31.21,1.96.31.55.08.92.59.84,1.14-.08.5-.5.85-.99.85Zm1.82-275.73c-.65.09-1.31.19-1.96.29-.05,0-.1.01-.15.01-.49,0-.91-.35-.99-.85-.08-.55.29-1.06.83-1.14.66-.1,1.32-.2,1.99-.29.54-.08,1.05.3,1.13.85s-.3,1.05-.85,1.13Zm8.11,276.89s-.05,0-.08,0c-.67-.05-1.34-.11-2.01-.17-.55-.05-.95-.54-.9-1.09.05-.55.53-.95,1.09-.9.66.06,1.32.12,1.98.17.55.04.96.53.92,1.08-.04.52-.48.92-1,.92Zm1.75-277.91c-.66.04-1.32.09-1.97.15-.03,0-.05,0-.08,0-.52,0-.95-.4-1-.92-.04-.55.37-1.03.92-1.08.67-.05,1.33-.1,2-.15.54-.03,1.03.38,1.06.93.04.55-.38,1.03-.93,1.06Zm8.24,278.34h0c-.67,0-1.34-.01-2.01-.03-.55-.01-.99-.47-.98-1.02.01-.54.46-.98,1-.98,0,0,.01,0,.02,0,.66.01,1.32.02,1.99.03.55,0,1,.46.99,1.01,0,.55-.45.99-1,.99Zm1.68-278.65h-.75c-.42,0-.83,0-1.24,0h0c-.55,0-1-.44-1-.99,0-.55.44-1,.99-1.01.42,0,.84,0,1.26,0h.76c.55,0,1,.46.99,1.01,0,.55-.45.99-1,.99Zm8.37,278.36c-.67.04-1.33.08-2,.12-.02,0-.03,0-.05,0-.53,0-.97-.42-1-.95-.03-.55.4-1.02.95-1.05.66-.03,1.32-.07,1.98-.11.54-.03,1.03.38,1.06.93s-.38,1.03-.93,1.06Zm1.62-277.94s-.05,0-.08,0c-.66-.05-1.32-.1-1.98-.14-.55-.04-.97-.51-.93-1.06.03-.55.52-.98,1.06-.94.67.04,1.34.09,2.01.14.55.04.96.52.92,1.08-.04.52-.48.92-1,.92Zm8.38,276.93c-.66.09-1.33.18-1.99.26-.04,0-.08,0-.12,0-.5,0-.93-.37-.99-.88-.07-.55.32-1.05.87-1.11.65-.08,1.31-.17,1.96-.26.56-.08,1.05.31,1.13.85.08.55-.31,1.05-.85,1.13Zm1.55-275.8s-.1,0-.15-.01c-.66-.1-1.31-.19-1.97-.28-.55-.07-.93-.58-.86-1.13.07-.55.58-.93,1.13-.86.66.09,1.33.19,1.99.29.55.08.92.59.84,1.14-.08.5-.5.85-.99.85Zm8.35,274.07c-.65.14-1.31.27-1.97.4-.07.01-.13.02-.2.02-.47,0-.89-.33-.98-.81-.11-.54.25-1.07.79-1.17.65-.13,1.29-.26,1.94-.4.54-.12,1.07.23,1.19.77.11.54-.23,1.07-.77,1.19Zm2.44-273.01c-.1.47-.52.78-.97.78-.07,0-.15,0-.22-.02-.65-.15-1.29-.29-1.94-.42-.54-.11-.89-.64-.77-1.18s.65-.89,1.18-.77c.66.14,1.31.28,1.97.43.54.12.88.66.76,1.19Zm7.31,270.57c-.64.19-1.29.37-1.94.54-.09.02-.18.04-.26.04-.44,0-.84-.29-.96-.74-.15-.53.17-1.08.7-1.23.64-.17,1.27-.35,1.91-.54.53-.15,1.08.15,1.24.68.15.53-.15,1.08-.68,1.24Zm2.34-267.96c-.13.43-.53.71-.96.71-.09,0-.19-.01-.29-.04-.63-.19-1.27-.38-1.91-.56-.53-.15-.84-.7-.69-1.24.15-.53.7-.84,1.24-.69.65.18,1.29.37,1.93.57.53.16.83.72.67,1.25Zm7.22,264.83c-.63.23-1.26.46-1.89.68-.11.04-.22.06-.33.06-.41,0-.8-.26-.94-.67-.18-.52.09-1.09.61-1.27.62-.22,1.25-.44,1.87-.67.52-.19,1.09.07,1.28.59.19.52-.08,1.09-.59,1.28Zm2.22-261.56c-.15.4-.53.65-.93.65-.12,0-.24-.02-.36-.07-.62-.23-1.24-.46-1.86-.69-.52-.19-.79-.76-.6-1.28.19-.52.76-.79,1.28-.6.63.23,1.26.46,1.89.7.52.2.78.77.58,1.29Zm7.09,257.75c-.61.28-1.22.55-1.84.81-.13.06-.27.08-.4.08-.39,0-.75-.22-.92-.6-.22-.51.01-1.1.52-1.32.61-.26,1.21-.53,1.82-.8.51-.23,1.1,0,1.32.5.23.5,0,1.1-.5,1.32Zm2.09-253.8c-.17.37-.53.58-.91.58-.14,0-.28-.03-.42-.09-.6-.28-1.2-.55-1.81-.82-.5-.23-.73-.82-.51-1.32.23-.5.82-.73,1.32-.51.61.27,1.22.55,1.83.83.5.23.72.83.49,1.33Zm6.93,249.34c-.59.32-1.18.63-1.78.94-.15.08-.31.11-.46.11-.36,0-.71-.2-.89-.54-.25-.49-.07-1.09.42-1.35.59-.31,1.17-.62,1.75-.93.49-.26,1.09-.08,1.36.4.26.49.08,1.09-.4,1.35Zm1.95-244.74c-.18.33-.52.52-.88.52-.16,0-.33-.04-.48-.13-.58-.32-1.16-.64-1.74-.95-.49-.26-.67-.87-.41-1.35.26-.49.87-.67,1.35-.41.59.32,1.18.64,1.77.96.48.27.66.88.39,1.36Zm6.74,239.64c-.57.36-1.14.72-1.71,1.07-.16.1-.34.15-.52.15-.34,0-.66-.17-.85-.48-.29-.47-.14-1.09.33-1.38.56-.35,1.12-.7,1.68-1.05.47-.3,1.08-.16,1.38.31.3.47.16,1.08-.31,1.38Zm1.8-234.41c-.19.29-.51.45-.84.45-.19,0-.38-.05-.55-.16-.56-.36-1.11-.72-1.68-1.08-.47-.3-.61-.91-.31-1.38.29-.47.91-.61,1.38-.31.57.36,1.14.73,1.7,1.09.46.3.59.92.29,1.38Zm6.49,228.7c-.54.4-1.08.8-1.63,1.19-.18.13-.38.19-.58.19-.31,0-.62-.14-.81-.42-.32-.45-.22-1.07.23-1.4.54-.39,1.07-.78,1.6-1.17.44-.33,1.07-.24,1.4.21.33.44.24,1.07-.21,1.4Zm1.64-222.87c-.2.26-.49.39-.8.39-.21,0-.42-.07-.61-.2-.53-.4-1.06-.8-1.59-1.2-.44-.33-.54-.95-.21-1.4.33-.44.95-.54,1.4-.21.54.4,1.08.81,1.62,1.21.44.33.52.96.19,1.4Zm6.23,216.58c-.51.44-1.02.87-1.54,1.3-.19.16-.41.23-.64.23-.29,0-.57-.12-.77-.36-.35-.42-.3-1.05.13-1.41.51-.42,1.01-.85,1.52-1.28.42-.36,1.05-.31,1.41.11.36.42.31,1.05-.11,1.41Zm1.46-210.17c-.2.22-.47.34-.75.34-.24,0-.47-.08-.66-.25-.5-.44-1-.88-1.5-1.31-.42-.36-.47-.99-.11-1.41.36-.42.99-.47,1.41-.11.51.44,1.02.88,1.52,1.32.41.37.45,1,.09,1.41Zm5.95,203.34c-.48.47-.96.94-1.44,1.41-.19.19-.44.28-.69.28s-.52-.1-.72-.31c-.38-.4-.37-1.03.03-1.41.48-.46.95-.92,1.42-1.39.39-.39,1.02-.39,1.41,0,.39.39.39,1.02,0,1.41Zm1.25-196.4c-.19.19-.45.29-.7.29s-.52-.1-.71-.3c-.46-.47-.93-.94-1.4-1.41-.39-.39-.39-1.02,0-1.41.39-.39,1.02-.39,1.41,0,.48.47.95.95,1.42,1.43.39.39.38,1.03-.02,1.41Zm5.64,189.05c-.44.51-.89,1.01-1.34,1.51-.2.22-.47.33-.74.33-.24,0-.48-.08-.67-.26-.41-.37-.45-1-.08-1.41.44-.49.88-.99,1.32-1.49.36-.42,1-.46,1.41-.1.42.36.46,1,.1,1.41Zm1.05-181.61c-.19.16-.42.24-.65.24-.28,0-.57-.12-.76-.35-.43-.51-.86-1.01-1.3-1.51-.36-.42-.32-1.05.1-1.41.41-.36,1.05-.32,1.41.1.44.51.88,1.02,1.31,1.53.36.42.3,1.05-.12,1.41Zm33.12,79.2c.05.67.09,1.34.13,2,.03.55-.39,1.02-.94,1.06-.02,0-.04,0-.06,0-.53,0-.97-.41-1-.94-.04-.66-.08-1.32-.13-1.97-.04-.55.37-1.03.92-1.07.54-.03,1.03.37,1.07.93Zm-1.09-9.99c.1.66.19,1.32.28,1.99.07.55-.31,1.05-.86,1.12-.04,0-.09,0-.13,0-.49,0-.92-.37-.99-.87-.09-.65-.18-1.31-.27-1.96-.08-.55.3-1.05.84-1.13.55-.08,1.05.3,1.13.85Zm-3-10.65c.54-.12,1.07.22,1.19.76.14.65.28,1.31.42,1.96.11.54-.24,1.07-.78,1.18-.07.01-.14.02-.2.02-.46,0-.88-.33-.98-.8-.13-.65-.27-1.29-.41-1.94-.12-.54.22-1.07.76-1.19Zm-2.57-9.65c.54-.16,1.09.15,1.24.67.19.64.38,1.29.56,1.93.15.53-.16,1.08-.69,1.23-.09.03-.18.04-.27.04-.44,0-.84-.29-.96-.73-.18-.64-.36-1.27-.55-1.9-.16-.53.14-1.09.67-1.24Zm-21.16,124.87c-.41.54-.81,1.07-1.22,1.6-.2.25-.49.39-.79.39-.21,0-.43-.07-.61-.21-.44-.34-.52-.97-.18-1.4.41-.52.81-1.05,1.21-1.58.33-.44.96-.53,1.4-.2.44.33.53.96.2,1.4Zm.83-165.88c-.18.13-.38.19-.59.19-.31,0-.61-.14-.81-.41-.39-.53-.79-1.07-1.18-1.6-.33-.44-.24-1.07.2-1.4.44-.33,1.07-.24,1.4.2.4.54.8,1.08,1.2,1.62.33.45.23,1.07-.22,1.4Zm4.94,157.61c-.37.57-.73,1.13-1.11,1.69-.19.29-.51.44-.83.44-.19,0-.38-.05-.55-.17-.46-.31-.58-.93-.28-1.39.37-.55.73-1.11,1.09-1.66.3-.46.92-.6,1.38-.3.46.3.6.92.3,1.38Zm.61-149.29c-.17.1-.35.15-.53.15-.33,0-.66-.17-.85-.47-.35-.56-.71-1.12-1.07-1.67-.3-.46-.17-1.08.3-1.38s1.08-.17,1.38.3c.37.56.73,1.13,1.08,1.7.29.47.15,1.08-.32,1.38Zm4.54,140.63c-.32.59-.65,1.18-.98,1.76-.18.33-.52.51-.87.51-.17,0-.33-.04-.49-.13-.48-.27-.65-.88-.38-1.36.33-.58.65-1.15.97-1.74.26-.48.87-.66,1.36-.4.49.27.66.87.4,1.36Zm.4-131.94c-.15.08-.31.12-.47.12-.36,0-.7-.19-.88-.53-.31-.58-.63-1.17-.94-1.75-.27-.48-.09-1.09.39-1.36.48-.27,1.09-.09,1.36.39.32.59.64,1.18.96,1.77.26.49.07,1.09-.41,1.35Zm4.11,122.94c-.28.61-.56,1.22-.85,1.82-.17.36-.53.57-.91.57-.14,0-.29-.03-.43-.1-.5-.24-.71-.83-.48-1.33.28-.6.56-1.2.84-1.8.23-.5.82-.72,1.33-.49.5.23.72.82.49,1.33Zm.21-113.93c-.13.06-.27.09-.41.09-.38,0-.75-.22-.92-.59-.27-.6-.54-1.21-.82-1.81-.23-.5-.01-1.1.49-1.33.5-.23,1.1-.01,1.33.49.28.61.56,1.22.83,1.83.22.5,0,1.1-.51,1.32Zm3.64,104.63c-.23.63-.47,1.26-.72,1.88-.15.4-.53.64-.93.64-.12,0-.24-.02-.36-.07-.51-.2-.77-.78-.57-1.29.24-.62.47-1.24.71-1.86.19-.52.77-.78,1.29-.59.52.19.78.77.59,1.29Zm.01-95.33c-.11.04-.23.06-.34.06-.41,0-.79-.25-.94-.66-.22-.62-.45-1.24-.69-1.86-.19-.52.07-1.09.58-1.29.52-.19,1.09.07,1.29.58.24.63.47,1.26.7,1.89.19.52-.08,1.09-.6,1.28Zm3.16,85.78c-.19.65-.38,1.29-.58,1.93-.13.43-.53.71-.96.71-.1,0-.2-.01-.29-.04-.53-.16-.82-.72-.66-1.25.19-.63.39-1.27.57-1.9.16-.53.71-.83,1.24-.68.53.16.83.71.68,1.24Zm2.49-9.75c-.14.65-.29,1.31-.44,1.97-.11.46-.52.77-.97.77-.08,0-.15,0-.23-.03-.54-.13-.87-.66-.75-1.2.15-.65.3-1.29.44-1.94.12-.54.65-.88,1.19-.76.54.12.88.65.76,1.19Zm1.49-7.92c-.08.49-.5.84-.99.84-.05,0-.1,0-.16-.01-.55-.09-.92-.6-.83-1.14.1-.65.2-1.31.3-1.96.08-.55.58-.93,1.13-.85.55.08.93.59.85,1.13-.1.66-.2,1.33-.3,1.99Zm1.23-9.99c-.04.52-.48.91-1,.91-.03,0-.06,0-.09,0-.55-.05-.96-.53-.91-1.08.06-.66.11-1.32.16-1.98.04-.55.52-.96,1.07-.93.55.04.96.52.92,1.07-.05.67-.1,1.34-.16,2.01Zm.52-11.96c0,.6,0,1.25-.01,1.91,0,.55-.45.99-1,.99h-.01c-.55,0-.99-.46-.99-1.01,0-.64.01-1.29.01-1.93,0-.55.45-1.03,1-1.03s1,.42,1,.97c0,.02,0,.09,0,.11Z"/><rect class="cls-1" x="40.26" y="191.85" width="39.19" height="30.69"/><rect class="cls-1" x="40.26" y="223.04" width="39.19" height="27.86"/><rect class="cls-1" x="148" y="166.32" width="39.19" height="25.03"/><path class="cls-3" d="m153.84,20.82c.69,2.02,2.12,3.66,4.04,4.6l125.89,61.97c1.13.56,2.33.82,3.52.82,2.95,0,5.8-1.64,7.19-4.47L335.72,0h-1.11l-41.01,83.3c-1.71,3.46-5.91,4.89-9.37,3.19l-125.89-61.97c-1.68-.83-2.93-2.25-3.53-4.02-.6-1.77-.48-3.67.35-5.35l7.46-15.15h-1.11l-7.24,14.71c-.94,1.92-1.08,4.09-.4,6.11Z"/><path class="cls-3" d="m20.32,16.38L86.17,5.36c3.02-.51,5.36-2.65,6.27-5.36H9.48l1.64,9.81c.73,4.36,4.85,7.3,9.21,6.57Z"/><path class="cls-3" d="m954.49,65.55c-.42-.36-1.05-.32-1.41.1-.44.51-.88,1.02-1.31,1.53-.36.42-.3,1.05.12,1.41.19.16.42.24.64.24.29,0,.57-.12.77-.36.43-.51.86-1.01,1.29-1.51.36-.42.32-1.05-.1-1.41Z"/><path class="cls-3" d="m948.83,241.17c-.33-.44-.96-.53-1.4-.19-.44.33-.53.96-.19,1.4.41.54.82,1.07,1.23,1.6.2.25.49.39.79.39.21,0,.43-.07.61-.21.44-.34.51-.97.17-1.4-.41-.52-.81-1.05-1.21-1.58Z"/><path class="cls-3" d="m938.02,224.54c-.27-.48-.87-.66-1.36-.39-.48.27-.66.88-.39,1.36.32.59.65,1.17.99,1.76.18.32.52.5.87.5.17,0,.34-.04.5-.13.48-.27.65-.88.37-1.36-.33-.57-.65-1.15-.97-1.73Z"/><path class="cls-3" d="m943.13,233.04c-.3-.46-.92-.59-1.38-.29-.46.3-.59.92-.29,1.38.37.56.74,1.12,1.11,1.68.19.29.51.44.83.44.19,0,.38-.05.56-.17.46-.31.58-.93.27-1.39-.37-.55-.73-1.1-1.1-1.66Z"/><path class="cls-3" d="m948.34,74.69c.33-.44.24-1.07-.2-1.4-.44-.33-1.07-.24-1.4.2-.4.54-.8,1.08-1.2,1.62-.33.45-.23,1.07.22,1.4.18.13.38.19.59.19.31,0,.61-.14.81-.41.39-.54.79-1.07,1.18-1.6Z"/><path class="cls-3" d="m955.1,248.87c-.37-.42-1-.46-1.41-.09-.42.36-.46,1-.09,1.41.44.51.89,1.01,1.34,1.51.2.22.47.33.74.33.24,0,.48-.08.67-.26.41-.37.44-1,.07-1.41-.44-.49-.88-.99-1.32-1.48Z"/><path class="cls-3" d="m941.61,84.54c.35-.56.71-1.13,1.07-1.68.3-.46.16-1.08-.3-1.38-.46-.3-1.08-.16-1.38.3-.36.57-.72,1.14-1.08,1.71-.29.47-.15,1.09.32,1.38.17.1.35.15.53.15.33,0,.66-.17.85-.47Z"/><path class="cls-3" d="m968.75,51.54c-.36-.42-.99-.46-1.41-.1-.51.44-1.01.88-1.52,1.33-.41.37-.45,1-.08,1.41.2.22.47.34.75.34.24,0,.47-.08.66-.25.5-.44.99-.88,1.5-1.31.42-.36.46-.99.1-1.41Z"/><path class="cls-3" d="m936.68,93.15c.31-.59.62-1.17.94-1.75.26-.48.08-1.09-.4-1.36-.48-.26-1.09-.08-1.36.4-.32.59-.64,1.18-.95,1.78-.26.49-.07,1.09.42,1.35.15.08.31.11.46.11.36,0,.71-.19.89-.53Z"/><path class="cls-3" d="m969.22,262.82c-.42-.36-1.05-.31-1.41.11-.36.42-.31,1.05.11,1.41.51.44,1.03.87,1.54,1.3.19.15.41.23.64.23.29,0,.57-.12.77-.36.35-.42.29-1.06-.13-1.41-.51-.42-1.02-.85-1.52-1.28Z"/><path class="cls-3" d="m961.37,58.29c-.39-.39-1.02-.39-1.42,0-.48.47-.95.95-1.42,1.43-.39.4-.38,1.03.02,1.41.19.19.45.28.7.28s.52-.1.72-.3c.46-.47.93-.95,1.4-1.41.39-.39.39-1.02,0-1.41Z"/><path class="cls-3" d="m976.6,45.34c-.33-.44-.96-.54-1.4-.21-.54.4-1.08.81-1.61,1.22-.44.34-.52.96-.18,1.4.2.26.49.39.79.39.21,0,.43-.07.61-.21.53-.4,1.05-.8,1.58-1.2.44-.33.54-.96.21-1.4Z"/><path class="cls-3" d="m961.91,256.1c-.39-.39-1.03-.38-1.41,0-.39.39-.38,1.03,0,1.41.48.47.96.94,1.45,1.41.19.19.44.28.69.28.26,0,.52-.1.72-.31.38-.4.37-1.03-.03-1.41-.48-.46-.95-.92-1.42-1.39Z"/><path class="cls-3" d="m919.76,161.06c.55,0,.99-.46.98-1.02-.01-.66-.02-1.32-.02-1.98,0-.55-.45-1-1-1h0c-.55,0-1,.45-1,1,0,.67,0,1.34.02,2.01,0,.55.46.98,1,.98h.02Z"/><path class="cls-3" d="m977,269c-.44-.33-1.07-.23-1.4.21-.33.44-.23,1.07.21,1.4.54.4,1.09.79,1.63,1.19.18.13.38.19.58.19.31,0,.62-.15.81-.42.32-.45.22-1.07-.23-1.4-.54-.39-1.08-.78-1.61-1.17Z"/><path class="cls-3" d="m919.88,151.06s.04,0,.06,0c.53,0,.97-.41,1-.94.04-.66.08-1.32.12-1.98.04-.55-.38-1.03-.93-1.07-.55-.03-1.03.38-1.07.93-.05.67-.09,1.34-.12,2.01-.03.55.39,1.02.94,1.05Z"/><path class="cls-3" d="m920.36,171.02c.55-.05.96-.53.91-1.08-.06-.66-.11-1.31-.16-1.97-.04-.55-.52-.96-1.07-.92-.55.04-.96.52-.92,1.07.05.67.11,1.33.16,2,.05.52.48.91,1,.91.03,0,.06,0,.09,0Z"/><path class="cls-3" d="m922.51,179.76c-.11-.65-.21-1.3-.3-1.96-.08-.54-.58-.92-1.14-.84-.55.08-.92.59-.84,1.14.1.66.2,1.32.31,1.98.08.49.5.84.99.84.05,0,.11,0,.16-.01.54-.09.92-.6.83-1.15Z"/><path class="cls-3" d="m920.72,141.1s.09,0,.13,0c.5,0,.93-.37.99-.87.08-.66.17-1.31.27-1.97.08-.55-.3-1.05-.85-1.13-.55-.07-1.05.3-1.13.85-.09.67-.18,1.33-.27,1.99-.07.55.32,1.05.86,1.12Z"/><path class="cls-3" d="m922.28,131.22c.07.01.13.02.2.02.47,0,.88-.33.98-.8.13-.65.27-1.3.41-1.94.12-.54-.23-1.07-.77-1.19-.54-.11-1.07.23-1.19.77-.14.66-.28,1.31-.41,1.97-.11.54.24,1.07.78,1.18Z"/><path class="cls-3" d="m933.53,215.69c-.23-.5-.82-.72-1.33-.49-.5.23-.72.83-.49,1.33.28.61.57,1.22.86,1.82.17.36.53.57.9.57.14,0,.29-.03.43-.1.5-.24.71-.84.47-1.33-.29-.6-.57-1.19-.85-1.79Z"/><path class="cls-3" d="m929.68,206.54c-.2-.52-.78-.77-1.29-.58-.52.2-.78.77-.58,1.29.24.63.48,1.25.73,1.88.16.39.53.63.93.63.12,0,.25-.02.37-.07.51-.2.76-.78.56-1.3-.24-.61-.48-1.23-.72-1.85Z"/><path class="cls-3" d="m924.01,187.55c-.12-.54-.66-.88-1.19-.76-.54.12-.88.65-.76,1.19.15.65.3,1.31.45,1.96.11.46.52.77.97.77.08,0,.15,0,.23-.03.54-.13.87-.67.74-1.2-.15-.64-.3-1.29-.44-1.93Z"/><path class="cls-3" d="m932.38,102.09c.27-.61.54-1.21.81-1.81.23-.5,0-1.1-.5-1.32-.5-.23-1.1,0-1.32.5-.28.61-.55,1.22-.82,1.84-.22.51,0,1.1.51,1.32.13.06.27.08.4.08.39,0,.75-.22.92-.6Z"/><path class="cls-3" d="m928.74,111.32c.22-.62.45-1.25.68-1.87.19-.52-.07-1.09-.59-1.29-.52-.19-1.09.07-1.29.59-.23.63-.46,1.26-.69,1.89-.18.52.09,1.09.61,1.28.11.04.22.06.33.06.41,0,.8-.26.94-.67Z"/><path class="cls-3" d="m925.76,120.79c.18-.64.36-1.28.54-1.91.15-.53-.15-1.09-.68-1.24-.53-.15-1.08.15-1.24.68-.19.64-.37,1.29-.55,1.94-.15.53.17,1.08.7,1.23.09.02.18.04.27.04.44,0,.84-.29.96-.73Z"/><path class="cls-3" d="m926.5,197.15c-.16-.53-.71-.83-1.24-.67-.53.16-.83.71-.67,1.24.19.64.39,1.28.59,1.92.13.43.53.7.95.7.1,0,.2-.01.3-.05.53-.17.82-.73.65-1.25-.2-.63-.39-1.26-.58-1.89Z"/><path class="cls-3" d="m1077.83,294.64c-.65.09-1.31.18-1.96.26-.55.07-.94.57-.87,1.11.06.51.49.88.99.88.04,0,.08,0,.12,0,.66-.08,1.33-.17,1.99-.26.55-.08.93-.58.85-1.13-.08-.55-.57-.93-1.13-.85Z"/><path class="cls-3" d="m1176.77,81.3c-.3-.46-.92-.6-1.38-.3s-.6.92-.3,1.38c.36.56.72,1.11,1.07,1.67.19.3.52.47.85.47.18,0,.37-.05.53-.15.47-.29.61-.91.32-1.38-.36-.57-.72-1.14-1.08-1.7Z"/><path class="cls-3" d="m1194.12,127.92c.14.64.28,1.29.41,1.94.1.47.51.8.98.8.07,0,.13,0,.2-.02.54-.11.89-.64.78-1.18-.13-.66-.27-1.31-.42-1.96-.12-.54-.65-.88-1.19-.76-.54.12-.88.65-.76,1.19Z"/><path class="cls-3" d="m1176.62,232.29c-.46-.3-1.08-.16-1.38.3-.36.56-.72,1.11-1.09,1.66-.31.46-.18,1.08.28,1.39.17.11.36.17.55.17.32,0,.64-.16.83-.44.37-.56.74-1.12,1.11-1.69.3-.46.17-1.08-.3-1.38Z"/><path class="cls-3" d="m1181.93,89.95c-.27-.48-.87-.66-1.36-.39-.48.27-.66.87-.39,1.36.32.58.63,1.16.94,1.75.18.34.53.53.88.53.16,0,.32-.04.47-.12.49-.26.67-.86.41-1.35-.31-.59-.63-1.18-.96-1.77Z"/><path class="cls-3" d="m1181.68,223.65c-.48-.26-1.09-.09-1.36.4-.32.58-.64,1.16-.97,1.74-.27.48-.1,1.09.38,1.36.16.09.32.13.49.13.35,0,.69-.18.87-.51.33-.58.66-1.17.98-1.76.27-.48.09-1.09-.4-1.36Z"/><path class="cls-3" d="m1164.65,65.23c-.37-.42-1-.46-1.41-.1-.42.36-.46.99-.1,1.41.44.5.87,1,1.3,1.51.2.23.48.35.76.35.23,0,.46-.08.65-.24.42-.36.47-.99.12-1.41-.43-.51-.87-1.02-1.31-1.53Z"/><path class="cls-3" d="m1171,73.05c-.33-.44-.96-.53-1.4-.2-.44.33-.53.96-.2,1.4.4.53.79,1.06,1.18,1.6.2.27.5.41.81.41.21,0,.41-.06.59-.19.45-.33.54-.95.22-1.4-.4-.54-.8-1.08-1.2-1.62Z"/><path class="cls-3" d="m1169.56,240.74c-.4.53-.8,1.06-1.21,1.58-.34.44-.26,1.06.18,1.4.18.14.4.21.61.21.3,0,.59-.13.79-.39.41-.53.82-1.07,1.22-1.6.33-.44.24-1.07-.2-1.4-.44-.33-1.07-.24-1.4.2Z"/><path class="cls-3" d="m1189.85,205.42c-.52-.19-1.09.07-1.29.59-.23.62-.47,1.24-.71,1.86-.2.51.05,1.09.57,1.29.12.05.24.07.36.07.4,0,.78-.24.93-.64.24-.62.48-1.25.72-1.88.19-.52-.07-1.09-.59-1.29Z"/><path class="cls-3" d="m1195.9,137.67c.09.65.18,1.31.27,1.96.07.5.5.87.99.87.04,0,.09,0,.13,0,.55-.07.93-.57.86-1.12-.09-.66-.18-1.33-.28-1.99-.08-.55-.58-.92-1.13-.85-.55.08-.92.59-.84,1.13Z"/><path class="cls-3" d="m1192.93,195.92c-.53-.15-1.09.15-1.24.68-.19.64-.38,1.27-.57,1.9-.16.53.13,1.09.66,1.25.1.03.2.04.29.04.43,0,.82-.28.96-.71.2-.64.39-1.28.58-1.93.16-.53-.15-1.09-.68-1.24Z"/><path class="cls-3" d="m1196.98,147.52c.05.66.09,1.31.13,1.97.03.53.47.94,1,.94.02,0,.04,0,.06,0,.55-.03.97-.5.94-1.06-.04-.67-.08-1.34-.13-2-.04-.55-.53-.96-1.07-.93-.55.04-.96.52-.92,1.07Z"/><path class="cls-3" d="m1191.05,110.1c-.23-.63-.46-1.26-.7-1.89-.19-.52-.77-.78-1.29-.58-.52.19-.78.77-.58,1.29.23.62.46,1.24.69,1.86.15.41.53.66.94.66.11,0,.23-.02.34-.06.52-.19.79-.76.6-1.28Z"/><path class="cls-3" d="m1186.47,98.93c-.23-.5-.82-.72-1.33-.49-.5.23-.72.82-.49,1.33.28.6.55,1.2.82,1.81.17.37.53.59.92.59.13,0,.27-.03.41-.09.5-.22.73-.81.51-1.32-.27-.61-.55-1.22-.83-1.83Z"/><path class="cls-3" d="m1163.3,248.46c-.44.5-.88,1-1.32,1.49-.37.41-.33,1.04.08,1.41.19.17.43.26.67.26.27,0,.55-.11.74-.33.45-.5.89-1,1.34-1.51.36-.42.32-1.05-.1-1.41-.41-.36-1.05-.32-1.41.1Z"/><path class="cls-3" d="m1186.09,214.69c-.5-.23-1.1,0-1.33.49-.28.6-.56,1.2-.84,1.8-.24.5-.02,1.1.48,1.33.14.06.28.1.43.1.38,0,.73-.21.91-.57.29-.61.57-1.21.85-1.82.23-.5,0-1.1-.49-1.33Z"/><path class="cls-3" d="m984.87,39.72c-.3-.47-.92-.6-1.38-.3-.57.36-1.13.73-1.69,1.1-.46.3-.59.92-.28,1.39.19.29.51.45.84.45.19,0,.38-.05.55-.17.55-.36,1.11-.72,1.67-1.08.47-.3.6-.92.3-1.38Z"/><path class="cls-3" d="m1127.22,34.94c-.59-.33-1.18-.65-1.77-.96-.49-.26-1.09-.08-1.35.41-.26.49-.08,1.09.41,1.35.58.31,1.17.63,1.74.95.15.08.32.13.48.13.35,0,.69-.19.88-.52.27-.48.09-1.09-.39-1.36Z"/><path class="cls-3" d="m1118.24,30.38c-.61-.28-1.22-.56-1.83-.83-.5-.23-1.09,0-1.32.51-.23.5,0,1.1.51,1.32.6.27,1.21.54,1.81.82.14.06.28.09.42.09.38,0,.74-.21.91-.58.23-.5.01-1.1-.49-1.33Z"/><path class="cls-3" d="m1108.97,26.48c-.63-.24-1.26-.47-1.89-.7-.52-.19-1.09.08-1.28.6-.19.52.08,1.09.6,1.28.62.23,1.24.46,1.86.69.12.04.24.07.36.07.4,0,.78-.25.93-.65.2-.52-.06-1.09-.58-1.29Z"/><path class="cls-3" d="m1115.82,283.69c-.6.27-1.21.54-1.82.8-.51.22-.74.81-.52,1.32.16.38.53.6.92.6.13,0,.27-.03.4-.08.61-.27,1.23-.54,1.84-.81.5-.23.73-.82.5-1.32-.23-.5-.82-.73-1.32-.5Z"/><path class="cls-3" d="m1124.71,279.29c-.58.31-1.17.62-1.75.93-.49.26-.68.86-.42,1.35.18.34.53.54.89.54.16,0,.31-.04.46-.11.6-.31,1.19-.63,1.78-.94.49-.26.67-.87.4-1.35-.26-.48-.87-.67-1.36-.4Z"/><path class="cls-3" d="m1141.45,268.64c-.53.39-1.07.79-1.6,1.17-.45.32-.55.95-.23,1.4.2.27.5.42.81.42.2,0,.41-.06.58-.19.54-.39,1.09-.79,1.63-1.19.44-.33.54-.96.21-1.4-.33-.44-.96-.54-1.4-.21Z"/><path class="cls-3" d="m1133.27,274.26c-.56.36-1.12.71-1.68,1.05-.47.29-.62.91-.33,1.38.19.31.52.48.85.48.18,0,.36-.05.52-.15.57-.35,1.14-.71,1.71-1.07.47-.3.6-.91.31-1.38-.3-.47-.91-.6-1.38-.31Z"/><path class="cls-3" d="m1135.85,40.16c-.56-.37-1.13-.73-1.7-1.09-.47-.3-1.08-.16-1.38.31-.3.47-.16,1.08.31,1.38.56.36,1.12.71,1.68,1.08.17.11.36.16.55.16.33,0,.65-.16.84-.45.3-.46.17-1.08-.29-1.38Z"/><path class="cls-3" d="m1156.5,255.71c-.47.47-.94.93-1.42,1.39-.4.38-.41,1.02-.03,1.41.2.2.46.31.72.31s.5-.09.69-.28c.48-.47.97-.94,1.44-1.41.39-.39.39-1.02,0-1.41-.39-.39-1.02-.39-1.41,0Z"/><path class="cls-3" d="m1150.35,51.05c-.42-.36-1.05-.31-1.41.11-.36.42-.31,1.05.11,1.41.5.43,1,.87,1.5,1.31.19.17.43.25.66.25.28,0,.55-.11.75-.34.37-.41.33-1.05-.09-1.41-.5-.44-1.01-.89-1.52-1.32Z"/><path class="cls-3" d="m1149.21,262.44c-.5.43-1.01.86-1.52,1.28-.42.35-.48.98-.13,1.41.2.24.48.36.77.36.23,0,.45-.08.64-.23.52-.43,1.03-.86,1.54-1.3.42-.36.47-.99.11-1.41-.36-.42-.99-.47-1.41-.11Z"/><path class="cls-3" d="m1157.76,57.88c-.39-.39-1.02-.39-1.41,0-.39.39-.39,1.02,0,1.41.47.47.94.94,1.4,1.41.2.2.46.3.71.3s.5-.09.7-.29c.39-.39.4-1.02.02-1.41-.47-.48-.94-.96-1.42-1.43Z"/><path class="cls-3" d="m1097.21,290.53c-.63.18-1.27.36-1.91.54-.53.15-.85.7-.7,1.23.12.44.52.74.96.74.09,0,.18-.01.26-.04.65-.18,1.29-.36,1.94-.54.53-.15.84-.71.68-1.24-.15-.53-.7-.84-1.24-.68Z"/><path class="cls-3" d="m1099.43,23.24c-.64-.19-1.29-.38-1.93-.57-.53-.15-1.08.16-1.24.69-.15.53.16,1.08.69,1.24.64.18,1.27.37,1.91.56.1.03.19.04.29.04.43,0,.83-.28.96-.71.16-.53-.14-1.09-.67-1.25Z"/><path class="cls-3" d="m1106.63,287.44c-.62.23-1.24.45-1.87.67-.52.18-.79.75-.61,1.27.14.41.53.67.94.67.11,0,.22-.02.33-.06.63-.22,1.26-.45,1.89-.68.52-.19.78-.77.59-1.28-.19-.52-.77-.78-1.28-.59Z"/><path class="cls-3" d="m1089.69,20.69c-.66-.15-1.31-.29-1.97-.43-.54-.12-1.07.23-1.18.77s.23,1.07.77,1.18c.65.14,1.29.28,1.94.42.07.02.15.02.22.02.46,0,.87-.32.97-.78.12-.54-.22-1.07-.76-1.19Z"/><path class="cls-3" d="m1029.78,20.37c-.66.14-1.31.29-1.96.44-.54.12-.87.66-.75,1.2.11.46.52.78.97.78.07,0,.15,0,.22-.03.64-.15,1.29-.29,1.93-.43.54-.12.88-.65.77-1.19-.12-.54-.65-.88-1.19-.77Z"/><path class="cls-3" d="m1142.47,44.76c-.44-.33-1.07-.23-1.4.21-.33.44-.24,1.07.21,1.4.53.4,1.06.79,1.59,1.2.18.14.39.2.61.2.3,0,.6-.14.8-.39.33-.44.25-1.07-.19-1.4-.54-.41-1.07-.81-1.62-1.21Z"/><path class="cls-3" d="m1028.53,292.5c-.64-.15-1.29-.3-1.93-.45-.53-.13-1.08.2-1.21.74-.13.54.2,1.08.74,1.21.65.16,1.31.31,1.96.46.07.02.15.02.22.02.46,0,.87-.31.97-.78.12-.54-.22-1.07-.75-1.2Z"/><path class="cls-3" d="m1023.29,291.2c-.64-.17-1.28-.35-1.91-.53-.53-.15-1.08.16-1.23.69-.15.53.16,1.08.69,1.23.65.18,1.29.36,1.94.53.09.02.17.03.26.03.44,0,.85-.29.96-.74.14-.53-.17-1.08-.71-1.22Z"/><path class="cls-3" d="m1039.68,18.62c-.66.09-1.33.19-1.99.29-.54.08-.92.6-.83,1.14.08.49.5.85.99.85.05,0,.1,0,.15-.01.65-.1,1.3-.2,1.96-.29.55-.08.93-.58.85-1.13s-.58-.94-1.13-.85Z"/><path class="cls-3" d="m1048.14,295.49c-.66-.05-1.32-.11-1.98-.17-.56-.05-1.04.35-1.09.9-.05.55.35,1.04.9,1.09.67.06,1.34.12,2.01.17.03,0,.05,0,.08,0,.52,0,.95-.4,1-.92.04-.55-.37-1.03-.92-1.08Z"/><path class="cls-3" d="m1038.29,294.35c-.65-.1-1.31-.2-1.96-.31-.56-.09-1.06.28-1.15.82s.28,1.06.82,1.15c.66.11,1.33.22,1.99.32.05,0,.1.01.15.01.49,0,.91-.35.99-.85.08-.55-.29-1.06-.84-1.14Z"/><path class="cls-3" d="m1021.27,23.51c-.15-.53-.71-.84-1.24-.68-.64.19-1.29.38-1.93.58-.53.16-.83.72-.66,1.25.13.43.53.71.96.71.1,0,.2-.01.29-.04.63-.19,1.26-.38,1.9-.57.53-.15.84-.71.68-1.24Z"/><path class="cls-3" d="m1002.49,30.31c-.23-.5-.82-.73-1.32-.5-.61.28-1.22.56-1.83.84-.5.24-.71.83-.48,1.33.17.36.53.57.91.57.14,0,.29-.03.42-.1.6-.28,1.2-.56,1.8-.83.5-.23.73-.82.5-1.32Z"/><path class="cls-3" d="m1013.79,288.3c-.63-.22-1.25-.44-1.87-.66-.52-.19-1.09.08-1.28.6-.19.52.08,1.09.6,1.28.63.23,1.26.45,1.9.67.11.04.22.05.33.05.42,0,.8-.26.95-.67.18-.52-.1-1.09-.62-1.27Z"/><path class="cls-3" d="m993.51,34.7c-.26-.49-.87-.67-1.36-.4-.59.32-1.18.65-1.76.97-.48.27-.65.88-.38,1.36.18.33.52.51.87.51.17,0,.33-.04.49-.13.58-.32,1.16-.64,1.74-.96.49-.26.67-.87.4-1.36Z"/><path class="cls-3" d="m986.91,275.65c-.57-.35-1.13-.7-1.69-1.05-.47-.29-1.08-.15-1.38.31s-.15,1.08.31,1.38c.57.36,1.14.71,1.72,1.07.16.1.34.15.52.15.34,0,.67-.17.85-.48.29-.47.14-1.09-.33-1.37Z"/><path class="cls-3" d="m995.56,280.51c-.59-.3-1.17-.61-1.76-.92-.49-.26-1.09-.07-1.35.41-.26.49-.08,1.09.41,1.35.59.32,1.19.63,1.78.94.15.08.3.11.46.11.36,0,.71-.2.89-.54.25-.49.06-1.09-.43-1.35Z"/><path class="cls-3" d="m1011.76,26.58c-.19-.52-.77-.78-1.28-.59-.63.23-1.26.47-1.88.71-.52.2-.77.78-.57,1.29.15.4.53.64.93.64.12,0,.24-.02.36-.07.62-.24,1.24-.47,1.85-.7.52-.19.78-.77.59-1.29Z"/><path class="cls-3" d="m1004.54,284.73c-.61-.26-1.22-.52-1.82-.79-.5-.22-1.1,0-1.32.51-.22.5,0,1.1.51,1.32.61.27,1.23.54,1.85.8.13.05.26.08.39.08.39,0,.76-.23.92-.61.22-.51-.02-1.1-.53-1.31Z"/><path class="cls-3" d="m1049.68,17.59c-.67.04-1.34.09-2,.15-.55.04-.96.53-.92,1.08.04.52.48.92,1,.92.03,0,.05,0,.08,0,.66-.05,1.31-.1,1.97-.15.55-.04.97-.51.93-1.06-.04-.55-.52-.96-1.06-.93Z"/><path class="cls-3" d="m1059.74,17.28h-.76c-.42,0-.84,0-1.26,0-.55,0-1,.46-.99,1.01,0,.55.45.99,1,.99h0c.41,0,.83,0,1.24,0h.74s0,0,0,0c.55,0,1-.44,1-.99,0-.55-.44-1-.99-1.01Z"/><path class="cls-3" d="m1198.34,156.46c-.55,0-1,.47-1,1.03,0,.64,0,1.29-.01,1.93,0,.55.43,1.01.99,1.01h.01c.55,0,.99-.44,1-.99,0-.65.01-1.31.01-1.91,0-.02,0-.09,0-.11,0-.55-.45-.97-1-.97Z"/><path class="cls-3" d="m1079.8,18.84c-.67-.1-1.33-.2-1.99-.29-.55-.07-1.05.31-1.13.86-.07.55.31,1.05.86,1.13.65.09,1.31.18,1.97.28.05,0,.1.01.15.01.49,0,.91-.36.99-.85.08-.55-.29-1.06-.84-1.14Z"/><path class="cls-3" d="m1087.59,292.94c-.65.14-1.29.27-1.94.4-.54.11-.89.63-.79,1.17.09.48.51.81.98.81.06,0,.13,0,.2-.02.66-.13,1.31-.26,1.97-.4.54-.11.89-.65.77-1.19-.11-.54-.64-.89-1.19-.77Z"/><path class="cls-3" d="m1197.05,176.37c-.55-.08-1.05.3-1.13.85-.1.65-.2,1.31-.3,1.96-.09.55.29,1.06.83,1.14.05,0,.11.01.16.01.48,0,.91-.35.99-.84.11-.66.21-1.33.3-1.99.08-.55-.3-1.05-.85-1.13Z"/><path class="cls-3" d="m1195.34,186.22c-.54-.12-1.07.22-1.19.76-.14.65-.29,1.29-.44,1.94-.13.54.21,1.08.75,1.2.08.02.15.03.23.03.45,0,.86-.31.97-.77.15-.66.3-1.31.44-1.97.12-.54-.22-1.07-.76-1.19Z"/><path class="cls-3" d="m1198.06,166.42c-.55-.03-1.03.38-1.07.93-.05.66-.1,1.32-.16,1.98-.05.55.36,1.04.91,1.08.03,0,.06,0,.09,0,.51,0,.95-.39,1-.91.06-.67.11-1.34.16-2.01.04-.55-.37-1.03-.92-1.07Z"/><path class="cls-3" d="m1192.19,120.23c.12.44.53.73.96.73.09,0,.18-.01.27-.04.53-.15.84-.7.69-1.23-.18-.65-.37-1.29-.56-1.93-.16-.53-.71-.83-1.24-.67-.53.16-.83.71-.67,1.24.19.63.37,1.27.55,1.9Z"/><path class="cls-3" d="m1067.97,295.64c-.66.04-1.32.08-1.98.11-.55.03-.98.5-.95,1.05.03.53.47.95,1,.95.02,0,.03,0,.05,0,.67-.03,1.34-.07,2-.12.55-.04.97-.51.93-1.06s-.52-.97-1.06-.93Z"/><path class="cls-3" d="m1069.8,17.7c-.67-.05-1.34-.1-2.01-.14-.55-.05-1.03.38-1.06.94-.04.55.38,1.03.93,1.06.66.04,1.32.09,1.98.14.03,0,.05,0,.08,0,.52,0,.96-.4,1-.92.04-.55-.37-1.03-.92-1.08Z"/><path class="cls-3" d="m1058.06,295.93c-.66,0-1.32-.01-1.99-.03,0,0-.02,0-.02,0-.54,0-.99.43-1,.98-.01.55.42,1.01.98,1.02.67.02,1.34.03,2.01.03h0c.55,0,1-.44,1-.99,0-.55-.44-1-.99-1.01Z"/><path class="cls-3" d="m1162.2,6.21c.87,0,1.74-.14,2.58-.43,2.02-.69,3.66-2.12,4.6-4.04l.86-1.74h-1.11l-.64,1.3c-.83,1.68-2.26,2.93-4.03,3.53-1.77.6-3.67.48-5.35-.35l-9.09-4.48h-2.26l10.91,5.38c1.12.55,2.32.83,3.53.83Z"/><path class="cls-3" d="m437.19,129.47h-.5v36.37s-33.52,0-33.52,0v-36.37s-.5,0-.5,0v36.37s-33.52,0-33.52,0v-36.37s-.5,0-.5,0v36.37s-39.2,0-39.2,0v-36.37s-.5,0-.5,0v36.37s-33.52,0-33.52,0v-36.37s-.5,0-.5,0v36.37s-33.52,0-33.52,0v-36.37s-.5,0-.5,0v36.37s-33.52,0-33.52,0v-36.37s-.5,0-.5,0v36.37s-39.19,0-39.19,0v-36.37s-.5,0-.5,0v36.37s-39.19,0-39.19,0v-36.37s-.5,0-.5,0v36.37s-33.52,0-33.52,0v-36.37s-.5,0-.5,0v36.37s-33.52,0-33.52,0v-36.37s-.5,0-.5,0v36.37s-39.19,0-39.19,0v-36.37s-.5,0-.5,0v36.37s-36.86,0-36.86,0v.5h36.86s0,25.03,0,25.03H2.9s0,.5,0,.5h36.86s0,30.69,0,30.69H2.9s0,.5,0,.5h36.86s0,27.86,0,27.86H2.9s0,.5,0,.5h36.86s0,42.54,0,42.54h.5v-42.54s39.19,0,39.19,0v42.54s.5,0,.5,0v-42.54s33.52,0,33.52,0v42.54s.5,0,.5,0v-42.54s33.52,0,33.52,0v42.54s.5,0,.5,0v-42.54s39.19,0,39.19,0v42.54s.5,0,.5,0v-42.54s39.19,0,39.19,0v42.54s.5,0,.5,0v-42.54s33.52,0,33.52,0v42.54s.5,0,.5,0v-42.54s33.52,0,33.52,0v42.54s.5,0,.5,0v-42.54s33.52,0,33.52,0v42.54s.5,0,.5,0v-42.54s39.2,0,39.2,0v42.54s.5,0,.5,0v-42.54s33.52,0,33.52,0v42.54s.5,0,.5,0v-42.54s33.52,0,33.52,0v42.54s.5,0,.5,0v-42.54s81.72,0,81.72,0v-.5h-81.72s0-27.86,0-27.86h81.72s0-.5,0-.5h-81.72s0-30.7,0-30.7h81.72s0-.5,0-.5h-81.72s0-25.03,0-25.03h81.72s0-.5,0-.5h-81.72s0-36.37,0-36.37ZM79.45,250.9h-39.19s0-27.86,0-27.86h39.19s0,27.86,0,27.86Zm0-28.36h-39.19s0-30.69,0-30.69h39.19s0,30.69,0,30.69Zm0-31.19h-39.19s0-25.03,0-25.03h39.19s0,25.03,0,25.03Zm34.02,59.55h-33.52s0-27.86,0-27.86h33.52s0,27.86,0,27.86Zm0-28.36h-33.52s0-30.69,0-30.69h33.52s0,30.69,0,30.69Zm0-31.19h-33.52s0-25.03,0-25.03h33.52s0,25.03,0,25.03Zm34.02,59.55h-33.52s0-27.86,0-27.86h33.52s0,27.86,0,27.86Zm0-28.36h-33.52s0-30.69,0-30.69h33.52s0,30.69,0,30.69Zm0-31.19h-33.52s0-25.03,0-25.03h33.52s0,25.03,0,25.03Zm39.69,59.55h-39.19s0-27.86,0-27.86h39.19s0,27.86,0,27.86Zm0-28.36h-39.19s0-30.69,0-30.69h39.19s0,30.69,0,30.69Zm0-31.19h-39.19s0-25.03,0-25.03h39.19s0,25.03,0,25.03Zm39.69,59.55h-39.19s0-27.86,0-27.86h39.19s0,27.86,0,27.86Zm0-28.36h-39.19s0-30.69,0-30.69h39.19s0,30.69,0,30.69Zm0-31.19h-39.19s0-25.03,0-25.03h39.19s0,25.03,0,25.03Zm34.02,59.55h-33.52s0-27.86,0-27.86h33.52s0,27.86,0,27.86Zm0-28.36h-33.52s0-30.69,0-30.69h33.52s0,30.69,0,30.69Zm0-31.19h-33.52s0-25.03,0-25.03h33.52s0,25.03,0,25.03Zm34.02,59.55h-33.52s0-27.86,0-27.86h33.52s0,27.86,0,27.86Zm0-28.36h-33.52s0-30.69,0-30.69h33.52s0,30.69,0,30.69Zm0-31.19h-33.52s0-25.03,0-25.03h33.52s0,25.03,0,25.03Zm34.02,59.55h-33.52s0-27.86,0-27.86h33.52s0,27.86,0,27.86Zm0-28.36h-33.52s0-30.69,0-30.69h33.52s0,30.69,0,30.69Zm0-31.19h-33.52s0-25.03,0-25.03h33.52s0,25.03,0,25.03Zm39.69,59.55h-39.19s0-27.86,0-27.86h39.19s0,27.86,0,27.86Zm0-28.36h-39.19s0-30.69,0-30.69h39.19s0,30.69,0,30.69Zm0-31.19h-39.19s0-25.03,0-25.03h39.19s0,25.03,0,25.03Zm34.02,59.55h-33.52s0-27.86,0-27.86h33.52s0,27.86,0,27.86Zm0-28.36h-33.52s0-30.69,0-30.69h33.52s0,30.69,0,30.69Zm0-31.19h-33.52s0-25.03,0-25.03h33.52s0,25.03,0,25.03Zm34.02,59.55h-33.52s0-27.86,0-27.86h33.52s0,27.86,0,27.86Zm0-28.36h-33.52s0-30.69,0-30.69h33.52s0,30.69,0,30.69Zm0-31.19h-33.52s0-25.03,0-25.03h33.52s0,25.03,0,25.03Z"/><path class="cls-3" d="m713.38,106.42h0c-.95,5.01-8.09,3.9-11.69,4.03-2.93.1-5.86.61-8.66,1.48-5.38,1.67-10.55,4.87-13.56,9.75-3.17,5.15-2.72,10.81-1.34,16.45,1.45,5.92,4.47,16.02-3.74,18.37-8.54,2.45-17.73-3.48-26.07,1.21-12.37,6.97-5.21,23.15-6.42,34.01-.49,4.35-2.53,8.53-7.16,9.49-2.77.58-5.73-.08-8.48-.46-5.04-.71-10.05-1.14-14.65,1.48-11.36,6.48-9.97,19.64-9.29,30.67.43,7.04-1.39,13.27-9.29,14.1-4.9.52-9.87-.47-14.76.27-12.16,1.84-14.54,13.26-13.59,23.86.63,6.99,3.25,19.4-4.88,23.19-5.88,2.74-12.88-1.95-19.15-.1-5.76,1.7-9.64,7.43-9.84,13.32-.23,6.66,3.81,12.41,9.16,16,2.66,1.79,5.8-2.12,3.12-3.92-6.24-4.19-11.29-14.52-2.91-19.68,5.29-3.26,12.12.79,17.92.06,12.19-1.53,13.13-16.08,11.98-25.63-.79-6.6-2.37-16.72,4.56-20.73,4.25-2.46,9.77-1.57,14.46-1.52,10.18.1,17.98-4.52,18.28-15.58.16-5.96-1.59-12.01-.63-17.94,1.14-7.06,5.82-13.51,13.49-13.43,5.24.05,10.38,1.97,15.63.9,4.9-1,8.45-4.57,10.04-9.25,1.95-5.75.99-11.85.3-17.71-.82-6.92-.83-16.59,7.81-18.12,8.11-1.43,17.08,3.52,24.75-.91,14.36-8.3-2.11-25.79,5.38-36.44,4.78-6.8,13.6-8.17,21.28-8.22,5.87-.04,11.7-1.86,12.92-8.29.6-3.17-4.36-3.88-4.96-.71Z"/></g></g></svg>