<svg xmlns="http://www.w3.org/2000/svg" xmlns:xlink="http://www.w3.org/1999/xlink" fill-rule="evenodd" stroke-miterlimit="10" clip-rule="evenodd" viewBox="0 0 800 800">

<style>
/* <![CDATA[ */

g {
visibility: hidden;
}

/* ]]> */
</style>

<defs>
<circle id="c1" fill="none" stroke="#424680" stroke-width="56" stroke-miterlimit="10" cx="128" cy="128" r="128"/>
<circle id="c2" fill="none" stroke="#8C91C4" stroke-width="56" stroke-miterlimit="10" cx="128" cy="128" r="128"/>
<circle id="c3" fill="none" stroke="#209BB9" stroke-width="56" stroke-miterlimit="10" cx="128" cy="128" r="128"/>
<circle id="c4" fill="none" stroke="#17097C" stroke-width="56" stroke-miterlimit="10" cx="128" cy="128" r="128"/>
</defs>

<g id="a1" transform="rotate(0 400 400)"><use x="272" y="272" xlink:href="#c1"/><use x="272" y="272" xlink:href="#c2"/><use x="272" y="272" xlink:href="#c3"/><use x="272" y="272" xlink:href="#c4"/></g>
<g id="a2" transform="rotate(0 400 400)"><use x="272" y="272" xlink:href="#c1"/><use x="272" y="272" xlink:href="#c2"/><use x="272" y="272" xlink:href="#c3"/><use x="272" y="272" xlink:href="#c4"/></g>
<g id="a3" transform="rotate(0.072 400 400)"><use x="271.981" y="272" xlink:href="#c1"/><use x="272" y="271.983" xlink:href="#c2"/><use x="272" y="272.017" xlink:href="#c3"/><use x="272.019" y="272" xlink:href="#c4"/></g>
<g id="a4" transform="rotate(0.360 400 400)"><use x="271.906" y="272" xlink:href="#c1"/><use x="272" y="271.913" xlink:href="#c2"/><use x="272" y="272.087" xlink:href="#c3"/><use x="272.094" y="272" xlink:href="#c4"/></g>
<g id="a5" transform="rotate(0.864 400 400)"><use x="271.774" y="272" xlink:href="#c1"/><use x="272" y="271.791" xlink:href="#c2"/><use x="272" y="272.209" xlink:href="#c3"/><use x="272.226" y="272" xlink:href="#c4"/></g>
<g id="a6" transform="rotate(1.656 400 400)"><use x="271.568" y="272" xlink:href="#c1"/><use x="272" y="271.600" xlink:href="#c2"/><use x="272" y="272.400" xlink:href="#c3"/><use x="272.432" y="272" xlink:href="#c4"/></g>
<g id="a7" transform="rotate(2.880 400 400)"><use x="271.248" y="272" xlink:href="#c1"/><use x="272" y="271.304" xlink:href="#c2"/><use x="272" y="272.696" xlink:href="#c3"/><use x="272.752" y="272" xlink:href="#c4"/></g>
<g id="a8" transform="rotate(4.608 400 400)"><use x="270.797" y="272" xlink:href="#c1"/><use x="272" y="270.886" xlink:href="#c2"/><use x="272" y="273.114" xlink:href="#c3"/><use x="273.203" y="272" xlink:href="#c4"/></g>
<g id="a9" transform="rotate(6.840 400 400)"><use x="270.214" y="272" xlink:href="#c1"/><use x="272" y="270.347" xlink:href="#c2"/><use x="272" y="273.653" xlink:href="#c3"/><use x="273.786" y="272" xlink:href="#c4"/></g>
<g id="a10" transform="rotate(9.720 400 400)"><use x="269.462" y="272" xlink:href="#c1"/><use x="272" y="269.651" xlink:href="#c2"/><use x="272" y="274.349" xlink:href="#c3"/><use x="274.538" y="272" xlink:href="#c4"/></g>
<g id="a11" transform="rotate(13.320 400 400)"><use x="268.522" y="272" xlink:href="#c1"/><use x="272" y="268.781" xlink:href="#c2"/><use x="272" y="275.219" xlink:href="#c3"/><use x="275.478" y="272" xlink:href="#c4"/></g>
<g id="a12" transform="rotate(17.712 400 400)"><use x="267.375" y="272" xlink:href="#c1"/><use x="272" y="267.720" xlink:href="#c2"/><use x="272" y="276.280" xlink:href="#c3"/><use x="276.625" y="272" xlink:href="#c4"/></g>
<g id="a13" transform="rotate(23.040 400 400)"><use x="265.984" y="272" xlink:href="#c1"/><use x="272" y="266.432" xlink:href="#c2"/><use x="272" y="277.568" xlink:href="#c3"/><use x="278.016" y="272" xlink:href="#c4"/></g>
<g id="a14" transform="rotate(29.304 400 400)"><use x="264.348" y="272" xlink:href="#c1"/><use x="272" y="264.918" xlink:href="#c2"/><use x="272" y="279.082" xlink:href="#c3"/><use x="279.652" y="272" xlink:href="#c4"/></g>
<g id="a15" transform="rotate(36.576 400 400)"><use x="262.450" y="272" xlink:href="#c1"/><use x="272" y="263.161" xlink:href="#c2"/><use x="272" y="280.839" xlink:href="#c3"/><use x="281.550" y="272" xlink:href="#c4"/></g>
<g id="a16" transform="rotate(45.000 400 400)"><use x="260.250" y="272" xlink:href="#c1"/><use x="272" y="261.125" xlink:href="#c2"/><use x="272" y="282.875" xlink:href="#c3"/><use x="283.750" y="272" xlink:href="#c4"/></g>
<g id="a17" transform="rotate(54.648 400 400)"><use x="257.731" y="272" xlink:href="#c1"/><use x="272" y="258.793" xlink:href="#c2"/><use x="272" y="285.207" xlink:href="#c3"/><use x="286.269" y="272" xlink:href="#c4"/></g>
<g id="a18" transform="rotate(65.520 400 400)"><use x="254.892" y="272" xlink:href="#c1"/><use x="272" y="256.166" xlink:href="#c2"/><use x="272" y="287.834" xlink:href="#c3"/><use x="289.108" y="272" xlink:href="#c4"/></g>
<g id="a19" transform="rotate(77.760 400 400)"><use x="251.696" y="272" xlink:href="#c1"/><use x="272" y="253.208" xlink:href="#c2"/><use x="272" y="290.792" xlink:href="#c3"/><use x="292.304" y="272" xlink:href="#c4"/></g>
<g id="a20" transform="rotate(91.440 400 400)"><use x="248.124" y="272" xlink:href="#c1"/><use x="272" y="249.902" xlink:href="#c2"/><use x="272" y="294.098" xlink:href="#c3"/><use x="295.876" y="272" xlink:href="#c4"/></g>
<g id="a21" transform="rotate(106.632 400 400)"><use x="244.157" y="272" xlink:href="#c1"/><use x="272" y="246.231" xlink:href="#c2"/><use x="272" y="297.769" xlink:href="#c3"/><use x="299.843" y="272" xlink:href="#c4"/></g>
<g id="a22" transform="rotate(123.480 400 400)"><use x="239.758" y="272" xlink:href="#c1"/><use x="272" y="242.159" xlink:href="#c2"/><use x="272" y="301.841" xlink:href="#c3"/><use x="304.242" y="272" xlink:href="#c4"/></g>
<g id="a23" transform="rotate(141.984 400 400)"><use x="234.926" y="272" xlink:href="#c1"/><use x="272" y="237.687" xlink:href="#c2"/><use x="272" y="306.313" xlink:href="#c3"/><use x="309.074" y="272" xlink:href="#c4"/></g>
<g id="a24" transform="rotate(162.216 400 400)"><use x="229.644" y="272" xlink:href="#c1"/><use x="272" y="232.798" xlink:href="#c2"/><use x="272" y="311.202" xlink:href="#c3"/><use x="314.356" y="272" xlink:href="#c4"/></g>
<g id="a25" transform="rotate(184.320 400 400)"><use x="223.872" y="272" xlink:href="#c1"/><use x="272" y="227.456" xlink:href="#c2"/><use x="272" y="316.544" xlink:href="#c3"/><use x="320.128" y="272" xlink:href="#c4"/></g>
<g id="a26" transform="rotate(208.368 400 400)"><use x="217.593" y="272" xlink:href="#c1"/><use x="272" y="221.644" xlink:href="#c2"/><use x="272" y="322.356" xlink:href="#c3"/><use x="326.407" y="272" xlink:href="#c4"/></g>
<g id="a27" transform="rotate(234.360 400 400)"><use x="210.806" y="272" xlink:href="#c1"/><use x="272" y="215.363" xlink:href="#c2"/><use x="272" y="328.637" xlink:href="#c3"/><use x="333.194" y="272" xlink:href="#c4"/></g>
<g id="a28" transform="rotate(262.440 400 400)"><use x="203.474" y="272" xlink:href="#c1"/><use x="272" y="208.577" xlink:href="#c2"/><use x="272" y="335.423" xlink:href="#c3"/><use x="340.526" y="272" xlink:href="#c4"/></g>
<g id="a29" transform="rotate(292.680 400 400)"><use x="195.578" y="272" xlink:href="#c1"/><use x="272" y="201.269" xlink:href="#c2"/><use x="272" y="342.731" xlink:href="#c3"/><use x="348.422" y="272" xlink:href="#c4"/></g>
<g id="a30" transform="rotate(325.152 400 400)"><use x="187.099" y="272" xlink:href="#c1"/><use x="272" y="193.422" xlink:href="#c2"/><use x="272" y="350.578" xlink:href="#c3"/><use x="356.901" y="272" xlink:href="#c4"/></g>
<g id="a31" transform="rotate(360.000 400 400)"><use x="178.000" y="272" xlink:href="#c1"/><use x="272" y="185.000" xlink:href="#c2"/><use x="272" y="359.000" xlink:href="#c3"/><use x="366.000" y="272" xlink:href="#c4"/></g>
<g id="a32" transform="rotate(394.848 400 400)"><use x="168.901" y="272" xlink:href="#c1"/><use x="272" y="176.578" xlink:href="#c2"/><use x="272" y="367.422" xlink:href="#c3"/><use x="375.099" y="272" xlink:href="#c4"/></g>
<g id="a33" transform="rotate(427.320 400 400)"><use x="160.422" y="272" xlink:href="#c1"/><use x="272" y="168.731" xlink:href="#c2"/><use x="272" y="375.269" xlink:href="#c3"/><use x="383.578" y="272" xlink:href="#c4"/></g>
<g id="a34" transform="rotate(457.560 400 400)"><use x="152.526" y="272" xlink:href="#c1"/><use x="272" y="161.423" xlink:href="#c2"/><use x="272" y="382.577" xlink:href="#c3"/><use x="391.474" y="272" xlink:href="#c4"/></g>
<g id="a35" transform="rotate(485.640 400 400)"><use x="145.194" y="272" xlink:href="#c1"/><use x="272" y="154.637" xlink:href="#c2"/><use x="272" y="389.363" xlink:href="#c3"/><use x="398.806" y="272" xlink:href="#c4"/></g>
<g id="a36" transform="rotate(511.632 400 400)"><use x="138.407" y="272" xlink:href="#c1"/><use x="272" y="148.356" xlink:href="#c2"/><use x="272" y="395.644" xlink:href="#c3"/><use x="405.593" y="272" xlink:href="#c4"/></g>
<g id="a37" transform="rotate(535.680 400 400)"><use x="132.128" y="272" xlink:href="#c1"/><use x="272" y="142.544" xlink:href="#c2"/><use x="272" y="401.456" xlink:href="#c3"/><use x="411.872" y="272" xlink:href="#c4"/></g>
<g id="a38" transform="rotate(557.784 400 400)"><use x="126.356" y="272" xlink:href="#c1"/><use x="272" y="137.202" xlink:href="#c2"/><use x="272" y="406.798" xlink:href="#c3"/><use x="417.644" y="272" xlink:href="#c4"/></g>
<g id="a39" transform="rotate(578.016 400 400)"><use x="121.074" y="272" xlink:href="#c1"/><use x="272" y="132.313" xlink:href="#c2"/><use x="272" y="411.687" xlink:href="#c3"/><use x="422.926" y="272" xlink:href="#c4"/></g>
<g id="a40" transform="rotate(596.520 400 400)"><use x="116.242" y="272" xlink:href="#c1"/><use x="272" y="127.841" xlink:href="#c2"/><use x="272" y="416.159" xlink:href="#c3"/><use x="427.758" y="272" xlink:href="#c4"/></g>
<g id="a41" transform="rotate(613.368 400 400)"><use x="111.843" y="272" xlink:href="#c1"/><use x="272" y="123.769" xlink:href="#c2"/><use x="272" y="420.231" xlink:href="#c3"/><use x="432.157" y="272" xlink:href="#c4"/></g>
<g id="a42" transform="rotate(628.560 400 400)"><use x="107.876" y="272" xlink:href="#c1"/><use x="272" y="120.098" xlink:href="#c2"/><use x="272" y="423.902" xlink:href="#c3"/><use x="436.124" y="272" xlink:href="#c4"/></g>
<g id="a43" transform="rotate(642.240 400 400)"><use x="104.304" y="272" xlink:href="#c1"/><use x="272" y="116.792" xlink:href="#c2"/><use x="272" y="427.208" xlink:href="#c3"/><use x="439.696" y="272" xlink:href="#c4"/></g>
<g id="a44" transform="rotate(654.480 400 400)"><use x="101.108" y="272" xlink:href="#c1"/><use x="272" y="113.834" xlink:href="#c2"/><use x="272" y="430.166" xlink:href="#c3"/><use x="442.892" y="272" xlink:href="#c4"/></g>
<g id="a45" transform="rotate(665.352 400 400)"><use x="98.269" y="272" xlink:href="#c1"/><use x="272" y="111.207" xlink:href="#c2"/><use x="272" y="432.793" xlink:href="#c3"/><use x="445.731" y="272" xlink:href="#c4"/></g>
<g id="a46" transform="rotate(675.000 400 400)"><use x="95.750" y="272" xlink:href="#c1"/><use x="272" y="108.875" xlink:href="#c2"/><use x="272" y="435.125" xlink:href="#c3"/><use x="448.250" y="272" xlink:href="#c4"/></g>
<g id="a47" transform="rotate(683.424 400 400)"><use x="93.550" y="272" xlink:href="#c1"/><use x="272" y="106.839" xlink:href="#c2"/><use x="272" y="437.161" xlink:href="#c3"/><use x="450.450" y="272" xlink:href="#c4"/></g>
<g id="a48" transform="rotate(690.696 400 400)"><use x="91.652" y="272" xlink:href="#c1"/><use x="272" y="105.082" xlink:href="#c2"/><use x="272" y="438.918" xlink:href="#c3"/><use x="452.348" y="272" xlink:href="#c4"/></g>
<g id="a49" transform="rotate(696.960 400 400)"><use x="90.016" y="272" xlink:href="#c1"/><use x="272" y="103.568" xlink:href="#c2"/><use x="272" y="440.432" xlink:href="#c3"/><use x="453.984" y="272" xlink:href="#c4"/></g>
<g id="a50" transform="rotate(702.288 400 400)"><use x="88.625" y="272" xlink:href="#c1"/><use x="272" y="102.280" xlink:href="#c2"/><use x="272" y="441.720" xlink:href="#c3"/><use x="455.375" y="272" xlink:href="#c4"/></g>
<g id="a51" transform="rotate(706.680 400 400)"><use x="87.478" y="272" xlink:href="#c1"/><use x="272" y="101.219" xlink:href="#c2"/><use x="272" y="442.781" xlink:href="#c3"/><use x="456.522" y="272" xlink:href="#c4"/></g>
<g id="a52" transform="rotate(710.280 400 400)"><use x="86.538" y="272" xlink:href="#c1"/><use x="272" y="100.349" xlink:href="#c2"/><use x="272" y="443.651" xlink:href="#c3"/><use x="457.462" y="272" xlink:href="#c4"/></g>
<g id="a53" transform="rotate(713.160 400 400)"><use x="85.786" y="272" xlink:href="#c1"/><use x="272" y="99.653" xlink:href="#c2"/><use x="272" y="444.347" xlink:href="#c3"/><use x="458.214" y="272" xlink:href="#c4"/></g>
<g id="a54" transform="rotate(715.392 400 400)"><use x="85.203" y="272" xlink:href="#c1"/><use x="272" y="99.114" xlink:href="#c2"/><use x="272" y="444.886" xlink:href="#c3"/><use x="458.797" y="272" xlink:href="#c4"/></g>
<g id="a55" transform="rotate(717.120 400 400)"><use x="84.752" y="272" xlink:href="#c1"/><use x="272" y="98.696" xlink:href="#c2"/><use x="272" y="445.304" xlink:href="#c3"/><use x="459.248" y="272" xlink:href="#c4"/></g>
<g id="a56" transform="rotate(718.344 400 400)"><use x="84.432" y="272" xlink:href="#c1"/><use x="272" y="98.400" xlink:href="#c2"/><use x="272" y="445.600" xlink:href="#c3"/><use x="459.568" y="272" xlink:href="#c4"/></g>
<g id="a57" transform="rotate(719.136 400 400)"><use x="84.226" y="272" xlink:href="#c1"/><use x="272" y="98.209" xlink:href="#c2"/><use x="272" y="445.791" xlink:href="#c3"/><use x="459.774" y="272" xlink:href="#c4"/></g>
<g id="a58" transform="rotate(719.640 400 400)"><use x="84.094" y="272" xlink:href="#c1"/><use x="272" y="98.087" xlink:href="#c2"/><use x="272" y="445.913" xlink:href="#c3"/><use x="459.906" y="272" xlink:href="#c4"/></g>
<g id="a59" transform="rotate(719.928 400 400)"><use x="84.019" y="272" xlink:href="#c1"/><use x="272" y="98.017" xlink:href="#c2"/><use x="272" y="445.983" xlink:href="#c3"/><use x="459.981" y="272" xlink:href="#c4"/></g>
<g id="a60" transform="rotate(720 400 400)"><use x="84" y="272" xlink:href="#c1"/><use x="272" y="98" xlink:href="#c2"/><use x="272" y="446" xlink:href="#c3"/><use x="460" y="272" xlink:href="#c4"/></g>

<g id="a61" transform="rotate(0 400 400)"><use x="84" y="272" xlink:href="#c1"/><use x="272" y="98" xlink:href="#c2"/><use x="272" y="446" xlink:href="#c3"/><use x="460" y="272" xlink:href="#c4"/></g>
<g id="a62" transform="rotate(0 400 400)"><use x="84.019" y="272" xlink:href="#c1"/><use x="272" y="98.017" xlink:href="#c2"/><use x="272" y="445.983" xlink:href="#c3"/><use x="459.981" y="272" xlink:href="#c4"/></g>
<g id="a63" transform="rotate(0.072 400 400)"><use x="84.094" y="272" xlink:href="#c1"/><use x="272" y="98.087" xlink:href="#c2"/><use x="272" y="445.913" xlink:href="#c3"/><use x="459.906" y="272" xlink:href="#c4"/></g>
<g id="a64" transform="rotate(0.360 400 400)"><use x="84.226" y="272" xlink:href="#c1"/><use x="272" y="98.209" xlink:href="#c2"/><use x="272" y="445.791" xlink:href="#c3"/><use x="459.774" y="272" xlink:href="#c4"/></g>
<g id="a65" transform="rotate(0.864 400 400)"><use x="84.432" y="272" xlink:href="#c1"/><use x="272" y="98.400" xlink:href="#c2"/><use x="272" y="445.600" xlink:href="#c3"/><use x="459.568" y="272" xlink:href="#c4"/></g>
<g id="a66" transform="rotate(1.656 400 400)"><use x="84.752" y="272" xlink:href="#c1"/><use x="272" y="98.696" xlink:href="#c2"/><use x="272" y="445.304" xlink:href="#c3"/><use x="459.248" y="272" xlink:href="#c4"/></g>
<g id="a67" transform="rotate(2.880 400 400)"><use x="85.203" y="272" xlink:href="#c1"/><use x="272" y="99.114" xlink:href="#c2"/><use x="272" y="444.886" xlink:href="#c3"/><use x="458.797" y="272" xlink:href="#c4"/></g>
<g id="a68" transform="rotate(4.608 400 400)"><use x="85.786" y="272" xlink:href="#c1"/><use x="272" y="99.653" xlink:href="#c2"/><use x="272" y="444.347" xlink:href="#c3"/><use x="458.214" y="272" xlink:href="#c4"/></g>
<g id="a69" transform="rotate(6.840 400 400)"><use x="86.538" y="272" xlink:href="#c1"/><use x="272" y="100.349" xlink:href="#c2"/><use x="272" y="443.651" xlink:href="#c3"/><use x="457.462" y="272" xlink:href="#c4"/></g>
<g id="a70" transform="rotate(9.720 400 400)"><use x="87.478" y="272" xlink:href="#c1"/><use x="272" y="101.219" xlink:href="#c2"/><use x="272" y="442.781" xlink:href="#c3"/><use x="456.522" y="272" xlink:href="#c4"/></g>
<g id="a71" transform="rotate(13.320 400 400)"><use x="88.625" y="272" xlink:href="#c1"/><use x="272" y="102.280" xlink:href="#c2"/><use x="272" y="441.720" xlink:href="#c3"/><use x="455.375" y="272" xlink:href="#c4"/></g>
<g id="a72" transform="rotate(17.712 400 400)"><use x="90.016" y="272" xlink:href="#c1"/><use x="272" y="103.568" xlink:href="#c2"/><use x="272" y="440.432" xlink:href="#c3"/><use x="453.984" y="272" xlink:href="#c4"/></g>
<g id="a73" transform="rotate(23.040 400 400)"><use x="91.652" y="272" xlink:href="#c1"/><use x="272" y="105.082" xlink:href="#c2"/><use x="272" y="438.918" xlink:href="#c3"/><use x="452.348" y="272" xlink:href="#c4"/></g>
<g id="a74" transform="rotate(29.304 400 400)"><use x="93.550" y="272" xlink:href="#c1"/><use x="272" y="106.839" xlink:href="#c2"/><use x="272" y="437.161" xlink:href="#c3"/><use x="450.450" y="272" xlink:href="#c4"/></g>
<g id="a75" transform="rotate(36.576 400 400)"><use x="95.750" y="272" xlink:href="#c1"/><use x="272" y="108.875" xlink:href="#c2"/><use x="272" y="435.125" xlink:href="#c3"/><use x="448.250" y="272" xlink:href="#c4"/></g>
<g id="a76" transform="rotate(45.000 400 400)"><use x="98.269" y="272" xlink:href="#c1"/><use x="272" y="111.207" xlink:href="#c2"/><use x="272" y="432.793" xlink:href="#c3"/><use x="445.731" y="272" xlink:href="#c4"/></g>
<g id="a77" transform="rotate(54.648 400 400)"><use x="101.108" y="272" xlink:href="#c1"/><use x="272" y="113.834" xlink:href="#c2"/><use x="272" y="430.166" xlink:href="#c3"/><use x="442.892" y="272" xlink:href="#c4"/></g>
<g id="a78" transform="rotate(65.520 400 400)"><use x="104.304" y="272" xlink:href="#c1"/><use x="272" y="116.792" xlink:href="#c2"/><use x="272" y="427.208" xlink:href="#c3"/><use x="439.696" y="272" xlink:href="#c4"/></g>
<g id="a79" transform="rotate(77.760 400 400)"><use x="107.876" y="272" xlink:href="#c1"/><use x="272" y="120.098" xlink:href="#c2"/><use x="272" y="423.902" xlink:href="#c3"/><use x="436.124" y="272" xlink:href="#c4"/></g>
<g id="a80" transform="rotate(91.440 400 400)"><use x="111.843" y="272" xlink:href="#c1"/><use x="272" y="123.769" xlink:href="#c2"/><use x="272" y="420.231" xlink:href="#c3"/><use x="432.157" y="272" xlink:href="#c4"/></g>
<g id="a81" transform="rotate(106.632 400 400)"><use x="116.242" y="272" xlink:href="#c1"/><use x="272" y="127.841" xlink:href="#c2"/><use x="272" y="416.159" xlink:href="#c3"/><use x="427.758" y="272" xlink:href="#c4"/></g>
<g id="a82" transform="rotate(123.480 400 400)"><use x="121.074" y="272" xlink:href="#c1"/><use x="272" y="132.313" xlink:href="#c2"/><use x="272" y="411.687" xlink:href="#c3"/><use x="422.926" y="272" xlink:href="#c4"/></g>
<g id="a83" transform="rotate(141.984 400 400)"><use x="126.356" y="272" xlink:href="#c1"/><use x="272" y="137.202" xlink:href="#c2"/><use x="272" y="406.798" xlink:href="#c3"/><use x="417.644" y="272" xlink:href="#c4"/></g>
<g id="a84" transform="rotate(162.216 400 400)"><use x="132.128" y="272" xlink:href="#c1"/><use x="272" y="142.544" xlink:href="#c2"/><use x="272" y="401.456" xlink:href="#c3"/><use x="411.872" y="272" xlink:href="#c4"/></g>
<g id="a85" transform="rotate(184.320 400 400)"><use x="138.407" y="272" xlink:href="#c1"/><use x="272" y="148.356" xlink:href="#c2"/><use x="272" y="395.644" xlink:href="#c3"/><use x="405.593" y="272" xlink:href="#c4"/></g>
<g id="a86" transform="rotate(208.368 400 400)"><use x="145.194" y="272" xlink:href="#c1"/><use x="272" y="154.637" xlink:href="#c2"/><use x="272" y="389.363" xlink:href="#c3"/><use x="398.806" y="272" xlink:href="#c4"/></g>
<g id="a87" transform="rotate(234.360 400 400)"><use x="152.526" y="272" xlink:href="#c1"/><use x="272" y="161.423" xlink:href="#c2"/><use x="272" y="382.577" xlink:href="#c3"/><use x="391.474" y="272" xlink:href="#c4"/></g>
<g id="a88" transform="rotate(262.440 400 400)"><use x="160.422" y="272" xlink:href="#c1"/><use x="272" y="168.731" xlink:href="#c2"/><use x="272" y="375.269" xlink:href="#c3"/><use x="383.578" y="272" xlink:href="#c4"/></g>
<g id="a89" transform="rotate(292.680 400 400)"><use x="168.901" y="272" xlink:href="#c1"/><use x="272" y="176.578" xlink:href="#c2"/><use x="272" y="367.422" xlink:href="#c3"/><use x="375.099" y="272" xlink:href="#c4"/></g>
<g id="a90" transform="rotate(325.152 400 400)"><use x="178.000" y="272" xlink:href="#c1"/><use x="272" y="185.000" xlink:href="#c2"/><use x="272" y="359.000" xlink:href="#c3"/><use x="366.000" y="272" xlink:href="#c4"/></g>
<g id="a91" transform="rotate(360.000 400 400)"><use x="187.099" y="272" xlink:href="#c1"/><use x="272" y="193.422" xlink:href="#c2"/><use x="272" y="350.578" xlink:href="#c3"/><use x="356.901" y="272" xlink:href="#c4"/></g>
<g id="a92" transform="rotate(394.848 400 400)"><use x="195.578" y="272" xlink:href="#c1"/><use x="272" y="201.269" xlink:href="#c2"/><use x="272" y="342.731" xlink:href="#c3"/><use x="348.422" y="272" xlink:href="#c4"/></g>
<g id="a93" transform="rotate(427.320 400 400)"><use x="203.474" y="272" xlink:href="#c1"/><use x="272" y="208.577" xlink:href="#c2"/><use x="272" y="335.423" xlink:href="#c3"/><use x="340.526" y="272" xlink:href="#c4"/></g>
<g id="a94" transform="rotate(457.560 400 400)"><use x="210.806" y="272" xlink:href="#c1"/><use x="272" y="215.363" xlink:href="#c2"/><use x="272" y="328.637" xlink:href="#c3"/><use x="333.194" y="272" xlink:href="#c4"/></g>
<g id="a95" transform="rotate(485.640 400 400)"><use x="217.593" y="272" xlink:href="#c1"/><use x="272" y="221.644" xlink:href="#c2"/><use x="272" y="322.356" xlink:href="#c3"/><use x="326.407" y="272" xlink:href="#c4"/></g>
<g id="a96" transform="rotate(511.632 400 400)"><use x="223.872" y="272" xlink:href="#c1"/><use x="272" y="227.456" xlink:href="#c2"/><use x="272" y="316.544" xlink:href="#c3"/><use x="320.128" y="272" xlink:href="#c4"/></g>
<g id="a97" transform="rotate(535.680 400 400)"><use x="229.644" y="272" xlink:href="#c1"/><use x="272" y="232.798" xlink:href="#c2"/><use x="272" y="311.202" xlink:href="#c3"/><use x="314.356" y="272" xlink:href="#c4"/></g>
<g id="a98" transform="rotate(557.784 400 400)"><use x="234.926" y="272" xlink:href="#c1"/><use x="272" y="237.687" xlink:href="#c2"/><use x="272" y="306.313" xlink:href="#c3"/><use x="309.074" y="272" xlink:href="#c4"/></g>
<g id="a99" transform="rotate(578.016 400 400)"><use x="239.758" y="272" xlink:href="#c1"/><use x="272" y="242.159" xlink:href="#c2"/><use x="272" y="301.841" xlink:href="#c3"/><use x="304.242" y="272" xlink:href="#c4"/></g>
<g id="a100" transform="rotate(596.520 400 400)"><use x="244.157" y="272" xlink:href="#c1"/><use x="272" y="246.231" xlink:href="#c2"/><use x="272" y="297.769" xlink:href="#c3"/><use x="299.843" y="272" xlink:href="#c4"/></g>
<g id="a101" transform="rotate(613.368 400 400)"><use x="248.124" y="272" xlink:href="#c1"/><use x="272" y="249.902" xlink:href="#c2"/><use x="272" y="294.098" xlink:href="#c3"/><use x="295.876" y="272" xlink:href="#c4"/></g>
<g id="a102" transform="rotate(628.560 400 400)"><use x="251.696" y="272" xlink:href="#c1"/><use x="272" y="253.208" xlink:href="#c2"/><use x="272" y="290.792" xlink:href="#c3"/><use x="292.304" y="272" xlink:href="#c4"/></g>
<g id="a103" transform="rotate(642.240 400 400)"><use x="254.892" y="272" xlink:href="#c1"/><use x="272" y="256.166" xlink:href="#c2"/><use x="272" y="287.834" xlink:href="#c3"/><use x="289.108" y="272" xlink:href="#c4"/></g>
<g id="a104" transform="rotate(654.480 400 400)"><use x="257.731" y="272" xlink:href="#c1"/><use x="272" y="258.793" xlink:href="#c2"/><use x="272" y="285.207" xlink:href="#c3"/><use x="286.269" y="272" xlink:href="#c4"/></g>
<g id="a105" transform="rotate(665.352 400 400)"><use x="260.250" y="272" xlink:href="#c1"/><use x="272" y="261.125" xlink:href="#c2"/><use x="272" y="282.875" xlink:href="#c3"/><use x="283.750" y="272" xlink:href="#c4"/></g>
<g id="a106" transform="rotate(675.000 400 400)"><use x="262.450" y="272" xlink:href="#c1"/><use x="272" y="263.161" xlink:href="#c2"/><use x="272" y="280.839" xlink:href="#c3"/><use x="281.550" y="272" xlink:href="#c4"/></g>
<g id="a107" transform="rotate(683.424 400 400)"><use x="264.348" y="272" xlink:href="#c1"/><use x="272" y="264.918" xlink:href="#c2"/><use x="272" y="279.082" xlink:href="#c3"/><use x="279.652" y="272" xlink:href="#c4"/></g>
<g id="a108" transform="rotate(690.696 400 400)"><use x="265.984" y="272" xlink:href="#c1"/><use x="272" y="266.432" xlink:href="#c2"/><use x="272" y="277.568" xlink:href="#c3"/><use x="278.016" y="272" xlink:href="#c4"/></g>
<g id="a109" transform="rotate(696.960 400 400)"><use x="267.375" y="272" xlink:href="#c1"/><use x="272" y="267.720" xlink:href="#c2"/><use x="272" y="276.280" xlink:href="#c3"/><use x="276.625" y="272" xlink:href="#c4"/></g>
<g id="a110" transform="rotate(702.288 400 400)"><use x="268.522" y="272" xlink:href="#c1"/><use x="272" y="268.781" xlink:href="#c2"/><use x="272" y="275.219" xlink:href="#c3"/><use x="275.478" y="272" xlink:href="#c4"/></g>
<g id="a111" transform="rotate(706.680 400 400)"><use x="269.462" y="272" xlink:href="#c1"/><use x="272" y="269.651" xlink:href="#c2"/><use x="272" y="274.349" xlink:href="#c3"/><use x="274.538" y="272" xlink:href="#c4"/></g>
<g id="a112" transform="rotate(710.280 400 400)"><use x="270.214" y="272" xlink:href="#c1"/><use x="272" y="270.347" xlink:href="#c2"/><use x="272" y="273.653" xlink:href="#c3"/><use x="273.786" y="272" xlink:href="#c4"/></g>
<g id="a113" transform="rotate(713.160 400 400)"><use x="270.797" y="272" xlink:href="#c1"/><use x="272" y="270.886" xlink:href="#c2"/><use x="272" y="273.114" xlink:href="#c3"/><use x="273.203" y="272" xlink:href="#c4"/></g>
<g id="a114" transform="rotate(715.392 400 400)"><use x="271.248" y="272" xlink:href="#c1"/><use x="272" y="271.304" xlink:href="#c2"/><use x="272" y="272.696" xlink:href="#c3"/><use x="272.752" y="272" xlink:href="#c4"/></g>
<g id="a115" transform="rotate(717.120 400 400)"><use x="271.568" y="272" xlink:href="#c1"/><use x="272" y="271.600" xlink:href="#c2"/><use x="272" y="272.400" xlink:href="#c3"/><use x="272.432" y="272" xlink:href="#c4"/></g>
<g id="a116" transform="rotate(718.344 400 400)"><use x="271.774" y="272" xlink:href="#c1"/><use x="272" y="271.791" xlink:href="#c2"/><use x="272" y="272.209" xlink:href="#c3"/><use x="272.226" y="272" xlink:href="#c4"/></g>
<g id="a117" transform="rotate(719.136 400 400)"><use x="271.906" y="272" xlink:href="#c1"/><use x="272" y="271.913" xlink:href="#c2"/><use x="272" y="272.087" xlink:href="#c3"/><use x="272.094" y="272" xlink:href="#c4"/></g>
<g id="a118" transform="rotate(719.640 400 400)"><use x="271.981" y="272" xlink:href="#c1"/><use x="272" y="271.983" xlink:href="#c2"/><use x="272" y="272.017" xlink:href="#c3"/><use x="272.019" y="272" xlink:href="#c4"/></g>
<g id="a119" transform="rotate(719.928 400 400)"><use x="272" y="272" xlink:href="#c1"/><use x="272" y="272" xlink:href="#c2"/><use x="272" y="272" xlink:href="#c3"/><use x="272" y="272" xlink:href="#c4"/></g>
<g id="a120" transform="rotate(720 400 400)"><use x="272" y="272" xlink:href="#c1"/><use x="272" y="272" xlink:href="#c2"/><use x="272" y="272" xlink:href="#c3"/><use x="272" y="272" xlink:href="#c4"/></g>

<script>
<![CDATA[
var delay_between = 10000; // change it to control delay in between states;
var delay_end = 1000; //  change it to control delay in between animations;
var speed = 30 // change it to control the speed of animation. The bigger vallue -> the slower speed;
var frame = 1;
var frames = 120;
var itr = 0;

function $(sel) { return document.querySelector(sel); }

function move() {

for (i=1; i<=frames; i++) {
  $("#a" + i).setAttribute("style", "");
}

$("#a" + frame).setAttribute("style", "visibility:visible");

if (frame < frames) {
    frame++;
  } else {
    itr++;
    frame= 1;
  }
  
  if (frame != 60 && frame != 120) {
      setTimeout(function(){
        requestAnimationFrame(move);
      },  speed);
  }
  if (frame == 60) {
      setTimeout(function(){
        requestAnimationFrame(move);
      },  delay_between);
  }
  if (frame == 120) {
      setTimeout(function(){
        requestAnimationFrame(move);
      },  delay_end);
  }

};

window.addEventListener('DOMContentLoaded', () => {
  move(); // call this function to start animation;
});

]]>
</script>

</svg>
