<?xml version="1.0" encoding="utf-8"?>
<!-- Generator: Adobe Illustrator 24.0.2, SVG Export Plug-In . SVG Version: 6.00 Build 0)  -->
<svg version="1.1" id="Layer_1" xmlns="http://www.w3.org/2000/svg" xmlns:xlink="http://www.w3.org/1999/xlink" x="0px" y="0px"
	 viewBox="0 0 1139.65 953.37" style="enable-background:new 0 0 1139.65 953.37;" xml:space="preserve">
<style type="text/css">
	.st0{fill:#00A5DC;stroke:#000000;stroke-width:8;stroke-miterlimit:10;}
	.st1{fill:#007291;stroke:#000000;stroke-width:8;stroke-miterlimit:10;}
</style>
<path class="st0" d="M875.7,233.56c17.38-43.03-3.6-92.45-46.62-109.84L571.11,18.5c19.6,39.24,62.43,101.61,35.55,139.99
	l-35.55,42.22l194.75,79.47C808.89,297.56,858.31,276.58,875.7,233.56L875.7,233.56z"/>
<path class="st1" d="M400.01,245.15c54.23,14.53,78.06,64.75,82.22,117.77l139.15-198.91c31.6-45.13,20.53-107.91-24.6-139.51
	l-9.25-6.48c-45.13-31.6-107.91-20.53-139.51,24.6L304.42,248.96c-5.64,8.11-9.35,17.48-10.34,27.31
	C288.9,327.92,371.94,237.63,400.01,245.15z M539,51.22c26.26,0,47.56,21.29,47.56,47.56c0,26.26-21.29,47.56-47.56,47.56
	c-26.26,0-47.56-21.29-47.56-47.56C491.45,72.52,512.74,51.22,539,51.22z"/>
<path class="st0" d="M640.33,736.07c0-29.58-23.98-53.56-53.56-53.56h-95.33V334.06c0-58.2-47.62-105.82-105.82-105.82h0
	c-58.2,0-105.82,47.62-105.82,105.82v348.45h-95.33c-29.58,0-53.56,23.98-53.56,53.56V845.1h509.41V736.07z M385.63,268.64
	c26.26,0,47.56,21.29,47.56,47.56c0,26.26-21.29,47.56-47.56,47.56c-26.26,0-47.56-21.29-47.56-47.56
	C338.07,289.93,359.36,268.64,385.63,268.64z"/>
<path class="st0" d="M1136.8,266.2l-78.05-107.45c-3.13-4.32-8.33-6.63-13.64-6.07l-132.08,13.87c-5.3,0.56-9.91,3.9-12.08,8.77
	l-54.03,121.32c-2.17,4.87-1.58,10.53,1.56,14.85l78.05,107.45c3.13,4.32,8.33,6.63,13.64,6.07l132.08-13.87
	c5.3-0.56,9.91-3.9,12.08-8.77c3.35-7.53-0.03-16.36-7.56-19.71l-92.91-41.38c-7.53-3.35-10.92-12.18-7.56-19.71l29.73-66.77
	c3.35-7.53,12.18-10.92,19.71-7.56l92.91,41.38c7.53,3.35,16.36-0.03,19.71-7.56v0C1140.53,276.17,1139.94,270.51,1136.8,266.2z"/>
<path class="st1" d="M734.5,837.75H36.76C16.54,837.75,0,854.3,0,874.51v78.86h771.25v-78.86
	C771.25,854.3,754.71,837.75,734.5,837.75z"/>
</svg>
