<?xml version="1.0" encoding="utf-8"?>
<!-- Generator: Adobe Illustrator 24.0.2, SVG Export Plug-In . SVG Version: 6.00 Build 0)  -->
<svg version="1.1" id="Layer_1" xmlns="http://www.w3.org/2000/svg" xmlns:xlink="http://www.w3.org/1999/xlink" x="0px" y="0px"
	 viewBox="0 0 1139.65 953.37" style="enable-background:new 0 0 1139.65 953.37;" xml:space="preserve">
<style type="text/css">
	.st0{fill:#00A5DC;}
	.st1{fill:#303591;}
	.st2{fill:#007291;}
</style>
<circle class="st0" cx="96.59" cy="506.29" r="70.5"/>
<circle class="st0" cx="486.59" cy="377.29" r="70.5"/>
<circle class="st1" cx="885.09" cy="218.79" r="39"/>
<circle class="st1" cx="1076.09" cy="447.79" r="39"/>
<circle class="st2" cx="952.09" cy="686.79" r="39"/>
<circle class="st2" cx="714.09" cy="668.79" r="39"/>
<circle class="st1" cx="455.09" cy="657.79" r="39"/>
<circle class="st2" cx="766.09" cy="872.79" r="39"/>
<circle class="st1" cx="204.09" cy="201.79" r="39"/>
<circle class="st1" cx="589.09" cy="89.79" r="39"/>
<path d="M98.46,604.25c-54.24,0-98.37-44.13-98.37-98.36c0-54.24,44.13-98.37,98.37-98.37c54.24,0,98.36,44.13,98.36,98.37
	C196.82,560.13,152.7,604.25,98.46,604.25z M98.46,442.13c-35.15,0-63.75,28.6-63.75,63.75c0,35.15,28.6,63.75,63.75,63.75
	c35.15,0,63.75-28.6,63.75-63.75C162.21,470.74,133.61,442.13,98.46,442.13z"/>
<path d="M203.07,268.19c-36.59,0-66.36-29.77-66.36-66.36s29.77-66.36,66.36-66.36c36.59,0,66.36,29.77,66.36,66.36
	S239.66,268.19,203.07,268.19z M203.07,170.07c-17.51,0-31.75,14.25-31.75,31.75s14.24,31.75,31.75,31.75
	c17.51,0,31.75-14.25,31.75-31.75S220.58,170.07,203.07,170.07z"/>
<path d="M588.74,156.14c-36.59,0-66.36-29.77-66.36-66.36c0-36.59,29.77-66.36,66.36-66.36c36.59,0,66.36,29.77,66.36,66.36
	C655.1,126.37,625.33,156.14,588.74,156.14z M588.74,58.02c-17.51,0-31.75,14.25-31.75,31.75s14.24,31.75,31.75,31.75
	c17.51,0,31.75-14.25,31.75-31.75S606.25,58.02,588.74,58.02z"/>
<path d="M886.67,288.5c-36.59,0-66.36-29.77-66.36-66.36c0-36.59,29.77-66.36,66.36-66.36c36.59,0,66.36,29.77,66.36,66.36
	C953.04,258.73,923.27,288.5,886.67,288.5z M886.67,190.39c-17.51,0-31.75,14.25-31.75,31.75s14.24,31.75,31.75,31.75
	c17.51,0,31.75-14.24,31.75-31.75S904.18,190.39,886.67,190.39z"/>
<path d="M1070,517.99c-36.59,0-66.36-29.77-66.36-66.36c0-36.59,29.77-66.36,66.36-66.36c36.59,0,66.36,29.77,66.36,66.36
	C1136.37,488.22,1106.6,517.99,1070,517.99z M1070,419.87c-17.51,0-31.75,14.25-31.75,31.75c0,17.51,14.25,31.75,31.75,31.75
	s31.75-14.24,31.75-31.75C1101.76,434.12,1087.51,419.87,1070,419.87z"/>
<path d="M455.29,725.43c-36.59,0-66.36-29.77-66.36-66.36c0-36.59,29.77-66.36,66.36-66.36c36.59,0,66.36,29.77,66.36,66.36
	C521.66,695.66,491.89,725.43,455.29,725.43z M455.29,627.32c-17.51,0-31.75,14.24-31.75,31.75c0,17.51,14.24,31.75,31.75,31.75
	c17.51,0,31.75-14.25,31.75-31.75C487.05,641.56,472.8,627.32,455.29,627.32z"/>
<path d="M762.76,927.79c-30.42,0-55.17-24.75-55.17-55.17c0-30.42,24.75-55.17,55.17-55.17c30.42,0,55.17,24.75,55.17,55.17
	C817.93,903.04,793.18,927.79,762.76,927.79z M762.76,852.07c-11.33,0-20.55,9.22-20.55,20.55s9.22,20.55,20.55,20.55
	c11.33,0,20.55-9.22,20.55-20.55S774.1,852.07,762.76,852.07z"/>
<path d="M713.71,721.53c-28.86,0-52.34-23.48-52.34-52.34s23.48-52.34,52.34-52.34s52.34,23.48,52.34,52.34
	S742.57,721.53,713.71,721.53z M713.71,651.45c-9.78,0-17.73,7.95-17.73,17.73c0,9.78,7.95,17.73,17.73,17.73
	c9.78,0,17.73-7.95,17.73-17.73C731.44,659.41,723.49,651.45,713.71,651.45z"/>
<path d="M952.33,746.45c-28.86,0-52.35-23.48-52.35-52.35c0-28.86,23.48-52.34,52.35-52.34c28.86,0,52.34,23.48,52.34,52.34
	C1004.67,722.97,981.19,746.45,952.33,746.45z M952.33,676.37c-9.78,0-17.74,7.95-17.74,17.73c0,9.78,7.96,17.74,17.74,17.74
	c9.78,0,17.73-7.96,17.73-17.74C970.06,684.33,962.11,676.37,952.33,676.37z"/>
<path d="M493.95,475.46c-54.24,0-98.36-44.13-98.36-98.37c0-54.24,44.13-98.36,98.36-98.36s98.36,44.13,98.36,98.36
	C592.31,431.33,548.19,475.46,493.95,475.46z M493.95,313.34c-35.15,0-63.75,28.6-63.75,63.75c0,35.15,28.6,63.75,63.75,63.75
	s63.75-28.6,63.75-63.75C557.7,341.94,529.1,313.34,493.95,313.34z"/>
<path d="M976.05,680.6c-2.4,0-4.83-0.5-7.16-1.56c-8.7-3.96-12.54-14.22-8.58-22.92l75.1-164.96c3.96-8.7,14.22-12.54,22.92-8.58
	c8.7,3.96,12.54,14.22,8.58,22.92l-75.1,164.96C988.91,676.83,982.62,680.6,976.05,680.6z"/>
<path d="M1037.97,428.83c-5.08,0-10.12-2.23-13.53-6.5L903.77,271.26c-5.97-7.47-4.75-18.36,2.72-24.32
	c7.47-5.97,18.36-4.75,24.32,2.72l120.68,151.06c5.97,7.47,4.75,18.36-2.72,24.32C1045.58,427.59,1041.76,428.83,1037.97,428.83z"/>
<path d="M837.61,213.51c-2.25,0-4.54-0.44-6.74-1.37L631.05,127.5c-8.8-3.73-12.91-13.88-9.19-22.68
	c3.73-8.8,13.89-12.91,22.68-9.19l199.82,84.64c8.8,3.73,12.91,13.88,9.19,22.68C850.76,209.55,844.35,213.51,837.61,213.51z"/>
<path d="M246.84,197.01c-7.67,0-14.68-5.14-16.73-12.91c-2.43-9.24,3.09-18.71,12.33-21.14l294.44-77.44
	c9.24-2.45,18.71,3.09,21.14,12.33c2.43,9.24-3.09,18.71-12.33,21.14l-294.44,77.44C249.77,196.82,248.29,197.01,246.84,197.01z"/>
<path d="M126.35,442.14c-1.87,0-3.77-0.3-5.63-0.95c-9.04-3.11-13.84-12.96-10.73-21.99l60.76-176.61
	c3.11-9.04,12.96-13.84,21.99-10.73c9.04,3.11,13.84,12.96,10.73,21.99l-60.76,176.61C140.24,437.63,133.53,442.14,126.35,442.14z"
	/>
<path d="M406.23,655.32c-2.28,0-4.59-0.45-6.82-1.41L166.13,553.77c-8.78-3.77-12.85-13.95-9.08-22.73
	c3.77-8.78,13.94-12.85,22.73-9.08l233.28,100.14c8.78,3.77,12.85,13.95,9.08,22.73C419.32,651.39,412.94,655.32,406.23,655.32z"/>
<path d="M678.67,681.49c-0.13,0-0.27,0-0.4,0l-174.34-3.99c-9.56-0.22-17.12-8.14-16.9-17.7c0.22-9.42,7.92-16.91,17.29-16.91
	c0.14,0,0.27,0,0.4,0l174.34,3.99c9.55,0.22,17.12,8.14,16.9,17.7C695.75,674,688.05,681.49,678.67,681.49z"/>
<path d="M751.83,847.12c-7.95,0-15.11-5.51-16.89-13.6l-27.91-127.1c-2.05-9.34,3.86-18.57,13.19-20.61
	c9.35-2.06,18.57,3.86,20.61,13.19l27.91,127.1c2.05,9.34-3.86,18.57-13.19,20.61C754.3,846.99,753.06,847.12,751.83,847.12z"/>
<path d="M793.39,858.53c-4.98,0-9.92-2.14-13.34-6.27c-6.1-7.36-5.07-18.27,2.3-24.37l135.41-112.08c7.37-6.09,18.27-5.07,24.36,2.3
	c6.1,7.36,5.07,18.27-2.3,24.37L804.41,854.56C801.18,857.23,797.27,858.53,793.39,858.53z"/>
<path d="M424.08,353.3c-3.16,0-6.36-0.87-9.23-2.68L237.6,238.59c-8.08-5.11-10.49-15.8-5.38-23.87
	c5.11-8.08,15.79-10.49,23.87-5.38l177.24,112.03c8.08,5.11,10.49,15.8,5.38,23.87C435.43,350.45,429.81,353.3,424.08,353.3z"/>
<path d="M176.61,501.68c-7.21,0-13.93-4.53-16.38-11.74c-3.08-9.05,1.76-18.88,10.81-21.96l240.39-81.8
	c9.05-3.08,18.88,1.76,21.96,10.81c3.08,9.05-1.76,18.88-10.81,21.96l-240.39,81.8C180.33,501.38,178.45,501.68,176.61,501.68z"/>
<path d="M1020.97,468.93c-0.81,0-1.62-0.06-2.44-0.17l-446.74-63.18c-9.46-1.34-16.05-10.09-14.71-19.56
	c1.34-9.46,10.12-16.04,19.56-14.71l446.74,63.18c9.46,1.34,16.05,10.09,14.71,19.56C1036.86,462.69,1029.45,468.93,1020.97,468.93z
	"/>
<path d="M519.87,317.6c-1.84,0-3.7-0.29-5.54-0.91c-9.06-3.06-13.92-12.87-10.86-21.93l55.14-163.43
	c3.06-9.06,12.88-13.92,21.93-10.87c9.06,3.06,13.92,12.88,10.87,21.93l-55.14,163.43C533.82,313.05,527.09,317.6,519.87,317.6z"/>
<path d="M460.03,624.96c-0.87,0-1.75-0.07-2.63-0.2c-9.45-1.44-15.94-10.27-14.5-19.72l22.94-150.26
	c1.44-9.45,10.26-15.94,19.72-14.5c9.45,1.44,15.94,10.27,14.5,19.72l-22.94,150.26C475.8,618.83,468.43,624.96,460.03,624.96z"/>
<path d="M569.86,365.94c-7.01,0-13.6-4.29-16.21-11.23c-3.36-8.95,1.18-18.93,10.13-22.28l267.76-100.41
	c8.95-3.36,18.93,1.18,22.28,10.13c3.36,8.95-1.18,18.93-10.13,22.28L575.93,364.83C573.93,365.59,571.88,365.94,569.86,365.94z"/>
<path d="M690.26,655.32c-5.25,0-10.44-2.38-13.84-6.9L530.06,453.87c-5.75-7.64-4.21-18.49,3.42-24.23
	c7.64-5.75,18.49-4.21,24.23,3.43l146.37,194.54c5.75,7.64,4.21,18.49-3.42,24.23C697.54,654.18,693.89,655.32,690.26,655.32z"/>
<path d="M748.76,668.9c-5.78,0-11.43-2.89-14.71-8.16c-5.05-8.11-2.57-18.79,5.55-23.84l272.2-169.43
	c8.1-5.05,18.78-2.57,23.84,5.55c5.05,8.11,2.57,18.79-5.55,23.84l-272.2,169.43C755.05,668.06,751.88,668.9,748.76,668.9z"/>
<path d="M917.31,711.42c-0.84,0-1.7-0.06-2.55-0.19l-168.54-24.92c-9.45-1.4-15.99-10.19-14.59-19.65
	c1.4-9.46,10.22-15.99,19.65-14.59l168.54,24.92c9.45,1.4,15.99,10.19,14.59,19.65C933.13,705.24,925.74,711.42,917.31,711.42z"/>
</svg>
