<?xml version="1.0" encoding="utf-8"?>
<!-- Generator: Adobe Illustrator 24.0.2, SVG Export Plug-In . SVG Version: 6.00 Build 0)  -->
<svg version="1.1" id="Layer_1" xmlns="http://www.w3.org/2000/svg" xmlns:xlink="http://www.w3.org/1999/xlink" x="0px" y="0px"
	 viewBox="0 0 1139.65 953.37" style="enable-background:new 0 0 1139.65 953.37;" xml:space="preserve">
<style type="text/css">
	.st0{fill:#FFFFFF;}
	.st1{fill:#303591;}
	.st2{fill:#00A5DC;}
	.st3{fill:#007291;}
</style>
<rect x="443.09" y="308.79" class="st0" width="25" height="20"/>
<circle class="st1" cx="203.59" cy="282.29" r="101.5"/>
<circle class="st2" cx="456.59" cy="282.29" r="101.5"/>
<circle class="st1" cx="709.59" cy="282.29" r="101.5"/>
<circle class="st2" cx="962.59" cy="282.29" r="101.5"/>
<rect x="160.09" y="216.79" class="st0" width="86" height="130"/>
<rect x="392.09" y="231.79" class="st0" width="127" height="74"/>
<rect x="443.09" y="307.79" class="st0" width="24" height="20"/>
<rect x="410.09" y="327.79" class="st0" width="90" height="11"/>
<rect x="662.09" y="215.79" class="st0" width="60" height="130"/>
<rect x="713.09" y="243.79" class="st0" width="46" height="101"/>
<rect x="720.09" y="218.79" class="st0" width="12" height="32"/>
<rect x="726.09" y="224.79" class="st0" width="13" height="22"/>
<rect x="721.09" y="230.79" class="st0" width="24" height="17"/>
<rect x="739.09" y="236.79" class="st0" width="11" height="9"/>
<rect x="920.09" y="208.79" class="st0" width="75" height="145"/>
<polygon class="st1" points="412.09,925.79 420.09,901.79 446.09,871.79 484.09,844.79 523.09,828.79 569.09,819.79 623.53,818.53 
	667.09,824.79 714.09,839.79 747.09,859.79 766.09,876.79 781.09,896.79 793.09,919.79 794.09,925.79 727.09,940.79 657.09,950.79 
	583.09,950.79 505.09,943.79 450.09,935.79 "/>
<path class="st3" d="M519.09,813.79h-199l-23-7l-8.27-12.59l-11.73-13.41l-4-32v-259l17-34l23-11h36l506-1l20,7c0,0,15,19,16,18
	s9,21,9,21v14l-1,264l-4,15l-13,19l-13,9l-22,4h-109L519.09,813.79z"/>
<g>
	<path d="M769.66,159.08c-10.18,0-18.45-8.28-18.45-18.46c0-10.17,8.27-18.45,18.45-18.45s18.45,8.28,18.45,18.45
		C788.11,150.8,779.84,159.08,769.66,159.08z M769.66,129.14c-6.33,0-11.47,5.15-11.47,11.48c0,6.33,5.14,11.48,11.47,11.48
		c6.33,0,11.47-5.15,11.47-11.48C781.13,134.29,775.99,129.14,769.66,129.14z"/>
</g>
<g>
	<path d="M1006.24,560.52c-9.26,0-16.79-7.53-16.79-16.77c0-9.26,7.53-16.8,16.79-16.8c9.25,0,16.79,7.53,16.79,16.8
		C1023.02,553,1015.49,560.52,1006.24,560.52z M1006.24,533.93c-5.41,0-9.81,4.4-9.81,9.82c0,5.4,4.4,9.8,9.81,9.8
		c5.4,0,9.81-4.4,9.81-9.8C1016.04,538.33,1011.64,533.93,1006.24,533.93z"/>
</g>
<g>
	<path d="M831.68,404.59c-9.26,0-16.8-7.53-16.8-16.77c0-9.26,7.53-16.8,16.8-16.8c9.25,0,16.79,7.54,16.79,16.8
		C848.47,397.06,840.94,404.59,831.68,404.59z M831.68,377.99c-5.41,0-9.81,4.4-9.81,9.82c0,5.4,4.4,9.8,9.81,9.8
		c5.4,0,9.81-4.4,9.81-9.8C841.49,382.39,837.09,377.99,831.68,377.99z"/>
</g>
<g>
	<path d="M1023.94,467.5c-9.25,0-16.78-7.53-16.78-16.78c0-9.26,7.53-16.79,16.78-16.79c9.26,0,16.79,7.53,16.79,16.79
		C1040.72,459.97,1033.2,467.5,1023.94,467.5z M1023.94,440.91c-5.4,0-9.81,4.4-9.81,9.81c0,5.41,4.41,9.81,9.81,9.81
		c5.41,0,9.81-4.4,9.81-9.81C1033.75,445.31,1029.35,440.91,1023.94,440.91z"/>
</g>
<g>
	<path d="M782.96,33.37c-9.25,0-16.77-7.53-16.77-16.78c0-9.26,7.52-16.8,16.77-16.8c9.25,0,16.8,7.53,16.8,16.8
		C799.75,25.83,792.21,33.37,782.96,33.37z M782.96,6.77c-5.41,0-9.8,4.4-9.8,9.81c0,5.41,4.39,9.81,9.8,9.81
		c5.41,0,9.81-4.4,9.81-9.81C792.77,11.17,788.37,6.77,782.96,6.77z"/>
</g>
<g>
	<path d="M155.69,536.62c-9.25,0-16.78-7.53-16.78-16.78c0-9.26,7.53-16.8,16.78-16.8c9.26,0,16.79,7.54,16.79,16.8
		C172.47,529.09,164.95,536.62,155.69,536.62z M155.69,510.02c-5.41,0-9.8,4.4-9.8,9.82c0,5.4,4.39,9.81,9.8,9.81
		s9.81-4.4,9.81-9.81C165.5,514.42,161.1,510.02,155.69,510.02z"/>
</g>
<g>
	<path d="M355.03,399.28c-9.25,0-16.78-7.53-16.78-16.78c0-9.26,7.53-16.8,16.78-16.8s16.79,7.53,16.79,16.8
		C371.82,391.75,364.29,399.28,355.03,399.28z M355.03,372.68c-5.41,0-9.8,4.4-9.8,9.82c0,5.41,4.39,9.81,9.8,9.81
		c5.41,0,9.81-4.4,9.81-9.81C364.84,377.08,360.44,372.68,355.03,372.68z"/>
</g>
<g>
	<path d="M94.56,169.81c-9.25,0-16.78-7.53-16.78-16.78c0-9.26,7.53-16.8,16.78-16.8c9.25,0,16.79,7.53,16.79,16.8
		C111.34,162.28,103.81,169.81,94.56,169.81z M94.56,143.21c-5.4,0-9.81,4.4-9.81,9.82c0,5.4,4.4,9.81,9.81,9.81
		c5.41,0,9.81-4.4,9.81-9.81C104.37,147.61,99.97,143.21,94.56,143.21z"/>
</g>
<g>
	<path d="M273.51,429.4c-6,0-10.89-4.89-10.89-10.88c0-6,4.88-10.89,10.89-10.89c6,0,10.88,4.88,10.88,10.89
		C284.4,424.51,279.52,429.4,273.51,429.4z M273.51,414.61c-2.15,0-3.91,1.75-3.91,3.91c0,2.15,1.76,3.9,3.91,3.9
		c2.16,0,3.91-1.76,3.91-3.9C277.42,416.36,275.67,414.61,273.51,414.61z"/>
</g>
<g>
	<path d="M899.91,435.59c-6,0-10.89-4.88-10.89-10.88c0-5.99,4.88-10.87,10.89-10.87c6,0,10.89,4.88,10.89,10.87
		C910.79,430.72,905.91,435.59,899.91,435.59z M899.91,420.82c-2.15,0-3.91,1.74-3.91,3.9c0,2.15,1.76,3.91,3.91,3.91
		c2.15,0,3.9-1.76,3.9-3.91C903.81,422.56,902.06,420.82,899.91,420.82z"/>
</g>
<g>
	<path d="M118.48,461.6c-6.01,0-10.89-4.88-10.89-10.88c0-6,4.89-10.89,10.89-10.89c5.99,0,10.88,4.89,10.88,10.89
		C129.36,456.72,124.48,461.6,118.48,461.6z M118.48,446.82c-2.16,0-3.91,1.75-3.91,3.9c0,2.15,1.76,3.9,3.91,3.9
		c2.15,0,3.9-1.76,3.9-3.9C122.38,448.57,120.63,446.82,118.48,446.82z"/>
</g>
<g>
	<path d="M186.69,646.46c-6.01,0-10.89-4.88-10.89-10.88c0-6,4.89-10.88,10.89-10.88c6,0,10.87,4.88,10.87,10.88
		C197.57,641.58,192.69,646.46,186.69,646.46z M186.69,631.68c-2.16,0-3.92,1.75-3.92,3.9s1.76,3.9,3.92,3.9
		c2.15,0,3.9-1.75,3.9-3.9S188.84,631.68,186.69,631.68z"/>
</g>
<g>
	<path d="M960.73,703.47c-5.99,0-10.87-4.88-10.87-10.88c0-6,4.88-10.88,10.87-10.88c6,0,10.89,4.87,10.89,10.88
		C971.61,698.59,966.73,703.47,960.73,703.47z M960.73,688.69c-2.14,0-3.89,1.75-3.89,3.9c0,2.16,1.75,3.9,3.89,3.9
		c2.16,0,3.91-1.75,3.91-3.9C964.64,690.44,962.88,688.69,960.73,688.69z"/>
</g>
<g>
	<path d="M259.93,77.09c-6,0-10.88-4.89-10.88-10.89c0-6,4.88-10.87,10.88-10.87c6,0,10.88,4.87,10.88,10.87
		C270.8,72.2,265.93,77.09,259.93,77.09z M259.93,62.3c-2.15,0-3.9,1.76-3.9,3.9c0,2.16,1.75,3.91,3.9,3.91
		c2.15,0,3.9-1.75,3.9-3.91C263.83,64.05,262.08,62.3,259.93,62.3z"/>
</g>
<g>
	<path d="M535.4,38.58c-9.4,0-17.04-7.65-17.04-17.05c0-9.4,7.64-17.04,17.04-17.04c9.39,0,17.03,7.65,17.03,17.04
		C552.43,30.93,544.79,38.58,535.4,38.58z M535.4,11.46c-5.55,0-10.07,4.52-10.07,10.07c0,5.55,4.51,10.07,10.07,10.07
		c5.54,0,10.06-4.52,10.06-10.07C545.46,15.98,540.95,11.46,535.4,11.46z"/>
</g>
<g>
	<path d="M938.53,113.89c-9.26,0-16.8-7.53-16.8-16.78c0-9.26,7.53-16.79,16.8-16.79c9.25,0,16.78,7.53,16.78,16.79
		C955.31,106.36,947.79,113.89,938.53,113.89z M938.53,87.3c-5.41,0-9.82,4.4-9.82,9.81c0,5.4,4.41,9.8,9.82,9.8
		c5.4,0,9.81-4.4,9.81-9.8C948.34,91.7,943.94,87.3,938.53,87.3z"/>
</g>
<g>
	<path d="M549.91,167.28c-6,0-10.88-4.88-10.88-10.89c0-5.99,4.88-10.87,10.88-10.87c6,0,10.89,4.88,10.89,10.87
		C560.79,162.4,555.91,167.28,549.91,167.28z M549.91,152.5c-2.15,0-3.9,1.75-3.9,3.9c0,2.16,1.75,3.91,3.9,3.91
		c2.15,0,3.9-1.75,3.9-3.91C553.81,154.25,552.06,152.5,549.91,152.5z"/>
</g>
<g>
	<path d="M448.15,155.1c-6.01,0-10.89-4.88-10.89-10.89c0-6,4.88-10.88,10.89-10.88c6,0,10.89,4.88,10.89,10.88
		C459.04,150.22,454.15,155.1,448.15,155.1z M448.15,140.31c-2.16,0-3.92,1.76-3.92,3.91c0,2.16,1.76,3.91,3.92,3.91
		c2.15,0,3.9-1.75,3.9-3.91C452.06,142.07,450.3,140.31,448.15,140.31z"/>
</g>
<g>
	<path d="M302.85,153.31c-5.99,0-10.87-4.88-10.87-10.88c0-6.01,4.88-10.88,10.87-10.88c6,0,10.89,4.87,10.89,10.88
		C313.74,148.43,308.85,153.31,302.85,153.31z M302.85,138.53c-2.15,0-3.9,1.75-3.9,3.9c0,2.15,1.75,3.9,3.9,3.9
		c2.16,0,3.9-1.75,3.9-3.9C306.75,140.28,305,138.53,302.85,138.53z"/>
</g>
<g>
	<path d="M640.62,83.28c-6,0-10.89-4.88-10.89-10.87c0-6,4.88-10.89,10.89-10.89c5.99,0,10.87,4.88,10.87,10.89
		C651.49,78.4,646.61,83.28,640.62,83.28z M640.62,68.5c-2.15,0-3.91,1.76-3.91,3.91c0,2.15,1.76,3.9,3.91,3.9
		c2.14,0,3.89-1.75,3.89-3.9C644.52,70.25,642.76,68.5,640.62,68.5z"/>
</g>
<g>
	<path d="M558.8,416.99c-6,0-10.88-4.88-10.88-10.88c0-6,4.88-10.89,10.88-10.89c6,0,10.88,4.88,10.88,10.89
		C569.68,412.12,564.8,416.99,558.8,416.99z M558.8,402.21c-2.15,0-3.91,1.76-3.91,3.9c0,2.15,1.76,3.9,3.91,3.9
		c2.15,0,3.9-1.76,3.9-3.9C562.7,403.97,560.95,402.21,558.8,402.21z"/>
</g>
<polygon class="st0" points="301.09,593.79 301.09,646.79 301.09,749.79 305.09,771.79 324.09,782.79 433.09,782.79 447.09,784.79 
	456.09,791.79 481.09,794.79 494.09,785.79 501.09,794.79 523.8,813.73 542.09,823.79 555.09,821.79 613.09,816.79 651.09,821.79 
	665.09,816.79 686.09,798.79 697.09,785.79 713.09,792.79 722.09,794.79 734.09,792.79 748.09,782.79 844.09,783.79 857.09,780.79 
	870.09,769.79 871.09,762.79 871.09,571.79 871.09,493.79 862.09,481.79 850.09,473.79 647.09,473.79 441.09,473.79 323.09,473.79 
	309.09,481.79 303.09,498.79 "/>
<path d="M425.09,738.79l15,38l11.97,12.41l18.03,6.59l15.57-2.87l18.43-20.13c0,0,6-25,6-26s1-27,1-28s-6-23-6-23l-8-15l-8-10
	c0,0,21-35,22-38s32-23,32-23l32-10h34l37,9l25,17l19,20l9,18l4,7l-6,9l-14,30l-2,27l5,25l9,19l15,12l18.24,1.47l18.67-10.4
	l15.09-26.07l7-29l-3-28l-9-23l-14-14l-21-4l-31-44l-29-21l-30-11l-33-6l-40,5l-34,14l-27,24l-29,39l-22,5l-10,11l-12,29V738.79z"/>
<g>
	<path d="M504.83,340.61v-13.32c0-1.78-1.44-3.23-3.23-3.23h-33.12l1.59-14.09h40.76c7.34,0,13.32-6.54,13.32-14.58v-54.83
		c0-8.04-5.97-14.58-13.32-14.58h-111.1c-7.34,0-13.33,6.54-13.33,14.58v54.83c0,8.04,5.98,14.58,13.33,14.58h40.8l1.57,14.09
		h-33.12c-1.78,0-3.23,1.45-3.23,3.23v13.32c0,1.79,1.45,3.23,3.23,3.23h92.61C503.38,343.84,504.83,342.4,504.83,340.61z
		 M392.87,295.4v-54.83c0-4.47,3.08-8.11,6.87-8.11h111.1c3.79,0,6.87,3.64,6.87,8.11v54.83c0,4.48-3.08,8.12-6.87,8.12H467.2
		h-23.78h-43.68C395.95,303.52,392.87,299.88,392.87,295.4z M447.02,309.98h16.55l-1.59,14.09h-13.4L447.02,309.98z M498.37,337.39
		H412.2v-6.87h33.49h19.18h33.49V337.39z"/>
	<path d="M762.05,347.5V247.37c0-0.07-0.07-0.12-0.08-0.2c-0.07-0.43-0.26-0.8-0.5-1.19c-0.16-0.31-0.14-0.66-0.37-0.9l-32.9-32.69
		c-0.01-0.01-0.03,0-0.04-0.02c-0.55-0.54-1.27-0.78-2-0.82c-0.09,0-0.15-0.1-0.24-0.1h-65.16c-1.79,0-3.22,1.44-3.22,3.23V347.5
		c0,1.78,1.43,3.23,3.22,3.23h98.06C760.6,350.73,762.05,349.28,762.05,347.5z M751.03,244.35h-21.88v-21.87L751.03,244.35z
		 M663.98,344.27V217.92h58.71v29.66c0,1.77,1.45,3.22,3.23,3.22h29.67v93.47H663.98z"/>
	<rect x="680.3" y="254.69" width="58.97" height="6.46"/>
	<rect x="680.3" y="266.69" width="58.97" height="6.45"/>
	<rect x="680.3" y="278.7" width="58.97" height="6.45"/>
	<rect x="680.3" y="290.69" width="58.97" height="6.46"/>
	<rect x="680.3" y="302.68" width="58.97" height="6.45"/>
	<path d="M252.08,335.55V226.87c0-8.87-7.22-16.09-16.1-16.09h-66.45c-8.87,0-16.08,7.22-16.08,16.09v108.68
		c0,8.86,7.21,16.07,16.08,16.07h66.45C244.86,351.62,252.08,344.4,252.08,335.55z M159.9,335.55V226.87c0-5.31,4.32-9.61,9.63-9.61
		h66.45c5.31,0,9.65,4.3,9.65,9.61v108.68c0,5.3-4.33,9.62-9.65,9.62h-66.45C164.23,345.17,159.9,340.84,159.9,335.55z"/>
	<path d="M177.74,248.29c1.39,0,2.51-1.12,2.51-2.49v-16.42c0-1.39-1.12-2.51-2.51-2.51c-1.37,0-2.5,1.11-2.5,2.51v16.42
		C175.25,247.17,176.37,248.29,177.74,248.29z"/>
	<path d="M188.45,248.29c1.39,0,2.5-1.12,2.5-2.49v-16.42c0-1.39-1.11-2.51-2.5-2.51c-1.36,0-2.48,1.11-2.48,2.51v16.42
		C185.97,247.17,187.08,248.29,188.45,248.29z"/>
	<path d="M167.39,255.08h70.03c1.99,0,3.57-1.61,3.57-3.58c0-0.23-0.03-0.48-0.07-0.72h-77.03c-0.06,0.24-0.08,0.49-0.08,0.72
		C163.81,253.47,165.41,255.08,167.39,255.08z"/>
	<path d="M175.25,266.14v16.43c0,1.39,1.13,2.5,2.5,2.5c1.39,0,2.51-1.11,2.51-2.5v-16.43c0-1.38-1.12-2.5-2.51-2.5
		C176.37,263.64,175.25,264.76,175.25,266.14z"/>
	<path d="M185.97,266.14v16.43c0,1.39,1.12,2.5,2.48,2.5c1.39,0,2.5-1.11,2.5-2.5v-16.43c0-1.38-1.11-2.5-2.5-2.5
		C187.08,263.64,185.97,264.76,185.97,266.14z"/>
	<path d="M167.39,291.85h70.03c1.99,0,3.57-1.61,3.57-3.58c0-0.24-0.03-0.48-0.07-0.71h-77.03c-0.06,0.23-0.08,0.48-0.08,0.71
		C163.81,290.24,165.41,291.85,167.39,291.85z"/>
	<path d="M175.25,302.93v16.42c0,1.37,1.13,2.49,2.5,2.49c1.39,0,2.51-1.12,2.51-2.49v-16.42c0-1.4-1.12-2.51-2.51-2.51
		C176.37,300.43,175.25,301.53,175.25,302.93z"/>
	<path d="M185.97,302.93v16.42c0,1.37,1.12,2.49,2.48,2.49c1.39,0,2.5-1.12,2.5-2.49v-16.42c0-1.4-1.11-2.51-2.5-2.51
		C187.08,300.43,185.97,301.53,185.97,302.93z"/>
	<path d="M241,325.06c0-0.25-0.03-0.48-0.07-0.72h-77.03c-0.06,0.23-0.08,0.47-0.08,0.72c0,1.97,1.6,3.56,3.58,3.56h70.03
		C239.41,328.62,241,327.03,241,325.06z"/>
	<rect x="391.4" y="526.01" width="409.22" height="6.45"/>
	<path d="M1067.16,281.63c0-57.87-47.07-104.93-104.93-104.93c-57.85,0-104.93,47.07-104.93,104.93
		c0,56.73,45.28,102.97,101.6,104.75v202.58l-55.76,19.69V498.79c0-31.72-23.14-57.54-51.59-57.54H712.84v-54.89
		c56.15-1.97,101.23-48.13,101.23-104.74c0-57.87-47.07-104.93-104.92-104.93c-57.85,0-104.92,47.07-104.92,104.93
		c0,56.91,45.59,103.3,102.16,104.79v54.84H460.77V386.3c55.68-2.48,100.22-48.41,100.22-104.67c0-57.87-47.06-104.93-104.92-104.93
		c-57.87,0-104.92,47.07-104.92,104.93c0,57.25,46.13,103.88,103.16,104.83v54.8H321.9c-28.47,0-51.61,25.82-51.61,57.54v111.92
		l-61.58-21.75V386.25c55.2-2.97,99.22-48.7,99.22-104.62c0-57.87-47.07-104.93-104.92-104.93c-57.86,0-104.93,47.07-104.93,104.93
		c0,57.59,46.66,104.47,104.18,104.87v204.75c0,1.36,0.86,2.57,2.15,3.04l65.87,23.26v142.62c0,31.73,23.15,57.55,51.61,57.55
		h200.66c3.14,2.22,6.41,4.24,9.75,6.16c-62.92,16.47-111.18,54.28-124.03,101.75c-0.22,0.83-0.11,1.72,0.33,2.46
		c0.43,0.75,1.13,1.29,1.98,1.5c61.49,16.05,126.3,24.19,192.68,24.19c66.36,0,131.18-8.14,192.68-24.19
		c0.83-0.2,1.55-0.75,1.98-1.5c0.43-0.74,0.55-1.63,0.32-2.46c-13.56-50.15-66.64-89.42-134.77-104.27
		c1.94-1.21,3.94-2.33,5.81-3.65h182.28c28.45,0,51.59-25.81,51.59-57.55V615.5l60.06-21.21c1.29-0.47,2.15-1.68,2.15-3.04V386.39
		C1021.76,384.72,1067.16,338.42,1067.16,281.63z M706.38,379.95c-53.01-1.49-95.71-44.97-95.71-98.32
		c0-54.3,44.17-98.48,98.47-98.48c54.3,0,98.47,44.17,98.47,98.48c0,53.04-42.2,96.31-94.78,98.28L706.38,379.95z M454.32,379.99
		c-53.48-0.94-96.71-44.67-96.71-98.37c0-54.3,44.17-98.48,98.47-98.48c54.3,0,98.47,44.17,98.47,98.48
		c0,52.7-41.66,95.74-93.76,98.22L454.32,379.99z M104.53,281.63c0-54.3,44.17-98.48,98.48-98.48c54.3,0,98.47,44.17,98.47,98.48
		c0,54.28-44.17,98.45-98.47,98.45C148.7,380.08,104.53,335.9,104.53,281.63z M791.1,924.19c-60,15.36-123.18,23.14-187.84,23.14
		c-64.67,0-127.84-7.78-187.84-23.14c18.42-59.81,96.66-102.87,187.84-102.87C694.43,821.33,772.68,864.39,791.1,924.19z
		 M603.26,814.86c-21.48,0-42.2,2.46-61.72,6.84c-17.03-8.56-31.75-20.99-42.98-36.08c2.67-3.13,5.1-6.72,7.22-10.83
		c7.27-14.1,10.31-32.17,8.56-50.88c-2.02-21.43-9.96-40.64-21.9-53.12c17.48-42.11,57.91-69.2,103.56-69.2
		c45.66,0,86.06,27.09,103.57,69.21c-11.97,12.52-19.91,31.73-21.9,53.11c-1.74,18.71,1.3,36.77,8.58,50.88
		c2.06,4,4.42,7.51,6.98,10.6c-10.36,13.96-23.71,25.67-38.99,34.03C637.91,816.46,620.82,814.86,603.26,814.86z M447.17,780.78
		c-10.21-11.02-17.68-28.6-19.55-48.77c-1.64-17.49,1.15-34.31,7.87-47.33c6.47-12.55,15.79-20,26.24-20.97
		c2.82-0.26,5.61-0.04,8.44,0.65c1.51,0.37,3.11-0.43,3.73-1.88c3.73-8.85,8.37-17.11,13.73-24.76h0.86v-1.27
		c24.56-34.21,64.24-55.15,107.51-55.15c53.41,0,101.34,31.86,122.1,81.18c0.63,1.46,2.18,2.23,3.74,1.88
		c2.84-0.69,5.64-0.9,8.44-0.65c12.36,1.15,22.57,11.21,28.62,26.05v0.59h0.23c4.63,11.66,6.71,26.18,5.27,41.66
		c-1.88,20.15-9.42,37.74-19.64,48.77h-0.08v0.07c-7.74,8.32-16.98,12.9-26.49,11.95c-10.42-0.98-19.75-8.42-26.22-20.97
		c-6.72-13.03-9.51-29.83-7.88-47.32c1.89-20.49,9.93-39.41,21.51-50.64c0.93-0.91,1.22-2.29,0.75-3.51
		c-18.01-45.69-61.34-75.24-110.36-75.24c-49.02,0-92.33,29.55-110.35,75.24c-0.48,1.22-0.18,2.6,0.76,3.51
		c11.54,11.19,19.58,30.11,21.51,50.64c1.63,17.49-1.17,34.29-7.88,47.32c-6.47,12.55-15.79,19.99-26.25,20.97
		c-8.52,0.81-16.77-2.69-23.89-9.29l-1.8-1.72L447.17,780.78z M765.86,690.35h34.75v-6.45h-37.45
		c-7.21-15.12-18.63-25.34-32.29-26.62c-2.63-0.25-5.22-0.15-7.87,0.26c-3.09-6.98-6.76-13.58-10.84-19.83h88.45v-6.45h-92.85
		c-15.26-20.72-35.91-36.59-59.49-46.17h152.35v-6.45H628.12c-10.37-2.46-21.13-3.8-32.12-3.8c-10.99,0-21.73,1.34-32.1,3.8H391.4
		v6.45h152.35c-23.57,9.58-44.22,25.45-59.5,46.17H391.4v6.45h88.44c-4.08,6.25-7.74,12.85-10.85,19.83
		c-2.62-0.41-5.23-0.51-7.85-0.26c-12.73,1.18-23.87,9.87-31.39,24.45c-0.35,0.67-0.56,1.47-0.89,2.17H391.4v6.45h34.79
		c-4.56,12.54-6.42,27.14-5,42.25c1.79,19.17,8.5,36.13,17.91,48.18H328.06c-12.51,0-22.69-10.18-22.69-22.69V500.87
		c0-12.5,10.18-22.69,22.69-22.69h517.27c12.52,0,22.7,10.18,22.7,22.69v257.22c0,12.51-10.18,22.69-22.7,22.69h-92.31
		c9.35-12.07,16.03-29.05,17.81-48.18C772.28,717.13,770.31,702.54,765.86,690.35z M896.22,760.17c0,27.91-20.03,50.64-44.67,50.64
		H678.11c7.31-6.15,13.88-13.13,19.63-20.75c5.86,5.28,12.59,8.49,19.87,9.17c0.98,0.09,1.96,0.12,2.94,0.12
		c9.43,0,18.46-4.3,26.25-11.65h98.53c16.34,0,29.61-13.29,29.61-29.61V500.87c0-16.33-13.28-29.61-29.61-29.61H328.06
		c-16.33,0-29.6,13.28-29.6,29.61v257.22c0,16.32,13.28,29.61,29.6,29.61h117.35c8.57,8.04,18.61,12.44,28.97,11.53
		c7.19-0.68,13.84-3.8,19.64-8.97c5.67,7.5,12.03,14.46,19.23,20.55H321.9c-24.65,0-44.7-22.72-44.7-50.64V498.79
		c0-27.91,20.05-50.62,44.7-50.62h529.65c24.64,0,44.67,22.71,44.67,50.62V760.17z M962.23,380.08c-54.3,0-98.48-44.17-98.48-98.45
		c0-54.3,44.17-98.48,98.48-98.48c54.3,0,98.48,44.17,98.48,98.48C1060.71,335.9,1016.53,380.08,962.23,380.08z"/>
	<path d="M984.25,202.78h-55.56c-8.11,0-14.7,6.6-14.7,14.71v126.44c0,8.1,6.6,14.71,14.7,14.71h55.56c8.13,0,14.7-6.61,14.7-14.71
		V217.49C998.95,209.38,992.38,202.78,984.25,202.78z M992.5,343.93c0,4.56-3.71,8.25-8.26,8.25h-55.56c-4.54,0-8.25-3.7-8.25-8.25
		V217.49c0-4.56,3.71-8.26,8.25-8.26h55.56c4.55,0,8.26,3.7,8.26,8.26V343.93z"/>
	<path d="M984.25,213.63h-55.56c-1.78,0-3.85,1.93-3.85,3.71v94.16c0,1.8,2.07,3.7,3.85,3.7h55.56c1.79,0,3.84-1.91,3.84-3.7v-94.16
		C988.09,215.56,986.04,213.63,984.25,213.63z M981.64,308.75h-50.37v-88.66h50.37V308.75z"/>
	<path d="M956.48,320.41c-7.51,0-13.61,6.11-13.61,13.61c0,7.51,6.1,13.63,13.61,13.63c7.5,0,13.6-6.11,13.6-13.63
		C970.08,326.52,963.98,320.41,956.48,320.41z M956.48,341.18c-3.95,0-7.16-3.23-7.16-7.16c0-3.94,3.22-7.15,7.16-7.15
		c3.95,0,7.16,3.21,7.16,7.15C963.63,337.95,960.42,341.18,956.48,341.18z"/>
</g>
</svg>
