<?xml version="1.0" encoding="utf-8"?>
<!-- Generator: Adobe Illustrator 24.0.2, SVG Export Plug-In . SVG Version: 6.00 Build 0)  -->
<svg version="1.1" id="Layer_1" xmlns="http://www.w3.org/2000/svg" xmlns:xlink="http://www.w3.org/1999/xlink" x="0px" y="0px"
	 viewBox="0 0 1139.65 953.37" style="enable-background:new 0 0 1139.65 953.37;" xml:space="preserve">
<style type="text/css">
	.st0{fill:#007291;}
	.st1{fill:#00A5DC;}
	.st2{fill:#303591;}
</style>
<rect x="112.09" y="446.79" class="st0" width="273" height="111"/>
<rect x="756.09" y="462.79" class="st0" width="275" height="80"/>
<rect x="429.09" y="832.79" class="st1" width="274" height="95"/>
<polygon class="st2" points="375.09,319.79 566.09,224.79 772.49,319.79 566.09,419.79 "/>
<g>
	<g>
		<path d="M565.79,431.09c-2.28,0-4.55-0.48-6.66-1.46l-206.7-95.4c-5.64-2.61-9.24-8.25-9.24-14.44s3.6-11.83,9.24-14.44
			l197.46-91.13v-85.23h31.8v85.23l197.46,91.13c5.64,2.61,9.24,8.25,9.24,14.44s-3.6,11.83-9.24,14.44l-206.7,95.4
			C570.34,430.61,568.07,431.09,565.79,431.09z M397.03,319.79l168.76,77.88l168.76-77.88l-168.76-77.88L397.03,319.79z"/>
	</g>
	<g>
		<path d="M899.69,446.99h-31.8v-111.3h-95.4v-31.8h111.3c8.78,0,15.9,7.11,15.9,15.9V446.99z"/>
	</g>
	<g>
		<path d="M263.69,446.99h-31.8v-127.2c0-8.79,7.12-15.9,15.9-15.9h111.3v31.8h-95.4V446.99z"/>
	</g>
	<g>
		<path d="M883.79,717.29h-636c-8.78,0-15.9-7.11-15.9-15.9v-143.1h31.8v127.2h604.2v-127.2h31.8v143.1
			C899.69,710.18,892.57,717.29,883.79,717.29z"/>
	</g>
	<g>
		<rect x="549.89" y="701.39" width="31.8" height="127.2"/>
	</g>
	<g>
		<path d="M708.89,144.89h-286.2c-8.78,0-15.9-7.11-15.9-15.9V17.69c0-8.79,7.12-15.9,15.9-15.9h286.2c8.78,0,15.9,7.11,15.9,15.9
			v111.3C724.79,137.78,717.67,144.89,708.89,144.89z M438.59,113.09h254.4v-79.5h-254.4V113.09z"/>
	</g>
	<g>
		<path d="M390.89,574.19h-286.2c-8.78,0-15.9-7.11-15.9-15.9v-111.3c0-8.79,7.12-15.9,15.9-15.9h286.2c8.78,0,15.9,7.11,15.9,15.9
			v111.3C406.79,567.08,399.67,574.19,390.89,574.19z M120.59,542.39h254.4v-79.5h-254.4V542.39z"/>
	</g>
	<g>
		<path d="M708.89,955.79h-286.2c-8.78,0-15.9-7.11-15.9-15.9v-111.3c0-8.79,7.12-15.9,15.9-15.9h286.2c8.78,0,15.9,7.11,15.9,15.9
			v111.3C724.79,948.68,717.67,955.79,708.89,955.79z M438.59,923.99h254.4v-79.5h-254.4V923.99z"/>
	</g>
	<g>
		<path d="M1026.89,574.19h-286.2c-8.78,0-15.9-7.11-15.9-15.9v-111.3c0-8.79,7.12-15.9,15.9-15.9h286.2c8.78,0,15.9,7.11,15.9,15.9
			v111.3C1042.79,567.08,1035.67,574.19,1026.89,574.19z M756.59,542.39h254.4v-79.5h-254.4V542.39z"/>
	</g>
</g>
</svg>
