<?xml version="1.0" encoding="utf-8"?>
<!-- Generator: Adobe Illustrator 24.0.2, SVG Export Plug-In . SVG Version: 6.00 Build 0)  -->
<svg version="1.1" id="Layer_1" xmlns="http://www.w3.org/2000/svg" xmlns:xlink="http://www.w3.org/1999/xlink" x="0px" y="0px"
	 viewBox="0 0 1139.65 953.37" style="enable-background:new 0 0 1139.65 953.37;" xml:space="preserve">
<style type="text/css">
	.st0{fill:#007291;}
	.st1{fill:#00A5DC;}
</style>
<rect x="119.09" y="107.79" class="st0" width="814" height="131"/>
<rect x="209.09" y="17.79" class="st1" width="822" height="84"/>
<rect x="943.09" y="82.79" class="st1" width="99" height="760"/>
<g>
	<g>
		<path d="M937.69,953.79h-826.8c-8.78,0-15.9-7.12-15.9-15.9v-826.8c0-8.78,7.12-15.9,15.9-15.9h826.8c8.78,0,15.9,7.12,15.9,15.9
			v826.8C953.59,946.67,946.47,953.79,937.69,953.79z M126.79,921.99h795v-795h-795V921.99z"/>
	</g>
	<g>
		<path d="M1033.09,858.39h-95.4c-8.78,0-15.9-7.12-15.9-15.9v-715.5h-715.5c-8.78,0-15.9-7.12-15.9-15.9v-95.4
			c0-8.78,7.12-15.9,15.9-15.9h826.8c8.78,0,15.9,7.12,15.9,15.9v826.8C1048.99,851.27,1041.87,858.39,1033.09,858.39z
			 M953.59,826.59h63.6v-795h-795v63.6h715.5c8.78,0,15.9,7.12,15.9,15.9V826.59z"/>
	</g>
	<g>
		<rect x="110.89" y="222.39" width="826.8" height="31.8"/>
	</g>
	<g>
		<rect x="158.59" y="158.79" width="31.8" height="31.8"/>
	</g>
	<g>
		<rect x="222.19" y="158.79" width="31.8" height="31.8"/>
	</g>
	<g>
		<rect x="285.79" y="158.79" width="31.8" height="31.8"/>
	</g>
	<g>
		<path d="M274.55,424.43l-47.7-47.7c-6.21-6.21-6.21-16.27,0-22.48l47.7-47.7l22.48,22.48l-36.46,36.46l36.46,36.46L274.55,424.43z
			"/>
	</g>
	<g>
		<path d="M424.23,424.43l-22.48-22.48l36.46-36.46l-36.46-36.46l22.48-22.48l47.7,47.7c6.21,6.21,6.21,16.27,0,22.48L424.23,424.43
			z"/>
	</g>
	<g>
		<rect x="317.59" y="397.29" width="63.6" height="31.8"/>
	</g>
	<g>
		<rect x="253.99" y="476.79" width="79.5" height="31.8"/>
	</g>
	<g>
		<rect x="365.29" y="476.79" width="397.5" height="31.8"/>
	</g>
	<g>
		<rect x="253.99" y="540.39" width="79.5" height="31.8"/>
	</g>
	<g>
		<rect x="365.29" y="540.39" width="397.5" height="31.8"/>
	</g>
	<g>
		<rect x="253.99" y="603.99" width="79.5" height="31.8"/>
	</g>
	<g>
		<rect x="365.29" y="603.99" width="397.5" height="31.8"/>
	</g>
	<g>
		<rect x="253.99" y="667.59" width="79.5" height="31.8"/>
	</g>
	<g>
		<rect x="365.29" y="667.59" width="397.5" height="31.8"/>
	</g>
	<g>
		<path d="M274.55,869.63l-47.7-47.7c-6.21-6.21-6.21-16.27,0-22.48l47.7-47.7l22.48,22.48l-36.46,36.46l36.46,36.46L274.55,869.63z
			"/>
	</g>
	<g>
		<rect x="335.52" y="794.73" transform="matrix(0.438 -0.899 0.899 0.438 -510.3892 804.8116)" width="106" height="31.8"/>
	</g>
	<g>
		<path d="M487.83,869.63l-22.48-22.48l36.46-36.46l-36.46-36.46l22.48-22.48l47.7,47.7c6.21,6.21,6.21,16.27,0,22.48L487.83,869.63
			z"/>
	</g>
</g>
</svg>
