<svg xmlns="http://www.w3.org/2000/svg" xmlns:xlink="http://www.w3.org/1999/xlink" fill-rule="evenodd" stroke-miterlimit="10" clip-rule="evenodd" viewBox="0 0 1200 1000">
<style>
/* <![CDATA[ */
svg|a {
  cursor: pointer;
  outline: none;
  -webkit-tap-highlight-color: rgba(0,0,0,0);
  -webkit-tap-highlight-color: transparent;
}
/* ]]> */
</style>
<defs>
<linearGradient id="lnr1" x1="0" x2="1" y1="0" y2="0" gradientTransform="matrix(85 0 0 82.1971 53.5 264)" gradientUnits="userSpaceOnUse">
  <stop offset="0"/>
  <stop offset="1" stop-color="#fff"/>
</linearGradient>
<linearGradient id="lnr2" x1="0" x2="1" y1="0" y2="0" gradientTransform="matrix(0 -85 68.992 0 994 686)" gradientUnits="userSpaceOnUse">
  <stop offset="0"/>
  <stop offset="1" stop-color="#fff"/>
</linearGradient>
<mask id="msk">
<rect width="1200" height="1000"/>
<path fill="#fff" fill-rule="nonzero" d="M959.4 627.8h69.2v-185c0-10.8-8.7-19.5-19.5-19.5h-1.9l-3-.2-172.3.2h-3.4a19.5 19.5 0 00-19.5 19.5v143.1h-53.5V358.6c0-11.7-9.6-21.2-21.2-21.2H591.2a22.8 22.8 0 00-19 10.2c-2.5 3.7-4 8.1-4 12.8v307.5H411.6V245.7l-.2-2.9v-1.3c0-10.2-8.3-18.5-18.5-18.5h-1.3l-2.9-.2h-40.1l-2.9.2H128.2v82h197.5v416.4a23 23 0 0023 22.9h275.1a23 23 0 0022.9-22.9V419.5H675v225.2c0 11.7 9.6 21.2 21.2 21.2h163a22 22 0 0021.6-18.3c.3-1.5.5-3 .5-4.6V503.5h78.1v124.3z"/>
<rect width="85" height="82.2" x="53.5" y="222.9" fill="url(#lnr1)"/>
<path fill="url(#lnr2)" d="M959.6 601v85h69v-85h-69z"/>
</mask>
<g id="el1" fill-rule="nonzero">
<path fill="#fff" stroke="#303591" stroke-width="1.7" d="M71.7 47.7H12.5C5.5 47.7 0 42 0 35.2V12.5C0 5.5 5.7 0 12.5 0h59.2c7 0 12.5 5.7 12.5 12.5v22.7c0 6.8-5.5 12.5-12.5 12.5z"/>
  <g fill="#303591">
    <path d="M9.1 25.6v-5.3l18.7-8.2v5.5l-13 5.3 13.1 5.4v5.5L9.1 25.6z"/>
    <path d="M47.4 5.6h5L35.2 41.5h-5L47.4 5.6z"/>
    <path d="M55.2 28.3l13.1-5.4-13.1-5.4V12l18.7 8.2v5.3l-18.7 8.2v-5.4z"/>
  </g>
</g>
<g id="el2">
  <path fill="#fff" fill-rule="nonzero" stroke="#303591" stroke-width="1.8" d="M25.9 0c-11 0-20 9.6-20 21.6h4.7C10.6 12.5 17.4 5 25.9 5s15.3 7.4 15.3 16.6h4.7C45.8 9.5 36.9 0 25.9 0z"/>
  <path fill="#fff" fill-rule="nonzero" stroke="#303591" stroke-width="1.8" d="M46.2 61.7H5.7C3.2 61.7 1 59.6 1 57V23.7C1 21.2 3.1 19 5.7 19h40.5c2.5 0 4.7 2.1 4.7 4.7V57c0 2.8-2.1 4.7-4.7 4.7z"/>
  <path fill="#303591" fill-rule="nonzero" d="M32.6 52.6l-4.2-15.3c1.3-.8 2.1-2.3 2.1-4 0-2.8-2.1-4.9-4.9-4.9-2.8 0-4.9 2.1-4.9 4.9 0 1.9 1.1 3.4 2.5 4.2l-4 15.1h13.4z"/>
</g>
</defs>
<g id="bg">
  <path fill="#b2b2b2" fill-rule="nonzero" d="M1100.6 666.7c-6.4 3.4-12.7 7-19.1 10.4-.6.2-1.3.6-1.5 1.3-.2.6.2 1.5.6 2.1 4.7 6.2 11 11.5 18.9 13.8 7.9 2.3 17.2 1.3 23.1-4 2.3-1.9 4-4.7 6.8-5.9 2.1-1.1 4.5-1.5 7-1.7 12.9-1.7 26.1-3 39.1-4-7.4-.4-14.6-2.1-21.2-5.1-3.4-1.5-6.6-3.4-10.2-4.9-7.9-3-16.8-3-25.5-3-6.2 0-12.5 0-18.7 1.3"/>
  <path fill="#303591" fill-rule="nonzero" d="M313.6 182.4c-2.1 0-4.2.4-6.2 1.3-4.9-7.6-12.7-13.6-22.1-16.6-.8-22.5-21-40.3-45.8-40.3-20 0-37.1 11.7-43.3 28.2-3-2.1-6.4-3.4-10.2-3.4-7.4 0-13.6 4.7-16.3 11.5h-2.5c-20.6 0-37.6 16.1-37.6 36.5 0 2.3.2 6.6.6 6.6h200.5c.4 0 .6-3.2.6-4.9.1-10.8-8-18.9-17.7-18.9z"/>
  <path fill="#8c9ed0" fill-rule="nonzero" d="M1108.8 713.6h-80.2V442.8c0-10.8-8.7-19.5-19.5-19.5h-1.9c-1-.1-2-.2-3-.2l-172.3.2h-3.4c-10.8 0-19.5 8.7-19.5 19.5v143.1h-53.5V358.6c0-11.7-9.6-21.2-21.2-21.2H591.2c-4.7 0-9.1 1.5-12.8 4-2.4 1.7-4.6 3.8-6.2 6.2-2.5 3.7-4 8.1-4 12.8v307.5H411.6V245.7c0-1-.1-2-.2-2.9v-1.3c0-10.2-8.3-18.5-18.5-18.5h-1.3c-1-.1-1.9-.2-2.9-.2h-40.1c-1 0-2 .1-2.9.2H46.2c-10.2 0-18.5 8.3-18.5 18.5v45c0 10.2 8.3 18.5 18.5 18.5h279.5v416.4c0 8.6 4.9 16.2 12.1 20.1 3.2 1.8 7 2.8 10.9 2.8h275.1c12.5 0 22.9-10.4 22.9-22.9V419.5H675v225.2c0 11.7 9.6 21.2 21.2 21.2h163c10.9 0 20-8.1 21.6-18.3.3-1.5.5-3 .5-4.6V503.5h78.1v252.3c0 11.5 9.3 20.8 20.8 20.8h128.4c11.5 0 21-9.3 20.8-20.8v-21.4c.2-11.4-9.1-20.8-20.6-20.8z"/>
  <path fill="#b2b2b2" fill-rule="nonzero" d="M108.6 541.9c17.8 5.7 36.7 7.9 55.6 10.2-18.3 1.9-36.9 2.8-55.4 3-1.5 0-3.6.4-3.6 1.7 0 .6.6 1.3 1.3 1.7 7 5.5 16.3 8.9 25.9 10.8 9.6 2.1 19.3 3 29.1 4.2 1.1.2 2.5.4 3 1.3-15.7 4.5-33.1 3.6-49.9 2.8-21.2-1.1-42.4-2.1-63.9-3.2-2.5-.2-5.7-.8-5.7-3 0-.6.4-1.1.8-1.7 3.6-4.7 10.2-7.2 15.5-10.4 1.3-.8 2.3-1.7 3-2.8.6-1.1.4-2.5-.6-3.4-.8-.6-2.1-.8-3.2-1.3-1.9-1.1-1.3-3.6.4-4.9 1.7-1.3 4-1.5 6.4-1.9 9.3-1.1 18.5-2.3 27.8-3.4 4.7-.6 9.6-1.1 14.2 0"/>
  <g fill-rule="nonzero">
    <path fill="#fff" stroke="#303591" stroke-width="2.14" d="M112.8 386.2h74.5c8.7 0 15.7-7 15.7-15.7V342c0-8.7-7-15.7-15.7-15.7h-74.5c-8.7 0-15.7 7-15.7 15.7v28.4c-.2 8.5 7 15.8 15.7 15.8z"/>
    <g fill="#303591">
      <path d="M167.9 368.7v-7l16.5-6.8-16.5-6.8v-6.9l23.6 10.3v6.7l-23.6 10.5z"/>
      <path d="M164.9 378.4h-6.3L137 333.3h6.3l21.6 45.1z"/>
      <path d="M133.5 368.7l-23.6-10.3v-6.7l23.6-10.3v7l-16.5 6.8 16.5 6.8v6.7z"/>
    </g>
  </g>
  <path fill="#c1976b" fill-rule="nonzero" d="M179.9 379.2c2.5 2.3 3.4 2.8 6.2 5.5.4.4 1.1 1.1 1.1 1.7.2.6 0 1.5-.6 1.7-.4.2-.8 0-1.5 0-.8-.2-1.5-.8-2.3-1.1-.8-.2-1.7-.2-2.3.4-1.1 1.3.4 4-1.1 4.7-1.3.4-2.3-1.5-3.8-1.7-1.1 0-1.7 1.1-1.9 1.9-.2.8-.2 1.9-.6 2.8-1.5-.2-2.1-2.5-3.4-2.1-.6.2-.8.6-1.3 1.3-.4.4-1.3.8-1.7.4-.2-.2-.2-.4-.2-.6-.6-3.4-1.1-7-1.3-10.4 0-1.1 0-2.1.6-2.8 1.1.4 2.1 2.3 2.5 3.6.8-1.1.2-3 .8-4.2 1.5.2 3 1.3 3.6 2.5.8-.4.4-1.5 0-2.3-.4-.8-1.1-1.7-.6-2.3 1.5-.4 3 2.1 4.2 3.4-.4-1.7-1.1-3.2-1.5-4.9 1.7-1.2 4.2 1.8 5.1 2.5"/>
  <path fill="#221f1f" fill-rule="nonzero" d="M179.7 379.4c2.1 2.1 4.5 4 6.4 6.4.2.4.6.8.6 1.5-.2.8-1.3.4-1.9.2-.6-.2-1.3-.6-1.9-.8-1.1-.2-2.3 0-2.8 1.1-.6 1.1-.2 2.1-.2 3.2-.2 1.9-2.1 0-2.8-.4-.8-.4-1.9-.4-2.8.4-1.1 1.3-.8 3-1.3 4.5.2-.2.4-.2.6-.4-1.3-.2-1.7-1.7-2.8-2.1-.4-.2-.8 0-1.3.2-.6.2-1.5 2.1-2.1 1.3-.2-.2-.2-1.3-.2-1.5 0-.6-.2-1.1-.2-1.7-.2-1.1-.2-2.1-.4-3.2s-.2-2.3-.2-3.4-.2-2.3.4-3.2h-.6c1.1.6 1.9 2.1 2.5 3.4.2.2.6.4.8 0 .6-1.3.2-3 .8-4.2-.2 0-.4.2-.6.2 1.5.2 2.8 1.1 3.4 2.3.2.2.4.2.6 0 1.9-1.5-.8-3.4-.4-4.9l-.4.4c1.5-.2 3 2.3 3.8 3.2.4.2.8 0 .8-.4-.4-1.7-1.1-3.2-1.5-4.9 0 .2 0 .4-.2.4.9-.8 3.4 2.2 3.9 2.4.4.4 1.1-.2.6-.6-1.1-1.1-3.4-4.2-5.1-2.8-.2 0-.2.4-.2.4.4 1.7 1.1 3.2 1.5 4.9.2-.2.4-.2.8-.4-1.3-1.3-2.8-3.8-4.9-3.4-.2 0-.2.2-.4.4-.2.6-.2 1.3.2 1.9.4.6 1.3 1.9.4 2.8h.6c-.8-1.5-2.3-2.5-4-2.8-.2 0-.4 0-.6.2-.6 1.3-.2 3-1.1 4.2h.8c-.6-1.3-1.5-3-2.8-3.8-.2-.2-.4 0-.6 0-1.5 1.5-.8 4.2-.6 6.2.2 2.5.4 5.3 1.3 7.9.4 1.7 2.1 1.1 3 0 1.1-1.1 1.5-.4 2.3.4.4.4 1.1 1.1 1.7 1.1.2 0 .4 0 .6-.4.4-1.3.4-5.5 2.8-4 .8.6 1.7 1.5 2.8 1.3 1.1-.2 1.5-1.3 1.3-2.3 0-.6-.2-1.3 0-1.9.2-1.3 1.5-1.1 2.5-.6 1.1.4 2.8 1.7 3.8.6 1.1-.8.6-2.3 0-3.4-1.9-2.3-4.5-4.5-7-6.2.5-.4.1.1.3.3z"/>
  <path fill="#c1976b" fill-rule="nonzero" d="M150.2 372.4c-.6-1.9-2.1-3.2-3.6-4.7-1.1-1.1-2.5-2.3-2.3-3.8 1.5-.4 3.2 1.7 4 .6.2-.2.2-.8.4-1.1.2-2.5.2-5.1.4-7.6 0-1.7.4-3 1.9-3.8-.2 3.8.4 6.8 1.5 10.4 1.1-.6 1.1-2.1 1.1-3.2 0-2.5-.4-6.8 2.1-8.1 1.3 3.4.6 8.1 1.3 11.5.6-2.3 1.3-4.9 1.9-7.2.2-.8.8-1.9 1.5-1.7 1.1.2.8 1.7.2 2.8-1.1 2.1-1.5 4.2-1.9 6.4 0 .6.2 1.5.8 1.5.2 0 .4-.2.6-.4 1.3-1.7 2.5-3.2 3.8-4.9 1.1.2 1.5 1.5 1.3 2.5-.2 1-.8 1.9-1.5 2.5-2.3 3-4.2 6.2-5.5 9.8-.2.8-.6 1.5-1.3 2.1-.8.6-1.9 1.1-3 .8-2-.4-3.5-2.3-3.7-4.4"/>
  <path fill="#221f1f" fill-rule="nonzero" d="M150.8 372.1c-.6-1.7-1.5-3-2.8-4-1.1-1.1-3.2-2.3-3-4.2-.2.2-.4.6-.6.8 1.3-.2 2.1 1.1 3.4.8 1.3-.2 1.5-1.5 1.5-2.3.2-1.9.2-4 .4-5.9 0-1.7 0-3.6 1.5-4.7-.4-.2-.8-.4-1.1-.6 0 3.6.4 7 1.5 10.6.2.4.6.6 1.1.4 1.7-1.1 1.5-3.4 1.5-5.3s-.4-4.9 1.7-6.2c-.4-.2-.6-.2-1.1-.4 1.5 3.6.8 7.6 1.3 11.5 0 .6 1.1.6 1.3 0 .4-1.3.8-2.8 1.1-4 .2-.8.6-3.8 1.5-4 .4-.2.4 0 .4.4s-.2.6-.2.8c-.2.4-.4.8-.6 1.5-.4 1.3-.8 2.5-1.1 3.8-.2 1.1-.6 3.8 1.3 3.6 1.1 0 1.7-1.5 2.3-2.1.8-1.1 1.7-2.1 2.8-3.4-.2 0-.4.2-.6.2 2.3 1.1-1.3 4.5-1.9 5.5-1.3 1.7-2.3 3.6-3.4 5.5-.8 1.7-1.5 4.9-3.4 5.1-2.7.7-4.4-1.4-4.8-3.4-.2-.6-1.3-.4-1.3.2-.2 2.5 1.9 4.9 4.5 5.1 1.3.2 2.5 0 3.4-.8 1.1-1.1 1.5-2.8 2.1-4 1.5-3.2 3.2-5.9 5.3-8.7 1.3-1.7 1.9-4.5-.6-5.5-.2 0-.4 0-.6.2-.8 1.3-1.9 2.3-2.8 3.6-.2.2-1.1 1.5-1.1 1.5-.2 0 .2-2.1.2-2.1.2-1.5.6-3 1.3-4.2.4-.8.6-1.7.6-2.5-.2-1.7-2.1-1.9-3-.4-.6 1.1-.8 2.5-1.3 3.6-.4 1.7-.8 3.2-1.3 4.9h1.3c-.6-3.8-.2-7.6-1.3-11.5-.2-.4-.6-.6-1.1-.4-1.9.8-2.3 3-2.3 4.7v3.2c0 1.1.2 2.8-.6 3.4.4.2.6.2 1.1.4-1.1-3.4-1.7-6.8-1.5-10.2 0-.6-.6-.8-1.1-.6-2.8 1.5-2.3 4.7-2.5 7.4 0 .8.2 5.3-.6 5.5-.4 0-1.3-.6-1.5-.6-.6-.2-1.1-.4-1.7-.4-.4 0-.8.4-.8.8-.2 1.7 1.1 3 2.1 4 1.5 1.5 3.2 2.8 4 4.7.2 0 1.5-.4 1.1-1.3z"/>
  <path fill="#603917" fill-rule="nonzero" d="M116.8 530.9c-.8-.4 3.8 5.3 3.8 6.4.2 3.8 1.5 7.6 4.9 9.8 3.4 1.9 7.9 3.2 11.7 3.4-7.9.8-17 .4-24.4 0-2.8-.2-6.8-.4-9.8-.2-1.1.2-1.1-.4-2.1-1.3-.4-.4-.2-1.3-.4-1.9-1.7-5.1-.6-10.6 2.5-15.1 2.5-3.4-.6-7.6 3.6-7.2 4.2.4 10.4 2.1 10 6.4"/>
  <path fill="#221f1f" fill-rule="nonzero" d="M117.1 530.7c-.4-.2-.6.2-.6.4 0 .6.8 1.5 1.1 2.1.6 1.1 1.3 1.9 1.9 3 .6 1.1.6 2.1.8 3.4.6 3.4 2.3 6.4 5.5 8.1 3.4 1.9 7.4 3.2 11.5 3.2v-1.5c-5.7.4-11.5.4-17 .2-5.3-.2-10.4-.8-15.7-.6-.4 0-1.3.2-1.7 0-.4-.2-1.1-.8-1.3-1.1-.2-.4-.2-1.1-.2-1.5-.2-.8-.4-1.5-.6-2.3-.4-2.8 0-5.5.8-7.9.8-2.1 2.8-4 3.2-6.4.2-.8.2-1.7.2-2.3 0-.6-.2-1.7.4-1.9.8-.4 2.3 0 3.2.2 1.1.2 2.1.4 3.2.8 2.1.8 4 2.1 4 4.5 0 .8 1.3.8 1.5 0 .4-4.7-5.5-6.4-9.1-7-1.5-.2-3.8-.6-4.7 1.3-.2.8-.2 1.7-.2 2.3 0 1.5-.2 2.5-1.1 3.8-1.7 2.5-3 5.1-3.4 8.1-.2 1.5-.2 3 0 4.5s.6 2.8.8 4.2c.2.8.8 1.7 1.7 2.3 1.1.6 2.5.2 3.6.2 3 0 6.2.2 9.1.4 7.6.4 15.3.6 22.7-.2.8 0 .8-1.5 0-1.5-3.6 0-7.2-.8-10.4-2.5-3-1.5-4.9-4-5.5-7.4-.2-1.1 0-2.1-.4-3-.2-.6-.8-1.3-1.3-1.9-.4-.8-1.1-1.5-1.7-2.3-.2-.2-.4-.6-.6-.8l-.2-.4c0-.2-.2 0-.4.4.9-.3 1.1-.7.9-.9z"/>
  <path fill="#282560" fill-rule="nonzero" d="M123.4 450.9c2.1-1.1 10.2 2.1 11.2 4s.6 4.5.2 6.6c-3.8 17.4-13.6 33.5-16.8 51.1-.8 5.3-.4 7.4 0 12.7.4 5.7 1.9 10.8 4 15.1-10.6 1.3-10.6-2.1-21-.8-.4 0-1.1.2-1.5-.2-.4-.2-.6-.8-.8-1.3-5.9-18.5-3.4-39.3 7.2-55.8"/>
  <path fill="#221f1f" fill-rule="nonzero" d="M123.4 451.3c1.7-.6 4.5.4 6.2 1.1 1.9.8 4.5 1.9 4.9 4.2.4 1.7 0 3.4-.4 5.1-.4 1.9-.8 3.8-1.5 5.7-1.1 3.6-2.3 7-3.6 10.6-2.5 6.8-5.5 13.6-7.9 20.6-2.1 6.4-4.5 13.4-4.2 20.2.2 7.4 1.3 15.1 4.7 21.9.2-.4.4-.6.6-1.1-2.5.2-4.9.4-7.4.2-1.7-.2-3.4-.6-4.9-.8-2.1-.4-4.2-.4-6.4-.2-.6 0-1.3 0-1.9.2-1.1.2-1.7.2-2.1-.8-.6-1.3-.8-2.8-1.3-4.2-2.8-11-2.5-22.5.4-33.5 1.7-6.2 4.2-12.1 7.9-17.6.4-.8-.8-1.7-1.3-.8-6.4 10.2-10 22.1-10.4 34-.2 5.9.4 12.1 1.9 17.8.4 1.5.6 2.8 1.3 4.2.2.8.6 1.9 1.5 2.3 1.3.4 2.8 0 4 0 1.2 0 2.8-.2 4 0 2.1.2 4 .6 6.2 1.1 2.8.4 5.7.4 8.5 0 .6 0 .8-.6.6-1.1-3.4-6.6-4.2-14-4.5-21.2-.2-3.8.6-7.4 1.5-11 .8-3.6 2.1-7.2 3.4-10.8 2.5-7.2 5.7-14.4 8.3-21.6 1.3-3.6 2.5-7.2 3.4-10.8.8-3 2.1-7 .2-10-1.1-1.7-3.6-2.5-5.5-3.2-1.9-.7-4.5-1.7-6.4-.8-.4-.3-.2.5.2.3z"/>
  <path fill="#282560" fill-rule="nonzero" d="M106.2 482.5c-.8-7-1.1-15.9 3-21.9 1.7-2.5 4.2-4.7 6.8-6.4 2.1-1.5 4.5-2.8 7-3.2 2.5-.4 8.9 1.5 10.8 3.2"/>
  <path fill="#221f1f" fill-rule="nonzero" d="M106.7 482.5c.2-2.1-.2-4.5-.2-6.6 0-2.1 0-4.5.4-6.6.6-4.7 2.5-8.7 6.2-11.9 1.7-1.7 3.8-3 5.9-4.2 1.7-1.1 3.8-1.9 5.7-1.7 1.7.2 3.4.6 5.1 1.3 1.3.4 2.8 1.5 4 1.7.4 0 .8-.4.6-.8-.4-1.1-1.7-1.5-2.8-1.9-1.5-.6-3-1.1-4.5-1.5-1.3-.2-2.5-.4-3.8-.4-1.7.2-3.4 1.1-5.1 1.9-3.4 1.9-7 4.5-9.3 7.6-2.1 3-3.2 6.6-3.6 10.2-.2 2.1-.4 4.2-.2 6.6 0 1.9.2 4.2.8 6.2.1.5.8.5.8.1z"/>
  <path fill="#603917" fill-rule="nonzero" d="M89.5 550c-.6-.4-1.7.6-1.7 1.7.2 4.2 1.5 8.7 4.5 10.8 3.2 2.1 6.8 2.5 10.4 2.8-5.5 1.5-11.7 1.3-17.2 1.1-4-.2-8.7-.6-12.7.2-1.3.2-1.7-.2-2.8-1.1-.4-.4-.6-1.1-.8-1.7-1.7-5.7-.8-12.5 2.3-17.4 2.3-3.8 6.4-6.6 10.2-6.2 4 .4 7.9 5.3 7.6 10"/>
  <path fill="#221f1f" fill-rule="nonzero" d="M89.7 549.8c-.6-.4-1.3-.2-1.7.4-.8.8-.6 1.9-.6 2.8.2 2.3.8 4.9 1.9 7 2.8 4.7 8.5 5.7 13.4 5.9 0-.4-.2-.8-.2-1.3-5.1 1.3-10.6 1.3-15.9.8-2.8-.2-5.3-.4-8.1-.4-1.3 0-2.5 0-4 .2-1.1.2-2.5.6-3.4 0-1.1-.8-1.3-2.1-1.5-3.2-.2-1.3-.4-2.5-.4-3.8 0-2.3.2-4.9.8-7 1.3-4.2 4.2-8.9 8.9-10.2 5.5-1.5 9.8 4 9.6 9.1 0 .8 1.3.8 1.5 0 .4-4.7-3-10-7.9-10.8-5.1-.8-9.6 3.2-11.9 7.2-2.8 4.9-3.4 10.8-2.1 16.1.4 1.9 1.5 4.7 3.8 4.7 1.5 0 3-.4 4.2-.4h5.3c7.2.2 14.2 1.1 21.2-.8.6-.2.6-1.3-.2-1.3-3.8 0-8.5-.4-11.2-3.4-1.3-1.3-1.9-3-2.5-4.9-.2-.8-1.5-6.2.4-5.7.6-.4.8-.8.6-1z"/>
  <path fill="#282560" fill-rule="nonzero" d="M133.4 462.8c-2.5 15.7-7.9 30.1-15.1 43.5-7.2 13.4-16.6 24.8-25.7 36.5-1.5 1.7-1.5 6.6-3.4 7.2-4 1.7-9.8-4.2-13.2-7.2-.6-.6-1.5-1.3-1.5-2.3 0-.6 0-1.1.2-1.7 2.5-8.3 8.5-14.6 13.2-21.4 4.7-7 8.7-15.9 6.8-24.4-.6-3-2.1-5.9-3-8.9-1.9-7.9.8-16.1 3.6-23.8.6-1.5 1.1-3 2.1-4 1.1-1.1 2.3-1.3 3.6-1.7 8.5-2.1 17-3.4 25.7-4 1.3 0 2.5-.2 3.8.4 1.1.6 3 11.2 2.8 12.9"/>
  <path fill="#221f1f" fill-rule="nonzero" d="M133.2 462.6c-2.1 8.7-4.2 17.4-7.4 25.7-3.2 8.5-7.2 16.6-11.9 24.2-4.9 8.1-10.6 15.5-16.3 22.9-1.5 1.7-2.8 3.6-4.2 5.3-1.1 1.3-1.7 2.3-2.3 4-.4 1.3-.6 3-1.5 4-1.1 1.3-3 .6-4.2 0-3.2-1.5-5.7-4-8.3-6.4-.6-.6-1.5-1.1-1.7-1.9-.2-1.1.4-2.3.8-3.4.8-2.1 1.7-4 3-5.9 4.2-7.2 10.2-13.2 13.8-20.8 1.7-3.8 3-7.6 3.2-11.9.2-4.5-1.3-8.3-2.5-12.5-1.5-4.7-1.7-9.3-.6-14 .8-4.5 2.3-9.1 4.2-13.4.4-1.1 1.1-2.1 1.9-2.8.8-.7 2.1-.8 3.2-1.1 2.3-.6 4.7-1.1 7-1.5 4.9-1.1 10-1.7 14.9-2.1 1.1 0 2.1-.2 3.2-.2.8 0 2.5-.2 3.2.4.4.4.6 1.5.8 2.1.6 2.5 1.3 5.1 1.5 7.9 0 .6.2 1.5.2 2.1 0 1.1 1.5 1.1 1.5 0 .2-2.1-.4-4.7-.8-6.6-.2-1.3-.6-2.8-.8-4-.2-.8-.4-1.9-1.1-2.5-1.1-1.1-3.2-.8-4.5-.8-2.5.2-5.3.4-7.9.6-5.1.6-10.2 1.5-15.3 2.8-2.1.4-4.5.8-6.2 2.1-1.5 1.1-2.1 3-2.8 4.7-1.7 4.7-3.4 9.3-4 14.4-.4 2.3-.4 4.9 0 7.4.2 2.3 1.1 4.7 1.9 7 .8 2.3 1.7 4.7 1.9 7.2.2 2.3 0 4.9-.6 7.2-2.3 9.2-8.4 16.2-13.5 23.9-2.5 3.6-4.7 7.4-6.2 11.5-.6 1.9-.6 3.4.8 4.9 1.3 1.3 2.5 2.3 4 3.6 2.3 2.1 5.5 4.9 8.9 4.7 3.4-.2 3.8-3.6 4.7-6.2.6-1.9 2.1-3.4 3.4-5.1 1.5-1.9 3.2-3.8 4.7-5.9 3-3.8 5.9-7.9 8.7-11.9 11-15.7 19.7-33.7 23.6-52.6.4-2.3.8-4.5 1.1-6.8-.7-.8-1.5-.8-1.5-.3z"/>
  <path fill="#f05a2a" fill-rule="nonzero" stroke="#f05a2a" stroke-width="1.73" d="M99.2 399.7l26.1-7.4 8.9 5.1v5.9l-1.3 6.8s-1.5 11.9-.6 15.5c.8 3.6 3.6 14.6 3.6 18.3 0 3.6.2 13.4-.8 15.3-1.1 1.9-7.6 0-7.6 0L99 425.8l-5.3-12.5v-5.9l5.5-7.7z"/>
  <path fill="#f05a2a" fill-rule="nonzero" d="M132.5 408.2c-2.5 8.3.2 17 1.5 25.3.6 4.5 1.1 9.1 1.3 13.6 0 2.3 0 4.5-.2 6.8 0 1.9.2 5.7-2.3 6.2-1.1.2-.6 1.9.4 1.7 1.7-.2 2.8-1.7 3.2-3.4.4-2.3.4-4.7.6-7 .2-4.9 0-9.6-.6-14.4-1.1-9.1-4.9-19.1-2.1-28.2.4-1-1.3-1.6-1.8-.6z"/>
  <path fill="#f05a2a" fill-rule="nonzero" d="M135.1 386.8c5.9.4 11.7-4.9 14.2-10.2.4-.8.2-1.9.8-2.3.6-.4 1.9-.2 2.5-.2 1.9-.2 3.8-.4 5.7-.4-1.5 5.5-2.8 11.2-4.2 16.8-.8 3-1.7 6.4-3.8 8.5-1.3 1.3-3 2.3-4.7 3.2-9.3 4.7-18.9 8.7-28.9 12.1-2.8 1.1-5.7 1.9-8.5 1.1"/>
  <path fill="#221f1f" fill-rule="nonzero" d="M135.1 387c4.7.6 8.9-2.3 11.9-5.7.8-.8 1.5-1.9 2.1-2.8.6-1.1.8-1.7 1.3-2.8.2-.6.6-.8 1.5-.8h1.7c1.7-.2 3.4-.2 4.9-.4-.2-.2-.4-.6-.6-.8-1.3 4.7-2.3 9.6-3.6 14.2-.8 3.8-1.7 8.5-4.7 11.2-1.7 1.5-3.8 2.3-5.7 3.4-2.1 1.1-4.2 2.1-6.4 3-4.5 1.9-8.9 3.8-13.4 5.5-2.3.8-4.9 1.9-7.4 2.8-2.5.8-5.3 1.7-8.1 1.1-.8-.2-1.3 1.1-.4 1.5 4.5 1.5 9.6-1.1 13.6-2.8 4.7-1.7 9.3-3.6 14-5.7 2.3-1.1 4.7-2.1 6.8-3.2 2.1-1.1 4.2-1.9 6.4-3.4 3.6-2.3 4.9-6.2 5.9-10.2 1.5-5.7 3-11.5 4.2-17.2 0-.4-.2-.8-.6-.8-1.5.2-3.2.2-4.7.4-1.1 0-2.1 0-3.2.2-.8.2-1.3.6-1.5 1.3-.2.4-.2 1.1-.4 1.5-.2.6-.6 1.1-.8 1.7-2.8 4.5-7.4 8.1-12.7 8.5-.3-.1-.5.3-.1.3z"/>
  <g>
    <path fill="#f05a2a" fill-rule="nonzero" d="M134.2 461.1c-4.7.8-8.7 0-13.4.8-3.6.6-7.2 1.3-11 1.1-7-.4-13.4-4-18.7-8.5 2.8-8.9 5.3-18.3 3.4-27.4-1.5-6.6-4.5-17-4.7-23.8"/>
    <path fill="#221f1f" fill-rule="nonzero" d="M134.5 460.9c-1.7-.4-3.8 0-5.5 0-1.9 0-3.8 0-5.5.2-4 .2-7.9 1.5-11.7 1.3-7.4 0-14-3.8-19.5-8.3 0 .2.2.6.2.8 2.8-9.1 5.3-18.7 3.4-28.4-1.7-7.6-4-15.1-4.7-22.9 0-.8-1.5-1.1-1.5 0 0 3.6.6 7.2 1.5 10.8.8 3.8 1.9 7.6 2.8 11.5 1.1 4.7 1.3 9.3.4 14-.8 4.9-2.1 9.6-3.6 14.4 0 .2 0 .6.2.8 5.7 4.5 12.3 8.3 19.5 8.7 4.2.2 8.3-.8 12.5-1.3 2.1-.2 4-.2 6.2-.2 1.9 0 4 .2 5.7-.8 0-.2-.2-.6-.4-.6z"/>
  </g>
  <g>
    <path fill="#221f1f" fill-rule="nonzero" d="M134.5 407.2c-2.8 8.5-.8 17.6.6 26.1.8 5.1 1.3 10 1.3 15.1 0 2.5 0 4.9-.2 7.4 0 1.1 0 2.5-.8 3.4-.6.6-1.5 1.1-2.3 1.3-1.1.2-.6 1.9.4 1.7 1.5-.2 3.2-1.3 3.8-2.5 1.1-1.9.8-4.7.8-6.8.2-5.3 0-10.8-.6-16.1-1.3-9.6-4.2-19.5-1.3-29.1.2-1.2-1.5-1.6-1.7-.5z"/>
  </g>
  <g>
    <path fill="#f05a2a" fill-rule="nonzero" d="M94.1 412.3c-4.7-7.6-6.2-17-3.8-25.7 1.3-4.7 4-9.6 8.7-11 5.3-1.5 10.4 1.9 15.3 4.5 10.2 5.5 21.9 8.1 33.5 7"/>
    <path fill="#221f1f" fill-rule="nonzero" d="M94.1 412.3c-1.1-2.8-2.3-5.3-3.2-8.3-.8-3-1.3-5.9-1.3-9.1 0-5.3 1.1-11.5 4.7-15.7 1.9-2.1 4.5-3.4 7.4-3.4 3.2 0 6.4 1.7 9.1 3.2 5.3 3 10.6 5.5 16.6 7 6.4 1.7 13.6 2.5 20.4 1.7.6-.2.6-1.3-.2-1.3-3.4 0-6.6.2-10 0-3.4-.2-6.8-.8-10.2-1.7-3.2-.8-6.4-1.9-9.6-3.4-3-1.3-5.7-3.2-8.7-4.5-2.5-1.3-5.5-2.3-8.5-2.1-2.5.2-5.1 1.5-6.8 3.4-3.6 4-5.1 9.8-5.3 15.1-.2 3.4.2 7 1.3 10.4.8 3.2 2.1 6.6 4.2 8.9.1 0 .3 0 .1-.2z"/>
  </g>
  <g>
    <path fill="#221f1f" fill-rule="nonzero" d="M103.9 381.7c.2 0 .2-.2 0 0 0-.2 0 0 0 0z"/>
  </g>
  <g>
    <path fill="#c1976b" fill-rule="nonzero" d="M100.9 369.8c-3.2-.8-6.4-2.8-7.2-5.7-.4-1.5-.2-3 .2-4.5 1.1-4.2 4-7.9 7.9-10 3.8-2.1 8.3-3.2 12.5-3 2.3.2 4.7.6 6.8 1.9 1.9 1.3 3.2 3.8 2.8 6.2-.2 1.5-1.3 2.8-1.1 4.2.2 1.9 2.3 3.2 3.6 4.5-1.3.4-2.3 1.3-1.9 2.5.2.4.4.8.4 1.3s-.4.8-.4 1.3c-.6 1.5-.2 3.2-1.1 4.5-.6.8-1.7 1.3-2.8 1.5-2.1.6-4.5 1.3-6.6.6-.4 0-.6-.2-1.1 0-.4.2-.6.6-.6.8-.4 1.1-.8 2.1-1.3 3.2"/>
    <path fill="#221f1f" fill-rule="nonzero" d="M101.1 369.4c-4-1.3-7.9-4-7-8.7.8-4 3.4-7.4 6.6-9.8 3.6-2.5 8.1-3.6 12.3-3.6 4 0 10.2 1.5 10.2 6.6 0 2.1-1.7 3.8-.8 5.9.6 1.7 2.3 2.8 3.4 4 0-.2.2-.6.2-.8-.8.2-1.5.6-1.9 1.3-.6.8-.2 1.5-.2 2.3.2.8 0 1.3-.2 1.9-.2.4-.2.8-.4 1.3-.2 1.5 0 3.2-1.7 4-1.3.6-2.8.8-4 1.1-1.5.2-2.8 0-4.2 0-.8 0-1.3.2-1.7.8-.6 1.1-.8 2.5-1.3 3.6-.2.6.8.8 1.1.2.4-1.1.8-3.6 2.1-3.8.4 0 1.1.2 1.5.2.6 0 1.3 0 1.9-.2 1.9-.2 4.2-.6 5.7-1.9 1.5-1.3 1.1-3 1.5-4.7.2-.8.8-1.5.8-2.5 0-.4-.4-.6-.4-1.1-.2-1.1.6-1.7 1.5-1.9.4-.2.4-.6.2-.8-1.9-1.7-4-3.2-3.2-6.2.6-2.1 1.3-3.6.2-5.7-1.9-4.2-7.2-5.1-11.2-4.9-8.5.2-18.3 5.5-19.3 14.6-.6 5.1 3.4 8.1 7.6 9.3 1.2.6 1.4-.3.7-.5z"/>
  </g>
  <g>
    <path fill="#221f1f" fill-rule="nonzero" d="M120.4 363c-.4.2-.6.6-.4 1.1 0 .2 0 .4.2.6 0 .2.2.2.4.4 0 0 .2.2.4.2h.2c.2 0 .2-.2.2-.2v-.4l-.6-.6v-.2.2-.2.2-.2.2-.4c.2-.2.2-.4 0-.6.1-.3-.1-.3-.4-.1z"/>
  </g>
  <g>
    <path fill="#c1976b" fill-rule="nonzero" d="M101.3 370c-.2 1.5-.4 3.2-.6 4.7 0 .8-.2 1.7.2 2.3.4 1.1 1.3 1.7 2.3 2.1 2.1.8 4.2 1.5 6.6 1.3.4 0 .8 0 1.1-.2.3-.2.2-.6.2-1.1"/>
    <path fill="#221f1f" fill-rule="nonzero" d="M100.7 369.8c-.2 1.1-.2 2.1-.4 3.2s-.2 1.9-.2 3c0 1.7 1.3 3 2.8 3.6 1.7.8 3.4 1.3 5.3 1.5.8 0 1.7.2 2.5-.2s.8-1.1.8-1.7c0-.6-1.1-.6-1.1 0 0 .2 0 .6-.2.6-.2.2-.6.2-.8.2-.8 0-1.5 0-2.3-.2-1.5-.2-3-.6-4.2-1.3-.6-.2-1.1-.6-1.5-1.3-.4-.6-.4-1.3-.4-2.1.2-1.7.4-3.4.6-4.9.4-.6-.7-1-.9-.4z"/>
  </g>
  <g>
    <path fill="#3a2416" fill-rule="nonzero" d="M121.1 343.1c1.7 1.1 3.4 2.3 3.8 4.2.4 1.7-.2 3.8-1.7 4.9-2.5 1.9-7 .8-8.7 3.4-1.5 2.1-.2 4.9.8 7.2-.4.6-1.5.4-2.1 0-.6-.4-1.1-1.1-1.9-1.3-1.5-.6-3.2 1.1-3.4 2.5-.2 1.5 1.3 3.2 2.5 3.8-1.7 1.7-4.2 1.9-6.6 2.1-2.4.2-4.7.4-6.8-.4-1.1-.4-2.1-1.1-3-1.9-.8-.8-1.5-2.1-1.9-3.2-1.5-3.4-2.1-7.2-.8-10.8 1.1-3 3.2-5.3 5.5-7.2 1.3-1.1 2.5-2.3 4-2.8 1.3-.4 2.8-.4 3.8-1.3.6-.4 1.1-1.1 1.7-1.5 2.1-1.3 4.7 0 7.2.4 1.3.2 2.8 0 4 0 1.2 0 2.8.6 3.6 1.7"/>
    <path fill="#221f1f" fill-rule="nonzero" d="M120.7 343.7c2.3 1.5 4.9 4 3.2 7-1.3 2.1-4.2 2.1-6.4 2.8-1.7.4-3.4 1.3-4 3.2-.8 2.3.4 4.7 1.5 6.8v-.6c-.8.8-1.9-.6-2.8-1.1-.4-.4-1.1-.6-1.7-.6-1.1 0-2.1.6-2.5 1.5-1.5 2.3.2 4.9 2.3 6.2 0-.2 0-.6-.2-.8-1.5 1.5-3.6 1.7-5.5 1.9-2.1.2-4.5.4-6.6-.2-4.5-1.3-6.2-6.8-6.6-10.8-.2-4.7 2.3-8.3 5.7-11.2 1.5-1.5 3.2-2.8 5.3-3.2.8-.2 1.5-.4 2.3-.6.8-.4 1.5-1.3 2.3-1.9 1.9-1.3 4.7.2 6.8.4 2.3.2 5.7-.6 7.4 1.5.4.6 1.3 0 .8-.6-1.3-1.7-3.4-2.1-5.3-1.9-1.5 0-3 0-4.2-.4-1.1-.2-2.3-.6-3.4-.6-2.5 0-3.6 2.1-5.9 2.8-1.1.2-2.1.4-3.2 1.1-1.1.6-1.9 1.3-2.8 2.1-3.6 3.2-6.8 7-6.8 12.1 0 4.5 1.9 10.2 6.2 12.1 2.3 1.1 5.1.8 7.9.6 2.3-.2 4.9-.6 6.6-2.3.2-.2.2-.6-.2-.8-1.1-.6-2.1-1.5-2.3-2.8-.4-1.7 1.5-3.4 3-2.3 1.3.8 2.5 2.3 4 .8.2-.2.2-.4 0-.6-1.3-2.5-2.8-6.4.8-7.9 2.1-.8 4.5-.6 6.4-1.7 1.7-1.1 3-3 2.8-5.1-.2-2.5-2.3-4-4.2-5.3-.7-1.1-1.4 0-.7.4z"/>
  </g>
  <g>
    <path fill="#754d29" fill-rule="nonzero" d="M1115.4 497.8c-.2-2.5-.6-4.2-.2-6.6h-11.7c0 1.3-.8 2.3-.8 3.6-.2 3 .4 6.6 3.4 8.5 1.9 1.3 4.9 1.3 6.6 0 1.7-1.3 3.8-3.6 2.7-5.5"/>
    <path fill="#221f1f" fill-rule="nonzero" d="M1116.1 497.8c-.2-2.1-.6-4.2-.2-6.6 0-.4-.2-.6-.4-.6h-11.7c-.2 0-.4.2-.6.6-.2 1.1-.6 2.1-.8 3.2-.2.8-.2 1.7 0 2.8.2 1.7.6 3.6 1.7 5.1 2.3 3.2 7 3.4 10 .8 1.5-1.3 2.8-3.4 1.9-5.5-.2-.6-1.3 0-.8.6.6 1.5-.6 3.2-1.7 4-1.3 1.1-3 1.7-4.7 1.3-3.4-.4-5.1-3.6-5.3-6.8 0-.8 0-1.7.2-2.5.2-1.1.6-1.9.8-3l-.6.6h11.7c-.2-.2-.4-.4-.4-.6-.4 2.3 0 4.5 0 6.8-.2.6.9.6.9-.2z"/>
  </g>
  <g>
    <path fill="#603917" fill-rule="nonzero" d="M1125.8 654.6c-2.1 5.1-.6 9.1 3.4 12.9 4 3.8 10.4 8.3 15.9 8.7-11 .6-24.8.6-35 0 .8-6.2 3-22.1 3.8-28.4"/>
    <path fill="#221f1f" fill-rule="nonzero" d="M1125.2 654.6c-1.1 2.5-1.3 5.1-.4 7.9.8 2.8 3 4.9 4.9 6.6 4.2 3.8 9.8 7.6 15.7 8.1v-1.5c-11.7.6-23.3.6-35 0 .2.2.4.6.6.8 1.3-9.3 2.5-18.9 3.8-28.4.2-.8-1.3-1.3-1.5-.4-1.3 9.3-2.5 18.9-3.8 28.4 0 .4.2.8.6.8 11.7.8 23.3.8 35 0 .8 0 .8-1.3 0-1.5-5.3-.4-10.2-3.8-14.2-7.4-1.9-1.7-3.6-3.4-4.7-5.7-1.1-2.5-.8-5.1.2-7.6.5-.7-.8-1.1-1.2-.1z"/>
    <g>
      <path fill="#603917" fill-rule="nonzero" d="M1125.8 654.6c-4.2-.6-9.1-6.4-11.9-6.8"/>
      <path fill="#221f1f" fill-rule="nonzero" d="M1126 654c-2.3-.4-4.5-2.1-6.6-3.4-.8-.6-1.9-1.5-3-2.1-.6-.4-1.5-1.1-2.5-1.3-.8-.2-1.3 1.3-.4 1.5.8.2 1.5.6 2.3 1.3 1.1.6 1.9 1.5 3 2.1 1.9 1.5 4 3 6.6 3.4 1.3 0 1.7-1.3.6-1.5z"/>
    </g>
  </g>
  <g>
    <path fill="#bc202e" fill-rule="nonzero" d="M1136.4 584c0 6.4-5.7 22.9-6.8 29.1-2.5 14.6-3.2 20.4-4.7 35.2-.2 3 1.5 4.5.8 7.4-.2.8.8 2.1 0 2.8-.8.8-2.1.6-3.2.6-2.5-.2-8.5 0-11.2-.2"/>
    <path fill="#221f1f" fill-rule="nonzero" d="M1135.6 584c0 6.6-2.8 13.4-4.5 19.7-1.9 7-3.2 14-4.2 21.2-.6 3.6-1.1 7.4-1.5 11-.4 4.2-1.5 8.7-1.3 12.9 0 2.1.8 4.2.8 6.4 0 .2.2 1.3.2 1.7-.4 1.9-1.7 1.3-3 1.3-3.6-.2-7 0-10.6-.2-.8 0-.8 1.5 0 1.5 3 .2 5.9 0 8.9.2 1.7 0 5.3.8 6.4-1.1.6-1.1 0-2.5 0-3.6 0-1.3-.2-2.3-.6-3.6-1.1-3.8 0-8.3.4-12.3 1.5-12.7 3.4-25.3 6.8-37.6 1.5-5.5 3.6-11.7 3.8-17.4-.1-1-1.6-1-1.6-.1z"/>
    <g>
      <path fill="#bc202e" fill-rule="nonzero" d="M1136.4 584c-6.6-5.9-16.6-9.8-25.3-9.1-8.7.6-16.8 4-24.4 8.3-.2 5.3 5.1 18.9 5.5 24.4 1.5 20.4 1.9 31.8 7.4 51.4.2.4.2 1.1.6 1.5.4.4.8.4 1.3.6 2.8.6 5.7.6 8.5-.2-1.7-18.9 0-38 4.7-56.2-3.4 18-6.8 36.5-3.2 54.5"/>
      <path fill="#221f1f" fill-rule="nonzero" d="M1136.9 583.5c-6.2-5.5-14.6-9.1-23.1-9.3-9.8-.2-19.3 3.8-27.6 8.5-.2.2-.4.4-.4.6 0 6.2 2.5 12.5 4.2 18.3 1.9 7.4 1.9 15.5 2.5 23.1.6 7.9 1.7 15.7 3.4 23.3.4 2.3 1.1 4.7 1.7 7 .4 1.7.6 4 1.7 5.5 2.3 2.5 7.9 1.5 10.6.8.2 0 .6-.4.6-.6-1.5-18.9 0-37.8 4.7-56-.4-.2-.8-.2-1.5-.4-3.4 18-6.8 36.5-3.2 55 .2.8 1.7.6 1.5-.4-3.6-18-.2-36.3 3.2-54.1.2-.8-1.3-1.3-1.5-.4-4.7 18.5-6.2 37.6-4.7 56.5l.6-.6c-2.8.8-7.9 1.7-9.6-1.3-1.1-1.9-1.5-5.1-1.9-7.4-1.1-4.5-1.9-8.7-2.5-13.2-1.5-9.3-2.1-18.7-2.8-28-.4-6.8-2.8-13.2-4.5-19.7-.4-1.5-.6-3-.8-4.5 0-.4-.4-1.7-.2-2.1.2-.6 2.8-1.5 3.4-1.7 4.7-2.3 9.6-4.2 14.6-5.3 10.8-2.3 22.1.6 30.4 8.1.9 0 2-1 1.2-1.7z"/>
    </g>
  </g>
  <g>
    <path fill="#754d29" fill-rule="nonzero" d="M1121.6 477.6c.8-3.4 1.5-7.4-.4-10.6-1.7-3.2-3.2-6.6-6.4-8.5-1.1-.6-4.2-1.9-5.5-1.7-5.1.6-10 3.2-11.9 8.3-1.9 5.1-1.3 10.4-.4 15.5.4 2.8 1.1 5.5 2.5 7.9 1.3 2.3 3.4 4.5 5.9 5.3 4.2 1.3 8.9-1.1 11.7-4.5 2.8-3.6 3.8-8.1 4.7-12.3"/>
    <path fill="#221f1f" fill-rule="nonzero" d="M1122 477.6c.8-3.4 1.5-7.2-.2-10.6-1.5-3-3.2-6.4-5.9-8.5-1.9-1.5-4.9-2.8-7.4-2.3-3 .4-6.2 1.7-8.5 3.6-5.9 5.1-5.1 13.8-3.8 20.8 1.3 6.4 4.5 14.9 12.5 14 8.7-.8 11.9-10.2 13.4-17.6.2-.6-.8-1.1-1.1-.2-1.3 5.9-3.2 12.9-9.1 15.9-3.2 1.5-6.8 1.3-9.6-1.1-2.5-2.1-3.8-5.3-4.5-8.5-1.5-6.2-3-14.4 1.1-20 1.7-2.5 4.5-4 7.2-4.9 2.8-.8 5.1-.6 7.6.6 3 1.5 4.7 4.7 6.4 7.4 1.9 3.8 1.7 7.2.8 11.2 0 .7 1.1.9 1.1.2z"/>
  </g>
  <g>
    <path fill="#603917" fill-rule="nonzero" d="M1114.2 659.1c-1.9 3.2-3.8 9.3-2.5 12.9"/>
    <path fill="#221f1f" fill-rule="nonzero" d="M1113.5 658.9c-1.3 2.1-2.1 4.2-2.5 6.6-.4 2.1-.8 4.7 0 6.8.4.8 1.7.4 1.5-.4-.8-1.9-.4-4.2 0-6.4.4-2.1 1.3-4.2 2.3-6.2.4-.6-.9-1.3-1.3-.4z"/>
    <path fill="#603917" fill-rule="nonzero" d="M1114.2 659.1c-5.1.2-10.2.2-15.3.4h-.4c-.2.2-.2.6 0 .8 1.7 3.4 2.3 8.9 1.7 12.5l11.9-.6s-1.5-4.5-.4-6.8c.8-2.3 2.5-6.3 2.5-6.3z"/>
    <path fill="#221f1f" fill-rule="nonzero" d="M1114.2 658.5c-3 0-5.9.2-9.1.2h-4.7c-.8 0-2.8-.2-2.8 1.1 0 .4.2 1.1.4 1.5.2.4.4.8.6 1.5.4 1.1.6 2.1.8 3.4.4 2.3.4 4.7.2 6.8 0 .4.2.8.6.8 4-.2 7.9-.4 11.9-.6.4 0 .8-.4.6-.8-.6-1.9-1.3-4.5-.4-6.4.8-2.1 1.7-4.2 2.5-6.4.4-.8-1.1-1.3-1.5-.4-.4.8-.6 1.7-1.1 2.5-.6 1.5-1.3 2.8-1.7 4.2-.6 2.1 0 4.7.6 6.8.2-.2.4-.6.6-.8-4 .2-7.9.4-11.9.6.2.2.4.6.6.8.6-4 .2-8.5-1.5-12.3 0-.2-.2-.4-.2-.6 0-.2 0-.2-.2-.2h6.5c2.8 0 5.7-.2 8.5-.2 1.5-.1 1.5-1.5.7-1.5z"/>
    <g>
      <path fill="#603917" fill-rule="nonzero" d="M1117.3 676.5c-1.1-1.3-4.7-5.5-5.9-6.6-1.7-1.5-3.8-2.1-5.9-1.5-.8.2-3.4-.2-4.2.4-3.6 2.8-5.5 5.7-8.7 9.1 3.2 3.4 8.3 5.1 12.9 4.7 4.6-.8 9.7-2.1 11.8-6.1"/>
      <path fill="#221f1f" fill-rule="nonzero" d="M1118 676.1c-1.5-1.9-3-3.6-4.7-5.3-1.9-1.9-4-3.4-6.8-3.2-.6 0-1.3.2-1.9.2h-1.9c-1.5 0-2.3.6-3.4 1.7-2.8 2.3-4.9 5.3-7.4 7.9-.2.2-.2.8 0 1.1 3.6 3.8 8.7 5.5 14 4.7 4.7-.6 9.6-1.9 12.1-6.2.4-.8-.8-1.5-1.3-.6-2.1 3.8-6.8 4.9-10.8 5.5-4.7.6-9.6-.8-12.9-4.2v1.1c2.1-2.3 4-4.9 6.4-7 1.1-1.1 1.9-2.1 3.6-2.1 1.3 0 2.3 0 3.4-.2 2.8-.4 4.7 1.5 6.4 3.4 1.5 1.5 2.8 3.2 4 4.7.7.2 1.8-.9 1.2-1.5z"/>
    </g>
  </g>
  <g>
    <path fill="#8a9dcf" fill-rule="nonzero" d="M1100.6 498.4c.4-.4.8-.6 1.3-.8-5.7 4-11.5 7.9-17.2 11.9-2.3 1.5-4.7 3.4-5.1 6.2-.2 1.7.2 3.6.2 5.3 0 2.8-1.3 5.1-2.1 7.6-2.3 6.2-3.2 12.9-2.3 19.5 0 0-1.3 5.1.6 8.3 1.7 3.2.4 6.6 4.9 5.5l4.5-1.1c-.2 3.4 0 6.8.4 10 0 .6.2 1.1.4 1.7.8 1.5-2.3 11.5-.2 11 14.6-2.3 32.7.2 47.1 2.8.6 0 5.9.8 6.4.6.4-.2-2.1-10.6-1.9-11.2 1.1-2.5-1.5-11.2-1.5-14 0 0 5.9 1.5 9.3 2.8 3.4 1.3 4.5.2 4.5-3s-2.1-17.2-2.1-17.2c.6-7.6-4.2-14.4-8.5-20.6-.6-.8-1.3-1.9-1.5-3-.6-2.3 1.1-4.9.6-7.4-.4-2.8-3-4.2-5.3-5.7-4-2.3-7.9-4.5-11.9-6.8-.8-.4-1.7-.8-2.5-1.1-.8 0-1.7.2-2.3.4-2.5.8-5.1 2.1-7.9 1.5-3-.6-7-5.1-6.2-4.2"/>
    <path fill="#221f1f" fill-rule="nonzero" d="M1100.8 498.6c.4-.2.8-.6 1.3-.8.5-.2 0-.8-.4-.6-3.4 2.3-6.6 4.5-10 6.8-3 2.1-5.9 4-8.9 6.2-2.1 1.7-3.8 3.6-4 6.4 0 1.7.4 3.4.4 5.3-.2 1.9-.8 3.6-1.5 5.3-1.3 3.4-2.3 7-3 10.6-.2 1.5-.4 3.2-.4 4.7v2.5c0 .8.2 1.9.2 2.8 0 .6-.2 1.3-.2 1.7-.2 1.3-.2 2.8 0 4 .2 1.1.4 2.1 1.1 3.2.4 1.1.6 2.3 1.1 3.4.6 2.1 2.1 2.8 4.2 2.1 1.5-.4 3-.8 4.5-1.1-.2-.2-.4-.4-.6-.4-.2 2.8 0 5.7.2 8.5 0 1.1.2 2.1.4 3 .2.4.2.8.2 1.5-.2 2.8-1.1 5.3-1.1 8.1 0 .6 0 1.7.6 2.1.4.2.8.2 1.1 0 1.5-.2 2.8-.4 4.2-.4 5.1-.4 10.2-.4 15.1-.2 9.6.6 18.9 2.3 28.4 3.6 1.5.2 2.8.4 4.2.4.6 0 1.5 0 1.5-.6.2-.8-.2-1.9-.4-2.8-.2-1.5-.6-2.8-.8-4.2-.2-1.3-.6-2.5-.6-3.8 0-.8.2-2.1.2-3.4-.2-3.6-1.7-7.4-1.7-11-.2.2-.4.2-.6.4 3 .8 5.9 1.5 8.7 2.5 1.3.4 2.8 1.1 4 .6 1.1-.4 1.5-1.5 1.5-2.5.4-2.5-.2-5.1-.4-7.4-.4-3-.8-5.7-1.3-8.5-.2-.6-.2-1.5-.4-2.1-.2-1.7 0-3.4-.4-5.3-1.1-4.7-3.6-8.7-6.2-12.5-1.5-2.1-3.6-4.5-3.6-7 0-2.3 1.1-4.2.6-6.6-.4-1.7-1.7-3.2-3.2-4-2.1-1.5-4.5-2.8-6.6-4-2.8-1.5-5.5-3.4-8.3-4.7-2.5-1.3-4.7 0-7.2.8-1.5.4-3.2.8-4.7.6-1.1-.2-1.9-.8-2.8-1.3-1.3-.8-2.3-1.9-3.4-3l-.6.6c.4.4 1.3-.2.6-.6-.4-.4-1.3.2-.6.6 1.7 1.7 3.8 3.8 6.2 4.5 1.9.6 4 0 5.9-.6 1.3-.4 2.3-1.1 3.6-1.3 1.7-.2 3 .6 4.2 1.5 2.3 1.3 4.5 2.5 6.8 3.8 2.1 1.3 4.2 2.3 6.2 3.6 2.1 1.5 3.2 3.6 2.5 6.2-.4 2.1-1.1 4-.2 5.9.8 2.1 2.5 3.8 3.6 5.7 1.3 1.9 2.3 3.8 3.4 5.7 1.1 2.1 1.9 4.2 2.3 6.6.2 1.5.2 3.2.2 4.7.4 4.9 1.5 9.6 1.9 14.4.2 1.3.2 2.3 0 3.6-.4 2.1-2.1 1.9-3.8 1.3-3-1.1-6.2-1.9-9.3-2.8-.2 0-.6.2-.6.4 0 3 .8 5.9 1.3 8.7.2 1.5.6 3.2.2 4.7-.2.6-.2 1.1 0 1.7.4 2.5 1.1 4.9 1.5 7.4.2.8.2 1.7.2 2.3 0-.4.4 0-.2-.2h-.8c-.6 0-1.5-.2-2.1-.2-3.6-.4-7.2-1.1-10.6-1.7-4.7-.6-9.3-1.3-14-1.7a180 180 0 00-14.6-.6c-2.3 0-4.5.2-6.8.4-1.1 0-2.1.2-3.2.4-.6 0-.8.2-.8-.4-.2-2.8.8-5.5 1.1-8.3.2-1.5-.4-2.8-.6-4.2-.2-3-.4-5.9-.2-9.1 0-.4-.4-.6-.6-.4-.8.2-1.5.4-2.3.6-1.1.2-2.5.8-3.6.6-1.1-.2-1.5-1.3-1.7-2.1-.6-2.1-1.7-4.2-1.9-6.6-.2-1.7.2-3.2.4-4.9 0-1.5-.2-3-.2-4.2 0-1.7 0-3.6.2-5.3.4-3.4 1.3-6.6 2.3-9.8 1.1-3 2.3-5.9 2.1-9.1-.2-1.5-.4-3 0-4.5s1.5-2.8 2.8-3.6c3-2.5 6.2-4.5 9.3-6.6 3.4-2.3 6.6-4.7 9.8-7-.2-.2-.2-.4-.4-.6-.4.2-.8.6-1.3.8.5.6 1 1.3 1.4.8z"/>
  </g>
  <path fill="#303591" fill-rule="nonzero" d="M993.8 382.3c-1.9 0-3.6.4-5.3 1.1-4.2-6.6-10.8-11.7-18.9-14.2-.8-19.1-18-34.4-39.1-34.4-17.2 0-31.6 10-36.9 24-2.5-1.9-5.5-3-8.7-3-6.2 0-11.7 4-13.8 9.8h-2.3c-17.6 0-32 13.8-32 31 0 1.9.2 5.7.6 5.7h170.9c.4 0 .6-2.5.6-4.2 0-8.8-6.8-15.8-15.1-15.8z"/>
  <g>
    <path fill="#495c85" fill-rule="nonzero" d="M1143.9 509.9l-.7 57.3-55.2 1.5.7-57.3 55.2-1.5z"/>
    <path fill="#29344b" fill-rule="nonzero" d="M1088 568.7l-15.9-7 .7-57.1 15.9 6.8-.7 57.3z"/>
    <path fill="#33405c" fill-rule="nonzero" d="M1088.7 511.4l-15.9-6.8 55.1-1.5 16 6.8-55.2 1.5z"/>
    <g>
      <g fill="#fff" fill-rule="nonzero" stroke="#fff" stroke-width="1.25">
        <path d="M1118.6 534.5c-1.1 0-1.9.2-2.5.6l.4 1.5c.6-.2 1.1-.4 1.9-.4 1.1 0 1.5.4 1.5 1.3v.2h-.4c-.4-.2-.8-.4-1.3-.4-.4 0-.8.2-1.1.4-1.1.2-1.7 1.1-1.7 2.1 0 1.3 1.1 2.1 2.3 2.1.8 0 1.5-.4 2.1-.8v.6h1.9l-.2-4c0-.8-.2-1.7-.8-2.1-.4-.9-1-1.1-2.1-1.1z"/>
        <path d="M1123.3 532.4c-.4.4-.4.8-.4 1.7v.4h-.8v1.7h.8l.2 5.1h1.9l-.2-5.1h1.5v-1.5h-1.5v-.2c0-.4.2-.8.6-.8.4 0 .6 0 .8.2v-1.7c-.4 0-.8-.2-1.5-.2-.6 0-1.2.2-1.4.4z"/>
        <path d="M1131.1 536.2v-1.7h-1.7v-1.7h-1.9v1.7h-.8v1.7h.8v3.2c0 1.5.8 2.1 2.1 1.9.6 0 1.1-.2 1.5-.4v-1.5c-.2.2-.6.2-.8.2-.4 0-.6-.2-.6-.6v-3l1.4.2z"/>
        <path d="M1112.9 536.2v-1.5h-1.9l.2 6.8h1.9V539c0-1.7.6-2.3 2.1-2.5v-2.1c-1.5.1-2.1.7-2.3 1.8z"/>
        <path d="M1107.8 535.4h-.4v-.4c0-1.3-1.1-2.1-2.3-2.1-1.3 0-2.1 1.1-2.1 2.3v.4h-.4c-1.3 0-2.1 1.1-2.1 2.3 0 1.2 1.1 2.1 2.3 2.1h.4v.4c0 1.3 1.1 2.1 2.3 2.1 1.3 0 2.1-1.1 2.1-2.3v-.4h.4c1.3 0 2.1-1.1 2.1-2.3-.2-1.3-1.3-2.4-2.3-2.1zm-3.2 1.9h.8v.8h-.8v-.8z"/>
      </g>
      <path fill="#303591" fill-rule="nonzero" d="M1115.4 539.6c0-1.5 1.1-2.3 2.8-2.3.6 0 1.3 0 1.7.2v-.2c0-.8-.6-1.3-1.5-1.3-.6 0-1.3.2-1.9.4l-.4-1.5c.8-.4 1.5-.6 2.5-.6s1.9.2 2.3.6c.4.4.8 1.3.8 2.1l.2 4h-1.9v-.6c-.4.6-1.1.8-2.1.8-1.4.5-2.5-.1-2.5-1.6zm4.5-.4v-.4c-.4-.2-.8-.2-1.3-.2-.8 0-1.3.4-1.3 1.1 0 .4.4.8 1.1.8.8-.3 1.5-.7 1.5-1.3z"/>
      <path fill="#303591" fill-rule="nonzero" d="M1122.6 536.2h-.8v-1.7h.8v-.4c0-.8.2-1.3.4-1.7.4-.4.8-.6 1.5-.6.6 0 1.1 0 1.5.2v1.7c-.2 0-.6-.2-.8-.2-.4 0-.6.2-.6.8v.2h1.5v1.5h-1.5l.2 5.1h-1.9l-.3-4.9z"/>
      <path fill="#303591" fill-rule="nonzero" d="M1127.7 539.4v-3.2h-.8v-1.7h.8v-1.7h1.9v1.7h1.7v1.7h-1.7v3c0 .4.2.6.6.6.4 0 .6-.2.8-.2v1.5c-.4.2-.8.4-1.5.4-.9 0-1.8-.4-1.8-2.1z"/>
      <path fill="#303591" fill-rule="nonzero" d="M1110.8 534.9h1.9v1.5c.4-1.1 1.1-1.5 2.1-1.5v2.1c-1.3 0-2.1.8-2.1 2.5v2.5h-1.9v-7.1z"/>
      <path fill="#526795" fill-rule="nonzero" d="M1102.5 540c-1.3 0-2.3-.8-2.3-2.1s.8-2.3 2.1-2.3 2.3.8 2.3 2.1-.8 2.1-2.1 2.3zm-.2-3.8c-.8 0-1.5.6-1.5 1.5 0 .8.6 1.5 1.5 1.5s1.5-.6 1.5-1.5-.7-1.5-1.5-1.5z"/>
      <path fill="#8c9ed0" fill-rule="nonzero" d="M1105 537.3c-1.3 0-2.3-.8-2.3-2.1s.8-2.3 2.1-2.3 2.3.8 2.3 2.1c.3 1.2-.8 2.3-2.1 2.3zm0-3.6c-.8 0-1.5.6-1.5 1.5 0 .8.6 1.5 1.5 1.5s1.5-.6 1.5-1.5-.8-1.5-1.5-1.5z"/>
      <path fill="#00a5dc" fill-rule="nonzero" d="M1105.2 542.4c-1.3 0-2.3-.8-2.3-2.1s.8-2.3 2.1-2.3 2.3.8 2.3 2.1-.8 2.3-2.1 2.3zm-.2-3.6c-.8 0-1.5.6-1.5 1.5s.6 1.5 1.5 1.5 1.5-.6 1.5-1.5-.6-1.5-1.5-1.5z"/>
      <path fill="#303591" fill-rule="nonzero" d="M1107.8 539.8c-1.3 0-2.3-.8-2.3-2.1s.8-2.3 2.1-2.3 2.3.8 2.3 2.1c.2 1.3-.8 2.3-2.1 2.3zm0-3.6c-.8 0-1.5.6-1.5 1.5 0 .8.6 1.5 1.5 1.5s1.5-.6 1.5-1.5c0-1.1-.9-1.7-1.5-1.5z"/>
    </g>
  </g>
  <g>
    <path fill="#754d29" fill-rule="nonzero" d="M1140.5 539.8c3.8-1.1 5.1-.4 9.1-.4.6 0 1.5 0 2.1.4.6.4 1.1 1.1.8 1.7-.2.4-.6.8-1.1 1.1-.8.4-1.7.4-2.3.8-.8.4-1.5 1.3-1.3 2.1.2 1.7 3.4 2.5 2.5 4.2-.6 1.3-3 .6-4 1.5-.6.6-.4 1.9 0 2.8.6.8 1.3 1.5 1.7 2.5-1.3.8-3.4-.2-4.2 1.1-.4.6-.2 1.3-.2 1.9 0 .6-.2 1.5-.8 1.5-.2 0-.4-.2-.8-.2-3.2-2.1-5.9-4.2-8.7-6.8-.8-.6-1.5-1.5-1.5-2.5 1.3 0 2.8 0 4 .4-.2-1.3-.8-2.8-1.9-3.6 1.3-1.1 3.2-1.3 4.7-.8.2-.8-.8-1.5-1.7-1.9-.8-.2-1.9-.4-2.3-1.3 1.9-.4 3.8-.6 5.7-.8-1.5-.8-3.2-1.7-4.7-2.3 1-1 3.6-1.4 4.9-1.4"/>
    <path fill="#221f1f" fill-rule="nonzero" d="M1140.7 540c3.2-.6 6.6-.6 9.8-.2.6 0 2.5.6 1.7 1.9-.4.4-1.1.6-1.7.8-.6.2-1.3.4-1.9.8-1.1.6-1.5 1.9-.8 3 .6 1.1 1.7 1.5 2.3 2.3.8 1.7-2.1 1.5-3 1.7-1.1.4-1.5 1.3-1.5 2.3.2 1.7 1.7 2.5 2.3 4 0-.2 0-.4.2-.4-1.3.8-2.8-.2-3.8.6-.4.4-.6.8-.6 1.3s.2.8 0 1.3c0 .4 0 .6-.4.6-.4.2-.4 0-.8-.2-1.9-1.3-3.6-2.5-5.3-4-.8-.6-1.7-1.5-2.5-2.1-.8-.6-1.9-1.5-1.9-2.5l-.4.4c1.3 0 2.5 0 3.8.4.2 0 .4-.2.4-.4-.2-1.5-1.1-2.8-1.9-3.8v.6c1.3-.8 2.8-1.3 4.5-.8.2 0 .4-.2.4-.4.2-2.3-3.2-1.7-4-3.4 0 .2-.2.4-.2.4 1.9-.4 3.8-.6 5.7-.6.2 0 .4-.4.2-.6-1.5-.8-3.2-1.7-4.7-2.3v.6c.7-.8 2.4-1.1 4.1-1.3.4 0 .4-.6 0-.6-1.7 0-3.6.4-5.1 1.3-.2.2-.2.4 0 .6 1.5.8 3.2 1.7 4.7 2.3 0-.2.2-.4.2-.6-1.9.2-3.8.4-5.7.8-.2 0-.2.2-.2.4.2.6.6.8 1.3 1.3.8.4 2.8.4 2.5 1.9l.4-.4c-1.7-.4-3.4-.2-4.9.8-.2.2-.2.4 0 .6.8 1.1 1.5 2.1 1.9 3.6l.4-.4c-1.3-.4-2.5-.6-4-.4-.2 0-.4.2-.4.4.2 2.1 2.3 3.4 3.8 4.7 1.9 1.7 4 3.2 6.4 4.7.6.4 1.3.8 1.9.6.6-.2.8-1.1.8-1.5 0-.6-.4-1.5.2-2.1.4-.4 1.1-.2 1.5-.2.8 0 1.5 0 2.3-.4.2-.2.2-.2.2-.4-.6-1.3-2.1-2.3-2.1-4 0-1.7 1.9-1.3 3.2-1.7 1.9-.4 1.7-2.1.6-3.2-.8-.8-2.3-1.7-1.5-3 .8-1.5 3-1.3 4-2.3.6-.6.8-1.5.2-2.3-.8-1.1-2.1-1.1-3.4-1.1-3 0-5.9-.4-8.7.6-.9-.4-.9 0-.5 0z"/>
  </g>
  <g>
    <path fill="#754d29" fill-rule="nonzero" d="M1085.1 563.4c-1.1 3.8-1.7 4.9-3.6 8.5-.2.6-.6 1.3-1.3 1.7-.6.4-1.5.4-1.9 0-.4-.4-.4-.8-.4-1.5 0-.8.2-1.7.2-2.5s-.4-1.9-1.3-2.1c-1.7-.6-3.8 1.9-4.9.4-1.1-1.1.8-2.8.2-4.2-.2-1.1-1.5-1.3-2.5-1.3-1.1 0-1.9.4-3 .4-.2-1.5 1.7-3 1.1-4.2-.4-.6-1.1-.6-1.7-.8-.6-.2-1.3-.8-.8-1.5l.6-.6c3.2-1.9 6.6-3.6 10-4.9.8-.4 2.1-1.1 3-.2-.2 1.3-1.9 3-3 4 1.3.8 3.6-.8 4.9-.6.4 1.7-.2 3.4-1.3 4.7.6.6 1.7 0 2.3-.6.6-.6 1.3-1.5 2.1-1.5-.4 1.9-1.1 3.6-1.9 5.5 1.5-1.1 2.8-2.1 4.2-3.4.5.6-.8 3.4-1 4.7"/>
    <path fill="#221f1f" fill-rule="nonzero" d="M1084.9 563.2c-1.1 3-2.3 5.7-3.8 8.5-.2.6-.6 1.3-1.3 1.5-.8.2-1.3-.4-1.3-1.3 0-1.1.2-1.9.2-3-.2-1.1-.6-1.9-1.7-2.1-1.1-.2-2.1.4-3.2.8s-1.7-.4-1.3-1.5c.2-.6.4-1.1.4-1.7 0-1.1-.4-1.9-1.5-2.3-1.5-.4-3 .2-4.5.2l.4.4c-.2-1.5 1.3-2.3 1.1-3.8 0-.4-.4-.8-.8-1.3-.2-.2-.6-.2-1.1-.4-.6-.2-.8-.6-.6-1.5.2-.2.4-.2.6-.4 1.9-1.1 3.8-2.1 5.7-3 1.1-.4 2.1-1.1 3.2-1.5.8-.4 2.1-1.1 3-.4 0-.2-.2-.2-.2-.4-.2 1.5-1.7 2.8-2.8 3.8-.2.2-.2.4 0 .6 1.7.8 3.4-.6 5.1-.6-.2 0-.2-.2-.4-.2.2 1.5-.2 3-1.3 4.2-.2.2-.2.4 0 .4 2.1 1.3 3-2.1 4.7-2.1l-.4-.4c-.4 1.9-1.1 3.6-1.9 5.5-.2.2.2.6.4.4 1.5-1.1 2.8-2.1 4.2-3.2-.2 0-.4-.2-.4-.2.7 1.8-.3 3.5-.5 5-.2.4.4.6.6.2.4-1.5 1.5-3.4 1.1-5.1 0-.2-.4-.4-.4-.2-1.5 1.1-2.8 2.1-4.2 3.4.2.2.4.2.4.4.6-1.7 1.3-3.6 1.9-5.5 0-.2 0-.4-.4-.4-.6 0-1.1.2-1.5.6-.6.6-1.7 2.3-2.8 1.5v.4c1.3-1.5 1.7-3.2 1.3-4.9 0-.2-.2-.2-.4-.2-1.5 0-3.4 1.5-4.7.8v.6c1.1-1.3 2.8-2.3 3-4 0-.2 0-.4-.2-.4-1.5-1.1-3.8.4-5.3 1.1-2.5 1.1-4.9 2.3-7.2 3.6-.6.4-1.5.6-1.5 1.5 0 .6.4 1.3 1.1 1.5.6.4 1.3.4 1.7 1.1.4.6 0 1.1-.2 1.7-.4.6-.6 1.5-.6 2.1 0 .2.2.4.4.4 1.5 0 5.7-1.5 5.3 1.5-.2 1.1-1.1 2.3-.2 3.4.6.8 1.7.6 2.5.2.6-.2 1.3-.6 1.9-.6 1.5 0 1.7 1.5 1.7 2.5 0 1.3-.6 3 .8 3.6 1.3.6 2.5-.4 3.2-1.5 1.7-2.8 3.2-5.9 3.8-9.1-.7-.4-1.1-.4-1.1-.2z"/>
  </g>
  <g>
    <path fill="#495c85" fill-rule="nonzero" d="M1046.2 694.3l-.4 48.2-46.7 1.3.7-48.2 46.4-1.3z"/>
    <path fill="#29344b" fill-rule="nonzero" d="M999.1 743.8l-13.4-5.8.7-48.1 13.4 5.7-.7 48.2z"/>
    <path fill="#33405c" fill-rule="nonzero" d="M999.8 695.6l-13.4-5.7 46.5-1.3 13.3 5.7-46.4 1.3z"/>
    <g>
      <g fill="#fff" fill-rule="nonzero" stroke="#fff" stroke-width="1.05">
        <path d="M1024.8 715.1c-1.1 0-1.7.2-2.3.4l.4 1.3c.4-.2 1.1-.4 1.5-.4.8 0 1.3.4 1.3 1.1h-.2c-.2-.2-.6-.4-1.1-.4-.4 0-.6.2-.8.4-.8.2-1.5.8-1.5 1.7 0 1.1.8 1.7 2.1 1.7.8 0 1.3-.4 1.7-.8v.6h1.5v-3.4c0-.8-.2-1.5-.6-1.9-.3-.3-.9-.5-2-.3z"/>
        <path d="M1028.8 713.2c-.2.2-.4.8-.4 1.5v.4h-.6v1.3h.6l.2 4.5h1.7l-.2-4.5h1.3v-1.3h-1.3v-.2c0-.4.2-.6.6-.6.2 0 .4 0 .8.2v-1.3c-.2 0-.6-.2-1.3-.2-.7-.2-1.2 0-1.4.2z"/>
        <path d="M1035.4 716.4v-1.5h-1.3v-1.5h-1.7v1.5h-.6v1.5h.6v2.8c0 1.3.6 1.7 1.7 1.7.6 0 .8-.2 1.3-.4v-1.3c-.2.2-.4.2-.8.2s-.6-.2-.6-.6v-2.5l1.4.1z"/>
        <path d="M1020.1 716.4v-1.1h-1.7l.2 5.7h1.7v-2.1c0-1.3.6-2.1 1.7-2.1v-1.7c-1 0-1.7.5-1.9 1.3z"/>
        <path d="M1015.7 715.6h-.4v-.2c0-1.1-.8-1.9-1.9-1.9-1.1 0-1.9.8-1.9 1.9v.2h-.4c-1.1 0-1.9.8-1.9 1.9 0 1.1.8 1.9 1.9 1.9h.4v.2c0 1.1.8 1.9 1.9 1.9 1.1 0 1.9-.8 1.9-1.9v-.2h.4c1.1 0 1.9-.8 1.9-1.9 0-1.1-.9-1.9-1.9-1.9zm-2.6 1.6h.8v.4h-.8v-.4z"/>
      </g>
      <path fill="#303591" fill-rule="nonzero" d="M1022.3 719.4c0-1.3.8-1.9 2.3-1.9.6 0 1.1 0 1.5.2 0-.6-.4-1.1-1.3-1.1-.6 0-1.1.2-1.5.4l-.4-1.3c.6-.2 1.3-.4 2.3-.4.8 0 1.5.2 1.9.6.4.4.6 1.1.6 1.9v3.4h-1.5v-.6c-.4.4-.8.8-1.7.8-1.4-.3-2.2-1-2.2-2zm3.8-.5v-.2c-.2-.2-.6-.2-1.1-.2-.6 0-1.1.2-1.1.8 0 .4.4.6.8.6.7-.1 1.4-.5 1.4-1z"/>
      <path fill="#303591" fill-rule="nonzero" d="M1028.4 716.4h-.6v-1.3h.6v-.4c0-.6.2-1.1.4-1.5.2-.2.6-.4 1.3-.4.4 0 .8 0 1.3.2v1.3c-.2 0-.4-.2-.8-.2s-.6.2-.6.6v.2h1.3v1.3h-1.3l.2 4.5h-1.7l-.1-4.3z"/>
      <path fill="#303591" fill-rule="nonzero" d="M1032.7 719.2v-2.8h-.6v-1.5h.6v-1.5h1.7v1.5h1.3v1.5h-1.3v2.5c0 .4.2.6.6.6.2 0 .6 0 .8-.2v1.3c-.4.2-.6.4-1.3.4-1.2-.1-1.8-.6-1.8-1.8z"/>
      <path fill="#303591" fill-rule="nonzero" d="M1018.4 715.3h1.7v1.1c.2-.8.8-1.3 1.9-1.3v1.7c-1.1 0-1.7.6-1.7 2.1v2.1h-1.7l-.2-5.7z"/>
      <path fill="#526795" fill-rule="nonzero" d="M1011.2 719.6c-1.1 0-1.9-.8-1.9-1.9 0-1.1.8-1.9 1.9-1.9 1.1 0 1.9.8 1.9 1.9 0 1-.8 1.9-1.9 1.9zm0-3.2c-.6 0-1.3.6-1.3 1.3 0 .7.6 1.3 1.3 1.3.6 0 1.3-.6 1.3-1.3 0-.7-.6-1.3-1.3-1.3z"/>
      <path fill="#8c9ed0" fill-rule="nonzero" d="M1013.5 717.5c-1.1 0-1.9-.8-1.9-1.9 0-1.1.8-1.9 1.9-1.9 1.1 0 1.9.8 1.9 1.9.1.8-.8 1.9-1.9 1.9zm-.2-3.2c-.6 0-1.3.6-1.3 1.3 0 .7.6 1.3 1.3 1.3.6 0 1.3-.6 1.3-1.3 0-.7-.4-1.3-1.3-1.3z"/>
      <path fill="#00a5dc" fill-rule="nonzero" d="M1013.5 721.7c-1.1 0-1.9-.8-1.9-1.9 0-1.1.8-1.9 1.9-1.9 1.1 0 1.9.8 1.9 1.9.1 1.1-.8 1.9-1.9 1.9zm0-3.2c-.6 0-1.3.6-1.3 1.3 0 .6.6 1.3 1.3 1.3.6 0 1.3-.6 1.3-1.3 0-.6-.6-1.3-1.3-1.3z"/>
      <path fill="#303591" fill-rule="nonzero" d="M1015.9 719.4c-1.1 0-1.9-.8-1.9-1.9 0-1.1.8-1.9 1.9-1.9 1.1 0 1.9.8 1.9 1.9 0 1-.9 1.9-1.9 1.9zm-.2-3c-.6 0-1.3.6-1.3 1.3 0 .6.6 1.3 1.3 1.3.6 0 1.3-.6 1.3-1.3-.1-.7-.5-1.3-1.3-1.3z"/>
    </g>
  </g>
  <g>
    <path fill="#495c85" fill-rule="nonzero" d="M1075.9 705.4l-.4 48.1-46.5 1.1.5-48.2 46.4-1z"/>
    <path fill="#29344b" fill-rule="nonzero" d="M1029 754.6l-13.5-5.7.6-48.2 13.4 5.7-.5 48.2z"/>
    <path fill="#33405c" fill-rule="nonzero" d="M1029.5 706.4l-13.4-5.7 46.5-1.3 13.3 6-46.4 1z"/>
    <g>
      <g fill="#fff" fill-rule="nonzero" stroke="#fff" stroke-width="1.05">
        <path d="M1054.5 726c-1.1 0-1.7.2-2.3.4l.4 1.3c.4-.2 1.1-.4 1.5-.4.8 0 1.3.4 1.3 1.1h-.2c-.2-.2-.6-.4-1.1-.4-.4 0-.6.2-.8.4-.8.2-1.5.8-1.5 1.7 0 1.1.8 1.7 2.1 1.7.8 0 1.3-.4 1.7-.8v.6h1.5v-3.4c0-.8-.2-1.5-.6-1.9-.3-.1-.9-.3-2-.3z"/>
        <path d="M1058.5 724.3c-.2.2-.4.8-.4 1.5v.4h-.6v1.3h.6l.2 4.5h1.7l-.2-4.5h1.3v-1.3h-1.3v-.2c0-.4.2-.6.6-.6.2 0 .4 0 .8.2v-1.3c-.2 0-.6-.2-1.3-.2-.7-.3-1.1-.1-1.4.2z"/>
        <path d="M1065.1 727.4V726h-1.3v-1.5h-1.7v1.5h-.6v1.5h.6v2.8c0 1.3.6 1.7 1.7 1.7.6 0 .8-.2 1.3-.4v-1.3c-.2.2-.4.2-.8.2s-.6-.2-.6-.6v-2.5h1.4z"/>
        <path d="M1049.8 727.4v-1.1h-1.7l.2 5.7h1.7v-2c0-1.3.6-2.1 1.7-2.1v-1.7c-1-.2-1.6.4-1.9 1.2z"/>
        <path d="M1045.6 726.6h-.4v-.2c0-1.1-.8-1.9-1.9-1.9-1.1 0-1.9.8-1.9 1.9v.2h-.4c-1.1 0-1.9.8-1.9 1.9 0 1.1.8 1.9 1.9 1.9h.4v.2c0 1.1.8 1.9 1.9 1.9 1.1 0 1.9-.8 1.9-1.9v-.2h.4c1.1 0 1.9-.8 1.9-1.9 0-1.1-1.1-1.9-1.9-1.9zm-2.7 1.7h.8v.4h-.8v-.4z"/>
      </g>
      <path fill="#303591" fill-rule="nonzero" d="M1052 730.2c0-1.3.8-1.9 2.3-1.9.6 0 1.1 0 1.5.2 0-.6-.4-1.1-1.3-1.1-.6 0-1.1.2-1.5.4l-.4-1.3c.6-.2 1.3-.4 2.3-.4.8 0 1.5.2 1.9.6.4.4.6 1.1.6 1.9v3.4h-1.5v-.6c-.4.4-.8.8-1.7.8-1.2-.1-2.2-.7-2.2-2zm3.8-.4v-.2c-.2-.2-.6-.2-1.1-.2-.6 0-1.1.2-1.1.8 0 .4.4.6.8.6.7 0 1.4-.4 1.4-1z"/>
      <path fill="#303591" fill-rule="nonzero" d="M1058.1 727.4h-.6v-1.3h.6v-.4c0-.6.2-1.1.4-1.5.2-.2.6-.4 1.3-.4.4 0 .8 0 1.3.2v1.3c-.2 0-.4-.2-.8-.2s-.6.2-.6.6v.2h1.3v1.3h-1.3l.2 4.5h-1.7l-.1-4.3z"/>
      <path fill="#303591" fill-rule="nonzero" d="M1062.4 730v-2.8h-.6v-1.5h.6v-1.5h1.7v1.5h1.3v1.5h-1.3v2.5c0 .4.2.6.6.6.2 0 .6 0 .8-.2v1.3c-.4.2-.6.4-1.3.4-1.2.1-1.8-.3-1.8-1.8z"/>
      <path fill="#303591" fill-rule="nonzero" d="M1048.1 726.2h1.7v1.1c.2-.8.8-1.3 1.9-1.3v1.7c-1.1 0-1.7.6-1.7 2.1v2.1h-1.7l-.2-5.7z"/>
      <path fill="#526795" fill-rule="nonzero" d="M1041.1 730.6c-1.1 0-1.9-.8-1.9-1.9 0-1.1.8-1.9 1.9-1.9 1.1 0 1.9.8 1.9 1.9-.2.9-1 1.9-1.9 1.9zm-.2-3.2c-.6 0-1.3.6-1.3 1.3 0 .6.6 1.3 1.3 1.3.7 0 1.3-.6 1.3-1.3 0-.6-.6-1.3-1.3-1.3z"/>
      <path fill="#8c9ed0" fill-rule="nonzero" d="M1043.3 728.3c-1.1 0-1.9-.8-1.9-1.9 0-1.1.8-1.9 1.9-1.9 1.1 0 1.9.8 1.9 1.9 0 1-.9 1.9-1.9 1.9zm0-3c-.6 0-1.3.6-1.3 1.3 0 .6.6 1.3 1.3 1.3.6 0 1.3-.6 1.3-1.3 0-.7-.7-1.3-1.3-1.3z"/>
      <path fill="#00a5dc" fill-rule="nonzero" d="M1043.5 732.5c-1.1 0-1.9-.8-1.9-1.9 0-1.1.8-1.9 1.9-1.9 1.1 0 1.9.8 1.9 1.9 0 1.1-1.1 1.9-1.9 1.9zm-.2-2.9c-.6 0-1.3.6-1.3 1.3 0 .6.6 1.3 1.3 1.3.6 0 1.3-.6 1.3-1.3-.1-.9-.7-1.3-1.3-1.3z"/>
      <path fill="#303591" fill-rule="nonzero" d="M1045.6 730.4c-1.1 0-1.9-.8-1.9-1.9 0-1.1.8-1.9 1.9-1.9 1.1 0 1.9.8 1.9 1.9 0 1.1-.8 1.9-1.9 1.9zm0-3.2c-.6 0-1.3.6-1.3 1.3 0 .6.6 1.3 1.3 1.3.7 0 1.3-.6 1.3-1.3 0-.6-.7-1.3-1.3-1.3z"/>
    </g>
  </g>
  <g>
    <path fill="#495c85" fill-rule="nonzero" d="M1112.9 716.2l-.7 48.2-46.4 1.2.6-48.1 46.5-1.3z"/>
    <path fill="#29344b" fill-rule="nonzero" d="M1065.8 765.6l-13.4-5.7.4-48.2 13.6 5.8-.6 48.1z"/>
    <path fill="#33405c" fill-rule="nonzero" d="M1066.4 717.5l-13.6-5.8 46.5-1.2 13.6 5.7-46.5 1.3z"/>
    <g>
      <g fill="#fff" fill-rule="nonzero" stroke="#fff" stroke-width="1.05">
        <path d="M1091.4 737c-1.1 0-1.7.2-2.3.4l.4 1.3c.4-.2 1.1-.4 1.5-.4.8 0 1.3.4 1.3 1.1h-.2c-.2-.2-.6-.4-1.1-.4-.4 0-.6.2-.8.4-.8.2-1.5.8-1.5 1.7 0 1.1.8 1.7 2.1 1.7.8 0 1.3-.4 1.7-.8v.6h1.5v-3.4c0-.8-.2-1.5-.6-1.9-.5-.1-1.1-.3-2-.3z"/>
        <path d="M1095.3 735.3c-.2.2-.4.8-.4 1.5v.4h-.6v1.3h.6l.2 4.5h1.7l-.2-4.5h1.3v-1.3h-1.3v-.2c0-.4.2-.6.6-.6.2 0 .4 0 .8.2v-1.3c-.2 0-.6-.2-1.3-.2-.6-.4-1-.2-1.4.2z"/>
        <path d="M1102.1 738.3v-1.5h-1.3v-1.5h-1.7v1.5h-.6v1.5h.6v2.8c0 1.3.6 1.7 1.7 1.7.6 0 .8-.2 1.3-.4V741c-.2.2-.4.2-.8.2s-.6-.2-.6-.6V738l1.4.3z"/>
        <path d="M1086.6 738.3v-1.1h-1.7l.2 5.7h1.7v-2.1c0-1.3.6-2.1 1.7-2.1V737c-1.1 0-1.5.4-1.9 1.3z"/>
        <path d="M1082.3 737.6h-.4v-.2c0-1.1-.8-1.9-1.9-1.9-1.1 0-1.9.8-1.9 1.9v.2h-.4c-1.1 0-1.9.8-1.9 1.9 0 1.1.8 1.9 1.9 1.9h.4v.2c0 1.1.8 1.9 1.9 1.9 1.1 0 1.9-.8 1.9-1.9v-.2h.4c1.1 0 1.9-.8 1.9-1.9 0-1.2-.8-1.9-1.9-1.9zm-2.7 1.7h.8v.4h-.8v-.4z"/>
      </g>
      <path fill="#303591" fill-rule="nonzero" d="M1088.7 741.2c0-1.3.8-1.9 2.3-1.9.6 0 1.1 0 1.5.2 0-.6-.4-1.1-1.3-1.1-.6 0-1.1.2-1.5.4l-.4-1.3c.6-.2 1.3-.4 2.3-.4.8 0 1.5.2 1.9.6.4.4.6 1.1.6 1.9v3.4h-1.5v-.6c-.4.4-.8.8-1.7.8-1.2-.3-2-.9-2.2-2zm3.8-.4v-.2c-.2-.2-.6-.2-1.1-.2-.6 0-1.1.2-1.1.8 0 .4.4.6.8.6 1 .1 1.4-.4 1.4-1z"/>
      <path fill="#303591" fill-rule="nonzero" d="M1095 738.5h-.6v-1.3h.6v-.4c0-.6.2-1.1.4-1.5.2-.2.6-.4 1.3-.4.4 0 .8 0 1.3.2v1.3c-.2 0-.4-.2-.8-.2s-.6.2-.6.6v.2h1.3v1.3h-1.3l.2 4.5h-1.7l-.1-4.3z"/>
      <path fill="#303591" fill-rule="nonzero" d="M1099.1 741v-2.8h-.6v-1.5h.6v-1.5h1.7v1.5h1.3v1.5h-1.3v2.5c0 .4.2.6.6.6.2 0 .6 0 .8-.2v1.3c-.4.2-.6.4-1.3.4-1.2-.1-1.8-.5-1.8-1.8z"/>
      <path fill="#303591" fill-rule="nonzero" d="M1084.9 737.2h1.7v1.1c.2-.8.8-1.3 1.9-1.3v1.7c-1.1 0-1.7.6-1.7 2.1v2.1h-1.7l-.2-5.7z"/>
      <path fill="#526795" fill-rule="nonzero" d="M1077.9 741.4c-1.1 0-1.9-.8-1.9-1.9 0-1.1.8-1.9 1.9-1.9 1.1 0 1.9.8 1.9 1.9 0 1.1-.9 1.9-1.9 1.9zm0-2.9c-.6 0-1.3.6-1.3 1.3 0 .7.6 1.3 1.3 1.3.7 0 1.3-.6 1.3-1.3-.3-.9-.7-1.3-1.3-1.3z"/>
      <path fill="#8c9ed0" fill-rule="nonzero" d="M1080 739.3c-1.1 0-1.9-.8-1.9-1.9 0-1.1.8-1.9 1.9-1.9 1.1 0 1.9.8 1.9 1.9 0 1.1-.9 1.9-1.9 1.9zm0-3.2c-.6 0-1.3.6-1.3 1.3 0 .6.6 1.3 1.3 1.3.6 0 1.3-.6 1.3-1.3 0-.7-.7-1.3-1.3-1.3z"/>
      <path fill="#00a5dc" fill-rule="nonzero" d="M1080.2 743.6c-1.1 0-1.9-.8-1.9-1.9 0-1.1.8-1.9 1.9-1.9 1.1 0 1.9.8 1.9 1.9 0 1-.8 1.9-1.9 1.9zm-.2-3.2c-.6 0-1.3.6-1.3 1.3 0 .7.6 1.3 1.3 1.3.6 0 1.3-.6 1.3-1.3 0-.7-.5-1.3-1.3-1.3z"/>
      <path fill="#303591" fill-rule="nonzero" d="M1082.3 741.4c-1.1 0-1.9-.8-1.9-1.9 0-1.1.8-1.9 1.9-1.9 1.1 0 1.9.8 1.9 1.9 0 1.1-.8 1.9-1.9 1.9zm0-3.1c-.6 0-1.3.6-1.3 1.3 0 .6.6 1.3 1.3 1.3.6 0 1.3-.6 1.3-1.3 0-.7-.6-1.3-1.3-1.3z"/>
    </g>
  </g>
  <g>
    <g fill-rule="nonzero">
      <path fill="#fff" stroke="#303591" stroke-width="2.16" d="M440.7 434.1h75.1c8.7 0 15.9-7.2 15.9-15.9v-28.7c0-8.7-7.2-15.9-15.9-15.9h-75.1c-8.7 0-15.9 7.2-15.9 15.9v28.7c0 8.7 7.2 15.9 15.9 15.9z"/>
      <g fill="#303591">
        <path d="M496.3 416.6v-7l16.6-6.8-16.6-6.8v-7l23.8 10.4v6.8l-23.8 10.4z"/>
        <path d="M493.4 426.3h-6.3l-21.7-45.4h6.3l21.7 45.4z"/>
        <path d="M461.7 416.6l-23.8-10.4v-6.8l23.8-10.4v7l-16.6 6.8 16.6 6.8v7z"/>
      </g>
    </g>
    <path fill="#b2b2b2" fill-rule="nonzero" d="M502.1 579.3c-14 4.9-28.9 6.4-43.5 7.9 14.2 2.5 28.4 4 42.9 4.9 1.3 0 2.8.4 2.8 1.7 0 .6-.4 1.1-.8 1.5-5.7 5.1-12.9 8.1-20.4 9.8-7.4 1.7-15.1 2.1-22.7 3.2-.8.2-1.9.2-2.3 1.1 12.1 4.9 25.5 4.7 38.6 4.5l49.7-.6c1.9 0 4.5-.6 4.5-2.5 0-.6-.2-1.1-.6-1.5-2.8-4.7-7.6-7.2-11.7-10.8-.8-.8-1.7-1.7-2.1-2.8-.4-1.1-.2-2.5.6-3.2.6-.6 1.7-.6 2.5-1.3 1.5-1.1 1.1-3.4-.2-4.7-1.3-1.3-3.2-1.7-4.9-2.1-7.2-1.5-14.2-3-21.4-4.5-3.6-.8-7.4-1.5-11-.4"/>
    <path fill="#3a2416" fill-rule="nonzero" d="M494.6 416.7c.2 1.5.4 2.8 0 4.2-.4 1.3-1.3 2.8-2.8 3-1.3.2-3.2-.4-4 .6-.4.4-.4 1.1-.6 1.7-.2 1.5-.8 3-.8 4.7 0 1.5.8 3.2 2.3 3.6 1.3.4 2.5-.2 3.8-.8 1.7-.6 3.6-1.1 5.5-1.3 2.1 0 4.5.2 6.2-1.1 2.1-1.5 2.5-4.5 1.7-6.8s-2.5-4.2-4.2-5.9c-.8-.8-1.7-1.7-1.7-3v-.6c-.2-.2-.4-.2-.6-.2h-2.3c-.6 0-1.3 0-1.7.2-.6.2-1.2 1.1-.8 1.7"/>
    <path fill="#221f1f" fill-rule="nonzero" d="M494 416.7c.2 2.3.6 6.6-3 6.6-.8 0-1.9-.2-2.8.2-1.1.4-1.3 1.3-1.5 2.3-.4 2.3-1.5 4.9-.4 7 .8 2.1 2.8 2.8 4.9 2.1 1.3-.4 2.3-1.1 3.6-1.3 1.5-.4 3-.4 4.2-.6 2.1 0 4.7 0 6.4-1.7 3.2-3.4.8-8.3-1.7-11.2-.8-1.1-2.1-1.9-2.8-3.2-.4-1.1 0-2.1-1.3-2.3-1.8-.4-6.5-.9-5.6 2.1.2.8 1.3.4 1.1-.2-.4-1.3 2.3-1.1 3-1.1h1.1c.5 0 .2 0 .4.2.2.4 0 .8.2 1.3.6 1.7 2.5 3 3.6 4.5 1.3 1.5 2.3 3.4 2.3 5.3s-.8 3.8-2.8 4.7c-1.9.6-4.2.4-6.4.6-2.1.2-3.8 1.1-5.9 1.7-1.1.4-2.1.4-3-.4-.6-.8-.8-1.9-.8-2.8 0-1.1.4-2.3.6-3.4.2-1.3.2-2.5 1.7-2.5.8 0 1.7.2 2.5 0s1.7-.6 2.1-1.5c1.5-1.9 1.3-4.2 1.1-6.4.3-.6-1-.6-.8 0z"/>
    <path fill="#895d3b" fill-rule="nonzero" d="M490 550.4c.8 1.1 1.5 2.8 2.1 4.2 2.8 6.8 5.5 14.2 5.3 22.3 0 1.3-.2 2.5-.4 3.6-1.1 3.4-3.8 4.2-6.2 4.9 5.5.2 10.8 0 16.3-.8 0-4.7.8-9.1.6-13.8 0-3.6-.6-7-1.5-10.4-1.9-7.2-5.7-14.2-10.8-14.6-1.3-.2-2.5.2-3.4 1.7-.6 1.1-1.1 3-1.9 3.4"/>
    <path fill="#221f1f" fill-rule="nonzero" d="M489.5 550.6c1.9 2.5 3 5.9 4 8.9 1.1 3.2 2.1 6.6 2.8 10 .6 3.4 1.1 7.4.2 10.8-.8 3-3.2 4-5.9 4.7-.4 0-.2.6 0 .6 5.5.2 10.8 0 16.3-.8.2 0 .4-.2.4-.4 0-4.2.6-8.7.6-12.9 0-4-.6-8.1-1.7-11.9-1.1-3.4-2.3-6.8-4.2-9.6-1.5-2.1-3.4-4-5.9-4.5-1.3-.2-2.5-.2-3.4.6-1.3 1.1-1.3 3.4-2.8 4.2-.4.2 0 .8.4.6 1.3-.8 1.5-2.5 2.1-3.8 1.3-1.7 3.6-1.3 5.3-.4 3.4 1.9 5.3 5.9 6.6 9.3 1.7 4.2 2.8 8.9 3 13.6.2 4.9-.6 9.8-.6 14.9l.4-.4c-5.3.6-10.8 1.1-16.3.8v.6c2.3-.6 4.7-1.5 5.9-3.8 1.5-3.2 1.1-7.2.6-10.6-.4-3.8-1.5-7.4-2.8-11-.6-1.7-1.3-3.6-1.9-5.3-.6-1.7-1.3-3.4-2.3-4.9-.3-.1-1 .3-.8.7z"/>
    <path fill="#3a2416" fill-rule="nonzero" d="M495.7 575.7c.6-.2 1.5.4 1.3 1.1-.2 3-1.3 5.9-3.8 7.4s-5.7 1.9-8.7 1.9c4.7 1.1 9.6.8 14.4.6 3.4-.2 7.2-.4 10.6 0 1.1.2 1.5 0 2.1-.8.4-.4.6-.8.6-1.3 1.5-4 .6-8.7-1.9-12.1-1.9-2.8 3.2-5.7-8.5-4.2-2.9.6-6.3 3.8-6.1 7.4"/>
    <path fill="#221f1f" fill-rule="nonzero" d="M495.9 575.9c.6 0 .8 1.1.8 1.5 0 .4 0 .8-.2 1.3-.2.6-.2 1.1-.4 1.7-.4 1.3-1.3 2.5-2.5 3.4-2.5 1.7-5.7 1.9-8.7 1.9-.6 0-.6.8-.2 1.1 6.4 1.5 12.7.6 19.3.6 1.7 0 3.2 0 4.9.2 1.3.2 2.1.2 3.2-.4 1.9-1.5 2.1-4.9 1.9-7-.2-2.8-1.3-5.1-2.5-7.4-.4-.6-.4-1.3-.4-2.1.2-2.3-1.7-2.8-3.6-2.8-2.8 0-5.7 0-8.1 1.5-2.1 1.3-4 3.8-3.8 6.4 0 .6 1.1.6 1.1 0 0-2.5 1.7-4.7 3.8-5.7 1.9-.8 4.5-1.1 6.8-1.1.6 0 2.1-.2 2.5.4.2.4 0 1.1 0 1.5 0 .6 0 1.3.2 1.9.2.6.8 1.3 1.1 1.9.6 1.3 1.1 2.5 1.3 3.8.2 1.3.2 2.3.2 3.6-.2 1.3-.4 3-1.3 3.8-1.1.8-2.5.2-3.6.2h-4.2c-6.2.2-12.5.8-18.5-.4 0 .4 0 .6-.2 1.1 3.8-.2 8.7-.6 11-4 1.1-1.5 1.5-3.2 1.7-5.1 0-1.1-.4-2.8-1.7-2.1-.3-.1-.3.3.1.3z"/>
    <path fill="#009247" fill-rule="nonzero" d="M484.9 527.1c-.2 5.7 1.9 11.5 3.4 17.2 1.5 5.7 2.3 11.9-.2 17.2 7.9-.8 15.7-1.1 23.6-.6.6-12.1-4-25.3-14.2-32-3.6-2.3-8.1-3.8-11.9-2.5"/>
    <path fill="#221f1f" fill-rule="nonzero" d="M484.2 527.1c-.2 5.9 1.9 11.5 3.4 17s2.5 11.7 0 17c-.2.4 0 .8.4.8 7.9-.8 15.7-1.1 23.6-.6.4 0 .6-.2.6-.6.6-12.5-4.2-26.5-15.5-33.1-3.4-1.9-7.4-3.2-11.2-1.9-.6.2-.4 1.5.4 1.1 8.3-2.8 16.3 5.3 20.2 11.7 4 6.6 5.5 14.4 5.1 22.3l.6-.6c-7.9-.4-15.7-.2-23.6.6.2.2.4.6.4.8 5.5-11.5-3.6-22.9-3.2-34.6.1-.6-1-.6-1.2.1z"/>
    <path fill="#895d3b" fill-rule="nonzero" d="M502.1 558.1c1.3 1.5 2.1 3.8 3 5.9 3.8 9.1 7.4 19.3 7.2 30.1 0 1.7-.2 3.4-.6 4.9-1.5 4.5-5.1 5.7-8.5 6.6 7.4.2 15.1 0 22.5-1.1-.2-6.2 1.1-12.3 1.1-18.7 0-4.9-.8-9.6-2.1-14-2.8-9.8-8.1-19.1-14.9-19.7-1.7-.2-3.6.4-4.7 2.3-.8 1.5-1.3 4-2.5 4.7"/>
    <path fill="#221f1f" fill-rule="nonzero" d="M501.6 558.3c1.5 1.9 2.3 4.2 3.2 6.6.8 2.1 1.7 4 2.3 6.2 1.7 4.5 3 8.9 3.8 13.6.4 2.5.6 4.9.6 7.4 0 2.3 0 4.9-.6 7-1.3 3.6-4.5 5.1-8.1 5.9-.6.2-.4.8.2.8 7.4.2 15.1 0 22.5-1.1.2 0 .4-.2.4-.4 0-5.9.8-11.7 1.1-17.6 0-5.3-.8-10.8-2.3-15.9-1.3-4.5-3-8.9-5.7-12.7-2.1-3-4.9-5.7-8.5-6.6-1.7-.4-3.6-.2-4.9.8-.8.6-1.3 1.5-1.7 2.5-.4 1.1-.8 2.8-1.9 3.4-.6.2 0 1.1.4.8 1.5-.8 1.7-2.5 2.3-3.8.8-2.1 2.5-3.2 4.9-3 3.8.4 6.6 3.6 8.5 6.6 2.5 3.8 4.2 8.1 5.5 12.5 1.3 4.9 2.3 10 2.3 14.9 0 6.2-1.1 12.1-1.1 18l.4-.4c-7.4 1.1-14.9 1.3-22.5 1.1 0 .2 0 .6.2.8 2.5-.6 5.1-1.5 6.8-3.4 2.3-2.5 2.5-6.2 2.5-9.6 0-8.3-2.1-16.1-5.1-23.8-1.5-3.8-2.8-8.3-5.3-11.5 0-.2-.6.5-.2.9z"/>
    <path fill="#3a2416" fill-rule="nonzero" d="M508.6 592.5c.8-.4 1.9.6 1.9 1.5-.2 4-1.7 8.1-5.3 10-3.6 2.1-7.9 2.3-12.1 2.5 6.4 1.5 13.4 1.3 20 .8 4.7-.2 10-.4 14.6 0 1.3.2 2.1-.2 3-1.1.4-.4.8-1.1 1.1-1.7 1.9-5.3.8-11.5-2.5-16.1-2.5-3.6 4.5-7.9-11.9-5.7-4.7.6-9.1 4.9-8.7 9.3"/>
    <path fill="#221f1f" fill-rule="nonzero" d="M508.6 592.9c2.3-.4.6 4.9.2 5.7-.6 1.7-1.9 3.4-3.4 4.5-3.6 2.5-8.3 2.8-12.5 2.8-.6 0-.8 1.1-.2 1.3 8.5 1.9 17.2 1.1 25.9.6 2.3 0 4.7 0 7 .2 1.7.2 3.2.6 4.7-.4 2.8-1.7 3.2-6.4 3-9.3-.2-3.8-1.7-7-3.6-10.2-.6-.8-.6-1.7-.4-2.8 0-.8 0-1.9-.6-2.8-1.1-1.1-3-1.1-4.5-1.1-3.6 0-7.9.2-11 1.9-3.2 1.7-5.9 5.1-5.5 8.7 0 .8 1.5 1.1 1.5 0-.2-3.4 2.3-6.2 5.1-7.6 2.8-1.3 6.2-1.5 9.3-1.5 1.1 0 3-.2 3.8.6.4.4.2 1.1.2 1.7 0 .8 0 1.9.4 2.8.4.9 1.1 1.7 1.5 2.5.8 1.7 1.5 3.4 1.9 5.1.4 1.7.4 3.4.2 5.1-.2 1.7-.6 4-1.9 5.1-1.3.8-3 .4-4.5.2-1.9-.2-4-.2-5.9-.2-8.7.2-17.4 1.3-26.1-.4 0 .4-.2.8-.2 1.3 5.3-.2 11.9-.8 15.3-5.3 1.5-1.9 2.1-4.2 2.3-6.6.2-1.1.2-1.9-.4-2.8-.6-.6-1.3-.8-2.1-.4-.1.9.3 1.3.5 1.3z"/>
    <path fill="#1b75ba" fill-rule="nonzero" stroke="#1b75ba" stroke-width="1.21" d="M511.4 441.6l-22.3-5.1-7.2 5.3.4 5.5-1.1 3.2s2.8 13.4 4.2 17.4c1.1 3.4-9.1 28-5.7 30.1 3 1.7 4.5-.8 5.5.8 1.1 1.7 6.4-.4 6.4-.4l21.6-32.5 3.6-11.9-.4-5.5-5-6.9z"/>
    <path fill="#895d3b" fill-rule="nonzero" d="M432 424.1c-3.2.4-5.5 1.9-8.5 3.2-.4.2-1.1.4-1.5.8-.4.4-.4 1.1 0 1.5.2.2.6.4 1.1.4.6 0 1.5-.2 2.1 0 .6 0 1.5.4 1.7 1.1.4 1.3-1.5 3-.6 4 .8.8 2.3-.4 3.4-.2.8.2 1.1 1.3.8 2.1-.3.8-.4 1.7-.4 2.3 1.1.2 2.3-1.3 3.4-.6.4.2.4.8.6 1.3.2.4.6 1.1 1.1.8.2 0 .4-.2.4-.4 1.7-2.5 3-5.1 4.2-7.9.4-.8.6-1.7.2-2.3-1.1.4-1.9.8-2.8 1.5-.2-1.1-.2-2.3.2-3.4-1.3-.2-2.8 0-3.6.8-.4-.6 0-1.5.6-1.9.6-.4 1.3-1.1 1.3-1.7-1.1-.4-3 .8-4.5 1.3.8-1.1 1.7-2.1 2.8-3.4-.4-.6-3.6.2-4.2.4"/>
    <path fill="#221f1f" fill-rule="nonzero" d="M432 423.9c-3.2.2-5.9 1.9-8.7 3.2-1.1.4-2.3 1.3-1.9 2.5.4 1.3 1.7 1.1 2.8 1.1.8 0 2.1-.2 2.3 1.1 0 .6-.4 1.1-.6 1.7-.4.8-.6 1.7.2 2.3.8.6 1.9 0 2.8-.2 2.1-.2.8 3 .8 4 0 .2.2.4.2.4.6 0 1.1 0 1.5-.2.4-.2.6-.4 1.1-.4.6-.2.8.4 1.1 1.1.4 1.3 1.5 1.7 2.3.6 1.1-1.7 2.1-3.4 3.2-5.3.8-1.5 2.1-3.4 1.5-5.1 0-.2-.4-.4-.6-.4-1.1.4-1.9 1.1-3 1.7.2 0 .4.2.6.2-.2-1.1-.2-2.1.2-3.2 0-.2 0-.4-.2-.4-1.5-.2-3 0-4 1.1h.6c-.4-.8.8-1.5 1.3-2.1.4-.4.6-.8.6-1.3 0-.2-.2-.4-.2-.4-1.5-.4-3.2.8-4.7 1.3.2.2.2.4.4.6.8-1.1 1.9-2.1 2.8-3.2.2-.2.2-.4 0-.6-.4-.6-1.5-.4-2.1-.2-.8.2-1.9.4-2.5.6-.4.2 0 .8.4.6.6-.2 1.3-.4 1.9-.4.4 0 1.7-.4 1.9 0v-.6c-.8 1.1-1.7 2.1-2.8 3.4-.2.2 0 .8.4.6 1.3-.4 2.8-1.7 4.2-1.3 0-.2-.2-.2-.2-.4 0 .8-1.3 1.3-1.7 2.1-.4.6-.4 1.1-.2 1.7.2.2.4.2.6 0 .8-.8 2.1-1.1 3.4-.8 0-.2-.2-.2-.2-.4-.4 1.1-.4 2.3-.2 3.6 0 .2.4.4.6.2.8-.6 1.7-1.1 2.5-1.5-.2-.2-.4-.2-.6-.4.4 1.1-.2 2.1-.6 3-.4.6-.6 1.5-1.1 2.1-.8 1.5-1.5 3-2.3 4.2 0 .2-.2.2-.2.4-.6.2-.8 0-.8-.4 0-.2-.2-.6-.4-.8-.2-.4-.4-.6-.8-.6-1.1-.2-1.9 1.1-3 .8 0 .2.2.2.2.4 0-1.3.6-2.3.4-3.6-.2-.8-1.1-1.3-1.9-1.3-.8 0-3.2 1.1-2.5-.6.2-.8 1.1-1.7.6-2.8-.2-.8-1.1-1.3-1.9-1.5-.8 0-1.7.2-2.3 0-1.7-.4 0-1.7.6-1.9 2.8-1.3 5.5-2.5 8.5-3.4.1-.4.1-.9-.3-.9z"/>
    <path fill="#895d3b" fill-rule="nonzero" d="M467 418.4c.6-1.5 1.7-2.5 3-3.8.8-.8 2.1-1.9 1.9-3.2-1.1-.2-2.5 1.5-3.4.6-.2-.2-.2-.6-.2-1.1-.2-2.1-.2-4.2-.4-6.4 0-1.5-.2-2.5-1.5-3.2.2 3.2-.2 5.5-1.3 8.5-.8-.4-.8-1.7-.8-2.8 0-2.1.4-5.7-1.7-6.6-.8 2.8-.6 6.6-1.1 9.6-.4-1.9-1.1-4-1.5-5.9-.2-.6-.6-1.5-1.3-1.5-.8.2-.6 1.5-.2 2.3.8 1.7 1.3 3.4 1.5 5.3 0 .4-.2 1.3-.6 1.1-.2 0-.4-.2-.4-.4-1.1-1.3-2.1-2.5-3.2-4-.8.2-1.1 1.3-1.1 2.1.2.8.6 1.5 1.3 2.1 1.9 2.3 3.4 5.1 4.5 8.1.2.6.4 1.3 1.1 1.7.6.6 1.5.8 2.3.6 1.6.1 2.9-1.4 3.1-3.1"/>
    <path fill="#221f1f" fill-rule="nonzero" d="M467.2 418.6c.6-1.7 2.1-2.8 3.4-4 .8-.8 1.9-1.9 1.7-3.2 0-.2-.2-.4-.4-.4-.4 0-.8 0-1.1.2-.4.2-1.1.6-1.5.6-.8 0-.6-1.7-.6-2.3 0-.8 0-1.5-.2-2.3-.2-2.1.2-4.7-1.9-5.9-.2-.2-.6 0-.6.4.2 3-.4 5.7-1.1 8.5.2 0 .4-.2.6-.2-.8-.6-.6-2.1-.6-3v-2.8c-.2-1.3-.4-3-1.9-3.6-.2-.2-.6 0-.6.2-.8 3.2-.6 6.4-1.1 9.6h.8c-.4-1.3-.6-2.5-1.1-3.8-.2-1.1-.4-2.1-.8-3-.6-1.1-2.1-1.5-2.3 0-.2.6 0 1.3.4 1.9.4 1.1.8 2.3 1.1 3.4.2.6.2 1.3.2 1.9 0 .8-.6 0-.8-.2-.8-1.1-1.7-2.1-2.5-3.4 0 0-.2-.2-.4-.2-1.9.8-1.3 3-.4 4.5 1.7 2.3 3.2 4.5 4.2 7 .4 1.1.8 2.3 1.5 3.4.6.8 1.9 1.1 3 .8 1.8-.5 3.3-2.4 3-4.1 0-.6-.6-.8-.6-.2-.4 1.9-2.1 4-4.2 3-.8-.4-1.3-1.7-1.5-2.5-.4-.8-.8-1.7-1.3-2.8-.8-1.5-1.7-3-2.8-4.5-.6-.8-1.5-1.7-1.5-2.5 0-.2 0-.4.2-.8.2-.2.4-.2.6.2.4.2.8.8 1.1 1.3.6.6 1.1 1.7 1.9 2.3.4.2.8.2 1.1 0 .8-.8.2-2.8 0-3.6-.2-.8-.4-1.7-.8-2.5-.2-.4-.4-.8-.4-1.3v-.8c.6-.2.8 0 1.1.6.6 1.9 1.1 4.2 1.7 6.4 0 .4.6.4.8 0 .4-3.2 0-6.6 1.1-9.6-.2 0-.4.2-.6.2 1.7 1.1 1.5 3.4 1.5 5.1 0 1.5-.2 3.4 1.1 4.2.2.2.6 0 .6-.2.8-3 1.3-5.7 1.3-8.7-.2.2-.4.2-.6.4 1.5.8 1.3 2.3 1.3 3.8 0 1.7.2 3.4.2 4.9 0 .8.2 1.7 1.1 1.9 1.1.2 1.7-.8 2.8-.8-.2-.2-.2-.4-.4-.4.2 1.5-1.5 2.5-2.5 3.6-1.1 1.1-1.7 1.9-2.3 3.4-.8.1-.2.4 0-.1z"/>
    <path fill="#1b75ba" fill-rule="nonzero" d="M481 500.1c4 .8 7.6 0 11.9.8 3.2.6 6.6 1.3 9.8.8 6.2-.4 11.9-3.8 16.8-7.9-2.3-8.3-4.7-17-3-25.3 1.3-5.9 4-15.7 4-21.9"/>
    <path fill="#221f1f" fill-rule="nonzero" d="M481 500.3c1.5.6 3.2.6 4.9.6 1.7 0 3.6 0 5.3.2 3.8.4 7.6 1.5 11.5 1.3 6.6-.4 12.3-3.8 17.2-7.9.2-.2.2-.4.2-.6-2.5-8.7-4.7-17.4-2.8-26.5 1.5-6.8 3.8-13.6 3.6-20.6 0-.6-1.1-.6-1.1 0-.4 7.2-2.5 14.2-4 21.2-1.9 8.9.4 17.6 3 26.1 0-.2.2-.4.2-.6-4.9 4-10.8 7.4-17.2 7.6-3.4 0-6.8-.8-10.2-1.3-1.7-.2-3.4-.2-5.1-.2-1.7 0-3.4-.2-5.3 0-.4.1-.6.5-.2.7z"/>
    <g>
      <path fill="#895d3b" fill-rule="nonzero" d="M510.1 415.7c2.8-.8 5.5-2.5 6.4-5.3.4-1.3.2-2.8-.2-4-1.1-3.8-3.6-7.2-7-9.3-3.4-2.1-7.2-2.8-11-2.8-2.1 0-4.2.4-5.9 1.7-1.7 1.3-3 3.4-2.5 5.5.2 1.3 1.1 2.5.8 4-.2 1.7-3.4 3.4-3.8 4.9 1.1.4 2.8.6 2.3 1.7-.2.4-.6.8-.6 1.3 0 .4.6.8.8 1.1.6 1.3.2 3 .8 4.2.6.8 1.5.6 2.3.8 1.9.6 4.7.6 6.6.2.2 0 0 .8.2.8.2.2.4.4.6.8.4 1.1.6 1.9 1.1 3"/>
      <path fill="#221f1f" fill-rule="nonzero" d="M510.1 416.3c3.6-1.1 6.8-3.4 7-7.4 0-4-2.3-8.1-5.5-10.8-3.4-2.8-7.6-4.2-11.9-4.2-4 0-8.5 1.1-10 5.1-.2.8-.4 1.9-.2 2.8.2 1.3 1.3 2.5.8 3.8-.6 1.9-3 2.8-3.8 4.5-.2.2 0 .6.2.8.6.2 2.1.4 1.9 1.3-.2.4-.6.6-.6 1.3 0 .2.2.4.4.6.4.6.6 1.1.6 1.7 0 .8 0 1.7.4 2.5.6 1.5 2.5 1.7 4 1.9.8.2 1.9.2 2.8.2.6 0 1.1 0 1.7-.2.2 0 .8-.2 1.1-.2l-.4-.4c.2.6.2.8.4 1.5.6 1.1.8 2.1 1.3 3.4.2.6 1.5.4 1.1-.2-.4-1.1-.6-2.3-1.3-3.4 0-.2-.6-.6-.6-.6v-.6c0-.2-.2-.4-.4-.4-.6-.2-1.7.2-2.5.2-1.1 0-2.3 0-3.4-.2s-2.5-.2-3-1.5c-.4-.8-.2-1.9-.4-2.8-.2-.6-.8-1.5-.8-2.1.2-.4.6-.6.4-1.3-.2-1.3-1.9-1.5-2.8-1.7.2.2.2.6.4.8 1.1-2.3 4.5-3.2 3.8-6.2-.4-1.9-1.5-3.4-.6-5.5s3-3.4 5.1-3.8c7.9-1.9 17 2.3 19.5 10 .8 2.1 1.1 4.7-.2 6.6-1.3 1.7-3.2 2.8-5.3 3.4 0 .2.2 1.1.8 1.1z"/>
    </g>
    <g>
      <path fill="#c1976b" fill-rule="nonzero" d="M492.9 409.7c.2.4 0 .8-.2 1.1"/>
      <path fill="#221f1f" fill-rule="nonzero" d="M492.5 409.7v.2-.2.4-.2.2-.2.4-.2.2c0 .2 0 .2.2.4 0 0 .2.2.4.2s.4 0 .4-.2l.2-.2v-.4c0-.2 0-.6-.2-.8-.2-.2-.4-.2-.6-.2-.4.2-.6.4-.4.6z"/>
    </g>
    <g>
      <path fill="#895d3b" fill-rule="nonzero" d="M509.7 415.9c.2 1.5.4 2.8.4 4.2 0 .6.2 1.5-.2 2.1-.4.8-1.3 1.5-2.1 1.9-1.7.8-3.8 1.3-5.7 1.3-.4 0-.6 0-1.1-.2-.2-.2-.4-.6-.2-1.1"/>
      <path fill="#221f1f" fill-rule="nonzero" d="M509.3 416.1c.2 1.5.4 3 .4 4.2 0 .6.2 1.3-.2 1.9-.2.4-.6.8-1.1 1.3-1.1.6-2.3 1.1-3.6 1.3-.6.2-1.3.2-1.9.2-.2 0-1.7 0-1.5-.4.4-.6-.6-1.3-1.1-.6-.4.6-.2 1.5.4 1.7.6.4 1.7.4 2.3.4 1.7 0 3.4-.6 5.1-1.3 1.5-.6 2.5-1.9 2.5-3.4 0-.8-.2-1.9-.2-2.8-.2-1.1-.2-1.9-.4-2.8 0-.4-.4-.4-.6-.4-.1 0-.3.3-.1.7z"/>
    </g>
    <g>
      <path fill="#1b75ba" fill-rule="nonzero" d="M480.8 449.6c.8 3.4 2.1 6.8 3.2 10 1.1 3 2.1 6.6 1.5 10-.4 1.5-1.5 3-2.1 4.2-.8 1.7-1.5 3.4-2.1 5.3-1.3 3.8-1.9 7.9-1.9 11.9 0 3.4-.4 8.3 4 8.9.8.2 1.1-1.1.4-1.1-.6-.2-1.5-.4-1.9-1.1-.8-.8-1.1-1.9-1.1-3.2-.2-1.9-.2-3.8 0-5.5.2-4 1.1-7.9 2.5-11.7.6-1.7 1.5-3.6 2.5-5.1.6-1.1 1.1-2.1 1.1-3.2.4-3-.6-6.2-1.5-8.9-1.1-3.6-2.5-7.2-3.4-10.8-.1-.7-1.4-.5-1.2.3z"/>
    </g>
    <g>
      <path fill="#1b75ba" fill-rule="nonzero" d="M480.4 431.4c-5.3.2-10.4-4.5-12.7-9.3-.4-.6-.6-1.5-1.3-1.9-.4-.4-1.1-.4-1.7-.4-1.7-.2-3.4-.2-5.1-.4 1.3 5.1 2.5 10.4 3.8 15.5.6 2.8 1.5 5.7 3.4 7.9 1.3 1.3 2.8 2.1 4.2 3 8.3 4.2 17 8.1 25.7 11.2 2.5.8 5.1 1.7 7.6 1.1"/>
      <path fill="#221f1f" fill-rule="nonzero" d="M480.4 431.2c-4.7-.2-8.5-3.4-11-7.2-.8-1.3-1.5-3.6-3-4.5-.8-.4-1.9-.4-2.8-.4-1.3-.2-2.8-.2-4-.4-.4 0-.6.4-.4.6 1.1 4.7 2.1 9.1 3.4 13.8.8 3.6 1.5 7.6 4.5 10.4 1.5 1.3 3.2 2.1 4.7 3 2.1 1.1 4.2 2.1 6.4 3.2 4 1.9 8.1 3.8 12.3 5.3 2.3 1.1 4.9 1.9 7.2 2.8 2.3.8 4.7 1.3 7 .6.6-.2.4-1.1-.2-1.1-4.2.8-8.7-1.5-12.7-3s-7.9-3.2-11.9-5.1c-1.9-.8-3.8-1.7-5.7-2.8-1.7-.8-3.6-1.7-5.3-2.8-3.4-2.3-4.2-6.2-5.1-10-1.1-4.9-2.3-9.8-3.4-14.4-.2.2-.2.4-.4.6 1.3.2 2.8.2 4 .4.8 0 1.9 0 2.8.6.4.2.4.8.6 1.3.8 1.9 1.9 3.6 3.4 5.1 2.5 2.8 5.9 5.1 10 4.7-.2-.3-.2-.7-.4-.7z"/>
    </g>
    <g>
      <path fill="#221f1f" fill-rule="nonzero" d="M479.8 450.5c1.1 3.2 2.1 6.4 3 9.8.8 3.2 1.5 6.6 1.1 9.8-.2 1.7-1.1 3-1.5 4.7-.8 2.1-1.5 4-2.1 6.2-1.1 3.8-1.7 7.9-1.9 11.9 0 3.2 0 7.4 4 8.1.8.2 1.1-1.1.4-1.1-.8-.2-1.9-.6-2.3-1.3-.8-1.1-.6-2.8-.6-4 0-2.3 0-4.9.4-7.2.8-5.1 2.5-10 4.5-14.9 1.3-3.2.6-6.8 0-10.2-.8-4-2.1-8.1-3.4-11.9-.8-1-1.8-.6-1.6.1z"/>
    </g>
    <g>
      <path fill="#1b75ba" fill-rule="nonzero" d="M518 454.9c4.2-7 5.5-15.7 3.4-23.8-1.1-4.5-3.6-8.9-7.6-10.2-4.7-1.5-9.3 1.7-13.6 4-9.1 5.1-19.5 7.4-29.9 6.4"/>
      <path fill="#221f1f" fill-rule="nonzero" d="M518.2 454.9c3.2-4 4.5-10 4.7-15.1.2-4.9-.6-10.4-3.4-14.9-1.3-1.9-2.8-3.4-4.9-4.2-2.5-1.1-5.1-.6-7.6.2-2.8 1.1-5.1 2.5-7.6 4-2.8 1.5-5.5 2.8-8.5 3.8-3.4 1.1-6.8 1.9-10.4 2.3-3.4.4-6.8.2-10.2.2-.4 0-.6.8-.2.8 10.6 1.5 22.1-1.7 31.2-7 4.7-2.8 10.6-6.2 15.5-1.5 3.6 3.6 4.9 9.1 5.1 14 .2 3-.2 6.2-.8 9.1-.8 2.8-2.1 5.6-2.9 8.3-.2 0 0 .2 0 0z"/>
    </g>
    <g>
      <path fill="#009247" fill-rule="nonzero" d="M480.8 507.3c1.3 16.8 7.4 30.4 15.5 44.1 2.5 4.5 5.7 9.1 6.4 14.6 10.8-1.9 21.6-2.8 32.7-3-3.4-4.5-6.8-9.1-10-14-1.5-2.3-3.2-4.7-3.8-7.6-1.9-7.4 2.3-14.9 3.2-22.5.8-8.3-2.1-16.3-5.1-24-11.2 6.2-27.2.8-39.1 4.9v3.4c-1-.1 0 3.3.2 4.1"/>
      <path fill="#221f1f" fill-rule="nonzero" d="M480.2 507.3c1.3 16.3 7.9 31.4 16.1 45.2 2.5 4.2 5.1 8.5 5.7 13.4 0 .4.2.6.6.4 10.8-1.9 21.6-2.8 32.5-3 .4 0 .6-.4.4-.8-3-4-5.9-8.1-8.9-12.3-2.8-4-5.3-7.9-5.5-12.7 0-4.7 1.7-9.1 2.8-13.8 1.1-4.5 1.3-8.7.6-13.4-.8-5.5-3-10.6-4.9-15.7-.2-.4-.4-.4-.8-.4-5.9 3.2-12.9 3.2-19.7 3.2-6.4 0-13.2-.4-19.3 1.7-.2 0-.4.2-.4.4v3.4c0-.2.2-.2.2-.4-.9.8.4 3.8.6 4.8.2.8 1.3.6 1.1-.2-.2-1.1-.4-2.1-.6-3.2-.2-.6 0-.2.2-.8.2-.4 0-1.1 0-1.5v-1.9c-.2.2-.2.4-.4.4 12.7-4.2 27.2 1.7 39.3-4.9-.2-.2-.6-.2-.8-.4 1.9 4.5 3.6 9.1 4.7 13.8 1.1 5.1.8 10-.4 15.1-1.1 4.2-2.5 8.7-2.8 13.2 0 4.7 1.9 8.3 4.5 12.1 3.2 4.7 6.6 9.3 10 14 .2-.2.2-.6.4-.8-11 .2-21.9 1.3-32.7 3.2.2.2.4.4.6.4-.4-3.8-2.1-7.4-4-10.8-2.1-3.6-4.2-7.2-6.2-10.8-3.8-7.2-7-14.6-9.1-22.5-1.3-4.7-2.1-9.6-2.5-14.4-.2-.8-1.3-.8-1.3 0z"/>
    </g>
    <g>
      <path fill="#3a2416" fill-rule="nonzero" d="M490 396.6c-.4 1.5.8 3 2.1 3.6 1.3.6 3 1.1 4.2 1.7 1.3.6 2.5 2.1 2.1 3.6-.2.8-.8 1.7-.6 2.5.6 1.7 3.8.2 4.9 1.7.4.6.4 1.7 0 2.3-.4.6-1.1 1.3-1.3 2.1 1.7 1.5 3.4 3.6 2.3 5.5-.4.8-1.3 1.5-1.9 2.1-.6.6-1.3 1.7-1.1 2.5-2.3-.2-4.9 1.1-6.4 2.8 2.1.4 4-.2 6.2-1.1 1.7-.6 3.4-1.5 5.1-1.7 1.7-.2 3.8.2 4.9 1.5.4.4.8 1.1 1.5 1.5.4.4 1.1.4 1.7.6 1.3.2 2.3.6 3.2 1.5.8.8.8 2.3 0 3.2l-.4.4c-.2.6.4 1.1 1.1 1.3 2.8 1.3 3.6 5.3 1.9 7.6.6 1.3 2.3 1.3 3.4.4 1.1-.8 1.3-2.3 1.3-3.6 0-1.3 0-2.5.2-3.8.4-1.7 1.7-3.4 1.7-5.3 0-2.1-1.7-3.8-3.4-5.5-.8-.8-1.7-1.9-1.5-3 .2-.6.4-1.1.8-1.5.6-1.3 0-3-1.3-3.6.8-.8 1.3-2.1 1.5-3.4.2-1.3-.2-2.8 0-4 .2-1.5 1.1-2.5 1.7-3.8.6-1.3 1.1-2.8.2-4-1.3-1.9-4.5-1.5-5.7-3.4-.4-.8-.4-1.9-.8-2.8-.8-1.7-3.2-2.1-5.1-2.1-1.9 0-4.2.2-5.7-1.1-.6-.4-1.1-1.3-1.7-1.7-1.5-1.1-3.4-.6-4.9 0-1.5.6-3.2 1.5-4.9 1.7-1.1 0-2.1-.2-3.2.2-1.9 1.2-2.1 3.6-2.1 5.1"/>
      <path fill="#221f1f" fill-rule="nonzero" d="M489.3 396.6c-.4 2.1 1.3 3.8 3 4.7 1.3.6 2.5.8 3.8 1.5.6.4 1.3.8 1.5 1.5.4.8 0 1.7-.2 2.3-.6 1.5 0 2.8 1.7 3 .8.2 2.1-.2 2.8.2 1.5 1.1-.6 3-1.1 4-.2.2 0 .6 0 .6 1.7 1.7 3.6 3.8 1.5 5.9-1.3 1.1-2.5 2.1-2.1 4 .2-.2.4-.4.6-.8-2.5 0-5.1 1.1-6.8 3-.2.2-.2.8.2 1.1 3.8.8 7-1.9 10.4-2.5 1.9-.4 3.8-.2 5.3 1.3.4.6.8 1.3 1.5 1.7.7.4 1.3.4 1.9.6.8.2 1.9.4 2.5 1.1 1.1.8.8 1.9.2 3-.6.8-.4 1.5.4 2.1 1.3.8 2.3 1.3 2.8 3 .4 1.5.4 3-.4 4.2-.2.2-.2.4 0 .6 1.5 2.3 4.5 1.1 5.3-.8.6-1.5.6-3 .6-4.7 0-2.1 1.1-3.6 1.7-5.5 1.1-3.4-1.5-5.5-3.6-7.6-.2-.4-.6-.6-.8-1.1-.4-.8 0-1.3.4-1.9.2-.6.4-1.1.4-1.7 0-1.3-.6-2.5-1.9-3.2 0 .2 0 .6.2.8 1.5-1.7 1.7-3.6 1.5-5.9 0-1.3.2-2.5.8-3.6.4-1.1 1.1-1.9 1.5-3 .6-1.7.2-3.6-1.3-4.5-1.5-.8-3.8-.8-4.7-2.3-.6-.8-.4-2.1-1.1-3-.4-.6-1.1-1.3-1.9-1.5-1.7-.8-3.6-.6-5.5-.6-1.3 0-2.5-.2-3.6-1.1-.8-.6-1.5-1.7-2.5-2.1-1.7-.6-3.6-.2-5.3.4-1.5.6-3 1.5-4.5 1.5-1.1 0-2.3-.2-3.4.4-1.7 1.1-1.9 3.4-1.9 5.1 0 .8 1.3.8 1.3 0 0-2.1.2-4.5 3-4.5.8 0 1.7 0 2.8-.2.8-.2 1.7-.6 2.5-.8 1.9-.8 4.5-1.9 6.2-.2 1.3 1.3 2.1 2.1 4 2.3 1.7.2 3.4 0 5.1.2.8.2 1.9.4 2.5 1.1.8.8.8 1.9 1.3 3 .4 1.3 1.5 1.9 2.8 2.3 1.7.6 3.8 1.1 3.6 3.4-.2 2.1-2.1 3.8-2.3 5.9-.4 2.5.4 4.9-1.3 7-.2.2-.2.6.2.8.6.4 1.1 1.1 1.3 1.7 0 .8-.4 1.3-.6 2.1-.4.8-.2 1.5 0 2.3 1.1 2.3 3.8 3.4 4.5 5.9.4 1.5-.4 2.8-.8 4.2-.4 1.1-.8 2.1-.8 3.4 0 1.3.2 2.8-.2 4-.4 1.3-2.3 3-3.4 1.3v.6c1.5-2.3 1.3-5.5-.6-7.4-.4-.4-1.1-.6-1.7-1.3-.6-.6-.2-.4 0-1.1.2-.2.2-.4.4-.8.4-1.3-.4-2.8-1.5-3.6-1.5-1.1-3.8-.8-5.1-2.3-1.1-1.3-2.3-2.1-4-2.3-4.7-.6-8.5 3.6-12.9 2.8 0 .4.2.6.2 1.1 1.5-1.7 3.6-2.8 5.9-2.5.4 0 .6-.4.6-.8-.2-1.5 1.5-2.3 2.3-3.4.6-.6.8-1.5.8-2.3 0-1.9-1.5-3.6-3-4.9v.6c.8-1.5 3-3.6 1.3-5.3-.6-.4-1.3-.6-2.1-.6-1.1 0-3 .4-2.5-1.3.2-1.1.8-1.7.6-2.8-.2-1.1-.8-1.9-1.7-2.5-1.9-1.5-7.4-1.7-6.8-5.1-.5-.7-1.6-1.1-1.8-.2z"/>
    </g>
  </g>
  <g fill="#466bb0" fill-rule="nonzero">
    <path d="M472.8 757.6l34.6 76.6-34.6-3.6v-73z"/>
    <path d="M468.9 788.1v42.5l-23.5 4 23.5-46.5z"/>
    <path d="M445.8 838.2h60.7l-37.6 11.5-23.1-11.5z"/>
  </g>
  <g fill-rule="nonzero">
    <path fill="none" stroke="#d23933" stroke-miterlimit="4" stroke-width=".77" d="M668.18 293.65v.5c-.7.4-1.8.4-2.5.8.9 0 1.9.3 2.7.7v1.2c-1.2.9-2.4 2.1-3.9 2.9-.7.4-3.1 1.4-3.9 1.2-.4-.1-.5-.6-.6-1.1-.4-1.1-1.2-2.7-1.2-4.3-.1-2-.3-5.3 1.9-4.9 1.8.4 3.5 1 5.1 1.9.7.5 1.1 1 2.4 1.1z"/>
    <path fill="#d23933" stroke="#221f1f" stroke-miterlimit="4" stroke-width="2.16" d="M660.38 235.85c-1.4-.6-2.9-.6-4.2 0l-28.2 13.6c-1.3.7-2.2 1.9-2.6 3.3l-7 30.5c-.2 1.4.1 2.9.9 4.1l19.5 24.4c1 1.1 2.3 1.8 3.8 1.9h31.3c1.5-.1 2.8-.8 3.8-1.9l19.5-24.5c.8-1.2 1.2-2.7.9-4.1l-6.9-30.5c-.4-1.4-1.4-2.6-2.6-3.3l-28.2-13.5z"/>
    <path fill="#f0d6b7" d="M675.68 244.25l1.7 2.7 2 3.7.5 9.3-1.5 8-2.8 7.1-2.7 3.7-1.9 2.1-5.2.8-7 .8-4.5.1-4.4-.1-3.3-1-3-3.2-2.3-6.6-.5-1.4-3.1-1-1.8-3-1.3-4.2 1.4-3.7 3.4-1.2 2.7 1.3 1.3 2.8 1.5-.3.5-.6-.5-3-.1-3.7.3-2.1.5-.2 1.5-.5c2.8-.9 4-1.3 5.7-2l.3-.1c.9-.4 1.5-.6 3.2-1.5 4.1-2 6-2.6 8.2-2.6h.9l1.6.1c1.1 0 1.9.1 2.8.1 1.4.1 2.9 0 4.3-.1.5-.3 1.1-.4 1.6-.5z"/>
    <path fill="none" stroke="#000" stroke-miterlimit="4" stroke-width=".39" d="M675.68 244.25l1.7 2.7 2 3.7.5 9.3-1.5 8-2.8 7.1-2.7 3.7-1.9 2.1-5.2.8-7 .8-4.5.1-4.4-.1-3.3-1-3-3.2-2.3-6.6-.5-1.4-3.1-1-1.8-3-1.3-4.2 1.4-3.7 3.4-1.2 2.7 1.3 1.3 2.8 1.5-.3.5-.6-.5-3-.1-3.7.3-2.1.5-.2 1.5-.5c2.8-.9 4-1.3 5.7-2l.3-.1c.9-.4 1.5-.6 3.2-1.5 4.1-2 6-2.6 8.2-2.6h.9l1.6.1c1.1 0 1.9.1 2.8.1 1.4.1 2.9 0 4.3-.1.5-.3 1.1-.4 1.6-.5z"/>
    <path fill="#326ce5" d="M666.38 302.85l-18.4.8v3.1l1.5 10.8-.8.9-12.9-4.4-.9-1.5-1.3-14.6-2.9-8.8-.6-2.1 10.3-7.1 3.2-1.3 2.8 3.5 2.4 2.2 2.8.9 1.3.4 1.5 6.7 1.2 1.4 3-1 4.3-2.9 2.5-1.4 2.3 13.6-1.3.8"/>
    <path fill="#8a5d3b" d="M644.88 251.15l-.5 4.9.8 3-.4 1.5-1.5.3-1.3-2.8-2.7-1.3-3.4 1.2-.2-1.7c.7.1 1.3 0 2-.2 1.6-.5 2.7-1.3 4.3-2.9l.3-.3c.4-.4.8-.7 1.2-1.1.4-.2.9-.4 1.4-.6z"/>
    <path fill="#dbd8d7" d="M637.08 256.15c0 .3 0 0 .2.9l-1.4.9-.2-1.7c.8 0 .3 0 1.4-.1z"/>
    <path fill="#f6e3cd" d="M641.38 269.05l1.7-1.6c.5.1.9.5.9 1 .1.9.5 9 6.1 13.4.5.4-4.1-.6-4.1-.6l-4.1-6.4"/>
    <path fill="#f6e3cd" d="M664.88 265.15s.3-3.9 1.4-3.6c.6.2 1 .7 1.1 1.4-.1-.1-2.7 1.6-2.5 2.2"/>
    <path fill="#f6e3cd" d="M642.68 260.75s-4.9-3-5.4-.1-1.7 4.9.8 7.9l-1.7-.5-1.5-4-.5-3.9 3-3.1 3.3.3 1.9 1.5.1 1.9z"/>
    <path fill="#f6e3cd" d="M645.48 251.05c-.3.8-.1.3-.5 1.6v-1.5l.5-.1z"/>
    <path fill="#159fd6" d="M646.38 282.25l-12 5.2s5 19.9 2.3 26.3l-1.8-.6-.1-7.6-3.3-14.4-1.4-4 .3-2.8 13.4-4 2.6 1.9"/>
    <path fill="#159fd6" d="M644.68 298.35l1.5 1.9.2 3.2-.9.1s-1.3-3.3-1.3-3.9c0-.5-.2-1-.4-1.4"/>
    <path fill="#159fd6" d="M647.68 304.25l-5.6-.1.8 1.5 4.8.6"/>
    <path fill="#326ce5" d="M667.48 303.05l4.8-.1 1.2 11.9-4.9.6-1.1-12.4"/>
    <path fill="#326ce5" stroke="#326ce5" stroke-miterlimit="4" stroke-width=".31" d="M675.98 302.65s3-7.5 3-7.9c0-.4 3.6-12.5 3.6-12.5l-6.8-4.3-1.2-1.1-3.1 3.1-1.5 6.6-4.6 2 1.8 14.2"/>
    <path fill="#159fd6" d="M671.98 302.15l-4.5.9.6 3.6c1.7.8 4.5-1.3 4.5-1.3"/>
    <path fill="#159fd6" d="M676.58 282.25l6 1-.6-2.4-7.3-2.8 1.2 4.1"/>
    <path fill="#fff" d="M652.18 328.35l-2.7-10.8-1.3-8-.2-5.9 12.1-.6h7.5l-.7 13.5 1.2 10.4-.1 1.9-9.8.8-6-1.3"/>
    <path fill="#dbd8d7" d="M665.88 302.85s-.6 13.4 1.3 22.9c-2.9 1.7-6.2 2.7-9.5 3.1l10.8-.4 1.3-.8-1.5-21.1-.4-4.5"/>
    <path fill="#fff" d="M673.68 313.65l5-1.4 9.5-.5 1.4-4.4-2.6-7.6-3-.4-4.1 1.3-4 1.9-2.1-.4-1.6.6"/>
    <path fill="#dbd8d7" d="M673.58 311.15s3.3-1.5 3.9-1.4l-1.4-7.1 1.7-.6s1.2 6.7 1.2 7.5c0 0 7.2.4 7.9.4 0 0 1.5-3 1.2-6.1l1.4 4.1.1 2.3-2.1 3.1-2.3.5-3.9-.1-1.3-1.7-4.5.6-1.4.5"/>
    <path fill="#fff" d="M653.28 282.55l-3.6-.4-3.3-1v1.2l1.3 2.2 5.5 1.9"/>
    <path fill="#dbd8d7" d="M647.58 282.95s4 1.7 5.3 1.3l-1.4 6.1-2.2-3.6-2.1-3.2.4-.6"/>
    <path fill="#d23933" d="M673.68 289.15c-2 0-4-.3-5.9-.8.1-.7-.1-1.4.1-1.9.5-.3 1.3-.3 2-.4-.7-.3-1.5-.4-2.2-.3 0-.5-.2-.8-.4-1.2 1.2-.4 4.1-3.3 5.8-2.4.8.5 1.1 3 1.2 4.3 0 1.1-.2 2.1-.6 2.7"/>
    <path fill="none" stroke="#d23933" stroke-miterlimit="4" stroke-width=".77" d="M673.78 289.35c-2 0-4-.3-5.9-.8.1-.7-.1-1.4.1-1.9.5-.3 1.3-.3 2-.4-.7-.3-1.5-.4-2.2-.3 0-.5-.2-.8-.4-1.2 1.2-.4 4.1-3.3 5.8-2.4.8.5 1.1 3 1.2 4.3 0 1.1-.2 2.1-.6 2.7z"/>
    <path fill="#d23933" d="M663.18 285.55v.5c-.7.4-1.8.4-2.5.8.9 0 1.9.3 2.7.7v1.2c-1.3.9-2.4 2.1-3.9 2.9-.7.4-3.1 1.4-3.9 1.2-.4-.1-.5-.6-.6-1.1-.4-1.1-1.2-2.7-1.3-4.3-.1-2-.3-5.3 1.9-4.9 1.8.4 3.5 1 5.1 1.9.8.5 1.3 1 2.5 1.1"/>
    <path fill="#d23933" d="M664.48 287.95c-.2-1.1-.4-1.4-.3-2.3 2.8-2 3.4 3.3.3 2.3"/>
    <path fill="none" stroke="#d23933" stroke-miterlimit="4" stroke-width=".77" d="M664.58 288.15c-.2-1.1-.4-1.4-.3-2.3 2.9-2 3.4 3.2.3 2.3z"/>
    <path fill="#ee3e3b" d="M668.68 288.85s-.9-1.3-.3-1.7c.6-.4 1.3 0 1.7-.6.4-.6 0-1 .1-1.8s.8-.9 1.4-1c.6-.1 2.4-.4 2.7.3l-.8-2.3-1.5-.5-4.9 2.8-.3 1.4v2.8"/>
    <path fill="#ee3e3b" d="M655.08 293.05c-.2-2-.3-4-.5-6-.3-3 .7-2.5 3.3-2.5.4 0 2.4.5 2.6.8.7 1.4-1.2 1.1.8 2.2 1.7.9 4.6-.6 4-2.6-.4-.5-2-.1-2.5-.4l-3-1.6c-1.3-.7-4.2-1.6-5.6-.7-3.5 2.4.2 8.2 1.5 10.7"/>
    <path fill="#221f1f" d="M641.78 263.85c-.8-.5-1-2.4-1.9-2.5-1.3-.1-1.1 2.6-1.1 4.1-.9-.8-1.1-3.4-.4-4.7-.8-.4-1.1.4-1.5.7.5-3.9 5.8-1.8 4.9 2.4"/>
    <path fill="#221f1f" d="M684.38 302.75c-2 .4-3.4 2.3-5.3 2.2 1-1.5 2.9-2.1 5.3-2.2"/>
    <path fill="#221f1f" d="M685.28 305.85c-1.6.2-3.5.4-5.2.3.8-1.2 3.8-.8 5.2-.3"/>
    <path fill="#221f1f" d="M685.78 308.55c-1.8 0-4.1 0-5.8-.1 1-1.1 4.6-.5 5.8.1"/>
    <path fill="#dbd8d7" d="M671.38 315.95c.3 2.3 1.2 4.6 1.1 7.1-1 .3-1.6.6-2.9.6-.1-2.1-.4-5.4-.3-7.4.6 0 1.5-.5 2.1-.3"/>
    <path fill="#f6e3cd" d="M668.38 282.15c-.9.6-1.5 1.7-2.3 2.4-2 .1-5.2-.7-6.6-1.9 0-.1 1.8-.3 1.8-.4 2.1.9 6.5-.9 8.6-1.1"/>
    <path d="M652.78 248.45v.3l-.1 2.2-.1.9c-.4.8-1.3 2.3-1.9 3.2l-.2-.5c.5-.9.8-1.7 1.6-3.2v-2.7l.4-.2h.3z"/>
    <path fill="#dbd8d7" d="M675.88 280.95l.7 3.5-3-2.9-2.5-1.3 1.3-1.3 2.2-1.9 1.3 3.9z"/>
    <path fill="#dbd8d7" d="M637.08 256.35l.2.7-1.4.9-.1-1.2c.6 0 .3 0 .9-.1.1-.2.2-.2.4-.3z"/>
    <path fill="#221f1f" d="M641.78 263.85c-.8-.5-1-2.4-1.9-2.5-1.3-.1-1.1 2.6-1.1 4.1-.9-.8-1.1-3.4-.4-4.7-.8-.4-1.1.4-1.5.7.5-3.9 5.8-1.8 4.9 2.4"/>
    <path fill="#221f1f" d="M645.58 282.25s-2 .9-4.7 1.9c-3.5 1-5.1 2.8-6.1 1.8-1.2-.6-3.6-1.4-3.6-1.4l-1 1.3c1.8.2 3.6.7 5.2 1.6 1.4-.8 4.1-2 4.1-2l4.9-1.8 2.1-.8-.9-.6z"/>
    <path fill="#221f1f" d="M677.68 280.85l4 .7.3.8-3.6-.5-2.4-.6v-.8l1.7.4z"/>
    <path fill="#221f1f" d="M675.58 278.85l1 2.7.7 2.6.1 1.2-2.1-.7-.1-.9 1.5.8-.5-2.7-1.4-3.4.8.4z"/>
    <path fill="#f1f1f2" d="M646.38 248.55l-7.3 4.1-5.3 4.1-1.3-1-1.1-2.9 2.1-4.2 16.5-13.1 5.8-3.9 13.4-2.3 8.4 3.2 4.5 5.5-1.7 5.9-5.7-1.6-7.5.2-10.5 1.9-10.3 4.1z"/>
    <path fill="#326ce5" stroke="#326ce5" stroke-miterlimit="4" stroke-width=".31" d="M633.58 256.75l1.2 2 7.5-4.1 10.9-5.8 7.7-2.4 8.1-1.3 8.8.5 2.7.4v-2.2l-8-1.7-11.7 1.3-10 3.2-9.7 4.8-6.2 4.6-1.3.7z"/>
    <path fill="#a6a8ab" d="M646.38 238.35l-8.8 7.5-4 2.4-2.2 4.6.9 2.3 1.8 2.1 2.8-2.6s-1.3-2.7-1.5-3.5c-.2-.8 1.3-2.3 2.6-3.5 1.2-1.2 3.6-2.5 4.9-3.2 1.4-.7 4.4-3.3 4.8-4.1.4-.8 2.9-4.6 2.9-4.6l-4.2 2.6z"/>
    <path fill="#221f1f" d="M669.48 228.95c2.6.1 6.8 2.3 8.7 3.5 2.3 1.5 4 4.4 4.4 5.9.4 1.5-.2 3-1.4 5.3-.4 2.4-.6 3.5-.6 3.5l-36.6 7.6s-2.5 1-3.9 2.1c-1.9 0-3.8 1.4-3.8 1.4l-2 1s-1.4-2.3-2.4-3.6c-2-1.7-1.9-1.8-.9-4.2 1.9-4.1 1.8-3.5 4.3-5.5 2.5-2.1 6.9-5 8-6.1 3.5-2.9 7.9-6.6 10.7-8.2 3.6-2.2 11.3-2.7 15.5-2.7zm-1.6 1.4c-3.4.2-5.3.5-11.2 2-4 2.6-4.7 3.1-7.5 5.4-2.1 1.7-3.4 2.5-6.3 4.9-2.1 1.7-6.8 4.6-9.4 7.4-.6 2.6-2.9 3.4-.2 5.6 1.2 2.2 1.2 1.9 1.2 1.9.7-.5 1.5-1 2.3-1.2.9-.3 1.8-.4 2.7-.5 2.4-1.7 1.1-.8 3.9-2.1 2.7-1.4 36-7.4 36-7.4.4-1 .7-2 .8-3.1 1.1-2.1 1.2-3 1.1-4.4-.8-2.7-1.7-3.9-4-5.2-2.7-1.7-5-2.6-9.4-3.3z"/>
    <path fill="#221f1f" d="M663.68 299.25c.9-.1 1.4.8 1.3 1.3 0 .8-.6 1.4-1.3 1.4-.8 0-1.4-.6-1.4-1.4 0-.7.5-1.2 1.4-1.3z"/>
    <path fill="#f2b445" d="M662.68 300.55c0-.6.4-1 1-1 .7.1 1 .3 1 .9 0 .7-.1.9-.9 1-.9.1-1.1-.3-1.1-.9z"/>
    <path fill="#f5e776" d="M663.48 300.65c-.3 0-.6-.2-.6-.6 0-.3.2-.4.5-.4s.5.2.5.5-.1.5-.4.5z"/>
    <path fill="#221f1f" d="M690.48 306.25c-.5-2-1.1-3.9-1.9-5.7-2-4.2-7.8-1.6-10.9 0 1.5-4 2.8-8.1 4.2-12.6.7-2.2 1.2-4.5 1.5-6.8-1.2-1.5-2.1-1.5-3.6-1.9-2.8-1.2-4.3-1.3-4.4-2.1-.1-.8 1.9-3.5 2.3-4.4.5-1.2 1-2.5 1.3-3.8 1.8-7.8 2.6-15.8-.2-23.4l-.6.3-.3.1c-.6.2-.4.1-.7.2 0 .1-.1.3-.2.4l-.1.1c.5.8.9 1.6 1.2 2.5.9 1.9.9 4.6 1.1 7.3.3 6.6-1.2 13.5-4.5 18.2-.9 1.3-1.6 2.7-2.9 3.6-3 2.1-7.6 4-11.5 2.7-5.2-1.7-7.5-5.2-10.4-9.2.1 2.2 1.6 4 3.1 5.6 1.3 1.4 2.9 3.1 4.6 3.8-1.4-.3-3.6-.4-4.2.8-3.3-.2-6.4-.6-8-2.8-1.2-1.8-2.5-4.8-3.1-7.1-.2-.6-.2-1.2-.3-1.8.2-1 2-1.5 1.3-2.9-1.3 0-1.6 1.2-2.8 1.3-3.1.3-5.3-4.1-5.2-6.8.1-2.3 2-4.4 4.7-4.2 1.9.2 2.5 2.2 2.8 4 1.1.1 2.6 0 3.1-.9-.1-2-1-3.7-1-5.5 0-.8.1-1.5.3-2.3-.1 0-.3.1-.4.1-.2 0-.5 0-.7-.1 0 .3-.1.6-.1.9-.1 2-.1 1.6.1 3.1.3 1.2 1.2 3-.3 3 0-3.3-4-5.4-7.1-3.4v-.1l-.2.1c-.1.1-.3.1-.4.1-.4.1-1.1.1-1.4-.3v.8c-.1.4-.6.9-.7 1.1-1.3 3.2-.3 7.4 1.3 9.7 1 1.6 2.7 2.6 4.6 2.9.1 1.2.4 2.4.9 3.5.4.8 2.4 3.7 2 4.7-.2.5-5.1 2.1-5.9 2.6-2 .4-1.5.1-4.5.5-1.5.1-4.1 2.2-3.7 4.6.2 1.6 1.5 4.1 2 5.8.6 1.8 1.4 3.4 1.9 5.3 1.1 4.1 1.3 8 1.5 12 .1 1.6-.1 3.2.3 4.1.4.9 2 1.2 3.1 1.7 3.2 1.5 6.7 3.8 11 3.3 1 3.4 2 7.1 3.2 10 4.4 1.6 11.3 1.3 15.8.8 1.4-.2 2.8-.8 3.2-2-.1-.8-.2-1.6-.2-2.3 1.4-.3 3.4-.5 3.7-2.1.4-2.2-1.4-5.4-.8-7.8.8-.3 1.7-.5 1.6-1.8 1.4-.7 3-.9 4.8-.8.2.4.5.8.8 1.1 2.5.5 4.8.5 6.9-.1 2.4-.7 3.5-5.4 3-7.7zm-17.4-24.1c.8.5 1.1 3 1.2 4.3 0 1-.1 2.1-.5 2.6-2 0-4-.3-5.9-.8.1-.7-.1-1.4.1-1.9.5-.3 1.3-.3 2-.4-.7-.3-1.5-.4-2.2-.3 0-.5-.2-.8-.4-1.2 1.6-.7 2.9-2.2 4.7-2.5.8.1.5 0 1 .2zm-11.4.5c2.1.9 4.7-.4 6.9-.6-.9.6-1.7 1.3-2.6 2-2 .1-3-.1-4.5-1.3 0 0 .2 0 .2-.1zm2.9 5.3c-.2-1.1-.4-1.4-.3-2.3.3-.2.8-.4 1.2-.4 2.2.2 1.2 3.6-.9 2.7zm-9.9-5.2c.2-.1.4-.1.6-.2h.4c1.8.4 3.5 1 5.1 1.9.8.4 1.3 1 2.5 1.1v.5c-.7.4-1.8.4-2.5.8.9 0 1.9.3 2.7.7v1.2c-1.2.9-2.4 2.1-3.9 2.9-.7.4-3.1 1.4-3.9 1.2-.4-.1-.5-.6-.6-1.1-.4-1-1.2-2.7-1.2-4.3-.1-1.1-.4-4 .8-4.7zm-7.9-1.2c1.1.8 4.4 1.1 6 1.4.1.5-.5 2-.3 3.6-.3 0-.7.8-1.4 2.4-1-1.9-1.2-2.1-2.6-3.5-1.3-2-2.5-3.1-1.7-3.9zm6 45.4c-2.4-7.3-3.7-14.2-4.6-22.4 4.4-.8 8.8-1.3 13.3-1.3 1.9.1 3.9.1 5.8.6.5 3.4.3 6.7.7 10 .5 4.4.1 9.4 1 13.5-4.6 1.4-10.9 1.2-16.2-.4zm19.8-4c-1 .3-1.6.6-2.9.6-.1-2.1-.4-5.4-.3-7.4.7 0 1.3-.3 2-.4h.2c.2 2.4 1.1 4.7 1 7.2zm-3.5-8.5c-.3-3.5-.5-7-.4-10.5 1-.3 1.8-.3 2.8-.3.8 3 .8 6.8 1.2 10.2-1.3.3-2.2.4-3.6.6zm.8-12.7c-1.1.6-2.5-.4-5.7-.2-5.6.2-13.3.8-18.4 1.5-.7-1.1-1.2-2.3-1.4-3.6-.3-1.6-1-2.2-1.3-1.6-.5 1.1-.3.1 1.3 4.9.3 1-.6-1.2-1.5-1.5-.4 1.2.4 1.2.9 1.9.6.8-1.9-.3-1.9 1.2 1.2.2 4.1-.1 5.4.5.3 4.1.9 8 1.5 12.3-5.3-.3-8.7-2.9-12.7-4.7-.2-8.7-2.1-18.2-5.5-25.5.2-1.9.9-2.6 3-2.5 1.8-.9 7.1-2.1 10.2-3.3.3-.1 1.8 1.9 2.2 2.1 1.1 1.4 1.1 2.1 2.8 3.9.5.7 2 3.1 2.4 3.3.5.2 1-2.8 1.5-2.6.1 1 .3 1.3.9 3.1.6 2 .9 4.4 3.7 3.3 2.8-1.1 5.9-3.6 6.2-3.9.3-.4.5-.5.7-.8 1 .4 1.7-.6 2.5-.5.9.1 2.3.9 4.4 1.1 2 .2 3.1.3 3.7-.5 1.4-2.6.8-10.8-2.8-9.1.5-.7 1.4-1.1 2.1-2 1.5 1.2 2.4.8 4.1 1.9 2.9.8 3.2 1 3.4 2.2.1.6-1.1 4.3-1.3 5-.6 3.1-2.1 7.3-3.4 10.5-.5 1.2-1 2.7-1.6 2.9-1.7.5-3.9-.3-5.4.7zm7.2 10.1c-.8.2-1.3.6-2.3.6-.2-3-.9-6.2-1.2-9.1.8 0 .3 0 1.5-.1l.5.1c1.2 2.2 1.5 5.8 1.5 8.5zm8.9 1c-1.5.4-3.7.4-4.7 0 1.2-.6 2.9-.6 4.3-1.1-1.9-.8-4.8 0-7.2-.2-.3-2.9-.5-6-1.2-8.3 1.4-1.4 4.7-1.8 6.5-3 .4-.2.1-.1.7-.2 1 0 2 .5 2.5 1.4.7 1.1 1.4 4.3 1.8 6 .5 2.4-.7 4.9-2.7 5.4z"/>
    <path fill="#221f1f" d="M659.18 293.75c.8 2.6.9 5.3 1.1 7.9.1.8 1.3.8 1.2 0-.2-2.8-.3-5.6-1.1-8.3-.2-.7-1.4-.4-1.2.4z"/>
    <path fill="#221f1f" d="M663.08 293.95c.9-.1 1.4.8 1.3 1.3 0 .8-.6 1.4-1.3 1.4-.8 0-1.4-.6-1.4-1.3 0-.8.5-1.2 1.4-1.4z"/>
    <path fill="#f2b445" d="M662.08 295.25c0-.6.4-1 1-1 .7.1 1 .3 1 .9 0 .7-.1.9-.9 1-.9.1-1.1-.2-1.1-.9z"/>
    <path fill="#f5e776" d="M662.88 295.45c-.3 0-.6-.2-.6-.6 0-.3.2-.4.5-.4s.5.2.5.5-.1.5-.4.5z"/>
    <path fill="#f6e3cd" d="M675.98 254.55s-2.1.4-2.3 2.3c-.2 1.9 2.3.4 2.7.3"/>
    <path fill="#f6e3cd" d="M660.38 254.75s-2.8.4-2.8 2.2c0 1.8 3.2 1.7 4.1.9"/>
    <path fill="#221f1f" d="M675.78 253.75h.2c.8 1.6 1.5 3.4 2.5 4.8-.7 1.5-5.1 2.9-5 .1 1-.4 2.6-.1 3.4-.6-.5-1.2-1.2-2.4-1.1-4.3"/>
    <path fill="#1a1715" d="M641.88 254.35s7.4.7 10.9.6c3.5-.1 11.1.4 15.2 0s5.7-.8 8.6-1.5c3-.7 4-1.3 5.4-2.7.8-1.6.8-2.1 0-3.3-.5-1-2.2-1.9-2.4-2-1.7-.7-2.9-1.1-6.3-1.1s-6.5.2-9.6.8c-8 1.9-10.9 3.2-13.9 4.7-2.8 1.1-7.9 4.5-7.9 4.5z"/>
    <path fill="#dbd8d7" d="M652.28 250.45c-1 .3-2.1.8-3 1.3-1 .5-2 1.1-2.9 1.7l5.9.4c1.7.1 2.6.2 3.9.2 1.4.2 1.2.1 1.2.1l-5.1-3.7z"/>
    <path fill="#dbd8d7" d="M653.68 249.85l4.9 4.3h1.8l-5-4.9-1.7.6z"/>
    <path fill="#221f1f" d="M660.48 253.85c.8 1.4 1 2.8 2.1 3.9.5.5 1.4 1 1 2.3-.1.3-.9 1-1.4 1.1-1.7.5-5.6.1-4.3-2 1.4.1 3.2.9 4.3-.1-.8-1.2-2.2-3.7-1.7-5.2"/>
    <path fill="#221f1f" d="M671.78 263.75c0-.2-.2-.3-.5-.6-.1-.1-.3-.2-.4-.4-1.2-1.3-2.8-3.2-3.4-4.7v-.1c-.1-.3-.1-.6-.4-.7-.1 0-.3 0-.4.1h-.1v.1c-.1 2.2 1.5 4 2.7 5.4l.2.3c.1.1.2.2.3.4.5.5.8.9.4 1.7-.3.1-.6.3-.9.4-1 .5-2.3 1.1-3.3.9-.4-.1-.5-.4-.6-.8 0-.2-.1-.4-.2-.6l-.1-.2-.1.2c-.5.8-.4 1.9.3 2.5h.8c2.3 0 4-1.1 5.4-2l.1-.1v-.1c0-.2.1-.4.1-.6.1-.3.2-.7.1-1.1z"/>
    <path fill="#221f1f" d="M662.58 278.05l2.2-1.3 1.7-1.1h.1c.5-.1 1-.1 1.5-.1h.1l.8.3s.1 0 .1.1l2 1.6s.1.1.2.1h.4c.2 0 .3-.1.3-.3l.1-1.4v-.1l1.1-1.9c.1-.2 0-.3-.1-.4h-.1l-1.6-.2h-.1l-2.5.3h-2.8c-2.5.2-5 .3-7.5.2-1 0-2 .1-2.9.2-.1 0-.1 0-.2.1l-.2.2c-.1.1-.1.3 0 .4l.5.6v.1c.3.7.7 1.4 1.1 2.1l.5 1.4c0 .1.1.1.2.2l1.3.5h.2c1.3-.4 2.5-.9 3.6-1.6z"/>
    <path fill="#221f1f" d="M663.78 275.15c.3.6.2.9-.2 1.3 0 0-12.1 4.2-15.2 6.1-.2.1-.4.3-.6.4-.2.5-.2 1.2-.4 1.7-.3 1-.7 2.3-1.7 2.8-2.1 1.1-5-1.9-6.2-3.3-.3-.3-.5-.7-.8-1.1l.8-.2c.1.1.1.2.2.3 1 1.5 2.4 2.7 4.1 3.4.9.4 1.5.3 2.1-.6.4-.6.6-1.2.7-1.9.2-.7.3-1.3.8-1.8.8-.7 1.8-1.4 2.8-1.9 2.4-1.4 11.9-4.6 12.8-4.7.2 0 .2.1 0-.3-.3-.3-.8-.2-1.4-.1l-.5.1c-.5.1-.9.3-1.4.4-.9.3-6.7 2-7.6 2.3-1 .4-1.9.7-2.9 1.1-.5.2-1.1.5-1.6.7l-.3-.7c.6-.2 1.4-.7 1.9-.9.9-.4 1.7-.9 2.6-1.2 1.7-.6 8.3-2.6 10-3 .8.2 1.6.2 2 1.1z"/>
    <path fill="#d59e29" d="M662.88 275.45c.2.3.2.3 0 .3-.9.1-10.4 3.2-12.8 4.7-1 .5-1.9 1.2-2.8 1.9-.5.5-.6 1.1-.8 1.8-.1.7-.4 1.3-.7 1.9-.6.9-1.2 1-2.1.6-1.6-.8-3-1.9-4.1-3.4-.1-.1-.1-.2-.2-.3-.4-.8-.6-1.7-.6-2.7.1-1.3.9-2 1.9-2.5.6-.3 1.2-.5 1.8-.7 2.4-.5 3.2 1.1 3.7 3.1.1.3.3.2.5.2s.4-.1.5-.1c.6-.2 1.1-.5 1.6-.7 1-.4 1.9-.8 2.9-1.1.9-.3 6.7-2.1 7.6-2.3.5-.1.9-.3 1.4-.4l.5-.1c.9-.4 1.5-.5 1.7-.2z"/>
    <g fill="#221f1f">
      <path d="M647.78 283.15s-.1.1 0 0z"/>
      <path d="M647.28 279.45l.3.7c-.2.1-.4.1-.5.1-.2 0-.5.1-.5-.2-.5-2-1.3-3.6-3.7-3.1-.6.1-1.2.4-1.8.7-1.1.5-1.9 1.2-1.9 2.5-.1.9.1 1.9.6 2.7l-.8.2c-.6-1-1-2.1-.8-3.3.2-1.5 1.2-2.2 2.5-2.8 1.2-.6 2.7-1.2 4.1-.9 1.5.4 2.4 1.8 2.8 3.2-.3.2-.4.2-.3.2z"/>
      <path d="M639.68 281.85c1 .6 2.6.1 3.5-.2.6-.2.3-1.1-.2-.9-.5.2-1.1.4-1.7.4-.3 0-.8.1-1.1-.1-.2-.1-.5 0-.6.2-.1.2-.1.5.1.6z"/>
      <path d="M642.08 278.35c.5-.1 1-.4 1.4-.3.2 0 .4.1.6.2.1.2.2.4.2.6 0 .3-.5.4-.7.5-1 .4-2 .8-3.1.7-.1 0-.4.2-.5.1-.1-.1-.1-.4 0-.6.9-.8 1.3-1 2.1-1.2z"/>
      <path d="M642.18 278.65c.4-.1 1-.4 1.5-.3.6.2.1.4-.1.6-.8.4-1.7.7-2.6.7h-.8s.4-.3.5-.3c.5-.3 1-.6 1.5-.7.2-.1.3-.3.2-.5-.1-.2-.2-.2-.4-.2-.8.2-2.4.7-2.5 1.7 0 .3.1.6.4.7h.9c.4 0 .8 0 1.2-.1.7-.2 1.5-.4 2.1-.7.4-.1.6-.5.5-.9-.1-1.4-1.9-.9-2.7-.6-.3.1-.1.7.3.6z"/>
      <path d="M674.68 237.45c-.3-.9-.2-.9-.5-1.9-.3-.9-.4-.9-.7-1.8-.1-.4-.3-.7-.7-.9-.9-.3-.9-.4-1.8-.7l-1.8-.7c-.2-.1-.4-.1-.7-.1-.2 0-.4.1-.5.1-.8.5-.8.6-1.6 1.1-.8.5-.9.4-1.7.9-.3.2-.6.6-.6 1-.1 1-.1 1-.2 1.9-.1.9-.2.9-.3 1.9 0 .3.1.7.3.9v.2l1.4 1.4c.7.7.8.6 1.4 1.3.2.3.5.5.9.5l.1-.2c1-.1 1 0 1.9-.1 1-.1 1 .1 2 0 .4 0 .8-.3 1-.6.5-.8.5-.8 1.1-1.6.5-.8.4-.9 1-1.7 0-.1.1-.5 0-.9zm-2.3 2c-.5.8-.6.8-1.1 1.5-1 .1-1 .1-1.9.2-1 .1-1 .1-1.9.1-.7-.7-.7-.6-1.4-1.3-.7-.7-.6-.8-1.3-1.5h-.1c.1-1 .1-1 .2-1.9.1-1 .2-.9.3-1.9v-.1c.8-.5.9-.4 1.8-.9l1.6-1c.8.6.9.4 1.8.7.9.3.9.3 1.8.7 0 0 .1-.1.1 0 .3.9.2.9.5 1.9.3 1 .2.9.5 1.9h.1c-.4.8-.4.8-1 1.6z"/>
    </g>
    <path fill="#326ce5" d="M668.58 232.25c-.1 0-.2 0-.2.1l-3.3 1.9c-.2.1-.3.3-.3.5l-.6 3.7c0 .2 0 .3.1.5l2.6 2.7c.1.1.3.2.5.2l3.8-.3c.2 0 .4-.1.5-.3l2.1-3.1c.1-.2.1-.4.1-.6l-1.1-3.6c-.1-.2-.2-.3-.4-.4l-3.5-1.4c-.1.1-.2.1-.3.1z"/>
    <path fill="#fff" stroke="#fff" stroke-miterlimit="4" stroke-width=".08" d="M668.68 233.35c-.1 0-.2.1-.2.2v.3c0 .1 0 .3.1.4 0 0 0 .1-.1.1v.1c-.7.1-1.3.5-1.7 1h-.2c-.1-.1-.2-.1-.3-.2l-.1-.1h-.1c-.1 0-.1 0-.2.1s0 .2.1.3c.1 0 .1.1.2.1.1.1.2.1.3.2 0 0 0 .1.1.1l.1.1c-.3.6-.4 1.3-.3 1.9h-.1s0 .1-.1.1-.2.1-.4.1h-.3c-.1 0-.2.2-.2.3 0 .1.2.2.3.1h.1c.1 0 .1-.1.2-.1.1-.1.2-.1.4-.1h.2c.3.6.7 1.1 1.3 1.4v.2c0 .1-.1.2-.2.4 0 .1-.1.1-.1.2v.1c0 .1 0 .2.1.3.1 0 .2 0 .3-.1v-.3c0-.1.1-.3.1-.4h.1v-.1c.5.2 1.1.2 1.6 0 .1 0 .2-.1.3-.1l.1.1s.1 0 .1.1c.1.1.1.2.2.3 0 .1 0 .1.1.2v.1c0 .1.2.2.3.1.1 0 .2-.2.1-.3v-.1c0-.1-.1-.1-.1-.2-.1-.1-.2-.2-.2-.3v-.2c.5-.4.9-1 1.1-1.6h.1s.1 0 .1-.1c.1 0 .3 0 .4.1.1 0 .1 0 .2.1h.1c.1 0 .2-.1.3-.2 0-.1-.1-.2-.2-.2h-.7s-.1 0-.1-.1h-.1c0-.7-.2-1.3-.6-1.9l.1-.1v-.1c.1-.1.2-.2.3-.2.1 0 .1-.1.2-.1.1-.1.1-.2 0-.3-.1-.1-.2-.1-.3 0 0 0-.1.1-.1.2l-.3.3h-.1l-.1.1c-.5-.4-1.1-.7-1.8-.7v-.1l-.1-.1v-.7c0-.6-.1-.7-.3-.7zm-.1 1.6v1.1c0 .1-.1.2-.2.2h-.1l-.9-.6c.3-.3.6-.5 1-.6.1 0 .1 0 .2-.1zm.5 0c.5 0 .9.2 1.3.5l-.8.7c-.1.1-.2.1-.3 0v-.1l-.2-1.1zm-2 1.2l.9.7c.1.1.1.2 0 .3l-.1.1-1 .4c-.1-.6 0-1.1.2-1.5zm3.7-.3l.3.6c.1.2.1.5.1.7l-1.1-.2c-.1 0-.2-.1-.1-.2v-.1l.8-.8zm-2 .9h.3l.2.2v.3l-.3.2-.3-.1-.1-.3.2-.3zm1.2.9l1.1.1c-.1.5-.4.9-.8 1.2l-.5-1c0-.2 0-.3.2-.3-.1 0 0 0 0 0zm-1.8.1c.1 0 .2 0 .2.1v.1l-.3 1c-.4-.2-.8-.6-1-1l1.1-.2zm.9.4s.1 0 0 0c.1 0 .2 0 .2.1l.6.9-.2.1c-.4.1-.8.1-1.2 0l.5-1c0-.1 0-.1.1-.1z"/>
    <path fill="#221f1f" d="M680.38 243.55l-.2.9s-1.2-.7-4.9-1.4c-3.7-.6-5.2-.6-8.1-.2-2.8.4-8.5 1.4-12.5 2.8s-9.1 3.4-13 5.8c-4 2.3-7.6 6.4-7.5 6.4.2.1-.7-.3-.7-.7 3.6-3.3 5.9-5.3 8.3-6.8 2.4-1.5 8.5-4.4 12.5-5.6 4.2-1.4 8.4-2.3 12.8-2.9 3.9-.5 4.8-.3 8.1.3 3.5.5 5.2 1.4 5.2 1.4z"/>
    <path fill="#fff100" d="M655.08 275.95h-.2c-.8-.2-1.5-.9-1.8-1.6-.2-.6-.2-1.3.1-1.9.4-1 1.1-1.8 1.9-2.5.9-.6 1.9-1 3-1.2 1-.2 2.1-.3 3.1-.3h7.2c.9.1 1.8.3 2.7.6.9.3 1.8.7 2.5 1.4.5.5 2.1 2.2 1.4 3.9-.3.6-.7 1.1-1.3 1.3-.1 0-.3.1-.4.1-.4 0-.8-.2-1.1-.5-.2-.2-.3-.5-.2-.8v-.1s-.1 0-.1-.1l-.1.1c-.3.6-1 1-1.7 1s-1.3-.3-1.7-.9c0 0-.1-.1-.2-.1s-.2 0-.2.1c-.4.6-1.1 1-1.9 1-.8 0-1.5-.4-1.9-1v.1c-.1.7-.9 1.2-1.6 1.2h-.2c-.6-.1-1.2-.6-1.9-1.4v.1c-.4.9-1.5 1.4-2.4 1-.4-.2-.8-.5-1-1 0-.1-.1-.1-.1-.1v.1c0 .4-.1.8-.4 1-.7.3-1.1.5-1.5.5z"/>
    <path fill="#8a5d3b" d="M673.38 270.75c.9.8 1.9 2.2 1.3 3.5-.2.5-.6.9-1.1 1.1-.5.2-1.5-.1-1.4-.8.1-.4-.5-.8-.8-.3-.5 1.1-2.2 1.1-2.9.1-.2-.2-.6-.3-.9 0l-.1.1c-.7 1.1-2.6 1.2-3.2 0-.2-.4-.6-.2-.6.2 0 .6-.9 1-1.5.9-.7-.1-1.3-.7-1.7-1.2-.2-.3-.5-.1-.6.1-.5 1.3-2.4 1.3-2.8 0-.2-.4-.8-.4-.8.1 0 .7-.6 1.2-1.3 1.2h-.1c-.7-.1-1.3-.8-1.5-1.4-.2-.6-.1-1.2.1-1.7.4-.9 1-1.7 1.8-2.3.9-.6 1.8-1 2.9-1.2 1-.2 2.1-.3 3.1-.3.8 0 1.6.1 2.4.1.8 0 1.6 0 2.4.1h2.4c.9.1 1.8.3 2.6.6.8.1 1.6.5 2.3 1.1z"/>
    <path fill="#221f1f" d="M674.68 274.25c.6-1.3-.4-2.7-1.3-3.5-.7-.6-1.5-1-2.4-1.3-.9-.3-1.7-.5-2.6-.6-.8-.1-1.6 0-2.4 0-.8 0-1.6-.1-2.4-.1-.8 0-1.6-.1-2.4-.1-1 0-2.1.2-3.1.3-1 .2-2 .6-2.9 1.2-.8.6-1.4 1.4-1.8 2.3-.3.5-.3 1.1-.1 1.7.3.6.9 1.3 1.5 1.4.7.1 1.3-.4 1.4-1v-.1c0-.5.6-.5.8-.1.5 1.3 2.4 1.3 2.8 0 .1-.3.4-.4.6-.1.4.5 1 1.1 1.7 1.2.5.1 1.4-.3 1.5-.9 0-.4.4-.6.6-.2.6 1.2 2.5 1.1 3.2 0 .2-.3.6-.3.9-.1l.1.1c.6 1 2.4 1 2.9-.1.2-.5.8-.1.8.3-.1.7.9 1 1.4.8.5-.2 1-.6 1.2-1.1zm.5-2.9c.4.7.6 1.6.5 2.4-.1 1.1-1.1 2.3-2.2 2.5-.8.1-1.6-.2-2.1-.9-1 .8-2.5.6-3.4-.2-.5.5-1.2.8-1.9.8s-1.4-.2-1.9-.6c-.4.5-.9.8-1.5.8-.9.1-1.6-.5-2.2-1.1-.4.6-1.1 1-1.9 1-.6 0-1.2-.2-1.6-.6-.4.5-1 .9-1.7.9-1.1 0-2-.8-2.5-1.8v-.1c-.4-.9-.2-1.7.3-2.6.6-1.1 1.4-2.2 2.5-2.7.8-.4 1.7-.8 2.6-1 .9-.2 1.8-.3 2.7-.4.9 0 1.9.2 2.8.2.8 0 1.7-.2 2.6-.2.9 0 1.7.2 2.6.3.8.1 1.7.2 2.5.5.8.2 1.5.6 2.2 1.1.5.4 1.1 1 1.6 1.7z"/>
  </g>
  <g fill-rule="nonzero">
    <path fill="#326de6" d="M263.7 515.1c-1.7 0-3.2-.7-4.3-2.1l-16.2-20.1c-1.1-1.3-1.5-3.1-1.1-4.7l5.8-25.1c.4-1.7 1.5-3 3-3.7l23.4-11.2c.7-.4 1.6-.6 2.4-.6.8 0 1.7.2 2.4.6l23.4 11.2c1.5.7 2.6 2.1 3 3.7l5.8 25.1c.4 1.7 0 3.4-1.1 4.7L294.1 513c-1.1 1.3-2.6 2.1-4.3 2.1h-26.1z"/>
    <path fill="#fff" d="M276.7 448.7c.6 0 1.3.1 1.9.4l23.4 11.2c1.2.6 2.1 1.7 2.4 3l5.8 25.1c.3 1.3 0 2.7-.9 3.8l-16.2 20.1c-.8 1.1-2.1 1.7-3.5 1.7h-26c-1.3 0-2.6-.6-3.5-1.7L244 492.2c-.8-1.1-1.2-2.5-.9-3.8l5.8-25.1c.3-1.3 1.2-2.5 2.4-3l23.4-11.2c.6-.2 1.3-.4 2-.4zm0-2.2c-1 0-1.9.2-2.9.6l-23.4 11.2c-1.9.9-3.1 2.5-3.6 4.5L241 488c-.5 2 0 4 1.3 5.6l16.2 20.1c1.2 1.6 3.1 2.5 5.1 2.5h26c2 0 3.9-.9 5.1-2.5l16.2-20.1c1.3-1.6 1.8-3.7 1.3-5.6l-5.8-25.1c-.5-2-1.8-3.6-3.6-4.5l-23.3-11.2c-.9-.4-1.8-.7-2.8-.7z"/>
    <path fill="#fff" d="M300.2 486.4h-.4c-.3 0-.6-.1-.9-.1h-.5c-1-.1-1.8-.2-2.5-.4-.3-.1-.4-.3-.5-.5v-.1l-.6-.2c.3-2.1.2-4.4-.3-6.5-.5-2.1-1.4-4.2-2.6-6.1l.5-.4v-.1c0-.2 0-.5.2-.7.6-.5 1.2-.9 2.1-1.4.1-.1.3-.1.4-.2.3-.1.5-.3.8-.5l.2-.2s.1 0 .1-.1c.6-.6.8-1.5.3-2.1-.2-.3-.6-.5-1.1-.5-.4 0-.7.1-1 .4l-.1.1c-.1 0-.1.1-.2.2l-.9.9c-.6.7-1.2 1.2-1.9 1.7-.1.1-.3.1-.4.1h-.4l-.6.4c-.6-.6-1.2-1.2-1.9-1.8-2.8-2.2-6.2-3.5-9.7-3.8v-.6l-.1-.1c-.1-.1-.3-.3-.4-.6 0-.7 0-1.6.1-2.5 0-.1 0-.3.1-.5 0-.3.1-.6.1-.9v-.4c0-.8-.6-1.5-1.4-1.5-.4 0-.7.2-1 .5-.3.3-.4.6-.4 1.1v.4c0 .3 0 .6.1.9 0 .1 0 .3.1.5.1.9.2 1.8.1 2.5 0 .3-.2.5-.4.6l-.1.1v.6c-.8.1-1.7.2-2.5.4-3.6.8-6.7 2.6-9.2 5.2l-.5-.3h-.4c-.1 0-.3 0-.4-.1-.6-.4-1.2-1-1.9-1.7l-1.2-1.2c-.3-.2-.6-.4-1-.4s-.8.2-1.1.5c-.5.6-.3 1.5.3 2.1h.1c.1 0 .1.1.2.2.3.2.5.3.8.5.1 0 .3.1.4.2.8.5 1.5.9 2.1 1.4.2.2.2.5.2.7v.1l.5.4c-.1.1-.2.2-.2.4-2.3 3.7-3.2 8-2.6 12.2l-.6.2v.1c-.1.2-.2.4-.5.5-.7.2-1.5.3-2.5.4h-.5c-.3 0-.6 0-.9.1h-.4c-.8.2-1.3 1-1.2 1.7.1.6.7 1.1 1.5 1.1h.8c.3-.1.6-.2.8-.3.1 0 .3-.1.4-.2.9-.3 1.7-.6 2.4-.7h.1c.3 0 .5.1.6.2h.1l.6-.1c1.1 3.4 3.2 6.5 6.1 8.7.6.5 1.3.9 2 1.3l-.3.6v.1c.1.2.2.4.1.7-.3.7-.7 1.4-1.2 2.2-.1.1-.2.2-.3.4-.2.2-.3.5-.5.7 0 0-.1.1-.1.2v.1c-.4.8-.1 1.7.6 2 .2.1.4.1.6.1.6 0 1.1-.4 1.4-.9v-.1c0-.1.1-.2.1-.2.1-.3.2-.6.3-.8 0-.1.1-.3.1-.4.3-.9.6-1.7 1-2.3.2-.3.4-.3.6-.4h.1l.3-.6c2 .8 4.3 1.2 6.5 1.2 1.3 0 2.7-.1 4-.5.8-.2 1.6-.4 2.4-.7l.3.5h.1c.2 0 .4.1.6.4.4.6.6 1.4 1 2.3 0 .1.1.3.1.4.1.3.1.6.3.8 0 .1.1.1.1.2v.1c.3.6.8.9 1.4.9.2 0 .4 0 .6-.1.3-.2.6-.5.7-.8.1-.4.1-.8-.1-1.2v-.1c0-.1-.1-.2-.1-.2-.1-.3-.3-.5-.5-.7-.1-.1-.2-.2-.3-.4-.5-.8-1-1.5-1.2-2.2-.1-.3 0-.5 0-.7v-.1l-.2-.6c2.5-1.4 4.5-3.5 6.1-6 .8-1.3 1.5-2.7 1.9-4.2l.6.1h.1c.2-.1.3-.2.6-.2h.1c.7.1 1.5.4 2.4.7.1 0 .3.1.4.2.3.1.5.2.8.3h.8c.7 0 1.3-.5 1.5-1.1.2-.5-.3-1.2-1.1-1.5zm-21.5-2.2l-2 1-2-1-.5-2.2 1.4-1.8h2.3l1.4 1.8-.6 2.2zm12.1-4.8c.4 1.6.5 3.1.3 4.7l-7.1-2c-.6-.2-1-.8-.9-1.5 0-.2.1-.4.3-.5l5.6-5c.8 1.2 1.4 2.6 1.8 4.3zm-4-7.2l-6.1 4.3c-.5.3-1.2.2-1.6-.3-.1-.1-.2-.3-.2-.5l-.4-7.5c3.2.3 6.1 1.8 8.3 4zm-13.4-3.8l1.5-.3-.4 7.4c0 .6-.6 1.2-1.2 1.2-.2 0-.4 0-.6-.1l-6.2-4.4c1.9-1.9 4.3-3.2 6.9-3.8zm-9.1 6.6l5.5 4.9c.5.4.6 1.2.1 1.7-.1.2-.3.3-.6.4l-7.2 2.1c-.2-3.2.5-6.4 2.2-9.1zm-1.3 12.5l7.4-1.2c.6 0 1.2.4 1.3 1v.7l-2.8 6.8c-2.7-1.7-4.7-4.2-5.9-7.3zm16.9 9.2c-1.1.2-2.1.4-3.2.4-1.6 0-3.2-.3-4.7-.7l3.7-6.6c.4-.4 1-.6 1.5-.3.2.1.4.3.6.5l3.6 6.4-1.5.3zm9.1-6.4c-1.2 1.9-2.7 3.3-4.4 4.5l-2.9-7c-.1-.6.1-1.2.6-1.4.2-.1.4-.1.6-.1l7.4 1.2c-.3 1-.7 1.9-1.3 2.8z"/>
  </g>
</g>
<path id="line" fill="none" stroke="#303591" stroke-dasharray="12 18 0 0" stroke-linecap="round" stroke-linejoin="round" stroke-miterlimit="1.5" stroke-width="6" d="M50 263h318v441h238V380h108v243h131V464h148v224"/>

<g mask="url(#msk)">
<use id="a1" xlink:href="#el1"/>
<use id="a2" xlink:href="#el2"/>
<use id="a3" xlink:href="#el1"/>
<use id="a4" xlink:href="#el1"/>
<use id="a5" xlink:href="#el1"/>
<use id="a6" xlink:href="#el2"/>
<use id="a7" xlink:href="#el1"/>
<use id="a8" xlink:href="#el1"/>
<use id="a9" xlink:href="#el1"/>
<use id="a10" xlink:href="#el1"/>
<use id="a11" xlink:href="#el2"/>
<use id="a12" xlink:href="#el1"/>

<use id="a13" xlink:href="#el1"/>
<use id="a14" xlink:href="#el2"/>
<use id="a15" xlink:href="#el1"/>
<use id="a16" xlink:href="#el1"/>
<use id="a17" xlink:href="#el1"/>
<use id="a18" xlink:href="#el2"/>
<use id="a19" xlink:href="#el1"/>
<use id="a20" xlink:href="#el1"/>
<use id="a21" xlink:href="#el1"/>
<use id="a22" xlink:href="#el1"/>
<use id="a23" xlink:href="#el2"/>
<use id="a24" xlink:href="#el1"/>
</g>

<a id="trg" href="javascript:;">
    <rect width="1200" height="1000" opacity="0" />
</a>

<script>
<![CDATA[
iterations = 2; // change it to control how many times it animates

var start = 0;
var finish = 2334;
var pace = 6.483;
var dist = 194.5;
var frame = 360;
var frames = 719;
var itr = 0;

function $(sel) { return document.querySelector(sel); }

function setAttributes(el, attrs) {
  for(var key in attrs) {
    el.setAttribute(key, attrs[key]);
  }
}

$("#trg").addEventListener("click", function( event ) {
  if(itr == iterations) {
      itr = 0;
      move();
  }
}, false);

var obg_pos = function(name, x, y, angle, norotate) {
  if (norotate) {
    setAttributes(name, {"x": x + 17.2, "y": y - 7});
  } else {
    setAttributes(name, {"x": x, "y": y, "transform": "rotate(" + angle + " " + (x + 42.1) + " " + (y + 23.9) + ")"});
  }
}

var obj_attr = function(el_pos, dif) {
  if (el_pos < 1) {
    l_x = -1000;
    l_y = -1000;
    l_a = 0;
  }
  if (el_pos > 1 && el_pos < 318) {
    l_x = 7.9 + (pace*frame - dif);
    l_y = 239.1;
    l_a = 0;
  }

  if (el_pos > 318 && el_pos < 759) {
    l_x = 325.9;
    l_y = 239.1 + (pace*frame - dif - 318);
    l_a = 90;
  }

  if (el_pos > 759 && el_pos < 997) {
    l_x = 325.9 + (pace*frame - dif - 759);
    l_y = 680.1;
    l_a = 0;
  }

  if (el_pos > 997 && el_pos < 1321) {
    l_x = 563.9;
    l_y = 680.1 - (pace*frame - dif - 997);
    l_a = -90;
  }

  if (el_pos > 1321 && el_pos < 1429) {
    l_x = 563.9 + (pace*frame - dif - 1321);
    l_y = 356.1;
    l_a = 0;
  }

  if (el_pos > 1429 && el_pos < 1672) {
    l_x = 671.9;
    l_y = 356.1 + (pace*frame - dif - 1429);
    l_a = 90;
  }

  if (el_pos > 1672 && el_pos < 1803) {
    l_x = 671.9 + (pace*frame - dif - 1672);
    l_y = 599.1;
    l_a = 0;
  }

  if (el_pos > 1803 && el_pos < 1962) {
    l_x = 802.9;
    l_y = 599.1 - (pace*frame - dif - 1803);
    l_a = -90;
  }

  if (el_pos > 1962 && el_pos < 2110) {
    l_x = 802.9 + (pace*frame - dif - 1962);
    l_y = 440.1;
    l_a = 0;
  }

  if (el_pos > 2110 && el_pos < finish) {
    l_x = 950.9;
    l_y = 440.1 + (pace*frame - dif - 2110);
    l_a = 90;
  }

  if (el_pos > finish) {
    l_x = -1000;
    l_y = -1000;
    l_a = 0;
  }

  return [l_x, l_y, l_a];
}

function move() {
  
  var l_pos = frame * pace;

  var a1_param = obj_attr(l_pos, 0);
  var a2_param = obj_attr(l_pos - dist, dist);
  var a3_param = obj_attr(l_pos - 2*dist, 2*dist);
  var a4_param = obj_attr(l_pos - 3*dist, 3*dist);
  var a5_param = obj_attr(l_pos - 4*dist, 4*dist);
  var a6_param = obj_attr(l_pos - 5*dist, 5*dist);
  var a7_param = obj_attr(l_pos - 6*dist, 6*dist);
  var a8_param = obj_attr(l_pos - 7*dist, 7*dist);
  var a9_param = obj_attr(l_pos - 8*dist, 8*dist);
  var a10_param = obj_attr(l_pos - 9*dist, 9*dist);
  var a11_param = obj_attr(l_pos - 10*dist, 10*dist);
  var a12_param = obj_attr(l_pos - 11*dist, 11*dist);

  var a13_param = obj_attr(l_pos - 12*dist, 12*dist);
  var a14_param = obj_attr(l_pos - 13*dist, 13*dist);
  var a15_param = obj_attr(l_pos - 14*dist, 14*dist);
  var a16_param = obj_attr(l_pos - 15*dist, 15*dist);
  var a17_param = obj_attr(l_pos - 16*dist, 16*dist);
  var a18_param = obj_attr(l_pos - 17*dist, 17*dist);
  var a19_param = obj_attr(l_pos - 18*dist, 18*dist);
  var a20_param = obj_attr(l_pos - 19*dist, 19*dist);
  var a21_param = obj_attr(l_pos - 20*dist, 20*dist);
  var a22_param = obj_attr(l_pos - 21*dist, 21*dist);
  var a23_param = obj_attr(l_pos - 22*dist, 22*dist);
  var a24_param = obj_attr(l_pos - 23*dist, 23*dist);
  
  obg_pos($("#a1"), a1_param[0], a1_param[1], a1_param[2], false);
  obg_pos($("#a2"), a2_param[0], a2_param[1], a2_param[2], true);
  obg_pos($("#a3"), a3_param[0], a3_param[1], a3_param[2], false);
  obg_pos($("#a4"), a4_param[0], a4_param[1], a4_param[2], false);
  obg_pos($("#a5"), a5_param[0], a5_param[1], a5_param[2], false);
  obg_pos($("#a6"), a6_param[0], a6_param[1], a6_param[2], true);
  obg_pos($("#a7"), a7_param[0], a7_param[1], a7_param[2], false);
  obg_pos($("#a8"), a8_param[0], a8_param[1], a8_param[2], false);
  obg_pos($("#a9"), a9_param[0], a9_param[1], a9_param[2], false);
  obg_pos($("#a10"), a10_param[0], a10_param[1], a10_param[2], false);
  obg_pos($("#a11"), a11_param[0], a11_param[1], a11_param[2], true);
  obg_pos($("#a12"), a12_param[0], a12_param[1], a12_param[2], false);

  obg_pos($("#a13"), a13_param[0], a13_param[1], a13_param[2], false);
  obg_pos($("#a14"), a14_param[0], a14_param[1], a14_param[2], true);
  obg_pos($("#a15"), a15_param[0], a15_param[1], a15_param[2], false);
  obg_pos($("#a16"), a16_param[0], a16_param[1], a16_param[2], false);
  obg_pos($("#a17"), a17_param[0], a17_param[1], a17_param[2], false);
  obg_pos($("#a18"), a18_param[0], a18_param[1], a18_param[2], true);
  obg_pos($("#a19"), a19_param[0], a19_param[1], a19_param[2], false);
  obg_pos($("#a20"), a20_param[0], a20_param[1], a20_param[2], false);
  obg_pos($("#a21"), a21_param[0], a21_param[1], a21_param[2], false);
  obg_pos($("#a22"), a22_param[0], a22_param[1], a22_param[2], false);
  obg_pos($("#a23"), a23_param[0], a23_param[1], a23_param[2], true);
  obg_pos($("#a24"), a24_param[0], a24_param[1], a24_param[2], false);

  $("#line").setAttribute("stroke-dashoffset", -1*l_pos);

  if (frame < frames) {
    frame++;
  } else {
    itr++;
    frame = 360;
  }
  
  if (itr < iterations) {
      setTimeout(function(){
        requestAnimationFrame(move);
      },  30);
  }
};

window.addEventListener('DOMContentLoaded', () => {
  move(); // call this function to start animation;
});

]]>
</script>
</svg>
