<?xml version="1.0" encoding="utf-8"?>
<!-- Generator: Adobe Illustrator 24.0.2, SVG Export Plug-In . SVG Version: 6.00 Build 0)  -->
<svg version="1.1" id="Layer_1" xmlns="http://www.w3.org/2000/svg" xmlns:xlink="http://www.w3.org/1999/xlink" x="0px" y="0px"
	 viewBox="0 0 1139.65 953.37" style="enable-background:new 0 0 1139.65 953.37;" xml:space="preserve">
<style type="text/css">
	.st0{fill:#007291;}
	.st1{fill:#303591;}
	.st2{fill:#00A5DC;stroke:#000000;stroke-width:12;stroke-miterlimit:10;}
	.st3{stroke:#474747;stroke-width:15;stroke-linecap:round;stroke-linejoin:round;stroke-miterlimit:10;}
</style>
<circle class="st0" cx="172.59" cy="343.29" r="23.5"/>
<circle class="st1" cx="230.59" cy="607.29" r="23.5"/>
<circle class="st1" cx="203.59" cy="56.29" r="23.5"/>
<circle class="st0" cx="579.59" cy="49.29" r="23.5"/>
<circle class="st1" cx="919.59" cy="72.29" r="23.5"/>
<circle class="st2" cx="583.09" cy="382.79" r="85"/>
<g>
	<g>
		<path d="M342.2,953.79c-1.95,0-3.94-0.39-5.85-1.22c-7.42-3.23-10.82-11.87-7.59-19.29l65.71-150.85
			c14.08-32.31,19.28-67.89,15.05-102.88l-1.95-16.17c-6.43-53.17-18.81-101.73-37.86-148.43c-3.06-7.5,0.54-16.05,8.04-19.11
			c7.5-3.06,16.05,0.54,19.11,8.04c20.05,49.16,33.07,100.18,39.82,155.98l1.95,16.17c4.86,40.17-1.12,81.01-17.28,118.11
			l-65.71,150.85C353.24,950.5,347.85,953.79,342.2,953.79z"/>
		<path d="M364.53,472.11c-6.53,0-12.48-4.39-14.18-11c-5.21-20.2-5.6-35.13-5.58-54.02c0.02-18.17,1.44-32.03,4.91-47.82
			c1.73-7.91,9.55-12.92,17.46-11.18c7.91,1.73,12.91,9.55,11.18,17.46c-2.99,13.6-4.21,25.64-4.22,41.56
			c-0.02,20.12,0.62,31.05,4.65,46.67c2.02,7.84-2.7,15.83-10.53,17.85C366.97,471.96,365.74,472.11,364.53,472.11z"/>
		<path d="M379.28,330.11c-2.03,0-4.09-0.42-6.05-1.32c-7.37-3.35-10.63-12.04-7.28-19.41c11.45-25.22,27.11-48.13,46.54-68.1
			c5.65-5.8,14.92-5.93,20.73-0.28c5.8,5.65,5.93,14.93,0.28,20.73c-17.06,17.54-30.81,37.65-40.86,59.78
			C390.18,326.91,384.85,330.11,379.28,330.11z"/>
		<path d="M466.54,231.28c-4.92,0-9.73-2.48-12.5-6.97c-4.24-6.89-2.1-15.92,4.8-20.17c35.84-22.07,76.98-34.23,118.96-35.17
			c8.16-0.1,14.8,6.23,14.98,14.33c0.18,8.09-6.23,14.8-14.33,14.98c-36.78,0.82-72.83,11.48-104.24,30.82
			C471.81,230.57,469.16,231.28,466.54,231.28z"/>
		<path d="M731.82,254.74c-3.47,0-6.94-1.22-9.74-3.71c-28.96-25.76-64.34-42.92-102.32-49.62c-7.97-1.41-13.3-9.01-11.89-16.98
			c1.4-7.97,9.01-13.31,16.98-11.89c43.33,7.64,83.69,27.21,116.71,56.59c6.05,5.38,6.59,14.65,1.21,20.7
			C739.88,253.08,735.86,254.74,731.82,254.74z"/>
		<path d="M612.67,769.19c-30.94,0-61.33-11.77-84.25-33.61c-5.86-5.58-6.08-14.86-0.5-20.72c5.59-5.86,14.87-6.08,20.72-0.5
			c23.77,22.66,58.13,31.04,89.67,21.88c0.54-0.16,1.1-0.28,1.65-0.38l156.12-26.31c2.25-0.78,4.11-2.33,5.28-4.43
			c1.27-2.28,1.57-4.91,0.84-7.41c-0.06-0.22-0.12-0.43-0.17-0.65l-24.58-102.37c-0.91-3.81-0.27-7.83,1.81-11.16
			c2.07-3.33,5.39-5.69,9.22-6.56l46.97-10.62l-30.22-85.53c-8.22-20.77-12.83-42.58-13.7-64.84c-1.57-40.11-2.79-47.34-3.02-48.38
			c-0.05-0.2-0.08-0.37-0.12-0.57c-5.85-29.95-17.94-57.71-35.95-82.5c-4.76-6.55-3.31-15.72,3.24-20.47
			c6.55-4.75,15.72-3.31,20.48,3.24c20.48,28.19,34.26,59.75,40.95,93.82c0.63,2.71,2,9.82,3.72,53.71
			c0.74,19.03,4.7,37.67,11.76,55.43c0.07,0.18,0.14,0.35,0.2,0.53l35.81,101.34c1.4,3.95,1.04,8.3-0.99,11.97
			c-2.02,3.67-5.52,6.29-9.6,7.21l-48.56,10.98l21.04,87.64c2.78,9.97,1.54,20.41-3.5,29.46c-5.1,9.16-13.48,15.76-23.57,18.58
			c-0.5,0.14-1,0.25-1.51,0.34l-156.25,26.33C634.8,767.7,623.7,769.19,612.67,769.19z"/>
		<path d="M654.89,932.79c-7.75,0-14.23-6.08-14.63-13.91l-6.34-124.34c-0.41-8.09,5.81-14.97,13.89-15.39
			c8.12-0.43,14.97,5.81,15.39,13.89l6.34,124.34c0.41,8.09-5.81,14.97-13.89,15.39C655.39,932.79,655.14,932.79,654.89,932.79z"/>
		<path class="st3" d="M791.71,591.27"/>
		<path d="M760.08,613.89c-6.56,0-12.53-4.43-14.2-11.08c-1.98-7.85,2.79-15.82,10.64-17.79l31.63-7.96
			c7.85-1.97,15.82,2.79,17.79,10.64c1.98,7.85-2.79,15.82-10.64,17.79l-31.63,7.96C762.47,613.75,761.26,613.89,760.08,613.89z"/>
	</g>
	<path d="M579.42,491.44c-60.17,0-109.12-48.95-109.12-109.12c0-60.17,48.95-109.12,109.12-109.12
		c60.17,0,109.12,48.95,109.12,109.12C688.54,442.49,639.58,491.44,579.42,491.44z M579.42,302.52c-44,0-79.8,35.8-79.8,79.8
		c0,44,35.8,79.8,79.8,79.8c44,0,79.8-35.8,79.8-79.8C659.22,338.32,623.42,302.52,579.42,302.52z"/>
	<path d="M231,654.26c-27.4,0-49.7-22.29-49.7-49.7s22.29-49.7,49.7-49.7s49.7,22.29,49.7,49.7S258.4,654.26,231,654.26z
		 M231,584.17c-11.24,0-20.38,9.14-20.38,20.38c0,11.24,9.14,20.38,20.38,20.38s20.38-9.14,20.38-20.38
		C251.38,593.32,242.24,584.17,231,584.17z"/>
	<path d="M175.51,389.99c-27.4,0-49.7-22.29-49.7-49.7c0-27.4,22.29-49.7,49.7-49.7s49.7,22.29,49.7,49.7
		C225.21,367.69,202.91,389.99,175.51,389.99z M175.51,319.91c-11.24,0-20.38,9.14-20.38,20.38c0,11.24,9.14,20.38,20.38,20.38
		s20.38-9.14,20.38-20.38C195.89,329.05,186.75,319.91,175.51,319.91z"/>
	<path d="M203.85,105.56c-27.4,0-49.7-22.29-49.7-49.7c0-27.4,22.29-49.7,49.7-49.7s49.7,22.29,49.7,49.7
		C253.55,83.27,231.26,105.56,203.85,105.56z M203.85,35.48c-11.24,0-20.38,9.14-20.38,20.38s9.14,20.38,20.38,20.38
		c11.24,0,20.38-9.14,20.38-20.38S215.09,35.48,203.85,35.48z"/>
	<path d="M579.42,99.19c-27.4,0-49.7-22.29-49.7-49.7s22.29-49.7,49.7-49.7s49.7,22.29,49.7,49.7S606.82,99.19,579.42,99.19z
		 M579.42,29.11c-11.24,0-20.38,9.14-20.38,20.38s9.14,20.38,20.38,20.38c11.24,0,20.38-9.14,20.38-20.38S590.65,29.11,579.42,29.11
		z"/>
	<path d="M918.55,121.36c-27.4,0-49.7-22.29-49.7-49.7c0-27.4,22.29-49.7,49.7-49.7c27.4,0,49.7,22.29,49.7,49.7
		C968.25,99.06,945.96,121.36,918.55,121.36z M918.55,51.27c-11.24,0-20.38,9.14-20.38,20.38s9.14,20.38,20.38,20.38
		c11.24,0,20.38-9.14,20.38-20.38S929.79,51.27,918.55,51.27z"/>
	<path d="M579.42,302.52c-8.1,0-14.66-6.56-14.66-14.66V84.53c0-8.1,6.56-14.66,14.66-14.66s14.66,6.56,14.66,14.66v203.33
		C594.07,295.96,587.51,302.52,579.42,302.52z"/>
	<path d="M507.4,335.86c-3.43,0-6.87-1.2-9.66-3.64L222.82,91.19c-6.09-5.34-6.7-14.6-1.36-20.69c5.34-6.09,14.6-6.7,20.69-1.36
		l274.92,241.03c6.09,5.34,6.7,14.6,1.36,20.69C515.53,334.17,511.47,335.86,507.4,335.86z"/>
	<path d="M649.07,333.18c-3.97,0-7.92-1.6-10.81-4.76c-5.47-5.97-5.06-15.24,0.91-20.71l243.65-223.2
		c5.97-5.47,15.24-5.06,20.71,0.91c5.47,5.97,5.06,15.24-0.91,20.71l-243.65,223.2C656.16,331.91,652.61,333.18,649.07,333.18z"/>
	<path d="M484.97,387.72c-0.48,0-0.96-0.02-1.45-0.07l-274.41-26.91c-8.06-0.79-13.95-7.96-13.16-16.02
		c0.79-8.06,7.95-13.95,16.02-13.16l274.41,26.91c8.06,0.79,13.95,7.96,13.16,16.02C498.8,382.06,492.42,387.72,484.97,387.72z"/>
	<path d="M260.55,600.38c-4.84,0-9.58-2.4-12.37-6.78c-4.35-6.83-2.35-15.89,4.48-20.24l239.25-152.6
		c6.82-4.35,15.89-2.35,20.24,4.48c4.35,6.83,2.35,15.89-4.48,20.24l-239.25,152.6C265.98,599.63,263.25,600.38,260.55,600.38z"/>
</g>
</svg>
