<?xml version="1.0" encoding="utf-8"?>
<!-- Generator: Adobe Illustrator 24.0.2, SVG Export Plug-In . SVG Version: 6.00 Build 0)  -->
<svg version="1.1" id="Layer_1" xmlns="http://www.w3.org/2000/svg" xmlns:xlink="http://www.w3.org/1999/xlink" x="0px" y="0px"
	 viewBox="0 0 1139.65 953.37" style="enable-background:new 0 0 1139.65 953.37;" xml:space="preserve">
<style type="text/css">
	.st0{fill:#303591;}
	.st1{fill:#007291;}
	.st2{fill:#00A5DC;}
</style>
<circle class="st0" cx="285.09" cy="191.79" r="60"/>
<circle class="st0" cx="854.09" cy="191.79" r="60"/>
<circle class="st0" cx="285.09" cy="761.79" r="60"/>
<circle class="st1" cx="167.09" cy="476.79" r="60"/>
<circle class="st1" cx="972.09" cy="476.79" r="60"/>
<circle class="st1" cx="569.09" cy="71.79" r="60"/>
<circle class="st1" cx="569.09" cy="880.79" r="60"/>
<circle class="st0" cx="854.09" cy="761.79" r="60"/>
<circle class="st2" cx="570.59" cy="476.29" r="126.5"/>
<g>
	<g>
		<g>
			<path d="M569.59,340.84c-74.96,0-135.95,60.99-135.95,135.95s60.99,135.95,135.95,135.95s135.95-60.98,135.95-135.95
				S644.55,340.84,569.59,340.84z M569.59,583.83c-59.02,0-107.04-48.01-107.04-107.04c0-59.02,48.02-107.04,107.04-107.04
				c59.03,0,107.04,48.02,107.04,107.04C676.63,535.81,628.62,583.83,569.59,583.83z"/>
		</g>
	</g>
	<g>
		<g>
			<path d="M555.14,147.33l0,122.95l-31.8-31.8c-5.65-5.65-14.79-5.65-20.44,0c-5.65,5.64-5.65,14.8,0,20.44l56.47,56.47
				c2.67,2.67,6.45,4.24,10.22,4.24c3.78,0,7.55-1.56,10.22-4.24l57.88-57.88c5.65-5.64,5.65-14.8,0-20.44
				c-5.65-5.65-14.79-5.65-20.44,0l-33.21,33.21l0-122.95c34.18-6.75,60.05-36.91,60.05-73.04c0-41.08-33.42-74.5-74.5-74.5
				s-74.5,33.42-74.5,74.5C495.09,110.42,520.96,140.58,555.14,147.33z M569.59,28.7c25.14,0,45.59,20.45,45.59,45.59
				s-20.45,45.59-45.59,45.59c-25.14,0-45.59-20.45-45.59-45.59S544.45,28.7,569.59,28.7z"/>
		</g>
	</g>
	<g>
		<g>
			<path d="M584.04,806.25l0-122.95l33.21,33.21c5.65,5.65,14.79,5.65,20.44,0c5.65-5.64,5.65-14.8,0-20.44l-57.88-57.88
				c-5.6-5.61-14.83-5.63-20.45,0l-56.47,56.47c-5.65,5.64-5.65,14.8,0,20.44c5.65,5.65,14.79,5.65,20.44,0l31.8-31.8l0,122.95
				c-34.18,6.75-60.05,36.91-60.05,73.04c0,41.08,33.42,74.5,74.5,74.5s74.5-33.42,74.5-74.5
				C644.1,843.16,618.23,813.01,584.04,806.25z M569.59,924.88c-25.14,0-45.59-20.45-45.59-45.59c0-25.14,20.45-45.59,45.59-45.59
				c25.14,0,45.59,20.45,45.59,45.59C615.19,904.43,594.73,924.88,569.59,924.88z"/>
		</g>
	</g>
	<g>
		<g>
			<path d="M792.33,233.6l-86.94,86.94v-44.98c0-7.98-6.47-14.45-14.45-14.45c-7.98,0-14.46,6.47-14.45,14.45l0,79.86
				c0,3.78,1.56,7.56,4.23,10.23c2.67,2.67,6.45,4.24,10.23,4.23l81.86,0c7.98,0,14.46-6.47,14.45-14.45
				c0-7.99-6.47-14.45-14.45-14.45l-46.97,0l86.94-86.93c28.95,19.39,68.56,16.37,94.11-9.18c29.05-29.05,29.05-76.31,0-105.36
				c-29.05-29.05-76.31-29.05-105.36,0C775.97,165.05,772.94,204.66,792.33,233.6z M886.44,159.94c17.78,17.78,17.78,46.7,0,64.48
				c-17.78,17.78-46.7,17.77-64.48,0c-17.78-17.78-17.78-46.7,0-64.48C839.74,142.16,868.66,142.17,886.44,159.94z"/>
		</g>
	</g>
	<g>
		<g>
			<path d="M346.85,719.98l86.93-86.94l0,46.97c0,7.99,6.47,14.45,14.45,14.45c7.98,0,14.46-6.47,14.45-14.45l0-81.86
				c0-7.92-6.5-14.46-14.46-14.46l-79.87,0c-7.98,0-14.46,6.47-14.45,14.45c0,7.99,6.47,14.45,14.45,14.45l44.98,0l-86.93,86.94
				c-28.95-19.39-68.56-16.36-94.11,9.18c-29.05,29.05-29.05,76.31,0,105.36c29.05,29.05,76.31,29.05,105.36,0
				C363.21,788.53,366.24,748.92,346.85,719.98z M252.74,793.64c-17.78-17.78-17.78-46.7,0-64.48c17.78-17.78,46.7-17.77,64.48,0
				c17.78,17.78,17.78,46.7,0,64.48C299.44,811.42,270.52,811.42,252.74,793.64z"/>
		</g>
	</g>
	<g>
		<g>
			<path d="M899.05,462.34l-122.95,0l31.8-31.8c5.65-5.65,5.65-14.79,0-20.44c-5.64-5.65-14.8-5.65-20.44,0L731,466.56
				c-2.67,2.67-4.24,6.44-4.24,10.22c0,3.78,1.57,7.55,4.24,10.23l57.88,57.88c5.64,5.65,14.8,5.65,20.44,0
				c5.65-5.65,5.65-14.79,0-20.44l-33.21-33.21l122.94,0c6.76,34.18,36.91,60.05,73.04,60.05c41.08,0,74.5-33.42,74.5-74.5
				s-33.42-74.5-74.5-74.5C935.96,402.29,905.81,428.16,899.05,462.34z M1017.68,476.79c0,25.14-20.45,45.59-45.59,45.59
				c-25.14,0-45.59-20.45-45.59-45.59s20.45-45.59,45.59-45.59C997.23,431.2,1017.68,451.65,1017.68,476.79z"/>
		</g>
	</g>
	<g>
		<g>
			<path d="M240.13,491.24l122.95,0l-33.22,33.21c-5.65,5.65-5.65,14.79,0,20.44c5.64,5.65,14.8,5.65,20.44,0l57.88-57.88
				c5.61-5.6,5.63-14.83,0-20.45l-56.47-56.47c-5.64-5.65-14.8-5.65-20.44,0c-5.65,5.65-5.65,14.79,0,20.44l31.8,31.8l-122.95,0
				c-6.76-34.18-36.91-60.05-73.04-60.05c-41.08,0-74.5,33.42-74.5,74.5s33.42,74.5,74.5,74.5
				C203.22,551.29,233.37,525.43,240.13,491.24z M121.5,476.79c0-25.14,20.45-45.59,45.59-45.59c25.14,0,45.59,20.45,45.59,45.59
				c0,25.14-20.45,45.59-45.59,45.59C141.95,522.39,121.5,501.93,121.5,476.79z"/>
		</g>
	</g>
	<g>
		<g>
			<path d="M812.78,699.53l-86.93-86.94l44.98,0c7.99,0,14.45-6.47,14.45-14.45c0-7.98-6.47-14.46-14.45-14.45l-79.86,0
				c-3.78,0-7.55,1.56-10.23,4.23c-2.67,2.67-4.24,6.45-4.23,10.23l0,81.86c0,7.98,6.47,14.46,14.45,14.45
				c7.98,0,14.45-6.47,14.45-14.45v-46.97l86.93,86.94c-19.39,28.95-16.37,68.56,9.18,94.11c29.05,29.05,76.31,29.05,105.36,0
				c29.05-29.05,29.05-76.31,0-105.36C881.33,683.17,841.72,680.14,812.78,699.53z M886.44,793.64c-17.78,17.78-46.7,17.78-64.48,0
				c-17.78-17.78-17.77-46.7,0-64.48c17.78-17.78,46.7-17.78,64.48,0C904.22,746.94,904.22,775.86,886.44,793.64z"/>
		</g>
	</g>
	<g>
		<g>
			<path d="M326.41,254.05l86.94,86.93h-46.97c-7.99,0-14.45,6.47-14.45,14.45c0,7.98,6.47,14.45,14.45,14.45l81.86,0
				c7.92,0,14.46-6.5,14.46-14.46l0-79.87c0-7.98-6.47-14.46-14.45-14.45c-7.99,0-14.45,6.47-14.45,14.45v44.98l-86.94-86.94
				c19.39-28.95,16.36-68.56-9.19-94.11c-29.05-29.05-76.31-29.05-105.36,0c-29.05,29.05-29.05,76.31,0,105.36
				C257.85,270.41,297.46,273.44,326.41,254.05z M252.74,159.94c17.78-17.78,46.7-17.78,64.48,0c17.78,17.78,17.77,46.7,0,64.48
				c-17.78,17.78-46.7,17.78-64.48,0C234.96,206.64,234.97,177.72,252.74,159.94z"/>
		</g>
	</g>
</g>
</svg>
