<?xml version="1.0" encoding="utf-8"?>
<!-- Generator: Adobe Illustrator 24.0.2, SVG Export Plug-In . SVG Version: 6.00 Build 0)  -->
<svg version="1.1" id="Layer_1" xmlns="http://www.w3.org/2000/svg" xmlns:xlink="http://www.w3.org/1999/xlink" x="0px" y="0px"
	 viewBox="0 0 1139.65 953.37" style="enable-background:new 0 0 1139.65 953.37;" xml:space="preserve">
<style type="text/css">
	.st0{fill:#303591;}
	.st1{fill:#00A5DC;}
	.st2{fill:#007291;}
</style>
<ellipse class="st0" cx="229.59" cy="129.79" rx="105.5" ry="111"/>
<ellipse class="st1" cx="195" cy="858.79" rx="73.09" ry="73"/>
<ellipse class="st0" cx="594" cy="853.79" rx="73.09" ry="73"/>
<ellipse class="st1" cx="468" cy="272.79" rx="73.09" ry="73"/>
<ellipse class="st2" cx="626" cy="81.79" rx="73.09" ry="73"/>
<ellipse class="st2" cx="816" cy="478.79" rx="73.09" ry="73"/>
<ellipse class="st0" cx="206" cy="613.29" rx="51.09" ry="56.5"/>
<ellipse class="st0" cx="991" cy="367.29" rx="51.09" ry="56.5"/>
<ellipse class="st1" cx="155.2" cy="398.29" rx="30.29" ry="33.5"/>
<ellipse class="st1" cx="914" cy="148.29" rx="119.09" ry="123.5"/>
<ellipse class="st2" cx="909.4" cy="724.29" rx="117.31" ry="134.5"/>
<g>
	<g>
		<path d="M483.52,747.79c-96.12,0-174.31-78.2-174.31-174.31s78.2-174.31,174.31-174.31s174.31,78.2,174.31,174.31
			S579.63,747.79,483.52,747.79z M483.52,430.86c-78.64,0-142.62,63.97-142.62,142.62s63.98,142.62,142.62,142.62
			s142.62-63.97,142.62-142.62S562.15,430.86,483.52,430.86z"/>
	</g>
	<g>
		<path d="M229.97,256.54c-69.9,0-126.77-56.87-126.77-126.77S160.07,3,229.97,3s126.77,56.87,126.77,126.77
			S299.87,256.54,229.97,256.54z M229.97,34.69c-52.43,0-95.08,42.65-95.08,95.08s42.65,95.08,95.08,95.08s95.08-42.65,95.08-95.08
			S282.4,34.69,229.97,34.69z"/>
	</g>
	<g>
		<path d="M911.37,288.24c-78.64,0-142.62-63.97-142.62-142.62S832.74,3,911.37,3s142.62,63.97,142.62,142.62
			S990.01,288.24,911.37,288.24z M911.37,34.69c-61.17,0-110.93,49.77-110.93,110.93s49.76,110.93,110.93,110.93
			s110.93-49.77,110.93-110.93S972.54,34.69,911.37,34.69z"/>
	</g>
	<g>
		<path d="M911.37,874.56c-78.64,0-142.62-63.97-142.62-142.62s63.98-142.62,142.62-142.62s142.62,63.97,142.62,142.62
			S990.01,874.56,911.37,874.56z M911.37,621.01c-61.17,0-110.93,49.77-110.93,110.93s49.76,110.93,110.93,110.93
			s110.93-49.77,110.93-110.93S972.54,621.01,911.37,621.01z"/>
	</g>
	<g>
		<path d="M198.28,953.79c-52.43,0-95.08-42.65-95.08-95.08s42.65-95.08,95.08-95.08s95.08,42.65,95.08,95.08
			S250.71,953.79,198.28,953.79z M198.28,795.33c-34.95,0-63.39,28.43-63.39,63.39s28.44,63.39,63.39,63.39s63.39-28.43,63.39-63.39
			S233.23,795.33,198.28,795.33z"/>
	</g>
	<g>
		
			<rect x="219.56" y="731.94" transform="matrix(0.7071 -0.7071 0.7071 0.7071 -438.2012 437.6626)" width="179.28" height="31.69"/>
	</g>
	<g>
		<rect x="317.13" y="211.76" transform="matrix(0.8944 -0.4472 0.4472 0.8944 -115.011 184.3598)" width="31.7" height="248.04"/>
	</g>
	<g>
		<rect x="547.29" y="333.79" transform="matrix(0.7029 -0.7112 0.7112 0.7029 -38.952 606.0222)" width="317.49" height="31.7"/>
	</g>
	<g>
		<rect x="689.52" y="587.89" transform="matrix(0.4472 -0.8944 0.8944 0.4472 -215.142 1004.8481)" width="31.7" height="177.17"/>
	</g>
	<g>
		<path d="M626.14,161.47c-43.69,0-79.23-35.55-79.23-79.23S582.45,3,626.14,3s79.23,35.55,79.23,79.23S669.82,161.47,626.14,161.47
			z M626.14,34.69c-26.21,0-47.54,21.32-47.54,47.54s21.32,47.54,47.54,47.54s47.54-21.32,47.54-47.54S652.35,34.69,626.14,34.69z"
			/>
	</g>
	<g>
		<path d="M467.67,351.62c-43.69,0-79.23-35.55-79.23-79.23s35.55-79.23,79.23-79.23s79.23,35.55,79.23,79.23
			S511.36,351.62,467.67,351.62z M467.67,224.85c-26.21,0-47.54,21.32-47.54,47.54c0,26.21,21.32,47.54,47.54,47.54
			s47.54-21.32,47.54-47.54C515.21,246.18,493.89,224.85,467.67,224.85z"/>
	</g>
	<g>
		<path d="M206.2,684.4c-39.32,0-71.31-31.99-71.31-71.31c0-39.32,31.99-71.31,71.31-71.31s71.31,31.99,71.31,71.31
			C277.51,652.41,245.52,684.4,206.2,684.4z M206.2,573.48c-21.84,0-39.62,17.77-39.62,39.62c0,21.85,17.77,39.62,39.62,39.62
			s39.62-17.77,39.62-39.62C245.82,591.24,228.05,573.48,206.2,573.48z"/>
	</g>
	<g>
		<path d="M150.74,446.7c-26.21,0-47.54-21.32-47.54-47.54c0-26.21,21.32-47.54,47.54-47.54s47.54,21.32,47.54,47.54
			C198.28,425.38,176.95,446.7,150.74,446.7z M150.74,383.32c-8.74,0-15.85,7.1-15.85,15.85s7.11,15.85,15.85,15.85
			s15.85-7.1,15.85-15.85S159.48,383.32,150.74,383.32z"/>
	</g>
	<g>
		<path d="M816.29,573.48c-52.43,0-95.08-42.65-95.08-95.08c0-52.43,42.65-95.08,95.08-95.08c52.43,0,95.08,42.65,95.08,95.08
			C911.37,530.83,868.72,573.48,816.29,573.48z M816.29,415.01c-34.95,0-63.39,28.43-63.39,63.39s28.44,63.39,63.39,63.39
			s63.39-28.43,63.39-63.39S851.25,415.01,816.29,415.01z"/>
	</g>
	<g>
		<path d="M594.44,953.79c-52.43,0-95.08-42.65-95.08-95.08s42.65-95.08,95.08-95.08c52.43,0,95.08,42.65,95.08,95.08
			S646.87,953.79,594.44,953.79z M594.44,795.33c-34.95,0-63.39,28.43-63.39,63.39s28.44,63.39,63.39,63.39s63.39-28.43,63.39-63.39
			S629.39,795.33,594.44,795.33z"/>
	</g>
	<g>
		<path d="M990.61,430.86c-34.95,0-63.39-28.43-63.39-63.39s28.43-63.39,63.39-63.39s63.39,28.43,63.39,63.39
			S1025.56,430.86,990.61,430.86z M990.61,335.78c-17.48,0-31.69,14.22-31.69,31.69c0,17.47,14.21,31.69,31.69,31.69
			s31.69-14.22,31.69-31.69C1022.3,350,1008.08,335.78,990.61,335.78z"/>
	</g>
</g>
</svg>
