<?xml version="1.0" encoding="utf-8"?>
<!-- Generator: Adobe Illustrator 24.0.2, SVG Export Plug-In . SVG Version: 6.00 Build 0)  -->
<svg version="1.1" id="Layer_1" xmlns="http://www.w3.org/2000/svg" xmlns:xlink="http://www.w3.org/1999/xlink" x="0px" y="0px"
	 viewBox="0 0 1139.65 953.37" style="enable-background:new 0 0 1139.65 953.37;" xml:space="preserve">
<style type="text/css">
	.st0{fill:#00A5DC;}
	.st1{fill:#007291;}
	.st2{fill:#303591;}
</style>
<circle class="st0" cx="398.09" cy="125.79" r="121"/>
<circle class="st1" cx="398.09" cy="825.79" r="121"/>
<circle class="st2" cx="810.09" cy="825.79" r="121"/>
<g>
	<path d="M397.92,254.02c-70.48,0-127.82-57.34-127.82-127.82c0-70.48,57.34-127.82,127.82-127.82S525.74,55.72,525.74,126.2
		C525.74,196.68,468.4,254.02,397.92,254.02z M397.92,21.7c-57.62,0-104.5,46.88-104.5,104.5c0,57.62,46.88,104.5,104.5,104.5
		c57.62,0,104.5-46.88,104.5-104.5C502.42,68.58,455.54,21.7,397.92,21.7z"/>
	<rect x="383.7" y="237.39" width="28.44" height="479.88"/>
	<path d="M397.92,953.79c-70.48,0-127.82-57.34-127.82-127.82c0-70.48,57.34-127.82,127.82-127.82s127.82,57.34,127.82,127.82
		C525.74,896.45,468.4,953.79,397.92,953.79z M397.92,721.47c-57.62,0-104.5,46.88-104.5,104.5c0,57.62,46.88,104.5,104.5,104.5
		c57.62,0,104.5-46.88,104.5-104.5C502.42,768.35,455.54,721.47,397.92,721.47z"/>
	<path d="M810.31,953.79c-70.48,0-127.82-57.34-127.82-127.82c0-70.48,57.34-127.82,127.82-127.82s127.82,57.34,127.82,127.82
		C938.14,896.45,880.8,953.79,810.31,953.79z M810.31,721.47c-57.62,0-104.5,46.88-104.5,104.5c0,57.62,46.88,104.5,104.5,104.5
		c57.62,0,104.5-46.88,104.5-104.5C914.81,768.35,867.94,721.47,810.31,721.47z"/>
	<path d="M824.55,456.83c-0.61-70.57-58.51-127.49-129.09-126.88l-135.1,0.23l75.77-54.5c5-3.6,6.15-10.63,2.55-15.63
		c-3.6-5-10.63-6.15-15.63-2.55L520.04,331.6c-0.09,0.06-0.16,0.13-0.25,0.2c-0.99,0.6-1.91,1.36-2.7,2.29l0,0
		c-3.99,4.69-3.43,11.79,1.26,15.78l96.57,82.31c4.69,3.99,11.79,3.43,15.78-1.26c3.99-4.69,3.43-11.79-1.26-15.78l-66.33-56.54
		l132.59-0.21c54.89-0.47,99.93,43.8,100.4,98.69l0.91,264.81l28.44-0.24L824.55,456.83z"/>
</g>
</svg>
