<?xml version="1.0" encoding="utf-8"?>
<!-- Generator: Adobe Illustrator 24.0.2, SVG Export Plug-In . SVG Version: 6.00 Build 0)  -->
<svg version="1.1" id="Layer_1" xmlns="http://www.w3.org/2000/svg" xmlns:xlink="http://www.w3.org/1999/xlink" x="0px" y="0px"
	 viewBox="0 0 1139.65 953.37" style="enable-background:new 0 0 1139.65 953.37;" xml:space="preserve">
<style type="text/css">
	.st0{fill:#00A5DC;stroke:#000000;stroke-width:12;stroke-miterlimit:10;}
	.st1{fill:none;stroke:#000000;stroke-width:12;stroke-miterlimit:10;}
	.st2{fill:#303591;stroke:#000000;stroke-width:12;stroke-miterlimit:10;}
</style>
<g>
	<path class="st0" d="M586.89,263.35l-155.3,79.12c-11.15,5.68-18.17,17.14-18.17,29.65V581.6c0,12.51,7.02,23.97,18.17,29.65
		l155.3,79.12c9.49,4.84,20.72,4.84,30.21,0l155.3-79.12c11.15-5.68,18.17-17.14,18.17-29.65V372.13c0-12.51-7.02-23.97-18.17-29.65
		l-155.3-79.12C607.61,258.52,596.38,258.52,586.89,263.35z"/>
	<path class="st0" d="M785.41,354.36L617.1,440.11c-9.49,4.83-20.72,4.83-30.21,0l-168.3-85.75"/>
	<line class="st0" x1="601.99" y1="443.74" x2="601.99" y2="694"/>
</g>
<line class="st1" x1="602" y1="88.38" x2="602" y2="259.72"/>
<path class="st2" d="M646.22,44.16c0,24.43-19.8,44.23-44.23,44.23c-24.43,0-44.23-19.8-44.23-44.23c0-24.42,19.8-44.23,44.23-44.23
	C626.42-0.07,646.22,19.73,646.22,44.16z"/>
<path class="st2" d="M226.08,484.58c0,24.43-19.8,44.23-44.23,44.23s-44.23-19.8-44.23-44.23s19.8-44.23,44.23-44.23
	S226.08,460.15,226.08,484.58z"/>
<circle class="st1" cx="602" cy="156.57" r="12.09"/>
<line class="st1" x1="601.99" y1="865.34" x2="601.99" y2="694"/>
<path class="st2" d="M557.77,909.57c0-24.43,19.8-44.23,44.23-44.23c24.43,0,44.23,19.8,44.23,44.23c0,24.42-19.8,44.23-44.23,44.23
	C577.57,953.79,557.77,933.99,557.77,909.57z"/>
<circle class="st1" cx="601.99" cy="797.16" r="12.09"/>
<circle class="st1" cx="884.24" cy="484.58" r="12.09"/>
<circle class="st1" cx="319.75" cy="484.58" r="12.09"/>
<line class="st1" x1="390.42" y1="484.58" x2="226.08" y2="484.58"/>
<g>
	<circle class="st1" cx="319.75" cy="239.47" r="12.09"/>
	<polyline class="st1" points="319.75,484.58 319.75,239.47 254.28,174 	"/>
	<rect x="137.62" y="57.34" class="st1" width="116.66" height="116.66"/>
</g>
<path class="st2" d="M977.91,484.58c0,24.43,19.8,44.23,44.23,44.23s44.23-19.8,44.23-44.23s-19.8-44.23-44.23-44.23
	S977.91,460.15,977.91,484.58z"/>
<line class="st1" x1="813.57" y1="484.58" x2="977.91" y2="484.58"/>
<g>
	<circle class="st1" cx="884.24" cy="239.47" r="12.09"/>
	<polyline class="st1" points="884.24,484.58 884.24,239.47 949.71,174 	"/>
	
		<rect x="949.71" y="57.34" transform="matrix(-1 -1.224647e-16 1.224647e-16 -1 2016.0759 231.3462)" class="st1" width="116.66" height="116.66"/>
</g>
<g>
	<circle class="st1" cx="884.24" cy="729.68" r="12.09"/>
	<polyline class="st1" points="884.24,484.58 884.24,729.68 949.71,795.15 	"/>
	
		<rect x="949.71" y="795.15" transform="matrix(-1 -1.224647e-16 1.224647e-16 -1 2016.0759 1706.9542)" class="st1" width="116.66" height="116.66"/>
</g>
<g>
	<circle class="st1" cx="319.75" cy="729.68" r="12.09"/>
	<polyline class="st1" points="319.75,484.58 319.75,729.68 254.28,795.15 	"/>
	<rect x="137.62" y="795.15" class="st1" width="116.66" height="116.66"/>
</g>
</svg>
