<?xml version="1.0" encoding="utf-8"?>
<!-- Generator: Adobe Illustrator 24.0.2, SVG Export Plug-In . SVG Version: 6.00 Build 0)  -->
<svg version="1.1" id="Layer_1" xmlns="http://www.w3.org/2000/svg" xmlns:xlink="http://www.w3.org/1999/xlink" x="0px" y="0px"
	 viewBox="0 0 1139.65 953.37" style="enable-background:new 0 0 1139.65 953.37;" xml:space="preserve">
<style type="text/css">
	.st0{fill:#00A5DC;}
	.st1{fill:#007291;}
	.st2{fill:#303591;}
</style>
<rect x="242.09" y="354.79" class="st0" width="151" height="453"/>
<rect x="504.09" y="354.79" class="st1" width="151" height="453"/>
<rect x="767.09" y="354.79" class="st2" width="151" height="453"/>
<ellipse class="st0" cx="317.59" cy="827.79" rx="75.5" ry="31"/>
<ellipse class="st1" cx="579.59" cy="827.79" rx="75.5" ry="31"/>
<ellipse class="st2" cx="842.59" cy="827.79" rx="75.5" ry="31"/>
<g>
	<g>
		<g>
			<path d="M241.81,527.83c-8.06,0-14.59-6.53-14.59-14.59V356.37c0-8.06,6.53-14.59,14.59-14.59s14.59,6.53,14.59,14.59v156.87
				C256.39,521.3,249.86,527.83,241.81,527.83z"/>
			<path d="M317.3,885.75c-49.67,0-90.07-43.36-90.07-96.65V563.83c0-8.06,6.53-14.59,14.59-14.59s14.59,6.53,14.59,14.59V789.1
				c0,37.21,27.32,67.48,60.9,67.48s60.9-30.27,60.9-67.48V563.83c0-8.06,6.53-14.59,14.59-14.59c8.06,0,14.59,6.53,14.59,14.59
				V789.1C407.37,842.39,366.96,885.75,317.3,885.75z"/>
			<path d="M392.79,527.83c-8.06,0-14.59-6.53-14.59-14.59V356.37c0-8.06,6.53-14.59,14.59-14.59c8.06,0,14.59,6.53,14.59,14.59
				v156.87C407.37,521.3,400.84,527.83,392.79,527.83z"/>
			<path d="M415.34,369.19H219.25c-8.06,0-14.59-6.53-14.59-14.59c0-8.06,6.53-14.59,14.59-14.59h196.09
				c8.06,0,14.59,6.53,14.59,14.59C429.93,362.66,423.4,369.19,415.34,369.19z"/>
		</g>
		<g>
			<path d="M504.41,527.83c-8.06,0-14.59-6.53-14.59-14.59V356.37c0-8.06,6.53-14.59,14.59-14.59c8.06,0,14.59,6.53,14.59,14.59
				v156.87C519,521.3,512.47,527.83,504.41,527.83z"/>
			<path d="M579.9,885.75c-49.67,0-90.08-43.36-90.08-96.65V563.83c0-8.06,6.53-14.59,14.59-14.59c8.06,0,14.59,6.53,14.59,14.59
				V789.1c0,37.21,27.32,67.48,60.9,67.48c33.58,0,60.9-30.27,60.9-67.48V563.83c0-8.06,6.53-14.59,14.59-14.59
				s14.59,6.53,14.59,14.59V789.1C669.98,842.39,629.57,885.75,579.9,885.75z"/>
			<path d="M655.39,527.83c-8.06,0-14.59-6.53-14.59-14.59V356.37c0-8.06,6.53-14.59,14.59-14.59s14.59,6.53,14.59,14.59v156.87
				C669.98,521.3,663.45,527.83,655.39,527.83z"/>
			<path d="M677.95,369.19H481.86c-8.06,0-14.59-6.53-14.59-14.59c0-8.06,6.53-14.59,14.59-14.59h196.09
				c8.06,0,14.59,6.53,14.59,14.59C692.53,362.66,686,369.19,677.95,369.19z"/>
		</g>
		<g>
			<path d="M767.02,526.89c-8.06,0-14.59-6.53-14.59-14.59V356.37c0-8.06,6.53-14.59,14.59-14.59c8.06,0,14.59,6.53,14.59,14.59
				v155.93C781.61,520.36,775.08,526.89,767.02,526.89z"/>
			<path d="M842.51,885.75c-49.67,0-90.07-43.36-90.07-96.65V563.83c0-8.06,6.53-14.59,14.59-14.59c8.06,0,14.59,6.53,14.59,14.59
				V789.1c0,37.21,27.32,67.48,60.9,67.48s60.9-30.27,60.9-67.48V563.83c0-8.06,6.53-14.59,14.59-14.59
				c8.06,0,14.59,6.53,14.59,14.59V789.1C932.59,842.39,892.18,885.75,842.51,885.75z"/>
			<path d="M918,527.83c-8.06,0-14.59-6.53-14.59-14.59V356.37c0-8.06,6.53-14.59,14.59-14.59c8.06,0,14.59,6.53,14.59,14.59v156.87
				C932.59,521.3,926.06,527.83,918,527.83z"/>
			<path d="M940.55,369.19H744.47c-8.06,0-14.59-6.53-14.59-14.59c0-8.06,6.53-14.59,14.59-14.59h196.09
				c8.06,0,14.59,6.53,14.59,14.59C955.14,362.66,948.61,369.19,940.55,369.19z"/>
		</g>
	</g>
	<path d="M1003.63,953.79H156.18c-8.06,0-14.59-6.53-14.59-14.59V517.65c0-8.06,6.53-14.59,14.59-14.59h847.45
		c8.06,0,14.59,6.53,14.59,14.59v421.56C1018.21,947.26,1011.68,953.79,1003.63,953.79z M170.77,924.62h818.28V532.24H170.77V924.62
		z"/>
	<path d="M317.3,304c-20.86,0-37.82-19.81-37.82-44.15c0-24.34,16.97-44.15,37.82-44.15c20.86,0,37.82,19.81,37.82,44.15
		C355.12,284.2,338.15,304,317.3,304z M317.3,244.87c-4,0-8.65,6.54-8.65,14.98c0,8.44,4.65,14.98,8.65,14.98
		c4,0,8.65-6.54,8.65-14.98C325.95,251.42,321.3,244.87,317.3,244.87z"/>
	<path d="M579.9,316.66c-20.86,0-37.82-19.81-37.82-44.15c0-24.34,16.97-44.15,37.82-44.15c20.86,0,37.82,19.81,37.82,44.15
		C617.73,296.85,600.76,316.66,579.9,316.66z M579.9,257.53c-4,0-8.65,6.54-8.65,14.98c0,8.44,4.65,14.98,8.65,14.98
		c4,0,8.65-6.54,8.65-14.98C588.56,264.07,583.91,257.53,579.9,257.53z"/>
	<path d="M579.9,90.09c-20.86,0-37.82-19.81-37.82-44.15c0-24.34,16.97-44.15,37.82-44.15c20.86,0,37.82,19.81,37.82,44.15
		C617.73,70.29,600.76,90.09,579.9,90.09z M579.9,30.96c-4,0-8.65,6.54-8.65,14.98s4.65,14.98,8.65,14.98c4,0,8.65-6.54,8.65-14.98
		S583.91,30.96,579.9,30.96z"/>
	<path d="M317.3,166.07c-8.06,0-14.59-6.53-14.59-14.59v-45.07c0-8.06,6.53-14.59,14.59-14.59c8.06,0,14.59,6.53,14.59,14.59v45.07
		C331.88,159.54,325.35,166.07,317.3,166.07z"/>
	<path d="M842.51,185.97c-20.86,0-37.82-19.81-37.82-44.15s16.97-44.15,37.82-44.15s37.82,19.81,37.82,44.15
		S863.37,185.97,842.51,185.97z M842.51,126.84c-4,0-8.65,6.54-8.65,14.98s4.65,14.98,8.65,14.98s8.65-6.54,8.65-14.98
		S846.51,126.84,842.51,126.84z"/>
	<path d="M842.51,298.17c-8.06,0-14.59-6.53-14.59-14.59v-45.07c0-8.06,6.53-14.59,14.59-14.59s14.59,6.53,14.59,14.59v45.07
		C857.1,291.64,850.57,298.17,842.51,298.17z"/>
	<path d="M579.9,196.35c-8.06,0-14.59-6.53-14.59-14.59v-45.07c0-8.06,6.53-14.59,14.59-14.59c8.06,0,14.59,6.53,14.59,14.59v45.07
		C594.49,189.82,587.96,196.35,579.9,196.35z"/>
	<g>
		<path d="M1013.93,73.38h-13.45c-8.06,0-14.59-6.53-14.59-14.59s6.53-14.59,14.59-14.59h13.45c8.06,0,14.59,6.53,14.59,14.59
			S1021.98,73.38,1013.93,73.38z"/>
		<path d="M946.42,73.38h-13.45c-8.06,0-14.59-6.53-14.59-14.59s6.53-14.59,14.59-14.59h13.45c8.06,0,14.59,6.53,14.59,14.59
			S954.48,73.38,946.42,73.38z"/>
		<path d="M973.45,46.36c-8.06,0-14.59-6.53-14.59-14.59V18.32c0-8.06,6.53-14.59,14.59-14.59c8.06,0,14.59,6.53,14.59,14.59v13.45
			C988.04,39.83,981.51,46.36,973.45,46.36z"/>
		<path d="M973.45,113.86c-8.06,0-14.59-6.53-14.59-14.59V85.82c0-8.06,6.53-14.59,14.59-14.59c8.06,0,14.59,6.53,14.59,14.59v13.45
			C988.04,107.33,981.51,113.86,973.45,113.86z"/>
	</g>
	<g>
		<path d="M214.38,177.81h-13.45c-8.06,0-14.59-6.53-14.59-14.59s6.53-14.59,14.59-14.59h13.45c8.06,0,14.59,6.53,14.59,14.59
			S222.44,177.81,214.38,177.81z"/>
		<path d="M146.88,177.81h-13.45c-8.06,0-14.59-6.53-14.59-14.59s6.53-14.59,14.59-14.59h13.45c8.06,0,14.59,6.53,14.59,14.59
			S154.94,177.81,146.88,177.81z"/>
		<path d="M173.9,150.78c-8.06,0-14.59-6.53-14.59-14.59v-13.45c0-8.06,6.53-14.59,14.59-14.59s14.59,6.53,14.59,14.59v13.45
			C188.49,144.25,181.96,150.78,173.9,150.78z"/>
		<path d="M173.9,218.29c-8.06,0-14.59-6.53-14.59-14.59v-13.45c0-8.06,6.53-14.59,14.59-14.59s14.59,6.53,14.59,14.59v13.45
			C188.49,211.75,181.96,218.29,173.9,218.29z"/>
	</g>
</g>
</svg>
