<?xml version="1.0" encoding="utf-8"?>
<!-- Generator: Adobe Illustrator 24.0.2, SVG Export Plug-In . SVG Version: 6.00 Build 0)  -->
<svg version="1.1" id="Layer_1" xmlns="http://www.w3.org/2000/svg" xmlns:xlink="http://www.w3.org/1999/xlink" x="0px" y="0px"
	 viewBox="0 0 1139.65 953.37" style="enable-background:new 0 0 1139.65 953.37;" xml:space="preserve">
<style type="text/css">
	.st0{fill:#303591;stroke:#000000;stroke-width:12;stroke-miterlimit:10;}
	.st1{fill:#00A5DC;stroke:#000000;stroke-width:12;stroke-miterlimit:10;}
	.st2{fill:#FFFFFF;stroke:#000000;stroke-width:12;stroke-miterlimit:10;}
	.st3{fill:#007291;stroke:#000000;stroke-width:12;stroke-miterlimit:10;}
	.st4{fill:none;stroke:#000000;stroke-width:12;stroke-miterlimit:10;}
	.st5{fill:none;stroke:#303591;stroke-width:12;stroke-miterlimit:10;}
	.st6{fill:none;stroke:#007291;stroke-width:12;stroke-miterlimit:10;}
	.st7{fill:none;stroke:#00A5DC;stroke-width:12;stroke-miterlimit:10;}
</style>
<path class="st0" d="M856.81,687.88c19.96,11.55,26.81,37.16,15.28,57.14c-11.53,20.02-37.11,26.88-57.06,15.33
	c-19.99-11.55-26.84-37.16-15.31-57.17C811.25,683.19,836.82,676.33,856.81,687.88z"/>
<path class="st1" d="M263.72,560.24c11.53,20.02,4.68,45.59-15.31,57.14c-19.96,11.58-45.53,4.72-57.06-15.3
	c-11.53-20.02-4.68-45.59,15.28-57.17C226.62,533.36,252.19,540.22,263.72,560.24z"/>
<path class="st2" d="M572.94,429.93c26.01,0,47.1,20.95,47.1,46.86c0,25.87-21.09,46.86-47.1,46.86c-26.01,0-47.1-20.99-47.1-46.86
	C525.84,450.88,546.93,429.93,572.94,429.93z"/>
<ellipse class="st3" cx="655.34" cy="125.05" rx="41.79" ry="41.84"/>
<path class="st4" d="M672.65,201.81c4.58,25.41,8.59,52.72,11.83,81.51c4.41,38.76,7.52,80.27,9.16,123.69
	c0.87,22.76,1.3,46.09,1.3,69.79c0,23.7-0.43,47.03-1.3,69.79c-1.64,43.42-4.75,84.92-9.16,123.69
	C665.5,837.3,622.71,953.79,572.94,953.79c-49.78,0-92.56-116.49-111.55-283.52c-4.41-38.76-7.52-80.27-9.16-123.69
	c-0.87-22.76-1.3-46.09-1.3-69.79c0-23.7,0.43-47.03,1.3-69.79c1.64-43.42,4.75-84.92,9.16-123.69
	C480.37,116.28,523.16-0.21,572.94-0.21c19.86,0,38.64,18.58,55.22,51.52"/>
<ellipse class="st4" cx="655.34" cy="125.05" rx="41.78" ry="41.84"/>
<path class="st4" d="M620.04,476.79c0,25.87-21.09,46.86-47.1,46.86c-26.01,0-47.1-20.99-47.1-46.86c0-25.91,21.09-46.86,47.1-46.86
	C598.94,429.93,620.04,450.88,620.04,476.79z"/>
<path class="st4" d="M285.25,527.81c19.69-16.7,41.28-33.81,64.55-51.01c31.32-23.23,65.69-46.7,102.42-69.79
	c19.29-12.15,39.21-24.17,59.7-36.02c20.49-11.85,40.88-23.13,61.01-33.77c38.34-20.29,75.82-38.33,111.55-53.89
	c153.94-67.08,276.12-88.17,300.99-45.02c24.87,43.15-54.45,138.51-189.44,238.5c-31.32,23.2-65.65,46.66-102.39,69.79
	c-19.29,12.12-39.21,24.17-59.7,36.02c-20.49,11.85-40.88,23.13-61.01,33.77c-38.34,20.29-75.82,38.33-111.55,53.89
	c-153.97,67.05-276.12,88.17-300.99,45.02c-9.93-17.24-3.24-42.81,16.95-73.68"/>
<path class="st4" d="M206.63,544.91c19.99-11.55,45.56-4.69,57.1,15.33c11.53,20.02,4.68,45.59-15.31,57.14
	c-19.96,11.58-45.53,4.72-57.06-15.3C179.82,582.07,186.67,556.49,206.63,544.91z"/>
<path class="st4" d="M760.91,700.73c-24.3-8.74-49.88-18.91-76.42-30.46c-35.74-15.57-73.17-33.61-111.55-53.89
	c-20.12-10.68-40.52-21.93-61.01-33.77c-20.49-11.85-40.45-23.9-59.7-36.02c-36.74-23.13-71.1-46.6-102.42-69.79
	c-134.95-99.99-214.28-195.35-189.4-238.5c24.87-43.18,147.02-22.03,300.99,45.02c35.73,15.57,73.21,33.61,111.55,53.89
	c20.12,10.68,40.52,21.93,61.01,33.77c20.49,11.85,40.41,23.9,59.7,36.02c36.74,23.13,71.07,46.6,102.39,69.79
	c134.98,99.99,214.31,195.35,189.44,238.5c-9.93,17.2-35.4,24.2-72.17,22.13"/>
<path class="st4" d="M815.03,760.35c-19.99-11.55-26.84-37.16-15.31-57.17c11.53-19.98,37.11-26.85,57.1-15.3
	c19.96,11.55,26.81,37.16,15.28,57.14C860.56,765.03,834.98,771.9,815.03,760.35z"/>
<path class="st5" d="M263.62,295.53c0,2.21-1.8,4.02-4.01,4.02c-2.21,0-4.01-1.81-4.01-4.02c0-2.24,1.8-4.02,4.01-4.02
	C261.82,291.51,263.62,293.29,263.62,295.53z"/>
<path class="st6" d="M565.65,832.65c1.94-1.1,4.38-0.44,5.48,1.47c1.1,1.91,0.47,4.38-1.47,5.49c-1.91,1.1-4.38,0.44-5.48-1.47
	C563.08,836.2,563.74,833.75,565.65,832.65z"/>
<path class="st7" d="M879.17,302.16c-1.91-1.1-2.57-3.58-1.47-5.49c1.1-1.91,3.58-2.58,5.48-1.47c1.91,1.1,2.57,3.58,1.47,5.49
	C883.55,302.59,881.08,303.26,879.17,302.16z"/>
</svg>
