<?xml version="1.0" encoding="utf-8"?>
<!-- Generator: Adobe Illustrator 24.0.2, SVG Export Plug-In . SVG Version: 6.00 Build 0)  -->
<svg version="1.1" id="Layer_1" xmlns="http://www.w3.org/2000/svg" xmlns:xlink="http://www.w3.org/1999/xlink" x="0px" y="0px"
	 viewBox="0 0 1139.65 953.37" style="enable-background:new 0 0 1139.65 953.37;" xml:space="preserve">
<style type="text/css">
	.st0{fill:#00A5DC;}
	.st1{fill:#303591;}
	.st2{fill:#007291;}
	.st3{fill:#FFFFFF;}
</style>
<polygon class="st0" points="574.09,444.79 453.09,601.79 524.09,739.79 630.09,739.79 694.09,591.79 "/>
<ellipse class="st1" cx="364.09" cy="277.79" rx="29" ry="22"/>
<circle class="st2" cx="783.59" cy="279.29" r="24.5"/>
<rect x="545.09" y="247.79" class="st0" width="63" height="63"/>
<circle class="st3" cx="573.59" cy="562.29" r="22.5"/>
<g>
	<path d="M181.8,470.3l43.26,48.19l16.37-14.71l-68.52-76.33l-76.32,68.52l14.71,16.38l48.52-43.55
		c-3.74,192.13,128.87,365.92,317.93,410.68l5.07-21.43C304.16,815.77,178.77,651.78,181.8,470.3z"/>
	<path d="M580.07,85l-48.18,43.25l14.71,16.38l76.34-68.52L554.4-0.21L538.03,14.5l43.54,48.52
		c-192.04-3.8-365.92,128.87-410.67,317.94l21.41,5.07C234.62,207.36,398.52,81.97,580.07,85z"/>
	<path d="M965.38,483.26l-43.24-48.17l-16.4,14.71l68.51,76.33l76.33-68.52l-14.7-16.38l-48.52,43.56
		c3.76-192.13-128.85-365.93-317.93-410.69l-5.07,21.43C843.02,137.81,968.42,301.79,965.38,483.26z"/>
	<path d="M567.12,868.59l48.18-43.26l-14.71-16.38l-76.34,68.52l68.51,76.33l16.4-14.71l-43.69-48.68c2.7,0.05,5.42,0.35,8.11,0.35
		c188.95,0,358.57-131.66,402.7-318.12l-21.41-5.07C912.57,746.22,748.86,871.69,567.12,868.59z"/>
	<path d="M780.81,318.34c22.34,0,40.53-18.19,40.53-40.54c0-22.39-18.19-40.62-40.53-40.62c-18.5,0-33.97,12.56-38.82,29.57H617.62
		v-33.04h-88.06v33.04H405.22c-4.82-17.01-20.31-29.57-38.83-29.57c-22.36,0-40.55,18.18-40.55,40.53
		c0,22.4,18.19,40.63,40.55,40.63c18.5,0,33.98-12.56,38.82-29.58h84.61c-17.22,10.03-32.73,23.04-45.49,38.65
		c-24.22,29.66-37.55,67.11-37.55,105.44l0,0v0v0l0,0c0,3.96,0.14,7.89,0.42,11.78l21.96-1.56c-0.24-3.38-0.36-6.78-0.36-10.22
		c0-33.28,11.58-65.78,32.59-91.52c17.79-21.79,41.66-37.9,68.18-46.39v26.82h88.06v-26.83c26.52,8.49,50.39,24.61,68.19,46.39
		c21.01,25.73,32.58,58.24,32.58,91.53c0,3.45-0.11,6.88-0.35,10.27l21.96,1.48c0.26-3.87,0.4-7.79,0.4-11.74l0,0v0v0l0,0
		c0-38.35-13.33-75.8-37.54-105.45c-12.76-15.61-28.27-28.62-45.49-38.65h84.6C746.8,305.77,762.29,318.34,780.81,318.34z
		 M780.81,259.2c10.2,0,18.52,8.35,18.52,18.6c0,10.21-8.32,18.52-18.52,18.52c-10.2,0-18.52-8.31-18.52-18.52
		C762.29,267.54,770.61,259.2,780.81,259.2z M366.39,296.32c-10.22,0-18.53-8.35-18.53-18.61c0-10.21,8.31-18.52,18.53-18.52
		c10.21,0,18.52,8.31,18.52,18.52C384.9,287.98,376.59,296.32,366.39,296.32z M595.61,299.76h-44.03v-44.03h44.03V299.76z"/>
	<path d="M678.95,749.22v-22.01H644.6l64.85-130.65l-5.93-5.6C644.48,535.2,603.16,476.12,584.01,420.1l-10.42-30.48l-10.42,30.48
		c-19.12,56-60.45,115.08-119.49,170.86l-5.93,5.6l64.85,130.65h-34.35v22.01h45.28h120.15H678.95z M573.59,549.97
		c8.3,0,15.05,6.75,15.05,15.05c0,8.29-6.75,15.04-15.05,15.04c-8.29,0-15.04-6.75-15.04-15.04
		C558.56,556.72,565.31,549.97,573.59,549.97z M527.17,727.21l-62.47-125.88c42.78-41.32,75.46-83.31,97.89-125.38v53.88
		c-15.03,4.73-26.04,18.63-26.04,35.2c0,20.43,16.63,37.06,37.05,37.06c20.44,0,37.06-16.63,37.06-37.06
		c0-16.58-11.01-30.49-26.05-35.21v-53.88c22.44,42.09,55.14,84.08,97.9,125.39l-62.48,125.88H527.17z"/>
	<path d="M471.19,535.24c-2.41-2.4-4.72-4.9-6.95-7.47l-16.63,14.43c2.58,2.97,5.26,5.85,8.04,8.63L471.19,535.24z"/>
	<path d="M452.93,512.95c-3.41-5.13-6.54-10.56-9.29-16.15l-19.75,9.73c3.17,6.44,6.78,12.7,10.72,18.61L452.93,512.95z"/>
	<path d="M410.07,465.96c1.42,7,3.3,13.97,5.59,20.73l20.84-7.08c-1.99-5.87-3.63-11.92-4.84-17.99L410.07,465.96z"/>
	<path d="M737.14,465.93l-21.59-4.34c-1.23,6.1-2.87,12.15-4.86,17.97l20.84,7.12C733.83,479.96,735.72,472.98,737.14,465.93z"/>
	<path d="M723.32,506.51l-19.75-9.73c-2.75,5.58-5.88,11.01-9.29,16.15l18.32,12.2C716.55,519.21,720.16,512.95,723.32,506.51z"/>
	<path d="M676,535.24l15.54,15.59c2.78-2.77,5.47-5.65,8.05-8.63l-16.63-14.43C680.73,530.35,678.41,532.84,676,535.24z"/>
</g>
</svg>
