<?xml version="1.0" encoding="utf-8"?>
<!-- Generator: Adobe Illustrator 24.0.2, SVG Export Plug-In . SVG Version: 6.00 Build 0)  -->
<svg version="1.1" id="Layer_1" xmlns="http://www.w3.org/2000/svg" xmlns:xlink="http://www.w3.org/1999/xlink" x="0px" y="0px"
	 viewBox="0 0 1139.65 953.37" style="enable-background:new 0 0 1139.65 953.37;" xml:space="preserve">
<style type="text/css">
	.st0{fill:#00A5DC;}
	.st1{fill:#303591;}
</style>
<polygon class="st0" points="175.09,370.79 175.09,142.79 132.09,142.79 253.09,20.79 382.09,134.79 339.09,142.79 339.09,288.79 
	307.09,343.79 228.09,352.79 "/>
<path class="st1" d="M713,669.2l5.09,134.59l-46,7c0,0,111,122,115,122s136-122,136-122l-50-10l0-131.59H713z"/>
<g>
	<g>
		<path d="M793.59,953.79c-3.77,0-7.55-1.34-10.56-4.02l-143.1-127.2c-4.94-4.38-6.64-11.37-4.3-17.53
			c2.35-6.16,8.26-10.25,14.86-10.25h47.7v-127.2h31.8v143.1c0,8.79-7.11,15.9-15.9,15.9h-21.78l101.28,90.03l101.28-90.03h-21.78
			c-8.79,0-15.9-7.11-15.9-15.9v-143.1h31.8v127.2h47.7c6.6,0,12.51,4.08,14.86,10.25c2.34,6.16,0.64,13.15-4.3,17.53l-143.1,127.2
			C801.14,952.46,797.36,953.79,793.59,953.79z"/>
	</g>
	<g>
		<path d="M189.39,381.39h-31.8V158.8h-47.7c-6.6,0-12.52-4.08-14.86-10.25c-2.34-6.17-0.64-13.15,4.3-17.54l143.1-127.2
			c6.02-5.36,15.09-5.36,21.12,0l143.1,127.2c4.94,4.39,6.64,11.37,4.3,17.54c-2.35,6.17-8.26,10.25-14.86,10.25h-47.7v143.1h-31.8
			v-159c0-8.78,7.11-15.9,15.9-15.9h21.78L252.99,36.97L151.71,127h21.78c8.79,0,15.9,7.12,15.9,15.9V381.39z"/>
	</g>
	<g>
		<path d="M873.09,683.49h-604.2c-96.44,0-174.9-78.46-174.9-174.9s78.46-174.9,174.9-174.9c7.78,0,15.67,0.56,23.59,1.66
			c19.49-57.06,74.17-97.06,135.41-97.06c3.94,0,7.97,0.18,12.03,0.54C474.4,125.47,578.63,47.5,698.19,47.5
			c149.05,0,270.3,121.25,270.3,270.3c0,14.05-1.12,28.19-3.31,42.15c51.36,31.82,82.81,87.75,82.81,148.65
			C1047.99,605.03,969.53,683.49,873.09,683.49z M268.89,365.49c-78.91,0-143.1,64.2-143.1,143.1s64.19,143.1,143.1,143.1h604.2
			c78.91,0,143.1-64.2,143.1-143.1c0-53.03-29.16-101.46-76.08-126.4c-6.21-3.3-9.52-10.29-8.14-17.18
			c3.14-15.56,4.72-31.44,4.72-47.22c0-131.51-106.98-238.5-238.5-238.5c-109.72,0-204.79,74.43-231.22,181.01
			c-2.03,8.18-10.22,13.34-18.37,11.8c-7.08-1.34-14.05-2.01-20.71-2.01c-51.63,0-97.28,36.57-108.54,86.95
			c-0.92,4.11-3.43,7.7-7,9.96c-3.56,2.25-7.87,3.01-12,2.08C289.76,366.7,279.19,365.49,268.89,365.49z"/>
	</g>
	<g>
		<polygon points="547.22,527.65 531.16,500.2 540.09,494.94 556.36,522.25 		"/>
	</g>
	<g>
		<path d="M769.74,588.09c-51.52,0-177.34-80.8-191.51-90.02c-50.51-32.82-142.46-84.88-174.19-84.88
			c-39.45,0-71.55,32.1-71.55,71.55s32.1,71.55,71.55,71.55c9.32,0,40.37-5.46,127.14-56.1l16.02,27.47
			c-68.71,40.1-116.87,60.43-143.16,60.43c-56.99,0-103.35-46.36-103.35-103.35s46.36-103.35,103.35-103.35
			c51.52,0,177.34,80.8,191.51,90.02c50.51,32.82,142.46,84.88,174.19,84.88c39.45,0,71.55-32.1,71.55-71.55
			s-32.1-71.55-71.55-71.55c-9.32,0-40.37,5.47-127.14,56.1l-16.02-27.47c68.71-40.1,116.87-60.43,143.16-60.43
			c56.99,0,103.35,46.36,103.35,103.35S826.73,588.09,769.74,588.09z"/>
	</g>
	<g>
		<polygon points="633.69,474.55 617.42,447.24 626.56,441.83 642.62,469.29 		"/>
	</g>
</g>
</svg>
