<?xml version="1.0" encoding="utf-8"?>
<!-- Generator: Adobe Illustrator 24.0.2, SVG Export Plug-In . SVG Version: 6.00 Build 0)  -->
<svg version="1.1" id="Layer_1" xmlns="http://www.w3.org/2000/svg" xmlns:xlink="http://www.w3.org/1999/xlink" x="0px" y="0px"
	 viewBox="0 0 1139.65 953.37" style="enable-background:new 0 0 1139.65 953.37;" xml:space="preserve">
<style type="text/css">
	.st0{fill:#00A5DC;stroke:#000000;stroke-width:12;stroke-miterlimit:10;}
	.st1{fill:#303591;stroke:#000000;stroke-width:12;stroke-miterlimit:10;}
	.st2{fill:#007291;stroke:#000000;stroke-width:12;stroke-miterlimit:10;}
	.st3{fill:none;stroke:#000000;stroke-width:12;stroke-linejoin:round;stroke-miterlimit:10;}
</style>
<path class="st0" d="M671.65,157.86v123.49H548.41v-92.68c12.01-12.03,18.74-18.78,30.74-30.81H671.65z"/>
<path class="st0" d="M735.27,472.46c17.25,0,31.24,13.88,31.24,31c0,17.12-13.98,31-31.24,31c-17.25,0-31.26-13.88-31.26-31
	C704.01,486.33,718.02,472.46,735.27,472.46z"/>
<path class="st1" d="M613.68,527.52c17.25,0,31.24,13.88,31.24,31c0,17.13-13.98,31-31.24,31c-17.25,0-31.26-13.88-31.26-31
	C582.42,541.4,596.43,527.52,613.68,527.52z"/>
<path class="st2" d="M486.37,472.46c17.28,0,31.26,13.88,31.26,31c0,17.12-13.98,31-31.26,31c-17.25,0-31.24-13.88-31.24-31
	C455.14,486.33,469.12,472.46,486.37,472.46z"/>
<g>
	<line class="st3" x1="450.14" y1="304.12" x2="390.71" y2="304.12"/>
	<line class="st3" x1="769.92" y1="304.12" x2="829.34" y2="304.12"/>
	<polyline class="st3" points="484.67,345.22 484.67,93.96 735.38,93.96 735.38,345.22 	"/>
	<path class="st3" d="M548.41,281.35v-92.68c12.01-12.03,18.74-18.78,30.74-30.81h92.5v123.49H548.41z"/>
	<line class="st3" x1="610.03" y1="59.35" x2="610.03" y2="-0.21"/>
	<line class="st3" x1="694.34" y1="59.35" x2="694.34" y2="-0.21"/>
	<line class="st3" x1="525.69" y1="59.35" x2="525.69" y2="-0.21"/>
	<line class="st3" x1="450.14" y1="219.59" x2="390.71" y2="219.59"/>
	<line class="st3" x1="450.14" y1="135.09" x2="390.71" y2="135.09"/>
	<line class="st3" x1="769.92" y1="219.62" x2="829.34" y2="219.62"/>
	<line class="st3" x1="769.92" y1="135.09" x2="829.34" y2="135.09"/>
	<path class="st3" d="M546.18,953.79c-46.76,0.47-72.75-113.85-72.75-113.85s-127.2,2.04-144.64-24.7
		c-12.31-18.92-11.26-32.38-1.92-65.64c9.37-33.23-43.41-14.04-18.79-50.58c11.7-17.37-27.25-23.37-5.96-58.98
		c11.46-19.16-60.3-24.12-62.56-48.71c8.79-36.45,64.09-79.87,66.07-145.57c0.74-24.56,2.69-47.63,6.15-69.19h598.05
		c2.94,20.04,4.59,41.77,4.72,65.31c0.96,161.26-94.23,191.85-111.29,245.68c-16.29,51.41,11.79,67.81-0.85,95.51"/>
	<polyline class="st3" points="735.27,404.45 735.27,472.46 735.27,472.68 	"/>
	<path class="st3" d="M766.51,503.46c0,17.12-13.98,31-31.24,31c-17.25,0-31.26-13.88-31.26-31c0-17.13,14.01-31,31.26-31
		C752.53,472.46,766.51,486.33,766.51,503.46z"/>
	<polyline class="st3" points="486.37,404.45 486.37,472.46 486.37,472.68 	"/>
	<path class="st3" d="M517.64,503.46c0,17.12-13.98,31-31.26,31c-17.25,0-31.24-13.88-31.24-31c0-17.13,13.98-31,31.24-31
		C503.65,472.46,517.64,486.33,517.64,503.46z"/>
	<polyline class="st3" points="613.68,404.45 613.68,527.52 613.68,527.74 	"/>
	<path class="st3" d="M644.92,558.52c0,17.13-13.98,31-31.24,31c-17.25,0-31.26-13.88-31.26-31c0-17.12,14.01-31,31.26-31
		C630.93,527.52,644.92,541.4,644.92,558.52z"/>
</g>
</svg>
