<?xml version="1.0" encoding="utf-8"?>
<!-- Generator: Adobe Illustrator 24.0.2, SVG Export Plug-In . SVG Version: 6.00 Build 0)  -->
<svg version="1.1" id="Layer_1" xmlns="http://www.w3.org/2000/svg" xmlns:xlink="http://www.w3.org/1999/xlink" x="0px" y="0px"
	 viewBox="0 0 1139.65 953.37" style="enable-background:new 0 0 1139.65 953.37;" xml:space="preserve">
<style type="text/css">
	.st0{fill:#007291;}
	.st1{fill:#00A5DC;}
</style>
<path class="st0" d="M591.09,295.79c0,0,0.05,2.9,0.33,8.22c2.62,49.7,20.67,347.78,223.67,379.78l-161.8-7.36L546.15,323.96
	l35.94-28.17H591.09z"/>
<polygon class="st0" points="630.09,619.79 820.09,694.79 911.09,876.79 723.09,883.79 "/>
<polygon class="st0" points="591.09,295.79 561.09,340.79 501.21,176.12 "/>
<polygon class="st1" points="477.09,96.79 709.4,861 695.26,873.29 29.09,872.79 171.09,615.79 468.09,78.79 "/>
<g>
	<path d="M918.2,894.45H17.79c-6.28,0-12.09-3.33-15.27-8.75c-3.18-5.42-3.24-12.12-0.17-17.6L452.56,64.91
		c3.13-5.59,9.03-9.04,15.44-9.04c6.4,0,12.31,3.46,15.44,9.04L606.86,285.1c4.78,8.53,1.74,19.31-6.78,24.09
		c-8.53,4.78-19.31,1.74-24.09-6.78L468,109.76L48,859.06h839.99L797.05,696.8c-4.78-8.53-1.74-19.31,6.78-24.09
		c8.53-4.78,19.31-1.74,24.09,6.78l105.72,188.6c3.07,5.48,3.01,12.18-0.17,17.6C930.3,891.12,924.48,894.45,918.2,894.45z"/>
	<path d="M617.88,374.69c-5.13,0-10.21-2.22-13.71-6.49c-6.19-7.57-5.07-18.72,2.5-24.9l199.55-163.18
		c7.57-6.19,18.72-5.07,24.9,2.5c6.19,7.57,5.07,18.72-2.5,24.9L629.08,370.7C625.79,373.38,621.82,374.69,617.88,374.69z"/>
	<path d="M411.11,510.85h-90.2c-9.78,0-17.7-7.92-17.7-17.7c0-9.78,7.92-17.7,17.7-17.7h85.29l103.34-62.13
		c8.37-5.04,19.25-2.33,24.29,6.05c5.04,8.38,2.33,19.25-6.05,24.29l-107.55,64.66C417.48,509.97,414.32,510.85,411.11,510.85z"/>
	<path d="M228.82,510.85H23.57c-9.78,0-17.7-7.92-17.7-17.7c0-9.78,7.92-17.7,17.7-17.7h205.25c9.78,0,17.7,7.92,17.7,17.7
		C246.52,502.93,238.6,510.85,228.82,510.85z"/>
	<path d="M978.1,529.7c-0.21,0-0.41,0-0.62-0.01l-307.09-10.54c-9.77-0.33-17.42-8.52-17.08-18.29c0.33-9.56,8.18-17.09,17.68-17.09
		c0.21,0,0.41,0,0.62,0.01l307.09,10.54c9.77,0.33,17.42,8.52,17.08,18.29C995.45,522.17,987.59,529.7,978.1,529.7z"/>
	<path d="M648.11,448.04c-7.58,0-14.59-4.91-16.92-12.53c-2.86-9.35,2.41-19.24,11.75-22.1l284.19-86.85
		c9.36-2.85,19.24,2.41,22.1,11.75c2.86,9.35-2.41,19.24-11.75,22.1l-284.19,86.85C651.57,447.79,649.83,448.04,648.11,448.04z"/>
	<path d="M542.99,547.33c-1.56,0-3.15-0.21-4.73-0.65l-131.87-36.48c-9.42-2.61-14.94-12.36-12.34-21.78
		c2.61-9.42,12.35-14.95,21.78-12.34l131.87,36.48c9.42,2.61,14.94,12.36,12.34,21.78C557.87,542.19,550.74,547.33,542.99,547.33z"
		/>
	<path d="M1045.36,717.01c-1.92,0-3.88-0.32-5.8-0.98L689.66,594.59c-9.23-3.2-14.12-13.29-10.92-22.52
		c3.2-9.23,13.28-14.13,22.52-10.92l349.9,121.44c9.23,3.2,14.12,13.29,10.92,22.52C1059.54,712.42,1052.69,717.01,1045.36,717.01z"
		/>
	<path d="M714.83,894.46c-7.57,0-14.57-4.89-12.22,2.76L455.77,94.03c-7.56-24.61-2.32-34.51,7.03-37.38
		c9.33-2.87,19.24,2.37,22.12,11.72l246.84,803.19c2.87,9.34-2.37,19.24-11.72,22.12C718.31,894.2,716.56,894.46,714.83,894.46z"/>
	<path d="M1031.5,376.38c-27.25,0-49.43-26.05-49.43-58.06s22.17-58.06,49.43-58.06s49.43,26.05,49.43,58.06
		S1058.75,376.38,1031.5,376.38z M1031.5,295.65c-6.62,0-14.03,9.69-14.03,22.67c0,12.97,7.41,22.67,14.03,22.67
		c6.62,0,14.03-9.69,14.03-22.67C1045.53,305.35,1038.12,295.65,1031.5,295.65z"/>
	<path d="M1084.37,564.8c-27.25,0-49.43-26.05-49.43-58.06s22.17-58.06,49.43-58.06c27.25,0,49.43,26.05,49.43,58.06
		S1111.63,564.8,1084.37,564.8z M1084.37,484.07c-6.62,0-14.03,9.69-14.03,22.67c0,12.97,7.41,22.67,14.03,22.67
		c6.62,0,14.03-9.69,14.03-22.67C1098.4,493.76,1091,484.07,1084.37,484.07z"/>
	<path d="M888.13,186.49c-9.78,0-17.7-7.92-17.7-17.7v-61.54c0-9.78,7.92-17.7,17.7-17.7s17.7,7.92,17.7,17.7v61.54
		C905.83,178.56,897.9,186.49,888.13,186.49z"/>
	<path d="M1122.39,755.04c-9.78,0-17.7-7.92-17.7-17.7v-61.54c0-9.78,7.92-17.7,17.7-17.7s17.7,7.92,17.7,17.7v61.54
		C1140.09,747.12,1132.17,755.04,1122.39,755.04z"/>
</g>
</svg>
