<?xml version="1.0" encoding="utf-8"?>
<!-- Generator: Adobe Illustrator 24.0.0, SVG Export Plug-In . SVG Version: 6.00 Build 0)  -->
<svg version="1.1" id="Layer_1" xmlns="http://www.w3.org/2000/svg" xmlns:xlink="http://www.w3.org/1999/xlink" x="0px" y="0px"
	 viewBox="0 0 567.3 383" style="enable-background:new 0 0 567.3 383;" xml:space="preserve">
<style type="text/css">
	.st0{fill:#17097C;}
</style>
<g>
	<g>
		<path class="st0" d="M184.2,225.1v-0.4c0-25.5,19.4-37.3,47.2-37.3c11.8,0,20.3,2,28.6,4.8v-2c0-13.8-8.5-21.4-25.1-21.4
			c-12.7,0-21.6,2.4-32.3,6.3l-8.3-25.3c12.9-5.7,25.5-9.4,45.4-9.4c18.1,0,31.2,4.8,39.5,13.1c8.7,8.7,12.7,21.6,12.7,37.3v67.9
			h-32.1V246c-8.1,9-19.2,14.8-35.4,14.8C202.3,260.9,184.2,248.3,184.2,225.1z M260.4,217.5v-5.9c-5.7-2.6-13.1-4.4-21.2-4.4
			c-14.2,0-22.9,5.7-22.9,16.2v0.4c0,9,7.4,14.2,18.1,14.2C249.9,238,260.4,229.5,260.4,217.5z"/>
	</g>
	<g>
		<path class="st0" d="M310.7,170.5h-13.8v-27.3h13.8v-7.4c0-12.9,3.3-22.3,9.4-28.4c6.1-6.1,15.1-9.2,26.9-9.2
			c10.5,0,17.5,1.3,23.6,3.3V129c-4.8-1.7-9.4-2.8-15.1-2.8c-7.6,0-12,3.9-12,12.7v4.6h26.9v27.1H344v88.6h-33.2L310.7,170.5
			L310.7,170.5z"/>
	</g>
	<g>
		<path class="st0" d="M393.3,226.6v-55.5h-14v-28.4h14v-29.9h33.2v29.9H454v28.4h-27.5v50c0,7.6,3.3,11.4,10.7,11.4
			c6.1,0,11.6-1.5,16.4-4.1V255c-7,4.1-15.1,6.8-26.2,6.8C407.1,261.8,393.3,253.7,393.3,226.6z"/>
	</g>
	<g>
		<path class="st0" d="M108.4,141.8h33.2v23.6c6.8-16.2,17.7-26.6,37.3-25.8v34.7h-1.7c-22.1,0-35.6,13.3-35.6,41.3v43.2h-33.2
			L108.4,141.8L108.4,141.8z"/>
	</g>
</g>
</svg>
