<?xml version="1.0" encoding="utf-8"?>
<!-- Generator: Adobe Illustrator 24.0.2, SVG Export Plug-In . SVG Version: 6.00 Build 0)  -->
<svg version="1.1" id="Layer_1" xmlns="http://www.w3.org/2000/svg" xmlns:xlink="http://www.w3.org/1999/xlink" x="0px" y="0px"
	 viewBox="0 0 1139.65 953.37" style="enable-background:new 0 0 1139.65 953.37;" xml:space="preserve">
<style type="text/css">
	.st0{fill:#303591;}
	.st1{fill:#00A5DC;}
	.st2{fill:#FFFFFF;}
</style>
<circle class="st0" cx="196.59" cy="98.29" r="90.5"/>
<circle class="st0" cx="951.59" cy="98.29" r="90.5"/>
<circle class="st0" cx="196.59" cy="850.29" r="90.5"/>
<circle class="st0" cx="951.59" cy="850.29" r="90.5"/>
<polygon class="st1" points="581.09,88.79 233.09,278.79 233.09,668.79 581.09,875.79 919.09,671.79 919.09,278.79 "/>
<g>
	<g>
		<path d="M892,774.52l-44.32-44.33l75.29-43.47c4.47-2.58,7.23-7.35,7.23-12.52V279.37c0-5.16-2.75-9.94-7.23-12.51L847.7,223.4
			l44.32-44.33c39.32,29.35,94.45,25.74,129.61-9.42c38.91-38.91,38.88-101.81,0-140.7c-38.87-38.87-101.81-38.88-140.68,0
			c-35.47,35.48-38.56,90.65-9.38,129.7l-49.79,49.79l-240.75-139c-4.46-2.58-9.99-2.58-14.45,0L325.79,208.45l-49.78-49.78
			c29.15-38.96,26.18-94.17-9.36-129.72c-38.88-38.87-101.81-38.88-140.69,0c-38.9,38.92-38.88,101.82,0,140.7
			c35.13,35.13,90.23,38.8,129.59,9.44l44.32,44.32l-75.25,43.45c-4.47,2.58-7.23,7.35-7.23,12.51V674.2
			c0,5.17,2.75,9.94,7.23,12.52l75.26,43.45l-44.32,44.32c-39.34-29.35-94.44-25.73-129.61,9.44c-38.91,38.91-38.88,101.81,0,140.7
			c38.87,38.87,101.81,38.88,140.69,0c35.49-35.51,38.54-90.69,9.37-129.7l49.79-49.79l240.76,139c2.23,1.29,4.73,1.94,7.23,1.94
			c2.5,0,5-0.65,7.23-1.94l240.75-138.99l49.8,49.8c-29.26,39.17-25.97,94.31,9.39,129.67c38.86,38.88,101.8,38.89,140.68,0.01
			c38.9-38.92,38.89-101.82,0-140.7C986.48,748.78,931.36,745.13,892,774.52z M901.39,49.39c27.52-27.52,72.15-27.63,99.81,0
			c27.59,27.59,27.6,72.22,0,99.82c-27.65,27.62-72.28,27.53-99.81-0.01C873.8,121.63,873.78,76.99,901.39,49.39z M146.4,149.2
			c-27.59-27.57-27.6-72.22,0-99.81c27.63-27.62,72.27-27.55,99.81-0.01c27.58,27.59,27.6,72.22,0,99.82
			c-0.02,0.01-0.04,0.02-0.05,0.04h0h0C218.59,176.77,174,176.79,146.4,149.2z M246.21,904.19c-27.51,27.52-72.15,27.65-99.81-0.01
			c-27.59-27.56-27.6-72.22,0-99.81c27.6-27.57,72.13-27.57,99.71-0.09c0.02,0.02,0.02,0.05,0.04,0.07
			c0.03,0.02,0.07,0.03,0.09,0.06C273.79,831.99,273.81,876.6,246.21,904.19z M573.79,854.93L246.31,665.86V287.72l327.5-189.07
			l327.48,189.07v378.14L573.79,854.93z M1001.19,904.18c-27.63,27.63-72.28,27.56-99.81,0c-27.59-27.56-27.6-72.22,0-99.81
			c27.54-27.54,72.15-27.63,99.81,0C1028.77,831.94,1028.81,876.6,1001.19,904.18z"/>
	</g>
</g>
<rect x="491.09" y="191.79" class="st2" width="175" height="98"/>
<rect x="404.09" y="358.79" class="st2" width="352" height="69"/>
<rect x="404.09" y="486.79" class="st2" width="352" height="76"/>
<rect x="397.09" y="619.79" class="st2" width="374" height="85"/>
<g>
	<g>
		<path d="M776.85,514.12v-28.2c0-7.98-6.47-14.45-14.45-14.45H389.86c-7.99,0-14.45,6.47-14.45,14.45v26.02
			c-26.8-5.21-46.97-26.61-46.97-52.2c0-25.6,20.17-47,46.97-52.2v26.02c0,7.98,6.47,14.45,14.45,14.45H762.4
			c7.99,0,14.45-6.48,14.45-14.45v-83.45c0-7.99-6.47-14.45-14.45-14.45H590.59v-27.46h80.27c7.99,0,14.45-6.47,14.45-14.45V193.01
			c0-7.99-6.46-14.45-14.45-14.45H481.39c-7.99,0-14.45,6.47-14.45,14.45v100.73c0,7.98,6.47,14.45,14.45,14.45h80.29v27.46H389.86
			c-7.99,0-14.45,6.46-14.45,14.45v28.19c-42.83,5.72-75.88,40-75.88,81.44c0,41.42,33.05,75.71,75.88,81.42v28.2
			c0,7.98,6.47,14.45,14.45,14.45H762.4c7.99,0,14.45-6.47,14.45-14.45v-26.02c26.8,5.21,46.97,26.61,46.97,52.2
			c0,25.6-20.17,47-46.97,52.2v-26.02c0-7.98-6.47-14.45-14.45-14.45H389.86c-7.99,0-14.45,6.47-14.45,14.45v83.45
			c0,7.99,6.47,14.45,14.45,14.45H762.4c7.99,0,14.45-6.47,14.45-14.45v-28.2c42.83-5.72,75.88-40,75.88-81.43
			C852.73,554.12,819.68,519.84,776.85,514.12z M495.85,207.46h160.56v71.82H495.85V207.46z M404.31,364.56h343.63v54.54H404.31
			V364.56z M747.94,554.91H404.31v-54.54h343.63V554.91z M747.94,690.72H404.31v-54.54h343.63V690.72z"/>
	</g>
</g>
</svg>
