<?xml version="1.0" encoding="utf-8"?>
<!-- Generator: Adobe Illustrator 24.0.2, SVG Export Plug-In . SVG Version: 6.00 Build 0)  -->
<svg version="1.1" id="Layer_1" xmlns="http://www.w3.org/2000/svg" xmlns:xlink="http://www.w3.org/1999/xlink" x="0px" y="0px"
	 viewBox="0 0 1139.65 953.37" style="enable-background:new 0 0 1139.65 953.37;" xml:space="preserve">
<style type="text/css">
	.st0{fill:#303591;}
	.st1{fill:#007291;}
	.st2{fill:#00A5DC;}
</style>
<rect x="664.09" y="325.79" class="st0" width="59" height="65"/>
<polygon class="st1" points="325.09,575.79 449.09,579.79 269.09,928.79 206.09,936.79 181.09,895.79 "/>
<polygon class="st1" points="694.09,575.79 813.09,579.79 961.09,874.79 955.09,909.79 935.09,932.79 906.09,941.79 869.09,928.79 
	"/>
<rect x="52.09" y="16.79" class="st2" width="1042" height="84"/>
<polygon points="338.3,278.89 370.71,246.48 403.12,278.89 420.58,261.44 388.16,229.02 420.58,196.61 403.12,179.16 370.71,211.57 
	338.3,179.16 320.84,196.61 353.26,229.02 320.84,261.44 "/>
<polygon points="868.24,437.65 835.83,470.06 803.42,437.65 785.96,455.1 818.38,487.51 785.96,519.92 803.42,537.37 835.83,504.96 
	868.24,537.37 885.7,519.92 853.28,487.51 885.7,455.1 "/>
<path d="M879.16,181.56l35.13,35.12H626.13c-39.47,0-71.59,32.12-71.59,71.59v92.03c0,25.87-21.04,46.91-46.91,46.91H276.91
	c-5.5-20.79-24.3-36.23-46.78-36.23c-26.79,0-48.58,21.79-48.58,48.57c0,26.78,21.79,48.57,48.58,48.57
	c22.48,0,41.27-15.44,46.77-36.23h230.72c39.47,0,71.59-32.12,71.59-71.59v-92.03c0-25.87,21.04-46.91,46.91-46.91h288.16
	l-35.13,35.13l17.45,17.45l64.92-64.93l-64.92-64.91L879.16,181.56z M230.13,463.45c-13.18,0-23.9-10.72-23.9-23.89
	c0-13.17,10.72-23.89,23.9-23.89c13.16,0,23.88,10.72,23.88,23.89C254.01,452.73,243.29,463.45,230.13,463.45z"/>
<path d="M694.54,309.03c-26.77,0-48.56,21.79-48.56,48.57c0,26.78,21.79,48.57,48.56,48.57c26.79,0,48.58-21.79,48.58-48.57
	C743.12,330.82,721.33,309.03,694.54,309.03z M694.54,381.49c-13.16,0-23.88-10.72-23.88-23.89c0-13.17,10.72-23.89,23.88-23.89
	c13.18,0,23.9,10.72,23.9,23.89C718.44,370.77,707.72,381.49,694.54,381.49z"/>
<path d="M1062.66-0.21H75.31c-24.96,0-45.25,20.31-45.25,45.25v498.32c0,24.95,20.3,45.25,45.25,45.25h237.27L173.46,861.15
	c-15.33,32.25-1.57,70.97,30.66,86.32c8.97,4.27,18.45,6.28,27.77,6.28c24.2,0,47.44-13.58,58.42-36.63l167.71-328.5h221.93
	L847.5,916.81c7.44,15.62,20.51,27.42,36.82,33.21c7.09,2.51,14.41,3.77,21.73,3.77c9.5,0,18.96-2.12,27.79-6.32
	c32.25-15.35,46.01-54.08,30.52-86.63L825.39,588.62h237.27c24.96,0,45.25-20.3,45.25-45.25V45.05
	C1107.91,20.1,1087.62-0.21,1062.66-0.21z M75.31,24.48h987.35c11.34,0,20.57,9.22,20.57,20.57v45.49H54.74V45.05
	C54.74,33.7,63.96,24.48,75.31,24.48z M268.18,906.2c-9.52,19.98-33.49,28.47-53.45,18.98c-19.96-9.5-28.46-33.47-19.12-53.12
	l144.68-283.44h90.02L268.18,906.2z M942.2,871.75c9.5,19.96,0.98,43.92-18.98,53.42c-9.69,4.61-20.57,5.17-30.65,1.58
	c-10.09-3.58-18.18-10.89-22.93-20.86L707.66,588.62h90.02L942.2,871.75z M1062.66,563.94H75.31c-11.35,0-20.57-9.23-20.57-20.57
	V115.22h1028.49v428.14C1083.23,554.71,1074,563.94,1062.66,563.94z"/>
</svg>
