<?xml version="1.0" encoding="utf-8"?>
<!-- Generator: Adobe Illustrator 24.0.2, SVG Export Plug-In . SVG Version: 6.00 Build 0)  -->
<svg version="1.1" id="Layer_1" xmlns="http://www.w3.org/2000/svg" xmlns:xlink="http://www.w3.org/1999/xlink" x="0px" y="0px"
	 viewBox="0 0 1139.65 953.37" style="enable-background:new 0 0 1139.65 953.37;" xml:space="preserve">
<style type="text/css">
	.st0{fill:#00A5DC;}
	.st1{fill:#007291;}
	.st2{fill:#FFFFFF;stroke:#303591;stroke-miterlimit:10;}
</style>
<polygon class="st0" points="570.09,28.79 570.09,212.79 790.09,116.79 "/>
<polygon class="st1" points="120.09,682.79 321.09,461.79 822.09,476.79 1022.09,682.79 1032.09,927.79 120.09,935.79 "/>
<polygon class="st2" points="321.09,469.79 371.09,498.79 422.09,498.79 485.09,476.79 537.09,498.79 606.09,508.79 654.09,476.79 
	718.09,498.79 790.09,489.79 813.09,469.79 683.09,346.79 582.09,314.79 485.09,325.79 400.09,397.79 "/>
<path d="M1041.62,671.69L736.89,366.96c-41.2-41.2-93.99-63.88-147.97-68.16V227l218.4-93.12c6.93-2.96,11.42-9.76,11.42-17.29
	s-4.49-14.34-11.42-17.29L577.5,1.3c-5.81-2.48-12.47-1.87-17.74,1.61c-5.27,3.48-8.43,9.37-8.43,15.68V298.8
	c-53.98,4.28-106.77,26.96-147.97,68.16L98.63,671.69c-3.53,3.53-5.51,8.31-5.51,13.29v250.01c0,10.38,8.42,18.8,18.8,18.8h916.4
	c10.38,0,18.8-8.42,18.8-18.8V684.99C1047.12,680,1045.14,675.22,1041.62,671.69z M588.92,186.13V47.04l163.1,69.54L588.92,186.13z
	 M429.94,393.55c77.29-77.3,203.07-77.3,280.36,0l79.29,79.29c-38,25.64-90.16,21.7-123.76-11.9c-7.34-7.34-19.24-7.34-26.59,0
	c-38.11,38.12-100.14,38.12-138.25,0c-7.34-7.34-19.24-7.34-26.59,0c-33.6,33.6-85.76,37.54-123.76,11.9L429.94,393.55z
	 M1009.53,916.2H726.42l-48.44-226.3c-2.18-10.15-12.17-16.61-22.32-14.45c-10.15,2.18-16.62,12.17-14.45,22.32l46.76,218.43H452.92
	l52.81-217.94c2.44-10.09-3.75-20.25-13.84-22.7c-10.07-2.44-20.25,3.75-22.7,13.84L414.24,916.2H130.72V692.77l193.06-193.06
	c48.36,36.57,115.8,36.49,163.93-0.52c48.41,37.21,116.43,37.21,164.84,0c24.21,18.61,53.31,27.91,82.42,27.91
	c28.78,0,57.54-9.13,81.58-27.32l192.98,192.98V916.2z"/>
</svg>
