<?xml version="1.0" encoding="utf-8"?>
<!-- Generator: Adobe Illustrator 24.0.2, SVG Export Plug-In . SVG Version: 6.00 Build 0)  -->
<svg version="1.1" id="Layer_1" xmlns="http://www.w3.org/2000/svg" xmlns:xlink="http://www.w3.org/1999/xlink" x="0px" y="0px"
	 viewBox="0 0 1139.65 953.37" style="enable-background:new 0 0 1139.65 953.37;" xml:space="preserve">
<style type="text/css">
	.st0{fill:#00A5DC;stroke:#000000;stroke-width:12;stroke-miterlimit:10;}
	.st1{fill:#00A5DC;}
	.st2{fill:#FFFFFF;stroke:#000000;stroke-width:12;stroke-miterlimit:10;}
</style>
<path class="st0" d="M959.74,738.48H162c-89.29,0-161.91-72.4-161.91-161.4c0-66.86,41.46-126.25,102.83-150.18
	c-0.04-1.8-0.09-3.65-0.09-5.5c0-125.22,102.18-227.1,227.76-227.1c38.44,0,75.72,9.54,109.12,27.8
	C492.2,138.06,583.82,86.79,684.1,86.79c158.93,0,288.22,128.91,288.22,287.39c0,1.68-0.04,3.35-0.04,5.03
	c93.6,6.45,167.81,84.44,167.81,179.45C1140.09,657.83,1059.2,738.48,959.74,738.48z"/>
<circle class="st1" cx="739.09" cy="713.79" r="98"/>
<g>
	<path class="st2" d="M590.43,550.01l-25.28,0.13c-3.82-16.03-10.31-31.28-19.09-45.51l17.51-17.62c4.14-4,4.1-10.57-0.08-14.65
		l-38.94-38.42c-3.94-3.91-10.56-3.87-14.46,0.04l-17.72,17.88c-14.11-8.6-29.47-14.91-45.63-18.52l-0.13-24.97
		c-0.03-5.8-4.81-10.31-10.45-10.27l-54.81,0.3c-5.8,0.04-10.32,4.6-10.29,10.36l0.13,24.96c-16.35,4-31.64,10.7-45.46,19.21
		l-17.87-17.66c-3.98-3.83-10.6-3.83-14.74,0.09l-38.5,38.84c-3.9,4.13-3.87,10.53,0.08,14.65l17.92,17.62v0.22
		c-8.44,13.88-14.73,29.22-18.61,45.33l-25.04,0.13c-5.8,0.04-10.32,4.6-10.29,10.4l0.29,54.66c0.03,5.59,4.6,10.31,10.4,10.27
		l25.04-0.13c4.05,16.29,10.51,31.54,19.1,45.34l-17.5,17.66c-3.94,4.13-3.9,10.7,0.09,14.61l38.9,38.42
		c4.14,4.08,10.56,4.04,14.7-0.09l17.49-17.62c13.92,8.34,29.47,14.69,45.86,18.52l0.14,24.96c0.03,5.54,4.79,10.27,10.4,10.27
		l54.86-0.3c5.6-0.04,10.31-4.81,10.29-10.36l-0.14-24.97c16.31-4.04,31.6-10.53,45.43-19.04l17.71,17.23
		c4.15,4.08,10.78,4.08,14.7-0.04l38.52-38.84c4.09-3.95,4.06-10.57-0.07-14.44l-17.74-17.44c8.44-14.1,14.98-29.39,18.85-45.94
		l24.84-0.13c5.6-0.04,10.31-4.64,10.28-10.36l-0.29-54.53C600.8,554.53,596.04,549.97,590.43,550.01z M410.58,707.24
		c-65.68,0.34-119.14-52.6-119.49-117.87c-0.13-65.44,52.78-118.73,118.22-119.07c65.78-0.35,119.28,52.55,119.43,118.04
		C529.09,653.57,476.15,706.9,410.58,707.24z"/>
	<path class="st2" d="M861.59,662.12c-0.97-3.82-4.94-6.1-8.64-5.11l-16.76,4.38c-5.29-10.01-12.2-19.08-20.47-27.03l8.65-14.7
		c2.07-3.35,0.91-7.69-2.59-9.75l-32.38-18.91c-3.31-1.98-7.7-0.82-9.64,2.53l-8.7,14.87c-10.83-3.35-22.13-4.94-33.53-4.64
		l-4.35-16.54c-0.99-3.87-4.92-6.06-8.65-5.07l-36.42,9.5c-3.83,1.03-6.06,4.77-5.04,8.64l4.32,16.59
		c-10.19,5.41-19.2,12.46-26.93,20.45l-14.94-8.68c-3.24-1.93-7.67-0.77-9.72,2.54l-19.03,32.31c-1.84,3.44-0.72,7.69,2.54,9.76
		l14.94,8.64l0.04,0.17c-3.24,10.7-4.82,21.91-4.65,33.26l-16.64,4.34c-3.82,1.03-6.07,4.81-5.07,8.68l9.57,36.31
		c0.93,3.69,4.81,6.06,8.64,5.03l16.63-4.34c5.46,10.18,12.37,19.16,20.41,26.9l-8.63,14.69c-1.9,3.44-0.78,7.82,2.55,9.76
		l32.4,18.91c3.46,2.02,7.72,0.86,9.75-2.58l8.65-14.65c10.68,3.22,22.13,4.81,33.64,4.55l4.35,16.59c0.97,3.7,4.94,6.06,8.65,5.07
		l36.43-9.5c3.73-0.94,6.01-4.94,5.06-8.64l-4.33-16.59c10.2-5.41,19.25-12.33,26.97-20.37l14.66,8.51c3.5,2.02,7.91,0.86,9.78-2.58
		l19.03-32.36c2.01-3.26,0.87-7.65-2.52-9.58l-14.75-8.55c3.2-10.83,4.95-22.09,4.66-33.73l16.49-4.34c3.77-0.9,6.06-4.77,5.06-8.59
		L861.59,662.12z M760.18,792.02c-43.6,11.39-88.2-14.82-99.52-58.14c-11.25-43.44,14.85-87.87,58.26-99.13
		c43.71-11.43,88.33,14.69,99.52,58.18C829.78,736.21,803.72,780.68,760.18,792.02z"/>
	<path class="st2" d="M877.14,382.34l-10.42-42.15c-1.08-4.47-5.64-7.13-9.99-6.02l-19.51,4.77c-5.99-11.73-13.86-22.35-23.29-31.71
		l10.29-16.93c2.4-3.82,1.12-8.94-2.83-11.34l-37.35-22.52c-3.77-2.32-8.91-1.03-11.19,2.79l-10.36,17.1
		c-12.56-4.04-25.63-6.1-38.84-5.97l-4.79-19.25c-1.08-4.47-5.6-7.09-9.99-6.06l-42.46,10.44c-4.5,1.07-7.1,5.46-6,9.93l4.75,19.29
		c-11.92,6.19-22.48,14.22-31.61,23.38l-17.18-10.31c-3.76-2.32-8.87-1.08-11.35,2.75l-22.59,37.21c-2.22,3.95-0.97,8.89,2.75,11.39
		l17.24,10.31v0.17c-3.9,12.25-5.95,25.35-5.96,38.5l-19.37,4.81c-4.45,1.07-7.14,5.46-6.02,9.92l10.46,42.37
		c1.03,4.3,5.49,7.05,9.99,5.97l19.37-4.77c6.14,11.9,14.02,22.47,23.24,31.58l-10.29,16.93c-2.24,3.95-1.01,9.07,2.83,11.34
		l37.28,22.52c4,2.41,8.96,1.16,11.42-2.79l10.26-16.89c12.33,3.91,25.59,5.89,38.95,5.84l4.81,19.29c1.03,4.3,5.64,7.09,9.98,6.06
		l42.46-10.44c4.31-1.03,7.07-5.63,6-9.93l-4.75-19.34c11.88-6.14,22.53-14.01,31.65-23.16l16.9,10.1
		c4.01,2.41,9.12,1.12,11.43-2.84l22.56-37.21c2.46-3.78,1.15-8.94-2.76-11.17l-16.99-10.23c3.94-12.51,6.09-25.57,6.01-39.06
		l19.22-4.77C875.42,391.2,878.21,386.81,877.14,382.34z M746.72,489.38c-50.79,12.46-102.12-18.69-114.59-69.14
		c-12.29-50.71,18.74-101.8,69.37-114.22c50.92-12.51,102.27,18.61,114.6,69.27C828.5,425.74,797.51,476.88,746.72,489.38z"/>
</g>
</svg>
