<?xml version="1.0" encoding="utf-8"?>
<!-- Generator: Adobe Illustrator 24.0.2, SVG Export Plug-In . SVG Version: 6.00 Build 0)  -->
<svg version="1.1" id="Layer_1" xmlns="http://www.w3.org/2000/svg" xmlns:xlink="http://www.w3.org/1999/xlink" x="0px" y="0px"
	 viewBox="0 0 1139.65 953.37" style="enable-background:new 0 0 1139.65 953.37;" xml:space="preserve">
<style type="text/css">
	.st0{fill:#00A5DC;}
	.st1{fill:#007291;}
	.st2{fill:#FFFFFF;}
	.st3{fill:#303591;}
</style>
<path class="st0" d="M245.09,377.79h96c0,0,7-115,7-120s64-100,64-100l74-38l159-6l86,14l92,84l28,83l10,83h84c0,0,2-77,0-84
	s-16-95-16-95l-95-118l-128-66h-185l-120,41l-96,89l-54,133L245.09,377.79z"/>
<rect x="169.09" y="377.79" class="st1" width="855" height="563"/>
<rect x="171.09" y="476.79" class="st2" width="185" height="382"/>
<rect x="461.09" y="485.79" class="st3" width="508" height="121"/>
<rect x="461.09" y="676.79" class="st3" width="502" height="117"/>
<g>
	<g>
		<path d="M1024.56,953.76H165.99c-8.78,0-15.9-7.11-15.9-15.9V381.38c0-8.79,7.12-15.9,15.9-15.9h858.57
			c8.78,0,15.9,7.11,15.9,15.9v556.48C1040.46,946.65,1033.34,953.76,1024.56,953.76z M181.89,921.96h826.77V397.28H181.89V921.96z"
			/>
	</g>
	<g>
		<path d="M945.06,397.28h-95.4c-8.78,0-15.9-7.11-15.9-15.9v-63.6c0-105.21-85.59-190.79-190.79-190.79h-95.4
			c-105.2,0-190.79,85.58-190.79,190.79v63.6c0,8.79-7.12,15.9-15.9,15.9h-95.4c-8.78,0-15.9-7.11-15.9-15.9v-63.6
			c0-175.34,142.65-317.99,317.99-317.99h95.4c175.34,0,317.99,142.64,317.99,317.99v63.6
			C960.96,390.17,953.84,397.28,945.06,397.28z M865.57,365.48h63.6v-47.7c0-157.8-128.38-286.19-286.19-286.19h-95.4
			c-157.81,0-286.19,128.39-286.19,286.19v47.7h63.6v-47.7c0-122.74,99.85-222.59,222.59-222.59h95.4
			c122.74,0,222.59,99.85,222.59,222.59V365.48z"/>
	</g>
	<g>
		<path d="M356.79,588.07H165.99c-8.78,0-15.9-7.11-15.9-15.9v-95.4c0-8.79,7.12-15.9,15.9-15.9h190.79c8.78,0,15.9,7.11,15.9,15.9
			v95.4C372.68,580.96,365.57,588.07,356.79,588.07z M181.89,556.27h158.99v-63.6H181.89V556.27z"/>
	</g>
	<g>
		<path d="M356.79,683.47H165.99c-8.78,0-15.9-7.11-15.9-15.9v-95.4c0-8.79,7.12-15.9,15.9-15.9h190.79c8.78,0,15.9,7.11,15.9,15.9
			v95.4C372.68,676.36,365.57,683.47,356.79,683.47z M181.89,651.67h158.99v-63.6H181.89V651.67z"/>
	</g>
	<g>
		<path d="M356.79,778.86H165.99c-8.78,0-15.9-7.11-15.9-15.9v-95.4c0-8.79,7.12-15.9,15.9-15.9h190.79c8.78,0,15.9,7.11,15.9,15.9
			v95.4C372.68,771.75,365.57,778.86,356.79,778.86z M181.89,747.07h158.99v-63.6H181.89V747.07z"/>
	</g>
	<g>
		<path d="M356.79,874.26H165.99c-8.78,0-15.9-7.11-15.9-15.9v-95.4c0-8.79,7.12-15.9,15.9-15.9h190.79c8.78,0,15.9,7.11,15.9,15.9
			v95.4C372.68,867.15,365.57,874.26,356.79,874.26z M181.89,842.46h158.99v-63.6H181.89V842.46z"/>
	</g>
	<g>
		<path d="M960.96,619.87H452.18c-8.78,0-15.9-7.11-15.9-15.9v-127.2c0-8.79,7.12-15.9,15.9-15.9h508.78c8.78,0,15.9,7.11,15.9,15.9
			v127.2C976.86,612.76,969.74,619.87,960.96,619.87z M468.08,588.07h476.98v-95.4H468.08V588.07z"/>
	</g>
	<g>
		<rect x="499.88" y="524.47" width="79.5" height="31.8"/>
	</g>
	<g>
		<rect x="611.18" y="524.47" width="79.5" height="31.8"/>
	</g>
	<g>
		<rect x="722.47" y="524.47" width="79.5" height="31.8"/>
	</g>
	<g>
		<rect x="833.77" y="524.47" width="79.5" height="31.8"/>
	</g>
	<g>
		<path d="M960.96,810.66H452.18c-8.78,0-15.9-7.11-15.9-15.9v-127.2c0-8.79,7.12-15.9,15.9-15.9h508.78c8.78,0,15.9,7.11,15.9,15.9
			v127.2C976.86,803.55,969.74,810.66,960.96,810.66z M468.08,778.86h476.98v-95.4H468.08V778.86z"/>
	</g>
	<g>
		<rect x="499.88" y="715.27" width="79.5" height="31.8"/>
	</g>
	<g>
		<rect x="611.18" y="715.27" width="79.5" height="31.8"/>
	</g>
	<g>
		<rect x="722.47" y="715.27" width="79.5" height="31.8"/>
	</g>
	<g>
		<rect x="833.77" y="715.27" width="79.5" height="31.8"/>
	</g>
</g>
</svg>
