<?xml version="1.0" encoding="UTF-8"?><svg id="Layer_2" xmlns="http://www.w3.org/2000/svg" viewBox="0 0 1446.82 615"><defs><style>.cls-1{fill:none;}.cls-2{fill:#f0336c;}.cls-3{fill:#fdfdfd;}.cls-4{fill:#6c6ff5;}.cls-5{opacity:.4;}.cls-6{opacity:.5;}</style></defs><g id="Layer_1-2"><g class="cls-6"><path class="cls-1" d="m1365.79,0c-.22.48-.43.97-.66,1.45l-26.4,56.82c-58.26,125.44-192.8,197.11-329.28,175.41l-46.97-7.47c-14.13-2.25-27.87-5.54-41.15-9.75-48.68,77.3-139.45,119.54-231.4,104.92l-35.01-5.57c-103.25-16.42-178.42-106.29-176.29-210.77,2.01-39.29,15.51-75.34,37.09-105.05H0v615h1446.82V0h-81.03Z"/><path class="cls-3" d="m654.93,315.82l35.01,5.57c91.95,14.62,182.72-27.62,231.4-104.92-83.02-26.36-147.97-89.53-177.7-169.05-37.43-8.13-71.28-24.68-99.73-47.42h-128.18c-21.58,29.71-35.08,65.76-37.09,105.05-2.13,104.48,73.04,194.35,176.29,210.77Z"/><path class="cls-4" d="m730.54,0h-86.62c28.44,22.73,62.29,39.28,99.73,47.42-5.7-15.25-10.11-31.11-13.1-47.42Z"/><path class="cls-2" d="m921.34,216.46c13.28,4.22,27.01,7.51,41.15,9.75l46.97,7.47c136.48,21.7,271.02-49.97,329.28-175.41l26.4-56.82c.22-.48.44-.97.66-1.45h-635.25c2.99,16.31,7.4,32.16,13.1,47.42,29.73,79.51,94.67,142.69,177.7,169.05Z"/></g><g class="cls-5"><rect x="0" width="1446.82" height="615"/></g></g></svg>