<?xml version="1.0" encoding="utf-8"?>
<!-- Generator: Adobe Illustrator 27.4.1, SVG Export Plug-In . SVG Version: 6.00 Build 0)  -->
<svg version="1.1" id="Layer_1" xmlns="http://www.w3.org/2000/svg" xmlns:xlink="http://www.w3.org/1999/xlink" x="0px" y="0px"
	 viewBox="0 0 1395.1 968.7" style="enable-background:new 0 0 1395.1 968.7;" xml:space="preserve">
<style type="text/css">
	.st0{filter:url(#Adobe_OpacityMaskFilter);}
	.st1{fill:none;stroke:#FFFFFF;stroke-width:0.5;stroke-miterlimit:10;}
	.st2{mask:url(#SVGID_1_);}
	.st3{opacity:0.6;fill:url(#SVGID_00000112634364414609155200000016557851607853335435_);enable-background:new    ;}
</style>
<defs>
	<filter id="Adobe_OpacityMaskFilter" filterUnits="userSpaceOnUse" x="0" y="0" width="1395.1" height="968.7">
		<feColorMatrix  type="matrix" values="1 0 0 0 0  0 1 0 0 0  0 0 1 0 0  0 0 0 1 0"/>
	</filter>
</defs>
<mask maskUnits="userSpaceOnUse" x="0" y="0" width="1395.1" height="968.7" id="SVGID_1_">
	<g class="st0">
		<g>
			<path class="st1" d="M-699.4,337.7c160.3-124.2,407.2-119.5,562.7,10.6c104,87.1,171.3,222.6,297.3,273
				c106,42.3,226.4,12.3,332.9-28.7c106.5-41,212.5-93.5,326.5-95.7c115.6-2.3,225.7,47.7,325.4,106.1
				c99.7,58.4,194.8,126.8,302.8,167.9c108,41.1,235.1,51.4,335.4-6"/>
			<path class="st1" d="M-698.1,328.3c144.8-106,366.3-105.5,523.3-5.1c12.6,8.1,24.9,16.8,36.6,26.2
				c54.7,43.8,99.7,100,148.1,150.8c44.7,47.1,92.5,89.6,153.2,113.7c20.7,8.2,42,13.9,63.5,17.4c88.8,14.4,182-7.9,266.8-37.6
				c39.4-13.8,78.8-29.2,118.9-43.3c67.1-23.7,135.7-43.8,207.3-45c8.9-0.1,17.7,0,26.5,0.4c106.2,5.2,207.6,50.9,300.4,103.7
				c100.5,57.1,196.4,123.9,304.9,164.2c108.6,40.2,235.6,50.6,336.6-4.9"/>
			<path class="st1" d="M-696.9,318.9c141.2-97.1,361.7-91.6,520.1,6.2c12.8,7.9,25.1,16.4,36.9,25.5C-84.5,393.1-38.5,447,10.7,496
				c45.4,45.4,93.9,86.7,154.8,110.7c20.8,8.2,42.1,14,63.6,17.7c88.7,15.6,180.3-3.2,264.2-29.6c39-12.2,78.1-26.1,118.1-39
				c67-21.7,135.9-40.9,207.7-41.8c8.9-0.1,17.8,0.1,26.6,0.5c106.5,5.4,208.4,50.1,301.8,101.6c101.2,55.8,198,121.1,307.1,160.5
				c109.1,39.4,236.1,49.9,337.8-3.7"/>
			<path class="st1" d="M-695.6,309.6c137.6-88.2,357.1-77.7,516.9,17.5c12.9,7.7,25.3,15.9,37.3,24.7c56,41.1,102.8,92.8,152.9,140
				c46.1,43.8,95.4,83.7,156.4,107.6c20.9,8.2,42.1,14.1,63.6,18.1c88.5,16.8,178.6,1.5,261.6-21.6c38.6-10.7,77.4-23.1,117.4-34.8
				c66.9-19.7,136.1-38,208.1-38.6c8.9-0.1,17.8,0.1,26.7,0.6c106.8,5.5,209.1,49.2,303.2,99.6c102,54.5,199.6,118.2,309.2,156.8
				c109.6,38.6,236.6,49.1,339.1-2.6"/>
			<path class="st1" d="M-694.4,300.2c134-79.3,352.5-63.8,513.7,28.8c13,7.5,25.6,15.4,37.7,23.9c56.7,39.7,104.4,89.2,155.3,134.7
				c46.9,42.1,96.9,80.8,158,104.6c20.9,8.1,42.2,14.2,63.6,18.5c88.4,18,176.9,6.2,259-13.5c38.2-9.1,76.7-20,116.6-30.5
				c66.8-17.7,136.3-35,208.5-35.4c8.9,0,17.9,0.2,26.7,0.6c107.1,5.7,209.8,48.4,304.7,97.5c102.7,53.2,201.2,115.3,311.3,153.1
				c110.1,37.8,237.1,48.3,340.2-1.5"/>
			<path class="st1" d="M-693.1,290.8c130.4-70.4,347.9-49.9,510.5,40.1c13.1,7.2,25.8,14.9,38.1,23.2
				c57.3,38.3,106,85.6,157.7,129.3c47.6,40.4,98.4,77.8,159.7,101.6c21,8.1,42.3,14.3,63.7,18.9c88.3,19.1,175.2,10.9,256.5-5.5
				c37.8-7.6,76-16.9,115.9-26.3c66.6-15.7,136.5-32.1,209-32.2c9,0,17.9,0.2,26.8,0.7c107.4,5.8,210.6,47.5,306.1,95.5
				c103.4,51.9,202.8,112.4,313.4,149.4c110.6,37,237.5,47.5,341.5-0.3"/>
			<path class="st1" d="M-691.9,281.5c126.9-61.5,343.3-35.9,507.3,51.4c13.2,7,26,14.5,38.4,22.4c58,36.9,107.5,82,160.1,123.9
				c48.3,38.8,99.8,74.9,161.3,98.5c21,8.1,42.4,14.3,63.7,19.3c88.1,20.3,173.5,15.6,253.9,2.5c37.4-6,75.3-13.9,115.1-22
				c66.6-13.7,136.8-29.2,209.4-29c9,0,18,0.3,26.9,0.8c107.7,6,211.3,46.7,307.5,93.4c104.2,50.6,204.4,109.5,315.5,145.7
				c111.1,36.1,238,46.7,342.7,0.8"/>
			<path class="st1" d="M-690.6,272.1c123.3-52.6,338.7-22,504.1,62.6c13.3,6.8,26.3,14,38.8,21.6C-89,391.8-38.5,434.7,14.8,474.9
				c49.1,37,101.3,72,162.9,95.5c21.1,8.1,42.5,14.4,63.8,19.7c88,21.5,171.8,20.3,251.3,10.6c37-4.4,74.6-10.8,114.4-17.7
				c66.5-11.7,137-26.3,209.8-25.8c9,0,18,0.3,26.9,0.8c108,6.1,212,45.8,308.9,91.4c104.9,49.3,206,106.7,317.6,142
				c111.6,35.3,238.5,45.9,343.9,1.9"/>
			<path class="st1" d="M-689.3,262.7c119.7-43.7,334.1-8.1,500.9,73.9c13.4,6.6,26.5,13.5,39.2,20.8
				c59.3,34.1,110.7,74.7,164.8,113.1c49.8,35.4,102.8,69,164.5,92.4c21.2,8,42.5,14.5,63.8,20c87.9,22.7,170.1,25.1,248.7,18.6
				c36.6-2.9,73.9-7.8,113.6-13.5c66.3-9.7,137.2-23.3,210.2-22.7c9,0.1,18.1,0.4,27,0.9c108.3,6.3,212.8,45,310.4,89.3
				c105.6,48,207.6,103.8,319.8,138.3c112.1,34.5,239,45.1,345.1,3"/>
			<path class="st1" d="M-688.1,253.4c116.1-34.8,329.5,5.8,497.8,85.2c13.5,6.4,26.7,13.1,39.6,20.1
				c60,32.7,112.3,71.1,167.2,107.7c50.5,33.7,104.2,66.1,166.2,89.4c21.2,8,42.6,14.6,63.9,20.4c87.7,23.9,168.4,29.8,246.1,26.6
				c36.2-1.3,73.1-4.7,112.8-9.2c66.2-7.8,137.4-20.4,210.6-19.5c9.1,0.1,18.1,0.4,27.1,1c108.6,6.5,213.5,44.2,311.8,87.3
				c106.4,46.7,209.3,100.9,321.9,134.6c112.6,33.7,239.5,44.3,346.3,4.2"/>
			<path class="st1" d="M-686.8,244c112.5-25.9,324.9,19.8,494.6,96.5c13.7,6.2,27,12.6,39.9,19.3c60.6,31.3,113.9,67.5,169.6,102.4
				c51.2,32,105.7,63.1,167.8,86.4c21.3,8,42.7,14.7,63.9,20.8c87.6,25.1,166.7,34.3,243.5,34.7c35.8,0.1,72.4-1.6,112.1-5
				c66.1-5.8,137.7-17.5,211.1-16.3c9.1,0.1,18.1,0.5,27.1,1c108.9,6.6,214.3,43.3,313.2,85.2c107.1,45.4,210.9,98,324,130.9
				c113.1,32.9,240,43.6,347.5,5.3"/>
			<path class="st1" d="M-685.6,234.6c108.9-17,320.3,33.7,491.4,107.8c13.8,6,27.2,12.1,40.3,18.5c61.3,29.9,115.4,63.9,172,97
				c51.9,30.4,107.2,60.2,169.4,83.3c21.4,7.9,42.8,14.8,64,21.2c87.4,26.2,165,39,240.9,42.7c35.4,1.7,71.7,1.4,111.3-0.7
				c66-3.8,137.9-14.5,211.5-13.1c9.1,0.2,18.2,0.5,27.2,1.1c109.2,6.8,215,42.5,314.6,83.2c107.9,44.1,212.5,95.1,326.1,127.2
				c113.6,32,240.4,42.8,348.7,6.4"/>
			<path class="st1" d="M-684.3,225.2c105.3-8.1,315.7,47.6,488.2,119.1c13.9,5.8,27.4,11.6,40.7,17.8
				c61.9,28.5,117,60.3,174.4,91.6c52.6,28.7,108.7,57.2,171,80.3c21.4,7.9,42.9,14.9,64,21.6c87.3,27.4,163.3,43.7,238.3,50.7
				c35,3.3,71,4.5,110.6,3.6c65.9-1.8,138.1-11.6,211.9-9.9c9.1,0.2,18.2,0.6,27.3,1.2c109.5,6.9,215.7,41.6,316,81.1
				c108.6,42.8,214.1,92.2,328.3,123.5c114.1,31.2,240.9,42,349.9,7.6"/>
			<path class="st1" d="M-683.1,215.9c101.7,0.8,311.1,61.5,485,130.3c14,5.5,27.7,11.2,41,17c62.6,27.2,118.6,56.7,176.8,86.2
				c53.3,27,110.1,54.3,172.7,77.2c21.5,7.9,43,15,64.1,22c87.2,28.6,161.6,48.4,235.7,58.7c34.6,4.8,70.3,7.6,109.8,7.8
				c65.8,0.2,138.3-8.7,212.3-6.7c9.2,0.2,18.3,0.6,27.3,1.2c109.8,7.1,216.5,40.8,317.5,79.1c109.4,41.5,215.7,89.4,330.4,119.8
				c114.6,30.4,241.4,41.2,351.1,8.7"/>
			<path class="st1" d="M-681.8,206.5c98.2,9.7,306.5,75.5,481.8,141.6c14.1,5.3,27.9,10.7,41.4,16.2
				c63.2,25.8,120.1,53.1,179.2,80.8c54,25.4,111.6,51.3,174.3,74.2c21.5,7.9,43,15.1,64.1,22.3c87,29.8,159.9,53.2,233.1,66.8
				c34.2,6.4,69.6,10.7,109,12.1c65.7,2.3,138.5-5.8,212.7-3.6c9.2,0.3,18.3,0.7,27.4,1.3c110.1,7.2,217.2,39.9,318.9,77
				c110.1,40.2,217.3,86.5,332.5,116.1c115.1,29.6,241.9,40.4,352.3,9.8"/>
			<path class="st1" d="M-680.6,197.1c94.6,18.6,301.9,89.4,478.6,152.9c14.2,5.1,28.2,10.2,41.8,15.5
				c63.9,24.4,121.7,49.5,181.5,75.4c54.7,23.7,113.1,48.4,175.9,71.2c21.6,7.8,43.1,15.2,64.2,22.7c86.9,31,158.2,57.9,230.5,74.8
				c33.8,7.9,68.9,13.8,108.3,16.4c65.6,4.3,138.8-2.8,213.1-0.4c9.2,0.3,18.4,0.8,27.5,1.4c110.4,7.4,218,39.1,320.3,75
				c110.8,38.9,218.9,83.6,334.6,112.4c115.6,28.8,242.4,39.6,353.5,10.9"/>
			<path class="st1" d="M-679.3,187.8c91,27.4,297.3,103.3,475.4,164.2c14.3,4.9,28.4,9.8,42.2,14.7c64.5,23,123.2,45.9,183.9,70
				c55.5,22,114.6,45.4,177.5,68.1c21.7,7.8,43.2,15.3,64.2,23.1c86.7,32.2,156.5,62.6,228,82.8c33.4,9.5,68.2,16.8,107.5,20.6
				c65.5,6.3,139,0.1,213.6,2.8c9.2,0.3,18.4,0.8,27.6,1.4c110.7,7.6,218.7,38.2,321.7,73c111.6,37.6,220.6,80.7,336.8,108.7
				c116.2,27.9,242.9,38.8,354.7,12.1"/>
			<path class="st1" d="M-678.1,178.4c87.4,36.3,292.7,117.2,472.2,175.5c14.4,4.7,28.6,9.3,42.5,13.9
				c65.2,21.6,124.8,42.3,186.3,64.7c56.2,20.4,116,42.5,179.2,65.1c21.7,7.8,43.3,15.4,64.3,23.5c86.6,33.3,154.8,67.3,225.4,90.9
				c33,11,67.5,19.9,106.8,24.9c65.4,8.3,139.2,3,214,6c9.2,0.4,18.5,0.9,27.6,1.5c111,7.7,219.4,37.4,323.2,70.9
				c112.3,36.3,222.2,77.8,338.9,105c116.7,27.1,243.4,38,355.9,13.2"/>
			<path class="st1" d="M-676.8,169c83.8,45.2,288.1,131.2,469,186.8c14.6,4.5,28.9,8.8,42.9,13.2c65.9,20.2,126.3,38.7,188.7,59.3
				c56.9,18.7,117.5,39.5,180.8,62c21.8,7.7,43.4,15.5,64.3,23.9c86.5,34.5,153.1,72,222.8,98.9c32.6,12.6,66.7,23,106,29.1
				c65.2,10.3,139.4,5.9,214.4,9.2c9.3,0.4,18.5,0.9,27.7,1.6c111.3,7.9,220.2,36.5,324.6,68.9c113.1,35,223.8,75,341,101.3
				c117.2,26.3,243.8,37.3,357.1,14.3"/>
			<path class="st1" d="M-675.6,159.7c80.2,54.1,283.5,145.1,465.8,198.1c14.7,4.3,29.1,8.4,43.3,12.4
				C-100,388.9-38.6,405.2,24.6,424c57.6,17.1,119,36.6,182.4,59c21.9,7.7,43.4,15.6,64.4,24.3C357.7,543,422.8,584,491.6,614.2
				c32.2,14.1,66,26,105.3,33.4c65.1,12.2,139.6,8.9,214.8,12.4c9.3,0.4,18.6,1,27.8,1.6c111.6,8,220.9,35.7,326,66.8
				c113.8,33.7,225.4,72.1,343.1,97.6c117.7,25.5,244.3,36.5,358.4,15.4"/>
			<path class="st1" d="M-674.3,150.3c76.6,63,279,159,462.6,209.3c14.8,4.1,29.3,7.9,43.6,11.6c67.2,17.4,129.4,31.5,193.5,48.5
				c58.3,15.4,120.4,33.6,184,56c21.9,7.7,43.5,15.7,64.4,24.7c86.2,36.9,149.7,81.5,217.6,115C523.2,631,556.8,644.4,596,653
				c65,14.2,139.8,11.8,215.2,15.5c9.3,0.5,18.6,1,27.8,1.7c111.9,8.2,221.6,34.9,327.4,64.8c114.5,32.4,227,69.2,345.2,93.9
				c118.2,24.7,244.8,35.7,359.6,16.6"/>
			<path class="st1" d="M-673.1,140.9c73,71.9,274.4,172.9,459.4,220.6c14.9,3.8,29.6,7.4,44,10.9c67.8,16,131,28,195.9,43.1
				c59,13.8,121.9,30.7,185.7,52.9c22,7.7,43.6,15.8,64.5,25c86.1,38.1,148,86.2,215,123c31.4,17.2,64.6,32.2,103.7,41.9
				c64.9,16.2,140.1,14.7,215.6,18.7c9.3,0.5,18.6,1.1,27.9,1.8c112.2,8.3,222.4,34,328.8,62.7c115.3,31.1,228.6,66.3,347.4,90.2
				c118.7,23.8,245.3,34.9,360.8,17.7"/>
			<path class="st1" d="M-671.8,131.6c69.5,80.8,269.8,186.8,456.2,231.9c15,3.6,29.8,6.9,44.4,10.1
				c68.5,14.6,132.6,24.4,198.2,37.7c59.7,12.1,123.4,27.8,187.3,49.9c22,7.6,43.7,15.9,64.5,25.4c85.9,39.3,146.3,90.9,212.4,131
				c31,18.8,63.9,35.1,103,46.2c64.8,18.1,140.3,17.6,216.1,21.9c9.4,0.5,18.7,1.1,28,1.8c112.5,8.5,223.1,33.2,330.3,60.7
				c116,29.8,230.2,63.4,349.5,86.5c119.2,23,245.8,34.1,362,18.8"/>
			<path class="st1" d="M-670.5,122.2c65.9,89.7,265.2,200.8,453.1,243.2c15.1,3.4,30,6.5,44.8,9.3c69.1,13.2,134.1,20.8,200.6,32.3
				c60.4,10.5,124.9,24.8,188.9,46.8c22.1,7.6,43.8,16,64.5,25.8c85.8,40.4,144.6,95.6,209.8,139.1c30.6,20.4,63.2,38.2,102.2,50.5
				c64.7,20.1,140.5,20.6,216.5,25.1c9.4,0.6,18.7,1.2,28,1.9c112.8,8.6,223.9,32.3,331.7,58.6c116.8,28.5,231.8,60.6,351.6,82.8
				c119.7,22.2,246.3,33.3,363.2,20"/>
			<path class="st1" d="M-669.3,112.8c62.3,98.6,260.6,214.7,449.9,254.5c15.2,3.2,30.3,6,45.1,8.5c69.8,11.9,135.7,17.2,203,27
				c61.1,8.8,126.3,21.9,190.5,43.8c22.2,7.6,43.8,16.1,64.6,26.2c85.6,41.6,142.9,100.3,207.2,147.1
				c30.2,21.9,62.5,41.3,101.5,54.7c64.6,22,140.7,23.5,216.9,28.3c9.4,0.6,18.8,1.2,28.1,2c113.1,8.8,224.6,31.5,333.1,56.6
				c117.5,27.2,233.5,57.7,353.7,79.1c120.2,21.4,246.8,32.5,364.4,21.1"/>
			<path class="st1" d="M-668,103.4c58.7,107.5,256,228.6,446.7,265.8c15.3,3,30.5,5.5,45.5,7.8c70.5,10.5,137.2,13.6,205.4,21.6
				c61.8,7.2,127.8,18.9,192.2,40.8c22.2,7.5,43.9,16.2,64.6,26.6C371.8,508.7,427.5,571.1,491,621c29.7,23.5,61.8,44.3,100.7,59
				c64.5,24,140.9,26.4,217.3,31.5c9.4,0.6,18.8,1.3,28.2,2c113.4,9,225.3,30.6,334.5,54.5c118.2,25.9,235.1,54.8,355.8,75.4
				c120.7,20.6,247.2,31.7,365.6,22.2"/>
			<path class="st1" d="M-666.8,94.1c55.1,116.4,251.4,242.5,443.5,277c15.5,2.8,30.8,5.1,45.9,7c71.1,9.1,138.8,10.1,207.8,16.2
				c62.5,5.5,129.3,16,193.8,37.7c22.3,7.5,44,16.3,64.7,27c85.4,44,139.4,109.9,202,163.1c29.3,25.1,61.1,47.4,100,63.2
				c64.4,26,141.2,29.4,217.7,34.7c9.4,0.7,18.9,1.3,28.2,2.1c113.7,9.1,226.1,29.8,335.9,52.5c119,24.6,236.7,51.9,358,71.7
				c121.2,19.7,247.7,31,366.8,23.3"/>
			<path class="st1" d="M-665.5,84.7C-614,210-418.8,341.2-225.3,373c15.6,2.6,31,4.6,46.2,6.2c71.8,7.7,140.3,6.5,210.2,10.8
				c63.2,3.9,130.7,13,195.4,34.7c22.4,7.5,44.1,16.4,64.7,27.3c85.2,45.2,137.7,114.6,199.5,171.2c28.9,26.7,60.4,50.5,99.2,67.5
				c64.3,28,141.4,32.3,218.1,37.8c9.5,0.7,18.9,1.4,28.3,2.2c114,9.3,226.8,28.9,337.4,50.4c119.7,23.3,238.3,49,360.1,68
				c121.7,18.9,248.2,30.2,368,24.5"/>
			<path class="st1" d="M-664.3,75.3c47.9,134.2,242.2,270.4,437.1,299.6c15.7,2.4,31.2,4.1,46.6,5.5c72.4,6.3,141.9,2.9,212.6,5.4
				c63.9,2.3,132.2,10.1,197,31.6c22.4,7.5,44.2,16.5,64.8,27.7c85.1,46.4,136,119.3,196.9,179.2c28.5,28.2,59.7,53.5,98.4,71.8
				c64.2,30,141.6,35.2,218.6,41c9.5,0.7,19,1.4,28.4,2.2c114.3,9.4,227.6,28.1,338.8,48.4c120.5,22,239.9,46.2,362.2,64.3
				c122.2,18.1,248.7,29.4,369.2,25.6"/>
			<path class="st1" d="M-663,66c44.3,143.1,237.6,284.3,433.9,310.9c15.8,2.1,31.5,3.6,47,4.7c73.1,4.9,143.4-0.5,215,0
				c64.6,0.8,133.7,7.1,198.7,28.6c22.5,7.4,44.3,16.6,64.8,28.1c84.9,47.5,134.3,124,194.3,187.2c28.1,29.8,58.9,56.6,97.7,76
				c64.1,32,141.8,38.1,219,44.2c9.5,0.7,19,1.5,28.5,2.3c114.6,9.6,228.3,27.3,340.2,46.3c121.2,20.7,241.5,43.3,364.3,60.6
				c122.7,17.3,249.2,28.6,370.4,26.7"/>
			<path class="st1" d="M-661.8,56.6c40.8,152,233,298.2,430.7,322.2c15.9,1.9,31.7,3.2,47.4,3.9c73.7,3.5,145-4.1,217.3-5.3
				c65.3-0.9,135.2,4.2,200.3,25.5c22.5,7.4,44.3,16.7,64.9,28.5c84.8,48.7,132.6,128.8,191.7,195.3c27.7,31.3,58.2,59.6,96.9,80.3
				c64,34,142,41.1,219.4,47.4c9.5,0.8,19.1,1.6,28.5,2.4c114.9,9.7,229,26.4,341.6,44.3c122,19.4,243.1,40.4,366.5,56.9
				c123.2,16.5,249.7,27.8,371.6,27.9"/>
			<path class="st1" d="M-660.5,47.2c37.2,160.9,228.4,312.2,427.5,333.5c16,1.7,31.9,2.7,47.7,3.2c74.4,2.1,146.6-7.7,219.7-10.7
				c66-2.6,136.6,1.2,201.9,22.5c22.6,7.4,44.4,16.8,64.9,28.9c84.7,49.9,130.9,133.5,189.1,203.3c27.3,32.9,57.5,62.7,96.2,84.6
				c63.9,36,142.3,44,219.8,50.6c9.6,0.8,19.1,1.6,28.6,2.4c115.2,9.9,229.8,25.6,343.1,42.2c122.7,18.1,244.7,37.5,368.6,53.2
				c123.8,15.6,250.1,27,372.8,29"/>
			<path class="st1" d="M-659.3,37.9c33.6,169.8,223.8,326.1,424.3,344.7c16.1,1.5,32.2,2.2,48.1,2.4c75,0.7,148.1-11.3,222.1-16.1
				c66.7-4.2,138.1-1.7,203.5,19.5c22.7,7.3,44.5,16.9,65,29.3C388.3,468.7,433,555.8,490.3,629c26.9,34.4,56.8,65.8,95.4,88.8
				c63.8,37.9,142.5,46.9,220.2,53.8c9.6,0.8,19.2,1.7,28.7,2.5c115.5,10,230.5,24.7,344.5,40.2c123.4,16.8,246.3,34.6,370.7,49.5
				c124.2,14.8,250.6,26.2,374,30.1"/>
			<path class="st1" d="M-658,28.5c30,178.7,219.2,340,421.1,356c16.2,1.3,32.4,1.8,48.5,1.6c75.7-0.7,149.7-14.9,224.5-21.5
				c67.4-5.9,139.6-4.7,205.2,16.4c22.7,7.3,44.6,17,65,29.6c84.4,52.3,127.5,142.9,183.9,219.4c26.5,36,56.1,68.8,94.7,93.1
				c63.7,39.9,142.7,49.8,220.6,56.9c9.6,0.9,19.2,1.7,28.7,2.5c115.8,10.2,231.2,23.9,345.9,38.1c124.2,15.5,248,31.7,372.8,45.8
				c124.8,14,251.1,25.4,375.2,31.2"/>
			<path class="st1" d="M-656.8,19.1c26.4,187.6,214.6,353.9,417.9,367.3c16.4,1.1,32.6,1.3,48.8,0.9c76.4-2,151.2-18.5,226.9-26.9
				c68.1-7.5,141.1-7.6,206.8,13.4c22.8,7.3,44.7,17.1,65.1,30c84.2,53.5,125.8,147.6,181.3,227.4c26.1,37.5,55.4,71.9,93.9,97.3
				c63.5,41.9,142.9,52.8,221.1,60.1c9.6,0.9,19.2,1.8,28.8,2.6c116.1,10.4,232,23,347.3,36.1c124.9,14.2,249.6,28.9,374.9,42.1
				c125.3,13.2,251.6,24.7,376.4,32.4"/>
			<path class="st1" d="M-655.5,9.7c22.8,196.5,210,367.9,414.7,378.6c16.5,0.9,32.9,0.8,49.2,0.1c77-3.4,152.8-22,229.3-32.3
				c68.8-9.2,142.5-10.6,208.4,10.3c22.9,7.3,44.7,17.2,65.1,30.4c84.1,54.6,124.1,152.3,178.7,235.4c25.7,39.1,54.7,75,93.1,101.6
				c63.4,43.9,143.1,55.7,221.5,63.3c9.6,0.9,19.3,1.8,28.9,2.7c116.4,10.5,232.7,22.2,348.8,34c125.6,12.9,251.2,26,377.1,38.4
				c125.8,12.4,252.1,23.9,377.6,33.5"/>
			<path class="st1" d="M-654.3,0.4c19.2,205.4,205.4,381.8,411.5,389.9c94.7,3.7,187.6-23.8,281.2-38.3s196.2-14.4,275.2,38.1
				c123.5,82.1,148.4,262.3,268.5,349.3c71.1,51.6,163.3,61.2,250.8,69.2c369.4,33.8,738.8,67.5,1108.2,101.3"/>
			<path class="st1" d="M1929,901.1c-234.2-21.8-468.8-41.4-702-59.2c-109.7-8.4-219.2-16.3-329.1-25c-22.9-1.8-45.8-3.6-68.7-5.5
				c-87-7.1-178.8-16.5-249.5-67.8c-59.3-43-95.1-109-130.4-174.7c-36.3-67.3-72.4-134.3-133.7-176.7
				c-59.8-41.4-134.2-52.5-208.3-48.2c-22,1.3-43.9,3.9-65.3,7.3c-23,3.7-45.9,8.3-68.7,13.1c-44.3,9.3-88.4,19.2-132.8,24.8
				c-25.9,3.3-52,5.1-78.2,4.5C-443.1,389.1-630.9,218-654.7,15.3"/>
			<path class="st1" d="M1916.7,892.3c-232.9-22.1-466.5-39.8-697.4-53.8c-108.7-6.6-216.8-12.4-325.8-19.6
				c-22.7-1.5-45.4-3-68.2-4.7C738.8,808,647.4,799,577,748c-59.4-43-94.8-109.5-129.3-175.4c-35.5-67.5-70.3-134.8-130.5-178.1
				c-58.6-42.3-132.5-55-206.7-51.1c-22,1.2-43.9,3.8-65.3,7.4c-23,3.9-45.8,8.7-68.5,13.7c-44.1,9.8-87.8,20.5-131.9,26.9
				c-25.8,3.7-51.7,5.9-77.8,5.8c-204.4-1.1-393.8-167-422.2-367"/>
			<path class="st1" d="M1904.3,883.5c-231.6-22.4-464.2-38.2-692.8-48.5c-107.6-4.8-214.4-8.5-322.5-14.1
				c-22.5-1.2-45.1-2.5-67.7-3.9c-85.9-5.3-176.9-14-246.9-64.8c-59.4-43-94.5-109.9-128.2-176.1C411.6,508.5,378,440.9,319,396.7
				c-57.5-43.2-130.9-57.6-205-54c-22,1.1-43.9,3.8-65.3,7.5c-22.9,4-45.7,9.1-68.3,14.4c-43.9,10.4-87.2,21.8-131,28.9
				c-25.6,4.1-51.4,6.8-77.4,7.1c-203.6,2.4-394.6-158.3-427.5-355.5"/>
			<path class="st1" d="M1892,874.7c-230.2-22.7-461.9-36.6-688.3-43.1c-106.5-3.1-211.9-4.6-319.1-8.7c-22.3-0.9-44.7-1.9-67.2-3
				c-85.4-4.4-175.9-12.8-245.6-63.3c-59.5-43.1-94.2-110.3-127.1-176.8c-33.8-67.9-66.2-135.8-124-180.9
				c-56.4-44.1-129.2-60.2-203.4-56.9c-22,1-44,3.7-65.4,7.6c-22.9,4.1-45.6,9.4-68.1,15.1c-43.7,10.9-86.5,23.1-130.1,31
				c-25.4,4.6-51.1,7.7-77,8.4C-425.9,410-618.6,254.6-656,60.1"/>
			<path class="st1" d="M1879.7,866c-228.9-23-459.6-35-683.7-37.7c-105.4-1.3-209.5-0.7-315.8-3.3c-22.1-0.6-44.3-1.3-66.7-2.2
				c-84.9-3.5-175-11.6-244.3-61.8c-59.5-43.1-93.9-110.8-126-177.5c-32.9-68.2-64.2-136.3-120.8-182.2
				c-55.2-45-127.5-62.8-201.8-59.7c-22.1,0.9-44,3.7-65.4,7.7c-22.9,4.3-45.6,9.8-67.9,15.7c-43.4,11.5-85.9,24.4-129.2,33
				c-25.2,5-50.7,8.5-76.5,9.7C-420.2,417-614.5,266.8-656.5,75"/>
			<path class="st1" d="M1867.4,857.2c-227.6-23.3-457.3-33.3-679.1-32.4c-104.4,0.5-207.1,3.2-312.5,2.1c-21.9-0.3-44-0.7-66.2-1.4
				c-84.3-2.6-174.1-10.4-243-60.3C507,722,473,654,441.8,587c-32.1-68.4-62.1-136.8-117.6-183.6c-54.1-45.9-125.9-65.4-200.1-62.6
				c-22.1,0.8-44,3.7-65.4,7.8C35.8,353,13.1,358.8-9.1,365C-52.3,377-94.4,390.7-137.4,400c-25.1,5.5-50.4,9.4-76.1,11.1
				c-201,12.9-396.9-132-443.4-321.1"/>
			<path class="st1" d="M1855,848.4c-226.3-23.6-455-31.7-674.6-27c-103.3,2.2-204.7,7.1-309.1,7.5c-21.7,0.1-43.6-0.1-65.7-0.6
				c-83.8-1.7-173.1-9.2-241.7-58.8c-59.6-43.2-93.3-111.6-123.7-178.9c-31.2-68.6-60.1-137.3-114.3-185
				c-53-46.8-124.2-68-198.5-65.5c-22.1,0.7-44.1,3.6-65.5,7.9c-22.9,4.5-45.4,10.6-67.5,17.1c-43,12.6-84.7,27-127.4,37.1
				c-24.9,5.9-50.1,10.3-75.7,12.4C-408.8,431-606.3,291.3-657.4,104.9"/>
			<path class="st1" d="M1842.7,839.6c-225-23.9-452.7-30.1-670-21.6c-102.2,4-202.2,11-305.8,12.9c-21.5,0.4-43.3,0.5-65.2,0.2
				c-83.3-0.8-172.2-8-240.3-57.3c-59.7-43.2-93-112.1-122.6-179.6c-30.4-68.8-58-137.9-111.1-186.3
				c-51.8-47.6-122.5-70.6-196.9-68.4c-22.1,0.6-44.1,3.6-65.5,8C42.5,352.1,20,358.4-2,365.2c-42.8,13.2-84.1,28.3-126.5,39.2
				c-24.7,6.3-49.8,11.1-75.3,13.7c-199.3,19.9-398.4-114.5-454-298.2"/>
			<path class="st1" d="M1830.4,830.8c-223.7-24.2-450.4-28.5-665.4-16.3c-101.1,5.7-199.8,14.9-302.5,18.3
				c-21.3,0.7-42.9,1.1-64.6,1.1c-82.8,0.1-171.2-6.8-239.1-55.9c-59.7-43.2-92.7-112.5-121.5-180.3
				c-29.5-69.1-56-138.4-107.9-187.7c-50.7-48.5-120.9-73.2-195.2-71.3c-22.1,0.6-44.1,3.5-65.5,8.1c-22.8,4.8-45.3,11.3-67.2,18.4
				C-41,379-81.9,394.9-124,406.5c-24.5,6.8-49.5,12-74.9,15c-198.4,23.4-399.2-105.8-459.3-286.7"/>
			<path class="st1" d="M1818.1,822c-222.3-24.5-448.1-26.9-660.8-10.9c-100.1,7.5-197.4,18.9-299.2,23.7c-21.1,1-42.6,1.6-64.2,1.9
				c-82.2,1-170.3-5.6-237.7-54.4c-59.8-43.3-92.4-112.9-120.4-181c-28.7-69.3-53.9-138.9-104.7-189.1
				c-49.6-49.4-119.2-75.8-193.6-74.2c-22.2,0.5-44.2,3.5-65.6,8.2c-22.8,5-45.2,11.7-67,19c-42.3,14.3-82.9,31-124.7,43.3
				c-24.4,7.2-49.2,12.9-74.5,16.3c-197.5,26.9-399.9-97.1-464.6-275.3"/>
			<path class="st1" d="M1805.8,813.3c-221-24.8-445.8-25.2-656.3-5.5c-99,9.3-195,22.8-295.8,29.1c-20.9,1.3-42.2,2.2-63.6,2.7
				c-81.7,1.9-169.4-4.3-236.4-52.9c-59.9-43.3-92.1-113.4-119.2-181.7c-27.8-69.5-52-139.3-101.4-190.5
				c-48.5-50.2-117.5-78.4-192-77c-22.2,0.4-44.2,3.5-65.6,8.3c-22.8,5.1-45.1,12.1-66.8,19.7c-42.1,14.9-82.2,32.3-123.7,45.4
				c-24.2,7.6-48.9,13.7-74,17.6c-196.7,30.4-400.7-88.3-470-263.8"/>
			<path class="st1" d="M1793.4,804.5c-219.7-25.1-443.5-23.6-651.7-0.2c-97.9,11-192.5,26.7-292.5,34.6
				c-20.8,1.6-41.8,2.8-63.1,3.5c-81.2,2.8-168.4-3.1-235.1-51.4c-59.9-43.3-91.8-113.8-118.1-182.4c-27-69.7-49.9-139.8-98.2-191.8
				c-47.4-51.1-115.9-81-190.3-79.9c-22.2,0.3-44.3,3.4-65.6,8.4c-22.8,5.2-45.1,12.4-66.6,20.4C-29.8,381-69.5,399.2-110.7,413
				c-24,8.1-48.6,14.6-73.6,18.9c-195.8,33.9-401.4-79.6-475.3-252.4"/>
			<path class="st1" d="M1781.1,795.7c-218.4-25.5-441.3-22-647.1,5.2c-96.8,12.8-190.1,30.6-289.2,40c-20.5,1.9-41.5,3.4-62.6,4.3
				c-80.7,3.7-167.5-1.9-233.8-49.9c-60-43.4-91.5-114.2-117-183.1c-26.1-70-47.9-140.3-95-193.2c-46.3-52-114.2-83.6-188.7-82.8
				c-22.2,0.2-44.3,3.4-65.6,8.5c-22.7,5.4-45,12.8-66.4,21c-41.7,16-81,34.9-121.9,49.5c-23.9,8.5-48.3,15.5-73.2,20.2
				c-195,37.4-402.2-70.8-480.6-240.9"/>
			<path class="st1" d="M1768.8,786.9c-217.1-25.8-439-20.4-642.6,10.6c-95.8,14.6-187.7,34.5-285.9,45.4c-20.3,2.2-41.1,4-62.1,5.1
				c-80.1,4.6-166.5-0.7-232.5-48.4c-60-43.4-91.2-114.7-115.9-183.8c-25.3-70.2-45.8-140.8-91.7-194.6
				c-45.2-52.9-112.5-86.1-187-85.7c-22.2,0.1-44.3,3.3-65.7,8.6c-22.7,5.5-44.9,13.2-66.2,21.7c-41.5,16.5-80.4,36.2-121,51.5
				c-23.7,8.9-48,16.3-72.8,21.6c-194.1,40.9-403-62.1-485.9-229.4"/>
			<path class="st1" d="M1756.5,778.1c-215.7-26.1-436.7-18.8-638,15.9c-94.7,16.3-185.3,38.4-282.5,50.8c-20.2,2.5-40.8,4.6-61.6,6
				c-79.6,5.5-165.6,0.5-231.2-46.9c-60-43.4-90.9-115.1-114.7-184.5C404,549,384.6,478.1,339.9,423.4
				c-44-53.8-110.9-88.7-185.4-88.6c-22.3,0-44.4,3.3-65.7,8.6c-22.7,5.7-44.8,13.6-66,22.4C-18.5,383-57,403.4-97.3,419.5
				c-23.5,9.4-47.7,17.2-72.4,22.9c-193.3,44.4-403.7-53.3-491.2-218"/>
			<path class="st1" d="M1744.1,769.3c-214.4-26.4-434.4-17.2-633.4,21.3c-93.6,18.1-182.9,42.3-279.2,56.2
				c-20,2.8-40.4,5.2-61.1,6.8c-79.1,6.4-164.7,1.7-229.9-45.4C480.4,764.7,450,692.7,426.9,623c-23.6-70.6-41.8-141.8-85.3-197.3
				c-42.9-54.7-109.2-91.3-183.8-91.4c-22.3-0.1-44.4,3.3-65.7,8.7c-22.7,5.8-44.8,14-65.8,23c-41,17.7-79.2,38.8-119.2,55.6
				c-23.3,9.8-47.4,18-72,24.2c-192.4,47.9-404.5-44.6-496.5-206.5"/>
			<path class="st1" d="M1731.8,760.6c-213.1-26.7-432.1-15.5-628.8,26.7c-92.5,19.8-180.4,46.2-275.9,61.6
				c-19.8,3.1-40,5.7-60.6,7.6c-78.6,7.3-163.7,2.9-228.6-43.9c-60.2-43.5-90.3-116-112.5-185.9c-22.7-70.9-39.7-142.3-82.1-198.7
				c-41.8-55.6-107.5-93.9-182.1-94.3c-22.3-0.1-44.4,3.2-65.8,8.8c-22.7,5.9-44.7,14.3-65.7,23.7c-40.8,18.2-78.5,40.1-118.3,57.7
				c-23.2,10.2-47,18.9-71.5,25.5c-191.5,51.4-405.2-35.9-501.8-195.1"/>
			<path class="st1" d="M1719.5,751.8c-211.8-27-429.8-13.9-624.3,32c-91.5,21.6-178,50.1-272.5,67c-19.6,3.5-39.7,6.3-60.1,8.4
				c-78,8.2-162.8,4.2-227.3-42.5c-60.2-43.5-90-116.4-111.4-186.6c-21.9-71.1-37.7-142.8-78.8-200.1
				c-40.6-56.5-105.9-96.5-180.5-97.2c-22.3-0.2-44.5,3.2-65.8,8.9c-22.6,6.1-44.6,14.7-65.5,24.3C-7.2,385-44.5,407.6-84,426
				c-23,10.7-46.7,19.8-71.1,26.8c-190.7,54.9-406-27.1-507.1-183.6"/>
			<path class="st1" d="M1707.2,743c-210.5-27.3-427.5-12.3-619.7,37.4c-90.4,23.4-175.6,54-269.2,72.4c-19.4,3.8-39.3,6.9-59.6,9.2
				c-77.5,9.1-161.8,5.4-226-41c-60.3-43.5-89.7-116.8-110.3-187.3c-21-71.3-35.6-143.3-75.6-201.4C307.4,375,242.7,333.3,168,332.3
				c-22.3-0.3-44.5,3.1-65.8,9c-22.6,6.2-44.5,15.1-65.3,25C-3.4,385.6-40.4,409-79.5,428.1c-22.8,11.1-46.4,20.6-70.7,28.1
				c-189.8,58.4-406.8-18.4-512.4-172.1"/>
			<path class="st1" d="M1694.9,734.2c-209.2-27.6-425.2-10.7-615.1,42.8c-89.3,25.1-173.2,58-265.9,77.8
				c-19.2,4.1-39,7.5-59.1,10.1c-77,10-160.9,6.6-224.7-39.5c-60.3-43.6-89.4-117.2-109.1-188c-20.2-71.5-33.6-143.9-72.4-202.8
				c-38.4-58.3-102.5-101.7-177.2-103c-22.4-0.4-44.5,3.1-65.8,9.1c-22.6,6.4-44.5,15.5-65.1,25.7c-40.1,19.9-76.7,44-115.6,63.9
				c-22.6,11.6-46.1,21.5-70.3,29.4c-189,61.9-407.5-9.6-517.8-160.7"/>
			<path class="st1" d="M1682.5,725.4c-207.8-27.9-422.9-9.1-610.5,48.1c-88.3,26.9-170.8,61.9-262.6,83.3
				c-19,4.4-38.6,8.1-58.6,10.9c-76.5,10.9-160,7.8-223.3-38c-60.4-43.6-89.1-117.7-108-188.7c-19.3-71.8-31.5-144.4-69.1-204.2
				C313.1,377.6,249.5,332.5,174.8,331c-22.4-0.5-44.6,3.1-65.9,9.2C86.3,346.7,64.5,356,44,366.5C4.1,387-32.1,411.9-70.6,432.4
				c-22.5,12-45.8,22.4-69.9,30.7c-188.1,65.4-408.3-0.9-523.1-149.2"/>
			<path class="st1" d="M1670.2,716.6c-206.5-28.2-420.6-7.5-606,53.5c-87.2,28.7-168.3,65.8-259.2,88.7
				c-18.8,4.7-38.2,8.7-58.1,11.7c-75.9,11.8-159,9-222-36.5c-60.4-43.6-88.8-118.1-106.9-189.4c-18.5-72-29.5-144.9-65.9-205.5
				C316,379,252.9,332.2,178.2,330.3c-22.4-0.6-44.6,3-65.9,9.3c-22.6,6.6-44.3,16.2-64.7,27c-39.7,21-75.5,46.7-113.7,68
				c-22.3,12.4-45.5,23.2-69.4,32.1c-187.2,68.9-409,7.9-528.4-137.8"/>
			<path class="st1" d="M1657.9,707.9c-205.2-28.5-418.3-5.8-601.4,58.9c-86.1,30.4-165.9,69.7-255.9,94.1
				c-18.6,5-37.9,9.3-57.6,12.5c-75.4,12.7-158.1,10.2-220.7-35c-60.5-43.7-88.5-118.5-105.8-190.1
				c-17.6-72.2-27.4-145.4-62.7-206.9c-35-61-97.5-109.5-172.3-111.6c-22.4-0.7-44.6,3-65.9,9.4c-22.5,6.8-44.3,16.6-64.5,27.7
				c-39.5,21.6-74.9,48-112.8,70c-22.1,12.9-45.2,24.1-69,33.4c-186.4,72.4-409.8,16.6-533.7-126.3"/>
			<path class="st1" d="M1645.6,699.1c-203.9-28.8-416-4.2-596.8,64.2c-85,32.2-163.5,73.6-252.6,99.5c-18.4,5.3-37.5,9.8-57.1,13.3
				c-74.9,13.6-157.1,11.4-219.4-33.5c-60.5-43.7-88.2-119-104.7-190.8c-16.8-72.4-25.4-145.9-59.5-208.3
				c-33.8-61.9-95.9-112.1-170.7-114.5c-22.4-0.7-44.7,2.9-66,9.5c-22.5,6.9-44.2,17-64.3,28.3C15.4,389-19.6,416.1-57.3,438.9
				c-22,13.3-44.9,25-68.6,34.7c-185.5,75.9-410.6,25.3-539-114.8"/>
			<path class="st1" d="M1633.2,690.3c-202.6-29.1-413.7-2.6-592.2,69.6c-84,34-161,77.5-249.3,104.9c-18.2,5.6-37.2,10.4-56.5,14.2
				c-74.3,14.5-156.2,12.7-218.1-32c-60.6-43.7-87.9-119.4-103.5-191.5c-15.9-72.6-23.3-146.4-56.2-209.7
				c-32.7-62.8-94.2-114.6-169-117.4c-22.5-0.8-44.7,2.9-66,9.6c-22.5,7.1-44.1,17.3-64.1,29c-39,22.7-73.6,50.6-111,74.2
				c-21.8,13.7-44.6,25.8-68.2,36c-184.7,79.4-411.3,34.1-544.3-103.4"/>
			<path class="st1" d="M1620.9,681.5c-201.2-29.4-411.4-1-587.7,75c-82.9,35.7-158.6,81.4-245.9,110.3c-18,5.9-36.8,11-56,15
				c-73.8,15.4-155.3,13.9-216.8-30.6c-60.6-43.8-87.6-119.8-102.4-192.2c-15.1-72.9-21.1-147-53-211
				c-31.4-63.7-92.5-117.2-167.4-120.3c-22.5-0.9-44.7,2.9-66,9.7c-22.5,7.2-44,17.7-64,29.6c-38.8,23.3-73,51.9-110.1,76.2
				c-21.6,14.2-44.3,26.7-67.8,37.3c-183.8,82.9-412.1,42.8-549.6-91.9"/>
			<path class="st1" d="M1608.6,672.7c-199.9-29.7-409.2,0.6-583.1,80.3c-81.8,37.5-156.2,85.3-242.6,115.7
				c-17.8,6.2-36.4,11.6-55.5,15.8c-73.3,16.3-154.3,15.1-215.5-29.1c-60.7-43.8-87.3-120.3-101.3-192.9
				c-14.2-73.1-19.1-147.5-49.8-212.4C330.5,385.5,270,330.3,195.1,327c-22.5-1-44.8,2.8-66.1,9.8c-22.5,7.3-44,18.1-63.8,30.3
				C26.6,391-7.2,420.3-43.9,445.4c-21.4,14.6-44,27.6-67.4,38.6c-182.9,86.4-412.8,51.6-554.9-80.5"/>
			<path class="st1" d="M1596.3,663.9c-198.6-30-406.9,2.3-578.5,85.7C937,788.9,864,838.9,778.5,870.8c-17.6,6.5-36.1,12.2-55,16.6
				c-72.8,17.2-153.4,16.3-214.2-27.6c-60.8-43.8-87-120.7-100.2-193.6c-13.4-73.3-17-148-46.5-213.8
				c-29.2-65.5-89.2-122.4-164.1-126c-22.5-1.1-44.8,2.8-66.1,9.9c-22.4,7.5-43.9,18.5-63.6,31C30.4,391.6-3,421.7-39.5,447.5
				c-21.3,15-43.6,28.4-66.9,39.9c-182.1,89.9-413.6,60.3-560.2-69"/>
			<path class="st1" d="M1584,655.2c-197.3-30.3-404.6,3.9-574,91.1c-79.7,41-151.4,93.2-235.9,126.6c-17.4,6.9-35.7,12.8-54.5,17.4
				c-72.2,18.1-152.4,17.5-212.9-26.1C445.9,820.3,420,743,407.6,669.8c-12.5-73.5-15-148.5-43.3-215.2
				c-28-66.4-87.5-125-162.5-128.9c-22.5-1.2-44.8,2.7-66.1,10c-22.4,7.6-43.8,18.9-63.4,31.6c-38.2,25-71.2,55.8-107.4,82.4
				c-21.1,15.5-43.3,29.3-66.5,41.2c-181.2,93.4-414.4,69.1-565.6-57.5"/>
			<path class="st1" d="M1571.6,646.4c-196-30.6-402.3,5.5-569.4,96.4c-78.6,42.8-148.9,97.1-232.6,132c-17.2,7.2-35.4,13.3-54,18.3
				c-71.7,19-151.5,18.7-211.6-24.6c-60.8-43.9-86.4-121.6-97.9-195.1c-11.7-73.8-12.9-149-40.1-216.5
				c-26.9-67.3-85.9-127.6-160.8-131.8c-22.6-1.3-44.9,2.7-66.1,10.1c-22.4,7.7-43.7,19.2-63.2,32.3c-38,25.5-70.5,57.1-106.4,84.4
				c-20.9,15.9-43,30.2-66.1,42.6c-180.4,96.9-415.1,77.8-570.9-46.1"/>
			<path class="st1" d="M1559.3,637.6c-194.6-30.9-400,7.1-564.8,101.8C917,783.9,848,840.4,765.2,876.8
				c-17.1,7.5-35,13.9-53.5,19.1c-71.2,19.9-150.6,19.9-210.3-23.1c-60.9-43.9-86.1-122-96.8-195.8c-10.8-74-10.9-149.5-36.8-217.9
				c-25.8-68.2-84.2-130.2-159.2-134.7c-22.6-1.4-44.9,2.7-66.2,10.2c-22.4,7.9-43.7,19.6-63,33C41.7,393.6,9.5,426-26.1,454
				c-20.7,16.3-42.7,31-65.7,43.9c-179.5,100.4-415.9,86.5-576.2-34.6"/>
			<path class="st1" d="M1547,628.8c-193.3-31.2-397.7,8.7-560.2,107.2c-76.4,46.3-144.1,104.9-226,142.8
				c-16.9,7.8-34.7,14.5-53,19.9c-70.7,20.8-149.6,21.1-208.9-21.6c-61-44-85.8-122.4-95.7-196.5c-10-74.2-8.8-150.1-33.6-219.3
				C344.9,392.2,287,328.5,212,323.8c-22.6-1.4-44.9,2.6-66.2,10.3c-22.4,8-43.6,20-62.8,33.6c-37.5,26.6-69.3,59.7-104.6,88.6
				C-42.3,473-64.1,488.1-87,501.4c-178.7,103.9-416.7,95.3-581.5-23.2"/>
			<path class="st1" d="M1534.7,620c-192-31.5-395.4,10.3-555.7,112.5c-75.4,48.1-141.7,108.8-222.6,148.2
				c-16.7,8.1-34.3,15.1-52.5,20.7c-70.2,21.7-148.7,22.4-207.6-20.1c-61-44-85.5-122.9-94.6-197.2c-9.1-74.4-6.8-150.6-30.4-220.6
				c-23.5-70-80.9-135.4-155.9-140.4c-22.6-1.5-45,2.6-66.2,10.3c-22.3,8.2-43.5,20.4-62.6,34.3c-37.3,27.2-68.7,61.1-103.7,90.6
				c-20.4,17.2-42.1,32.7-64.9,46.5c-177.8,107.4-417.4,104-586.8-11.7"/>
			<path class="st1" d="M1522.4,611.2c-190.7-31.8-393.1,12-551.1,117.9C897,779,832,841.9,751.9,882.8c-16.5,8.4-33.9,15.7-52,21.5
				c-69.6,22.6-147.8,23.6-206.3-18.7c-61.1-44-85.2-123.3-93.4-197.9c-8.3-74.7-4.7-151.1-27.2-222
				c-22.3-70.9-79.2-138-154.3-143.3c-22.7-1.6-45,2.5-66.3,10.4c-22.3,8.3-43.5,20.7-62.4,35c-37.1,27.8-68.1,62.4-102.8,92.7
				c-20.2,17.6-41.8,33.6-64.4,47.8c-176.9,110.9-418.2,112.8-592.1-0.2"/>
			<path class="st1" d="M1510,602.5c-189.4-32.1-390.8,13.6-546.5,123.3c-73.2,51.6-136.8,116.6-216,159
				c-16.3,8.7-33.6,16.3-51.5,22.4c-69.1,23.5-146.8,24.8-205-17.2c-61.1-44.1-84.9-123.7-92.3-198.6c-7.5-74.9-2.7-151.6-24-223.4
				c-21.2-71.8-77.5-140.6-152.7-146.2c-22.7-1.7-45,2.5-66.3,10.5c-22.3,8.4-43.4,21.1-62.3,35.6c-36.9,28.3-67.5,63.7-101.9,94.7
				c-20.1,18.1-41.5,34.5-64,49.1C-248.4,626.2-491.3,633.3-669.8,523"/>
			<path class="st1" d="M1497.7,593.7c-188-32.4-388.5,15.2-542,128.6c-72.1,53.3-134.4,120.5-212.6,164.4
				c-78.3,43.9-181.9,60-254.7,7.5c-61.2-44.1-84.6-124.2-91.2-199.3c-6.6-75.1-0.6-152.1-20.7-224.8
				c-20.1-72.7-75.9-143.2-151-149.1c-46.5-3.7-91.8,18-128.4,46.9c-36.6,28.9-66.9,65-101,96.8
				c-175.2,163.2-459.9,194.5-666.3,73.1"/>
			<path class="st1" d="M-660.6,525c86.5,50.1,184.7,76.6,282.3,78.6c97.6,2,195-20,280.8-66.1c34.3-18.4,66.6-40.6,96.1-66.7
				c34.4-30.6,65-65.6,101.8-93.8c37-28.3,82.3-49.9,128.8-47.1c33.8,2.1,63.7,16.8,88.2,38.6c29.9,26.6,52,63.7,63.6,101.7
				c9.6,31,14.1,63,17.1,95.7c3.7,40.3,4.7,81.8,9.2,122.9c2.6,23.3,6.7,47,13.1,70.1c14,50.6,38.7,97.6,80.9,128
				c73,52.6,176,38.4,254.6-3.1C834.5,842.4,897.5,778,970.3,727c154.7-108.6,355.4-154.1,544-123"/>
			<path class="st1" d="M-650.9,512c86.9,49.5,183.8,78.6,279.3,83.5c95.6,4.9,190.6-13.2,276.2-55.7c34.2-17,66.8-37.9,96.5-63
				c34.7-29.2,65.6-63.3,102.7-90.9c37.4-27.7,82.8-49.2,129.1-47.3c33.7,1.5,63.6,15.1,88.1,35.6c30,24.9,52.3,59.9,64.6,96.1
				c10.1,29.4,15.5,60,19.5,91.7c4.9,39.1,7,80,12.6,120.7c3.1,23,7.7,46.7,14.4,69.5c14.8,50.2,40.1,96.9,82.3,127.3
				c73.2,52.7,175.7,40.4,254.4,1.3c78.8-39,142.6-100.5,216-149.3c155.9-103.8,356.9-147.2,546.1-117.3"/>
			<path class="st1" d="M-641.2,499.1c87.4,49,183,80.6,276.4,88.5c93.5,7.9,186.3-6.4,271.5-45.4c34.1-15.6,66.9-35.2,97-59.3
				c34.9-27.9,66.2-61.1,103.5-88c37.7-27.2,83.3-48.6,129.5-47.5c33.6,0.9,63.4,13.4,88,32.5c30,23.3,52.5,56.1,65.5,90.4
				c10.7,27.8,16.8,57,21.8,87.8c6.1,37.9,9.4,78.2,15.9,118.6c3.6,22.8,8.7,46.3,15.8,68.9c15.6,49.9,41.4,96.2,83.8,126.7
				c73.3,52.9,175.3,42.3,254.3,5.7c79-36.6,143.7-95.2,217.6-141.7c157.2-98.9,358.4-140.3,548.1-111.6"/>
			<path class="st1" d="M-631.6,486.2c87.9,48.5,182.1,82.6,273.5,93.4c91.5,10.8,181.9,0.5,266.9-35.1c33.9-14.2,67-32.5,97.4-55.5
				c35.2-26.7,66.8-58.8,104.3-85c38.1-26.7,83.7-47.9,129.9-47.7c33.5,0.3,63.3,11.7,87.9,29.5c30.1,21.6,52.8,52.4,66.5,84.7
				c11.2,26.3,18.2,54,24.1,83.8c7.3,36.7,11.7,76.4,19.2,116.4c4.2,22.6,9.7,45.9,17.1,68.4c16.4,49.5,42.8,95.4,85.2,126
				c73.5,53,174.9,44.3,254.2,10.1c79.3-34.2,144.8-89.9,219.3-134.1c158.5-94.1,359.9-133.4,550.2-105.9"/>
			<path class="st1" d="M-621.9,473.2c88.3,48,181.2,84.6,270.5,98.3c89.4,13.7,177.6,7.3,262.3-24.8c33.8-12.8,67.1-29.8,97.8-51.8
				c35.5-25.4,67.4-56.5,105.1-82.1c38.4-26.1,84.2-47.3,130.2-47.8c33.4-0.4,63.2,10,87.8,26.5c30.1,19.9,53,48.6,67.4,79
				c11.7,24.7,19.5,51.1,26.5,79.8c8.5,35.4,14.1,74.6,22.5,114.3c4.7,22.4,10.6,45.5,18.4,67.8c17.2,49.1,44.1,94.7,86.6,125.4
				c73.7,53.1,174.6,46.3,254.1,14.5c79.6-31.8,145.8-84.6,221-126.5c159.7-89.2,361.5-126.5,552.2-100.2"/>
			<path class="st1" d="M-612.2,460.3c88.8,47.5,180.3,86.6,267.6,103.2c87.4,16.6,173.2,14.1,257.7-14.5
				c33.7-11.4,67.2-27.1,98.2-48.1c35.7-24.1,68.1-54.2,106-79.2c38.8-25.5,84.6-46.6,130.6-48c33.3-1,63,8.4,87.7,23.4
				c30.2,18.3,53.3,44.8,68.4,73.3c12.3,23.2,20.9,48.1,28.8,75.8c9.7,34.2,16.4,72.8,25.8,112.1c5.2,22.2,11.6,45.1,19.8,67.2
				c18,48.7,45.5,94,88.1,124.7c73.8,53.2,174.2,48.3,254,18.9c79.8-29.3,146.9-79.3,222.6-119c161-84.4,363-119.6,554.3-94.5"/>
			<path class="st1" d="M-602.6,447.3c89.3,47,179.4,88.6,264.7,108.1c85.3,19.6,168.9,21,253.1-4.1c33.6-10,67.2-24.5,98.6-44.3
				c35.9-22.8,68.7-51.9,106.8-76.2c39.2-25,85.1-45.9,131-48.2c33.3-1.6,62.9,6.7,87.6,20.4c30.2,16.6,53.6,41,69.3,67.6
				c12.8,21.6,22.2,45.1,31.2,71.8c11,33,18.8,71,29.1,109.9c5.7,22,12.6,44.7,21.1,66.7c18.8,48.3,46.8,93.3,89.6,124
				c74,53.4,173.8,50.2,253.9,23.3c80.1-26.9,148-74,224.3-111.4c162.3-79.5,364.5-112.6,556.3-88.8"/>
			<path class="st1" d="M-592.9,434.4c89.7,46.5,178.5,90.5,261.7,113c83.3,22.5,164.6,27.8,248.5,6.2c33.5-8.6,67.3-21.8,99-40.6
				c36.2-21.5,69.3-49.7,107.6-73.3c39.5-24.4,85.5-45.3,131.3-48.4c33.2-2.2,62.7,5,87.5,17.3c30.2,15,53.8,37.3,70.2,61.9
				c13.4,20.1,23.6,42.1,33.5,67.9c12.2,31.8,21.2,69.2,32.4,107.8c6.2,21.7,13.5,44.3,22.5,66.1c19.6,47.9,48.2,92.5,91,123.4
				c74.2,53.5,173.4,52.2,253.7,27.7c80.3-24.5,149-68.7,225.9-103.8c163.5-74.7,366-105.7,558.4-83.1"/>
			<path class="st1" d="M-583.2,421.4c90.2,46,177.6,92.5,258.8,118c81.2,25.4,160.2,34.7,243.8,16.5c33.4-7.2,67.4-19.1,99.4-36.9
				c36.4-20.2,70-47.4,108.5-70.4c39.9-23.8,86-44.6,131.7-48.6c33.1-2.8,62.6,3.4,87.4,14.3c30.2,13.3,54.1,33.5,71.2,56.2
				c13.9,18.5,24.9,39.1,35.8,63.9c13.4,30.5,23.6,67.4,35.7,105.6c6.8,21.5,14.5,43.9,23.8,65.5c20.4,47.6,49.5,91.8,92.4,122.7
				c74.4,53.6,173.1,54.2,253.6,32.1c80.6-22.1,150.1-63.4,227.6-96.2c164.8-69.8,367.5-98.8,560.4-77.4"/>
			<path class="st1" d="M-573.6,408.5c90.6,45.5,176.8,94.5,255.9,122.9c79.2,28.3,155.9,41.5,239.2,26.8
				c33.3-5.8,67.5-16.4,99.8-33.1c36.6-19,70.6-45.1,109.3-67.4c40.3-23.3,86.4-43.9,132.1-48.8c33-3.4,62.5,1.7,87.3,11.3
				c30.3,11.7,54.4,29.7,72.1,50.6c14.5,17,26.2,36.1,38.2,59.9c14.6,29.3,26,65.6,39,103.5c7.3,21.3,15.5,43.5,25.1,65
				c21.2,47.2,50.9,91.1,93.9,122.1c74.6,53.8,172.7,56.2,253.5,36.5c80.9-19.6,151.2-58.1,229.3-88.6c166-65,369-91.9,562.5-71.7"
				/>
			<path class="st1" d="M-563.9,395.5c91.1,44.9,175.9,96.5,252.9,127.8c77.1,31.3,151.5,48.3,234.6,37.1
				c33.2-4.4,67.5-13.7,100.2-29.4c36.9-17.7,71.2-42.8,110.1-64.5c40.7-22.7,86.9-43.4,132.5-49c32.9-4,62.4,0,87.2,8.2
				c30.3,10,54.7,26,73.1,44.9c15,15.4,27.6,33.1,40.5,55.9c15.9,28.1,28.3,63.8,42.3,101.3c7.9,21.1,16.5,43.1,26.5,64.4
				c22,46.8,52.2,90.3,95.3,121.4c74.7,53.9,172.3,58.2,253.4,40.9c81.1-17.2,152.2-52.8,230.9-81.1c167.3-60.1,370.5-85,564.6-66"
				/>
			<path class="st1" d="M-554.2,382.6c91.6,44.4,175,98.5,250,132.7c75.1,34.2,147.2,55.2,230,47.5c33.1-3,67.6-11.1,100.6-25.7
				c37.1-16.4,71.9-40.5,111-61.6c41-22.1,87.3-42.7,132.8-49.2c32.8-4.7,62.2-1.7,87.1,5.2c30.4,8.4,55,22.2,74,39.2
				c15.6,13.9,29,30.1,42.9,52c17.1,26.8,30.7,62,45.6,99.2c8.4,20.8,17.4,42.7,27.8,63.8c22.8,46.4,53.6,89.6,96.8,120.8
				c74.9,54,172,60.1,253.3,45.3c81.4-14.8,153.3-47.5,232.6-73.5c168.6-55.3,372-78.1,566.6-60.3"/>
			<path class="st1" d="M-544.6,369.7c92,43.9,174.1,100.5,247.1,137.6c73,37.1,142.8,62,225.4,57.8c33-1.6,67.6-8.4,101-21.9
				c37.3-15.2,72.5-38.2,111.8-58.6c41.4-21.5,87.8-42,133.2-49.3c32.7-5.3,62.1-3.3,87,2.1c30.4,6.7,55.3,18.4,75,33.5
				c16.2,12.3,30.3,27.1,45.2,48c18.3,25.6,33.1,60.2,48.9,97c8.9,20.6,18.4,42.4,29.1,63.3c23.6,46,54.9,88.9,98.2,120.1
				c75.1,54.1,171.6,62.1,253.2,49.7c81.7-12.4,154.4-42.2,234.2-65.9c169.8-50.4,373.5-71.2,568.7-54.6"/>
			<path class="st1" d="M-534.9,356.7c92.5,43.4,173.2,102.5,244.1,142.5c71,40.1,138.5,68.8,220.7,68.1
				c32.9-0.2,67.7-5.7,101.4-18.2c37.5-13.9,73.1-35.9,112.6-55.7c41.8-21,88.3-41.4,133.6-49.5c32.6-5.9,62-5,86.9-0.9
				c30.5,5.1,55.6,14.7,75.9,27.8c16.7,10.8,31.7,24.2,47.6,44c19.5,24.4,35.4,58.4,52.2,94.8c9.4,20.4,19.4,42,30.5,62.7
				c24.4,45.6,56.3,88.2,99.7,119.5c75.3,54.3,171.2,64.1,253.1,54.1c81.9-9.9,155.4-36.9,235.9-58.3c171.1-45.6,375-64.2,570.7-49"
				/>
			<path class="st1" d="M-525.2,343.8c93,42.9,172.3,104.5,241.2,147.5c68.9,43,134.1,75.7,216.1,78.4c32.8,1.1,67.7-3.1,101.8-14.5
				c37.7-12.7,73.8-33.6,113.5-52.8c42.2-20.4,88.7-40.7,133.9-49.7c32.5-6.5,61.9-6.7,86.8-3.9c30.5,3.4,55.9,10.9,76.8,22.1
				c17.3,9.2,33,21.2,49.9,40c20.7,23.1,37.8,56.6,55.6,92.7c10,20.2,20.3,41.6,31.8,62.1c25.2,45.2,57.6,87.4,101.1,118.8
				c75.4,54.4,170.9,66.1,253,58.5c82.2-7.5,156.5-31.6,237.6-50.7c172.4-40.7,376.5-57.3,572.8-43.3"/>
			<path class="st1" d="M-515.6,330.8c93.4,42.4,171.4,106.5,238.3,152.4c66.9,45.9,129.8,82.5,211.5,88.7
				c32.7,2.5,67.8-0.4,102.2-10.8c37.9-11.4,74.4-31.3,114.3-49.8c42.6-19.8,89.2-40.1,134.3-49.9c32.4-7.1,61.7-8.4,86.7-7
				c30.6,1.7,56.2,7.1,77.8,16.4c17.9,7.7,34.4,18.2,52.2,36c21.9,21.9,40.1,54.8,58.9,90.5c10.5,20,21.3,41.2,33.1,61.6
				c26,44.9,59,86.7,102.5,118.1c75.6,54.5,170.5,68,252.8,62.9c82.4-5.1,157.6-26.3,239.2-43.2c173.6-35.9,378-50.4,574.8-37.6"/>
			<path class="st1" d="M-505.9,317.9c93.9,41.9,170.6,108.4,235.3,157.3c64.8,48.8,125.5,89.3,206.9,99.1
				c32.6,3.9,67.8,2.3,102.6-7c38.1-10.2,75.1-29,115.1-46.9c43-19.2,89.6-39.4,134.7-50.1c32.4-7.7,61.6-9.9,86.6-10
				c30.6-0.2,56.5,3.4,78.7,10.7c18.5,6.1,35.7,15.2,54.6,32.1c23.1,20.7,42.5,53,62.2,88.4c11,19.8,22.3,40.8,34.5,61
				c26.8,44.5,60.3,86,104,117.5c75.8,54.7,170.1,70,252.7,67.3c82.7-2.7,158.6-21,240.9-35.6c174.9-31.1,379.6-43.5,576.9-31.9"/>
			<path class="st1" d="M-496.2,304.9c94.3,41.4,169.7,110.4,232.4,162.2c62.8,51.8,121.1,96.2,202.3,109.4
				c32.5,5.3,67.9,4.9,103-3.3c38.3-8.9,75.7-26.7,115.9-44c43.3-18.6,90.1-38.7,135-50.3c32.3-8.3,61.5-11.7,86.5-13
				c30.7-1.6,56.8-0.4,79.7,5c19.1,4.6,37.1,12.2,56.9,28.1c24.3,19.4,44.9,51.2,65.5,86.2c11.5,19.5,23.3,40.4,35.8,60.4
				c27.6,44.1,61.7,85.3,105.4,116.8c76,54.8,169.7,72,252.6,71.7c83-0.2,159.7-15.7,242.6-28c176.1-26.2,381.1-36.6,578.9-26.2"/>
			<path class="st1" d="M-486.6,292c94.8,40.9,168.8,112.4,229.5,167.1c60.7,54.7,116.8,103,197.7,119.7
				c32.4,6.7,67.9,7.5,103.4,0.4c38.5-7.7,76.4-24.4,116.8-41c43.7-18,90.5-38.1,135.4-50.5c32.2-8.9,61.4-13.4,86.4-16.1
				c30.8-3.3,57.1-4.2,80.6-0.6c19.6,3,38.4,9.2,59.3,24.1c25.5,18.2,47.2,49.4,68.8,84c12.1,19.3,24.2,40,37.1,59.9
				c28.4,43.7,63,84.5,106.9,116.2c76.1,54.9,169.4,74,252.5,76.1c83.2,2.2,160.8-10.4,244.2-20.4c177.4-21.4,382.6-29.7,581-20.5"
				/>
			<path class="st1" d="M-476.9,279.1c95.3,40.4,167.9,114.4,226.5,172c58.7,57.6,112.4,109.9,193,130c32.3,8.1,68,10.2,103.8,4.2
				c38.7-6.5,77-22,117.6-38.1c44.1-17.4,91-37.4,135.8-50.7c32.1-9.5,61.2-15.1,86.2-19.1c30.8-4.9,57.5-8,81.6-6.3
				c20.2,1.4,39.8,6.2,61.6,20.1c26.7,17,49.6,47.6,72.1,81.9c12.6,19.1,25.2,39.6,38.5,59.3c29.2,43.3,64.4,83.8,108.3,115.5
				c76.3,55.1,169,75.9,252.4,80.5c83.5,4.6,161.8-5.1,245.9-12.8c178.7-16.5,384.1-22.8,583.1-14.8"/>
			<path class="st1" d="M-467.2,266.1c95.7,39.8,167,116.4,223.6,176.9c56.6,60.5,108.1,116.7,188.4,140.3
				c32.2,9.5,68,12.8,104.2,7.9c38.9-5.3,77.7-19.7,118.4-35.1c44.5-16.8,91.4-36.7,136.1-50.8c32-10.1,61.1-16.8,86.2-22.2
				c30.9-6.6,57.8-11.2,82.5-12c20.8-0.7,41.1,3.3,63.9,16.1c27.9,15.8,51.9,45.9,75.4,79.7c13.1,18.9,26.2,39.2,39.8,58.7
				c30,42.9,65.7,83.1,109.8,114.9c76.5,55.2,168.6,77.9,252.3,84.9c83.7,7,162.9,0.2,247.5-5.3c179.9-11.7,385.6-15.8,585.1-9.1"/>
			<path class="st1" d="M-457.6,253.2c96.2,39.3,166.1,118.4,220.7,181.9c54.6,63.5,103.7,123.5,183.8,150.7
				c32,10.9,68.1,15.4,104.6,11.6c39.1-4.1,78.3-17.4,119.3-32.2c44.9-16.2,91.9-36.1,136.5-51c31.9-10.7,61-18.5,86.1-25.2
				c30.9-8.3,58.1-15.6,83.5-17.7c21.4-1.7,42.4,0.3,66.3,12.2c29.2,14.5,54.3,44.1,78.7,77.6c13.6,18.7,27.2,38.8,41.2,58.2
				c30.8,42.5,67.1,82.4,111.2,114.2c76.7,55.3,168.3,79.9,252.2,89.3c84,9.5,164,5.5,249.2,2.3c181.2-6.8,387.1-8.9,587.2-3.4"/>
			<path class="st1" d="M-447.9,240.2C-351.2,279-282.6,360.6-230.2,427c52.5,66.4,99.4,130.4,179.2,161
				C-19,600.3,17.1,606,54,603.4c39.3-2.9,79-15.1,120.1-29.3c45.3-15.6,92.3-35.4,136.9-51.2c31.8-11.3,60.9-20.2,86-28.2
				c30.9-9.9,58.4-19.5,84.4-23.4c22-3.3,43.8-2.7,68.6,8.2c30.4,13.3,56.6,42.3,82,75.4c14.1,18.4,28.1,38.5,42.5,57.6
				c31.6,42.2,68.4,81.6,112.7,113.5c76.8,55.4,167.9,81.9,252,93.7c84.3,11.9,165,10.8,250.8,9.9c182.4-2,388.6-2,589.2,2.3"/>
			<path class="st1" d="M-438.2,227.3c97.1,38.3,164.4,122.4,214.8,191.7c50.5,69.3,95,137.2,174.6,171.3
				C-17,604,19.3,610.9,56.6,609.4c39.5-1.7,79.6-12.8,120.9-26.3c45.7-15,92.8-34.6,137.2-51.4c31.8-11.8,60.7-21.9,85.8-31.3
				c31-11.6,58.7-23.3,85.3-29.1c22.5-4.9,45.1-5.6,71,4.2c31.5,12.2,59,40.5,85.3,73.2c14.6,18.2,29.1,38.1,43.8,57
				c32.4,41.8,69.8,80.9,114.1,112.9c77,55.6,167.5,83.9,251.9,98.1c84.5,14.3,166.1,16.1,252.5,17.5c183.7,2.9,390.1,4.9,591.3,8"
				/>
			<path class="st1" d="M-428.6,214.3c97.6,37.8,163.5,124.4,211.9,196.6c48.4,72.3,90.7,144,170,181.6
				C-15,607.7,21.5,617,59.1,615.4c39.7-1.7,80.3-10.4,121.8-23.4c46.1-14.4,93.3-34,137.6-51.6c31.7-12.5,60.6-23.6,85.7-34.3
				c31-13.3,59-27.1,86.3-34.8c23.1-6.5,46.5-8.6,73.3,0.2c32.8,10.9,61.3,38.7,88.6,71.1c15.2,18,30.1,37.7,45.2,56.5
				c33.2,41.4,71.1,80.2,115.5,112.2c77.2,55.7,167.1,85.8,251.8,102.5c84.8,16.7,167.2,21.4,254.2,25.1
				c185,7.7,391.6,11.8,593.3,13.7"/>
			<path class="st1" d="M-418.9,201.4c98.1,37.3,162.6,126.3,208.9,201.5c46.4,75.2,86.3,150.9,165.3,191.9
				c31.6,16.5,68.2,25.9,106.2,26.6c39.9,0.7,80.9-8.1,122.6-20.5c46.5-13.8,93.7-33.3,138-51.8c31.6-13.1,60.5-25.2,85.6-37.3
				c31.1-15,59.3-30.9,87.2-40.5c23.7-8.1,47.8-11.6,75.7-3.8c34,9.7,63.6,36.9,91.9,68.9c15.7,17.8,31,37.3,46.5,55.9
				c34,41,72.5,79.4,117,111.6c77.4,55.8,166.8,87.8,251.7,106.9c85.1,19.2,168.2,26.7,255.8,32.6c186.2,12.6,393.1,18.7,595.4,19.4
				"/>
			<path class="st1" d="M-409.2,188.4c98.5,36.8,161.7,128.3,206,206.4c44.3,78.1,82,157.7,160.7,202.3
				C-11,615,25.8,625.6,64.1,627.4c40.1,1.9,81.6-5.8,123.4-17.5c46.9-13.2,94.2-32.6,138.4-52c31.5-13.7,60.3-26.9,85.5-40.4
				c31.2-16.6,59.6-34.7,88.2-46.1c24.2-9.7,49.1-14.6,78-7.7c35.2,8.5,66,35.1,95.2,66.8c16.2,17.6,32,36.9,47.8,55.3
				c34.8,40.6,73.8,78.7,118.4,110.9c77.5,56,166.4,89.8,251.6,111.3c85.3,21.6,169.3,32,257.5,40.2c187.5,17.4,394.6,25.6,597.4,25
				"/>
			<path class="st1" d="M-399.6,175.5c99,36.3,160.8,130.3,203.1,211.4c42.3,81,77.7,164.5,156.1,212.6c31.4,19.3,68.3,31.1,107,34
				c40.3,3.1,82.2-3.4,124.3-14.6c47.3-12.6,94.7-32,138.7-52.2c31.4-14.3,60.2-28.7,85.4-43.4c31.2-18.4,59.9-38.5,89.1-51.8
				c24.8-11.3,50.5-17.6,80.3-11.7c36.4,7.3,68.4,33.4,98.6,64.6c16.7,17.4,33,36.5,49.2,54.8c35.6,40.2,75.2,78,119.9,110.3
				c77.7,56.1,166,91.8,251.5,115.7c85.6,24,170.4,37.3,259.2,47.8c188.8,22.3,396.1,32.6,599.5,30.7"/>
			<path class="st1" d="M-389.9,162.6c99.4,35.8,159.9,132.3,200.1,216.3c40.2,84,73.3,171.4,151.5,222.9
				c31.3,20.7,68.4,33.7,107.4,37.8c40.5,4.2,82.9-1.1,125.1-11.7c47.7-12,95.1-31.3,139.1-52.3c31.3-14.9,60-30.4,85.3-46.5
				c31.2-20,60.2-42.4,90.1-57.5c25.4-12.9,51.9-20.6,82.7-15.7c37.6,6,70.7,31.6,101.9,62.4c17.2,17.2,33.9,36.1,50.5,54.2
				c36.5,39.8,76.5,77.3,121.3,109.6c77.9,56.2,165.7,93.7,251.4,120.1c85.8,26.4,171.4,42.6,260.8,55.4
				c190,27.1,397.6,39.5,601.6,36.4"/>
			<path class="st1" d="M-380.2,149.6c99.9,35.3,159.1,134.3,197.2,221.2c38.2,86.9,69,178.2,146.9,233.2
				c31.2,22.1,68.5,36.2,107.8,41.5c40.8,5.4,83.5,1.2,125.9-8.7c48.1-11.3,95.6-30.7,139.5-52.5c31.2-15.5,59.9-32,85.2-49.5
				c31.2-21.7,60.5-46.2,91-63.2c25.9-14.5,53.2-23.6,85-19.7c38.8,4.8,73.1,29.8,105.2,60.3c17.8,17,34.9,35.7,51.8,53.6
				c37.2,39.5,77.8,76.5,122.8,108.9c78.1,56.4,165.3,95.7,251.2,124.5c86.1,28.9,172.5,47.9,262.5,63
				c191.3,32,399.2,46.4,603.6,42.1"/>
			<path class="st1" d="M-370.6,136.7c100.4,34.7,158.2,136.3,194.3,226.1c36.1,89.8,64.6,185.1,142.3,243.5
				c31.1,23.5,68.5,38.8,108.2,45.2c41,6.6,84.2,3.6,126.7-5.8c48.5-10.7,96-30,139.8-52.7c31.2-16.1,59.8-33.7,85.1-52.5
				c31.3-23.4,60.7-50,91.9-68.9c26.5-16,54.5-26.5,87.4-23.7c40,3.6,75.4,28,108.5,58.1c18.3,16.7,35.9,35.3,53.2,53.1
				c38,39.1,79.2,75.8,124.2,108.3c78.2,56.5,164.9,97.7,251.1,128.9c86.4,31.3,173.6,53.2,264.1,70.5
				c192.6,36.8,400.6,53.3,605.7,47.8"/>
			<path class="st1" d="M-360.9,123.7c100.8,34.2,157.3,138.3,191.3,231c34.1,92.7,60.3,191.9,137.6,253.9
				c31,24.8,68.6,41.4,108.6,49c41.2,7.8,84.8,5.9,127.6-2.9c48.9-10.1,96.5-29.3,140.2-52.9c31.1-16.7,59.7-35.4,85-55.6
				c31.3-25,61-53.8,92.9-74.6c27-17.6,55.9-29.5,89.7-27.6c41.2,2.4,77.8,26.2,111.8,56c18.8,16.5,36.9,34.9,54.5,52.5
				c38.9,38.7,80.6,75.1,125.6,107.6c78.4,56.6,164.6,99.7,251,133.3c86.6,33.7,174.6,58.5,265.8,78.1
				c193.8,41.7,402.2,60.2,607.7,53.5"/>
			<path class="st1" d="M-351.2,110.8c101.3,33.7,156.4,140.3,188.4,235.9c32,95.7,55.9,198.7,133,264.2c30.9,26.2,68.7,44,109,52.7
				c41.4,8.9,85.5,8.3,128.4,0.1c49.2-9.4,96.9-28.7,140.6-53.1c31-17.3,59.5-37.1,84.9-58.6c31.4-26.7,61.3-57.7,93.8-80.3
				c27.5-19.3,57.2-32.5,92-31.6c42.4,1.1,80.1,24.4,115.1,53.8c19.3,16.3,37.8,34.5,55.8,51.9c39.7,38.3,81.9,74.4,127.1,107
				c78.6,56.7,164.2,101.7,250.9,137.7c86.9,36.1,175.7,63.8,267.5,85.7c195.1,46.5,403.7,67.1,609.8,59.2"/>
			<path class="st1" d="M-341.6,97.8C-239.8,131-186,240.1-156.1,338.7c30,98.6,51.6,205.6,128.4,274.5
				C3.1,640.8,41,659.8,81.7,669.6c41.7,10.1,86.2,10.7,129.2,3c49.7-8.7,97.4-28,140.9-53.3c30.9-17.9,59.4-38.8,84.8-61.7
				c31.4-28.4,61.5-61.5,94.8-86c28.1-20.8,58.6-35.5,94.4-35.6c43.7-0.1,82.5,22.6,118.4,51.7c19.8,16.1,38.8,34.2,57.2,51.4
				c40.5,37.9,83.2,73.6,128.5,106.3c78.8,56.9,163.8,103.6,250.8,142.1c87.1,38.6,176.8,69.1,269.1,93.3
				c196.3,51.4,405.2,74,611.8,64.9"/>
			<path class="st1" d="M-331.9,84.9c102.2,32.7,154.6,144.2,182.5,245.8c27.9,101.5,47.2,212.4,123.8,284.8
				c30.7,29,68.8,49.1,109.8,60.1c41.9,11.2,86.8,13,130.1,5.9c50-8.1,97.9-27.3,141.3-53.5c30.8-18.5,59.3-40.5,84.7-64.7
				c31.5-30,61.8-65.2,95.7-91.7c28.7-22.4,59.9-38.5,96.7-39.6c44.9-1.3,84.9,20.8,121.7,49.5c20.4,15.9,39.8,33.8,58.5,50.8
				c41.3,37.5,84.6,72.9,130,105.7c79,57,163.4,105.6,250.7,146.5c87.4,41,177.8,74.4,270.8,100.9c197.6,56.2,406.7,80.9,613.9,70.6
				"/>
			<path class="st1" d="M-322.2,71.9c102.7,32.2,153.7,146.2,179.6,250.7c25.9,104.5,42.9,219.2,119.2,295.1
				c61.7,61.4,155,85.6,241.1,72.7c86.1-12.8,164.9-59.6,226.3-121.4c58.2-58.5,113.3-136.3,195.7-140.9
				c71.5-4,131.2,50.2,184.9,97.6c344.6,304.4,811.3,466.2,1270.4,440.6"/>
			<path class="st1" d="M-331,81.6c102,31.2,153.8,142.6,181,245.1C-123,429.1-104.5,542-28.5,617c61.9,61,154.6,85.8,240.5,74.3
				c75.9-10.2,146.3-46.5,204.5-96.4c7.6-6.5,15-13.3,22.2-20.3c58.8-57.1,114.4-133.6,196.5-139.1c71.2-4.7,130.8,47,184.5,92.2
				c345.9,290,813.1,446.3,1271.1,425.5"/>
			<path class="st1" d="M-339.9,91.2c101.4,30.2,153.9,139.1,182.3,239.6c28.4,100.5,48.3,211.3,123.9,285.4
				c62.1,60.6,154.2,86,239.8,75.8c75.7-9,146.2-43.7,204.9-92.3c7.7-6.4,15.2-13,22.4-19.8c59.4-55.7,115.5-130.9,197.3-137.3
				c70.8-5.4,130.3,43.7,184.2,86.8c347.2,275.7,814.8,426.4,1271.8,410.3"/>
			<path class="st1" d="M-348.7,100.8c100.8,29.2,153.9,135.5,183.7,234c29.6,98.5,50.9,207.3,126.3,280.5
				c62.3,60.1,153.9,86.2,239.1,77.3c75.5-7.8,146-40.9,205.1-88.1c7.8-6.2,15.3-12.6,22.6-19.3c59.9-54.3,116.6-128.2,198.1-135.5
				c70.4-6.2,129.8,40.6,183.9,81.4c348,262.1,816.5,406.5,1272.5,395.1"/>
			<path class="st1" d="M-357.5,110.4c100.1,28.2,154,131.9,185.1,228.4c30.9,96.5,53.4,203.5,128.6,275.7
				c62.4,59.9,153.5,86.4,238.4,78.8c75.3-6.7,145.8-38.2,205.5-84c7.8-6,15.4-12.3,22.8-18.7c60.5-52.9,117.7-125.5,198.9-133.7
				c70.1-6.9,129.4,37.5,183.6,76c349.1,248.1,818.3,386.5,1273.2,379.9"/>
			<path class="st1" d="M-366.3,120c99.5,27.2,154.1,128.3,186.4,222.9c32.2,94.5,56.1,199.6,131,270.8
				c62.6,59.5,153.1,86.6,237.7,80.3c75.1-5.5,145.6-35.4,205.8-79.9c7.9-5.8,15.6-11.9,23-18.2c61.1-51.5,118.8-122.7,199.7-131.9
				c69.7-7.6,128.9,34.3,183.3,70.6c350.3,234,820,366.6,1273.9,364.8"/>
			<path class="st1" d="M-375.1,129.6c98.9,26.2,154.1,124.7,187.8,217.3c33.4,92.5,58.7,195.7,133.4,265.9
				c62.7,59.1,152.7,86.8,237.1,81.8c74.9-4.3,145.4-32.7,206.1-75.7c7.9-5.6,15.7-11.6,23.2-17.7c61.7-50.1,119.9-120,200.5-130.1
				c69.4-8.4,128.5,31.1,182.9,65.2c351.5,219.9,821.8,346.7,1274.6,349.6"/>
			<path class="st1" d="M-384,139.2c98.2,25.2,154.2,121.1,189.2,211.7c34.7,90.5,61.4,191.8,135.7,261.1
				c62.9,58.7,152.3,87.1,236.4,83.3c74.7-3.2,145.3-29.9,206.4-71.6c8-5.5,15.8-11.2,23.4-17.1c62.2-48.7,121-117.3,201.3-128.3
				c69-9.1,128,28,182.6,59.8c352.8,205.9,823.5,326.8,1275.3,334.4"/>
			<path class="st1" d="M-392.8,148.9C-295.2,173-238.5,266.4-202.2,355c35.9,88.5,64,187.8,138.1,256.2
				C-1,669.5,87.8,698.5,171.6,696c74.5-2,145.1-27.1,206.7-67.5c8.1-5.3,15.9-10.8,23.6-16.6c62.8-47.3,122-114.8,202.1-126.4
				c68.6-10,127.6,24.8,182.3,54.4c354,191.8,825.3,306.8,1275.9,319.2"/>
			<path class="st1" d="M-401.6,158.5c97,23.1,154.3,114,191.9,200.6c37.2,86.5,66.7,183.9,140.4,251.3
				c63.3,57.9,151.5,87.5,235,86.3c74.2-0.8,144.9-24.4,207-63.3c8.1-5.1,16.1-10.5,23.8-16.1c63.4-45.9,123.1-112.1,202.9-124.6
				c68.2-10.8,127.1,21.6,182,49c355.3,177.7,827,286.9,1276.7,304.1"/>
			<path class="st1" d="M-410.4,168.1c96.3,22.1,154.4,110.4,193.3,195c38.5,84.5,69.4,179.9,142.8,246.5
				C-10.8,667,76.8,697.3,160,697.4c74,0.3,144.7-21.6,207.3-59.2c8.2-4.9,16.2-10.1,24-15.6c63.9-44.5,124.2-109.4,203.7-122.8
				c67.9-11.5,126.7,18.4,181.7,43.7c356.7,163.6,828.7,267,1277.4,288.9"/>
			<path class="st1" d="M-419.2,177.7c95.7,21.1,154.4,106.8,194.7,189.5c39.7,82.5,72,176,145.2,241.6
				c63.6,57,150.7,87.9,233.7,89.3c73.8,1.5,144.6-18.8,207.6-55.1c8.2-4.8,16.3-9.8,24.2-15c64.5-43.1,125.3-106.7,204.5-121
				c67.5-12.3,126.3,15.3,181.3,38.3c358,149.5,830.5,247.1,1278,273.7"/>
			<path class="st1" d="M-428.1,187.3c95.1,20.1,154.7,103.1,196,183.9c41.2,80.4,74.7,172.1,147.5,236.7
				c63.8,56.6,150.3,88.1,233,90.8c73.6,2.7,144.4-16.1,207.9-50.9c8.3-4.6,16.5-9.4,24.4-14.5c65.1-41.7,126.4-104,205.3-119.2
				c67.2-13,125.8,12.1,181,32.9c359.4,135.4,832.2,227.1,1278.8,258.5"/>
			<path class="st1" d="M-436.9,196.9c94.4,19.1,154.8,99.5,197.4,178.3c42.4,78.4,77.3,168.1,149.9,231.8
				c64,56.2,149.9,88.3,232.3,92.4c73.4,3.8,144.2-13.3,208.2-46.8c8.4-4.4,16.6-9.1,24.6-14c65.7-40.3,127.5-101.2,206.1-117.4
				c66.8-13.7,125.4,8.9,180.7,27.5c360.7,121.3,834,207.2,1279.5,243.4"/>
			<path class="st1" d="M-445.7,206.5c93.8,18.1,154.8,95.9,198.8,172.8c43.7,76.4,80,164.2,152.3,227
				c64.2,55.8,149.6,88.5,231.6,93.9c73.2,5,144-10.5,208.5-42.7c8.4-4.2,16.7-8.7,24.8-13.5c66.2-38.9,128.6-98.5,206.9-115.6
				c66.4-14.5,125,5.7,180.4,22.1c362.2,107.1,835.7,187.3,1280.1,228.2"/>
			<path class="st1" d="M-454.5,216.1c93.1,17.1,154.9,92.3,200.2,167.2c45,74.4,82.7,160.2,154.6,222.1
				c64.4,55.4,149.2,88.8,230.9,95.4c73,6.2,143.8-7.8,208.8-38.5c8.5-4,16.8-8.4,25-12.9c66.8-37.5,129.7-95.8,207.7-113.8
				c66.1-15.2,124.6,2.5,180,16.7c363.6,92.9,837.5,167.4,1280.9,213"/>
			<path class="st1" d="M-463.3,225.8c92.5,16.1,155,88.7,201.5,161.6c46.2,72.4,85.4,156.3,157,217.2c64.6,55,148.8,89,230.3,96.9
				c72.8,7.3,143.7-5,209.1-34.4c8.6-3.9,17-8,25.2-12.4c67.4-36.1,130.7-93.1,208.5-112c65.7-16,124.2-0.7,179.7,11.3
				c365,78.7,839.2,147.4,1281.6,197.8"/>
			<path class="st1" d="M-472.2,235.4c91.9,15.1,155,85.1,202.9,156.1c47.5,70.3,88,152.3,159.4,212.4
				c64.8,54.6,148.4,89.2,229.6,98.4c72.6,8.5,143.5-2.2,209.4-30.3c8.6-3.7,17.1-7.6,25.4-11.9c68-34.7,131.8-90.4,209.3-110.2
				c65.3-16.7,123.8-3.9,179.4,5.9c366.5,64.4,840.9,127.5,1282.2,182.7"/>
			<path class="st1" d="M-481,245c91.2,14.1,155.1,81.5,204.3,150.5C-228,463.8-186,543.8-115,603c65,54.1,148,89.4,228.9,99.9
				c72.3,9.7,143.3,0.5,209.7-26.1c8.7-3.5,17.2-7.3,25.6-11.4c68.5-33.2,132.9-87.7,210.1-108.4c65-17.4,123.4-7.1,179.1,0.5
				c368,50.2,842.7,107.6,1283,167.5"/>
			<path class="st1" d="M-489.8,254.6c90.6,13.1,155.1,78,205.7,145c50,66.3,93.4,144.4,164.1,202.6
				c65.2,53.7,147.6,89.6,228.2,101.4c72.1,10.8,143.1,3.3,210-22c8.7-3.3,17.3-6.9,25.8-10.8c69.1-31.8,134-85,210.9-106.6
				c64.6-18.2,123-10.3,178.8-4.9c369.4,35.8,844.4,87.7,1283.7,152.3"/>
			<path class="st1" d="M-498.6,264.2c90,12.1,155.2,74.4,207,139.4c51.3,64.3,96.1,140.4,166.5,197.8
				c65.4,53.3,147.2,89.8,227.5,102.9c71.9,12,143,6.1,210.3-17.9c8.8-3.1,17.5-6.6,26-10.3c69.7-30.4,135.1-82.2,211.7-104.8
				c64.2-18.9,122.6-13.5,178.4-10.3c370.9,21.5,846.2,67.7,1284.3,137.1"/>
			<path class="st1" d="M-507.4,273.8c89.3,11.1,155.3,70.8,208.4,133.8c52.5,62.3,98.8,136.4,168.8,192.9
				c65.6,52.9,146.8,90,226.9,104.4c71.7,13.2,142.8,8.8,210.6-13.7c8.9-3,17.6-6.2,26.2-9.8c70.2-29,136.2-79.5,212.5-103
				c63.9-19.6,122.2-16.7,178.1-15.7c372.4,7.1,847.9,47.8,1285.1,122"/>
			<path class="st1" d="M-516.3,283.4c88.7,10.1,155.3,67.2,209.8,128.3c53.8,60.3,101.5,132.5,171.2,188
				C-69.5,652.2,11.1,690,90.9,705.6c71.5,14.3,142.6,11.6,210.9-9.6c8.9-2.8,17.7-5.9,26.4-9.3C399,659.1,465.5,610,541.5,585.6
				c63.5-20.4,121.8-20,177.8-21.1c373.9-7.3,849.7,27.9,1285.8,106.8"/>
			<path class="st1" d="M-525.1,293c88.1,9.1,155.4,63.6,211.1,122.7c55,58.3,104.1,128.5,173.6,183.2c66,52,146,90.5,225.5,107.4
				c71.3,15.5,142.4,14.4,211.2-5.5c9-2.6,17.9-5.5,26.6-8.7c71.4-26.2,138.4-74.1,214.1-99.4c63.2-21.1,121.4-23.2,177.5-26.5
				c375.3-21.8,851.4,8,1286.5,91.6"/>
			<path class="st1" d="M-533.9,302.7c87.4,8.1,155.4,60,212.5,117.1c56.3,56.3,106.8,124.5,175.9,178.3
				C-79.2,649.6,0.2,688.7,79.3,707c71.1,16.7,142.3,17.1,211.5-1.3c9.1-2.4,18-5.2,26.8-8.2c72-24.8,139.5-71.3,214.9-97.6
				c62.8-21.8,121-26.4,177.2-31.9c376.8-36.3,853.1-12,1287.2,76.4"/>
			<path class="st1" d="M-542.7,312.3c86.8,7,155.5,56.4,213.9,111.6c57.5,54.3,109.5,120.5,178.3,173.4
				c66.4,51.1,145.3,90.9,224.1,110.5c70.9,17.8,142.1,19.9,211.8,2.8c9.1-2.2,18.1-4.8,27-7.7c72.6-23.4,140.6-68.6,215.7-95.7
				c62.4-22.6,120.5-29.7,176.8-37.3c378.2-50.8,854.9-31.9,1287.8,61.3"/>
			<path class="st1" d="M-551.5,321.9c86.2,6,155.5,52.8,215.3,106c58.8,52.3,112.2,116.5,180.6,168.6
				c66.7,50.7,144.9,91.1,223.4,112c70.7,19,141.9,22.7,212.1,6.9c9.2-2.1,18.2-4.5,27.2-7.1c73.1-22,141.6-65.9,216.5-93.9
				c62.1-23.3,120.1-32.9,176.5-42.6c379.6-65.4,856.6-51.8,1288.6,46.1"/>
			<path class="st1" d="M-560.4,331.5c85.5,5,155.6,49.3,216.6,100.4c60,50.3,114.9,112.6,183,163.7
				C-93.8,645.8-16.2,686.9,62,709.1c70.4,20.1,141.7,25.4,212.5,11c9.2-1.9,18.4-4.1,27.4-6.6c73.7-20.6,142.7-63.2,217.3-92.1
				c61.7-24,119.7-36.2,176.2-48c381-80,858.4-71.8,1289.2,30.9"/>
			<path class="st1" d="M-569.2,341.1c84.9,4,155.7,45.7,218,94.9c61.3,48.3,117.6,108.6,185.4,158.8
				c67.1,49.8,144.1,91.5,222.1,115C126.5,731.1,197.8,738,269,725c9.3-1.7,18.5-3.7,27.6-6.1c74.3-19.2,143.8-60.4,218.1-90.3
				c61.4-24.7,119.3-39.4,175.9-53.4c382.4-94.6,860.1-91.7,1289.9,15.7"/>
			<path class="st1" d="M-578,350.7c84.2,3,155.6,42.2,219.4,89.3c62.4,46.5,120.3,104.6,187.7,153.9
				c67.3,49.3,143.7,91.7,221.4,116.5c70,22.5,141.4,31,213.1,19.3c9.4-1.5,18.6-3.4,27.8-5.6c74.8-17.8,144.9-57.7,218.9-88.5
				c61-25.5,118.9-42.7,175.5-58.8c383.7-109.2,861.9-111.6,1290.7,0.6"/>
			<path class="st1" d="M-586.8,360.3c83.6,2,155.7,38.6,220.7,83.7c63.7,44.5,123,100.6,190.1,149.1
				c67.6,48.9,143.3,91.9,220.7,118c69.8,23.6,141.2,33.7,213.4,23.4c9.4-1.3,18.7-3,28-5c75.4-16.4,146.1-54.8,219.7-86.7
				c60.7-26.1,118.4-46,175.2-64.2c385-123.8,863.6-131.5,1291.3-14.6"/>
			<path class="st1" d="M-595.6,369.9c83,1,155.7,35.1,222.1,78.2c65,42.5,125.8,96.6,192.5,144.2c67.8,48.4,142.9,92.2,220,119.5
				c69.6,24.8,141,36.5,213.7,27.6c9.5-1.2,18.9-2.7,28.2-4.5c76-15,147.2-52.1,220.4-84.9c60.4-26.8,118-49.2,174.9-69.6
				c386.3-138.5,865.3-151.5,1292-29.8"/>
			<path class="st1" d="M-604.5,379.6c82.3,0,155.8,31.5,223.5,72.6c66.2,40.5,128.5,92.6,194.8,139.3c68,47.9,142.5,92.4,219.4,121
				c69.4,26,140.8,39.3,214,31.7c9.5-1,19-2.3,28.4-4c76.6-13.6,148.3-49.4,221.2-83.1c60-27.5,117.6-52.5,174.6-75
				c387.6-153.1,867.1-171.4,1292.8-45"/>
			<path class="st1" d="M-613.3,389.2c81.7-1,155.9,27.9,224.9,67c67.5,38.5,131.2,88.6,197.2,134.5
				c68.2,47.5,142.1,92.6,218.7,122.5c69.2,27.1,140.7,42,214.3,35.8c9.6-0.8,19.1-2,28.6-3.5c77.1-12.2,149.4-46.7,222-81.3
				c59.6-28.3,117.1-55.7,174.3-80.4c388.8-167.8,868.8-191.3,1293.4-60.1"/>
			<path class="st1" d="M-622.1,398.8c81.1-2,155.9,24.3,226.2,61.5c68.7,36.5,134,84.4,199.6,129.6c68.6,46.9,141.7,92.8,218,124
				c69,28.3,140.5,44.8,214.6,40c9.7-0.6,19.3-1.6,28.8-2.9c77.7-10.8,150.5-43.9,222.8-79.5c59.3-29,116.6-59.1,173.9-85.8
				c389.7-183.1,870.6-211.2,1294.1-75.3"/>
			<path class="st1" d="M-630.9,408.4c80.4-3,156,20.7,227.6,55.9c70,34.5,136.6,80.5,201.9,124.7c68.8,46.4,141.4,93,217.3,125.5
				c68.8,29.5,140.3,47.6,214.9,44.1c9.7-0.5,19.4-1.3,29-2.4c78.3-9.4,151.6-41.2,223.6-77.7c58.9-29.7,116.2-62.3,173.6-91.2
				c391.1-197.5,872.3-231.2,1294.9-90.5"/>
			<path class="st1" d="M-639.7,418c157.8-7.9,301.8,82.5,433.3,170.2C-75,675.9,67.4,767.9,225.4,763.5
				c155.3-4.3,290.2-100.6,426.9-174.4c392.4-211.8,874-251.1,1295.6-105.7"/>
		</g>
	</g>
</mask>
<g class="st2">
	<g>
		
			<linearGradient id="SVGID_00000144336536207306945460000010252591087736574352_" gradientUnits="userSpaceOnUse" x1="1546.2821" y1="583.4536" x2="-48.4423" y2="397.2773" gradientTransform="matrix(1 0 0 -1 0 968.7355)">
			<stop  offset="0" style="stop-color:#C52EA3"/>
			<stop  offset="0.9211" style="stop-color:#4749CA"/>
		</linearGradient>
		
			<rect style="opacity:0.6;fill:url(#SVGID_00000144336536207306945460000010252591087736574352_);enable-background:new    ;" width="1395.1" height="968.7"/>
	</g>
</g>
</svg>
