<?xml version="1.0" encoding="UTF-8"?><svg id="Layer_2" xmlns="http://www.w3.org/2000/svg" viewBox="0 0 883 706.5"><defs><style>.cls-1{fill:none;}.cls-2{fill:#f246cc;}.cls-3{fill:#6c6ff5;}.cls-4{fill:#260525;}</style></defs><g id="Layer_1-2"><path class="cls-1" d="m630.56,0v398.8H0v307.7h883V0h-252.44Zm-247.79,630.53l-23.87,11.09c-57.32,26.63-135.3,13.24-183.02-31.43-47.03-46.6-42.25-110.71,10.73-143.84l70.88-44.32c21.45-13.41,49.79-18.68,78.59-14.62,42.96,6.06,80,31.81,93.96,65.32l9.98,23.96c22.16,53.19-1.2,107.8-57.26,133.84Zm450.93-48.33l-13.13,24.07c-30.1,55.18-92.2,87.8-153.1,80.43l-47.77-5.79c-64.27-7.79-109.1-60.59-105.58-124.35,5.78-64.56,64.27-116.68,130.45-116.24l108.24.73c26.23.18,50.54,10.13,67.96,27.82,28.85,29.29,34.02,74.66,12.93,113.33Z"/><path class="cls-2" d="m430.04,472.73c-13.96-33.51-51-59.26-93.96-65.32-28.79-4.06-57.14,1.21-78.59,14.62l-70.88,44.32c-52.98,33.13-57.76,97.24-10.73,143.84,47.72,44.67,125.71,58.06,183.02,31.43l23.87-11.09c56.05-26.04,79.41-80.65,57.26-133.84l-9.98-23.96Z"/><path class="cls-3" d="m752.81,441.05l-108.24-.73c-66.18-.44-124.67,51.68-130.45,116.24-3.52,63.76,41.32,116.56,105.58,124.35l47.77,5.79c60.89,7.37,122.99-25.25,153.1-80.43l13.13-24.07c21.1-38.67,15.92-84.04-12.93-113.33-17.42-17.69-41.74-27.64-67.96-27.82Z"/><rect class="cls-4" width="630.56" height="398.8"/></g></svg>