<?xml version="1.0" encoding="UTF-8"?><svg id="Layer_2" xmlns="http://www.w3.org/2000/svg" viewBox="0 0 1327 396"><defs><style>.cls-1{fill:none;}.cls-2{opacity:.1;}.cls-3{fill:#c4c4c4;}</style></defs><g id="Layer_1-2"><g class="cls-2"><path class="cls-1" d="m0,0v244.26c.11.06.22.13.32.19.48.28.64.89.36,1.37-.15.26-.41.42-.69.47v149.71h810.09l-29.68-14.63c-1.92-.94-3.35-2.58-4.04-4.6-.69-2.02-.55-4.19.4-6.11l62.04-125.88c.94-1.92,2.58-3.35,4.6-4.04,2.02-.69,4.19-.55,6.11.4h0s125.88,62.03,125.88,62.03c1.92.94,3.35,2.58,4.04,4.6.69,2.02.55,4.19-.4,6.11l-40.47,82.12h112.55l-10.6-63.55c-.73-4.36,2.22-8.48,6.58-9.21l65.85-10.98c4.36-.73,8.48,2.22,9.21,6.57l10.98,65.85c.73,4.36-2.22,8.48-6.58,9.21l-12.69,2.12h213.14V0H0Zm176.45,130c.08.67.15,1.33.22,2,.06.55-.35,1.04-.9,1.1-.03,0-.07,0-.1,0-.51,0-.94-.38-.99-.9-.07-.66-.14-1.31-.21-1.96-.06-.55.33-1.05.88-1.11.55-.06,1.05.33,1.11.88Zm-2.78-10.72c.54-.11,1.07.24,1.18.78.13.66.26,1.31.39,1.97.1.54-.26,1.07-.8,1.17-.06.01-.12.02-.19.02-.47,0-.89-.33-.98-.82-.12-.65-.25-1.29-.38-1.94-.11-.54.24-1.07.78-1.18Zm-2.51-9.67c.53-.16,1.09.15,1.24.67.19.64.38,1.29.56,1.94.15.53-.16,1.08-.7,1.23-.09.02-.18.04-.27.04-.44,0-.84-.29-.96-.73-.18-.64-.36-1.27-.55-1.9-.16-.53.15-1.09.67-1.24ZM4,40.98c-.36,0-.71-.19-.88-.53-.26-.49-.07-1.09.42-1.35.59-.31,1.19-.62,1.79-.93.49-.25,1.09-.05,1.34.44.25.49.05,1.09-.44,1.34-.59.3-1.18.6-1.76.91-.15.08-.31.12-.47.12Zm5.58,209.41c-.17.36-.53.57-.91.57-.14,0-.29-.03-.43-.1-.61-.29-1.22-.58-1.82-.88-.5-.24-.7-.84-.46-1.34.24-.5.84-.7,1.34-.46.59.29,1.19.58,1.79.86.5.23.71.83.48,1.33Zm3.45-213.7c-.39,0-.76-.23-.92-.61-.22-.51.02-1.1.53-1.31.62-.26,1.24-.52,1.86-.77.51-.21,1.1.04,1.3.55.21.51-.04,1.1-.55,1.3-.61.25-1.22.5-1.83.76-.13.05-.26.08-.39.08Zm5.8,217.49c-.15.4-.53.65-.94.65-.12,0-.23-.02-.35-.06-.63-.23-1.26-.47-1.89-.72-.51-.2-.77-.78-.57-1.3.2-.51.78-.77,1.3-.57.61.24,1.23.48,1.85.71.52.19.78.77.59,1.29Zm3.56-221c-.42,0-.81-.27-.95-.69-.17-.52.11-1.09.64-1.26.64-.21,1.28-.41,1.92-.61.52-.16,1.09.13,1.25.66.16.53-.13,1.09-.66,1.25-.63.19-1.26.4-1.89.6-.1.03-.21.05-.31.05Zm5.98,223.99c-.12.44-.52.73-.96.73-.09,0-.18-.01-.27-.04-.65-.18-1.29-.37-1.94-.56-.53-.16-.83-.71-.68-1.24.16-.53.71-.83,1.24-.68.63.19,1.27.37,1.91.55.53.15.84.7.7,1.23Zm3.87-226.73c-.08.02-.15.03-.23.03-.45,0-.86-.31-.97-.77-.13-.54.21-1.08.74-1.2.65-.15,1.31-.3,1.96-.45.54-.12,1.07.22,1.19.76s-.22,1.07-.76,1.19c-.65.14-1.29.29-1.93.44Zm4.91,229.73c-.06,0-.12,0-.19-.02-.66-.12-1.32-.25-1.98-.39-.54-.11-.89-.64-.78-1.18.11-.54.64-.89,1.18-.78.65.13,1.3.26,1.94.39.54.1.9.63.8,1.17-.09.48-.51.81-.98.81Zm4.82-231.58s-.1.01-.15.01c-.49,0-.91-.36-.99-.85-.08-.55.3-1.05.84-1.13.66-.1,1.33-.19,1.99-.28.54-.08,1.05.31,1.12.86.07.55-.32,1.05-.86,1.12-.65.08-1.31.18-1.96.27Zm5.07,233.02s-.07,0-.1,0c-.67-.07-1.34-.14-2-.22-.55-.07-.94-.56-.87-1.11.07-.55.56-.94,1.11-.87.66.08,1.31.15,1.97.22.55.06.95.55.89,1.1-.05.51-.49.9-.99.9Zm4.77-234.04s-.04,0-.06,0c-.52,0-.97-.41-1-.94-.03-.55.39-1.02.94-1.06.67-.04,1.34-.08,2.01-.1.55-.02,1.02.4,1.04.96.02.55-.4,1.02-.96,1.04-.66.03-1.32.06-1.97.1Zm5.21,234.63h-.02c-.67-.01-1.34-.03-2.02-.05-.55-.02-.98-.48-.97-1.03.02-.55.49-.98,1.03-.97.66.02,1.32.04,1.98.05.55,0,.99.46.98,1.02,0,.55-.46.98-1,.98Zm6.68-234.74c-.66-.03-1.32-.05-1.98-.07-.55-.01-.99-.47-.97-1.03.01-.55.48-1.02,1.03-.97.67.02,1.34.04,2.02.07.55.02.98.49.96,1.04-.02.54-.47.96-1,.96-.01,0-.03,0-.04,0Zm3.38,234.47c-.67.05-1.34.09-2.01.12-.02,0-.04,0-.05,0-.53,0-.97-.41-1-.95-.03-.55.4-1.02.95-1.05.66-.03,1.32-.07,1.97-.12.55-.04,1.03.38,1.07.93.04.55-.38,1.03-.93,1.07Zm6.5-233.62c-.66-.08-1.31-.16-1.97-.24-.55-.06-.94-.56-.88-1.1.06-.55.56-.95,1.1-.88.67.07,1.33.15,2,.24.55.07.94.57.86,1.12-.06.5-.49.87-.99.87-.04,0-.09,0-.13,0Zm3.51,232.49c-.66.1-1.32.2-1.99.29-.05,0-.09,0-.14,0-.49,0-.92-.36-.99-.86-.08-.55.31-1.05.85-1.13.65-.09,1.31-.19,1.96-.29.54-.08,1.06.29,1.14.83.09.55-.29,1.06-.83,1.14Zm6.26-230.81c-.65-.14-1.29-.27-1.94-.4-.54-.11-.89-.63-.79-1.18s.64-.9,1.18-.79c.66.13,1.32.27,1.98.41.54.12.88.65.77,1.19-.1.47-.52.79-.98.79-.07,0-.14,0-.21-.02Zm3.62,228.83c-.65.16-1.3.31-1.96.46-.07.02-.15.02-.22.02-.46,0-.87-.31-.97-.78-.12-.54.21-1.07.75-1.2.64-.15,1.29-.3,1.93-.46.54-.13,1.08.2,1.21.73.13.54-.2,1.08-.73,1.21Zm5.17-227.62c-.13.44-.53.72-.96.72-.09,0-.18-.01-.28-.04-.63-.18-1.27-.36-1.91-.53-.53-.14-.85-.69-.71-1.22.14-.53.69-.85,1.22-.71.65.17,1.3.35,1.94.54.53.15.84.71.69,1.24Zm4.51,224.81c-.64.21-1.27.42-1.91.63-.1.03-.2.05-.31.05-.42,0-.82-.27-.95-.7-.17-.53.12-1.09.65-1.26.63-.2,1.26-.41,1.88-.62.52-.18,1.09.1,1.27.63.18.52-.1,1.09-.63,1.27Zm4.95-221.58c-.15.4-.53.65-.94.65-.12,0-.24-.02-.35-.07-.62-.23-1.24-.46-1.86-.69-.52-.19-.79-.76-.6-1.28.19-.52.76-.79,1.28-.6.63.23,1.26.46,1.89.7.52.2.78.77.58,1.29Zm4.45,217.95c-.62.27-1.23.53-1.85.79-.13.05-.26.08-.38.08-.39,0-.76-.23-.92-.62-.21-.51.03-1.1.54-1.31.61-.25,1.22-.51,1.82-.78.5-.22,1.09.01,1.32.52.22.51-.01,1.1-.52,1.32Zm4.7-213.93c-.17.36-.53.57-.9.57-.15,0-.29-.03-.43-.1-.59-.29-1.19-.57-1.79-.84-.5-.23-.72-.82-.49-1.33.23-.5.83-.72,1.33-.49.61.28,1.22.57,1.83.86.5.24.71.84.47,1.33Zm4.36,209.52c-.59.32-1.19.63-1.78.94-.15.08-.3.11-.46.11-.36,0-.71-.2-.89-.54-.25-.49-.06-1.09.43-1.35.59-.3,1.17-.61,1.75-.93.49-.26,1.09-.08,1.36.4.26.49.08,1.09-.4,1.36Zm4.42-204.73c-.19.32-.52.49-.86.49-.17,0-.35-.04-.51-.14-.57-.34-1.14-.67-1.72-1-.48-.27-.65-.88-.38-1.36.27-.48.88-.65,1.36-.38.59.33,1.17.67,1.75,1.02.48.28.63.89.35,1.37Zm4.24,199.57c-.56.37-1.13.73-1.7,1.09-.17.1-.35.15-.53.15-.33,0-.66-.17-.85-.47-.29-.47-.15-1.08.31-1.38.56-.35,1.12-.71,1.67-1.07.46-.3,1.08-.17,1.38.29.3.46.17,1.08-.29,1.38Zm4.1-194.04c-.2.27-.5.42-.82.42-.2,0-.4-.06-.58-.19-.54-.38-1.08-.77-1.63-1.14-.46-.31-.57-.94-.26-1.39.31-.45.93-.57,1.39-.26.56.38,1.11.77,1.66,1.16.45.32.55.95.23,1.4Zm4.09,188.16c-.53.42-1.06.83-1.6,1.23-.18.14-.39.2-.6.2-.3,0-.6-.14-.8-.4-.33-.44-.25-1.07.19-1.4.53-.4,1.05-.8,1.57-1.21.44-.34,1.06-.26,1.4.17.34.43.26,1.06-.17,1.4Zm3.74-181.94c-.2.23-.48.35-.76.35-.23,0-.46-.08-.65-.24-.5-.43-1.01-.85-1.52-1.28-.43-.35-.49-.98-.14-1.41.35-.43.98-.49,1.41-.14.52.43,1.04.86,1.55,1.3.42.36.47.99.11,1.41Zm3.92,175.38c-.49.46-.99.91-1.49,1.36-.19.17-.43.26-.67.26-.27,0-.55-.11-.74-.33-.37-.41-.34-1.04.08-1.41.49-.44.98-.89,1.46-1.34.4-.38,1.04-.35,1.41.05.38.4.35,1.04-.05,1.41Zm3.35-168.52c-.19.19-.45.29-.7.29s-.52-.1-.71-.3c-.47-.47-.94-.94-1.41-1.4-.39-.39-.4-1.02-.02-1.41.39-.39,1.02-.4,1.41-.02.48.47.96.95,1.43,1.42.39.39.38,1.03,0,1.41Zm3.73,161.33c-.45.5-.91,1-1.37,1.49-.2.21-.46.32-.73.32-.25,0-.49-.09-.68-.27-.4-.38-.42-1.01-.05-1.41.45-.48.9-.97,1.35-1.46.37-.41,1-.44,1.41-.07.41.37.44,1,.07,1.41Zm2.92-153.87c-.19.16-.41.23-.64.23-.29,0-.57-.12-.77-.36-.42-.51-.85-1.01-1.28-1.51-.36-.42-.31-1.05.1-1.41s1.05-.31,1.41.1c.44.51.88,1.02,1.31,1.54.35.42.3,1.05-.13,1.41Zm3.52,146.11c-.41.54-.82,1.07-1.24,1.6-.2.25-.49.38-.79.38-.22,0-.43-.07-.62-.21-.43-.34-.51-.97-.17-1.4.41-.52.82-1.04,1.22-1.57.33-.44.96-.53,1.4-.19.44.33.52.96.19,1.4Zm1.91-137.93c-.32,0-.63-.15-.82-.43-.38-.54-.76-1.08-1.15-1.62-.32-.45-.22-1.07.22-1.4.45-.32,1.07-.22,1.4.22.39.54.78,1.09,1.17,1.64.32.45.21,1.08-.25,1.39-.17.12-.37.18-.57.18Zm3.85,129.65c-.36.57-.73,1.14-1.1,1.7-.19.29-.51.45-.84.45-.19,0-.38-.05-.55-.16-.46-.3-.59-.92-.29-1.38.36-.55.72-1.11,1.08-1.67.3-.47.91-.61,1.38-.31.47.3.61.91.31,1.38Zm1.52-121.22c-.35,0-.68-.18-.87-.5-.33-.57-.67-1.14-1.01-1.71-.29-.47-.13-1.09.34-1.37.47-.29,1.09-.13,1.37.34.35.58.69,1.15,1.03,1.74.28.48.11,1.09-.36,1.37-.16.09-.33.13-.5.13Zm3.5,112.47c-.31.6-.62,1.19-.94,1.78-.18.33-.52.52-.88.52-.16,0-.32-.04-.48-.12-.49-.26-.67-.87-.4-1.36.31-.58.62-1.16.93-1.75.25-.49.86-.68,1.35-.43.49.25.68.86.43,1.35Zm.24-104.2c-.28-.6-.57-1.19-.86-1.79-.24-.5-.04-1.1.46-1.34.5-.25,1.09-.04,1.34.46.3.6.59,1.21.87,1.82.24.5.02,1.1-.48,1.33-.14.06-.28.1-.43.1-.38,0-.73-.21-.91-.57Zm4.02,95.06c-.26.62-.52,1.24-.79,1.86-.16.38-.53.6-.92.6-.13,0-.27-.03-.4-.08-.51-.22-.74-.81-.52-1.32.26-.6.52-1.21.77-1.82.21-.51.79-.75,1.31-.54.51.21.75.8.54,1.31Zm-.17-85.93c-.23-.62-.47-1.24-.71-1.85-.2-.51.05-1.09.57-1.3.52-.2,1.09.05,1.3.57.24.63.48,1.25.72,1.88.19.52-.07,1.09-.59,1.29-.11.04-.23.06-.35.06-.41,0-.79-.25-.94-.65Zm3.63,76.46c-.2.64-.41,1.28-.63,1.92-.14.42-.53.68-.95.68-.11,0-.21-.02-.32-.05-.52-.18-.8-.74-.63-1.27.21-.63.42-1.25.62-1.88.17-.53.73-.82,1.26-.65.53.17.82.73.65,1.26Zm2.65-9.72c-.15.65-.3,1.31-.47,1.96-.11.46-.52.76-.97.76-.08,0-.16,0-.24-.03-.54-.13-.86-.67-.73-1.21.16-.64.31-1.29.46-1.93.12-.54.66-.88,1.2-.75.54.12.88.66.75,1.2Zm1.53-7.92c-.08.49-.5.84-.99.84-.05,0-.1,0-.16-.01-.55-.09-.92-.6-.83-1.14.1-.65.2-1.31.29-1.96.08-.55.59-.93,1.13-.85.55.08.93.58.85,1.13-.09.67-.19,1.33-.3,2Zm1.15-10.02c-.04.53-.48.93-1,.93-.02,0-.05,0-.07,0-.55-.04-.97-.52-.93-1.07.05-.66.09-1.32.12-1.98.03-.55.5-.97,1.05-.94.55.03.97.5.94,1.05-.04.67-.08,1.34-.13,2.01Zm-.7-9.06h-.01c-.55,0-.99-.44-1-.99,0-.66-.02-1.32-.04-1.98-.02-.55.42-1.01.97-1.03.53-.05,1.01.42,1.03.97.02.67.04,1.34.05,2.01,0,.55-.43,1.01-.99,1.01Z"/><path class="cls-1" d="m978.49,308.09c-.6-1.77-1.86-3.2-3.53-4.03l-125.88-62.03c-.98-.48-2.03-.72-3.09-.72-.76,0-1.52.12-2.26.38-1.77.6-3.2,1.86-4.03,3.53l-62.04,125.88c-.83,1.68-.95,3.58-.35,5.35.6,1.77,1.86,3.2,3.53,4.03l31.5,15.52h125.1l40.69-82.56c.83-1.68.95-3.58.35-5.35Z"/><path class="cls-3" d="m979.43,307.77c-.69-2.02-2.12-3.66-4.04-4.6l-125.88-62.03h0c-1.92-.94-4.09-1.09-6.11-.4-2.02.69-3.66,2.12-4.6,4.04l-62.04,125.88c-.95,1.92-1.09,4.09-.4,6.11.69,2.02,2.12,3.66,4.04,4.6l29.68,14.63h2.26l-31.5-15.52c-1.68-.83-2.93-2.26-3.53-4.03-.6-1.77-.48-3.67.35-5.35l62.04-125.88c.83-1.68,2.26-2.93,4.03-3.53.74-.25,1.5-.38,2.26-.38,1.06,0,2.11.24,3.09.72l125.88,62.03c1.68.83,2.93,2.26,3.53,4.03s.48,3.67-.35,5.35l-40.69,82.56h1.11l40.47-82.12c.95-1.92,1.09-4.09.4-6.11Z"/><path class="cls-3" d="m1133.13,384.68l-10.98-65.85c-.73-4.36-4.85-7.3-9.21-6.57l-65.85,10.98c-4.36.73-7.3,4.85-6.58,9.21l10.6,63.55h62.75l12.69-2.12c4.36-.73,7.3-4.85,6.58-9.21Z"/><path class="cls-3" d="m119.15,41.86c-.58-.34-1.16-.68-1.75-1.02-.48-.27-1.09-.1-1.36.38-.27.48-.1,1.09.38,1.36.58.33,1.15.66,1.72,1,.16.09.34.14.51.14.34,0,.67-.18.86-.49.28-.48.12-1.09-.35-1.37Z"/><path class="cls-3" d="m110.25,37.11c-.61-.29-1.21-.58-1.83-.86-.5-.23-1.1-.01-1.33.49-.23.5-.01,1.1.49,1.33.6.28,1.2.56,1.79.84.14.07.29.1.43.1.37,0,.73-.21.9-.57.24-.5.03-1.1-.47-1.33Z"/><path class="cls-3" d="m122.64,241.13c-.55.36-1.11.72-1.67,1.07-.47.29-.61.91-.31,1.38.19.3.51.47.85.47.18,0,.37-.05.53-.15.57-.36,1.13-.72,1.7-1.09.46-.3.59-.92.29-1.38-.3-.46-.92-.59-1.38-.29Z"/><path class="cls-3" d="m114.13,246.2c-.58.31-1.17.62-1.75.93-.49.25-.68.86-.43,1.35.18.34.53.54.89.54.15,0,.31-.04.46-.11.6-.31,1.19-.62,1.78-.94.49-.26.67-.87.4-1.36-.26-.49-.87-.67-1.36-.4Z"/><path class="cls-3" d="m138.23,228.91c-.48.45-.97.9-1.46,1.34-.41.37-.44,1-.08,1.41.2.22.47.33.74.33.24,0,.48-.08.67-.26.5-.45,1-.9,1.49-1.36.4-.38.43-1.01.05-1.41-.38-.4-1.01-.43-1.41-.05Z"/><path class="cls-3" d="m57.02,260.2c-.66-.01-1.32-.03-1.98-.05-.55-.01-1.01.41-1.03.97-.02.55.41,1.01.97,1.03.67.02,1.34.04,2.02.05h.02c.54,0,.99-.44,1-.98,0-.55-.43-1.01-.98-1.02Z"/><path class="cls-3" d="m125.95,46.21c-.46-.31-1.08-.2-1.39.26-.31.46-.2,1.08.26,1.39.55.38,1.09.76,1.63,1.14.18.13.38.19.58.19.31,0,.62-.15.82-.42.32-.45.22-1.07-.23-1.4-.55-.39-1.1-.78-1.66-1.16Z"/><path class="cls-3" d="m105.22,250.54c-.61.26-1.21.52-1.82.78-.51.21-.75.8-.54,1.31.16.38.53.62.92.62.13,0,.26-.02.38-.08.62-.26,1.24-.52,1.85-.79.51-.22.74-.81.52-1.32-.22-.51-.81-.74-1.32-.52Z"/><path class="cls-3" d="m130.69,235.35c-.52.41-1.04.81-1.57,1.21-.44.33-.53.96-.19,1.4.2.26.5.4.8.4.21,0,.42-.07.6-.2.54-.41,1.07-.82,1.6-1.23.43-.34.51-.97.17-1.4-.34-.43-.97-.51-1.4-.17Z"/><path class="cls-3" d="m86.46,256.88c-.64.16-1.28.31-1.93.46-.54.12-.88.66-.75,1.2.11.46.52.78.97.78.07,0,.15,0,.22-.02.65-.15,1.31-.3,1.96-.46.54-.13.86-.67.73-1.21-.13-.54-.67-.86-1.21-.73Z"/><path class="cls-3" d="m76.76,258.82c-.65.1-1.3.2-1.96.29-.55.08-.93.58-.85,1.13.07.5.5.86.99.86.05,0,.09,0,.14,0,.66-.09,1.33-.19,1.99-.29.55-.08.92-.6.83-1.14-.08-.55-.6-.92-1.14-.83Z"/><path class="cls-3" d="m64.72,26.5c.02-.55-.4-1.02-.96-1.04-.67-.03-1.34-.05-2.02-.07-.55-.04-1.01.42-1.03.97-.01.55.42,1.01.97,1.03.66.02,1.32.04,1.98.07.01,0,.03,0,.04,0,.53,0,.98-.42,1-.96Z"/><path class="cls-3" d="m74.68,27.44c.07-.55-.32-1.05-.86-1.12-.67-.09-1.33-.17-2-.24-.55-.06-1.04.33-1.1.88-.06.55.33,1.04.88,1.1.66.07,1.31.15,1.97.24.04,0,.09,0,.13,0,.5,0,.93-.37.99-.87Z"/><path class="cls-3" d="m100.99,33.13c-.63-.24-1.26-.47-1.89-.7-.52-.19-1.09.08-1.28.6-.19.52.08,1.09.6,1.28.62.23,1.24.45,1.86.69.12.04.24.07.35.07.4,0,.78-.25.94-.65.2-.52-.06-1.09-.58-1.29Z"/><path class="cls-3" d="m66.92,259.93c-.66.05-1.31.09-1.97.12-.55.03-.98.5-.95,1.05.03.53.47.95,1,.95.02,0,.04,0,.05,0,.67-.03,1.34-.08,2.01-.12.55-.04.97-.52.93-1.07-.04-.55-.52-.96-1.07-.93Z"/><path class="cls-3" d="m84.51,29.22c.12-.54-.23-1.07-.77-1.19-.66-.14-1.32-.28-1.98-.41-.54-.11-1.07.25-1.18.79s.24,1.07.79,1.18c.65.13,1.29.26,1.94.4.07.02.14.02.21.02.46,0,.88-.32.98-.79Z"/><path class="cls-3" d="m95.97,254.11c-.63.21-1.25.42-1.88.62-.53.17-.82.73-.65,1.26.14.42.53.7.95.7.1,0,.2-.02.31-.05.64-.2,1.28-.41,1.91-.63.52-.18.8-.74.63-1.27-.18-.52-.75-.81-1.27-.63Z"/><path class="cls-3" d="m91.42,29.96c-.64-.18-1.29-.36-1.94-.54-.53-.14-1.08.17-1.22.71-.14.53.17,1.08.71,1.22.64.17,1.28.35,1.91.53.09.03.18.04.28.04.44,0,.83-.29.96-.72.15-.53-.16-1.08-.69-1.24Z"/><path class="cls-3" d="m134.01,52.28c-.43-.35-1.06-.29-1.41.14-.35.43-.29,1.06.14,1.41.51.42,1.02.85,1.52,1.28.19.16.42.24.65.24.28,0,.56-.12.76-.35.36-.42.31-1.05-.11-1.41-.51-.44-1.03-.87-1.55-1.3Z"/><path class="cls-3" d="m169.85,102.63c-.23-.63-.47-1.26-.72-1.88-.2-.51-.78-.77-1.3-.57-.51.2-.77.78-.57,1.3.24.61.48,1.23.71,1.85.15.4.53.65.94.65.12,0,.23-.02.35-.06.52-.19.78-.77.59-1.29Z"/><path class="cls-3" d="m174.46,130.23c.08.65.15,1.31.21,1.96.05.52.49.9.99.9.03,0,.07,0,.1,0,.55-.06.95-.55.9-1.1-.07-.67-.14-1.33-.22-2-.06-.55-.56-.94-1.11-.88-.55.06-.94.56-.88,1.11Z"/><path class="cls-3" d="m172.89,120.46c.13.65.26,1.29.38,1.94.09.48.51.82.98.82.06,0,.12,0,.19-.02.54-.1.9-.62.8-1.17-.12-.66-.25-1.32-.39-1.97-.11-.54-.64-.89-1.18-.78-.54.11-.89.64-.78,1.18Z"/><path class="cls-3" d="m141.52,59.02c-.4-.39-1.03-.38-1.41.02-.39.4-.38,1.03.02,1.41.47.46.94.93,1.41,1.4.2.2.45.3.71.3s.51-.1.7-.29c.39-.39.4-1.02,0-1.41-.47-.48-.95-.95-1.43-1.42Z"/><path class="cls-3" d="m171.03,112.75c.12.44.52.73.96.73.09,0,.18-.01.27-.04.53-.15.84-.7.7-1.23-.18-.65-.36-1.29-.56-1.94-.16-.53-.72-.83-1.24-.67-.53.16-.83.71-.67,1.24.19.63.37,1.27.55,1.9Z"/><path class="cls-3" d="m176.13,149.07c-.55-.03-1.02.39-1.05.94-.04.66-.08,1.32-.12,1.98-.04.55.38,1.03.93,1.07.02,0,.05,0,.07,0,.52,0,.96-.4,1-.93.05-.67.09-1.34.13-2.01.03-.55-.39-1.02-.94-1.05Z"/><path class="cls-3" d="m175.24,159.02c-.54-.08-1.05.3-1.13.85-.09.65-.19,1.31-.29,1.96-.09.55.29,1.06.83,1.14.05,0,.11.01.16.01.48,0,.91-.35.99-.84.11-.67.2-1.33.3-2,.08-.55-.3-1.05-.85-1.13Z"/><path class="cls-3" d="m176.16,139.07c-.55.02-.99.48-.97,1.03.02.66.04,1.32.04,1.98,0,.55.45.99,1,.99h.01c.55,0,.99-.46.99-1.01,0-.67-.02-1.34-.05-2.01-.02-.55-.5-1.01-1.03-.97Z"/><path class="cls-3" d="m173.51,168.87c-.54-.12-1.07.21-1.2.75-.15.64-.3,1.29-.46,1.93-.13.54.2,1.08.73,1.21.08.02.16.03.24.03.45,0,.86-.31.97-.76.16-.65.32-1.31.47-1.96.12-.54-.21-1.07-.75-1.2Z"/><path class="cls-3" d="m170.96,178.53c-.53-.17-1.09.12-1.26.65-.2.63-.41,1.26-.62,1.88-.18.52.1,1.09.63,1.27.11.04.21.05.32.05.42,0,.81-.26.95-.68.21-.64.42-1.27.63-1.92.17-.53-.12-1.09-.65-1.26Z"/><path class="cls-3" d="m151.53,214.21c-.4.53-.81,1.05-1.22,1.57-.34.43-.27,1.06.17,1.4.18.14.4.21.62.21.3,0,.59-.13.79-.38.42-.53.83-1.06,1.24-1.6.33-.44.25-1.07-.19-1.4-.44-.33-1.07-.25-1.4.19Z"/><path class="cls-3" d="m155.85,75.92c-.39-.55-.77-1.1-1.17-1.64-.32-.45-.95-.55-1.4-.22-.45.32-.55.95-.22,1.4.39.54.77,1.07,1.15,1.62.19.28.5.43.82.43.2,0,.4-.06.57-.18.45-.32.56-.94.25-1.39Z"/><path class="cls-3" d="m148.42,66.37c-.36-.42-.99-.46-1.41-.1s-.46.99-.1,1.41c.43.5.86,1,1.28,1.51.2.24.48.36.77.36.23,0,.45-.08.64-.23.42-.35.48-.98.13-1.41-.43-.52-.87-1.03-1.31-1.54Z"/><path class="cls-3" d="m145.19,221.85c-.44.49-.89.98-1.35,1.46-.38.4-.36,1.04.05,1.41.19.18.44.27.68.27.27,0,.53-.11.73-.32.46-.49.92-.99,1.37-1.49.37-.41.34-1.04-.07-1.41-.41-.37-1.04-.34-1.41.07Z"/><path class="cls-3" d="m158.57,205.76c-.47-.3-1.08-.16-1.38.31-.35.56-.71,1.12-1.08,1.67-.3.46-.18,1.08.29,1.38.17.11.36.16.55.16.33,0,.64-.16.84-.45.37-.56.74-1.13,1.1-1.7.29-.47.16-1.08-.31-1.38Z"/><path class="cls-3" d="m167.61,187.95c-.51-.21-1.1.03-1.31.54-.25.61-.51,1.22-.77,1.82-.22.51.01,1.1.52,1.32.13.06.27.08.4.08.39,0,.75-.22.92-.6.27-.62.53-1.23.79-1.86.21-.51-.03-1.1-.54-1.31Z"/><path class="cls-3" d="m165.95,93.35c-.29-.61-.58-1.21-.87-1.82-.24-.5-.84-.7-1.34-.46-.5.24-.7.84-.46,1.34.29.59.58,1.19.86,1.79.17.36.53.57.91.57.14,0,.29-.03.43-.1.5-.24.71-.83.48-1.33Z"/><path class="cls-3" d="m163.47,197.05c-.49-.25-1.09-.06-1.35.43-.3.59-.61,1.17-.93,1.75-.26.49-.08,1.09.4,1.36.15.08.31.12.48.12.36,0,.7-.19.88-.52.32-.59.63-1.19.94-1.78.25-.49.06-1.09-.43-1.35Z"/><path class="cls-3" d="m161.27,84.42c-.34-.58-.68-1.16-1.03-1.74-.28-.47-.9-.63-1.37-.34-.47.28-.63.9-.34,1.37.34.57.68,1.13,1.01,1.71.19.32.52.5.87.5.17,0,.34-.04.5-.13.48-.28.64-.89.36-1.37Z"/><path class="cls-3" d="m54.73,26.42c-.02-.55-.49-.98-1.04-.96-.67.03-1.34.06-2.01.1-.55.03-.97.51-.94,1.06.03.53.47.94,1,.94.02,0,.04,0,.06,0,.66-.04,1.32-.07,1.97-.1.55-.02.98-.49.96-1.04Z"/><path class="cls-3" d="m25.24,31.27c-.16-.53-.73-.82-1.25-.66-.64.2-1.28.4-1.92.61-.52.17-.81.74-.64,1.26.14.42.53.69.95.69.1,0,.21-.02.31-.05.63-.21,1.26-.41,1.89-.6.53-.16.82-.72.66-1.25Z"/><path class="cls-3" d="m27.67,255.94c-.64-.18-1.27-.36-1.91-.55-.53-.15-1.09.15-1.24.68-.16.53.15,1.09.68,1.24.64.19,1.29.38,1.94.56.09.02.18.04.27.04.44,0,.84-.29.96-.73.15-.53-.16-1.08-.7-1.23Z"/><path class="cls-3" d="m34.92,28.82c-.12-.54-.65-.88-1.19-.76-.66.14-1.31.29-1.96.45-.54.13-.87.66-.74,1.2.11.46.52.77.97.77.08,0,.15,0,.23-.03.64-.15,1.29-.3,1.93-.44.54-.12.88-.65.76-1.19Z"/><path class="cls-3" d="m18.24,252.89c-.62-.23-1.24-.46-1.85-.71-.52-.2-1.09.05-1.3.57-.2.51.05,1.09.57,1.3.63.24,1.25.48,1.89.72.11.04.23.06.35.06.41,0,.79-.25.94-.65.19-.52-.07-1.09-.59-1.29Z"/><path class="cls-3" d="m37.32,258.19c-.65-.12-1.3-.25-1.94-.39-.54-.11-1.07.24-1.18.78-.11.54.24,1.07.78,1.18.66.14,1.32.27,1.98.39.06.01.12.02.19.02.47,0,.89-.33.98-.81.1-.54-.25-1.07-.8-1.17Z"/><path class="cls-3" d="m15.8,34.54c-.21-.51-.79-.76-1.3-.55-.62.25-1.24.51-1.86.77-.51.22-.75.8-.53,1.31.16.38.53.61.92.61.13,0,.26-.03.39-.08.61-.26,1.22-.51,1.83-.76.51-.21.76-.79.55-1.3Z"/><path class="cls-3" d="m47.13,259.61c-.66-.07-1.31-.14-1.97-.22-.55-.06-1.05.33-1.11.87-.07.55.33,1.05.87,1.11.67.08,1.34.15,2,.22.03,0,.07,0,.1,0,.51,0,.94-.38.99-.9.06-.55-.34-1.04-.89-1.1Z"/><path class="cls-3" d="m44.77,27.19c-.07-.55-.58-.94-1.12-.86-.67.09-1.33.18-1.99.28-.55.08-.92.59-.84,1.13.07.5.5.85.99.85.05,0,.1,0,.15-.01.65-.1,1.3-.19,1.96-.27.55-.07.93-.57.86-1.12Z"/><path class="cls-3" d="m9.1,249.05c-.6-.28-1.19-.57-1.79-.86-.49-.25-1.09-.04-1.34.46-.24.5-.04,1.09.46,1.34.6.3,1.21.59,1.82.88.14.06.28.1.43.1.38,0,.73-.21.91-.57.24-.5.02-1.1-.48-1.33Z"/><path class="cls-3" d="m6.67,38.61c-.25-.49-.85-.69-1.34-.44-.6.3-1.2.61-1.79.93-.49.26-.67.86-.42,1.35.18.34.53.53.88.53.16,0,.32-.04.47-.12.58-.31,1.17-.61,1.76-.91.49-.25.69-.85.44-1.34Z"/><path class="cls-3" d="m.69,245.82c.28-.48.11-1.09-.36-1.37-.11-.06-.22-.13-.32-.19v2.03c.28-.05.53-.21.69-.47Z"/></g></g></svg>