<?xml version="1.0" encoding="UTF-8"?><svg id="Layer_2" xmlns="http://www.w3.org/2000/svg" viewBox="0 0 940.56 708.18"><defs><style>.cls-1{fill:#f0336c;}.cls-2{fill:#f246cc;}.cls-3{fill:#fdfdfd;}.cls-4{fill:#6c6ff5;}.cls-5{fill:#260525;}.cls-5,.cls-6{opacity:.6;}.cls-6{fill:#26087c;}</style></defs><g id="Layer_1-2"><path class="cls-2" d="m114.61,198.41l70.88-44.32c21.45-13.41,49.79-18.69,78.59-14.63,42.96,6.06,80,31.81,93.96,65.32l9.98,23.96c22.16,53.19-1.2,107.8-57.26,133.84l-23.87,11.09c-57.32,26.63-135.3,13.24-183.02-31.43-47.03-46.6-42.25-110.71,10.73-143.84Z"/><path class="cls-3" d="m415.05,362.4l129.27,3.12c19.87.48,38.44,7.4,52.8,19.68,30.43,26.03,36.2,70.76,13.85,107.42l-9.34,15.32c-24.83,40.74-72.03,64.15-118.09,58.56l-83.69-10.14c-52.7-6.38-89.97-48.96-88.57-101.18,3.49-51.86,50.7-94.08,103.77-92.8Z"/><path class="cls-4" d="m288.57,0l108.24.73c26.23.18,50.54,10.13,67.96,27.82,28.85,29.29,34.02,74.66,12.93,113.33l-13.13,24.07c-30.1,55.18-92.2,87.8-153.1,80.42l-47.77-5.79c-64.27-7.79-109.1-60.59-105.58-124.35C163.9,51.68,222.39-.44,288.57,0Z"/><path class="cls-1" d="m620.6,250.73l173.43,4.19c26.65.64,51.57,9.93,70.83,26.41,40.83,34.92,48.56,94.93,18.58,144.11l-12.53,20.56c-33.31,54.66-96.62,86.05-158.42,78.56l-112.28-13.6c-70.69-8.57-120.69-65.68-118.81-135.74,4.68-69.57,68.01-126.21,139.21-124.49Z"/><path class="cls-6" d="m0,98.55h940.56v609.3H0V98.55Z"/><path class="cls-5" d="m0,98.88h940.56v609.3H0V98.88Z"/></g></svg>