<svg width="2476" height="2161" viewBox="0 0 2476 2161" fill="none" xmlns="http://www.w3.org/2000/svg">
<g opacity="0.6" filter="url(#filter0_f_1240_48701)">
<g style="mix-blend-mode:soft-light">
<path d="M755.387 869.782L851.484 809.697C880.564 791.515 918.996 784.363 958.035 789.868C1016.28 798.082 1066.5 832.997 1085.43 878.433L1098.96 910.913C1129 983.028 1097.33 1057.07 1021.33 1092.37L988.976 1107.41C911.267 1143.51 805.543 1125.35 740.837 1064.8C677.073 1001.62 683.558 914.693 755.387 869.782Z" fill="#F246CC"/>
</g>
<g style="mix-blend-mode:soft-light">
<path d="M1162.72 1092.13L1337.99 1096.36C1364.93 1097.01 1390.11 1106.4 1409.58 1123.05C1450.84 1158.34 1458.66 1218.98 1428.36 1268.69L1415.7 1289.47C1382.03 1344.7 1318.04 1376.43 1255.59 1368.87L1142.12 1355.12C1070.67 1346.46 1020.14 1288.74 1022.04 1217.94C1026.76 1147.63 1090.77 1090.39 1162.72 1092.13Z" fill="#FDFDFD"/>
</g>
<g style="mix-blend-mode:soft-light">
<path d="M991.24 600.788L1137.99 601.775C1173.55 602.014 1206.51 615.507 1230.13 639.491C1269.24 679.204 1276.26 740.716 1247.66 793.148L1229.86 825.782C1189.04 900.592 1104.85 944.823 1022.29 934.82L957.526 926.973C870.391 916.415 809.609 844.828 814.377 758.376C822.212 670.848 901.519 600.185 991.24 600.788Z" fill="#6C6FF5"/>
</g>
<g style="mix-blend-mode:soft-light">
<path d="M1441.4 940.728L1676.53 946.405C1712.66 947.277 1746.45 959.874 1772.56 982.209C1827.91 1029.55 1838.4 1110.91 1797.76 1177.59L1780.77 1205.46C1735.6 1279.56 1649.77 1322.13 1565.98 1311.98L1413.76 1293.53C1317.91 1281.92 1250.13 1204.48 1252.67 1109.51C1259.01 1015.18 1344.87 938.398 1441.4 940.728Z" fill="#F0336C"/>
</g>
<g style="mix-blend-mode:overlay">
<path d="M600 734.404L1875.2 734.404V1560.49H600L600 734.404Z" fill="#26087C"/>
</g>
<g style="mix-blend-mode:overlay" opacity="0.8">
<path d="M600 734.404L1875.2 734.404V1560.49H600L600 734.404Z" fill="#260525"/>
</g>
</g>
<defs>
<filter id="filter0_f_1240_48701" x="0" y="0.784363" width="2475.2" height="2159.7" filterUnits="userSpaceOnUse" color-interpolation-filters="sRGB">
<feFlood flood-opacity="0" result="BackgroundImageFix"/>
<feBlend mode="normal" in="SourceGraphic" in2="BackgroundImageFix" result="shape"/>
<feGaussianBlur stdDeviation="300" result="effect1_foregroundBlur_1240_48701"/>
</filter>
</defs>
</svg>
