<?xml version="1.0" encoding="utf-8"?>
<!-- Generator: Adobe Illustrator 27.4.1, SVG Export Plug-In . SVG Version: 6.00 Build 0)  -->
<svg version="1.1" id="Layer_1" xmlns="http://www.w3.org/2000/svg" xmlns:xlink="http://www.w3.org/1999/xlink" x="0px" y="0px"
	 viewBox="0 0 1920 844.4" style="enable-background:new 0 0 1920 844.4;" xml:space="preserve">
<style type="text/css">
	.st0{fill:none;filter:url(#Adobe_OpacityMaskFilter);stroke:url(#SVGID_1_);stroke-width:0.25;stroke-miterlimit:10;}
	.st1{fill:none;stroke:url(#SVGID_00000170960454083801901390000008138942709855520190_);stroke-width:0.25;stroke-miterlimit:10;}
	.st2{fill:none;stroke:url(#SVGID_00000150060514884483784090000001411842862650270614_);stroke-width:0.25;stroke-miterlimit:10;}
	.st3{fill:none;stroke:url(#SVGID_00000156566337315484146410000001884371345617842308_);stroke-width:0.25;stroke-miterlimit:10;}
	.st4{fill:none;stroke:url(#SVGID_00000108295427788507539710000011537355801860039065_);stroke-width:0.25;stroke-miterlimit:10;}
	.st5{fill:none;stroke:url(#SVGID_00000177466479316093192420000011739972957706709695_);stroke-width:0.25;stroke-miterlimit:10;}
	.st6{fill:none;stroke:url(#SVGID_00000127747640030953524830000009140028322722351233_);stroke-width:0.25;stroke-miterlimit:10;}
	.st7{fill:none;stroke:url(#SVGID_00000165233110523046849880000013189721858085363587_);stroke-width:0.25;stroke-miterlimit:10;}
	.st8{fill:none;stroke:url(#SVGID_00000149374781353917448870000017012679562378371754_);stroke-width:0.25;stroke-miterlimit:10;}
	.st9{fill:none;stroke:url(#SVGID_00000072981145083089528850000002294126921566029229_);stroke-width:0.25;stroke-miterlimit:10;}
	.st10{fill:none;stroke:url(#SVGID_00000148662305869007498550000002870396475227168152_);stroke-width:0.25;stroke-miterlimit:10;}
	.st11{fill:none;stroke:url(#SVGID_00000064316969889204533580000001588721750854250912_);stroke-width:0.25;stroke-miterlimit:10;}
	.st12{fill:none;stroke:url(#SVGID_00000051371125289522388680000001265907729752031399_);stroke-width:0.25;stroke-miterlimit:10;}
	.st13{fill:none;stroke:url(#SVGID_00000054258102018102339810000000347217802722659968_);stroke-width:0.25;stroke-miterlimit:10;}
	.st14{fill:none;stroke:url(#SVGID_00000003783140462688128080000013095957620409784243_);stroke-width:0.25;stroke-miterlimit:10;}
	.st15{fill:none;stroke:url(#SVGID_00000179625897233111006570000005734751700620915128_);stroke-width:0.25;stroke-miterlimit:10;}
	.st16{fill:none;stroke:url(#SVGID_00000096760559325384290630000008559427040702807448_);stroke-width:0.25;stroke-miterlimit:10;}
	.st17{fill:none;stroke:url(#SVGID_00000009581499819920195830000007578447882778499739_);stroke-width:0.25;stroke-miterlimit:10;}
	.st18{fill:none;stroke:url(#SVGID_00000077296442249887390020000002075018011109714851_);stroke-width:0.25;stroke-miterlimit:10;}
	.st19{fill:none;stroke:url(#SVGID_00000016047293329681376760000001586034782791185340_);stroke-width:0.25;stroke-miterlimit:10;}
	.st20{fill:none;stroke:url(#SVGID_00000068644535786143762300000003556850175430593680_);stroke-width:0.25;stroke-miterlimit:10;}
	.st21{fill:none;stroke:url(#SVGID_00000183968114576399610320000007963670838955062185_);stroke-width:0.25;stroke-miterlimit:10;}
	.st22{fill:none;stroke:url(#SVGID_00000021826400056815256640000013823613303196499875_);stroke-width:0.25;stroke-miterlimit:10;}
	.st23{fill:none;stroke:url(#SVGID_00000124157079924938313480000001057210741074509444_);stroke-width:0.25;stroke-miterlimit:10;}
	.st24{fill:none;stroke:url(#SVGID_00000041290006701409828390000013525916260992155284_);stroke-width:0.25;stroke-miterlimit:10;}
	.st25{fill:none;stroke:url(#SVGID_00000129928549675429132600000008573758001365521589_);stroke-width:0.25;stroke-miterlimit:10;}
	.st26{fill:none;stroke:url(#SVGID_00000058551514872255197950000004535228116650878339_);stroke-width:0.25;stroke-miterlimit:10;}
	.st27{fill:none;stroke:url(#SVGID_00000098924352649845284650000013784911515962961795_);stroke-width:0.25;stroke-miterlimit:10;}
	.st28{fill:none;stroke:url(#SVGID_00000178895073092944249120000018234329112322022332_);stroke-width:0.25;stroke-miterlimit:10;}
	.st29{fill:none;stroke:url(#SVGID_00000137122746494435471040000017153623398014092445_);stroke-width:0.25;stroke-miterlimit:10;}
	.st30{fill:none;stroke:url(#SVGID_00000038393094936109414800000002628629214349155508_);stroke-width:0.25;stroke-miterlimit:10;}
	.st31{fill:none;stroke:url(#SVGID_00000183220946537362417620000008114951620124087175_);stroke-width:0.25;stroke-miterlimit:10;}
	.st32{fill:none;stroke:url(#SVGID_00000109026169590117143950000016166487881749953187_);stroke-width:0.25;stroke-miterlimit:10;}
	.st33{fill:none;stroke:url(#SVGID_00000037667230224404066290000006006986267117856437_);stroke-width:0.25;stroke-miterlimit:10;}
	.st34{fill:none;stroke:url(#SVGID_00000013165303415107410970000013726767425954218631_);stroke-width:0.25;stroke-miterlimit:10;}
	.st35{fill:none;stroke:url(#SVGID_00000134231258050528813050000011748446419732040116_);stroke-width:0.25;stroke-miterlimit:10;}
	.st36{fill:none;stroke:url(#SVGID_00000078739630882953186200000003853518836926167432_);stroke-width:0.25;stroke-miterlimit:10;}
	.st37{fill:none;stroke:url(#SVGID_00000143578666653110796190000007145388370410956465_);stroke-width:0.25;stroke-miterlimit:10;}
	.st38{fill:none;stroke:url(#SVGID_00000039107144247788711930000009779050337554576776_);stroke-width:0.25;stroke-miterlimit:10;}
	.st39{fill:none;stroke:url(#SVGID_00000138562613651158630670000018120710881317457046_);stroke-width:0.25;stroke-miterlimit:10;}
	.st40{fill:none;stroke:url(#SVGID_00000086678015272954086850000005833340400836344239_);stroke-width:0.25;stroke-miterlimit:10;}
	.st41{fill:none;stroke:url(#SVGID_00000121273359288679562930000002292121222770732446_);stroke-width:0.25;stroke-miterlimit:10;}
	.st42{fill:none;stroke:url(#SVGID_00000036968344400653205530000005345115108673255334_);stroke-width:0.25;stroke-miterlimit:10;}
	.st43{fill:none;stroke:url(#SVGID_00000052062124200181124600000008341458343749693828_);stroke-width:0.25;stroke-miterlimit:10;}
	.st44{fill:none;stroke:url(#SVGID_00000163764064144196854030000001221930601307609264_);stroke-width:0.25;stroke-miterlimit:10;}
	.st45{fill:none;stroke:url(#SVGID_00000165949252168361710350000005242274343128529795_);stroke-width:0.25;stroke-miterlimit:10;}
	.st46{fill:none;stroke:url(#SVGID_00000065794687653678359550000004311839797085756606_);stroke-width:0.25;stroke-miterlimit:10;}
	.st47{fill:none;stroke:url(#SVGID_00000153677433749402575640000006608656589481074567_);stroke-width:0.25;stroke-miterlimit:10;}
	.st48{fill:none;stroke:url(#SVGID_00000124864265610340976180000009309498548424780681_);stroke-width:0.25;stroke-miterlimit:10;}
	.st49{fill:none;stroke:url(#SVGID_00000070096120184722327800000008837163251006053001_);stroke-width:0.25;stroke-miterlimit:10;}
	.st50{fill:none;stroke:url(#SVGID_00000003069899976956098400000007171602209895516590_);stroke-width:0.25;stroke-miterlimit:10;}
	.st51{mask:url(#mask0_1323_81501_00000158743311466976532490000015324572142292970644_);}
	.st52{fill:url(#SVGID_00000105414361323025212230000007631089735065139120_);}
</style>
<defs>
	<filter id="Adobe_OpacityMaskFilter" filterUnits="userSpaceOnUse" x="0" y="0" width="1920" height="844.4">
		<feColorMatrix  type="matrix" values="1 0 0 0 0  0 1 0 0 0  0 0 1 0 0  0 0 0 1 0"/>
	</filter>
</defs>
<mask maskUnits="userSpaceOnUse" x="0" y="0" width="1920" height="844.4" id="mask0_1323_81501_00000158743311466976532490000015324572142292970644_">
	
		<linearGradient id="SVGID_1_" gradientUnits="userSpaceOnUse" x1="-1229.4963" y1="483.2847" x2="1951.774" y2="483.2847" gradientTransform="matrix(1 0 0 -1 0 1018.4385)">
		<stop  offset="4.000000e-02" style="stop-color:#4191AC"/>
		<stop  offset="0.57" style="stop-color:#8E8CC1"/>
		<stop  offset="1" style="stop-color:#2552A1"/>
	</linearGradient>
	<path class="st0" d="M-1229.4,877c0,0,445.8,293.6,920.3,63.1C19.1,780.7,256.3-44.5,417.2,49.3S456.7,635.6,812,618.9
		c355.3-16.7,295.2-189.3,603.6-173.5c199.2,10.2,402,83,536.1,5.9"/>
	
		<linearGradient id="SVGID_00000101082582220936775480000001222607793278554294_" gradientUnits="userSpaceOnUse" x1="-1231.2217" y1="490.8997" x2="1952.7373" y2="490.8997" gradientTransform="matrix(1 0 0 -1 0 1018.4385)">
		<stop  offset="4.000000e-02" style="stop-color:#4191AC"/>
		<stop  offset="0.57" style="stop-color:#8E8CC1"/>
		<stop  offset="1" style="stop-color:#2552A1"/>
	</linearGradient>
	
		<path style="fill:none;stroke:url(#SVGID_00000101082582220936775480000001222607793278554294_);stroke-width:0.25;stroke-miterlimit:10;" d="
		M-1231.2,850.5c0,0,437.2,290.1,904.9,67.4C-2.6,763.8,228.8-30.7,394.4,60.3C560,151.3,445,629.2,793,612.9
		c348-16.2,311.2-192,616.2-176.3c200,10.4,402.1,102,543.5,29.2"/>
	
		<linearGradient id="SVGID_00000043425738578611677710000003215863300921123737_" gradientUnits="userSpaceOnUse" x1="-1232.9974" y1="498.525" x2="1953.5974" y2="498.525" gradientTransform="matrix(1 0 0 -1 0 1018.4385)">
		<stop  offset="4.000000e-02" style="stop-color:#4191AC"/>
		<stop  offset="0.57" style="stop-color:#8E8CC1"/>
		<stop  offset="1" style="stop-color:#2552A1"/>
	</linearGradient>
	
		<path style="fill:none;stroke:url(#SVGID_00000043425738578611677710000003215863300921123737_);stroke-width:0.25;stroke-miterlimit:10;" d="
		M-1232.9,824.1c0,0,428.5,286.6,889.4,71.6C-24.2,747,201.2-17,371.6,71.3c170.3,88.2,61.8,551.5,402.4,535.8
		c340.6-15.7,327.2-194.6,628.7-179.1c200.9,10.5,402.1,121.1,550.9,52.6"/>
	
		<linearGradient id="SVGID_00000111891965280567550500000002719545862408389263_" gradientUnits="userSpaceOnUse" x1="-1234.7241" y1="506.0674" x2="1954.5997" y2="506.0674" gradientTransform="matrix(1 0 0 -1 0 1018.4385)">
		<stop  offset="4.000000e-02" style="stop-color:#4191AC"/>
		<stop  offset="0.57" style="stop-color:#8E8CC1"/>
		<stop  offset="1" style="stop-color:#2552A1"/>
	</linearGradient>
	
		<path style="fill:none;stroke:url(#SVGID_00000111891965280567550500000002719545862408389263_);stroke-width:0.25;stroke-miterlimit:10;" d="
		M-1234.7,797.6c0,0,419.8,283.1,874.1,76C-45.9,730.2,173.8-3.1,348.8,82.3c175,85.4,73,534.1,406.2,519
		c333.2-15.2,343.2-197.3,641.2-181.8c201.8,10.6,402.2,140.1,558.4,76"/>
	
		<linearGradient id="SVGID_00000176732687659543906340000013508033205374048416_" gradientUnits="userSpaceOnUse" x1="-1236.4496" y1="513.6536" x2="1955.4604" y2="513.6536" gradientTransform="matrix(1 0 0 -1 0 1018.4385)">
		<stop  offset="4.000000e-02" style="stop-color:#4191AC"/>
		<stop  offset="0.57" style="stop-color:#8E8CC1"/>
		<stop  offset="1" style="stop-color:#2552A1"/>
	</linearGradient>
	
		<path style="fill:none;stroke:url(#SVGID_00000176732687659543906340000013508033205374048416_);stroke-width:0.25;stroke-miterlimit:10;" d="
		M-1236.4,771.1c0,0,411.1,279.6,858.6,80.2c310.3-138,524-840.7,703.7-758.1c179.7,82.6,84.1,516.7,409.9,502.1
		c325.8-14.6,359.3-200,653.8-184.6c202.7,10.7,402.2,159.2,565.8,99.3"/>
	
		<linearGradient id="SVGID_00000011017852287523150190000017110695717284385164_" gradientUnits="userSpaceOnUse" x1="-1238.2253" y1="521.179" x2="1956.4246" y2="521.179" gradientTransform="matrix(1 0 0 -1 0 1018.4385)">
		<stop  offset="4.000000e-02" style="stop-color:#4191AC"/>
		<stop  offset="0.57" style="stop-color:#8E8CC1"/>
		<stop  offset="1" style="stop-color:#2552A1"/>
	</linearGradient>
	
		<path style="fill:none;stroke:url(#SVGID_00000011017852287523150190000017110695717284385164_);stroke-width:0.25;stroke-miterlimit:10;" d="
		M-1238.2,744.7c0,0,402.4,276.1,843.3,84.5c305.7-132.7,513.7-804.8,698.1-725c184.4,79.8,95.2,499.3,413.7,485.2
		c318.5-14.1,375.3-202.7,666.3-187.4c203.6,10.9,402.3,178.3,573.2,122.6"/>
	
		<linearGradient id="SVGID_00000099645979086818104330000008186480229395073942_" gradientUnits="userSpaceOnUse" x1="-1239.9508" y1="528.7208" x2="1957.3759" y2="528.7208" gradientTransform="matrix(1 0 0 -1 0 1018.4385)">
		<stop  offset="4.000000e-02" style="stop-color:#4191AC"/>
		<stop  offset="0.57" style="stop-color:#8E8CC1"/>
		<stop  offset="1" style="stop-color:#2552A1"/>
	</linearGradient>
	
		<path style="fill:none;stroke:url(#SVGID_00000099645979086818104330000008186480229395073942_);stroke-width:0.25;stroke-miterlimit:10;" d="
		M-1239.9,718.2c0,0,393.7,272.6,827.8,88.7C-110.8,679.7,91.3,38.2,280.3,115.1c189.1,77,106.4,481.9,417.5,468.4
		c311.1-13.5,391.3-205.4,678.9-190.2c204.4,11,402.3,197.3,580.6,146"/>
	
		<linearGradient id="SVGID_00000150787811464319924440000012774715922241316021_" gradientUnits="userSpaceOnUse" x1="-1241.7267" y1="536.2095" x2="1958.2369" y2="536.2095" gradientTransform="matrix(1 0 0 -1 0 1018.4385)">
		<stop  offset="4.000000e-02" style="stop-color:#4191AC"/>
		<stop  offset="0.57" style="stop-color:#8E8CC1"/>
		<stop  offset="1" style="stop-color:#2552A1"/>
	</linearGradient>
	
		<path style="fill:none;stroke:url(#SVGID_00000150787811464319924440000012774715922241316021_);stroke-width:0.25;stroke-miterlimit:10;" d="
		M-1241.7,691.8c0,0,385.1,269.1,812.4,93c296.8-122,493-732.8,686.7-658.7C451.2,200.2,375,590.6,678.7,577.6
		c303.7-13,407.3-208,691.4-192.9c205.3,11.1,402.4,216.4,588.1,169.3"/>
	
		<linearGradient id="SVGID_00000116952389213569089530000005390048792070306947_" gradientUnits="userSpaceOnUse" x1="-1243.4521" y1="543.7012" x2="1959.2534" y2="543.7012" gradientTransform="matrix(1 0 0 -1 0 1018.4385)">
		<stop  offset="4.000000e-02" style="stop-color:#4191AC"/>
		<stop  offset="0.57" style="stop-color:#8E8CC1"/>
		<stop  offset="1" style="stop-color:#2552A1"/>
	</linearGradient>
	
		<path style="fill:none;stroke:url(#SVGID_00000116952389213569089530000005390048792070306947_);stroke-width:0.25;stroke-miterlimit:10;" d="
		M-1243.4,665.3c0,0,376.3,265.6,797,97.3C-154.1,646,36.2,65.7,234.7,137.1c198.4,71.3,128.7,447.1,425,434.6
		C956.1,559.2,1083.1,361,1363.7,376c206.2,11.2,402.4,235.5,595.5,192.7"/>
	
		<linearGradient id="SVGID_00000089569205743739737160000012348653689927920002_" gradientUnits="userSpaceOnUse" x1="-1245.2307" y1="551.1359" x2="1960.1022" y2="551.1359" gradientTransform="matrix(1 0 0 -1 0 1018.4385)">
		<stop  offset="4.000000e-02" style="stop-color:#4191AC"/>
		<stop  offset="0.57" style="stop-color:#8E8CC1"/>
		<stop  offset="1" style="stop-color:#2552A1"/>
	</linearGradient>
	
		<path style="fill:none;stroke:url(#SVGID_00000089569205743739737160000012348653689927920002_);stroke-width:0.25;stroke-miterlimit:10;" d="
		M-1245.2,638.9c0,0,367.7,262.1,781.6,101.5C-175.7,629.1,8.7,79.5,211.8,148C415,216.5,351.7,577.7,640.7,565.8
		c289-11.9,439.4-213.4,716.5-198.5c207.1,11.4,402.5,254.5,602.9,216"/>
	
		<linearGradient id="SVGID_00000000185939239363599940000016804916799697103746_" gradientUnits="userSpaceOnUse" x1="-1246.955" y1="558.5695" x2="1960.9639" y2="558.5695" gradientTransform="matrix(1 0 0 -1 0 1018.4385)">
		<stop  offset="4.000000e-02" style="stop-color:#4191AC"/>
		<stop  offset="0.57" style="stop-color:#8E8CC1"/>
		<stop  offset="1" style="stop-color:#2552A1"/>
	</linearGradient>
	
		<path style="fill:none;stroke:url(#SVGID_00000000185939239363599940000016804916799697103746_);stroke-width:0.25;stroke-miterlimit:10;" d="
		M-1246.9,612.4c0,0,359,258.6,766.2,105.8C-197.4,612.2-18.8,93.3,189,159c207.8,65.7,151,412.3,432.6,400.9
		c281.5-11.4,455.4-216.1,729-201.2c208,11.5,402.5,273.6,610.3,239.4"/>
	
		<linearGradient id="SVGID_00000061430627052224350600000002365583967726693290_" gradientUnits="userSpaceOnUse" x1="-1248.7321" y1="565.9921" x2="1961.981" y2="565.9921" gradientTransform="matrix(1 0 0 -1 0 1018.4385)">
		<stop  offset="4.000000e-02" style="stop-color:#4191AC"/>
		<stop  offset="0.57" style="stop-color:#8E8CC1"/>
		<stop  offset="1" style="stop-color:#2552A1"/>
	</linearGradient>
	
		<path style="fill:none;stroke:url(#SVGID_00000061430627052224350600000002365583967726693290_);stroke-width:0.25;stroke-miterlimit:10;" d="
		M-1248.7,585.9c0,0,350.3,255.1,750.8,110.1C-219.1,595.4-46.3,107,166.2,169.9c212.5,62.9,162.2,394.9,436.4,384
		c274.2-10.9,471.5-218.8,741.5-204c208.8,11.6,402.6,292.7,617.8,262.7"/>
	
		<linearGradient id="SVGID_00000149363233908223668040000000426006108619440560_" gradientUnits="userSpaceOnUse" x1="-1250.4576" y1="573.2986" x2="1962.8431" y2="573.2986" gradientTransform="matrix(1 0 0 -1 0 1018.4385)">
		<stop  offset="4.000000e-02" style="stop-color:#4191AC"/>
		<stop  offset="0.57" style="stop-color:#8E8CC1"/>
		<stop  offset="1" style="stop-color:#2552A1"/>
	</linearGradient>
	
		<path style="fill:none;stroke:url(#SVGID_00000149363233908223668040000000426006108619440560_);stroke-width:0.25;stroke-miterlimit:10;" d="
		M-1250.4,559.5c0,0,341.6,251.7,735.4,114.3c274.3-95.2,441.2-552.9,658.4-492.9C360.6,241,316.7,558.4,583.6,548.1
		c266.8-10.3,487.4-221.5,754.1-206.8c209.8,11.7,402.6,311.7,625.2,286.1"/>
	
		<linearGradient id="SVGID_00000029044078539538440190000011210235860625445248_" gradientUnits="userSpaceOnUse" x1="-1252.2336" y1="580.6504" x2="1963.7959" y2="580.6504" gradientTransform="matrix(1 0 0 -1 0 1018.4385)">
		<stop  offset="4.000000e-02" style="stop-color:#4191AC"/>
		<stop  offset="0.57" style="stop-color:#8E8CC1"/>
		<stop  offset="1" style="stop-color:#2552A1"/>
	</linearGradient>
	
		<path style="fill:none;stroke:url(#SVGID_00000029044078539538440190000011210235860625445248_);stroke-width:0.25;stroke-miterlimit:10;" d="
		M-1252.2,533c0,0,332.9,248.2,720,118.6c269.8-89.9,430.8-517,652.7-459.7c221.9,57.2,184.5,360.1,444,350.3
		C824,532.4,1068,318,1331.1,332.6c210.6,11.9,402.7,330.8,632.7,309.5"/>
	
		<linearGradient id="SVGID_00000052065860686527481990000012519570310850885298_" gradientUnits="userSpaceOnUse" x1="-1253.9631" y1="587.8898" x2="1964.6582" y2="587.8898" gradientTransform="matrix(1 0 0 -1 0 1018.4385)">
		<stop  offset="4.000000e-02" style="stop-color:#4191AC"/>
		<stop  offset="0.57" style="stop-color:#8E8CC1"/>
		<stop  offset="1" style="stop-color:#2552A1"/>
	</linearGradient>
	
		<path style="fill:none;stroke:url(#SVGID_00000052065860686527481990000012519570310850885298_);stroke-width:0.25;stroke-miterlimit:10;" d="
		M-1253.9,506.5c0,0,324.2,244.7,704.6,122.8c265.3-84.5,420.4-481,647-426.6c226.6,54.4,195.6,342.7,447.7,333.5
		c252.1-9.2,519.5-226.8,779.1-212.3c211.5,12,402.8,349.8,640.1,332.8"/>
	
		<linearGradient id="SVGID_00000162313869379619390300000016638416795163681940_" gradientUnits="userSpaceOnUse" x1="-1255.7327" y1="578.2173" x2="1965.6241" y2="578.2173" gradientTransform="matrix(1 0 0 -1 0 1018.4385)">
		<stop  offset="4.000000e-02" style="stop-color:#4191AC"/>
		<stop  offset="0.57" style="stop-color:#8E8CC1"/>
		<stop  offset="1" style="stop-color:#2552A1"/>
	</linearGradient>
	
		<path style="fill:none;stroke:url(#SVGID_00000162313869379619390300000016638416795163681940_);stroke-width:0.25;stroke-miterlimit:10;" d="
		M-1255.7,480.1c0,0,315.5,241.2,689.2,127.1c260.8-79.2,410.1-445,641.4-393.4c231.3,51.6,206.8,325.3,451.5,316.6
		c244.7-8.7,535.5-229.5,791.7-215.1c212.4,12.1,402.8,368.9,647.5,356.1"/>
	
		<linearGradient id="SVGID_00000052088591356490176050000010067742413203442613_" gradientUnits="userSpaceOnUse" x1="-1257.4635" y1="565.3855" x2="1966.5387" y2="565.3855" gradientTransform="matrix(1 0 0 -1 0 1018.4385)">
		<stop  offset="4.000000e-02" style="stop-color:#4191AC"/>
		<stop  offset="0.57" style="stop-color:#8E8CC1"/>
		<stop  offset="1" style="stop-color:#2552A1"/>
	</linearGradient>
	
		<path style="fill:none;stroke:url(#SVGID_00000052088591356490176050000010067742413203442613_);stroke-width:0.25;stroke-miterlimit:10;" d="
		M-1257.4,453.6c0,0,306.9,237.7,673.8,131.4c256.3-73.8,399.7-409.1,635.7-360.2c236,48.8,218,307.9,455.3,299.8
		c237.4-8.2,551.6-232.2,804.2-217.9c213.3,12.2,402.9,387.9,654.9,379.5"/>
	
		<linearGradient id="SVGID_00000000190023745197667230000000850171135533675710_" gradientUnits="userSpaceOnUse" x1="-1259.2332" y1="552.5625" x2="1967.3887" y2="552.5625" gradientTransform="matrix(1 0 0 -1 0 1018.4385)">
		<stop  offset="4.000000e-02" style="stop-color:#4191AC"/>
		<stop  offset="0.57" style="stop-color:#8E8CC1"/>
		<stop  offset="1" style="stop-color:#2552A1"/>
	</linearGradient>
	
		<path style="fill:none;stroke:url(#SVGID_00000000190023745197667230000000850171135533675710_);stroke-width:0.25;stroke-miterlimit:10;" d="
		M-1259.2,427.1c0,0,298.1,234.2,658.4,135.7c251.8-68.4,389.4-373.1,630-327.1c240.7,46,229.1,290.5,459.1,282.9
		c230-7.7,567.6-234.9,816.7-220.7c214.2,12.4,402.9,407,662.3,402.8"/>
	
		<linearGradient id="SVGID_00000124126482581571689910000003838499310643245728_" gradientUnits="userSpaceOnUse" x1="-1260.964" y1="539.6366" x2="1968.4067" y2="539.6366" gradientTransform="matrix(1 0 0 -1 0 1018.4385)">
		<stop  offset="4.000000e-02" style="stop-color:#4191AC"/>
		<stop  offset="0.57" style="stop-color:#8E8CC1"/>
		<stop  offset="1" style="stop-color:#2552A1"/>
	</linearGradient>
	
		<path style="fill:none;stroke:url(#SVGID_00000124126482581571689910000003838499310643245728_);stroke-width:0.25;stroke-miterlimit:10;" d="
		M-1260.9,400.7c0,0,289.5,230.7,643,139.9c247.3-63.1,379-337.1,624.4-293.9c245.4,43.2,240.2,273.1,462.8,266
		c222.6-7.1,583.6-237.5,829.3-223.5c215,12.5,403,426.1,669.8,426.2"/>
	
		<linearGradient id="SVGID_00000183229487798533700920000018296938893697614237_" gradientUnits="userSpaceOnUse" x1="-1262.6949" y1="526.778" x2="1969.3254" y2="526.778" gradientTransform="matrix(1 0 0 -1 0 1018.4385)">
		<stop  offset="4.000000e-02" style="stop-color:#4191AC"/>
		<stop  offset="0.57" style="stop-color:#8E8CC1"/>
		<stop  offset="1" style="stop-color:#2552A1"/>
	</linearGradient>
	
		<path style="fill:none;stroke:url(#SVGID_00000183229487798533700920000018296938893697614237_);stroke-width:0.25;stroke-miterlimit:10;" d="
		M-1262.6,374.2c0,0,280.8,227.2,627.6,144.2c242.8-57.8,368.6-301.1,618.7-260.7C233.8,298,235.1,513.4,450.3,506.8
		c215.2-6.5,599.6-240.2,841.8-226.2c215.9,12.6,403,445.1,677.2,449.5"/>
	
		<linearGradient id="SVGID_00000044880760777040047190000009629830241049236159_" gradientUnits="userSpaceOnUse" x1="-1264.4646" y1="513.9258" x2="1970.1924" y2="513.9258" gradientTransform="matrix(1 0 0 -1 0 1018.4385)">
		<stop  offset="4.000000e-02" style="stop-color:#4191AC"/>
		<stop  offset="0.57" style="stop-color:#8E8CC1"/>
		<stop  offset="1" style="stop-color:#2552A1"/>
	</linearGradient>
	
		<path style="fill:none;stroke:url(#SVGID_00000044880760777040047190000009629830241049236159_);stroke-width:0.25;stroke-miterlimit:10;" d="
		M-1264.4,347.8c0,0,272.1,223.7,612.2,148.5c238.3-52.4,358.3-265.2,613-227.6c254.8,37.5,262.6,238.3,470.4,232.3
		c207.8-6,615.7-242.9,854.3-229c216.8,12.8,403.1,464.2,684.7,472.9"/>
	
		<linearGradient id="SVGID_00000141446052555341997930000008447181412897197233_" gradientUnits="userSpaceOnUse" x1="-1266.1956" y1="507.3613" x2="1971.2013" y2="507.3613" gradientTransform="matrix(1 0 0 -1 0 1018.4385)">
		<stop  offset="4.000000e-02" style="stop-color:#4191AC"/>
		<stop  offset="0.57" style="stop-color:#8E8CC1"/>
		<stop  offset="1" style="stop-color:#2552A1"/>
	</linearGradient>
	
		<path style="fill:none;stroke:url(#SVGID_00000141446052555341997930000008447181412897197233_);stroke-width:0.25;stroke-miterlimit:10;" d="
		M-1266.1,321.3c0,0,263.4,220.2,596.8,152.7c233.9-47.1,347.9-229.2,607.4-194.4C197.5,314.3,211.8,500.5,412.3,495
		c200.5-5.5,631.6-245.6,866.9-231.8c217.7,12.9,403.1,483.2,692.1,496.2"/>
	
		<linearGradient id="SVGID_00000029749080752031743670000008632505884214116484_" gradientUnits="userSpaceOnUse" x1="-1267.9653" y1="504.3607" x2="1972.0165" y2="504.3607" gradientTransform="matrix(1 0 0 -1 0 1018.4385)">
		<stop  offset="4.000000e-02" style="stop-color:#4191AC"/>
		<stop  offset="0.57" style="stop-color:#8E8CC1"/>
		<stop  offset="1" style="stop-color:#2552A1"/>
	</linearGradient>
	
		<path style="fill:none;stroke:url(#SVGID_00000029749080752031743670000008632505884214116484_);stroke-width:0.25;stroke-miterlimit:10;" d="
		M-1267.9,294.9c0,0,254.7,216.7,581.4,157C-457.2,410.1-349,258.6-84.8,290.6s284.9,203.6,478,198.6
		c193.1-5,647.7-248.3,879.4-234.6c218.6,13,403.2,502.3,699.5,519.6"/>
	
		<linearGradient id="SVGID_00000176751489223460978360000000803307713612326535_" gradientUnits="userSpaceOnUse" x1="-1269.6964" y1="501.3339" x2="1973.038" y2="501.3339" gradientTransform="matrix(1 0 0 -1 0 1018.4385)">
		<stop  offset="4.000000e-02" style="stop-color:#4191AC"/>
		<stop  offset="0.57" style="stop-color:#8E8CC1"/>
		<stop  offset="1" style="stop-color:#2552A1"/>
	</linearGradient>
	
		<path style="fill:none;stroke:url(#SVGID_00000176751489223460978360000000803307713612326535_);stroke-width:0.25;stroke-miterlimit:10;" d="
		M-1269.6,268.4c0,0,246,213.2,566,161.2c224.8-36.4,327.2-157.2,596-128.1c268.9,29.1,296,186.2,481.8,181.7
		c185.8-4.5,663.7-250.9,891.9-237.3c219.5,13.1,403.2,521.3,706.9,543"/>
	
		<linearGradient id="SVGID_00000005986938448394367770000006154314150996812188_" gradientUnits="userSpaceOnUse" x1="-1271.4662" y1="498.384" x2="1973.8917" y2="498.384" gradientTransform="matrix(1 0 0 -1 0 1018.4385)">
		<stop  offset="4.000000e-02" style="stop-color:#4191AC"/>
		<stop  offset="0.57" style="stop-color:#8E8CC1"/>
		<stop  offset="1" style="stop-color:#2552A1"/>
	</linearGradient>
	
		<path style="fill:none;stroke:url(#SVGID_00000005986938448394367770000006154314150996812188_);stroke-width:0.25;stroke-miterlimit:10;" d="
		M-1271.4,241.9c0,0,237.3,209.7,550.6,165.5c220.4-31,316.9-121.3,590.4-95c273.5,26.3,307.2,168.8,485.5,164.9
		c178.3-3.9,679.7-253.6,904.5-240.1c220.4,13.3,403.3,540.4,714.3,566.3"/>
	
		<linearGradient id="SVGID_00000183965767073284088850000003869516404071774353_" gradientUnits="userSpaceOnUse" x1="-1273.1974" y1="501.605" x2="1974.8616" y2="501.605" gradientTransform="matrix(1 0 0 -1 0 1018.4385)">
		<stop  offset="4.000000e-02" style="stop-color:#4191AC"/>
		<stop  offset="0.57" style="stop-color:#8E8CC1"/>
		<stop  offset="1" style="stop-color:#2552A1"/>
	</linearGradient>
	
		<path style="fill:none;stroke:url(#SVGID_00000183965767073284088850000003869516404071774353_);stroke-width:0.25;stroke-miterlimit:10;" d="
		M-1273.1,215.5c0,0,228.6,206.2,535.1,169.8c215.8-25.7,306.5-85.3,584.7-61.8c278.2,23.5,318.3,151.4,489.3,148
		c171-3.3,695.8-256.3,917-242.9c221.2,13.4,403.3,559.4,721.8,589.6"/>
	
		<linearGradient id="SVGID_00000111173629543993808770000013365577218393253281_" gradientUnits="userSpaceOnUse" x1="-1271.9344" y1="515.1762" x2="1973.6995" y2="515.1762" gradientTransform="matrix(1 0 0 -1 0 1018.4385)">
		<stop  offset="4.000000e-02" style="stop-color:#4191AC"/>
		<stop  offset="0.57" style="stop-color:#8E8CC1"/>
		<stop  offset="1" style="stop-color:#2552A1"/>
	</linearGradient>
	
		<path style="fill:none;stroke:url(#SVGID_00000111173629543993808770000013365577218393253281_);stroke-width:0.25;stroke-miterlimit:10;" d="
		M-1271.8,208.4c0,0,222.1,211.2,524.8,183.6c61.8-5.7,113.7-14.5,163.1-23.3c122.4-21.9,226.7-46.2,421.1-31.6
		C55,353.3,128,431.2,234.8,462.1c27.6,8.1,57.4,12.8,92.5,12.2c128-2,434.2-132.3,682.2-207.4c89.9-27.2,172-43.2,232.8-40.7
		c227.8,9.3,425.6,542.8,731.3,571.8"/>
	
		<linearGradient id="SVGID_00000125573778537595591940000005045611947205871021_" gradientUnits="userSpaceOnUse" x1="-1270.6714" y1="528.7726" x2="1972.6794" y2="528.7726" gradientTransform="matrix(1 0 0 -1 0 1018.4385)">
		<stop  offset="4.000000e-02" style="stop-color:#4191AC"/>
		<stop  offset="0.57" style="stop-color:#8E8CC1"/>
		<stop  offset="1" style="stop-color:#2552A1"/>
	</linearGradient>
	
		<path style="fill:none;stroke:url(#SVGID_00000125573778537595591940000005045611947205871021_);stroke-width:0.25;stroke-miterlimit:10;" d="
		M-1270.6,201.3c0,0,215.5,216.2,514.4,197.5c61-3.9,112.7-11.2,162.3-18.6c124.4-18.6,230-41.9,421.4-29.4
		C42.5,364.6,117.6,436.1,226,465.6c27.9,7.7,57.7,12.2,92.7,11.7c131.5-1.6,431-126.9,681.2-209.3c88.3-29.1,170.2-45.3,231.9-43.9
		c234.3,5.1,448,526.3,740.9,554"/>
	
		<linearGradient id="SVGID_00000063631649791163765940000006550453092966040236_" gradientUnits="userSpaceOnUse" x1="-1269.3439" y1="542.2934" x2="1971.6206" y2="542.2934" gradientTransform="matrix(1 0 0 -1 0 1018.4385)">
		<stop  offset="4.000000e-02" style="stop-color:#4191AC"/>
		<stop  offset="0.57" style="stop-color:#8E8CC1"/>
		<stop  offset="1" style="stop-color:#2552A1"/>
	</linearGradient>
	
		<path style="fill:none;stroke:url(#SVGID_00000063631649791163765940000006550453092966040236_);stroke-width:0.25;stroke-miterlimit:10;" d="
		M-1269.3,194.2c0,0,208.9,221.2,504,211.4c60.2-2.1,111.7-7.9,161.5-13.9c126.4-15.2,233.4-37.6,421.7-27.1
		C30,375.9,107.4,440.7,217.2,469c28.1,7.3,58.1,11.6,92.9,11.2c134.9-1.5,427.7-121.4,680-211.3c86.7-30.9,168.5-46.6,231-47.1
		c240.8-1.8,470.3,509.7,750.5,536.3"/>
	
		<linearGradient id="SVGID_00000178907078238563923600000007263304467749556625_" gradientUnits="userSpaceOnUse" x1="-1268.0808" y1="555.8652" x2="1970.549" y2="555.8652" gradientTransform="matrix(1 0 0 -1 0 1018.4385)">
		<stop  offset="4.000000e-02" style="stop-color:#4191AC"/>
		<stop  offset="0.57" style="stop-color:#8E8CC1"/>
		<stop  offset="1" style="stop-color:#2552A1"/>
	</linearGradient>
	
		<path style="fill:none;stroke:url(#SVGID_00000178907078238563923600000007263304467749556625_);stroke-width:0.25;stroke-miterlimit:10;" d="
		M-1268,187.2c0,0,202.3,226.1,493.6,225.2c59.4-0.3,110.7-4.6,160.8-9.1c128.5-11.7,236.8-33.3,422-25c209,8.8,288.6,67.1,400,94
		c28.4,6.8,58.4,11.1,93,10.8c138.3-1.2,424.5-115.7,679-213.3c85.1-32.7,166.7-49.5,230.1-50.3c247.4-3.3,492.6,493.1,760.1,518.4"
		/>
	
		<linearGradient id="SVGID_00000062899591893589295530000005064491382311500710_" gradientUnits="userSpaceOnUse" x1="-1266.8176" y1="569.4614" x2="1969.3868" y2="569.4614" gradientTransform="matrix(1 0 0 -1 0 1018.4385)">
		<stop  offset="4.000000e-02" style="stop-color:#4191AC"/>
		<stop  offset="0.57" style="stop-color:#8E8CC1"/>
		<stop  offset="1" style="stop-color:#2552A1"/>
	</linearGradient>
	
		<path style="fill:none;stroke:url(#SVGID_00000062899591893589295530000005064491382311500710_);stroke-width:0.25;stroke-miterlimit:10;" d="
		M-1266.7,180.1c0,0,195.8,231.1,483.2,239.1c58.5,1.5,109.7-1.2,160-4.4c130.7-8.3,240.2-29.1,422.3-22.7
		c206.1,6.3,287.8,58.2,400.7,83.7c28.6,6.4,58.8,10.5,93.2,10.3c141.7-0.9,421.2-109.9,677.9-215.3
		c83.6-34.3,164.9-51.6,229.2-53.5c254-7.7,514.9,476.5,769.7,500.6"/>
	
		<linearGradient id="SVGID_00000070112796995713960180000012129477318636853411_" gradientUnits="userSpaceOnUse" x1="-1265.5028" y1="582.9821" x2="1968.2119" y2="582.9821" gradientTransform="matrix(1 0 0 -1 0 1018.4385)">
		<stop  offset="4.000000e-02" style="stop-color:#4191AC"/>
		<stop  offset="0.57" style="stop-color:#8E8CC1"/>
		<stop  offset="1" style="stop-color:#2552A1"/>
	</linearGradient>
	
		<path style="fill:none;stroke:url(#SVGID_00000070112796995713960180000012129477318636853411_);stroke-width:0.25;stroke-miterlimit:10;" d="
		M-1265.4,173c0,0,189.2,236.1,472.8,253c57.7,3.2,108.8,2.1,159.3,0.3c132.8-4.8,243.5-24.4,422.5-20.5
		c203.2,4.4,287.1,49.3,401.4,73.4c28.9,6.1,59.1,9.7,93.3,9.8c145.1,0.6,417.9-103.9,676.7-217.3c82-35.9,163.2-53.7,228.3-56.7
		c260.5-12,537.2,459.9,779.2,482.9"/>
	
		<linearGradient id="SVGID_00000040567618579230227440000001091719151634264465_" gradientUnits="userSpaceOnUse" x1="-1264.2266" y1="596.5784" x2="1967.2048" y2="596.5784" gradientTransform="matrix(1 0 0 -1 0 1018.4385)">
		<stop  offset="4.000000e-02" style="stop-color:#4191AC"/>
		<stop  offset="0.57" style="stop-color:#8E8CC1"/>
		<stop  offset="1" style="stop-color:#2552A1"/>
	</linearGradient>
	
		<path style="fill:none;stroke:url(#SVGID_00000040567618579230227440000001091719151634264465_);stroke-width:0.25;stroke-miterlimit:10;" d="
		M-1264.1,166c0,0,182.6,241.1,462.4,266.8c56.9,5,107.8,3.8,158.5,5c134.9,3.3,246.9-20.1,422.9-18.4c200.2,2,286.3,40.3,402.2,63
		c29.1,5.7,59.4,9.1,93.5,9.3C423.8,492.9,690,394.1,951,272.5c80.5-37.5,161.4-55.9,227.4-59.9c267.1-16.4,559.5,443.4,788.8,465.1
		"/>
	
		<linearGradient id="SVGID_00000125598372051932942670000010510159678644945024_" gradientUnits="userSpaceOnUse" x1="-1262.9634" y1="610.0991" x2="1966.1331" y2="610.0991" gradientTransform="matrix(1 0 0 -1 0 1018.4385)">
		<stop  offset="4.000000e-02" style="stop-color:#4191AC"/>
		<stop  offset="0.57" style="stop-color:#8E8CC1"/>
		<stop  offset="1" style="stop-color:#2552A1"/>
	</linearGradient>
	
		<path style="fill:none;stroke:url(#SVGID_00000125598372051932942670000010510159678644945024_);stroke-width:0.25;stroke-miterlimit:10;" d="
		M-1262.9,158.9c0,0,176,246.6,452,280.7c56.1,6.9,107,7.1,157.7,9.8c136.9,7.3,250.3-14.8,423.2-16.1
		c197.3-1.6,285.6,31.4,403,52.7c29.3,5.3,59.7,8.6,93.6,8.9c151.9,1.5,411.4-91.5,674.6-221.3c78.9-39,159.7-58,226.5-63.2
		c273.7-20.9,581.9,426.8,798.4,447.3"/>
	
		<linearGradient id="SVGID_00000049221044226727336200000016743097029411579526_" gradientUnits="userSpaceOnUse" x1="-1261.6483" y1="623.7206" x2="1965.0743" y2="623.7206" gradientTransform="matrix(1 0 0 -1 0 1018.4385)">
		<stop  offset="4.000000e-02" style="stop-color:#4191AC"/>
		<stop  offset="0.57" style="stop-color:#8E8CC1"/>
		<stop  offset="1" style="stop-color:#2552A1"/>
	</linearGradient>
	
		<path style="fill:none;stroke:url(#SVGID_00000049221044226727336200000016743097029411579526_);stroke-width:0.25;stroke-miterlimit:10;" d="
		M-1261.5,151.8c0,0,169.3,251.6,441.6,294.6c55.3,8.7,105.9,12.3,157,14.5c139.2,6,253.6-11.5,423.4-14
		c194.3-2.8,284.7,22.5,403.7,42.4c29.6,4.9,60.1,8,93.8,8.4c155.3,2,408.2-85,673.5-223.3c77.5-40.4,157.9-60.2,225.6-66.4
		c280.3-25.4,604.2,410.2,808,429.4"/>
	
		<linearGradient id="SVGID_00000143592617050587174500000009688035671901124282_" gradientUnits="userSpaceOnUse" x1="-1260.3848" y1="637.2413" x2="1963.951" y2="637.2413" gradientTransform="matrix(1 0 0 -1 0 1018.4385)">
		<stop  offset="4.000000e-02" style="stop-color:#4191AC"/>
		<stop  offset="0.57" style="stop-color:#8E8CC1"/>
		<stop  offset="1" style="stop-color:#2552A1"/>
	</linearGradient>
	
		<path style="fill:none;stroke:url(#SVGID_00000143592617050587174500000009688035671901124282_);stroke-width:0.25;stroke-miterlimit:10;" d="
		M-1260.3,144.8c0,0,162.7,256.6,431.2,308.4c54.4,10.5,105,15.7,156.2,19.2c141.4,9.6,257-7.2,423.7-11.7
		c191.4-5.2,284,13.6,404.5,32c29.8,4.6,60.4,7.8,93.9,8c158.7,1,405.1-78.4,672.4-225.3c76-41.8,156.2-62.4,224.7-69.6
		c286.8-30,626.5,393.6,817.6,411.7"/>
	
		<linearGradient id="SVGID_00000112619973489354851310000009880571810257140618_" gradientUnits="userSpaceOnUse" x1="-1259.1212" y1="650.7864" x2="1962.8406" y2="650.7864" gradientTransform="matrix(1 0 0 -1 0 1018.4385)">
		<stop  offset="4.000000e-02" style="stop-color:#4191AC"/>
		<stop  offset="0.57" style="stop-color:#8E8CC1"/>
		<stop  offset="1" style="stop-color:#2552A1"/>
	</linearGradient>
	
		<path style="fill:none;stroke:url(#SVGID_00000112619973489354851310000009880571810257140618_);stroke-width:0.25;stroke-miterlimit:10;" d="
		M-1259,137.7c0,0,156.1,261.6,420.8,322.3c53.6,12.3,104,19.2,155.5,23.9c143.5,13.3,260.4-2.9,424-9.5
		c188.4-7.7,283.2,4.7,405.2,21.7c30.1,4.2,60.7,7.2,94.1,7.5C402.7,505,642.6,432,911.9,276.4c74.5-43.1,154.4-64.6,223.8-72.8
		c293.4-34.6,648.8,377,827.1,393.9"/>
	
		<linearGradient id="SVGID_00000103265048357632729210000011276071806636195252_" gradientUnits="userSpaceOnUse" x1="-1257.8446" y1="664.3835" x2="1961.7688" y2="664.3835" gradientTransform="matrix(1 0 0 -1 0 1018.4385)">
		<stop  offset="4.000000e-02" style="stop-color:#4191AC"/>
		<stop  offset="0.57" style="stop-color:#8E8CC1"/>
		<stop  offset="1" style="stop-color:#2552A1"/>
	</linearGradient>
	
		<path style="fill:none;stroke:url(#SVGID_00000103265048357632729210000011276071806636195252_);stroke-width:0.25;stroke-miterlimit:10;" d="
		M-1257.7,130.6c0,0,149.5,266.6,410.5,336.1c52.8,14.1,103,22.6,154.7,28.7c145.6,17,263.8,1.4,424.3-7.3
		c185.5-10.1,282.4-4.2,406,11.4c30.3,3.8,61.1,6.7,94.2,7.1c165.6,1.7,399.1-64.7,670.2-229.2c73.1-44.3,152.7-66.8,222.9-76
		c300-39.2,671.2,360.4,836.7,376.1"/>
	
		<linearGradient id="SVGID_00000117639143679180551080000011469665332392057266_" gradientUnits="userSpaceOnUse" x1="-1256.5292" y1="677.9543" x2="1960.7101" y2="677.9543" gradientTransform="matrix(1 0 0 -1 0 1018.4385)">
		<stop  offset="4.000000e-02" style="stop-color:#4191AC"/>
		<stop  offset="0.57" style="stop-color:#8E8CC1"/>
		<stop  offset="1" style="stop-color:#2552A1"/>
	</linearGradient>
	
		<path style="fill:none;stroke:url(#SVGID_00000117639143679180551080000011469665332392057266_);stroke-width:0.25;stroke-miterlimit:10;" d="
		M-1256.4,123.6c0,0,142.9,271.6,400.1,350c52,15.8,102.1,26.1,153.9,33.4c147.8,20.9,267.2,5.7,424.6-5.1
		c182.6-12.5,281.6-13.1,406.7,1c30.5,3.5,61.4,6.1,94.4,6.5c169,2.1,396.2-57.6,669.1-231.3c71.7-45.6,150.9-69,222-79.2
		c306.6-43.8,693.4,343.8,846.3,358.3"/>
	
		<linearGradient id="SVGID_00000181080193482265631670000017421380203849868474_" gradientUnits="userSpaceOnUse" x1="-1255.2654" y1="691.5001" x2="1959.5868" y2="691.5001" gradientTransform="matrix(1 0 0 -1 0 1018.4385)">
		<stop  offset="4.000000e-02" style="stop-color:#4191AC"/>
		<stop  offset="0.57" style="stop-color:#8E8CC1"/>
		<stop  offset="1" style="stop-color:#2552A1"/>
	</linearGradient>
	
		<path style="fill:none;stroke:url(#SVGID_00000181080193482265631670000017421380203849868474_);stroke-width:0.25;stroke-miterlimit:10;" d="
		M-1255.2,116.5c0,0,136.3,276.6,389.7,363.9c51.1,17.6,101.1,29.6,153.2,38.2c149.9,24.7,270.5,9.9,424.8-2.9
		c179.7-15,280.8-22,407.5-9.3c30.8,3.1,61.7,5.6,94.6,6.1c172.4,2.6,393.5-50.4,668-233.2c70.3-46.8,149.2-71.2,221.1-82.4
		c313.1-48.6,715.8,327.2,855.9,340.5"/>
	
		<linearGradient id="SVGID_00000122704432135725745440000010030233625298007722_" gradientUnits="userSpaceOnUse" x1="-1254.0013" y1="690.4805" x2="1958.5796" y2="690.4805" gradientTransform="matrix(1 0 0 -1 0 1018.4385)">
		<stop  offset="4.000000e-02" style="stop-color:#4191AC"/>
		<stop  offset="0.57" style="stop-color:#8E8CC1"/>
		<stop  offset="1" style="stop-color:#2552A1"/>
	</linearGradient>
	
		<path style="fill:none;stroke:url(#SVGID_00000122704432135725745440000010030233625298007722_);stroke-width:0.25;stroke-miterlimit:10;" d="
		M-1253.9,109.4c0,0,129.7,281.5,379.3,377.7c50.3,19.4,100.2,33.1,152.4,42.9c152,28.5,273.9,14.2,425.1-0.7
		c176.7-17.5,280.1-30.8,408.2-19.6c31.1,2.7,62.1,5.1,94.7,5.6c175.8,3,390.8-43.1,667-235.2c68.9-47.9,147.4-73.5,220.2-85.6
		c319.6-53.3,738.1,310.6,865.5,322.7"/>
	
		<linearGradient id="SVGID_00000008132509891139645580000013028021546170323622_" gradientUnits="userSpaceOnUse" x1="-1252.6792" y1="686.6414" x2="1957.4563" y2="686.6414" gradientTransform="matrix(1 0 0 -1 0 1018.4385)">
		<stop  offset="4.000000e-02" style="stop-color:#4191AC"/>
		<stop  offset="0.57" style="stop-color:#8E8CC1"/>
		<stop  offset="1" style="stop-color:#2552A1"/>
	</linearGradient>
	
		<path style="fill:none;stroke:url(#SVGID_00000008132509891139645580000013028021546170323622_);stroke-width:0.25;stroke-miterlimit:10;" d="
		M-1252.6,102.4c0,0,123.1,286.5,368.9,391.6c49.5,21.2,99.2,36.6,151.7,47.6c154.1,32.4,277.3,18.5,425.4,1.5
		c173.8-19.9,279.3-39.7,409-30c31.3,2.3,62.4,4.6,94.9,5.2c179.2,3.5,388.3-35.6,665.8-237.2c67.6-49.1,145.7-75.7,219.3-88.8
		c326.1-58,760.4,294,875,304.9"/>
	
		<linearGradient id="SVGID_00000044153634399402987920000008506522016869193095_" gradientUnits="userSpaceOnUse" x1="-1251.4125" y1="682.7983" x2="1956.4491" y2="682.7983" gradientTransform="matrix(1 0 0 -1 0 1018.4385)">
		<stop  offset="4.000000e-02" style="stop-color:#4191AC"/>
		<stop  offset="0.57" style="stop-color:#8E8CC1"/>
		<stop  offset="1" style="stop-color:#2552A1"/>
	</linearGradient>
	
		<path style="fill:none;stroke:url(#SVGID_00000044153634399402987920000008506522016869193095_);stroke-width:0.25;stroke-miterlimit:10;" d="
		M-1251.3,95.3c0,0,116.5,291.4,358.5,405.5c48.7,22.9,98.2,40.1,150.9,52.3c156.2,36.3,280.7,22.7,425.7,3.7
		c170.8-22.4,278.5-48.6,409.8-40.3c31.5,2,62.7,4,95,4.7c182.6,3.9,385.9-27.9,664.8-239.2c66.3-50.2,143.9-77.9,218.4-92
		c332.7-62.9,782.7,277.4,884.6,287.1"/>
	
		<linearGradient id="SVGID_00000064337018325669629600000007073476488165586834_" gradientUnits="userSpaceOnUse" x1="-1250.1444" y1="678.91" x2="1955.3776" y2="678.91" gradientTransform="matrix(1 0 0 -1 0 1018.4385)">
		<stop  offset="4.000000e-02" style="stop-color:#4191AC"/>
		<stop  offset="0.57" style="stop-color:#8E8CC1"/>
		<stop  offset="1" style="stop-color:#2552A1"/>
	</linearGradient>
	
		<path style="fill:none;stroke:url(#SVGID_00000064337018325669629600000007073476488165586834_);stroke-width:0.25;stroke-miterlimit:10;" d="
		M-1250,88.3c0,0,110,296.3,348.1,419.4c47.8,24.7,97.3,43.6,150.2,57.1c158.3,40.3,284,26.9,426,5.9
		c167.9-24.9,277.7-57.4,410.5-50.6c31.8,1.6,63.1,3.5,95.2,4.3c186,4.4,383.6-20.1,663.7-241.2c65-51.3,142.1-80.2,217.5-95.2
		c339.2-67.7,805.1,260.8,894.2,269.3"/>
	
		<linearGradient id="SVGID_00000055692835789631350820000015640004699331361416_" gradientUnits="userSpaceOnUse" x1="-1248.8258" y1="675.0802" x2="1954.3187" y2="675.0802" gradientTransform="matrix(1 0 0 -1 0 1018.4385)">
		<stop  offset="4.000000e-02" style="stop-color:#4191AC"/>
		<stop  offset="0.57" style="stop-color:#8E8CC1"/>
		<stop  offset="1" style="stop-color:#2552A1"/>
	</linearGradient>
	
		<path style="fill:none;stroke:url(#SVGID_00000055692835789631350820000015640004699331361416_);stroke-width:0.25;stroke-miterlimit:10;" d="
		M-1248.7,81.2c0,0,103.6,300.8,337.7,433.2c47.1,26.4,96.3,47.1,149.4,61.8c160.3,44.2,287.4,31.2,426.3,8.1
		c165-27.4,276.9-66.3,411.3-61c32,1.3,63.4,2.9,95.3,3.8c189.5,4.8,381.6-12.3,662.6-243.2c63.8-52.4,140.3-82.4,216.6-98.4
		c345.7-72.5,827.4,244.3,903.8,251.5"/>
	
		<linearGradient id="SVGID_00000111153206490644402430000001407394988467119804_" gradientUnits="userSpaceOnUse" x1="-1247.5635" y1="671.1585" x2="1953.1404" y2="671.1598" gradientTransform="matrix(1 0 0 -1 0 1018.4385)">
		<stop  offset="4.000000e-02" style="stop-color:#4191AC"/>
		<stop  offset="0.57" style="stop-color:#8E8CC1"/>
		<stop  offset="1" style="stop-color:#2552A1"/>
	</linearGradient>
	
		<path style="fill:none;stroke:url(#SVGID_00000111153206490644402430000001407394988467119804_);stroke-width:0.25;stroke-miterlimit:10;" d="
		M-1247.4,74.1c0,0,97.1,305.8,327.3,447.1c46.3,28.2,95.3,50.6,148.7,66.5c162.4,48.3,290.8,35.4,426.6,10.3
		c162-29.9,276.2-75.1,412-71.3c32.3,0.9,63.7,2.4,95.5,3.3c192.9,5.3,379.6-4.3,661.5-245.2c62.6-53.5,138.6-84.7,215.7-101.6
		c352.2-77.4,849.7,227.7,913.4,233.7"/>
	
		<linearGradient id="SVGID_00000150062097674935701390000001452550183988675763_" gradientUnits="userSpaceOnUse" x1="-1246.2904" y1="667.2399" x2="1951.9817" y2="667.2399" gradientTransform="matrix(1 0 0 -1 0 1018.4385)">
		<stop  offset="4.000000e-02" style="stop-color:#4191AC"/>
		<stop  offset="0.57" style="stop-color:#8E8CC1"/>
		<stop  offset="1" style="stop-color:#2552A1"/>
	</linearGradient>
	
		<path style="fill:none;stroke:url(#SVGID_00000150062097674935701390000001452550183988675763_);stroke-width:0.25;stroke-miterlimit:10;" d="
		M-1246.2,67c0,0,90.5,310.8,316.9,461c45.5,30,94.3,54.2,147.9,71.2c164.4,52.3,294.1,39.6,426.9,12.5
		c159.1-32.5,275.4-84,412.8-81.6c32.5,0.6,64.1,1.9,95.6,2.8c196.3,5.8,377.8,3.9,660.4-247.1c61.3-54.5,136.8-86.9,214.8-104.8
		C1387.7,98.7,1901,392,1952,396.8"/>
	
		<linearGradient id="SVGID_00000116211759257845572670000010270013714870240187_" gradientUnits="userSpaceOnUse" x1="-1244.9729" y1="663.3729" x2="1950.9617" y2="663.3729" gradientTransform="matrix(1 0 0 -1 0 1018.4385)">
		<stop  offset="4.000000e-02" style="stop-color:#4191AC"/>
		<stop  offset="0.57" style="stop-color:#8E8CC1"/>
		<stop  offset="1" style="stop-color:#2552A1"/>
	</linearGradient>
	
		<path style="fill:none;stroke:url(#SVGID_00000116211759257845572670000010270013714870240187_);stroke-width:0.25;stroke-miterlimit:10;" d="
		M-1244.9,59.9c0,0,83.9,315.7,306.5,474.8c44.6,31.8,93.3,57.7,147.1,76c166.4,56.3,297.5,43.8,427.1,14.7
		c156.1-35,274.6-92.6,413.5-92c32.7,0.3,64.4,1.4,95.8,2.4c199.7,6.6,376.2,12.1,659.3-249.2c60.2-55.6,135.1-89.2,213.9-108
		c365.2-87.2,894.3,194.5,932.5,198.1"/>
	
		<linearGradient id="SVGID_00000080926328115682087460000014345011391321117831_" gradientUnits="userSpaceOnUse" x1="-1243.7057" y1="659.4836" x2="1949.903" y2="659.4836" gradientTransform="matrix(1 0 0 -1 0 1018.4385)">
		<stop  offset="4.000000e-02" style="stop-color:#4191AC"/>
		<stop  offset="0.57" style="stop-color:#8E8CC1"/>
		<stop  offset="1" style="stop-color:#2552A1"/>
	</linearGradient>
	
		<path style="fill:none;stroke:url(#SVGID_00000080926328115682087460000014345011391321117831_);stroke-width:0.25;stroke-miterlimit:10;" d="
		M-1243.6,52.9c0,0,77.3,320.7,296.2,488.7c43.8,33.5,92.3,61.3,146.4,80.7c168.4,60.4,300.8,47.7,427.4,16.9
		c153.1-37.8,273.8-101.5,414.3-102.3c33-0.1,64.7,0.9,95.9,1.9c203.1,7.1,374.8,20.4,658.2-251.2c59.1-56.6,133.2-91.6,213-111.2
		c371.4-92.9,916.6,177.9,942.1,180.3"/>
	
		<linearGradient id="SVGID_00000145037563863389956120000013846252423371704971_" gradientUnits="userSpaceOnUse" x1="-1242.4384" y1="655.4872" x2="1948.7797" y2="655.4872" gradientTransform="matrix(1 0 0 -1 0 1018.4385)">
		<stop  offset="4.000000e-02" style="stop-color:#4191AC"/>
		<stop  offset="0.57" style="stop-color:#8E8CC1"/>
		<stop  offset="1" style="stop-color:#2552A1"/>
	</linearGradient>
	
		<path style="fill:none;stroke:url(#SVGID_00000145037563863389956120000013846252423371704971_);stroke-width:0.25;stroke-miterlimit:10;" d="
		M-1242.3,45.8c0,0,70.7,325.7,285.8,502.6c43,35.3,91.3,64.8,145.6,85.4c170.4,64.5,304.2,52,427.7,19.1
		c150.1-40.3,273.1-110.4,415-112.6c33.2-0.5,65,0.4,96.1,1.5c206.5,7.5,373.5,28.8,657.1-253.1c57.9-57.6,131.5-93.8,212.1-114.4
		c377.9-97.5,939,161.3,951.7,162.5"/>
	
		<linearGradient id="SVGID_00000176026617562557975240000001006639912434499248_" gradientUnits="userSpaceOnUse" x1="-1241.1193" y1="651.5833" x2="1947.8098" y2="651.5833" gradientTransform="matrix(1 0 0 -1 0 1018.4385)">
		<stop  offset="4.000000e-02" style="stop-color:#4191AC"/>
		<stop  offset="0.57" style="stop-color:#8E8CC1"/>
		<stop  offset="1" style="stop-color:#2552A1"/>
	</linearGradient>
	
		<path style="fill:none;stroke:url(#SVGID_00000176026617562557975240000001006639912434499248_);stroke-width:0.25;stroke-miterlimit:10;" d="
		M-1241,38.7c0,0,92.3,476,420.2,606.6C-437.9,797.8-237.9,550.4,23,543.6c260.9-6.8,427,81.3,752.3-254.1
		c325.3-335.5,1172.5,27.1,1172.5,27.1"/>
</mask>
<g class="st51">
	
		<linearGradient id="SVGID_00000015340175490437556510000010352207054371693196_" gradientUnits="userSpaceOnUse" x1="1805.0917" y1="691.0943" x2="-133.384" y2="473.4694" gradientTransform="matrix(1 0 0 -1 0 1018.4385)">
		<stop  offset="0" style="stop-color:#C52EA3"/>
		<stop  offset="1" style="stop-color:#4749CA"/>
	</linearGradient>
	<path style="fill:url(#SVGID_00000015340175490437556510000010352207054371693196_);" d="M0,0h1920v844.4H0V0z"/>
</g>
</svg>
