<?xml version="1.0" encoding="UTF-8"?><svg id="Layer_2" xmlns="http://www.w3.org/2000/svg" viewBox="0 0 1446.82 615"><defs><style>.cls-1{fill:none;}.cls-2{fill:#f0336c;}.cls-3{fill:#f246cc;}.cls-4{fill:#fdfdfd;}.cls-5{fill:#6c6ff5;}.cls-6{opacity:.4;}.cls-7{opacity:.5;}</style></defs><g id="Layer_1-2"><g class="cls-7"><path class="cls-1" d="m0,0v615h515.73c19-26.16,44.27-47.39,73.49-61.57-19.89-32.01-32.45-68.84-35.63-108-19.29,38.11-49.09,71.25-87.7,94.79l-5.62,3.43c-98.85,60.27-227.75,38.08-300.94-51.8-72.98-94.9-57.68-229.72,34.67-305.5l81.69-67.03c38.62-31.69,89.47-44.71,138.88-35.57,61.86,11.45,112.4,55.88,131.31,115.45l21.96,69.19c4.92,15.5,8.14,31.19,9.78,46.86,41.16-85.3,128.88-143.32,229.02-142.44l87.32.77c56.55.5,109.57,27.26,143.43,72.39,14.79,19.71,25.13,41.87,30.88,65.04l110.98,3.52c58.31,1.85,113.25,27.5,151.98,70.98,55.99,62.84,69.47,152.81,34.55,229.49h81.03V0H0Z"/><path class="cls-3" d="m552.99,415.34l.34-8.17c2.24-32.85,10.75-63.86,24.29-91.93-1.64-15.67-4.86-31.36-9.78-46.86l-21.96-69.19c-18.91-59.57-69.45-104-131.31-115.45-49.4-9.14-100.26,3.88-138.88,35.57l-81.69,67.03c-92.35,75.78-107.65,210.6-34.67,305.5,73.18,89.88,202.09,112.07,300.94,51.8l5.62-3.43c38.61-23.54,68.41-56.67,87.7-94.79-.8-9.9-1.02-19.94-.6-30.09Z"/><path class="cls-4" d="m589.22,553.43c-29.23,14.18-54.49,35.41-73.49,61.57h128.18c-21.62-17.28-40.12-38.13-54.69-61.57Z"/><path class="cls-5" d="m725.99,558.46c7.33-143.1,128.16-254.23,271.48-249.69l70.81,2.24c-5.75-23.18-16.09-45.34-30.88-65.04-33.87-45.14-86.89-71.89-143.43-72.39l-87.32-.77c-100.14-.88-187.87,57.13-229.02,142.44-13.54,28.07-22.05,59.08-24.29,91.93l-.34,8.17c-.43,10.15-.21,20.19.6,30.09,3.18,39.16,15.74,75.99,35.63,108,14.57,23.44,33.07,44.28,54.69,61.57h86.62c-3.36-18.34-4.94-37.25-4.55-56.54Z"/><path class="cls-2" d="m1331.24,385.51c-38.73-43.48-93.67-69.13-151.98-70.98l-110.98-3.52-70.81-2.24c-143.32-4.54-264.16,106.59-271.48,249.69-.39,19.29,1.19,38.2,4.55,56.54h635.25c34.92-76.68,21.44-166.65-34.55-229.49Z"/></g><g class="cls-6"><rect x="0" width="1446.82" height="615"/></g></g></svg>