<?xml version="1.0" encoding="UTF-8"?><svg id="Layer_2" xmlns="http://www.w3.org/2000/svg" viewBox="0 0 836 615.5"><defs><style>.cls-1{fill:none;}.cls-2{fill:#f058e1;}.cls-3{fill:#f0336c;}.cls-4{fill:#6c6ff5;}.cls-5{opacity:.5;}</style></defs><g id="Layer_1-2"><g class="cls-5"><path class="cls-1" d="m0,0v318.84c43.41-23.37,94.26-32.87,145.47-24.73l35.01,5.57c103.25,16.42,178.42,106.29,176.29,210.77-2.01,39.29-15.51,75.34-37.09,105.05h516.31V0H0Z"/><path class="cls-2" d="m180.48,299.68l-35.01-5.57c-51.21-8.14-102.06,1.36-145.47,24.73v125.09c41.4,31.86,73.35,74.87,91.77,124.15,37.43,8.13,71.27,24.69,99.71,47.42h128.2c21.58-29.7,35.07-65.76,37.09-105.05,2.13-104.48-73.04-194.36-176.29-210.77Z"/><path class="cls-4" d="m104.86,615.5h86.63c-28.44-22.73-62.29-39.28-99.71-47.42,5.7,15.25,10.09,31.11,13.09,47.42Z"/><path class="cls-3" d="m0,443.93v171.57h104.86c-2.99-16.31-7.38-32.16-13.09-47.42-18.43-49.28-50.37-92.3-91.77-124.15Z"/></g><g class="cls-5"><rect width="836" height="615.5"/></g></g></svg>