<?xml version="1.0" encoding="UTF-8"?><svg id="Layer_2" xmlns="http://www.w3.org/2000/svg" viewBox="0 0 1448 772"><defs><style>.cls-1{fill:none;}.cls-2{opacity:.1;}.cls-3{fill:#c4c4c4;}</style></defs><g id="Layer_1-2"><g class="cls-2"><path class="cls-1" d="m419.15,0c.01.09.02.19.03.28.06.55-.34,1.04-.89,1.1-.04,0-.07,0-.1,0-.51,0-.94-.38-.99-.9-.02-.16-.04-.33-.06-.49h-183.47c.5.1.86.55.81,1.07-.06.66-.12,1.31-.17,1.97-.04.52-.48.92-1,.92-.03,0-.05,0-.08,0-.55-.04-.96-.52-.92-1.07.05-.67.11-1.34.17-2.01.05-.46.4-.8.84-.87H0v772h469.22c-4.63-1.13-8.88-3.84-11.77-8.05-3.83-5.58-5.62-14.31-14.29-13.04-7.54,1.1-13.2,7.54-19.93,10.6-9.32,4.24-17.31.79-22.67-7.36-2.77-4.21-4.85-9.5-8.9-12.69-5.97-4.7-13.56-1.35-19.05,2.41-8.65,5.92-18.42,15.11-29.8,10.17-4.7-2.04-6.69-6.04-8.3-10.64-2.21-6.31-6.27-11.13-13.03-12.65-12.79-2.88-21.17,11.46-33.83,10.9-4.83-.21-8.55-2.64-11.6-6.23-2.95-3.48-5.37-9.47-9.83-11.28-5.56-2.25-10.5,3.68-14.56,6.53-3.64,2.56-7.63,4.38-12.18,4.02-6.25-.5-10.55-4.55-14.22-9.26-1.99-2.55-3.71-5.38-6.14-7.57-3.16-2.84-10.76-5.41-11.78,1.03-.54,3.39-5.79,2.48-5.25-.9.79-4.95,4.97-8.24,9.93-8.53,6.2-.36,10.92,4.24,14.48,8.73,5.8,7.31,11.81,15.1,21.55,8.53,4.24-2.86,7.9-7,13.1-8.1,10.98-2.34,14.06,9.32,20.56,15.1,6.76,6.02,15.01.26,21.24-3.49,4.46-2.69,9.11-5.11,14.45-5.21,10.67-.2,18.73,6.88,22.11,16.52,6.7,19.12,24.47.51,34.48-4.71,9.66-5.03,19.31-3.35,25.6,5.61,2.93,4.18,4.87,9.34,8.65,12.86,5.68,5.31,12.79,1.85,18.36-1.82,8.29-5.46,19.59-12.71,28.29-3.76,4.25,4.37,5.31,11.1,10.36,14.79,5.3,3.88,12.6,3.72,17.9.04h0c2.82-1.95,5.9,2.4,3.07,4.35-2.15,1.49-4.51,2.5-6.95,3.09h598.1l-49.17-24.23c-3.96-1.95-5.59-6.76-3.64-10.71l62.03-125.88c1.95-3.96,6.76-5.59,10.71-3.64l125.88,62.03c1.92.94,3.35,2.58,4.04,4.6.69,2.02.55,4.19-.4,6.11l-45.2,91.72h266.4V0H419.15Zm-186.83,17.02c-.15-2-.24-4.04-.27-6.05,0-.55.44-1,.99-1.01.52-.02,1,.44,1.01.99.02,1.97.11,3.96.26,5.92.04.55-.37,1.03-.92,1.07-.03,0-.05,0-.08,0-.52,0-.96-.4-1-.92Zm1.65,6.87c-.49,0-.92-.36-.99-.86-.09-.66-.18-1.33-.26-2-.07-.55.32-1.05.87-1.11.55-.06,1.05.32,1.11.87.08.65.16,1.31.26,1.96.08.55-.3,1.05-.85,1.13-.05,0-.1,0-.14,0Zm2.05,12.94c-.58-1.92-1.1-3.89-1.56-5.86-.12-.54.21-1.08.75-1.2.54-.12,1.08.21,1.2.75.45,1.92.96,3.85,1.53,5.73.16.53-.14,1.09-.67,1.25-.1.03-.19.04-.29.04-.43,0-.83-.28-.96-.71Zm3.22,6.33c-.11.04-.23.06-.35.06-.41,0-.79-.25-.94-.65-.23-.63-.46-1.26-.69-1.9-.18-.52.09-1.09.62-1.27.52-.18,1.09.09,1.27.62.22.62.44,1.24.67,1.86.19.52-.07,1.09-.59,1.29Zm5.99,12.64c-.15.09-.32.13-.48.13-.35,0-.69-.19-.88-.51-.98-1.76-1.91-3.57-2.77-5.39-.24-.5-.02-1.1.47-1.33.5-.24,1.1-.02,1.33.47.84,1.78,1.76,3.55,2.71,5.28.27.48.09,1.09-.39,1.36Zm3.14,5.11c-.17.11-.35.16-.54.16-.33,0-.65-.16-.84-.46-.36-.57-.72-1.14-1.07-1.71-.29-.47-.14-1.09.33-1.38.47-.29,1.09-.14,1.38.33.34.56.7,1.12,1.05,1.68.3.46.16,1.08-.3,1.38Zm8.55,11.07c-.19.17-.43.25-.66.25-.28,0-.55-.11-.75-.34-1.33-1.51-2.63-3.08-3.86-4.68-.34-.44-.26-1.06.18-1.4.44-.34,1.07-.26,1.4.18,1.21,1.56,2.48,3.1,3.78,4.58.36.41.32,1.05-.09,1.41Zm4.16,4.33c-.2.2-.45.29-.71.29s-.51-.1-.71-.29c-.48-.48-.95-.96-1.42-1.45-.38-.4-.37-1.03.03-1.41.4-.38,1.03-.37,1.41.03.46.48.92.95,1.39,1.41.39.39.39,1.02,0,1.41Zm10.72,8.99c-.2.27-.5.41-.81.41-.21,0-.41-.06-.59-.19-1.62-1.19-3.23-2.45-4.77-3.75-.42-.35-.48-.99-.12-1.41.35-.42.98-.48,1.41-.12,1.51,1.27,3.09,2.5,4.67,3.67.45.33.54.95.21,1.4Zm5,3.34c-.19.3-.51.46-.84.46-.18,0-.37-.05-.54-.16-.57-.36-1.14-.73-1.7-1.11-.46-.31-.58-.93-.28-1.39.31-.46.93-.58,1.39-.28.55.37,1.1.73,1.66,1.08.47.3.6.92.31,1.38Zm12.4,6.47c-.17.37-.53.6-.92.6-.14,0-.27-.03-.4-.09-1.85-.81-3.68-1.7-5.46-2.63-.49-.26-.68-.86-.42-1.35.26-.49.86-.68,1.35-.42,1.74.91,3.54,1.77,5.35,2.57.51.22.73.81.51,1.32Zm5.59,2.18c-.15.4-.53.66-.94.66-.11,0-.23-.02-.34-.06-.63-.23-1.26-.47-1.89-.72-.51-.2-.77-.78-.57-1.3.2-.51.78-.77,1.3-.57.61.24,1.23.47,1.85.7.52.19.78.76.59,1.28Zm13.49,3.68c-.1.47-.51.8-.98.8-.07,0-.13,0-.2-.02-1.84-.38-3.69-.81-5.5-1.3l-.4-.11c-.53-.15-.85-.7-.7-1.23.15-.53.7-.85,1.23-.7l.39.1c1.77.48,3.59.9,5.38,1.27.54.11.89.64.78,1.18Zm4.93,1.82s-.09,0-.14,0c-.67-.09-1.33-.19-2-.3-.55-.09-.92-.6-.83-1.15.09-.55.6-.92,1.15-.83.65.11,1.3.2,1.96.29.55.08.93.58.85,1.13-.07.5-.5.86-.99.86Zm13.97.87c-.42,0-.83,0-1.25,0-1.6,0-3.21-.04-4.81-.12-.55-.03-.98-.5-.95-1.05.03-.55.5-.98,1.05-.95,1.97.1,3.97.14,5.93.11h.01c.55,0,.99.44,1,.99,0,.55-.43,1.01-.99,1.01Zm6.05-.28c-.67.05-1.34.1-2.01.14-.02,0-.04,0-.06,0-.53,0-.97-.41-1-.94-.03-.55.39-1.02.94-1.06.66-.04,1.31-.08,1.97-.13.55-.04,1.03.37,1.08.92s-.37,1.03-.92,1.08Zm13.96-2.17c-1.96.46-3.96.86-5.94,1.19-.06,0-.11.01-.17.01-.48,0-.9-.35-.99-.84-.09-.54.28-1.06.82-1.15,1.94-.32,3.9-.72,5.81-1.17.54-.13,1.08.21,1.2.75.13.54-.21,1.08-.75,1.2Zm5.85-1.57c-.64.2-1.29.38-1.94.57-.09.03-.18.04-.27.04-.44,0-.84-.29-.96-.73-.15-.53.16-1.08.69-1.23.63-.18,1.27-.36,1.9-.55.53-.16,1.09.14,1.25.67.16.53-.14,1.09-.67,1.25Zm13.18-5.11c-1.81.87-3.68,1.68-5.55,2.43-.12.05-.25.07-.37.07-.4,0-.77-.24-.93-.63-.21-.51.04-1.09.56-1.3,1.83-.73,3.66-1.53,5.43-2.38.5-.24,1.09-.03,1.33.47.24.5.03,1.1-.47,1.33Zm5.38-2.78c-.59.33-1.18.65-1.77.97-.15.08-.31.12-.47.12-.36,0-.7-.19-.88-.53-.26-.49-.07-1.09.41-1.35.58-.31,1.16-.62,1.74-.95.48-.27,1.09-.1,1.36.39.27.48.1,1.09-.39,1.36Zm11.79-7.8c-1.59,1.23-3.24,2.43-4.91,3.56-.17.12-.37.17-.56.17-.32,0-.64-.15-.83-.44-.31-.46-.19-1.08.27-1.39,1.63-1.11,3.25-2.28,4.81-3.48.44-.34,1.06-.26,1.4.18.34.44.26,1.06-.18,1.4Zm4.67-3.87c-.51.45-1.02.89-1.53,1.32-.19.16-.42.24-.65.24-.28,0-.57-.12-.76-.35-.36-.42-.3-1.05.12-1.41.5-.43,1-.86,1.5-1.3.41-.37,1.05-.33,1.41.09.37.41.33,1.05-.09,1.41Zm9.86-10.14c-1.29,1.55-2.65,3.07-4.04,4.53-.2.21-.46.31-.72.31-.25,0-.5-.09-.69-.28-.4-.38-.42-1.01-.04-1.41,1.36-1.43,2.69-2.92,3.95-4.43.35-.42.99-.48,1.41-.13.42.35.48.98.13,1.41Zm3.74-4.79c-.4.55-.8,1.09-1.21,1.62-.2.26-.49.39-.79.39-.21,0-.43-.07-.61-.21-.44-.34-.52-.96-.19-1.4.4-.52.8-1.05,1.19-1.59.33-.45.95-.54,1.4-.22.45.33.54.95.22,1.4Zm7.44-12.02c-.93,1.79-1.93,3.57-2.97,5.29-.19.31-.52.48-.86.48-.18,0-.35-.05-.52-.14-.47-.29-.62-.9-.34-1.37,1.02-1.68,1.99-3.42,2.9-5.17.25-.49.86-.68,1.35-.43.49.25.68.86.43,1.35Zm2.62-5.47c-.27.62-.55,1.23-.83,1.84-.17.36-.53.58-.91.58-.14,0-.28-.03-.42-.09-.5-.23-.72-.83-.48-1.33.28-.6.55-1.2.81-1.8.22-.5.81-.74,1.32-.51.51.22.74.81.51,1.32Zm4.69-13.33c-.53,1.95-1.12,3.9-1.77,5.8-.14.42-.53.68-.95.68-.11,0-.22-.02-.32-.05-.52-.18-.8-.75-.62-1.27.63-1.86,1.21-3.77,1.73-5.68.14-.53.69-.85,1.23-.7.53.14.85.69.7,1.23Zm1.4-5.9c-.13.66-.27,1.32-.42,1.98-.1.47-.52.78-.97.78-.07,0-.15,0-.22-.02-.54-.12-.88-.66-.76-1.19.15-.64.28-1.29.41-1.93.11-.54.64-.89,1.18-.78.54.11.89.64.78,1.18Zm1.27-7.98c-.06.51-.49.89-.99.89-.04,0-.08,0-.12,0-.55-.06-.94-.56-.88-1.11.23-1.96.39-3.95.49-5.91.03-.55.51-.98,1.05-.95.55.03.98.5.95,1.05-.1,2.01-.27,4.04-.5,6.04Zm.61-10.08c0,.55-.45.99-1,.99h0c-.55,0-1-.46-.99-1.01v-.55c0-.48,0-.95,0-1.42,0-.55.43-1.01.98-1.02h.02c.54,0,.99.44,1,.98,0,.48.01.97.01,1.45v.57Zm954.65,749.9l-65.85,10.99c-4.36.73-8.48-2.22-9.21-6.57l-10.99-65.85c-.73-4.36,2.22-8.48,6.57-9.21l65.85-10.99c4.36-.73,8.48,2.22,9.21,6.57l10.99,65.85c.73,4.36-2.22,8.48-6.57,9.21Z"/><path class="cls-1" d="m1226.25,674.49c-.6-1.77-1.86-3.2-3.53-4.03l-125.88-62.03c-.99-.49-2.05-.72-3.08-.72-2.58,0-5.07,1.43-6.29,3.9l-62.03,125.88c-1.71,3.46-.28,7.67,3.18,9.37l50.99,25.13h100.88l45.42-92.16c.83-1.68.95-3.58.35-5.35Z"/><path class="cls-3" d="m483.12,764.55h0c-5.3,3.67-12.6,3.83-17.9-.05-5.04-3.69-6.1-10.42-10.36-14.79-8.7-8.94-20-1.7-28.29,3.76-5.57,3.67-12.67,7.13-18.36,1.82-3.78-3.53-5.71-8.69-8.65-12.86-6.29-8.96-15.94-10.64-25.6-5.61-10.02,5.22-27.78,23.83-34.48,4.71-3.38-9.64-11.44-16.72-22.11-16.52-5.33.1-9.99,2.52-14.45,5.21-6.23,3.75-14.48,9.5-21.24,3.49-6.5-5.78-9.58-17.44-20.56-15.1-5.2,1.11-8.86,5.25-13.1,8.1-9.74,6.57-15.75-1.21-21.55-8.53-3.56-4.49-8.29-9.09-14.48-8.73-4.96.29-9.14,3.58-9.93,8.53-.54,3.38,4.71,4.3,5.25.9,1.02-6.44,8.63-3.86,11.78-1.03,2.43,2.18,4.15,5.02,6.14,7.57,3.67,4.71,7.97,8.76,14.22,9.26,4.55.36,8.54-1.46,12.18-4.02,4.06-2.85,9-8.78,14.56-6.53,4.46,1.81,6.88,7.8,9.83,11.28,3.04,3.59,6.77,6.02,11.6,6.23,12.66.55,21.03-13.78,33.83-10.9,6.76,1.52,10.82,6.34,13.03,12.65,1.61,4.6,3.6,8.61,8.3,10.64,11.38,4.94,21.16-4.25,29.8-10.17,5.49-3.76,13.08-7.11,19.05-2.41,4.05,3.19,6.13,8.48,8.9,12.69,5.36,8.15,13.35,11.6,22.67,7.36,6.73-3.06,12.39-9.5,19.93-10.6,8.68-1.27,10.46,7.46,14.29,13.04,2.9,4.22,7.14,6.92,11.77,8.05h10.03c2.44-.59,4.8-1.61,6.95-3.09,2.82-1.96-.25-6.31-3.07-4.35Z"/><path class="cls-3" d="m382.16,82.37c-1.56,1.21-3.17,2.38-4.81,3.48-.46.31-.58.93-.27,1.39.19.29.51.44.83.44.19,0,.39-.06.56-.17,1.67-1.13,3.32-2.33,4.91-3.56.44-.34.52-.97.18-1.4-.34-.44-.97-.52-1.4-.18Z"/><path class="cls-3" d="m370.61,90c-.58.32-1.15.64-1.74.95-.49.26-.67.86-.41,1.35.18.34.53.53.88.53.16,0,.32-.04.47-.12.59-.32,1.19-.64,1.77-.97.48-.27.65-.88.39-1.36-.27-.48-.88-.65-1.36-.39Z"/><path class="cls-3" d="m327.16,101.67h-.01c-1.96.03-3.96-.01-5.93-.11-.55-.03-1.02.4-1.05.95-.03.55.4,1.02.95,1.05,1.6.08,3.22.12,4.81.12.42,0,.83,0,1.25,0,.55,0,.99-.46.99-1.01,0-.55-.45-.99-1-.99Z"/><path class="cls-3" d="m365.35,92.73c-1.77.85-3.6,1.65-5.43,2.38-.51.21-.76.79-.56,1.3.16.39.53.63.93.63.12,0,.25-.02.37-.07,1.87-.75,3.74-1.57,5.55-2.43.5-.24.71-.83.47-1.33-.24-.5-.83-.71-1.33-.47Z"/><path class="cls-3" d="m333.06,101.4c-.65.05-1.31.1-1.97.13-.55.03-.97.5-.94,1.06.03.53.47.94,1,.94.02,0,.04,0,.06,0,.67-.04,1.34-.08,2.01-.14.55-.04.96-.53.92-1.08s-.52-.96-1.08-.92Z"/><path class="cls-3" d="m386.73,78.58c-.49.44-.99.87-1.5,1.3-.42.36-.47.99-.12,1.41.2.23.48.35.76.35.23,0,.46-.08.65-.24.51-.44,1.02-.88,1.53-1.32.41-.37.45-1,.09-1.41-.37-.41-1-.45-1.41-.09Z"/><path class="cls-3" d="m352.45,97.73c-.63.19-1.26.38-1.9.55-.53.15-.84.7-.69,1.23.12.44.53.73.96.73.09,0,.18-.01.27-.04.65-.18,1.29-.37,1.94-.57.53-.16.83-.72.67-1.25-.16-.53-.72-.83-1.25-.67Z"/><path class="cls-3" d="m346.73,99.27c-1.92.45-3.87.84-5.81,1.17-.54.09-.91.61-.82,1.15.08.49.51.84.99.84.05,0,.11,0,.17-.01,1.98-.33,3.98-.73,5.94-1.19.54-.13.87-.66.75-1.2-.13-.54-.67-.87-1.2-.75Z"/><path class="cls-3" d="m418.19,1.39s.07,0,.1,0c.55-.06.95-.55.89-1.1,0-.09-.02-.19-.03-.28h-2.01c.02.16.04.33.06.49.05.51.49.9.99.9Z"/><path class="cls-3" d="m418.61,13.37c-.54-.03-1.02.4-1.05.95-.1,1.97-.26,3.96-.49,5.91-.06.55.33,1.04.88,1.11.04,0,.08,0,.12,0,.5,0,.93-.38.99-.89.23-2,.4-4.03.5-6.04.03-.55-.4-1.02-.95-1.05Z"/><path class="cls-3" d="m418.67,7.37h-.02c-.55,0-.99.46-.98,1.02,0,.47.01.95.01,1.42v.55c0,.55.44,1,.99,1.01h0c.55,0,1-.44,1-.99v-.57c0-.48,0-.97,0-1.45,0-.55-.45-.98-1-.98Z"/><path class="cls-3" d="m417.02,27.26c-.54-.11-1.07.24-1.18.78-.13.65-.27,1.29-.41,1.93-.12.54.22,1.07.76,1.19.07.02.15.02.22.02.46,0,.87-.32.97-.78.15-.66.29-1.32.42-1.98.11-.54-.24-1.07-.78-1.18Z"/><path class="cls-3" d="m415.7,33.12c-.54-.15-1.08.17-1.23.7-.51,1.9-1.1,3.81-1.73,5.68-.18.52.1,1.09.62,1.27.11.04.22.05.32.05.42,0,.81-.26.95-.68.65-1.9,1.24-3.85,1.77-5.8.14-.53-.17-1.08-.7-1.23Z"/><path class="cls-3" d="m400.03,63.98c-.39.53-.79,1.06-1.19,1.59-.34.44-.25,1.07.19,1.4.18.14.4.21.61.21.3,0,.6-.14.79-.39.41-.54.81-1.08,1.21-1.62.33-.45.23-1.07-.22-1.4-.45-.33-1.07-.23-1.4.22Z"/><path class="cls-3" d="m396.38,68.66c-1.26,1.51-2.59,3-3.95,4.43-.38.4-.36,1.03.04,1.41.19.18.44.28.69.28.26,0,.53-.1.72-.31,1.39-1.46,2.75-2.98,4.04-4.53.35-.42.3-1.05-.13-1.41-.42-.35-1.06-.3-1.41.13Z"/><path class="cls-3" d="m411.2,46.35c-.51-.22-1.1,0-1.32.51-.27.6-.54,1.21-.81,1.8-.23.5-.02,1.1.48,1.33.14.06.28.09.42.09.38,0,.74-.21.91-.58.28-.61.56-1.22.83-1.84.22-.51,0-1.1-.51-1.32Z"/><path class="cls-3" d="m408.67,51.79c-.49-.25-1.09-.06-1.35.43-.91,1.75-1.88,3.49-2.9,5.17-.29.47-.13,1.09.34,1.37.16.1.34.14.52.14.34,0,.67-.17.86-.48,1.04-1.72,2.04-3.5,2.97-5.29.25-.49.06-1.09-.43-1.35Z"/><path class="cls-3" d="m276.48,87.27c-.56-.36-1.11-.72-1.66-1.08-.46-.31-1.08-.18-1.39.28-.31.46-.18,1.08.28,1.39.56.38,1.13.74,1.7,1.11.17.11.35.16.54.16.33,0,.65-.16.84-.46.3-.47.16-1.08-.31-1.38Z"/><path class="cls-3" d="m237.94,36.25c-.57-1.88-1.08-3.81-1.53-5.73-.12-.54-.66-.87-1.2-.75-.54.12-.87.66-.75,1.2.46,1.96.98,3.93,1.56,5.86.13.43.53.71.96.71.1,0,.19-.01.29-.04.53-.16.83-.72.67-1.25Z"/><path class="cls-3" d="m242.91,49.16c-.24-.5-.83-.71-1.33-.47-.5.24-.71.83-.47,1.33.86,1.82,1.79,3.63,2.77,5.39.18.33.52.51.88.51.16,0,.33-.04.48-.13.48-.27.66-.88.39-1.36-.96-1.72-1.87-3.5-2.71-5.28Z"/><path class="cls-3" d="m247.62,57.85c-.29-.47-.9-.62-1.38-.33-.47.29-.62.9-.33,1.38.35.57.71,1.14,1.07,1.71.19.3.51.46.84.46.19,0,.37-.05.54-.16.46-.3.6-.92.3-1.38-.36-.56-.71-1.11-1.05-1.68Z"/><path class="cls-3" d="m232.5.87c-.07.67-.12,1.34-.17,2.01-.04.55.37,1.03.92,1.07.03,0,.05,0,.08,0,.52,0,.96-.4,1-.92.05-.66.11-1.31.17-1.97.05-.52-.31-.97-.81-1.07h-.34c-.44.07-.79.41-.84.87Z"/><path class="cls-3" d="m253.23,65.99c-.34-.44-.97-.52-1.4-.18-.44.34-.52.97-.18,1.4,1.23,1.6,2.53,3.17,3.86,4.68.2.22.47.34.75.34.23,0,.47-.08.66-.25.41-.37.46-1,.09-1.41-1.3-1.48-2.57-3.02-3.78-4.58Z"/><path class="cls-3" d="m233.4,17.94c.55-.04.96-.52.92-1.07-.15-1.96-.24-3.95-.26-5.92,0-.55-.49-1.01-1.01-.99-.55,0-1,.46-.99,1.01.02,2.01.11,4.05.27,6.05.04.52.48.92,1,.92.03,0,.05,0,.08,0Z"/><path class="cls-3" d="m234.96,22.75c-.09-.65-.18-1.3-.26-1.96-.07-.55-.56-.94-1.11-.87-.55.07-.94.56-.87,1.11.08.67.17,1.33.26,2,.07.5.5.86.99.86.05,0,.09,0,.14,0,.55-.08.93-.58.85-1.13Z"/><path class="cls-3" d="m239.16,40.01c-.18-.52-.75-.8-1.27-.62-.52.18-.8.75-.62,1.27.22.64.45,1.27.69,1.9.15.4.53.65.94.65.12,0,.23-.02.35-.06.52-.19.78-.77.59-1.29-.23-.62-.45-1.24-.67-1.86Z"/><path class="cls-3" d="m294.18,96.02c-.62-.23-1.24-.46-1.85-.7-.51-.2-1.09.05-1.3.57-.2.51.05,1.09.57,1.3.63.25,1.26.48,1.89.72.11.04.23.06.34.06.41,0,.79-.25.94-.66.19-.52-.08-1.09-.59-1.28Z"/><path class="cls-3" d="m307.49,99.8c-1.8-.37-3.61-.8-5.38-1.27l-.39-.1c-.53-.15-1.08.17-1.23.7-.15.53.17,1.08.7,1.23l.4.11c1.81.49,3.66.92,5.5,1.3.07.01.14.02.2.02.46,0,.88-.33.98-.8.11-.54-.24-1.07-.78-1.18Z"/><path class="cls-3" d="m313.34,100.8c-.65-.09-1.3-.19-1.96-.29-.54-.09-1.06.28-1.15.83-.09.54.28,1.06.83,1.15.67.11,1.33.21,2,.3.05,0,.09,0,.14,0,.49,0,.92-.36.99-.86.08-.55-.31-1.05-.85-1.13Z"/><path class="cls-3" d="m266.91,80.24c-.42-.36-1.05-.3-1.41.12-.35.42-.3,1.05.12,1.41,1.55,1.3,3.15,2.56,4.77,3.75.18.13.39.19.59.19.31,0,.61-.14.81-.41.33-.45.23-1.07-.21-1.4-1.58-1.16-3.16-2.4-4.67-3.67Z"/><path class="cls-3" d="m288.68,93.8c-1.81-.8-3.6-1.66-5.35-2.57-.49-.25-1.09-.07-1.35.42-.26.49-.07,1.09.42,1.35,1.78.93,3.62,1.81,5.46,2.63.13.06.27.09.4.09.38,0,.75-.22.92-.6.22-.5,0-1.1-.51-1.32Z"/><path class="cls-3" d="m259.69,73.49c-.38-.4-1.02-.41-1.41-.03-.4.38-.41,1.02-.03,1.41.47.49.94.97,1.42,1.45.2.19.45.29.71.29s.51-.1.71-.29c.39-.39.39-1.02,0-1.41-.47-.47-.93-.94-1.39-1.41Z"/><path class="cls-3" d="m1227.2,674.17c-.69-2.02-2.12-3.66-4.04-4.6l-125.88-62.03c-3.96-1.95-8.76-.32-10.71,3.64l-62.03,125.88c-1.95,3.96-.32,8.76,3.64,10.71l49.17,24.23h2.26l-50.99-25.13c-3.46-1.71-4.89-5.91-3.18-9.37l62.03-125.88c1.22-2.47,3.71-3.9,6.29-3.9,1.04,0,2.09.23,3.08.72l125.88,62.03c1.68.83,2.93,2.26,3.53,4.03s.48,3.67-.35,5.35l-45.42,92.16h1.11l45.2-91.72c.95-1.92,1.09-4.09.4-6.11Z"/><rect class="cls-3" x="1293.21" y="683.57" width="82.76" height="82.76" rx="8" ry="8" transform="translate(-101.1 229.5) rotate(-9.47)"/></g></g></svg>