<?xml version="1.0" encoding="UTF-8"?><svg id="Layer_2" xmlns="http://www.w3.org/2000/svg" viewBox="0 0 473.06 25.35"><defs><style>.cls-1,.cls-2{fill:#c4c4c4;}.cls-2{isolation:isolate;}</style></defs><g id="Layer_1-2"><polygon class="cls-2" points="315.69 .42 330.81 .42 330.81 4.2 325.23 4.2 325.23 21.42 321.27 21.42 321.27 4.2 315.69 4.2 315.69 .42 315.69 .42"/><path class="cls-2" d="m347.29,2.25C345.93.75,344.04,0,341.62,0s-4.32.75-5.7,2.25c-1.36,1.5-2.04,3.61-2.04,6.33v4.68c0,2.8.68,4.93,2.04,6.39,1.38,1.46,3.28,2.19,5.7,2.19s4.31-.73,5.67-2.19c1.38-1.46,2.07-3.59,2.07-6.39v-4.68c0-2.72-.69-4.83-2.07-6.33Zm-1.89,11.25c0,.7-.06,1.34-.18,1.92s-.33,1.08-.63,1.5c-.3.42-.69.75-1.17.99-.48.22-1.08.33-1.8.33s-1.32-.11-1.8-.33c-.48-.24-.87-.57-1.17-.99-.3-.42-.51-.92-.63-1.5s-.18-1.22-.18-1.92v-5.16c0-.66.07-1.28.21-1.86s.36-1.08.66-1.5.69-.75,1.17-.99c.48-.26,1.06-.39,1.74-.39s1.26.13,1.74.39c.48.24.87.57,1.17.99s.52.92.66,1.5.21,1.2.21,1.86v5.16Z"/><path class="cls-2" d="m358.61,10.8h9v10.62h-3.6v-2.34h-.54c-.24.78-.7,1.44-1.38,1.98-.68.52-1.7.78-3.06.78-.96,0-1.86-.18-2.7-.54s-1.57-.89-2.19-1.59c-.62-.72-1.11-1.6-1.47-2.64-.36-1.06-.54-2.29-.54-3.69v-4.92c0-1.36.19-2.56.57-3.6.4-1.06.94-1.95,1.62-2.67.7-.72,1.53-1.26,2.49-1.62C357.77.19,358.83,0,359.99,0s2.27.2,3.21.6c.94.38,1.74.92,2.4,1.62.66.68,1.16,1.49,1.5,2.43.34.92.51,1.91.51,2.97v.36h-3.96v-.36c0-1.26-.33-2.21-.99-2.85-.64-.66-1.55-.99-2.73-.99s-2.04.38-2.76,1.14c-.72.74-1.08,2.02-1.08,3.84v4.44c0,3.24,1.32,4.86,3.96,4.86,1.18,0,2.07-.31,2.67-.93.62-.64.93-1.49.93-2.55h-5.04v-3.78h0Z"/><polygon class="cls-2" points="371.64 .42 384.9 .42 384.9 4.2 375.6 4.2 375.6 9 384.54 9 384.54 12.78 375.6 12.78 375.6 17.64 385.26 17.64 385.26 21.42 371.64 21.42 371.64 .42 371.64 .42"/><polygon class="cls-2" points="389.17 .42 404.29 .42 404.29 4.2 398.71 4.2 398.71 21.42 394.75 21.42 394.75 4.2 389.17 4.2 389.17 .42 389.17 .42"/><polygon class="cls-2" points="407.75 .42 411.71 .42 411.71 9 418.49 9 418.49 .42 422.45 .42 422.45 21.42 418.49 21.42 418.49 12.78 411.71 12.78 411.71 21.42 407.75 21.42 407.75 .42"/><polygon class="cls-2" points="426.75 .42 440.01 .42 440.01 4.2 430.71 4.2 430.71 9 439.65 9 439.65 12.78 430.71 12.78 430.71 17.64 440.37 17.64 440.37 21.42 426.75 21.42 426.75 .42 426.75 .42"/><path class="cls-2" d="m458.8,9.36c.46-.76.69-1.57.69-2.43v-.72c0-.8-.15-1.55-.45-2.25-.28-.7-.7-1.31-1.26-1.83-.54-.54-1.22-.96-2.04-1.26s-1.77-.45-2.85-.45h-8.04v21h3.96v-7.92h4.56c.58,0,.99.15,1.23.45.26.3.39.69.39,1.17v6.3h3.96v-7.26c0-.7-.21-1.28-.63-1.74-.4-.46-.95-.73-1.65-.81v-.54c.96-.4,1.67-.97,2.13-1.71Zm-3.27-2.22c0,.82-.25,1.46-.75,1.92-.5.44-1.23.66-2.19.66h-3.78v-5.52h3.78c.96,0,1.69.26,2.19.78.5.5.75,1.1.75,1.8v.36Z"/><path class="cls-2" d="m467.36,18.99c0-.38.07-.74.21-1.08.16-.36.37-.66.63-.9.26-.26.56-.46.9-.6.34-.16.71-.24,1.11-.24s.74.08,1.08.24c.36.14.67.34.93.6.26.24.46.54.6.9.16.34.24.7.24,1.08v3.66c0,.76-.26,1.4-.78,1.92-.5.52-1.13.78-1.89.78h-1.92v-2.34h1.44c.54,0,.81-.3.81-.9v-.36c-.16.06-.33.09-.51.09-.4,0-.77-.08-1.11-.24-.34-.14-.64-.34-.9-.6-.26-.26-.47-.56-.63-.9-.14-.34-.21-.71-.21-1.11h0Z"/><polygon class="cls-1" points="75.7 .42 75.7 21.42 89.2 21.42 89.2 17.64 79.66 17.64 79.66 .42 75.7 .42"/><path class="cls-1" d="m45.38,6.84h-1.44v2.34h1.92c.76,0,1.39-.26,1.89-.78.52-.52.78-1.16.78-1.92v-3.66c0-.38-.08-.74-.24-1.08-.14-.36-.34-.66-.6-.9-.26-.26-.57-.46-.93-.6-.34-.16-.7-.24-1.08-.24-.4,0-.77.08-1.11.24-.34.14-.64.34-.9.6-.26.24-.47.54-.63.9-.14.34-.21.7-.21,1.08,0,.4.07.77.21,1.11.16.34.37.64.63.9.26.26.56.47.9.63.34.14.71.21,1.11.21.18,0,.35-.03.51-.09v.36c0,.6-.27.9-.81.9Z"/><polygon class="cls-1" points="57.33 .42 57.33 21.42 70.83 21.42 70.83 17.64 61.29 17.64 61.29 .42 57.33 .42"/><polygon class="cls-1" points="117.6 .42 110.64 .42 110.64 21.42 114.24 21.42 114.24 7.38 113.88 2.58 114.6 2.58 116.22 21.42 122.16 21.42 123.72 2.58 124.44 2.58 124.08 7.38 124.08 21.42 127.68 21.42 127.68 .42 120.72 .42 119.52 16.2 119.52 19.26 118.8 19.26 118.8 16.2 117.6 .42"/><polygon class="cls-1" points="33.85 4.2 33.85 .42 20.59 .42 20.59 21.42 34.21 21.42 34.21 17.64 24.55 17.64 24.55 12.78 33.49 12.78 33.49 9 24.55 9 24.55 4.2 33.85 4.2"/><polygon class="cls-1" points="3.6 .42 0 .42 .72 21.42 7.62 21.42 8.58 5.46 8.58 2.58 9.3 2.58 9.3 5.46 10.26 21.42 17.16 21.42 17.88 .42 14.28 .42 13.8 16.38 13.8 19.08 13.08 19.08 13.08 16.38 12.12 .42 5.76 .42 4.8 16.38 4.8 19.08 4.08 19.08 4.08 16.38 3.6 .42"/><polygon class="cls-1" points="205.66 .42 202.06 .42 202.78 21.42 209.68 21.42 210.64 5.46 210.64 2.58 211.36 2.58 211.36 5.46 212.32 21.42 219.22 21.42 219.94 .42 216.34 .42 215.86 16.38 215.86 19.08 215.14 19.08 215.14 16.38 214.18 .42 207.82 .42 206.86 16.38 206.86 19.08 206.14 19.08 206.14 16.38 205.66 .42"/><polygon class="cls-1" points="256.2 .42 252.12 .42 248.01 19.44 247.47 19.44 243.36 .42 239.28 .42 244.02 21.42 251.46 21.42 256.2 .42"/><path class="cls-1" d="m232.94,16.92l1.02,4.5h4.14L233.09.42h-7.44l-5.01,21h4.14l1.02-4.5h7.14Zm-3.84-14.52h.54l2.43,10.74h-5.43l2.46-10.74Z"/><polygon class="cls-1" points="272.65 4.2 272.65 .42 259.39 .42 259.39 21.42 273.01 21.42 273.01 17.64 263.35 17.64 263.35 12.78 272.29 12.78 272.29 9 263.35 9 263.35 4.2 272.65 4.2"/><polygon class="cls-1" points="149.03 .42 149.03 21.42 152.98 21.42 152.98 12.81 153.86 12.81 159.59 21.42 164.23 21.42 164.23 21.24 157.4 11.19 157.4 10.65 163.87 .6 163.87 .42 159.41 .42 153.86 9.03 152.98 9.03 152.98 .42 149.03 .42"/><path class="cls-1" d="m141.1,16.92l1.02,4.5h4.14L141.25.42h-7.44l-5.01,21h4.14l1.02-4.5h7.14,0Zm-3.84-14.52h.54l2.43,10.74h-5.43l2.46-10.74Z"/><polygon class="cls-1" points="180.8 4.2 180.8 .42 167.54 .42 167.54 21.42 181.16 21.42 181.16 17.64 171.5 17.64 171.5 12.78 180.44 12.78 180.44 9 171.5 9 171.5 4.2 180.8 4.2"/><path class="cls-1" d="m285.62,8.88c-.88-.16-1.61-.33-2.19-.51-.56-.18-1.02-.38-1.38-.6-.34-.24-.58-.5-.72-.78-.14-.3-.21-.63-.21-.99,0-.7.29-1.25.87-1.65.58-.42,1.37-.63,2.37-.63,1.18,0,2.09.31,2.73.93.66.62.99,1.35.99,2.19v.72h3.96v-1.08c0-.86-.17-1.68-.51-2.46-.32-.78-.81-1.47-1.47-2.07-.64-.6-1.44-1.07-2.4-1.41C286.7.18,285.6,0,284.36,0c-1.1,0-2.1.15-3,.45-.88.3-1.64.72-2.28,1.26-.62.54-1.11,1.18-1.47,1.92-.34.72-.51,1.51-.51,2.37v.18c0,1.04.18,1.92.54,2.64.36.72.86,1.32,1.5,1.8.66.48,1.43.87,2.31,1.17.88.28,1.85.51,2.91.69.8.14,1.46.31,1.98.51.52.2.93.43,1.23.69.3.24.51.52.63.84.12.3.18.62.18.96,0,.72-.29,1.34-.87,1.86-.58.52-1.47.78-2.67.78-1.54,0-2.68-.37-3.42-1.11-.72-.76-1.08-1.77-1.08-3.03v-.72h-3.96v.9c0,1.1.18,2.12.54,3.06.36.92.89,1.73,1.59,2.43.7.68,1.57,1.22,2.61,1.62,1.06.38,2.28.57,3.66.57,1.18,0,2.24-.15,3.18-.45.94-.3,1.74-.73,2.4-1.29s1.16-1.23,1.5-2.01c.36-.8.54-1.69.54-2.67v-.36c0-1.84-.58-3.23-1.74-4.17-1.16-.94-2.84-1.61-5.04-2.01Z"/></g></svg>