<?xml version="1.0" encoding="UTF-8"?><svg id="Layer_2" xmlns="http://www.w3.org/2000/svg" viewBox="0 0 1440.62 139.61"><defs><style>.cls-1{opacity:.1;}.cls-2{fill:#c4c4c4;}</style></defs><g id="Layer_1-2"><g class="cls-1"><path class="cls-2" d="m21.61,35.96l-6.71,1.62-4.68-15.29-.68-2.8-.7.17.68,2.8,2.81,15.74-6.71,1.62L0,19.57l3.5-.84,4.21,15.4.63,2.62.7-.17-.63-2.62-2.81-15.74,6.18-1.49,4.68,15.29.63,2.62.7-.17-.63-2.62-3.28-15.63,3.5-.84,4.23,20.58Z"/><path class="cls-2" d="m23.71,13.92l12.98-2.73.78,3.7-9.1,1.91.99,4.7,8.75-1.84.78,3.7-8.75,1.84,1,4.76,9.45-1.99.78,3.7-13.33,2.8-4.32-20.55Z"/><path class="cls-2" d="m48.17,11.4c-.07-.37-.06-.74.02-1.1.09-.38.25-.71.46-1,.21-.3.47-.55.78-.75.31-.22.66-.36,1.05-.43.37-.07.74-.05,1.11.05.38.08.72.22,1.02.43.3.19.55.45.75.78.22.31.36.65.42,1.02l.64,3.6c.13.75-.01,1.42-.43,2.03-.4.6-.98.96-1.73,1.1l-1.89.33-.41-2.3,1.42-.25c.53-.09.75-.44.64-1.03l-.06-.35c-.15.09-.31.15-.49.18-.39.07-.77.06-1.13-.01-.36-.1-.69-.25-1-.46-.3-.21-.56-.47-.78-.78-.2-.31-.33-.66-.4-1.06Z"/><path class="cls-2" d="m66.53,5.83l3.92-.54,2.34,17.06,9.45-1.3.51,3.74-13.37,1.83-2.85-20.81Z"/><path class="cls-2" d="m87.68,3.01l3.94-.38,1.64,17.14,9.5-.91.36,3.76-13.44,1.28-2-20.91Z"/><path class="cls-2" d="m116.17.57l6.96-.21,1.68,15.74.09,3.06.72-.02-.09-3.06.72-15.81,6.96-.21.64,20.99-3.6.11-.43-14.03.21-4.81-.72.02-.99,18.88-5.94.18-2.19-18.78-.72.02.51,4.79.43,14.03-3.6.11-.64-20.99Z"/><path class="cls-2" d="m150.12,16.65l-7.14-.15-1.11,4.48-4.14-.08,5.44-20.89,7.44.15,4.58,21.1-4.14-.08-.93-4.52Zm-6.22-3.91l5.43.11-2.21-10.79h-.54s-2.68,10.68-2.68,10.68Z"/><path class="cls-2" d="m165.05,21.76l-3.95-.3,1.57-20.94,3.95.3-.64,8.59.87.06,6.18-8.17,4.46.33v.18s-7.23,9.54-7.23,9.54l-.04.54,6.07,10.53v.18s-4.65-.35-4.65-.35l-5.07-9.01-.87-.07-.64,8.59Z"/><path class="cls-2" d="m185.86,2.44l13.15,1.69-.48,3.75-9.22-1.18-.61,4.76,8.87,1.14-.48,3.75-8.87-1.14-.62,4.82,9.58,1.23-.48,3.75-13.51-1.74,2.68-20.83Z"/><path class="cls-2" d="m227.32,30.39l-6.77-1.33,2.15-15.84.56-2.83-.71-.14-.56,2.83-4.03,15.47-6.77-1.34,3.36-20.74,3.53.7-2.62,15.75-.52,2.65.71.14.52-2.65,4.03-15.47,6.24,1.23-2.15,15.84-.52,2.65.71.14.52-2.65,3.56-15.57,3.53.7-4.77,20.46Z"/><path class="cls-2" d="m243.41,29.49l-6.94-1.68-2.05,4.13-4.02-.97,9.8-19.23,7.23,1.75-.07,21.59-4.02-.97.07-4.61Zm-5.24-5.15l5.28,1.28.16-11.01-.52-.13-4.91,9.86Z"/><path class="cls-2" d="m257.45,15.95l3.92,1.12-1.25,19.42.52.15,9.16-17.17,3.92,1.12-10.31,18.9-7.16-2.04,1.19-21.5Z"/><path class="cls-2" d="m280.16,22.51l12.62,4.07-1.16,3.6-8.85-2.85-1.47,4.57,8.51,2.74-1.16,3.6-8.51-2.74-1.49,4.63,9.19,2.96-1.16,3.6-12.96-4.18,6.44-19.99Z"/><path class="cls-2" d="m308.09,38.64c.28-.79.21-1.59-.2-2.39-.4-.8-1.15-1.39-2.26-1.79-.94-.33-1.76-.4-2.44-.2-.68.18-1.14.6-1.37,1.26-.12.34-.17.67-.13,1,.04.31.18.64.42.98.27.33.63.67,1.1,1.03.49.36,1.12.77,1.89,1.21,1.94,1.11,3.3,2.3,4.08,3.58.78,1.27.86,2.78.25,4.51l-.12.34c-.33.92-.79,1.7-1.4,2.34-.58.62-1.28,1.09-2.08,1.39-.81.31-1.71.45-2.69.41-.99-.03-2.04-.24-3.15-.64-1.3-.46-2.39-1.05-3.26-1.76-.85-.72-1.49-1.52-1.92-2.4-.43-.89-.65-1.83-.69-2.82-.02-1.01.15-2.03.51-3.06l.3-.85,3.73,1.32-.24.68c-.42,1.19-.42,2.26,0,3.22.45.94,1.4,1.67,2.85,2.19,1.13.4,2.06.45,2.78.16.72-.3,1.2-.78,1.44-1.46.11-.32.16-.64.15-.97,0-.34-.11-.68-.31-1-.2-.35-.51-.7-.93-1.06-.42-.36-.99-.74-1.7-1.14-.94-.52-1.78-1.06-2.51-1.62-.73-.58-1.32-1.2-1.79-1.87-.44-.67-.71-1.4-.81-2.2-.1-.8.03-1.69.37-2.67l.06-.17c.29-.81.71-1.5,1.27-2.06.59-.58,1.26-1.02,2.03-1.32.78-.3,1.64-.44,2.57-.43.95.02,1.94.21,2.98.58,1.17.41,2.14.95,2.93,1.61.79.64,1.39,1.35,1.79,2.13.42.79.65,1.6.69,2.44.06.85-.05,1.68-.34,2.49l-.36,1.02-3.73-1.32.24-.68Z"/><path class="cls-2" d="m337.94,42.94l14.05,5.58-1.4,3.51-5.18-2.06-6.36,16-3.68-1.46,6.36-16-5.19-2.06,1.4-3.51Z"/><path class="cls-2" d="m353.58,57.95c1.03-2.52,2.46-4.21,4.29-5.08,1.85-.86,3.89-.84,6.13.08,2.24.92,3.7,2.33,4.39,4.23.71,1.91.55,4.13-.48,6.64l-1.77,4.33c-1.06,2.59-2.51,4.3-4.34,5.13-1.81.84-3.84.79-6.08-.12-2.24-.92-3.72-2.31-4.44-4.19-.7-1.87-.53-4.1.53-6.69l1.77-4.33Zm3.5,11.87c.67.27,1.26.4,1.79.38.54-.04,1.02-.2,1.46-.47.44-.27.82-.66,1.15-1.15.33-.49.63-1.06.89-1.71l1.96-4.78c.25-.61.42-1.21.51-1.8.09-.59.08-1.14-.04-1.64-.12-.5-.35-.96-.71-1.36-.35-.42-.83-.76-1.46-1.02-.63-.26-1.21-.36-1.76-.3-.54.04-1.02.2-1.46.47-.44.28-.83.65-1.18,1.14-.35.48-.65,1.03-.9,1.64l-1.96,4.78c-.27.65-.45,1.26-.56,1.84-.11.58-.1,1.12.01,1.63.12.5.35.96.71,1.36.36.39.88.71,1.54.99Z"/><path class="cls-2" d="m378.97,70.79l8.32,3.44-4.06,9.81-3.33-1.38.89-2.16-.5-.21c-.52.63-1.2,1.06-2.03,1.3-.83.22-1.87.07-3.12-.45-.89-.37-1.65-.88-2.29-1.53-.64-.65-1.11-1.42-1.41-2.31-.3-.9-.41-1.9-.35-3,.07-1.12.38-2.32.91-3.62l1.88-4.55c.52-1.26,1.15-2.29,1.9-3.11.77-.83,1.61-1.44,2.52-1.85.92-.4,1.9-.58,2.92-.54,1.03.02,2.08.25,3.16.69,1.11.46,2.02,1.05,2.74,1.78.72.71,1.26,1.52,1.6,2.41.35.88.5,1.82.46,2.82-.04.98-.26,1.96-.67,2.94l-.14.33-3.66-1.51.14-.33c.48-1.16.54-2.17.17-3.01-.34-.85-1.05-1.51-2.14-1.96-1.04-.43-2.03-.43-2.99,0-.95.41-1.77,1.45-2.47,3.13l-1.7,4.1c-1.24,2.99-.64,5,1.8,6.01,1.09.45,2.03.51,2.82.16.82-.35,1.43-1.02,1.83-2l-4.66-1.93,1.45-3.49Z"/><path class="cls-2" d="m398.09,67.48l12.27,5.03-1.43,3.5-8.61-3.53-1.82,4.44,8.27,3.39-1.43,3.5-8.27-3.39-1.84,4.5,8.94,3.66-1.43,3.5-12.6-5.16,7.96-19.43Z"/><path class="cls-2" d="m417.17,75.3l14.05,5.58-1.39,3.51-5.19-2.06-6.35,16.01-3.68-1.46,6.35-16.01-5.19-2.06,1.39-3.51Z"/><path class="cls-2" d="m437.11,83.19l3.71,1.39-3.01,8.03,6.35,2.38,3.01-8.03,3.71,1.39-7.38,19.66-3.71-1.39,3.03-8.09-6.35-2.38-3.03,8.09-3.71-1.39,7.38-19.66Z"/><path class="cls-2" d="m457.41,90.76l12.53,4.33-1.23,3.57-8.79-3.03-1.57,4.54,8.45,2.92-1.23,3.57-8.45-2.92-1.59,4.59,9.13,3.15-1.23,3.57-12.87-4.44,6.85-19.85Z"/><path class="cls-2" d="m484.25,121.68l-3.79-1.16,1.85-6.02c.14-.46.13-.87-.03-1.23-.14-.36-.49-.62-1.04-.79l-4.36-1.34-2.33,7.57-3.78-1.16,6.17-20.07,7.68,2.36c1.03.32,1.9.74,2.59,1.27.7.53,1.22,1.13,1.58,1.8.38.66.61,1.37.67,2.12.08.76,0,1.52-.23,2.28l-.21.69c-.25.82-.71,1.53-1.37,2.12-.66.57-1.5.91-2.54,1.01l-.16.52c.65.28,1.09.7,1.34,1.26.27.56.3,1.18.09,1.85l-2.13,6.94Zm-6.25-14.16l3.61,1.11c.92.28,1.68.29,2.29.01.61-.29,1.04-.83,1.28-1.61l.11-.34c.21-.67.14-1.32-.19-1.94-.33-.64-.95-1.11-1.86-1.39l-3.61-1.11-1.62,5.28Z"/><path class="cls-2" d="m496.23,122.57c.1-.37.26-.7.48-.99.25-.31.52-.54.84-.71.32-.19.66-.3,1.02-.35.37-.07.75-.05,1.13.05.37.1.7.27.98.51.31.23.56.5.75.82.19.3.31.64.35,1.02.07.37.05.74-.04,1.11l-.93,3.54c-.19.74-.61,1.29-1.24,1.66-.62.38-1.29.47-2.03.27l-1.86-.49.59-2.26,1.39.37c.52.14.86-.08,1.01-.66l.09-.35c-.17.02-.34,0-.52-.04-.39-.1-.72-.27-1.01-.51-.29-.22-.53-.49-.72-.81-.18-.32-.31-.66-.38-1.03-.05-.37-.02-.74.08-1.13Z"/><path class="cls-2" d="m537.41,134.28l-6.78-1.27,2-15.86.53-2.83-.71-.13-.53,2.83-3.89,15.51-6.78-1.27,3.17-20.77,3.54.66-2.47,15.77-.5,2.65.71.13.5-2.65,3.89-15.51,6.25,1.17-2,15.86-.5,2.65.71.13.5-2.65,3.42-15.6,3.54.66-4.58,20.51Z"/><path class="cls-2" d="m545.77,114.44l13.15,1.73-.49,3.75-9.22-1.22-.63,4.76,8.86,1.17-.49,3.75-8.86-1.17-.64,4.82,9.58,1.26-.49,3.75-13.5-1.78,2.75-20.82Z"/><path class="cls-2" d="m571.46,119.87c.03-.38.12-.73.28-1.06.18-.35.42-.63.69-.85.28-.24.59-.42.94-.54.35-.14.73-.19,1.12-.16.38.03.73.13,1.06.31.35.16.64.38.89.66.24.26.42.57.54.94.14.35.19.72.17,1.09l-.25,3.65c-.05.76-.36,1.38-.91,1.86-.53.48-1.18.7-1.94.65l-1.91-.13.16-2.34,1.44.1c.54.04.83-.24.87-.84l.02-.36c-.16.05-.33.07-.52.05-.4-.03-.76-.12-1.09-.29-.33-.18-.61-.41-.85-.69-.24-.28-.43-.59-.57-.94-.12-.35-.16-.72-.13-1.12Z"/><path class="cls-2" d="m588.71,118.53l3.96.02-.11,17.22,9.54.06-.02,3.78-13.5-.09.13-21Z"/><path class="cls-2" d="m610.37,118.51l3.95-.26,1.12,17.18,9.52-.62.25,3.77-13.47.88-1.37-20.96Z"/><path class="cls-2" d="m637.71,116.29l6.86-1.15,3.79,15.37.51,3.02.71-.12-.51-3.02-1.42-15.76,6.86-1.15,3.47,20.71-3.55.6-2.32-13.85-.44-4.79-.71.12,1.57,18.84-5.86.98-4.71-18.31-.71.12,1.15,4.67,2.32,13.85-3.55.59-3.47-20.71Z"/><path class="cls-2" d="m673.47,126.16l-6.94,1.66.05,4.61-4.03.96v-21.59s7.23-1.73,7.23-1.73l9.76,19.26-4.03.96-2.04-4.14Zm-7.01-2.21l5.28-1.26-4.86-9.88-.53.13.1,11.02Z"/><path class="cls-2" d="m690.02,126.4l-3.78,1.17-6.18-20.07,3.78-1.17,2.54,8.23.83-.26,2.77-9.86,4.27-1.32.05.17-3.23,11.51.16.52,9.5,7.59.05.17-4.44,1.37-8.01-6.54-.83.26,2.53,8.23Z"/><path class="cls-2" d="m699.72,101.33l12.44-4.59,1.31,3.55-8.72,3.22,1.66,4.5,8.39-3.09,1.31,3.55-8.39,3.09,1.68,4.56,9.06-3.34,1.31,3.55-12.78,4.71-7.27-19.7Z"/><path class="cls-2" d="m750.51,103.51l-6.32,2.77-7.28-14.24-1.15-2.64-.66.29,1.15,2.64,5.52,15.01-6.32,2.77-9.08-18.95,3.3-1.44,6.84,14.43,1.08,2.47.66-.29-1.08-2.47-5.52-15.01,5.83-2.55,7.28,14.24,1.08,2.47.66-.29-1.08-2.47-5.96-14.81,3.3-1.44,7.76,19.53Z"/><path class="cls-2" d="m762.99,92.8l-6.47,3.02.98,4.51-3.75,1.75-4.34-21.15,6.74-3.15,13.42,16.91-3.75,1.75-2.83-3.65Zm-7.31-.76l4.92-2.3-6.74-8.7-.49.23,2.31,10.77Z"/><path class="cls-2" d="m764.91,73.66l3.68-1.77,11.94,15.36.49-.23-4.53-18.92,3.68-1.77,4.82,20.98-6.71,3.22-13.37-16.87Z"/><path class="cls-2" d="m786.47,63.28l11.97-5.71,1.63,3.41-8.4,4,2.07,4.33,8.07-3.85,1.63,3.41-8.07,3.85,2.09,4.39,8.72-4.16,1.63,3.41-12.29,5.86-9.04-18.96Z"/><path class="cls-2" d="m817.4,55.84c-.35-.76-.95-1.29-1.81-1.58-.84-.3-1.8-.2-2.87.29-.91.42-1.54.94-1.89,1.56-.36.61-.4,1.23-.1,1.86.15.33.35.6.6.81.24.2.57.33.98.41.42.05.92.04,1.5-.03.6-.08,1.34-.23,2.2-.45,2.17-.55,3.97-.64,5.42-.27,1.45.37,2.55,1.4,3.32,3.07l.15.33c.41.89.61,1.78.62,2.65.01.85-.16,1.67-.53,2.45-.37.78-.92,1.51-1.65,2.17-.73.66-1.63,1.24-2.7,1.73-1.26.57-2.44.91-3.57,1-1.11.07-2.13-.06-3.05-.39-.93-.35-1.75-.86-2.46-1.55-.72-.71-1.31-1.56-1.76-2.56l-.37-.82,3.6-1.65.3.65c.52,1.15,1.27,1.91,2.24,2.31.98.37,2.17.23,3.57-.41,1.09-.5,1.79-1.11,2.1-1.82.31-.71.32-1.4.02-2.05-.14-.31-.33-.58-.56-.8-.24-.24-.55-.41-.92-.5-.38-.11-.85-.15-1.4-.12-.56.03-1.23.15-2.01.36-1.04.28-2.02.47-2.93.58-.92.09-1.79.06-2.59-.1-.78-.17-1.49-.51-2.11-1.01-.63-.51-1.16-1.23-1.59-2.18l-.08-.16c-.36-.78-.53-1.57-.52-2.37.02-.82.2-1.61.54-2.36.36-.76.87-1.46,1.55-2.09.69-.65,1.54-1.2,2.54-1.66,1.13-.52,2.2-.81,3.23-.88,1.02-.09,1.94,0,2.77.28.85.27,1.58.7,2.2,1.27.63.57,1.13,1.24,1.49,2.03l.45.98-3.6,1.65-.3-.65Z"/><path class="cls-2" d="m840.7,38.66l14.11-5.44,1.36,3.53-5.21,2.01,6.19,16.07-3.7,1.42-6.19-16.07-5.21,2.01-1.36-3.53Z"/><path class="cls-2" d="m864.66,38.23c-.85-2.58-.87-4.8-.05-6.65.84-1.86,2.41-3.17,4.71-3.93,2.3-.76,4.33-.64,6.09.36,1.78.99,3.1,2.78,3.95,5.36l1.47,4.44c.88,2.66.89,4.9.04,6.72-.83,1.81-2.4,3.1-4.7,3.86-2.3.76-4.33.66-6.1-.29-1.75-.96-3.06-2.77-3.94-5.43l-1.47-4.44Zm10.38,6.74c.68-.23,1.22-.52,1.6-.88.38-.38.65-.81.8-1.31.15-.49.2-1.03.13-1.62-.07-.59-.21-1.21-.43-1.88l-1.62-4.9c-.21-.63-.47-1.19-.78-1.7-.32-.51-.68-.91-1.1-1.22-.42-.3-.89-.5-1.42-.57-.54-.1-1.13-.04-1.77.18-.65.21-1.16.52-1.53.92-.38.38-.65.81-.8,1.31-.15.49-.2,1.04-.16,1.63.05.59.18,1.21.39,1.83l1.62,4.9c.22.66.48,1.25.77,1.77.3.51.65.92,1.07,1.23.42.3.89.5,1.42.57.52.06,1.13-.03,1.81-.25Z"/><path class="cls-2" d="m892.21,31.9l8.69-2.35,2.78,10.25-3.48.94-.61-2.26-.52.14c-.03.82-.3,1.57-.81,2.27-.52.68-1.44,1.2-2.75,1.55-.93.25-1.84.31-2.75.18-.91-.13-1.75-.45-2.53-.96-.79-.53-1.49-1.25-2.11-2.16-.62-.93-1.12-2.07-1.48-3.42l-1.29-4.75c-.36-1.31-.49-2.52-.39-3.62.11-1.13.4-2.13.87-3,.49-.88,1.15-1.62,1.98-2.21.83-.62,1.8-1.08,2.92-1.38,1.16-.31,2.24-.4,3.26-.26,1.01.12,1.92.43,2.74.94.82.48,1.51,1.13,2.08,1.95.57.8.99,1.71,1.27,2.73l.09.35-3.82,1.04-.09-.35c-.33-1.22-.9-2.05-1.7-2.49-.79-.47-1.76-.55-2.89-.24-1.08.29-1.87.9-2.37,1.82-.5.9-.51,2.23-.04,3.99l1.16,4.29c.85,3.13,2.54,4.35,5.09,3.66,1.14-.31,1.92-.84,2.33-1.6.43-.78.51-1.68.23-2.7l-4.87,1.32-.99-3.65Z"/><path class="cls-2" d="m905.38,17.72l12.98-2.71.77,3.7-9.1,1.9.98,4.7,8.75-1.83.77,3.7-8.75,1.83.99,4.76,9.45-1.98.77,3.7-13.33,2.79-4.3-20.56Z"/><path class="cls-2" d="m925.38,13.61l14.96-2.21.55,3.74-5.52.81,2.51,17.04-3.92.58-2.51-17.04-5.52.81-.55-3.74Z"/><path class="cls-2" d="m948.43,10.36l3.95-.33.72,8.55,6.76-.57-.72-8.55,3.95-.33,1.77,20.93-3.95.33-.73-8.61-6.76.57.73,8.61-3.95.33-1.77-20.93Z"/><path class="cls-2" d="m969.48,8.67l13.25-.37.11,3.78-9.3.26.14,4.8,8.94-.25.11,3.78-8.94.25.14,4.86,9.66-.27.11,3.78-13.61.38-.59-20.99Z"/><path class="cls-2" d="m1007.6,29.58l-3.95-.11.17-6.3c.01-.48-.1-.87-.36-1.18-.23-.31-.63-.47-1.21-.48l-4.56-.13-.22,7.92-3.96-.11.58-20.99,8.04.22c1.08.03,2.03.21,2.84.53s1.48.76,2,1.32c.55.54.95,1.16,1.21,1.86.28.71.41,1.46.39,2.26l-.02.72c-.03.86-.28,1.66-.76,2.41-.48.73-1.21,1.28-2.18,1.65v.54c.69.1,1.23.38,1.61.86.41.47.61,1.06.59,1.76l-.21,7.26Zm-9.81-11.98l3.78.1c.96.03,1.7-.17,2.21-.6.51-.45.78-1.08.8-1.9v-.36c.03-.7-.2-1.31-.69-1.82-.48-.53-1.21-.81-2.16-.84l-3.78-.1-.16,5.52Z"/><path class="cls-2" d="m1017.52,27.7c.03-.38.13-.73.3-1.06.19-.35.43-.63.71-.84.28-.24.59-.41.95-.52.35-.13.72-.18,1.12-.14.38.03.73.14,1.06.33.34.17.64.4.87.68.24.26.41.58.52.95.13.35.18.72.15,1.1l-.32,3.65c-.06.76-.37,1.37-.94,1.85-.54.48-1.19.68-1.95.61l-1.91-.16.2-2.33,1.44.12c.53.05.83-.23.88-.83l.03-.36c-.16.05-.34.06-.52.05-.39-.03-.76-.15-1.08-.33-.33-.17-.61-.39-.85-.68-.23-.28-.42-.6-.55-.95-.11-.35-.14-.73-.11-1.12Z"/><path class="cls-2" d="m1057.52,36.06l-6.75-1.43,2.38-15.81.59-2.82-.7-.15-.6,2.82-4.26,15.41-6.74-1.43,3.66-20.69,3.52.75-2.85,15.71-.56,2.64.7.15.56-2.64,4.26-15.41,6.22,1.32-2.38,15.81-.56,2.64.71.15.56-2.64,3.78-15.51,3.53.75-5.07,20.39Z"/><path class="cls-2" d="m1069.55,17.47l12.59,4.16-1.19,3.59-8.83-2.92-1.5,4.56,8.48,2.81-1.18,3.59-8.49-2.81-1.53,4.61,9.17,3.03-1.18,3.59-12.94-4.28,6.6-19.94Z"/><path class="cls-2" d="m1092.73,28.35c.15-.35.36-.65.63-.9.29-.26.6-.45.94-.57.34-.13.7-.19,1.06-.18.38,0,.75.07,1.11.23.35.15.65.37.89.66.28.27.48.58.61.93.14.32.2.68.18,1.07.01.38-.06.74-.22,1.08l-1.48,3.34c-.31.69-.81,1.17-1.49,1.44-.67.27-1.35.25-2.05-.05l-1.75-.78.95-2.14,1.31.58c.5.22.87.05,1.11-.49l.15-.33c-.18-.01-.34-.05-.51-.12-.36-.16-.67-.38-.93-.64-.24-.28-.43-.6-.56-.94-.14-.34-.21-.7-.21-1.08.01-.37.09-.73.26-1.1Z"/><path class="cls-2" d="m1110.17,33.72l3.53,1.8-7.83,15.34,8.5,4.34-1.72,3.37-12.02-6.14,9.54-18.7Z"/><path class="cls-2" d="m1128.9,43.37l3.53,1.8-7.81,15.35,8.5,4.33-1.71,3.37-12.04-6.12,9.53-18.72Z"/><path class="cls-2" d="m1154.17,56.05l6.37,2.8-5.25,14.93-1.24,2.8.66.29,1.24-2.8,7.45-13.96,6.37,2.8-8.46,19.22-3.29-1.45,5.65-12.85,2.26-4.25-.66-.29-9.01,16.62-5.44-2.39,6.11-17.9-.66-.29-1.61,4.54-5.65,12.85-3.29-1.45,8.45-19.22Z"/><path class="cls-2" d="m1178.93,84.29l-6.67-2.55-2.56,3.84-3.87-1.48,12.18-17.83,6.95,2.66-2.82,21.41-3.87-1.48.66-4.57Zm-4.54-5.78l5.07,1.94,1.57-10.9-.51-.19-6.13,9.15Z"/><path class="cls-2" d="m1191.46,93.61l-3.76-1.24,6.59-19.94,3.76,1.24-2.7,8.18.83.27,7.97-6.43,4.24,1.4-.05.17-9.31,7.51-.17.51,3.34,11.69-.05.17-4.42-1.46-2.74-9.97-.82-.27-2.71,8.18Z"/><path class="cls-2" d="m1214.5,79.03l12.75,3.65-1.04,3.63-8.94-2.56-1.32,4.61,8.6,2.46-1.04,3.64-8.6-2.46-1.34,4.67,9.29,2.66-1.04,3.63-13.09-3.75,5.77-20.19Z"/><path class="cls-2" d="m1251.93,110.55l-6.72-1.58,2.73-15.75.67-2.8-.7-.17-.67,2.8-4.6,15.31-6.71-1.59,4.12-20.6,3.5.83-3.19,15.64-.62,2.63.7.17.62-2.63,4.6-15.31,6.19,1.46-2.74,15.75-.62,2.63.71.17.62-2.63,4.13-15.42,3.5.83-5.52,20.27Z"/><path class="cls-2" d="m1269.29,109.69l-6.99-1.45-1.91,4.2-4.06-.84,9.17-19.55,7.28,1.51.65,21.58-4.05-.84-.09-4.61Zm-5.4-4.98l5.32,1.1-.21-11.01-.52-.11-4.59,10.02Z"/><path class="cls-2" d="m1281.89,95.46l4.01.73.63,19.45.53.1,7.46-17.97,4.01.73-8.43,19.81-7.32-1.33-.89-21.51Z"/><path class="cls-2" d="m1304.75,99.6l13.09,2.11-.6,3.73-9.18-1.48-.76,4.74,8.82,1.42-.6,3.73-8.82-1.42-.78,4.8,9.54,1.54-.6,3.73-13.45-2.17,3.34-20.73Z"/><path class="cls-2" d="m1334.71,110.72c.12-.83-.11-1.6-.67-2.31-.55-.71-1.41-1.14-2.57-1.31-.99-.14-1.81-.05-2.44.29-.63.31-.99.82-1.09,1.51-.06.36-.03.69.06,1.01.1.3.3.59.61.87.32.27.75.53,1.28.79.55.26,1.24.53,2.09.81,2.12.71,3.69,1.61,4.71,2.7,1.01,1.09,1.39,2.55,1.13,4.37l-.05.36c-.14.97-.45,1.83-.91,2.57-.45.72-1.04,1.32-1.77,1.78-.74.46-1.59.77-2.56.94-.98.16-2.05.16-3.21,0-1.37-.2-2.55-.56-3.55-1.08-.97-.54-1.75-1.2-2.35-1.97-.6-.79-1-1.67-1.23-2.63-.22-.98-.26-2.02-.1-3.11l.13-.89,3.92.56-.11.71c-.18,1.25.04,2.3.64,3.15.63.84,1.71,1.37,3.23,1.58,1.19.17,2.11.04,2.76-.39.64-.43,1.02-1,1.12-1.72.05-.34.03-.66-.04-.98-.08-.33-.24-.64-.51-.92-.26-.3-.63-.59-1.12-.86-.48-.27-1.11-.53-1.88-.78-1.03-.33-1.96-.69-2.79-1.1-.83-.42-1.53-.92-2.12-1.49-.56-.57-.97-1.23-1.23-1.99-.25-.76-.31-1.66-.16-2.69l.03-.18c.12-.85.4-1.61.84-2.27.46-.68,1.03-1.24,1.72-1.69.71-.44,1.53-.75,2.44-.93.93-.17,1.94-.18,3.03-.02,1.23.18,2.29.51,3.19,1,.91.47,1.63,1.05,2.18,1.74.57.69.96,1.44,1.16,2.26.23.82.28,1.66.16,2.51l-.16,1.07-3.92-.56.11-.71Z"/><path class="cls-2" d="m1365.07,108.27l15.02,1.72-.43,3.76-5.55-.64-1.96,17.11-3.93-.45,1.96-17.11-5.54-.64.43-3.76Z"/><path class="cls-2" d="m1383.95,118.65c.28-2.71,1.17-4.74,2.68-6.09,1.52-1.35,3.49-1.9,5.9-1.66,2.4.25,4.21,1.18,5.41,2.82,1.22,1.63,1.69,3.8,1.41,6.51l-.48,4.66c-.28,2.79-1.19,4.83-2.71,6.15-1.5,1.31-3.45,1.85-5.86,1.6-2.41-.25-4.22-1.17-5.45-2.76-1.2-1.59-1.66-3.78-1.38-6.57l.48-4.66Zm6.72,10.4c.71.07,1.32.03,1.82-.14.5-.19.92-.48,1.27-.87.34-.39.6-.86.77-1.43.18-.56.31-1.2.38-1.89l.53-5.13c.06-.66.06-1.28-.02-1.87-.08-.59-.25-1.11-.51-1.56-.25-.45-.61-.82-1.06-1.1-.45-.31-1.01-.5-1.69-.57-.68-.07-1.27,0-1.77.21-.5.19-.92.48-1.27.87-.34.39-.61.86-.81,1.42-.19.56-.33,1.17-.39,1.83l-.53,5.13c-.07.7-.08,1.34-.02,1.93.06.59.22,1.11.48,1.56.25.45.61.82,1.06,1.1.45.27,1.04.44,1.76.51Z"/><path class="cls-2" d="m1412.39,123.71l8.96.82-.96,10.58-3.59-.33.22-2.33-.54-.05c-.31.75-.83,1.37-1.56,1.85-.72.46-1.76.62-3.11.5-.96-.09-1.84-.35-2.64-.78-.81-.43-1.49-1.03-2.04-1.78-.55-.77-.96-1.69-1.23-2.76-.26-1.09-.33-2.33-.2-3.72l.45-4.9c.12-1.35.42-2.53.89-3.53.5-1.02,1.11-1.86,1.86-2.51.76-.65,1.63-1.12,2.62-1.39.99-.29,2.07-.39,3.22-.28,1.2.11,2.24.4,3.14.89.91.46,1.65,1.07,2.25,1.83.59.74,1.02,1.59,1.27,2.56.26.95.34,1.95.24,3l-.03.36-3.95-.36.04-.36c.11-1.25-.13-2.23-.73-2.93-.58-.72-1.46-1.13-2.63-1.23-1.12-.1-2.07.19-2.85.88-.79.67-1.26,1.91-1.43,3.73l-.4,4.42c-.29,3.23.87,4.96,3.5,5.2,1.18.11,2.09-.12,2.75-.68.67-.58,1.06-1.4,1.15-2.45l-5.01-.46.34-3.76Z"/><path class="cls-2" d="m1427.41,114.65l13.21,1.07-.3,3.77-9.27-.75-.39,4.78,8.91.72-.31,3.77-8.91-.72-.39,4.84,9.63.78-.31,3.77-13.58-1.1,1.71-20.93Z"/></g></g></svg>