<?xml version="1.0" encoding="UTF-8"?><svg id="Layer_2" xmlns="http://www.w3.org/2000/svg" xmlns:xlink="http://www.w3.org/1999/xlink" viewBox="0 0 1487 654"><defs><style>.cls-1{stroke:url(#linear-gradient);}.cls-1,.cls-2,.cls-3,.cls-4,.cls-5,.cls-6,.cls-7,.cls-8,.cls-9,.cls-10,.cls-11,.cls-12,.cls-13,.cls-14,.cls-15,.cls-16,.cls-17,.cls-18,.cls-19,.cls-20,.cls-21,.cls-22,.cls-23,.cls-24,.cls-25,.cls-26,.cls-27,.cls-28,.cls-29,.cls-30,.cls-31,.cls-32,.cls-33,.cls-34,.cls-35,.cls-36,.cls-37,.cls-38,.cls-39,.cls-40,.cls-41,.cls-42,.cls-43,.cls-44,.cls-45,.cls-46,.cls-47,.cls-48,.cls-49,.cls-50,.cls-51{fill:none;stroke-miterlimit:10;stroke-width:.75px;}.cls-52{mask:url(#mask);}.cls-2{stroke:url(#linear-gradient-39);}.cls-3{stroke:url(#linear-gradient-36);}.cls-4{stroke:url(#linear-gradient-37);}.cls-5{stroke:url(#linear-gradient-27);}.cls-6{stroke:url(#linear-gradient-25);}.cls-7{stroke:url(#linear-gradient-28);}.cls-8{stroke:url(#linear-gradient-29);}.cls-9{stroke:url(#linear-gradient-26);}.cls-10{stroke:url(#linear-gradient-24);}.cls-11{stroke:url(#linear-gradient-35);}.cls-12{stroke:url(#linear-gradient-34);}.cls-13{stroke:url(#linear-gradient-38);}.cls-14{stroke:url(#linear-gradient-33);}.cls-15{stroke:url(#linear-gradient-30);}.cls-16{stroke:url(#linear-gradient-32);}.cls-17{stroke:url(#linear-gradient-31);}.cls-18{stroke:url(#linear-gradient-51);}.cls-19{stroke:url(#linear-gradient-50);}.cls-20{stroke:url(#linear-gradient-23);}.cls-21{stroke:url(#linear-gradient-20);}.cls-22{stroke:url(#linear-gradient-14);}.cls-23{stroke:url(#linear-gradient-16);}.cls-24{stroke:url(#linear-gradient-18);}.cls-25{stroke:url(#linear-gradient-15);}.cls-26{stroke:url(#linear-gradient-17);}.cls-27{stroke:url(#linear-gradient-19);}.cls-28{stroke:url(#linear-gradient-10);}.cls-29{stroke:url(#linear-gradient-12);}.cls-30{stroke:url(#linear-gradient-13);}.cls-31{stroke:url(#linear-gradient-11);}.cls-32{stroke:url(#linear-gradient-22);}.cls-33{stroke:url(#linear-gradient-21);}.cls-34{stroke:url(#linear-gradient-40);}.cls-35{stroke:url(#linear-gradient-41);}.cls-36{stroke:url(#linear-gradient-42);}.cls-37{stroke:url(#linear-gradient-43);}.cls-38{stroke:url(#linear-gradient-47);}.cls-39{stroke:url(#linear-gradient-48);}.cls-40{stroke:url(#linear-gradient-45);}.cls-41{stroke:url(#linear-gradient-46);}.cls-42{stroke:url(#linear-gradient-49);}.cls-43{stroke:url(#linear-gradient-44);}.cls-44{stroke:url(#linear-gradient-3);}.cls-45{stroke:url(#linear-gradient-4);}.cls-46{stroke:url(#linear-gradient-2);}.cls-47{stroke:url(#linear-gradient-7);}.cls-48{stroke:url(#linear-gradient-6);}.cls-49{stroke:url(#linear-gradient-5);}.cls-50{stroke:url(#linear-gradient-9);}.cls-51{stroke:url(#linear-gradient-8);}.cls-53{fill:url(#linear-gradient-52);}</style><linearGradient id="linear-gradient" x1="-952.37" y1="411.53" x2="1511.75" y2="411.53" gradientTransform="translate(0 826) scale(1 -1)" gradientUnits="userSpaceOnUse"><stop offset=".04" stop-color="#4191ac"/><stop offset=".57" stop-color="#8e8cc1"/><stop offset="1" stop-color="#2552a1"/></linearGradient><linearGradient id="linear-gradient-2" x1="-953.71" y1="417.43" x2="1512.48" y2="417.43" xlink:href="#linear-gradient"/><linearGradient id="linear-gradient-3" x1="-955.09" y1="423.34" x2="1513.14" y2="423.34" xlink:href="#linear-gradient"/><linearGradient id="linear-gradient-4" x1="-956.42" y1="429.18" x2="1513.9" y2="429.18" xlink:href="#linear-gradient"/><linearGradient id="linear-gradient-5" x1="-957.76" y1="435.05" x2="1514.56" y2="435.05" xlink:href="#linear-gradient"/><linearGradient id="linear-gradient-6" x1="-959.14" y1="440.88" x2="1515.3" y2="440.88" xlink:href="#linear-gradient"/><linearGradient id="linear-gradient-7" x1="-960.47" y1="446.72" x2="1516.02" y2="446.72" xlink:href="#linear-gradient"/><linearGradient id="linear-gradient-8" x1="-961.85" y1="452.52" x2="1516.68" y2="452.52" xlink:href="#linear-gradient"/><linearGradient id="linear-gradient-9" x1="-963.19" y1="458.33" x2="1517.46" y2="458.33" xlink:href="#linear-gradient"/><linearGradient id="linear-gradient-10" x1="-964.57" y1="464.08" x2="1518.11" y2="464.08" xlink:href="#linear-gradient"/><linearGradient id="linear-gradient-11" x1="-965.9" y1="469.84" x2="1518.77" y2="469.84" xlink:href="#linear-gradient"/><linearGradient id="linear-gradient-12" x1="-967.28" y1="475.59" x2="1519.55" y2="475.59" xlink:href="#linear-gradient"/><linearGradient id="linear-gradient-13" x1="-968.62" y1="481.25" x2="1520.21" y2="481.25" xlink:href="#linear-gradient"/><linearGradient id="linear-gradient-14" x1="-970" y1="486.94" x2="1520.94" y2="486.94" xlink:href="#linear-gradient"/><linearGradient id="linear-gradient-15" x1="-971.34" y1="492.55" x2="1521.61" y2="492.55" xlink:href="#linear-gradient"/><linearGradient id="linear-gradient-16" x1="-972.71" y1="485.06" x2="1522.35" y2="485.06" xlink:href="#linear-gradient"/><linearGradient id="linear-gradient-17" x1="-974.05" y1="475.12" x2="1523.05" y2="475.12" xlink:href="#linear-gradient"/><linearGradient id="linear-gradient-18" x1="-975.42" y1="465.19" x2="1523.71" y2="465.19" xlink:href="#linear-gradient"/><linearGradient id="linear-gradient-19" x1="-976.76" y1="455.18" x2="1524.49" y2="455.18" xlink:href="#linear-gradient"/><linearGradient id="linear-gradient-20" x1="-978.11" y1="445.22" x2="1525.21" y2="445.22" xlink:href="#linear-gradient"/><linearGradient id="linear-gradient-21" x1="-979.48" y1="435.27" x2="1525.88" y2="435.27" xlink:href="#linear-gradient"/><linearGradient id="linear-gradient-22" x1="-980.82" y1="430.18" x2="1526.67" y2="430.18" xlink:href="#linear-gradient"/><linearGradient id="linear-gradient-23" x1="-982.19" y1="427.86" x2="1527.3" y2="427.86" xlink:href="#linear-gradient"/><linearGradient id="linear-gradient-24" x1="-983.54" y1="425.51" x2="1528.1" y2="425.51" xlink:href="#linear-gradient"/><linearGradient id="linear-gradient-25" x1="-984.91" y1="423.23" x2="1528.76" y2="423.23" xlink:href="#linear-gradient"/><linearGradient id="linear-gradient-26" x1="-986.25" y1="425.69" x2="1529.52" y2="425.69" xlink:href="#linear-gradient"/><linearGradient id="linear-gradient-27" x1="-985.28" y1="436.2" x2="1528.62" y2="436.2" xlink:href="#linear-gradient"/><linearGradient id="linear-gradient-28" x1="-984.31" y1="446.72" x2="1527.83" y2="446.72" xlink:href="#linear-gradient"/><linearGradient id="linear-gradient-29" x1="-983.28" y1="457.19" x2="1527.01" y2="457.19" xlink:href="#linear-gradient"/><linearGradient id="linear-gradient-30" x1="-982.31" y1="467.7" x2="1526.18" y2="467.7" xlink:href="#linear-gradient"/><linearGradient id="linear-gradient-31" x1="-981.34" y1="478.23" x2="1525.28" y2="478.23" xlink:href="#linear-gradient"/><linearGradient id="linear-gradient-32" x1="-980.32" y1="488.7" x2="1524.37" y2="488.7" xlink:href="#linear-gradient"/><linearGradient id="linear-gradient-33" x1="-979.34" y1="499.22" x2="1523.59" y2="499.22" xlink:href="#linear-gradient"/><linearGradient id="linear-gradient-34" x1="-978.37" y1="509.69" x2="1522.76" y2="509.69" xlink:href="#linear-gradient"/><linearGradient id="linear-gradient-35" x1="-977.35" y1="520.24" x2="1521.94" y2="520.24" xlink:href="#linear-gradient"/><linearGradient id="linear-gradient-36" x1="-976.38" y1="530.71" x2="1521.07" y2="530.71" xlink:href="#linear-gradient"/><linearGradient id="linear-gradient-37" x1="-975.4" y1="541.19" x2="1520.21" y2="541.19" xlink:href="#linear-gradient"/><linearGradient id="linear-gradient-38" x1="-974.42" y1="551.72" x2="1519.38" y2="551.72" xlink:href="#linear-gradient"/><linearGradient id="linear-gradient-39" x1="-973.4" y1="562.23" x2="1518.56" y2="562.23" xlink:href="#linear-gradient"/><linearGradient id="linear-gradient-40" x1="-972.43" y1="572.72" x2="1517.69" y2="572.72" xlink:href="#linear-gradient"/><linearGradient id="linear-gradient-41" x1="-971.45" y1="571.92" x2="1516.91" y2="571.92" xlink:href="#linear-gradient"/><linearGradient id="linear-gradient-42" x1="-970.43" y1="568.95" x2="1516.04" y2="568.95" xlink:href="#linear-gradient"/><linearGradient id="linear-gradient-43" x1="-969.45" y1="565.97" x2="1515.26" y2="565.97" xlink:href="#linear-gradient"/><linearGradient id="linear-gradient-44" x1="-968.47" y1="562.95" x2="1514.43" y2="562.95" xlink:href="#linear-gradient"/><linearGradient id="linear-gradient-45" x1="-967.45" y1="559.98" x2="1513.61" y2="559.98" xlink:href="#linear-gradient"/><linearGradient id="linear-gradient-46" x1="-966.48" y1="556.94" x2="1512.69" y2="556.94" xlink:href="#linear-gradient"/><linearGradient id="linear-gradient-47" x1="-965.49" y1="553.9" x2="1511.8" y2="553.9" xlink:href="#linear-gradient"/><linearGradient id="linear-gradient-48" x1="-964.47" y1="550.91" x2="1511.01" y2="550.91" xlink:href="#linear-gradient"/><linearGradient id="linear-gradient-49" x1="-963.49" y1="547.89" x2="1510.19" y2="547.89" xlink:href="#linear-gradient"/><linearGradient id="linear-gradient-50" x1="-962.51" y1="544.79" x2="1509.32" y2="544.79" xlink:href="#linear-gradient"/><linearGradient id="linear-gradient-51" x1="-961.49" y1="541.77" x2="1508.65" y2="541.77" xlink:href="#linear-gradient"/><mask id="mask" x="-986.25" y="0" width="2515.77" height="796.84" maskUnits="userSpaceOnUse"><g id="mask0_1323_81501"><path class="cls-1" d="m-952.17,679.21s345.29,227.36,712.75,48.88C14.78,604.62,198.53-34.48,323.14,38.21c124.61,72.7,30.57,454.06,305.76,441.1,275.19-12.97,228.62-146.61,467.5-134.35,154.24,7.9,311.34,64.29,415.16,4.56"/><path class="cls-46" d="m-953.5,658.73s338.57,224.65,700.8,52.18C-1.99,591.58,177.23-23.8,305.46,46.7c128.26,70.5,39.22,440.58,308.71,428.01,269.49-12.57,241.04-148.69,477.21-136.51,154.91,8.02,311.38,79.02,420.94,22.63"/><path class="cls-44" d="m-954.88,638.22s331.85,221.94,688.86,55.49C-18.77,578.53,155.86-13.15,287.77,55.19c131.92,68.34,47.86,427.11,311.61,414.96,263.75-12.14,253.42-150.74,486.91-138.68,155.58,8.1,311.42,93.8,426.68,40.71"/><path class="cls-45" d="m-956.21,617.75s325.13,219.23,676.95,58.83C-35.51,565.52,134.6-2.42,270.13,63.72c135.53,66.14,56.51,413.63,314.56,401.92,258.06-11.75,265.84-152.82,496.62-140.8,156.28,8.21,311.46,108.54,432.45,58.83"/><path class="cls-49" d="m-957.55,597.23s318.37,216.52,665,62.13C-52.25,552.48,113.3,8.23,252.45,72.2c139.15,63.97,65.11,400.15,317.47,388.83,252.36-11.32,278.25-154.9,506.32-142.96,156.95,8.29,311.5,123.31,438.19,76.9"/><path class="cls-48" d="m-958.92,576.76s311.65,213.85,653.1,65.43C-69.03,539.43,92,18.92,234.8,80.69c142.8,61.77,73.76,386.71,320.42,375.79,246.66-10.92,290.67-156.99,516.03-145.12,157.66,8.41,311.54,138.08,443.93,94.98"/><path class="cls-47" d="m-960.26,556.25s304.93,211.14,641.15,68.73C-85.81,526.38,70.7,29.57,217.12,89.18c146.42,59.61,82.4,373.23,323.33,362.74,240.92-10.49,303.09-159.07,525.77-147.28,158.32,8.49,311.58,152.82,449.7,113.05"/><path class="cls-51" d="m-961.64,535.78s298.22,208.42,629.2,72.03C-102.59,513.34,49.37,40.26,199.4,97.67c150.03,57.41,91.05,359.75,326.27,349.65,235.23-10.1,315.47-161.11,535.48-149.4,159.03,8.61,311.62,167.6,455.44,131.13"/><path class="cls-50" d="m-962.97,515.26s291.46,205.71,617.3,75.33C-119.33,500.29,28.07,50.91,181.79,106.16c153.69,55.25,99.69,346.27,329.18,336.61,229.49-9.67,327.88-163.2,545.19-151.56,159.7,8.68,311.66,182.37,461.22,149.25"/><path class="cls-28" d="m-964.35,494.79s284.74,203,605.35,78.63C-136.11,487.25,6.73,61.59,164.07,114.64c157.34,53.05,108.34,332.8,332.13,323.56,223.79-9.23,340.3-165.28,554.89-153.72,160.37,8.8,311.7,197.11,466.95,167.32"/><path class="cls-31" d="m-965.68,474.28s278.02,200.29,593.41,81.93C-152.89,474.16-14.57,72.24,146.39,123.13c160.96,50.89,116.98,319.32,335.04,310.51,218.05-8.8,352.72-167.36,564.6-155.85,161.08,8.88,311.74,211.88,472.69,185.4"/><path class="cls-29" d="m-967.06,453.77s271.3,197.58,581.5,85.23C-169.67,461.11-35.87,82.89,128.74,131.58c164.61,48.69,125.59,305.84,337.98,297.43,212.39-8.41,365.14-169.44,574.31-158.01,161.74,9,311.78,226.66,478.47,203.47"/><path class="cls-30" d="m-968.4,433.29s264.58,194.91,569.55,88.53C-186.41,448.07-57.17,93.58,111.06,140.11c168.23,46.53,134.23,292.36,340.89,284.38,206.66-7.98,377.52-171.53,584.01-160.17,162.45,9.08,311.82,241.39,484.21,221.55"/><path class="cls-22" d="m-969.77,412.78s257.82,192.2,557.65,91.83C-203.19,435.02-78.46,104.23,93.38,148.56c171.84,44.33,142.88,278.88,343.84,271.34,200.96-7.58,389.93-173.57,593.71-162.29,163.12,9.2,311.9,256.17,489.98,239.66"/><path class="cls-25" d="m-971.11,392.31s251.1,189.48,545.7,95.13C-219.93,421.98-99.8,114.92,75.69,157.08c175.5,42.16,151.52,265.44,346.75,258.25,195.22-7.15,402.35-175.65,603.43-164.45,163.82,9.27,311.93,270.9,495.71,257.74"/><path class="cls-23" d="m-972.48,371.8s244.38,186.77,533.75,98.44C-236.75,408.93-121.14,125.57,58.01,165.53c179.15,39.96,160.17,251.96,349.69,245.21,189.52-6.76,414.77-177.74,613.13-166.61,164.49,9.39,311.97,285.68,501.49,275.82"/><path class="cls-26" d="m-973.82,351.32s237.66,184.06,521.85,101.74C-253.49,395.88-142.4,136.26,40.37,174.06c182.77,37.8,168.82,238.49,352.6,232.16,183.83-6.33,427.18-179.82,622.84-168.78,165.2,9.47,312,300.46,507.23,293.89"/><path class="cls-24" d="m-975.19,330.81s230.9,181.35,509.9,105.08C-270.27,382.88-163.74,146.94,22.64,182.55c186.42,35.6,177.42,225.01,355.55,219.07,178.13-5.93,439.56-181.9,632.54-170.9,165.86,9.59,312.05,315.19,512.96,311.97"/><path class="cls-27" d="m-976.53,310.34s224.18,178.64,498,108.38C-287.01,369.83-184.99,157.63,5.04,191.07c190.03,33.44,186.07,211.53,358.46,206.03,172.39-5.5,451.98-183.94,642.25-173.06,166.53,9.71,312.08,329.97,518.74,330.09"/><path class="cls-21" d="m-977.87,289.82s217.47,175.97,486.05,111.68C-303.75,356.74-206.33,168.28-12.64,199.56c193.69,31.24,194.71,198.05,361.4,192.98,166.65-5.07,464.4-186.03,651.96-175.22,167.24,9.79,312.12,344.74,524.48,348.16"/><path class="cls-33" d="m-979.24,269.35s210.74,173.25,474.1,114.98C-320.57,343.74-227.67,178.97-30.37,208.05c197.3,29.08,203.36,184.57,364.31,179.9,160.96-4.68,476.82-188.11,661.66-177.34,167.91,9.9,312.16,359.48,530.26,366.24"/><path class="cls-32" d="m-980.58,248.84s203.99,170.54,462.2,118.28c181.11-36.47,269.45-177.5,470.41-150.58,200.96,26.88,212,171.09,367.26,166.85,155.26-4.24,489.19-190.19,671.37-179.5,168.62,9.98,312.2,374.25,535.99,384.31"/><path class="cls-20" d="m-981.95,228.37s197.26,167.83,450.25,121.58c177.62-32.3,261.43-149.64,466.01-124.92,204.57,24.72,220.65,157.65,370.17,153.8,149.52-3.85,501.61-192.28,681.07-181.67,169.28,10.1,312.24,388.99,541.73,402.39"/><path class="cls-10" d="m-983.29,207.85s190.55,165.12,438.34,124.88c174.12-28.17,253.42-121.78,461.61-99.22,208.23,22.52,229.25,144.18,373.11,140.72,143.86-3.46,514.03-194.32,690.78-183.79,169.99,10.18,312.28,403.76,547.51,420.5"/><path class="cls-6" d="m-984.66,187.34s183.82,162.41,426.39,128.18c170.66-24.01,245.4-93.92,457.25-73.56,211.84,20.36,237.9,130.7,376.02,127.67,138.12-3.03,526.45-196.4,700.49-185.95,170.66,10.29,312.32,418.54,553.24,438.58"/><path class="cls-9" d="m-986,166.87s177.07,159.7,414.45,131.48c167.16-19.88,237.35-66.06,452.84-47.86,215.5,18.19,246.54,117.22,378.97,114.63,132.43-2.59,538.86-198.48,710.19-188.11,171.33,10.37,312.36,433.28,559.02,456.66"/><path class="cls-5" d="m-985.02,161.4s172,163.59,406.44,142.21c47.86-4.4,88.02-11.2,126.3-18.08,94.78-16.98,175.57-35.76,326.15-24.44,168.74,12.54,225.28,72.89,308,96.82,21.38,6.25,44.48,9.9,71.64,9.43,99.14-1.57,336.25-102.44,528.37-160.6,69.63-21.06,133.17-33.44,180.29-31.52,176.4,7.19,329.65,420.43,566.41,442.86"/><path class="cls-7" d="m-984.04,155.9s166.89,167.44,398.38,152.98c47.23-3.03,87.28-8.68,125.71-14.38,96.35-14.38,178.17-32.46,326.39-22.75,166.46,10.61,224.65,66.02,308.59,88.85,21.57,5.93,44.72,9.47,71.79,9.04,101.82-1.26,333.78-98.28,527.55-162.13,68.38-22.52,131.8-35.05,179.58-34.03,181.43,3.97,346.95,407.58,573.84,429.07"/><path class="cls-8" d="m-983.01,150.44s161.78,171.29,390.32,163.71c46.6-1.61,86.49-6.09,125.12-10.73,97.93-11.75,180.8-29.16,326.63-21.02,164.18,8.72,224.1,58.94,309.18,80.83,21.77,5.62,44.99,9,71.91,8.68,104.45-1.18,331.26-94.03,526.68-163.67,67.16-23.93,130.46-36.11,178.87-36.51,186.5-1.42,364.23,394.73,581.27,415.32"/><path class="cls-15" d="m-982.03,144.98s156.71,175.14,382.27,174.43c45.98-.23,85.74-3.54,124.53-7.07,99.54-9.08,183.39-25.82,326.82-19.33,161.9,6.84,223.51,51.99,309.77,72.82,21.97,5.31,45.23,8.57,72.03,8.33,107.08-.9,328.75-89.63,525.86-165.2,65.94-25.31,129.09-38.31,178.21-38.98,191.61-2.59,381.52,381.92,588.69,401.52"/><path class="cls-17" d="m-981.05,139.48s151.6,178.99,374.21,185.16c45.31,1.14,85-.94,123.94-3.42,101.19-6.4,186.03-22.52,327.06-17.6,159.62,4.91,222.93,45.07,310.32,64.84,22.16,4.99,45.5,8.13,72.15,7.98,109.71-.67,326.19-85.12,524.99-166.77,64.76-26.6,127.75-39.96,177.5-41.46,196.68-5.93,398.81,369.07,596.12,387.73"/><path class="cls-16" d="m-980.03,134.02s146.5,182.84,366.16,195.93c44.68,2.51,84.25,1.65,123.35.23,102.84-3.69,188.62-18.9,327.26-15.91,157.34,3.38,222.34,38.16,310.91,56.82,22.36,4.72,45.74,7.51,72.26,7.62,112.39.43,323.68-80.48,524.13-168.3,63.54-27.82,126.38-41.61,176.79-43.93,201.78-9.31,416.06,356.22,603.5,373.98"/><path class="cls-14" d="m-979.04,128.55s141.42,186.69,358.14,206.66c44.05,3.89,83.5,2.95,122.76,3.89,104.45,2.59,191.21-15.56,327.49-14.23,155.06,1.53,221.75,31.24,311.5,48.81,22.56,4.4,46.01,7.07,72.38,7.23,115.02.83,321.13-75.72,523.3-169.84,62.36-29.04,125.04-43.26,176.08-46.41,206.89-12.73,433.35,343.37,610.93,360.18"/><path class="cls-12" d="m-978.06,123.09s136.28,190.98,350.08,217.38c43.42,5.34,82.84,5.46,122.17,7.58,106.02,5.62,193.85-11.43,327.73-12.5,152.78-1.22,221.16,24.32,312.09,40.83,22.71,4.13,46.25,6.64,72.5,6.88,117.65,1.18,318.65-70.85,522.44-171.37,61.14-30.18,123.66-44.95,175.42-48.92,211.96-16.19,450.65,330.52,618.36,346.39"/><path class="cls-11" d="m-977.04,117.59s131.13,194.87,342.03,228.15c42.79,6.76,82.05,9.55,121.58,11.24,107.79,4.64,196.44-8.88,327.92-10.81,150.5-2.2,220.53,17.41,312.68,32.81,22.91,3.81,46.53,6.21,72.62,6.52,120.29,1.53,316.17-65.86,521.61-172.94,60-31.28,122.33-46.64,174.71-51.4,217.07-19.69,467.94,317.67,625.79,332.6"/><path class="cls-3" d="m-976.06,112.13s126.02,198.76,333.98,238.88c42.12,8.13,81.3,12.18,120.99,14.89,109.48,7.47,199.07-5.54,328.16-9.08,148.22-4.05,219.94,10.53,313.27,24.8,23.11,3.54,46.8,6.01,72.74,6.17,122.92.75,313.74-60.75,520.75-174.47,58.86-32.34,120.95-48.33,174-53.88,222.14-23.22,485.22,304.82,633.21,318.85"/><path class="cls-4" d="m-975.08,106.67s120.92,202.61,325.92,249.61c41.5,9.51,80.56,14.85,120.4,18.55,111.13,10.33,201.67-2.24,328.36-7.39,145.94-5.93,219.31,3.61,313.86,16.82,23.3,3.26,47.04,5.58,72.85,5.82,125.59,1.06,311.38-55.48,519.92-176.01,57.72-33.36,119.62-50.02,173.33-56.35,227.24-26.76,502.51,291.97,640.6,305.05"/><path class="cls-13" d="m-974.09,101.16s115.8,206.5,317.9,260.33c40.87,10.89,79.81,17.53,119.81,22.2,112.78,13.2,204.3,1.1,328.59-5.66,143.67-7.82,218.72-3.26,314.45,8.8,23.5,2.95,47.31,5.19,72.97,5.46,128.22,1.34,309.1-50.14,519.06-177.54,56.59-34.35,118.24-51.71,172.63-58.83,232.32-30.34,519.8,279.12,648.02,291.26"/><path class="cls-2" d="m-973.07,95.7s110.7,210.35,309.85,271.1c40.24,12.26,79.06,20.2,119.22,25.9,114.47,16.15,206.93,4.4,328.83-3.97,141.43-9.71,218.13-10.14,314.99.79,23.66,2.67,47.55,4.76,73.09,5.07,130.85,1.65,306.86-44.64,518.23-179.11,55.52-35.29,116.9-53.44,171.92-61.3,237.43-33.95,537.06,266.27,655.46,277.47"/><path class="cls-34" d="m-972.09,90.24s105.59,214.2,301.79,281.83c39.61,13.63,78.32,22.91,118.63,29.55,116.12,19.1,209.52,7.7,329.02-2.28,139.15-11.63,217.5-17.02,315.58-7.19,23.85,2.4,47.82,4.36,73.25,4.71,133.49,2.01,304.74-39.06,517.37-180.64,54.42-36.23,115.53-55.17,171.21-63.82,242.5-37.61,554.35,253.42,662.88,263.71"/><path class="cls-35" d="m-971.11,84.74s100.48,218.01,293.74,292.56c38.98,15.01,77.57,25.62,118.04,33.21,117.73,22.08,212.16,11,329.26-.55,136.87-13.52,216.91-23.89,316.17-15.21,24.05,2.12,48.06,3.93,73.37,4.36,136.16,2.32,302.65-33.36,516.54-182.18,53.36-37.13,114.15-56.9,170.54-66.29,247.56-41.26,571.63,240.57,670.31,249.92"/><path class="cls-36" d="m-970.09,79.28s95.37,221.86,285.68,303.32c38.31,16.39,76.82,28.33,117.46,36.86,119.38,25.11,214.75,14.3,329.49,1.14,134.59-15.44,216.28-30.77,316.76-23.22,24.25,1.81,48.33,3.54,73.48,4.01,138.79,2.67,300.73-27.55,515.68-183.71,52.34-38.04,112.82-58.63,169.84-68.77,252.59-44.95,588.92,227.72,677.69,236.13"/><path class="cls-37" d="m-969.1,73.81s90.26,225.68,277.66,314.05c37.68,17.76,76.08,31.04,116.91,40.51,120.99,28.13,217.39,17.6,329.69,2.87,132.31-17.37,215.69-37.64,317.35-31.2,24.4,1.53,48.57,3.11,73.6,3.65,141.42,3.03,298.88-21.61,514.85-185.24,51.36-38.9,111.44-60.36,169.13-71.24,257.67-48.69,606.22,214.87,685.13,222.34"/><path class="cls-43" d="m-968.12,68.35s85.15,229.49,269.61,324.78c37.06,19.14,75.33,33.76,116.32,44.21,122.6,31.2,219.98,20.87,329.93,4.56,130.03-19.29,215.11-44.48,317.94-39.22,24.6,1.26,48.84,2.71,73.72,3.3,144.06,3.38,297.12-15.6,513.99-186.81,50.34-39.77,110.07-62.09,168.46-73.72,262.69-52.42,623.51,202.02,692.55,208.58"/><path class="cls-40" d="m-967.1,62.85s80.24,232.98,261.55,335.51c36.47,20.43,74.58,36.51,115.73,47.86,124.17,34.27,222.61,24.13,330.12,6.29,127.75-21.22,214.48-51.32,318.53-47.23,24.8.98,49.08,2.28,73.84,2.91,146.73,3.73,295.5-9.51,513.16-188.35,49.39-40.59,108.69-63.82,167.75-76.19,267.72-56.15,640.8,189.17,699.98,194.79"/><path class="cls-41" d="m-966.12,57.39s75.17,236.84,253.5,346.27c35.84,21.85,73.8,39.22,115.14,51.52,125.79,37.37,225.2,27.39,330.36,7.98,125.47-23.18,213.89-58.2,319.08-55.21,24.99.71,49.36,1.89,73.95,2.55,149.36,4.09,294.01-3.3,512.3-189.88,48.45-41.42,107.36-65.58,167.05-78.67,272.75-59.97,658.05,176.32,707.4,181"/><path class="cls-38" d="m-965.13,51.93s70.07,240.69,245.44,357c35.21,23.22,73.01,41.97,114.55,55.17,127.32,40.51,227.8,30.65,330.59,9.67,123.19-25.15,213.26-65.03,319.67-63.23,25.19.43,49.63,1.49,74.07,2.2,152,4.48,292.64,2.99,511.43-191.41,47.51-42.24,105.98-67.31,166.34-81.18,277.78-63.74,675.34,163.47,714.79,167.2"/><path class="cls-39" d="m-964.11,46.43s64.96,244.54,237.39,367.73c34.58,24.6,72.27,44.72,113.96,58.82,128.89,43.62,230.43,33.91,330.79,11.4,120.91-27.11,212.67-71.72,320.26-71.24,25.35.2,49.87,1.1,74.19,1.85,154.63,5.15,291.38,9.35,510.61-192.98,46.64-43.03,104.6-69.08,165.67-83.66,282.81-67.55,692.62,150.62,722.21,153.45"/><path class="cls-42" d="m-963.13,40.96s59.89,248.39,229.37,378.46c33.95,25.98,71.48,47.47,113.37,62.48,130.42,46.8,232.99,36.98,331.03,13.08,118.56-29.27,212.08-78.59,320.85-79.22,25.54-.08,50.14.71,74.31,1.49,157.26,5.46,290.28,15.8,509.75-194.51,45.74-43.85,103.19-70.93,164.96-86.14,287.65-71.95,709.92,137.77,729.65,139.66"/><path class="cls-19" d="m-962.15,35.5s54.78,252.28,221.31,389.22c33.32,27.35,70.69,50.22,112.78,66.17,131.96,49.95,235.58,40.28,331.22,14.82,116.28-31.2,211.49-85.47,321.44-87.24,25.74-.39,50.38.27,74.43,1.14,159.89,5.78,289.3,22.32,508.92-196.05,44.88-44.64,101.82-72.62,164.26-88.61,292.71-75.53,727.21,124.92,737.07,125.87"/><path class="cls-18" d="m-961.13,30s71.52,368.67,325.45,469.78c296.56,118.08,451.39-73.48,653.49-78.75,202.1-5.27,330.67,62.99,582.64-196.83,251.96-259.82,908.05,20.98,908.05,20.98"/></g></mask><linearGradient id="linear-gradient-52" x1="1398.01" y1="572.48" x2="-103.3" y2="403.93" gradientTransform="translate(0 826) scale(1 -1)" gradientUnits="userSpaceOnUse"><stop offset="0" stop-color="#c52ea3"/><stop offset="1" stop-color="#4749ca"/></linearGradient></defs><g id="Layer_1-2"><g class="cls-52"><path class="cls-53" d="m0,0h1487v654H0V0Z"/></g></g></svg>