<?xml version="1.0" encoding="UTF-8"?><svg id="Layer_2" xmlns="http://www.w3.org/2000/svg" viewBox="0 0 836 615.5"><defs><style>.cls-1{fill:none;}.cls-2{fill:#f058e1;}.cls-3{fill:#f0336c;}.cls-4{fill:#f246cc;}.cls-5{fill:#6c6ff5;}.cls-6{opacity:.5;}</style></defs><g id="Layer_1-2"><g class="cls-6"><path class="cls-1" d="m319.69,0c-19,26.15-44.27,47.38-73.5,61.57,19.89,32.01,32.45,68.84,35.63,108,19.29-38.11,49.09-71.25,87.7-94.79l5.62-3.43c98.85-60.27,227.75-38.08,300.94,51.8,72.98,94.9,57.68,229.72-34.67,305.49l-81.69,67.04c-38.62,31.68-89.47,44.71-138.88,35.57-61.86-11.45-112.4-55.89-131.31-115.45l-21.96-69.19c-4.92-15.5-8.14-31.19-9.78-46.86-41.16,85.3-128.88,143.32-229.02,142.43l-28.76-.25v173.56h836V0H319.69Z"/><path class="cls-4" d="m282.42,199.66l-.34,8.17c-2.24,32.85-10.75,63.86-24.29,91.93,1.64,15.67,4.86,31.36,9.78,46.86l21.96,69.19c18.91,59.56,69.45,104,131.31,115.45,49.4,9.14,100.26-3.89,138.88-35.57l81.69-67.04c92.35-75.78,107.65-210.59,34.67-305.49-73.18-89.88-202.09-112.07-300.94-51.8l-5.62,3.43c-38.61,23.54-68.41,56.67-87.7,94.79.8,9.9,1.02,19.94.6,30.09Z"/><path class="cls-2" d="m246.19,61.57c29.23-14.18,54.5-35.41,73.5-61.57h-128.2c21.63,17.28,40.13,38.12,54.7,61.57Z"/><path class="cls-5" d="m257.79,299.76c13.54-28.07,22.05-59.08,24.29-91.93l.34-8.17c.43-10.15.21-20.19-.6-30.09-3.18-39.16-15.74-75.99-35.63-108-14.57-23.44-33.08-44.29-54.7-61.57h-86.63c3.37,18.34,4.96,37.25,4.57,56.54C105.18,139.48,62.79,211.68,0,256.85v185.09l28.76.25c100.14.89,187.87-57.13,229.02-142.43Z"/><path class="cls-3" d="m109.42,56.54c.39-19.29-1.2-38.2-4.57-56.54H0v256.85c62.79-45.16,105.18-117.36,109.42-200.31Z"/></g><g class="cls-6"><rect width="836" height="615.5"/></g></g></svg>