<svg width="2796" height="970" viewBox="0 0 2796 970" fill="none" xmlns="http://www.w3.org/2000/svg">
<mask id="mask0_1270_53306" style="mask-type:alpha" maskUnits="userSpaceOnUse" x="0" y="0" width="2796" height="970">
<path d="M1.08008 338.309C161.402 214.153 408.268 218.823 563.781 348.953C667.819 436.011 735.084 571.597 861.062 621.923C967.017 664.251 1087.45 634.245 1193.93 593.238C1300.4 552.232 1406.4 499.763 1520.47 497.527C1636.03 495.262 1746.17 545.196 1845.9 603.615C1945.64 662.035 2040.66 730.437 2148.71 771.494C2256.75 812.552 2383.82 822.919 2484.14 765.509" stroke="white" stroke-width="0.5" stroke-miterlimit="10"/>
<path d="M2.3335 328.94C147.124 222.931 368.623 223.396 525.637 323.874C538.275 331.962 550.491 340.702 562.212 350.099C616.913 393.932 661.939 450.053 710.346 500.915C755.073 547.975 802.815 590.554 863.505 614.644C884.24 622.873 905.481 628.504 927.01 631.998C1015.83 646.412 1109.01 624.064 1193.83 594.375C1233.23 580.599 1272.66 565.176 1312.73 551.064C1379.82 527.408 1448.4 507.253 1520.03 506.111C1528.91 505.969 1537.75 506.123 1546.56 506.555C1652.78 511.768 1754.17 557.475 1846.95 610.217C1947.43 667.334 2043.32 734.157 2151.88 774.395C2260.43 814.633 2387.47 825.032 2488.51 769.538" stroke="white" stroke-width="0.5" stroke-miterlimit="10"/>
<path d="M3.58691 319.57C144.79 222.458 365.28 227.95 523.696 325.789C536.448 333.665 548.787 342.146 560.644 351.246C616.001 393.689 661.932 447.61 711.165 496.677C756.601 542.083 805.106 583.368 865.949 607.365C886.746 615.565 908.007 621.323 929.502 625.103C1018.18 640.701 1109.8 621.882 1193.73 595.51C1232.72 583.291 1271.85 569.375 1311.87 556.462C1378.85 534.793 1447.77 515.577 1519.59 514.693C1528.49 514.583 1537.36 514.758 1546.19 515.203C1652.7 520.572 1754.54 565.277 1848 616.817C1949.22 672.632 2045.99 737.876 2155.05 777.294C2264.11 816.713 2391.13 827.145 2492.89 773.566" stroke="white" stroke-width="0.5" stroke-miterlimit="10"/>
<path d="M4.83984 310.201C142.455 221.986 361.936 232.504 521.756 327.704C534.621 335.367 547.082 343.59 559.076 352.392C615.089 393.445 661.925 445.169 711.983 492.438C758.129 536.191 807.397 576.182 868.393 600.085C889.252 608.257 910.532 614.141 931.993 618.208C1020.54 634.989 1110.59 619.701 1193.63 596.646C1232.22 585.981 1271.04 573.574 1311.01 561.86C1377.89 542.178 1447.13 523.901 1519.15 523.274C1528.07 523.196 1536.96 523.393 1545.82 523.851C1652.63 529.375 1754.91 573.08 1849.05 623.417C1951.01 677.931 2048.65 741.595 2158.22 780.194C2267.79 818.792 2394.79 829.257 2497.27 777.593" stroke="white" stroke-width="0.5" stroke-miterlimit="10"/>
<path d="M6.09326 300.831C140.121 221.513 358.592 237.058 519.817 329.619C532.794 337.07 545.378 345.035 557.508 353.539C614.177 393.201 661.917 442.727 712.801 488.199C759.656 530.298 809.687 568.997 870.836 592.806C891.757 600.949 913.056 606.96 934.483 611.313C1022.89 629.277 1111.38 617.519 1193.53 597.782C1231.72 588.672 1270.23 577.775 1310.16 567.258C1376.92 549.563 1446.49 532.226 1518.71 531.857C1527.65 531.811 1536.57 532.028 1545.45 532.499C1652.56 538.179 1755.27 580.882 1850.1 630.018C1952.8 683.23 2051.31 745.315 2161.4 783.094C2271.47 820.872 2398.45 831.37 2501.65 781.622" stroke="white" stroke-width="0.5" stroke-miterlimit="10"/>
<path d="M7.34619 291.462C137.787 221.041 355.249 241.612 517.876 331.534C530.966 338.773 543.674 346.479 555.939 354.685C613.265 392.957 661.909 440.286 713.619 483.961C761.183 524.406 811.976 561.811 873.278 585.527C894.262 593.641 915.58 599.778 936.974 604.418C1025.24 623.565 1112.16 615.338 1193.43 598.918C1231.21 591.363 1269.42 581.974 1309.3 572.657C1375.95 556.949 1445.85 540.551 1518.27 540.44C1527.23 540.425 1536.17 540.665 1545.07 541.148C1652.49 546.984 1755.64 588.686 1851.15 636.619C1954.59 688.529 2053.97 749.035 2164.57 785.995C2275.15 822.953 2402.1 833.483 2506.03 785.65" stroke="white" stroke-width="0.5" stroke-miterlimit="10"/>
<path d="M8.6001 282.093C135.453 220.569 351.906 246.166 515.937 333.449C529.139 340.475 541.971 347.923 554.372 355.831C612.354 392.713 661.903 437.843 714.438 479.722C762.712 518.513 814.268 554.625 875.723 578.248C896.769 586.333 918.106 592.596 939.466 597.523C1027.59 617.854 1112.95 613.157 1193.33 600.053C1230.71 594.054 1268.61 586.173 1308.44 578.055C1374.99 564.334 1445.21 548.875 1517.83 549.022C1526.82 549.039 1535.78 549.3 1544.7 549.796C1652.42 555.788 1756.01 596.489 1852.21 643.22C1956.38 693.828 2056.64 752.755 2167.74 788.895C2278.83 825.033 2405.76 835.596 2510.41 789.678" stroke="white" stroke-width="0.5" stroke-miterlimit="10"/>
<path d="M9.85303 272.724C133.118 220.097 348.563 250.72 513.997 335.364C527.312 342.177 540.266 349.367 552.804 356.977C611.442 392.469 661.986 435.283 715.256 475.483C764.323 512.512 816.559 547.439 878.167 570.969C899.275 579.025 920.631 585.414 941.957 590.628C1029.95 612.142 1113.74 610.975 1193.23 601.19C1230.21 596.745 1267.8 590.373 1307.58 583.453C1374.03 571.719 1444.58 557.2 1517.39 557.605C1526.4 557.654 1535.38 557.935 1544.33 558.444C1652.35 564.592 1756.37 604.292 1853.26 649.821C1958.18 699.127 2059.3 756.474 2170.91 791.795C2282.51 827.113 2409.42 837.709 2514.79 793.706" stroke="white" stroke-width="0.5" stroke-miterlimit="10"/>
<path d="M11.1064 263.354C130.784 219.625 345.219 255.274 512.056 337.279C525.484 343.879 538.562 350.811 551.235 358.124C610.53 392.226 661.984 432.825 716.074 471.245C765.855 506.605 818.849 540.254 880.609 563.689C901.781 571.717 923.155 578.233 944.447 583.732C1032.3 606.43 1114.53 608.793 1193.13 602.324C1229.7 599.435 1266.98 594.572 1306.72 588.85C1373.06 579.103 1443.94 565.523 1516.94 566.186C1525.98 566.267 1534.99 566.57 1543.96 567.091C1652.27 573.395 1756.74 612.094 1854.31 656.421C1959.96 704.425 2061.96 760.194 2174.08 794.694C2286.18 829.193 2413.07 839.821 2519.16 797.733" stroke="white" stroke-width="0.5" stroke-miterlimit="10"/>
<path d="M12.3594 253.985C128.45 219.152 341.875 259.828 510.116 339.193C523.657 345.582 536.857 352.255 549.667 359.27C609.618 391.981 661.982 430.368 716.893 467.006C767.388 500.698 821.139 533.068 883.053 556.41C904.287 564.409 925.681 571.051 946.938 576.837C1034.65 600.718 1115.31 606.612 1193.03 603.46C1229.2 602.126 1266.17 598.771 1305.87 594.248C1372.09 586.489 1443.3 573.848 1516.5 574.768C1525.56 574.881 1534.59 575.205 1543.58 575.739C1652.2 582.198 1757.1 619.896 1855.36 663.021C1961.76 709.723 2064.62 763.912 2177.26 797.593C2289.86 831.272 2416.73 841.932 2523.54 801.76" stroke="white" stroke-width="0.5" stroke-miterlimit="10"/>
<path d="M13.6128 244.616C126.115 218.68 338.532 264.382 508.177 341.109C521.83 347.285 535.154 353.699 548.099 360.417C608.707 391.738 661.978 427.912 717.711 462.768C768.918 494.793 823.43 525.883 885.497 549.131C906.793 557.102 928.206 563.87 949.43 569.943C1037 595.007 1116.1 604.277 1192.93 604.597C1228.7 604.746 1265.36 602.972 1305.01 599.647C1371.13 593.875 1442.66 582.174 1516.06 583.351C1525.15 583.496 1534.2 583.841 1543.21 584.388C1652.13 591.003 1757.47 627.7 1856.41 669.623C1963.55 715.023 2067.29 767.633 2180.43 800.494C2293.54 833.353 2420.39 844.046 2527.92 805.789" stroke="white" stroke-width="0.5" stroke-miterlimit="10"/>
<path d="M14.8662 235.246C123.781 218.208 335.189 268.936 506.237 343.024C520.003 348.988 533.45 355.144 546.53 361.563C607.795 391.495 661.971 425.457 718.529 458.53C770.446 488.889 825.72 518.698 887.94 541.852C909.298 549.794 930.73 556.688 951.92 563.048C1039.36 589.296 1116.9 602.086 1192.83 605.733C1228.2 607.433 1264.55 607.172 1304.15 605.046C1370.16 601.261 1442.02 590.499 1515.62 591.934C1524.73 592.111 1533.8 592.477 1542.84 593.036C1652.06 599.807 1757.84 635.503 1857.46 676.223C1965.34 720.322 2069.95 771.353 2183.6 803.394C2297.22 835.433 2424.05 846.159 2532.3 809.817" stroke="white" stroke-width="0.5" stroke-miterlimit="10"/>
<path d="M16.1191 225.877C121.447 217.736 331.845 273.49 504.296 344.939C518.175 350.69 531.745 356.588 544.962 362.71C606.883 391.251 661.964 423.002 719.347 454.291C771.973 482.986 828.011 511.512 890.384 534.573C911.804 542.486 933.255 549.507 954.411 556.153C1041.71 583.584 1117.69 599.895 1192.73 606.868C1227.7 610.119 1263.74 611.371 1303.29 610.443C1369.2 608.645 1441.38 598.822 1515.18 600.516C1524.31 600.724 1533.41 601.112 1542.47 601.684C1651.99 608.611 1758.2 643.306 1858.51 682.824C1967.13 725.621 2072.61 775.072 2186.77 806.294C2300.9 837.513 2427.7 848.271 2536.68 813.846" stroke="white" stroke-width="0.5" stroke-miterlimit="10"/>
<path d="M17.3726 216.507C119.112 217.264 328.502 278.044 502.356 346.854C516.348 352.392 530.041 358.031 543.394 363.856C605.971 391.006 661.955 420.55 720.165 450.053C773.499 477.083 830.301 504.326 892.827 527.294C914.31 535.178 935.779 542.325 956.901 549.258C1044.06 577.873 1118.49 597.707 1192.63 608.005C1227.2 612.807 1262.93 615.571 1302.43 615.841C1368.23 616.03 1440.74 607.147 1514.74 609.099C1523.89 609.338 1533.01 609.748 1542.09 610.332C1651.91 617.415 1758.57 651.108 1859.56 689.425C1968.92 730.92 2075.27 778.792 2189.94 809.195C2304.58 839.593 2431.36 850.385 2541.05 817.874" stroke="white" stroke-width="0.5" stroke-miterlimit="10"/>
<path d="M18.626 207.138C116.778 216.791 325.159 282.599 500.417 348.768C514.521 354.094 528.337 359.475 541.826 365.002C605.06 390.763 661.945 418.099 720.984 445.813C775.025 471.182 832.592 497.14 895.271 520.014C916.816 527.87 938.305 535.143 959.393 542.363C1046.41 572.16 1119.29 595.52 1192.53 609.14C1226.7 615.495 1262.12 619.851 1301.58 621.239C1367.27 623.55 1440.11 615.471 1514.3 617.68C1523.47 617.952 1532.62 618.382 1541.72 618.98C1651.84 626.219 1758.94 658.911 1860.61 696.025C1970.71 736.218 2077.94 782.511 2193.12 812.094C2308.26 841.673 2435.02 852.496 2545.43 821.901" stroke="white" stroke-width="0.5" stroke-miterlimit="10"/>
<path d="M19.8789 197.768C114.443 216.319 321.815 287.153 498.477 350.683C512.694 355.797 526.633 360.919 540.258 366.148C604.148 390.519 661.933 415.649 721.802 441.575C776.548 465.283 834.882 489.955 897.714 512.734C919.321 520.561 940.829 527.961 961.884 535.467C1048.77 566.448 1120.08 593.336 1192.43 610.275C1226.2 618.184 1261.31 624.051 1300.72 626.636C1366.3 630.937 1439.47 623.795 1513.86 626.262C1523.05 626.566 1532.22 627.017 1541.35 627.627C1651.77 635.022 1759.3 666.713 1861.66 702.625C1972.5 741.516 2080.6 786.23 2196.29 814.993C2311.93 843.752 2438.67 854.608 2549.81 825.928" stroke="white" stroke-width="0.5" stroke-miterlimit="10"/>
<path d="M21.1323 188.4C112.109 215.847 318.472 291.707 496.536 352.598C510.866 357.5 524.929 362.364 538.689 367.295C603.236 390.275 661.921 413.201 722.62 437.337C778.071 459.385 837.173 482.77 900.158 505.456C921.827 513.254 943.355 520.78 964.374 528.572C1051.12 560.737 1120.88 591.154 1192.33 611.412C1225.7 620.875 1260.49 628.252 1299.86 632.035C1365.33 638.324 1438.83 632.12 1513.41 634.845C1522.64 635.18 1531.83 635.653 1540.98 636.276C1651.7 643.827 1759.67 674.517 1862.71 709.226C1974.29 746.815 2083.26 789.95 2199.46 817.894C2315.61 845.833 2442.33 856.721 2554.19 829.956" stroke="white" stroke-width="0.5" stroke-miterlimit="10"/>
<path d="M22.3853 179.03C109.775 215.375 315.128 296.261 494.596 354.513C509.039 359.202 523.224 363.808 537.121 368.441C602.324 390.032 661.908 410.755 723.438 433.098C779.593 453.489 839.463 475.584 902.601 498.177C924.333 505.946 945.879 513.598 966.865 521.677C1053.47 555.026 1121.68 588.974 1192.23 612.547C1225.2 623.566 1259.68 632.452 1299 637.433C1364.36 645.711 1438.19 640.445 1512.97 643.427C1522.22 643.795 1531.43 644.289 1540.61 644.924C1651.63 652.63 1760.03 682.319 1863.76 715.827C1976.08 752.114 2085.92 793.67 2202.63 820.794C2319.29 847.913 2445.99 858.834 2558.57 833.984" stroke="white" stroke-width="0.5" stroke-miterlimit="10"/>
<path d="M23.6392 169.661C107.441 214.902 311.786 300.815 492.657 356.428C507.212 360.905 521.521 365.252 535.554 369.587C601.413 389.787 661.894 408.31 724.257 428.859C781.115 447.595 841.754 468.398 905.045 490.897C926.84 498.638 948.405 506.417 969.357 514.782C1055.82 549.314 1122.47 586.796 1192.13 613.683C1224.7 626.259 1258.87 636.651 1298.15 642.831C1363.39 653.095 1437.55 648.769 1512.53 652.01C1521.8 652.408 1531.04 652.924 1540.23 653.572C1651.55 661.435 1760.4 690.122 1864.81 722.428C1977.88 757.413 2088.59 797.389 2205.81 823.694C2322.97 849.993 2449.65 860.947 2562.95 838.012" stroke="white" stroke-width="0.5" stroke-miterlimit="10"/>
<path d="M24.8921 160.291C105.106 214.43 308.442 305.369 490.716 358.343C505.384 362.607 519.816 366.696 533.985 370.734C600.501 389.543 661.879 405.868 725.075 424.621C782.635 441.702 844.044 461.213 907.488 483.618C929.345 491.33 950.929 499.235 971.847 507.887C1058.18 543.602 1123.27 584.62 1192.03 614.819C1224.2 628.952 1258.05 640.85 1297.29 648.229C1362.42 660.479 1436.91 657.094 1512.09 660.592C1521.38 661.023 1530.64 661.559 1539.86 662.221C1651.48 670.239 1760.77 697.925 1865.86 729.029C1979.67 762.712 2091.25 801.109 2208.98 826.594C2326.65 852.074 2453.3 863.06 2567.33 842.041" stroke="white" stroke-width="0.5" stroke-miterlimit="10"/>
<path d="M26.1455 150.922C102.772 213.958 305.099 309.923 488.777 360.258C503.558 364.309 518.112 368.14 532.417 371.88C599.589 389.3 661.865 403.427 725.894 420.382C784.156 435.811 846.335 454.027 909.932 476.339C931.852 484.022 953.454 492.053 974.339 500.992C1060.53 537.891 1124.06 582.445 1191.93 615.955C1223.7 631.646 1257.24 645.048 1296.43 653.628C1361.45 667.861 1436.28 665.418 1511.65 669.175C1520.96 669.637 1530.25 670.195 1539.49 670.869C1651.41 679.043 1761.13 705.728 1866.91 735.629C1981.46 768.011 2093.91 804.829 2212.15 829.494C2330.33 854.153 2456.96 865.172 2571.7 846.068" stroke="white" stroke-width="0.5" stroke-miterlimit="10"/>
<path d="M27.3984 141.553C100.438 213.486 301.755 314.477 486.837 362.173C501.73 366.012 516.408 369.584 530.849 373.027C598.678 389.056 661.85 400.988 726.712 416.144C785.677 429.921 848.625 446.842 912.375 469.06C934.357 476.715 955.979 484.872 976.829 494.098C1062.88 532.179 1124.85 580.273 1191.83 617.091C1223.2 634.341 1256.43 649.246 1295.57 659.026C1360.48 675.243 1435.64 673.744 1511.21 677.757C1520.55 678.252 1529.85 678.831 1539.12 679.517C1651.34 687.847 1761.5 713.531 1867.96 742.231C1983.25 773.31 2096.57 808.549 2215.32 832.394C2334.01 856.234 2460.62 867.285 2576.08 850.097" stroke="white" stroke-width="0.5" stroke-miterlimit="10"/>
<path d="M28.6519 132.183C98.1034 213.014 298.412 319.031 484.896 364.088C499.903 367.715 514.704 371.028 529.281 374.173C597.766 388.812 661.835 398.551 727.53 411.905C787.197 424.033 850.916 439.656 914.819 461.781C936.864 469.406 958.505 477.69 979.321 487.202C1065.23 526.467 1125.65 578.1 1191.73 618.226C1222.7 637.036 1255.64 653.366 1294.72 664.423C1359.55 682.497 1435 682.067 1510.77 686.339C1520.13 686.865 1529.46 687.465 1538.75 688.165C1651.27 696.65 1761.86 721.333 1869.01 748.83C1985.04 778.608 2099.24 812.268 2218.5 835.293C2337.69 858.313 2464.28 869.397 2580.46 854.124" stroke="white" stroke-width="0.5" stroke-miterlimit="10"/>
<path d="M29.9053 122.814C95.7693 212.541 295.069 323.585 482.957 366.003C498.076 369.417 513 372.472 527.713 375.319C596.854 388.568 661.82 396.116 728.348 407.666C788.718 418.147 853.207 432.47 917.262 454.501C939.369 462.097 961.029 470.508 981.811 480.307C1067.59 520.755 1126.44 575.929 1191.63 619.362C1222.2 639.731 1254.83 657.565 1293.86 669.821C1358.58 689.882 1434.36 690.391 1510.33 694.921C1519.71 695.479 1529.07 696.101 1538.37 696.813C1651.2 705.454 1762.23 729.136 1870.06 755.431C1986.83 783.906 2101.9 815.987 2221.67 838.193C2341.37 860.393 2467.93 871.51 2584.84 858.152" stroke="white" stroke-width="0.5" stroke-miterlimit="10"/>
<path d="M31.1582 113.444C93.4347 212.069 291.725 328.139 481.016 367.917C496.247 371.119 511.295 373.916 526.144 376.465C595.942 388.324 661.805 393.683 729.166 403.428C790.238 412.263 855.496 425.284 919.705 447.222C941.874 454.79 963.553 463.326 984.302 473.412C1069.94 515.043 1127.22 573.758 1191.52 620.498C1221.7 642.427 1254.02 661.765 1293 675.219C1357.62 697.267 1433.72 698.716 1509.89 703.503C1519.29 704.093 1528.67 704.736 1538 705.46C1651.12 714.258 1762.59 736.938 1871.11 762.031C1988.62 789.205 2104.56 819.706 2224.84 841.093C2345.04 862.472 2471.59 873.622 2589.22 862.179" stroke="white" stroke-width="0.5" stroke-miterlimit="10"/>
<path d="M32.4116 104.075C91.1005 211.597 288.381 332.693 479.076 369.833C494.421 372.822 509.591 375.361 524.576 377.612C595.03 388.081 661.791 391.252 729.984 399.189C791.76 406.38 857.787 418.099 922.149 439.943C944.38 447.482 966.078 456.145 986.792 466.517C1072.29 509.332 1127.91 571.71 1191.42 621.634C1221.15 645.181 1253.2 665.964 1292.14 680.618C1356.65 704.652 1433.08 707.041 1509.45 712.086C1518.87 712.707 1528.27 713.371 1537.63 714.109C1651.05 723.062 1762.96 744.742 1872.16 768.632C1990.41 794.504 2107.22 823.426 2228.01 843.993C2348.72 864.553 2475.25 875.735 2593.6 866.207" stroke="white" stroke-width="0.5" stroke-miterlimit="10"/>
<path d="M33.665 94.7056C88.7659 211.125 285.038 337.247 477.137 371.747C492.594 374.524 507.888 376.804 523.008 378.758C594.119 387.837 661.777 388.821 730.803 394.951C793.281 400.499 860.078 410.913 924.593 432.664C946.887 440.174 968.604 448.964 989.284 459.622C1074.64 503.621 1128.7 569.529 1191.33 622.77C1220.64 647.873 1252.4 670.164 1291.28 686.016C1355.69 712.038 1432.45 715.366 1509.01 720.669C1518.46 721.322 1527.88 722.007 1537.26 722.757C1650.98 731.866 1763.33 752.545 1873.21 775.234C1992.2 799.804 2109.88 827.146 2231.18 846.894C2352.4 866.634 2478.9 877.848 2597.97 870.236" stroke="white" stroke-width="0.5" stroke-miterlimit="10"/>
<path d="M34.9185 85.3365C86.4318 210.652 281.695 341.801 475.197 373.663C490.766 376.227 506.183 378.249 521.44 379.905C593.207 387.593 661.765 386.394 731.621 390.713C794.803 394.619 862.368 403.728 927.036 425.385C949.392 432.866 971.129 441.782 991.775 452.727C1077 497.909 1129.49 567.347 1191.23 623.906C1220.14 650.563 1251.59 674.364 1290.43 691.414C1354.72 719.423 1431.81 723.69 1508.56 729.251C1518.04 729.936 1527.49 730.643 1536.88 731.405C1650.91 740.67 1763.69 760.348 1874.26 781.834C1993.99 805.102 2112.55 830.866 2234.36 849.794C2356.08 868.714 2482.56 879.961 2602.35 874.264" stroke="white" stroke-width="0.5" stroke-miterlimit="10"/>
<path d="M36.1714 75.9672C84.0972 210.18 278.352 346.355 473.257 375.577C488.939 377.93 504.479 379.693 519.872 381.051C592.295 387.349 661.753 383.967 732.439 386.474C796.327 388.74 864.659 396.542 929.479 418.106C951.898 425.558 973.653 434.601 994.266 445.832C1079.35 492.198 1130.28 565.166 1191.12 625.042C1219.64 653.254 1250.77 678.563 1289.57 696.812C1353.76 726.808 1431.17 732.015 1508.12 737.833C1517.62 738.55 1527.09 739.278 1536.51 740.053C1650.83 749.474 1764.06 768.15 1875.31 788.434C1995.78 810.4 2115.21 834.585 2237.53 852.693C2359.76 870.793 2486.22 882.073 2606.73 878.291" stroke="white" stroke-width="0.5" stroke-miterlimit="10"/>
<path d="M37.4243 66.5977C81.7625 209.708 275.008 350.909 471.316 377.492C487.112 379.632 502.775 381.137 518.303 382.198C591.383 387.106 661.74 381.683 733.258 382.235C797.85 382.99 866.95 389.357 931.923 410.827C954.404 418.251 976.178 427.419 996.757 438.938C1081.7 486.486 1131.07 562.985 1191.03 626.178C1219.13 655.945 1249.96 682.763 1288.71 702.211C1352.79 734.194 1430.53 740.34 1507.68 746.416C1517.2 747.164 1526.7 747.914 1536.14 748.702C1650.76 758.278 1764.43 775.954 1876.36 795.036C1997.58 815.7 2117.87 838.306 2240.7 855.594C2363.44 872.874 2489.87 884.186 2611.11 882.32" stroke="white" stroke-width="0.5" stroke-miterlimit="10"/>
<path d="M38.6782 57.2283C79.4289 209.235 271.665 355.463 469.377 379.407C485.284 381.334 501.071 382.581 516.735 383.344C590.472 386.862 661.733 379.241 734.076 377.997C799.377 377.098 869.24 382.171 934.367 403.547C956.91 410.942 978.703 420.237 999.248 432.042C1084.05 480.774 1131.85 560.803 1190.93 627.313C1218.63 658.636 1249.15 686.962 1287.85 707.608C1351.83 741.579 1429.89 748.664 1507.24 754.998C1516.78 755.779 1526.3 756.549 1535.77 757.35C1650.69 767.083 1764.79 783.756 1877.41 801.637C1999.37 820.999 2120.53 842.025 2243.87 858.494C2367.12 874.954 2493.53 886.299 2615.49 886.348" stroke="white" stroke-width="0.5" stroke-miterlimit="10"/>
<path d="M39.9312 47.8588C77.0943 208.763 268.321 360.017 467.437 381.322C483.457 383.036 499.367 384.024 515.167 384.49C589.56 386.617 661.726 376.798 734.894 373.758C800.905 371.206 871.53 374.985 936.81 396.268C959.416 403.634 981.228 413.055 1001.74 425.147C1086.4 475.062 1132.64 558.621 1190.82 628.448C1218.13 661.326 1248.34 691.161 1286.99 713.006C1350.86 748.963 1429.25 756.988 1506.8 763.579C1516.36 764.392 1525.91 765.184 1535.39 765.997C1650.62 775.885 1765.16 791.558 1878.46 808.236C2001.16 826.297 2123.2 845.743 2247.04 861.393C2370.8 877.033 2497.19 888.411 2619.87 890.375" stroke="white" stroke-width="0.5" stroke-miterlimit="10"/>
<path d="M41.1846 38.4899C74.7602 208.291 264.978 364.571 465.497 383.237C481.63 384.74 497.663 385.47 513.599 385.637C588.649 386.374 661.72 374.357 735.713 369.52C802.433 365.314 873.821 367.8 939.253 388.989C961.922 396.327 983.752 405.874 1004.23 418.253C1088.76 469.351 1133.43 556.441 1190.73 629.585C1217.62 664.018 1247.53 695.362 1286.14 718.405C1349.9 756.35 1428.62 765.314 1506.36 772.163C1515.95 773.007 1525.51 773.82 1535.02 774.646C1650.55 784.691 1765.52 799.362 1879.52 814.838C2002.95 831.597 2125.86 849.465 2250.22 864.294C2374.47 879.114 2500.85 890.525 2624.24 894.404" stroke="white" stroke-width="0.5" stroke-miterlimit="10"/>
<path d="M42.438 29.1204C72.426 207.819 261.635 369.125 463.557 385.152C479.803 386.442 495.958 386.913 512.031 386.783C587.737 386.13 661.712 371.915 736.531 365.281C803.961 359.421 876.112 360.614 941.698 381.709C964.428 389.018 986.278 398.692 1006.72 411.357C1091.11 463.639 1134.22 554.259 1190.63 630.72C1217.12 666.708 1246.72 699.561 1285.28 723.802C1348.93 763.734 1427.98 773.637 1505.92 780.745C1515.53 781.621 1525.12 782.455 1534.65 783.294C1650.48 793.494 1765.89 807.165 1880.57 821.438C2004.74 836.895 2128.52 853.183 2253.39 867.193C2378.15 881.193 2504.5 892.636 2628.62 898.431" stroke="white" stroke-width="0.5" stroke-miterlimit="10"/>
<path d="M43.6909 19.751C70.0914 207.347 258.291 373.679 461.617 387.067C477.975 388.144 494.254 388.357 510.462 387.929C586.824 385.886 661.704 369.474 737.349 361.042C805.488 353.528 878.401 353.428 944.14 374.43C966.933 381.71 988.802 391.51 1009.21 404.462C1093.46 457.927 1135 552.077 1190.52 631.856C1216.62 669.399 1245.91 703.76 1284.42 729.201C1347.97 771.12 1427.34 781.962 1505.48 789.327C1515.11 790.235 1524.72 791.09 1534.28 791.942C1650.4 802.298 1766.26 814.967 1881.62 828.039C2006.53 842.193 2131.18 856.903 2256.56 870.093C2381.83 883.274 2508.16 894.749 2633 902.46" stroke="white" stroke-width="0.5" stroke-miterlimit="10"/>
<path d="M44.9443 10.3815C67.7573 206.874 254.948 378.233 459.676 388.982C476.148 389.847 492.55 389.801 508.894 389.075C585.913 385.643 661.697 367.031 738.167 356.803C807.015 347.636 880.692 346.243 946.583 367.151C969.439 374.402 991.327 384.329 1011.7 397.566C1095.81 452.215 1135.79 549.896 1190.42 632.992C1216.11 672.09 1245.1 707.96 1283.56 734.598C1347 778.505 1426.7 790.286 1505.04 797.909C1514.69 798.849 1524.33 799.725 1533.9 800.59C1650.33 811.101 1766.62 822.77 1882.67 834.639C2008.32 847.492 2133.85 860.622 2259.73 872.992C2385.51 885.353 2511.82 896.861 2637.38 906.487" stroke="white" stroke-width="0.5" stroke-miterlimit="10"/>
<path d="M46.1973 1.01208C65.4227 206.402 251.604 382.787 457.736 390.896C552.485 394.624 645.29 367.141 738.985 352.565C832.68 337.989 935.232 338.172 1014.19 390.671C1137.67 472.769 1162.63 652.988 1282.7 739.996C1353.84 791.546 1446.04 801.242 1533.53 809.238C1902.94 842.996 2272.35 876.755 2641.76 910.515" stroke="white" stroke-width="0.5" stroke-miterlimit="10"/>
<path d="M2629.44 901.731C2395.23 879.906 2160.69 860.303 1927.45 842.529C1817.71 834.165 1708.24 826.185 1598.33 817.559C1575.45 815.76 1552.54 813.927 1529.62 812.053C1442.65 804.958 1350.87 795.576 1280.1 744.299C1220.78 701.32 1185.04 635.263 1149.65 569.635C1113.35 502.359 1077.29 435.338 1015.94 392.899C956.162 351.507 881.745 340.443 807.623 344.677C785.646 345.931 763.751 348.539 742.337 352.005C719.363 355.721 696.478 360.313 673.665 365.079C629.357 374.339 585.27 384.26 540.819 389.876C514.89 393.152 488.836 394.957 462.604 394.369C257.331 389.761 69.5297 218.617 45.7544 15.9445" stroke="white" stroke-width="0.5" stroke-miterlimit="10"/>
<path d="M2617.11 892.948C2384.23 870.82 2150.66 853.137 1919.7 839.112C1811.03 832.512 1702.91 826.679 1593.91 819.554C1571.22 818.064 1548.48 816.508 1525.7 814.868C1439.27 808.674 1347.89 799.604 1277.49 748.602C1218.12 705.592 1182.73 639.134 1148.17 573.235C1112.72 505.735 1077.85 438.429 1017.68 395.127C959.039 352.841 885.155 340.079 811.003 344.023C789.006 345.19 767.096 347.845 745.688 351.446C722.734 355.301 699.901 360.13 677.204 365.183C633.115 375.004 589.425 385.672 545.268 392.037C519.513 395.748 493.595 397.982 467.471 397.842C263.057 396.734 73.6368 230.833 45.3105 30.8765" stroke="white" stroke-width="0.5" stroke-miterlimit="10"/>
<path d="M2604.79 884.164C2373.23 861.734 2140.63 845.97 1911.95 835.695C1804.36 830.858 1697.59 827.173 1589.49 821.549C1567 820.368 1544.42 819.089 1521.79 817.682C1435.88 812.389 1344.92 803.632 1274.89 752.904C1215.46 709.862 1180.42 643.004 1146.68 576.834C1112.08 509.11 1078.42 441.52 1019.43 397.354C961.917 354.174 888.566 339.715 814.384 343.368C792.366 344.448 770.442 347.149 749.039 350.885C726.104 354.879 703.325 359.946 680.744 365.285C636.874 375.666 593.58 387.083 549.718 394.196C524.135 398.343 498.353 401.006 472.339 401.314C268.783 403.707 77.7434 243.049 44.8667 45.8083" stroke="white" stroke-width="0.5" stroke-miterlimit="10"/>
<path d="M2592.47 875.38C2362.22 852.649 2130.6 838.805 1904.2 832.279C1797.68 829.204 1692.26 827.667 1585.06 823.543C1562.77 822.671 1540.35 821.669 1517.87 820.496C1432.49 816.103 1341.94 807.66 1272.28 757.206C1212.8 714.132 1178.12 646.873 1145.2 580.432C1111.44 512.485 1078.98 444.61 1021.17 399.58C964.795 355.507 891.976 339.35 817.764 342.713C795.726 343.707 773.788 346.454 752.39 350.325C729.474 354.457 706.748 359.762 684.283 365.388C640.632 376.33 597.735 388.494 554.168 396.355C528.757 400.937 503.112 404.029 477.206 404.785C274.509 410.68 81.8505 255.264 44.4233 60.7402" stroke="white" stroke-width="0.5" stroke-miterlimit="10"/>
<path d="M2580.15 866.596C2351.22 843.562 2120.57 831.638 1896.45 828.861C1791 827.551 1686.93 828.161 1580.64 825.538C1558.54 824.975 1536.29 824.248 1513.96 823.31C1429.1 819.818 1338.97 811.688 1269.67 761.508C1210.14 718.402 1175.81 650.743 1143.71 584.031C1110.81 515.86 1079.55 447.701 1022.91 401.807C967.673 356.84 895.386 338.985 821.145 342.059C799.086 342.964 777.134 345.76 755.741 349.764C732.845 354.036 710.172 359.578 687.823 365.49C644.392 376.992 601.89 389.904 558.618 398.514C533.38 403.532 507.87 407.053 482.074 408.257C280.235 417.653 85.9576 267.48 43.98 75.6727" stroke="white" stroke-width="0.5" stroke-miterlimit="10"/>
<path d="M2567.83 857.812C2340.22 834.477 2110.53 824.472 1888.7 825.445C1784.33 825.897 1681.61 828.655 1576.22 827.533C1554.31 827.279 1532.23 826.829 1510.04 826.124C1425.71 823.533 1335.99 815.716 1267.07 765.81C1207.48 722.673 1173.5 654.613 1142.23 587.631C1110.17 519.236 1080.11 450.792 1024.66 404.035C970.551 358.174 898.796 338.622 824.526 341.404C802.447 342.223 780.48 345.065 759.092 349.204C736.216 353.615 713.597 359.394 691.363 365.593C648.151 377.657 606.045 391.316 563.068 400.673C538.004 406.127 512.63 410.078 486.942 411.729C285.961 424.627 90.0647 279.695 43.5366 90.6041" stroke="white" stroke-width="0.5" stroke-miterlimit="10"/>
<path d="M2555.5 849.028C2329.21 825.391 2100.5 817.306 1880.95 822.028C1777.65 824.244 1676.28 829.15 1571.8 829.528C1550.08 829.583 1528.16 829.41 1506.13 828.939C1422.32 827.249 1333.01 819.745 1264.46 770.113C1204.83 726.945 1171.2 658.484 1140.74 591.231C1109.54 522.613 1080.68 453.884 1026.4 406.263C973.428 359.508 902.206 338.258 827.905 340.75C805.806 341.482 783.825 344.371 762.442 348.645C739.586 353.194 717.019 359.212 694.902 365.696C651.909 378.32 610.199 392.728 567.516 402.833C542.625 408.723 517.387 413.102 491.808 415.202C291.686 431.6 94.1698 291.91 43.0913 105.537" stroke="white" stroke-width="0.5" stroke-miterlimit="10"/>
<path d="M2543.18 840.245C2318.21 816.305 2090.47 810.141 1873.2 818.612C1770.98 822.591 1670.95 829.644 1567.37 831.523C1545.86 831.887 1524.1 831.99 1502.21 831.753C1418.93 830.963 1330.04 823.772 1261.86 774.414C1202.17 731.214 1168.89 662.353 1139.26 594.829C1108.9 525.987 1081.24 456.975 1028.15 408.489C976.307 360.841 905.617 337.894 831.287 340.096C809.167 340.74 787.172 343.676 765.794 348.085C742.957 352.773 720.444 359.028 698.442 365.799C655.668 378.984 614.356 394.14 571.968 404.993C547.248 411.318 522.147 416.127 496.676 418.674C297.413 438.573 98.2784 304.126 42.6489 120.469" stroke="white" stroke-width="0.5" stroke-miterlimit="10"/>
<path d="M2530.86 831.461C2307.21 807.219 2080.44 802.975 1865.45 815.195C1764.3 820.937 1665.63 830.137 1562.95 833.517C1541.63 834.191 1520.04 834.57 1498.3 834.568C1415.54 834.678 1327.06 827.8 1259.25 778.717C1199.51 735.485 1166.58 666.223 1137.77 598.429C1108.26 529.363 1081.81 460.066 1029.89 410.717C979.185 362.175 909.027 337.53 834.667 339.441C812.527 339.999 790.518 342.982 769.145 347.525C746.327 352.352 723.868 358.844 701.982 365.902C659.427 379.647 618.511 395.551 576.417 407.153C551.871 413.913 526.905 419.15 501.544 422.147C303.139 445.547 102.385 316.342 42.2061 135.401" stroke="white" stroke-width="0.5" stroke-miterlimit="10"/>
<path d="M2518.54 822.677C2296.2 798.133 2070.41 795.809 1857.7 811.778C1757.63 819.283 1660.3 830.631 1558.53 835.512C1537.4 836.495 1515.97 837.151 1494.38 837.382C1412.15 838.394 1324.09 831.829 1256.64 783.019C1196.85 739.756 1164.27 670.094 1136.29 602.028C1107.63 532.738 1082.37 463.157 1031.63 412.944C982.063 363.508 912.438 337.166 838.048 338.786C815.887 339.257 793.864 342.287 772.497 346.964C749.699 351.931 727.293 358.66 705.522 366.004C663.187 380.31 622.667 396.962 580.868 409.311C556.494 416.507 531.665 422.173 506.412 425.617C308.865 452.518 106.492 328.556 41.7627 150.332" stroke="white" stroke-width="0.5" stroke-miterlimit="10"/>
<path d="M2506.21 813.893C2285.2 789.048 2060.38 788.643 1849.95 808.362C1750.95 817.63 1654.97 831.125 1554.11 837.507C1533.17 838.799 1511.91 839.731 1490.47 840.196C1408.76 842.108 1321.11 835.857 1254.04 787.321C1194.19 744.027 1161.97 673.963 1134.81 605.627C1106.99 536.113 1082.83 466.349 1033.38 415.171C984.838 364.941 915.849 336.801 841.428 338.132C819.247 338.516 797.211 341.592 775.847 346.404C753.069 351.51 730.716 358.477 709.061 366.107C666.945 380.974 626.821 398.374 585.317 411.471C561.117 419.103 536.423 425.198 511.279 429.09C314.591 459.492 110.6 340.772 41.3188 165.265" stroke="white" stroke-width="0.5" stroke-miterlimit="10"/>
<path d="M2493.89 805.11C2274.2 779.962 2050.35 781.477 1842.2 804.945C1744.27 815.977 1649.65 831.62 1549.69 839.502C1528.94 841.102 1507.85 842.311 1486.55 843.011C1405.37 845.823 1318.14 839.885 1251.43 791.624C1191.53 748.297 1159.66 677.834 1133.32 609.226C1106.36 539.489 1083.39 469.443 1035.12 417.398C987.708 366.277 919.259 336.437 844.809 337.478C822.607 337.775 800.556 340.898 779.198 345.844C756.439 351.089 734.14 358.293 712.6 366.21C670.703 381.638 630.976 399.785 589.766 413.63C565.738 421.698 541.181 428.222 516.146 432.562C320.316 466.466 114.705 352.988 40.874 180.197" stroke="white" stroke-width="0.5" stroke-miterlimit="10"/>
<path d="M2481.57 796.326C2263.19 770.876 2040.32 774.311 1834.45 801.529C1737.6 814.324 1644.32 832.114 1545.26 841.497C1524.72 843.407 1503.78 844.892 1482.64 845.825C1401.98 849.539 1315.16 843.913 1248.83 795.926C1188.87 752.568 1157.35 681.704 1131.84 612.826C1105.72 542.865 1083.95 472.536 1036.86 419.626C990.58 367.612 922.669 336.074 848.189 336.823C825.967 337.034 803.902 340.203 782.549 345.284C759.81 350.668 737.563 358.11 716.14 366.313C674.462 382.301 635.131 401.197 594.216 415.79C570.361 424.293 545.94 431.247 521.013 436.034C326.043 473.439 118.812 365.203 40.4312 195.129" stroke="white" stroke-width="0.5" stroke-miterlimit="10"/>
<path d="M2469.25 787.542C2252.19 761.79 2030.29 767.145 1826.7 798.112C1730.92 812.67 1638.99 832.608 1540.84 843.492C1520.49 845.711 1499.72 847.472 1478.72 848.64C1398.59 853.254 1312.19 847.942 1246.22 800.229C1186.21 756.839 1155.05 685.574 1130.35 616.425C1105.08 546.241 1084.51 475.628 1038.61 421.853C993.452 368.947 926.08 335.71 851.57 336.169C829.328 336.292 807.249 339.509 785.9 344.724C763.181 350.247 740.987 357.927 719.68 366.416C678.221 382.965 639.286 402.609 598.666 417.95C574.983 426.889 550.698 434.271 525.881 439.507C331.769 480.413 122.919 377.419 39.9873 210.062" stroke="white" stroke-width="0.5" stroke-miterlimit="10"/>
<path d="M2456.93 778.758C2241.19 752.704 2020.26 759.979 1818.95 794.695C1724.25 811.017 1633.67 833.103 1536.42 845.487C1516.26 848.015 1495.66 850.053 1474.81 851.454C1395.2 856.969 1309.21 851.97 1243.61 804.531C1183.56 761.109 1152.74 689.444 1128.87 620.024C1104.45 549.616 1085.07 478.719 1040.35 424.08C996.326 370.28 929.49 335.346 854.951 335.515C832.688 335.551 810.595 338.815 789.252 344.164C766.552 349.826 744.412 357.743 723.22 366.52C681.98 383.629 643.441 404.02 603.117 420.11C579.607 429.484 555.458 437.296 530.749 442.98C337.496 487.386 127.027 389.635 39.5449 224.994" stroke="white" stroke-width="0.5" stroke-miterlimit="10"/>
<path d="M2444.6 769.974C2230.18 743.618 2010.23 752.813 1811.2 791.279C1717.57 809.363 1628.34 833.597 1532 847.481C1512.03 850.318 1491.59 852.633 1470.89 854.269C1391.81 860.684 1306.24 855.998 1241.01 808.833C1180.9 765.38 1150.43 693.314 1127.38 623.624C1103.81 552.991 1085.63 481.809 1042.1 426.307C999.2 371.613 932.901 334.982 858.332 334.86C836.049 334.809 813.941 338.12 792.604 343.604C769.923 349.404 747.836 357.559 726.76 366.622C685.739 384.291 647.597 405.431 607.567 422.269C584.23 432.078 560.217 440.319 535.617 446.45C343.222 494.358 131.135 401.85 39.1016 239.925" stroke="white" stroke-width="0.5" stroke-miterlimit="10"/>
<path d="M2432.28 761.191C2219.18 734.533 2000.2 745.647 1803.45 787.862C1710.9 807.71 1623.01 834.091 1527.57 849.476C1507.8 852.622 1487.53 855.213 1466.98 857.083C1388.42 864.399 1303.26 860.026 1238.4 813.135C1178.24 769.651 1148.13 697.184 1125.9 627.222C1103.17 556.366 1086.19 484.897 1043.84 428.534C1002.07 372.944 936.31 334.617 861.711 334.205C839.408 334.067 817.286 337.425 795.954 343.043C773.292 348.983 751.259 357.375 730.299 366.724C689.497 384.955 651.752 406.842 612.016 424.428C588.851 434.673 564.975 443.343 540.483 449.923C348.947 501.331 135.24 414.065 38.6567 254.857" stroke="white" stroke-width="0.5" stroke-miterlimit="10"/>
<path d="M2419.96 752.407C2208.18 725.447 1990.17 738.481 1795.7 784.446C1704.22 806.057 1617.69 834.585 1523.15 851.471C1503.58 854.926 1483.47 857.794 1463.06 859.898C1385.03 868.114 1300.28 864.055 1235.8 817.438C1175.58 773.922 1145.82 701.055 1124.41 630.822C1102.54 559.742 1086.75 487.987 1045.58 430.762C1004.95 374.276 939.721 334.254 865.092 333.552C842.769 333.327 820.633 336.731 799.305 342.484C776.663 348.563 754.683 357.193 733.839 366.828C693.257 385.619 655.907 408.254 616.466 426.588C593.474 437.269 569.734 446.368 545.351 453.396C354.674 508.306 139.347 426.281 38.2139 269.79" stroke="white" stroke-width="0.5" stroke-miterlimit="10"/>
<path d="M2407.64 743.623C2197.17 716.361 1980.14 731.316 1787.95 781.029C1697.54 804.403 1612.36 835.079 1518.73 853.466C1499.35 857.23 1479.4 860.374 1459.15 862.712C1381.64 871.829 1297.31 868.083 1233.19 821.739C1172.92 778.192 1143.51 704.924 1122.93 634.421C1101.9 563.117 1087.32 491.073 1047.33 432.988C1007.83 375.605 943.131 333.889 868.473 332.896C846.129 332.584 823.978 336.036 802.656 341.923C780.034 348.14 758.107 357.008 737.378 366.929C697.015 386.281 660.062 409.664 620.916 428.746C598.096 439.862 574.492 449.39 550.218 456.866C360.399 515.277 143.454 438.495 37.77 284.72" stroke="white" stroke-width="0.5" stroke-miterlimit="10"/>
<path d="M2395.32 734.839C2186.17 707.275 1970.11 724.15 1780.2 777.612C1690.87 802.75 1607.03 835.573 1514.31 855.461C1495.12 859.534 1475.34 862.954 1455.23 865.526C1378.25 875.544 1294.33 872.111 1230.58 826.041C1170.26 782.462 1141.2 708.794 1121.44 638.02C1101.26 566.493 1087.88 494.161 1049.07 435.215C1010.7 376.934 946.542 333.524 871.853 332.241C849.489 331.842 827.324 335.34 806.007 341.363C783.404 347.719 761.531 356.824 740.918 367.032C700.774 386.945 664.217 411.076 625.366 430.906C602.719 442.458 579.251 452.415 555.086 460.339C366.125 522.251 147.561 450.711 37.3267 299.653" stroke="white" stroke-width="0.5" stroke-miterlimit="10"/>
<path d="M2382.99 726.056C2175.17 698.19 1960.08 716.984 1772.45 774.196C1684.19 801.097 1601.7 836.067 1509.88 857.456C1490.89 861.838 1471.28 865.535 1451.32 868.341C1374.86 879.259 1291.36 876.139 1227.98 830.344C1167.6 786.734 1138.9 712.664 1119.96 641.62C1100.63 569.869 1088.44 497.248 1050.82 437.443C1013.58 378.264 949.952 333.161 875.234 331.588C852.849 331.102 830.67 334.647 809.358 340.804C786.774 347.299 764.954 356.642 744.457 367.136C704.533 387.609 668.372 412.488 629.815 433.066C607.341 445.053 584.009 455.44 559.953 463.812C371.851 529.224 151.668 462.927 36.8828 314.586" stroke="white" stroke-width="0.5" stroke-miterlimit="10"/>
<path d="M2370.67 717.272C2164.16 689.104 1950.05 709.818 1764.7 770.779C1677.52 799.443 1596.38 836.561 1505.46 859.451C1486.66 864.142 1467.21 868.116 1447.4 871.155C1371.48 882.974 1288.38 880.167 1225.37 834.646C1164.94 791.004 1136.59 716.534 1118.48 645.219C1099.99 573.244 1089.01 500.333 1052.56 439.67C1016.46 379.592 953.363 332.796 878.615 330.933C856.209 330.36 834.017 333.952 812.709 340.243C790.145 346.878 768.379 356.458 747.997 367.239C708.292 388.272 672.528 413.9 634.266 435.225C611.965 447.649 588.769 458.463 564.822 467.283C377.578 536.197 155.776 475.142 36.4399 329.517" stroke="white" stroke-width="0.5" stroke-miterlimit="10"/>
<path d="M2358.35 708.488C2153.16 680.018 1940.02 702.652 1756.95 767.362C1670.84 797.789 1591.05 837.055 1501.04 861.445C1482.44 866.446 1463.15 870.696 1443.49 873.969C1368.09 886.69 1285.41 884.195 1222.77 838.948C1162.29 795.274 1134.29 720.404 1116.99 648.818C1099.36 576.62 1089.58 503.419 1054.31 441.897C1019.34 380.92 956.775 332.432 881.997 330.278C859.571 329.619 837.364 333.257 816.062 339.683C793.518 346.456 771.804 356.274 751.539 367.341C712.052 388.936 676.684 415.31 638.717 437.384C616.589 450.243 593.529 461.487 569.69 470.755C383.306 543.17 159.884 487.357 35.998 344.449" stroke="white" stroke-width="0.5" stroke-miterlimit="10"/>
<path d="M2346.03 699.704C2142.16 670.932 1929.99 695.486 1749.2 763.946C1664.17 796.137 1585.72 837.55 1496.62 863.441C1478.21 868.75 1459.09 873.276 1439.57 876.784C1364.7 890.405 1282.43 888.223 1220.16 843.25C1159.63 799.545 1131.98 724.274 1115.51 652.418C1098.72 579.995 1090.15 506.504 1056.05 444.124C1022.22 382.248 960.183 332.069 885.376 329.624C862.929 328.877 840.708 332.563 819.411 339.123C796.886 346.035 775.226 356.09 755.076 367.444C715.809 389.599 680.837 416.722 643.165 439.544C621.209 452.839 598.285 464.511 574.555 474.228C389.03 550.144 163.989 499.573 35.5522 359.381" stroke="white" stroke-width="0.5" stroke-miterlimit="10"/>
<path d="M2333.7 690.921C2131.15 661.846 1919.96 688.32 1741.45 760.53C1657.49 794.483 1580.4 838.044 1492.19 865.435C1473.98 871.054 1455.02 875.857 1435.66 879.599C1361.31 894.12 1279.46 892.252 1217.55 847.554C1156.97 803.817 1129.67 728.145 1114.02 656.018C1098.09 583.372 1090.72 509.59 1057.79 446.353C1025.11 383.576 963.595 331.705 888.757 328.971C866.291 328.137 844.055 331.869 822.763 338.564C800.258 345.615 778.652 355.908 758.617 367.548C719.569 390.264 684.993 418.134 647.615 441.705C625.833 455.434 603.045 467.537 579.424 477.7C394.756 557.117 168.096 511.789 35.1094 374.314" stroke="white" stroke-width="0.5" stroke-miterlimit="10"/>
<path d="M2321.38 682.137C2120.15 652.761 1909.93 681.155 1733.7 757.113C1650.82 792.829 1575.07 838.538 1487.77 867.43C1469.75 873.358 1450.96 878.437 1431.74 882.413C1357.92 897.835 1276.48 896.28 1214.95 851.856C1154.31 808.087 1127.36 732.016 1112.54 659.617C1097.45 586.747 1091.41 512.614 1059.54 448.579C1028.11 384.844 967.005 331.341 892.137 328.316C869.65 327.395 847.401 331.175 826.114 338.004C803.628 345.194 782.075 355.724 762.156 367.651C723.327 390.927 689.148 419.546 652.065 443.865C630.455 458.03 607.803 470.561 584.291 481.173C400.482 564.091 172.203 524.005 34.665 389.247" stroke="white" stroke-width="0.5" stroke-miterlimit="10"/>
<path d="M2309.06 673.353C2109.15 643.675 1899.9 673.988 1725.95 753.696C1644.14 791.176 1569.74 839.032 1483.35 869.425C1465.52 875.661 1446.9 881.017 1427.83 885.227C1354.53 901.55 1273.51 900.308 1212.34 856.158C1151.65 812.358 1125.06 735.886 1111.05 663.216C1096.81 590.122 1091.98 515.705 1061.28 450.806C1030.99 386.177 970.415 330.977 895.518 327.661C873.011 326.654 850.748 330.479 829.466 337.443C806.999 344.772 785.5 355.54 765.696 367.753C727.086 391.59 693.304 420.957 656.515 446.023C635.078 460.624 612.563 473.584 589.159 484.644C406.209 571.064 176.311 536.22 34.2227 404.178" stroke="white" stroke-width="0.5" stroke-miterlimit="10"/>
<path d="M2296.74 664.569C2098.14 634.589 1889.87 666.823 1718.2 750.28C1637.46 789.523 1564.42 839.526 1478.93 871.42C1461.3 877.966 1442.83 883.598 1423.91 888.042C1351.14 905.265 1270.53 904.336 1209.74 860.46C1148.99 816.628 1122.75 739.755 1109.57 666.815C1096.18 593.497 1092.54 518.796 1063.02 453.034C1033.87 387.51 973.824 330.613 898.898 327.007C876.37 325.912 854.093 329.785 832.815 336.883C810.368 344.351 788.922 355.357 769.234 367.856C730.844 392.253 697.458 422.368 660.964 448.182C639.699 463.219 617.32 476.608 594.025 488.116C411.934 578.037 180.416 548.435 33.7778 419.11" stroke="white" stroke-width="0.5" stroke-miterlimit="10"/>
<path d="M2284.42 655.786C2087.14 625.503 1879.84 659.657 1710.45 746.863C1630.79 787.869 1559.09 840.02 1474.5 873.415C1457.07 880.27 1438.77 886.178 1420 890.856C1347.75 908.98 1267.55 908.364 1207.13 864.762C1146.33 820.899 1120.44 743.625 1108.08 670.414C1095.54 596.873 1093.11 521.887 1064.77 455.261C1036.75 388.843 977.236 330.248 902.28 326.352C879.731 325.171 857.44 329.09 836.168 336.323C813.74 343.93 792.348 355.173 772.775 367.959C734.604 392.917 701.614 423.779 665.415 450.342C644.324 465.814 622.08 479.632 598.894 491.588C417.662 585.01 184.525 560.65 33.3359 434.042" stroke="white" stroke-width="0.5" stroke-miterlimit="10"/>
<path d="M2272.09 647.002C2076.14 616.418 1869.81 652.491 1702.7 743.447C1624.11 786.216 1553.76 840.514 1470.08 875.41C1452.84 882.574 1434.71 888.759 1416.09 893.671C1344.36 912.696 1264.58 912.393 1204.52 869.065C1143.67 825.17 1118.14 747.496 1106.6 674.014C1094.9 600.249 1093.67 524.978 1066.51 457.488C1039.63 390.178 980.647 329.885 905.661 325.698C883.092 324.43 860.786 328.396 839.519 335.763C817.111 343.509 795.772 354.99 776.316 368.062C738.364 393.581 705.77 425.191 669.866 452.502C648.946 468.409 626.84 482.657 603.762 495.061C423.387 591.984 188.632 572.867 32.8926 448.974" stroke="white" stroke-width="0.5" stroke-miterlimit="10"/>
<path d="M2259.77 638.218C2065.14 607.332 1859.78 645.325 1694.95 740.03C1617.44 784.563 1548.44 841.008 1465.66 877.404C1448.61 884.877 1430.64 891.339 1412.17 896.485C1340.97 916.41 1261.6 916.421 1201.92 873.366C1141.01 829.44 1115.83 751.366 1105.11 677.612C1094.27 603.624 1094.24 528.069 1068.26 459.715C1042.5 391.51 984.057 329.52 909.041 325.043C886.451 323.687 864.132 327.701 842.87 335.202C820.481 343.087 799.195 354.805 779.854 368.164C742.122 394.244 709.924 426.602 674.315 454.661C653.568 471.004 631.597 485.68 608.629 498.532C429.113 598.956 192.738 585.081 32.4482 463.905" stroke="white" stroke-width="0.5" stroke-miterlimit="10"/>
<path d="M2247.45 629.434C2054.13 598.246 1849.74 638.159 1687.2 736.613C1610.76 782.909 1543.11 841.502 1461.24 879.399C1444.38 887.181 1426.58 893.919 1408.25 899.3C1337.58 920.126 1258.63 920.449 1199.31 877.669C1138.36 833.711 1113.52 755.236 1103.63 681.212C1093.63 606.999 1094.8 531.16 1070 461.942C1045.38 392.844 987.467 329.156 912.42 324.389C889.811 322.947 867.477 327.007 846.22 334.643C823.851 342.667 802.618 354.623 783.394 368.268C745.88 394.908 714.079 428.014 678.764 456.821C658.191 473.6 636.356 488.705 613.495 502.006C434.838 605.93 196.844 597.298 32.0039 478.838" stroke="white" stroke-width="0.5" stroke-miterlimit="10"/>
<path d="M2235.13 620.65C2043.13 589.16 1839.71 630.993 1679.45 733.196C1604.09 781.255 1537.78 841.996 1456.81 881.394C1440.16 889.485 1422.52 896.5 1404.34 902.114C1334.19 923.84 1255.65 924.477 1196.71 881.971C1135.7 837.981 1111.22 759.106 1102.14 684.811C1093 610.375 1095.37 534.251 1071.74 464.169C1048.26 394.177 990.877 328.792 915.801 323.734C893.171 322.205 870.823 326.312 849.571 334.083C827.222 342.246 806.042 354.439 786.933 368.371C749.639 395.571 718.234 429.425 683.214 458.98C662.813 476.194 641.114 491.729 618.363 505.477C440.565 612.903 200.952 609.512 31.561 493.77" stroke="white" stroke-width="0.5" stroke-miterlimit="10"/>
<path d="M2222.81 611.867C2032.13 580.075 1829.68 623.827 1671.7 729.78C1597.41 779.602 1532.46 842.49 1452.39 883.389C1435.93 891.789 1418.45 899.081 1400.43 904.929C1330.8 927.556 1252.68 928.506 1194.1 886.274C1133.04 842.253 1108.91 762.976 1100.66 688.41C1092.36 613.751 1095.93 537.342 1073.49 466.397C1051.14 395.511 994.288 328.428 919.182 323.08C896.532 321.463 874.17 325.617 852.923 333.522C830.593 341.824 809.467 354.255 790.474 368.473C753.399 396.235 722.39 430.836 687.664 461.139C667.436 478.789 645.874 494.753 623.232 508.949C446.292 619.876 205.06 621.728 31.1182 508.702" stroke="white" stroke-width="0.5" stroke-miterlimit="10"/>
<path d="M2210.48 603.083C2021.12 570.988 1819.65 616.661 1663.95 726.364C1590.73 777.949 1527.13 842.985 1447.97 885.384C1431.7 894.093 1414.39 901.661 1396.51 907.743C1327.41 931.271 1249.7 932.534 1191.49 890.576C1130.38 846.523 1106.6 766.846 1099.18 692.009C1091.72 617.125 1096.5 540.433 1075.23 468.624C1054.01 396.844 997.699 328.064 922.563 322.425C899.893 320.722 877.516 324.923 856.274 332.962C833.964 341.403 812.891 354.071 794.013 368.576C757.157 396.898 726.545 432.248 692.114 463.299C672.058 481.385 650.632 497.777 628.098 512.422C452.017 626.849 209.166 633.944 30.6738 523.635" stroke="white" stroke-width="0.5" stroke-miterlimit="10"/>
<path d="M2198.16 594.299C2010.12 561.903 1809.62 609.495 1656.2 722.947C1584.06 776.296 1521.8 843.479 1443.55 887.379C1365.29 931.279 1261.68 947.34 1188.89 894.878C1127.72 850.794 1104.29 770.716 1097.69 695.609C1091.09 620.502 1097.06 543.525 1076.98 470.852C1056.89 398.179 1001.11 327.701 925.943 321.771C879.434 318.103 834.189 339.797 797.552 368.679C760.915 397.562 730.699 433.66 696.563 465.459C521.323 628.701 236.698 659.929 30.23 538.567" stroke="white" stroke-width="0.5" stroke-miterlimit="10"/>
<path d="M39.897 525.623C126.38 575.676 224.619 602.251 322.161 604.256C419.767 606.26 517.133 584.216 602.935 538.204C637.199 519.835 669.572 497.564 699.082 471.482C733.441 440.911 764.075 405.897 800.902 377.637C837.921 349.348 883.24 327.724 929.661 330.542C963.452 332.609 993.351 347.317 1017.89 369.151C1047.8 395.745 1069.85 432.873 1081.53 470.896C1091.09 501.88 1095.65 533.884 1098.65 566.615C1102.34 606.953 1103.3 648.417 1107.9 689.516C1110.48 712.772 1114.64 736.558 1120.99 759.576C1134.97 810.21 1159.73 857.186 1201.87 887.562C1274.84 940.154 1377.91 925.941 1456.42 884.464C1534.94 842.989 1598 778.68 1670.74 727.611C1825.42 619.007 2026.16 573.481 2214.75 604.656" stroke="white" stroke-width="0.5" stroke-miterlimit="10"/>
<path d="M49.564 512.678C136.51 562.22 233.4 591.295 328.894 596.227C424.451 601.159 519.521 583.023 605.052 540.495C639.21 523.52 671.836 502.592 701.601 477.504C736.28 448.276 767.236 414.232 804.252 386.594C841.654 358.899 887.046 337.345 933.38 339.311C967.083 340.774 996.94 354.403 1021.5 374.882C1051.46 399.811 1073.76 434.811 1086.09 470.938C1096.21 500.352 1101.55 530.942 1105.55 562.679C1110.45 601.792 1112.56 642.687 1118.11 683.42C1121.21 706.459 1125.82 730.072 1132.54 752.915C1147.31 803.163 1172.62 849.798 1214.86 880.244C1288.01 932.965 1390.53 920.6 1469.29 881.547C1548.07 842.498 1611.94 781.063 1685.27 732.274C1841.21 628.517 2042.2 585.058 2231.34 615.011" stroke="white" stroke-width="0.5" stroke-miterlimit="10"/>
<path d="M59.2305 499.735C146.639 548.766 242.182 580.34 335.627 588.199C429.134 596.058 521.909 581.832 607.168 542.787C641.22 527.206 674.052 507.572 704.12 483.527C739.062 455.585 770.317 422.459 807.601 395.552C845.308 368.341 890.853 346.968 937.099 348.082C970.713 348.94 1000.53 361.49 1025.12 380.614C1055.12 403.879 1077.66 436.75 1090.65 470.983C1101.33 498.827 1107.46 528.003 1112.45 558.744C1118.56 596.631 1121.82 636.958 1128.31 677.326C1131.94 700.148 1137 723.587 1144.08 746.255C1159.66 796.118 1185.51 842.411 1227.85 872.928C1301.17 925.779 1403.14 915.261 1482.17 878.631C1561.2 842.008 1625.88 783.447 1699.8 736.938C1857.01 638.027 2058.24 596.636 2247.93 625.366" stroke="white" stroke-width="0.5" stroke-miterlimit="10"/>
<path d="M68.897 486.79C156.768 535.312 250.963 569.384 342.36 580.17C433.816 590.956 524.298 580.639 609.283 545.078C643.23 530.891 676.263 512.552 706.638 489.549C741.839 462.892 773.455 430.76 810.95 404.509C849.018 377.857 894.658 356.588 940.817 356.852C974.343 357.104 1004.12 368.577 1028.73 386.346C1058.78 407.944 1081.48 438.724 1095.21 471.026C1106.39 497.329 1113.36 525.061 1119.35 554.808C1126.67 591.47 1131.08 631.227 1138.52 671.231C1142.67 693.836 1148.18 717.102 1155.62 739.594C1172.01 789.072 1198.41 835.025 1240.84 865.611C1314.33 918.591 1415.76 909.921 1495.04 875.714C1574.34 841.518 1639.82 785.831 1714.34 741.6C1872.81 647.538 2074.28 608.213 2264.52 635.722" stroke="white" stroke-width="0.5" stroke-miterlimit="10"/>
<path d="M78.564 473.846C166.898 521.858 259.745 558.429 349.094 572.142C438.5 585.855 526.686 579.447 611.4 547.37C645.241 534.577 678.471 517.533 709.158 495.573C744.613 470.2 776.597 439.064 814.301 413.467C852.732 387.376 898.465 366.211 944.537 365.622C977.974 365.27 1007.71 375.664 1032.35 392.078C1062.45 412.012 1085.37 440.677 1099.77 471.07C1111.49 495.814 1119.27 522.122 1126.25 550.873C1134.78 586.31 1140.34 625.498 1148.73 665.138C1153.41 687.525 1159.36 710.618 1167.17 732.935C1184.35 782.028 1211.3 827.639 1253.82 858.295C1327.5 911.405 1428.38 904.582 1507.91 872.799C1587.47 841.028 1653.76 788.216 1728.87 746.265C1888.6 657.05 2090.33 619.791 2281.11 646.079" stroke="white" stroke-width="0.5" stroke-miterlimit="10"/>
<path d="M88.2305 460.902C177.027 508.403 268.526 547.473 355.827 564.114C443.183 580.754 529.074 578.256 613.515 549.661C647.251 538.263 680.673 522.512 711.676 501.596C747.38 477.507 779.74 447.369 817.65 422.425C856.447 396.895 902.27 375.833 948.254 374.393C981.604 373.436 1011.29 382.752 1035.96 397.811C1066.11 416.079 1089.25 442.633 1104.33 471.115C1116.59 494.302 1125.18 519.182 1133.15 546.939C1142.89 581.151 1149.6 619.769 1158.93 659.044C1164.14 681.214 1170.53 704.134 1178.71 726.275C1196.7 774.983 1224.19 820.252 1266.81 850.978C1340.66 904.218 1440.99 899.243 1520.79 869.883C1600.61 840.538 1667.69 790.6 1743.4 750.929C1904.4 666.56 2106.37 631.369 2297.69 656.435" stroke="white" stroke-width="0.5" stroke-miterlimit="10"/>
<path d="M97.897 447.958C187.157 494.948 277.307 536.518 362.56 556.085C447.866 575.653 531.462 577.064 615.631 551.953C649.261 541.948 682.872 527.491 714.194 507.618C750.142 484.812 782.886 455.676 820.999 431.382C860.165 406.416 906.076 385.454 951.973 383.163C985.234 381.6 1014.88 389.839 1039.58 403.542C1069.77 420.145 1093.14 444.589 1108.88 471.158C1121.7 492.79 1131.08 516.241 1140.05 543.003C1151.01 575.988 1158.85 614.039 1169.14 652.949C1174.86 674.902 1181.71 697.648 1190.25 719.614C1209.04 767.937 1237.08 812.865 1279.8 843.661C1353.82 897.03 1453.61 893.903 1533.66 866.966C1613.74 840.046 1681.63 792.983 1757.94 755.591C1920.2 676.07 2122.41 642.945 2314.28 666.789" stroke="white" stroke-width="0.5" stroke-miterlimit="10"/>
<path d="M107.564 435.014C197.286 481.494 286.089 525.562 369.293 548.057C452.549 570.551 533.85 575.872 617.747 554.244C651.272 545.634 685.066 532.468 716.713 513.641C752.9 492.114 786.035 463.985 824.349 440.339C863.886 415.94 909.882 395.075 955.692 391.933C988.865 389.766 1018.44 396.981 1043.19 409.275C1073.4 424.279 1097.03 446.549 1113.44 471.202C1126.81 491.282 1136.99 513.301 1146.95 539.068C1159.12 570.829 1168.11 608.31 1179.35 646.856C1185.6 668.591 1192.89 691.165 1201.8 712.955C1221.39 760.892 1249.97 805.479 1292.79 836.345C1366.99 889.845 1466.23 888.564 1546.53 864.051C1626.88 839.558 1695.57 795.368 1772.47 760.256C1935.99 685.582 2138.45 654.525 2330.87 677.146" stroke="white" stroke-width="0.5" stroke-miterlimit="10"/>
<path d="M117.231 422.07C207.416 468.04 294.871 514.607 376.027 540.029C457.232 565.45 536.239 574.68 619.863 556.535C653.282 549.319 687.255 537.443 719.232 519.664C755.651 499.414 789.185 472.296 827.699 449.297C867.608 425.464 913.689 404.697 959.41 400.703C992.496 397.931 1022.03 404.074 1046.81 415.006C1077.06 428.354 1100.92 448.511 1118 471.245C1131.92 489.774 1142.89 510.36 1153.85 535.132C1167.23 565.667 1177.45 602.554 1189.56 640.76C1196.37 662.265 1204.07 684.679 1213.34 706.293C1233.74 753.846 1262.87 798.091 1305.77 829.027C1380.15 882.656 1478.84 883.224 1559.41 861.135C1640.01 839.066 1709.51 797.751 1787.01 764.919C1951.79 695.092 2154.49 666.102 2347.46 687.501" stroke="white" stroke-width="0.5" stroke-miterlimit="10"/>
<path d="M126.898 409.126C217.546 454.586 303.653 503.652 382.76 532C461.916 560.349 538.627 573.488 621.979 558.827C655.293 553.004 689.441 542.416 721.751 525.687C758.398 506.711 792.338 480.609 831.049 458.255C871.333 434.992 917.495 414.319 963.129 409.473C996.126 406.097 1025.62 411.169 1050.42 420.739C1080.72 432.43 1104.82 450.476 1122.56 471.29C1137.03 488.27 1148.8 507.421 1160.75 531.198C1175.34 560.507 1186.72 596.822 1199.76 634.667C1207.1 655.952 1215.25 678.195 1224.88 699.634C1246.08 746.801 1275.76 790.706 1318.76 821.712C1393.31 875.471 1491.46 877.886 1572.28 858.22C1653.15 838.577 1723.45 800.136 1801.54 769.583C1967.58 704.604 2170.53 677.68 2364.05 697.858" stroke="white" stroke-width="0.5" stroke-miterlimit="10"/>
<path d="M136.564 396.182C227.675 441.131 312.434 492.696 389.493 523.972C466.599 555.248 541.015 572.297 624.095 561.119C657.303 556.69 691.622 547.387 724.27 531.71C761.14 514.005 795.493 488.924 834.398 467.213C875.059 444.52 921.289 423.85 966.848 418.244C999.749 414.196 1029.21 418.263 1054.04 426.471C1084.38 436.505 1108.72 452.442 1127.12 471.334C1142.15 486.766 1154.75 504.454 1167.65 527.262C1183.51 555.313 1195.98 591.088 1209.97 628.572C1217.84 649.638 1226.43 671.71 1236.43 692.974C1258.43 739.756 1288.65 783.319 1331.75 814.395C1406.48 868.284 1504.08 872.547 1585.15 855.303C1666.28 838.087 1737.39 802.52 1816.07 774.247C1983.38 714.114 2186.57 689.258 2380.64 708.214" stroke="white" stroke-width="0.5" stroke-miterlimit="10"/>
<path d="M146.231 383.238C237.804 427.676 321.215 481.74 396.226 515.944C471.282 550.147 543.403 571.105 626.21 563.41C659.313 560.376 693.799 552.354 726.789 537.732C763.877 521.294 798.649 497.242 837.748 476.17C878.788 454.052 925.093 433.467 970.566 427.014C1003.38 422.358 1032.8 425.356 1057.65 432.203C1088.04 440.579 1112.62 454.41 1131.67 471.377C1147.27 485.263 1160.66 501.509 1174.55 523.327C1191.62 550.147 1205.24 585.354 1220.18 622.478C1228.57 643.324 1237.61 665.226 1247.97 686.313C1270.77 732.71 1301.54 775.932 1344.73 807.078C1419.64 861.096 1516.69 867.207 1598.02 852.387C1679.41 837.597 1751.33 804.904 1830.61 778.91C1999.18 723.625 2202.62 700.835 2397.23 718.569" stroke="white" stroke-width="0.5" stroke-miterlimit="10"/>
<path d="M155.898 370.294C247.934 414.222 329.996 470.785 402.96 507.915C475.965 545.045 545.791 569.913 628.326 565.702C661.324 564.061 695.972 557.318 729.307 543.756C766.61 528.58 801.807 505.562 841.097 485.128C882.518 463.586 928.897 443.086 974.285 435.785C1007.01 430.522 1036.4 432.448 1061.27 437.935C1091.71 444.652 1116.53 456.377 1136.23 471.421C1152.39 483.761 1166.57 498.564 1181.45 519.392C1199.73 544.981 1214.5 579.621 1230.39 616.384C1239.3 637.011 1248.79 658.741 1259.51 679.653C1283.12 725.665 1314.44 768.545 1357.72 799.762C1432.8 853.91 1529.31 861.867 1610.9 849.472C1692.55 837.107 1765.27 807.288 1845.14 783.574C2014.97 733.135 2218.66 712.413 2413.82 728.925" stroke="white" stroke-width="0.5" stroke-miterlimit="10"/>
<path d="M165.564 357.35C258.063 400.768 338.778 459.83 409.693 499.887C480.648 539.944 548.18 568.721 630.442 567.993C663.334 567.747 698.141 562.277 731.826 549.778C769.338 535.859 804.967 513.884 844.447 494.085C886.249 473.121 932.7 452.705 978.004 444.555C1010.64 438.685 1039.99 439.539 1064.88 443.667C1095.37 448.724 1120.45 458.342 1140.79 471.465C1157.52 482.257 1172.47 495.62 1188.35 515.457C1207.84 539.816 1223.76 573.887 1240.59 610.29C1250.03 630.697 1259.97 652.256 1271.05 672.993C1295.46 718.62 1327.33 761.159 1370.71 792.446C1445.97 846.723 1541.93 856.529 1623.77 846.556C1705.68 836.616 1779.21 809.673 1859.67 788.238C2030.77 742.647 2234.7 723.991 2430.4 739.282" stroke="white" stroke-width="0.5" stroke-miterlimit="10"/>
<path d="M175.231 344.406C268.193 387.314 347.559 448.874 416.426 491.859C485.331 534.843 550.567 567.529 632.558 570.284C665.344 571.433 700.307 567.231 734.345 555.801C772.064 543.134 808.129 522.209 847.797 503.043C889.984 482.659 936.504 462.324 981.723 453.325C1014.26 446.849 1043.58 446.63 1068.5 449.399C1099.04 452.795 1124.37 460.305 1145.35 471.509C1162.65 480.751 1178.38 492.675 1195.25 511.521C1215.95 534.65 1233.02 568.154 1250.8 604.196C1260.76 624.384 1271.14 645.772 1282.6 666.333C1307.81 711.574 1340.22 753.772 1383.69 785.128C1459.13 839.535 1554.54 851.188 1636.64 843.639C1718.82 836.126 1793.15 812.056 1874.21 792.901C2046.57 752.157 2250.74 735.568 2446.99 749.637" stroke="white" stroke-width="0.5" stroke-miterlimit="10"/>
<path d="M184.898 331.462C278.322 373.859 356.341 437.919 423.159 483.83C490.014 529.741 552.955 566.337 634.674 572.576C667.354 575.119 702.47 572.181 736.864 561.824C774.786 550.403 811.292 530.536 851.146 512C893.719 492.201 940.308 471.945 985.442 462.095C1017.89 455.014 1047.18 453.719 1072.11 455.131C1102.71 456.864 1128.3 462.263 1149.91 471.553C1167.79 479.241 1184.28 489.732 1202.15 507.586C1224.06 529.486 1242.28 562.422 1261.01 598.101C1271.49 618.071 1282.32 639.287 1294.14 659.673C1320.15 704.529 1353.11 746.385 1396.68 777.812C1472.29 832.349 1567.16 845.849 1649.52 840.723C1731.95 835.635 1807.09 814.44 1888.74 797.564C2062.36 761.667 2266.78 747.146 2463.58 759.993" stroke="white" stroke-width="0.5" stroke-miterlimit="10"/>
<path d="M194.564 318.518C288.451 360.405 365.122 426.963 429.892 475.802C494.697 524.641 555.344 565.146 636.789 574.868C669.364 578.804 704.632 577.126 739.382 567.847C777.505 557.667 814.456 538.866 854.496 520.958C897.455 501.745 944.112 481.566 989.16 470.866C1021.52 463.179 1050.77 461.002 1075.73 460.864C1106.37 460.695 1132.23 464.216 1154.46 471.597C1172.93 477.727 1190.18 486.789 1209.04 503.651C1232.16 524.321 1251.54 556.689 1271.22 592.007C1282.22 611.758 1293.5 632.803 1305.68 653.012C1332.5 697.484 1366 738.999 1409.67 770.495C1485.46 825.161 1579.78 840.51 1662.39 837.807C1745.09 835.145 1821.03 816.824 1903.27 802.228C2078.16 771.178 2282.82 758.723 2480.17 770.349" stroke="white" stroke-width="0.5" stroke-miterlimit="10"/>
<path d="M204.231 305.574C298.581 346.95 373.904 416.008 436.625 467.774C499.38 519.539 557.732 563.954 638.905 577.159C671.375 582.49 706.791 582.065 741.901 573.87C780.223 564.925 817.622 547.198 857.845 529.916C901.193 511.291 947.916 491.189 992.879 479.636C1025.15 471.344 1054.36 467.895 1079.34 466.596C1110.04 465 1136.16 466.162 1159.02 471.641C1178.08 476.207 1196.09 483.847 1215.94 499.716C1240.27 519.158 1260.8 550.958 1281.42 585.914C1292.95 605.446 1304.68 626.318 1317.23 646.353C1344.85 690.439 1378.9 731.613 1422.66 763.179C1498.62 817.975 1592.39 835.171 1675.26 834.892C1758.22 834.655 1834.96 819.208 1917.81 806.892C2093.95 780.689 2298.87 770.301 2496.76 780.705" stroke="white" stroke-width="0.5" stroke-miterlimit="10"/>
<path d="M213.898 292.63C308.711 333.496 382.685 405.052 443.359 459.745C504.064 514.438 560.121 562.762 641.022 579.451C673.386 586.175 708.949 586.999 744.42 579.892C782.939 572.176 820.789 555.533 861.196 538.873C904.933 520.84 951.721 500.811 996.598 488.406C1028.78 479.51 1057.96 474.981 1082.96 472.328C1113.71 469.064 1140.1 468.101 1163.58 471.684C1183.22 474.681 1201.99 480.904 1222.84 495.78C1248.38 513.995 1270.05 545.226 1291.63 579.819C1303.68 599.132 1315.86 619.833 1328.77 639.692C1357.19 683.393 1391.79 724.226 1435.64 755.862C1511.78 810.788 1605.01 829.832 1688.14 831.976C1771.36 834.165 1848.9 821.593 1932.34 811.555C2109.75 790.2 2314.91 781.879 2513.35 791.06" stroke="white" stroke-width="0.5" stroke-miterlimit="10"/>
<path d="M223.564 279.686C318.84 320.042 391.467 394.097 450.092 451.717C508.746 509.337 562.508 561.57 643.137 581.742C675.395 589.86 711.106 591.926 746.938 585.915C785.654 579.421 823.956 563.871 864.545 547.831C908.672 530.392 955.524 510.434 1000.32 497.176C1032.41 487.677 1061.55 482.065 1086.57 478.06C1117.38 473.129 1144.03 470.033 1168.14 471.728C1188.36 473.15 1207.89 477.963 1229.74 491.846C1256.48 508.834 1279.31 539.495 1301.84 573.725C1314.41 592.82 1327.04 613.349 1340.31 633.032C1369.54 676.348 1404.68 716.839 1448.63 748.545C1524.94 803.601 1617.63 824.492 1701.01 829.059C1784.49 833.675 1862.84 823.976 1946.87 816.219C2125.54 799.711 2330.95 793.457 2529.94 801.416" stroke="white" stroke-width="0.5" stroke-miterlimit="10"/>
<path d="M233.231 266.741C328.969 306.587 400.248 383.141 456.824 443.689C513.429 504.236 564.896 560.379 645.253 584.034C677.406 593.546 713.263 596.848 749.457 591.938C788.369 586.66 827.125 572.211 867.894 556.788C912.413 539.947 959.329 520.059 1004.03 505.947C1036.04 495.844 1065.14 489.149 1090.19 483.792C1121.04 477.191 1147.97 472.575 1172.7 471.772C1193.49 471.097 1213.79 475.023 1236.64 487.91C1264.59 503.673 1288.56 533.765 1312.05 567.63C1325.14 586.509 1338.22 606.864 1351.86 626.372C1381.88 669.303 1417.57 709.453 1461.62 741.229C1538.11 796.414 1630.24 819.153 1713.88 826.144C1797.62 833.185 1876.78 826.36 1961.41 820.882C2141.34 809.221 2346.99 805.034 2546.53 811.772" stroke="white" stroke-width="0.5" stroke-miterlimit="10"/>
<path d="M242.898 253.798C339.099 293.133 409.03 372.186 463.559 435.66C518.113 499.134 567.285 559.186 647.369 586.325C679.417 597.232 715.422 601.764 751.977 597.961C791.085 593.892 830.295 580.554 871.245 565.746C916.156 549.505 963.135 529.683 1007.75 514.717C1039.67 504.012 1068.74 496.232 1093.8 489.524C1124.71 481.253 1151.89 473.883 1177.26 471.816C1198.64 470.074 1219.7 472.083 1243.54 483.975C1272.7 498.513 1297.82 528.035 1322.25 561.536C1335.86 580.197 1349.4 600.379 1363.4 619.712C1394.23 662.257 1430.47 702.066 1474.6 733.912C1551.27 789.227 1642.86 813.814 1726.76 823.228C1810.76 832.695 1890.72 828.745 1975.94 825.546C2157.14 818.733 2363.03 816.612 2563.12 822.128" stroke="white" stroke-width="0.5" stroke-miterlimit="10"/>
<path d="M252.565 240.854C349.228 279.678 417.811 361.231 470.291 427.632C522.795 494.033 569.673 557.994 649.485 588.617C681.427 600.917 717.579 606.675 754.495 603.983C793.801 601.118 833.464 588.899 874.593 574.703C919.898 559.066 966.94 539.308 1011.47 523.487C1043.3 512.18 1072.33 503.314 1097.42 495.256C1128.37 485.314 1155.81 475.801 1181.81 471.86C1203.78 468.531 1225.6 469.144 1250.44 480.04C1280.8 493.354 1307.07 522.305 1332.46 555.442C1346.59 573.885 1360.57 593.895 1374.94 613.051C1406.57 655.211 1443.36 694.679 1487.59 726.595C1564.43 782.04 1655.48 808.474 1739.63 820.312C1823.89 832.205 1904.66 831.129 1990.48 830.21C2172.93 828.243 2379.07 828.19 2579.7 832.484" stroke="white" stroke-width="0.5" stroke-miterlimit="10"/>
<path d="M262.231 227.909C359.358 266.224 426.593 350.275 477.025 419.604C527.479 488.932 572.061 556.803 651.601 590.908C683.438 604.603 719.739 611.579 757.014 610.007C796.519 608.34 836.635 597.248 877.944 583.661C923.642 568.631 970.779 549.023 1015.19 532.258C1046.95 520.411 1075.92 510.395 1101.03 500.988C1132.04 489.373 1159.73 477.717 1186.37 471.903C1208.91 466.986 1231.48 466.257 1257.34 476.104C1288.88 488.258 1316.33 516.577 1342.67 549.348C1357.32 567.575 1371.75 587.41 1386.49 606.391C1418.92 648.166 1456.25 687.293 1500.58 719.278C1577.6 774.853 1668.09 803.135 1752.5 817.395C1837.03 831.714 1918.6 833.512 2005.01 834.873C2188.73 837.754 2395.11 839.767 2596.3 842.839" stroke="white" stroke-width="0.5" stroke-miterlimit="10"/>
<path d="M271.898 214.966C369.488 252.77 435.374 339.32 483.758 411.575C532.162 483.831 574.449 555.611 653.717 593.2C685.448 608.288 721.934 617.673 759.532 616.029C799.204 614.295 839.805 605.599 881.293 592.619C927.385 578.198 974.585 558.644 1018.91 541.028C1050.58 528.577 1079.51 517.477 1104.65 506.721C1135.7 493.433 1163.64 479.633 1190.93 471.948C1214.04 465.44 1237.39 463.318 1264.24 472.169C1296.99 483.098 1325.58 510.849 1352.88 543.254C1368.05 561.264 1382.93 580.925 1398.03 599.731C1431.27 641.121 1469.14 679.906 1513.56 711.962C1590.76 767.666 1680.71 797.795 1765.38 814.479C1850.16 831.224 1932.54 835.896 2019.54 839.536C2204.53 847.264 2411.15 851.345 2612.88 853.195" stroke="white" stroke-width="0.5" stroke-miterlimit="10"/>
<path d="M281.565 202.021C379.617 239.315 444.155 328.364 490.491 403.546C536.845 478.729 576.837 554.418 655.832 595.49C687.458 611.973 724.064 621.372 762.051 622.051C801.961 622.765 842.976 613.952 884.643 601.575C931.129 587.767 978.391 568.265 1022.63 549.797C1054.21 536.741 1083.1 524.557 1108.26 512.452C1139.36 497.491 1167.55 481.546 1195.49 471.99C1219.16 463.893 1243.29 460.376 1271.14 468.233C1305.1 477.936 1334.77 505.177 1363.08 537.158C1378.74 554.984 1394.11 574.44 1409.57 593.07C1443.61 634.075 1482.03 672.518 1526.55 704.644C1603.93 760.478 1693.33 792.454 1778.25 811.563C1863.3 830.733 1946.48 838.279 2034.08 844.199C2220.32 856.774 2427.2 862.922 2629.47 863.551" stroke="white" stroke-width="0.5" stroke-miterlimit="10"/>
<path d="M291.231 189.077C389.746 225.861 452.937 317.409 497.224 395.519C541.528 473.628 579.225 553.227 657.948 597.783C689.468 615.66 726.23 626.262 764.569 628.075C804.686 629.972 846.147 622.309 887.992 610.534C934.873 597.342 982.197 577.888 1026.35 558.569C1057.84 544.907 1086.69 531.638 1111.87 518.185C1143.02 501.551 1171.46 483.463 1200.05 472.036C1224.28 462.348 1249.2 457.437 1278.04 464.299C1313.21 472.777 1344.03 499.448 1373.29 531.066C1389.47 548.674 1405.29 567.957 1421.12 586.411C1455.96 627.031 1494.92 665.133 1539.54 697.329C1617.09 753.293 1705.94 787.117 1791.12 808.648C1876.43 830.244 1960.42 840.665 2048.61 848.864C2236.12 866.287 2443.24 874.501 2646.06 873.907" stroke="white" stroke-width="0.5" stroke-miterlimit="10"/>
<path d="M300.898 176.133C399.876 212.406 461.719 306.453 503.957 387.49C546.211 468.526 581.613 552.035 660.064 600.074C691.479 619.345 728.399 631.146 767.088 634.097C807.415 637.173 849.318 630.667 891.342 619.491C938.618 606.918 986.003 587.509 1030.06 567.338C1061.47 553.072 1090.24 538.669 1115.49 523.916C1146.64 505.547 1175.37 485.377 1204.6 472.078C1229.4 460.8 1255.1 454.496 1284.94 460.363C1321.32 467.615 1353.29 493.717 1383.5 524.971C1400.2 542.362 1416.47 561.471 1432.66 579.75C1468.3 619.985 1507.82 657.746 1552.53 690.012C1630.25 746.105 1718.56 781.777 1803.99 805.731C1889.57 829.753 1974.36 843.048 2063.15 853.527C2251.91 875.796 2459.28 886.078 2662.65 884.262" stroke="white" stroke-width="0.5" stroke-miterlimit="10"/>
<path d="M310.565 163.189C410.005 198.952 470.5 295.498 510.69 379.462C550.894 463.426 584.001 550.844 662.18 602.366C693.489 623.031 730.572 636.028 769.607 640.121C810.147 644.371 852.489 639.029 894.691 628.449C942.362 616.498 989.809 597.131 1033.78 576.109C1065.11 561.238 1093.83 545.757 1119.11 529.649C1150.3 509.616 1179.27 487.294 1209.16 472.123C1234.52 459.256 1261.01 451.557 1291.84 456.429C1329.44 462.455 1362.55 487.989 1393.71 518.877C1410.93 536.051 1427.65 554.987 1444.2 573.09C1480.65 612.94 1520.71 650.359 1565.51 682.695C1643.41 738.918 1731.18 776.438 1816.87 802.816C1902.7 829.264 1988.3 845.433 2077.68 858.191C2267.71 885.308 2475.32 897.656 2679.24 894.619" stroke="white" stroke-width="0.5" stroke-miterlimit="10"/>
<path d="M320.231 150.245C420.135 185.498 479.281 284.543 517.423 371.434C555.577 458.325 586.389 549.652 664.295 604.657C695.499 626.716 732.747 640.904 772.125 646.144C812.881 651.566 855.659 647.393 898.04 637.406C946.105 626.081 993.614 606.753 1037.5 584.879C1068.74 569.403 1097.42 552.844 1122.72 535.381C1153.97 513.682 1183.17 489.211 1213.72 472.167C1239.63 457.711 1266.91 448.616 1298.74 452.493C1337.55 457.295 1371.8 482.259 1403.91 512.783C1421.66 529.739 1438.83 548.502 1455.75 566.43C1492.99 605.894 1533.6 642.973 1578.5 675.379C1656.58 731.732 1743.79 771.099 1829.74 799.9C1915.83 828.773 2002.24 847.817 2092.21 862.855C2283.51 894.819 2491.36 909.234 2695.83 904.975" stroke="white" stroke-width="0.5" stroke-miterlimit="10"/>
<path d="M329.898 137.301C430.264 172.043 488.063 273.587 524.157 363.405C560.26 453.223 588.778 548.459 666.412 606.948C697.51 630.401 734.927 645.777 774.645 652.166C815.621 658.756 858.831 655.758 901.391 646.363C949.85 635.666 997.421 616.374 1041.22 593.649C1072.37 577.568 1101.01 559.93 1126.34 541.113C1157.63 517.748 1187.07 491.129 1218.28 472.21C1244.75 456.167 1272.82 445.675 1305.64 448.558C1345.66 452.134 1381.06 476.53 1414.12 506.688C1432.39 523.428 1450.01 542.018 1467.29 559.77C1505.34 598.85 1546.49 635.587 1591.49 668.063C1669.74 724.545 1756.41 765.759 1842.61 796.984C1928.97 828.284 2016.18 850.201 2106.75 867.518C2299.3 904.329 2507.4 920.811 2712.42 915.331" stroke="white" stroke-width="0.5" stroke-miterlimit="10"/>
<path d="M339.565 124.357C440.393 158.589 496.844 262.632 530.89 355.377C564.943 448.122 591.166 547.268 668.527 609.24C699.52 634.088 737.11 650.649 777.163 658.19C818.364 665.946 862 664.128 904.739 655.322C953.592 645.256 1001.23 625.997 1044.94 602.42C1076 585.734 1104.6 567.018 1129.95 546.845C1161.29 521.816 1190.96 493.049 1222.84 472.254C1249.86 454.624 1278.73 442.735 1312.54 444.623C1353.77 446.973 1390.32 470.8 1424.33 500.594C1443.12 517.117 1461.19 535.533 1478.83 553.11C1517.69 591.804 1559.39 628.199 1604.47 660.745C1682.9 717.358 1769.03 760.42 1855.49 794.068C1942.1 827.793 2030.11 852.585 2121.28 872.182C2315.1 913.841 2523.45 932.389 2729.01 925.687" stroke="white" stroke-width="0.5" stroke-miterlimit="10"/>
<path d="M349.231 111.413C450.523 145.134 505.625 251.676 537.623 347.348C569.626 443.02 593.554 546.076 670.643 611.531C701.53 637.773 739.297 655.516 779.682 664.212C821.111 673.131 865.169 672.499 908.089 664.279C957.335 654.848 1005.03 635.618 1048.66 611.19C1079.63 593.9 1108.19 574.106 1133.56 552.578C1164.95 525.883 1194.82 494.921 1227.39 472.298C1254.94 453.041 1284.63 439.795 1319.44 440.688C1361.88 441.813 1399.58 465.071 1434.53 494.501C1453.85 510.806 1472.36 529.049 1490.38 546.45C1530.03 584.759 1572.28 620.813 1617.46 653.429C1696.07 710.171 1781.64 755.081 1868.36 791.153C1955.24 827.303 2044.05 854.97 2135.81 876.846C2330.89 923.351 2539.49 943.967 2745.59 936.043" stroke="white" stroke-width="0.5" stroke-miterlimit="10"/>
<path d="M358.898 98.469C460.653 131.68 514.407 240.721 544.356 339.32C574.309 437.92 595.942 544.884 672.759 613.823C703.54 641.459 741.488 660.383 782.201 670.235C823.863 680.317 868.353 680.957 911.439 673.237C961.094 664.539 1008.84 645.24 1052.38 619.961C1083.26 602.065 1111.78 581.193 1137.18 558.31C1168.61 529.949 1198.73 496.86 1231.95 472.342C1260.06 451.515 1290.54 436.855 1326.34 436.753C1369.99 436.652 1408.84 459.341 1444.74 488.406C1464.58 504.493 1483.54 522.564 1501.92 539.789C1542.38 577.713 1585.17 613.426 1630.45 646.112C1709.23 702.983 1794.26 749.741 1881.23 788.236C1968.37 826.812 2057.99 857.353 2150.35 881.508C2346.69 932.861 2555.53 955.544 2762.18 946.398" stroke="white" stroke-width="0.5" stroke-miterlimit="10"/>
<path d="M368.565 85.5251C470.782 118.226 523.189 229.765 551.09 331.292C578.993 432.818 598.331 543.693 674.875 616.115C705.551 645.144 743.7 665.18 784.719 676.257C826.637 687.43 871.513 689.291 914.788 682.194C964.827 674.09 1012.64 654.861 1056.09 628.731C1086.89 610.23 1115.36 588.28 1140.79 564.042C1172.27 534.017 1202.63 498.799 1236.51 472.386C1265.18 449.989 1296.44 433.915 1333.24 432.818C1378.1 431.492 1418.1 453.612 1454.95 482.312C1475.31 498.183 1494.72 516.079 1513.46 533.13C1554.72 570.668 1598.06 606.04 1643.43 638.796C1722.39 695.797 1806.87 744.402 1894.11 785.32C1981.51 826.323 2071.93 859.737 2164.88 886.173C2362.49 942.373 2571.57 967.122 2778.77 956.754" stroke="white" stroke-width="0.5" stroke-miterlimit="10"/>
<path d="M378.232 72.5808C480.912 104.771 531.971 218.809 557.823 323.263C583.676 427.717 600.719 542.5 676.991 618.406C738.71 679.828 832.014 703.98 918.139 691.152C1004.26 678.323 1083.01 631.51 1144.41 569.773C1202.62 511.251 1257.72 433.445 1340.14 428.881C1411.66 424.921 1471.32 479.047 1525.01 526.469C1869.58 830.821 2336.33 992.718 2795.36 967.11" stroke="white" stroke-width="0.5" stroke-miterlimit="10"/>
<path d="M369.412 82.1938C471.456 113.378 523.215 224.836 550.375 327.311C577.489 429.766 595.949 542.584 671.907 617.585C733.828 678.58 826.539 703.371 912.374 691.839C988.306 681.664 1058.71 645.358 1116.92 595.429C1124.54 588.883 1131.96 582.104 1139.15 575.121C1197.93 518.003 1253.55 441.51 1335.67 436.035C1406.83 431.337 1466.42 482.987 1520.22 528.228C1866.12 818.243 2333.28 974.552 2791.27 953.694" stroke="white" stroke-width="0.5" stroke-miterlimit="10"/>
<path d="M360.592 91.8064C462 121.985 514.46 230.862 542.926 331.359C571.301 431.815 591.178 542.667 666.823 616.765C728.944 677.331 821.064 702.763 906.609 692.527C982.33 683.518 1052.77 648.812 1111.46 600.25C1119.15 593.884 1126.63 587.28 1133.88 580.468C1193.24 524.754 1249.38 449.574 1331.21 443.188C1402.01 437.754 1461.53 486.926 1515.43 529.988C1862.66 805.664 2330.24 956.385 2787.19 940.278" stroke="white" stroke-width="0.5" stroke-miterlimit="10"/>
<path d="M351.772 101.419C452.545 130.592 505.705 236.889 535.478 335.407C565.116 433.863 586.409 542.75 661.74 615.943C724.062 676.082 815.59 702.154 900.845 693.214C976.355 685.371 1046.83 652.265 1105.99 605.069C1113.75 598.883 1121.29 592.454 1128.62 585.814C1188.55 531.504 1245.21 457.638 1326.74 450.34C1397.18 444.169 1456.54 490.988 1510.65 531.746C1858.61 793.88 2327.19 938.217 2783.1 926.862" stroke="white" stroke-width="0.5" stroke-miterlimit="10"/>
<path d="M342.953 111.032C443.09 139.199 496.95 242.916 528.03 339.455C558.929 435.912 581.477 543.003 656.656 615.123C719.045 674.974 810.116 701.546 895.08 693.902C970.38 687.225 1040.88 655.719 1100.53 609.891C1108.35 603.883 1115.96 597.63 1123.36 591.162C1183.86 538.256 1241.04 465.703 1322.27 457.493C1392.36 450.585 1451.63 494.97 1505.86 533.505C1854.99 781.575 2324.15 920.051 2779.01 913.446" stroke="white" stroke-width="0.5" stroke-miterlimit="10"/>
<path d="M334.133 120.645C433.634 147.806 488.194 248.942 520.582 343.503C552.742 437.961 576.674 543.123 651.572 614.302C714.134 673.757 804.642 700.937 889.316 694.589C964.405 689.079 1034.94 659.172 1095.07 614.711C1102.95 608.882 1110.63 602.805 1118.1 596.508C1179.17 545.007 1236.87 473.766 1317.81 464.645C1387.53 457.001 1446.71 498.951 1501.07 535.265C1851.4 769.271 2321.11 901.884 2774.93 900.03" stroke="white" stroke-width="0.5" stroke-miterlimit="10"/>
<path d="M325.313 130.258C424.179 156.413 479.44 254.969 513.134 347.552C546.556 440.011 571.873 543.242 646.489 613.482C709.225 672.54 799.168 700.329 883.552 695.277C958.429 690.933 1029 662.626 1089.61 619.532C1097.55 613.883 1105.3 607.981 1112.83 601.856C1174.48 551.758 1232.7 481.831 1313.35 471.798C1382.71 463.417 1441.8 502.932 1496.29 537.024C1847.82 756.967 2318.06 883.717 2770.84 886.615" stroke="white" stroke-width="0.5" stroke-miterlimit="10"/>
<path d="M316.493 139.87C414.723 165.02 470.684 260.996 505.685 351.599C540.368 442.059 567.074 543.357 641.404 612.66C704.317 671.319 793.693 699.72 877.787 695.964C952.453 692.786 1023.06 666.079 1084.15 624.352C1092.15 618.882 1099.96 613.155 1107.57 607.202C1169.79 558.509 1228.53 489.895 1308.88 478.95C1377.88 469.832 1436.89 506.913 1491.5 538.782C1844.28 744.66 2315.02 865.55 2766.76 873.198" stroke="white" stroke-width="0.5" stroke-miterlimit="10"/>
<path d="M307.673 149.483C405.268 173.626 461.929 267.022 498.237 355.647C534.182 444.107 562.279 543.47 636.321 611.84C699.412 670.098 788.219 699.111 872.023 696.652C946.479 694.641 1017.12 669.533 1078.69 629.172C1086.76 623.882 1094.63 618.331 1102.31 612.549C1165.11 565.26 1224.34 497.781 1304.42 486.103C1373.03 476.096 1431.99 510.893 1486.72 540.542C1840.75 732.348 2311.98 847.383 2762.67 859.782" stroke="white" stroke-width="0.5" stroke-miterlimit="10"/>
<path d="M298.853 159.096C395.812 182.234 453.173 273.049 490.788 359.696C527.995 446.157 557.486 543.582 631.237 611.02C694.508 668.876 782.744 698.503 866.257 697.34C940.502 696.495 1011.17 672.986 1073.23 633.994C1081.36 628.882 1089.3 623.507 1097.05 617.897C1160.42 572.012 1220.16 505.83 1299.95 493.256C1368.2 482.5 1427.09 514.872 1481.93 542.301C1837.26 720.03 2308.93 829.217 2758.58 846.367" stroke="white" stroke-width="0.5" stroke-miterlimit="10"/>
<path d="M290.034 168.708C386.357 190.84 444.419 279.075 483.34 363.743C521.809 448.205 552.697 543.69 626.154 610.198C689.607 667.65 777.271 697.894 860.494 698.026C934.528 698.348 1005.23 676.439 1067.77 638.813C1075.96 633.881 1083.97 628.681 1091.79 623.243C1155.73 578.762 1215.99 513.88 1295.49 500.408C1363.38 488.903 1422.19 518.847 1477.14 544.059C1833.79 707.698 2305.89 811.048 2754.5 832.95" stroke="white" stroke-width="0.5" stroke-miterlimit="10"/>
<path d="M281.213 178.321C376.901 199.448 435.663 285.102 475.892 367.792C515.622 450.254 547.91 543.796 621.07 609.378C684.708 666.424 771.796 697.286 854.729 698.714C928.552 700.202 999.29 679.893 1062.31 643.634C1070.56 638.881 1078.63 633.857 1086.52 628.59C1151.04 585.514 1211.81 521.933 1291.02 507.561C1358.55 495.309 1417.3 522.822 1472.36 545.819C1830.34 695.355 2302.84 792.882 2750.41 819.535" stroke="white" stroke-width="0.5" stroke-miterlimit="10"/>
<path d="M272.394 187.934C367.446 208.055 427.074 291.043 468.444 371.84C509.6 452.219 543.125 543.9 615.986 608.557C679.81 665.195 766.322 696.677 848.964 699.402C922.577 702.056 993.347 683.347 1056.85 648.455C1065.16 643.881 1073.3 639.032 1081.26 633.937C1146.35 592.265 1207.64 529.986 1286.56 514.714C1353.72 501.716 1412.41 526.794 1467.57 547.578C1826.92 682.993 2299.8 774.715 2746.32 806.119" stroke="white" stroke-width="0.5" stroke-miterlimit="10"/>
<path d="M263.574 197.546C357.99 216.661 418.325 297.061 460.995 375.888C503.42 454.259 538.343 544.001 610.902 607.736C674.915 663.965 760.848 696.068 843.2 700.089C916.601 703.909 987.406 686.799 1051.39 653.275C1059.77 648.881 1067.97 644.207 1076 639.284C1141.66 599.016 1203.46 538.042 1282.09 521.867C1348.89 508.125 1407.53 530.762 1462.78 549.337C1823.52 670.613 2296.76 756.549 2742.24 792.703" stroke="white" stroke-width="0.5" stroke-miterlimit="10"/>
<path d="M254.754 207.159C348.535 225.269 409.575 303.08 453.547 379.936C497.238 456.3 533.563 544.1 605.818 606.915C670.022 662.732 755.373 695.459 837.435 700.777C910.625 705.763 981.463 690.253 1045.93 658.096C1054.37 653.881 1062.64 649.383 1070.73 644.631C1136.97 605.766 1199.29 546.098 1277.63 529.019C1344.06 514.535 1402.65 534.727 1458 551.096C1820.15 658.207 2293.71 738.381 2738.15 779.287" stroke="white" stroke-width="0.5" stroke-miterlimit="10"/>
<path d="M245.934 216.772C339.079 233.875 400.823 309.098 446.099 383.983C491.055 458.341 528.787 544.195 600.735 606.095C665.131 661.497 749.899 694.851 831.671 701.464C904.651 707.617 975.521 693.707 1040.47 662.917C1048.97 658.881 1057.3 654.559 1065.47 649.978C1132.28 612.518 1195.12 554.157 1273.16 536.172C1339.23 520.947 1397.77 538.687 1453.21 552.856C1816.79 645.776 2290.67 720.214 2734.06 765.871" stroke="white" stroke-width="0.5" stroke-miterlimit="10"/>
<path d="M237.114 226.385C329.623 242.483 392.071 315.117 438.651 388.032C484.871 460.383 524.012 544.289 595.651 605.274C660.242 660.261 744.424 694.243 825.907 702.153C898.675 709.472 969.579 697.161 1035.01 667.738C1043.57 663.881 1051.97 659.734 1060.21 655.326C1127.59 619.27 1190.94 562.218 1268.7 543.325C1334.4 527.36 1392.9 542.643 1448.42 554.615C1813.45 633.315 2287.62 702.048 2729.98 752.456" stroke="white" stroke-width="0.5" stroke-miterlimit="10"/>
<path d="M228.294 235.997C320.168 251.089 383.316 321.137 431.202 392.079C478.684 462.424 519.24 544.379 590.567 604.453C655.356 659.021 738.95 693.633 820.142 702.839C892.699 711.324 963.636 700.614 1029.55 672.558C1038.17 668.88 1046.64 664.909 1054.95 660.672C1122.91 626.02 1186.77 570.279 1264.23 550.477C1329.57 533.774 1388.03 546.594 1443.64 556.373C1810.13 620.822 2284.58 683.88 2725.89 739.04" stroke="white" stroke-width="0.5" stroke-miterlimit="10"/>
<path d="M219.475 245.61C310.712 259.696 374.56 327.156 423.755 396.127C472.498 464.466 514.472 544.466 585.484 603.632C650.472 657.779 733.476 693.024 814.378 703.527C886.725 713.178 957.695 704.067 1024.09 677.378C1032.77 673.88 1041.31 670.084 1049.69 666.019C1118.22 632.771 1182.6 578.343 1259.77 557.63C1324.74 540.19 1383.15 550.54 1438.85 558.132C1806.82 608.294 2281.54 665.713 2721.81 725.623" stroke="white" stroke-width="0.5" stroke-miterlimit="10"/>
<path d="M210.654 255.223C301.257 268.303 365.803 333.177 416.306 400.176C466.308 466.51 509.705 544.551 580.399 602.812C645.589 656.535 728.001 692.416 808.613 704.214C880.749 715.032 951.752 707.521 1018.63 682.199C1027.37 678.88 1035.97 675.259 1044.42 671.366C1113.53 639.523 1178.42 586.408 1255.3 564.783C1319.92 546.607 1378.28 554.481 1434.06 559.892C1803.51 595.734 2278.49 647.547 2717.72 712.209" stroke="white" stroke-width="0.5" stroke-miterlimit="10"/>
<path d="M201.835 264.836C291.802 276.91 357.044 339.199 408.858 404.224C460.118 468.554 504.941 544.633 575.316 601.991C640.71 655.288 722.528 691.808 802.849 704.902C874.773 716.886 945.811 710.974 1013.17 687.019C1021.98 683.88 1030.64 680.434 1039.16 676.713C1108.84 646.273 1174.25 594.474 1250.84 571.935C1315.09 553.025 1373.41 558.415 1429.28 561.65C1800.2 583.134 2275.45 629.379 2713.63 698.792" stroke="white" stroke-width="0.5" stroke-miterlimit="10"/>
<path d="M193.015 274.449C282.345 285.517 348.284 345.222 401.409 408.272C453.926 470.599 500.179 544.712 570.232 601.17C635.831 654.039 717.053 691.199 797.084 705.589C868.798 718.74 939.868 714.428 1007.71 691.84C1016.58 688.88 1025.31 685.61 1033.9 682.06C1104.15 653.024 1170.08 602.543 1246.37 579.088C1310.26 559.445 1368.54 562.345 1424.49 563.41C1796.9 570.5 2272.4 611.212 2709.55 685.376" stroke="white" stroke-width="0.5" stroke-miterlimit="10"/>
<path d="M184.195 284.061C272.89 294.124 339.522 351.246 393.961 412.32C447.732 472.645 495.419 544.788 565.148 600.349C630.956 652.786 711.578 690.591 791.319 706.277C862.822 720.594 933.926 717.881 1002.25 696.661C1011.18 693.879 1019.98 690.785 1028.63 687.407C1099.46 659.776 1165.91 610.614 1241.91 586.241C1305.43 565.867 1363.67 566.268 1419.71 565.169C1793.58 557.83 2269.36 593.046 2705.46 671.96" stroke="white" stroke-width="0.5" stroke-miterlimit="10"/>
<path d="M175.375 293.674C263.435 302.73 330.759 357.271 386.513 416.368C441.538 474.693 490.662 544.86 560.064 599.529C626.082 651.531 706.104 689.982 785.555 706.964C856.847 722.447 927.984 721.335 996.789 701.481C1005.78 698.879 1014.64 695.96 1023.37 692.754C1094.77 666.527 1161.74 618.685 1237.44 593.393C1300.61 572.289 1358.8 570.188 1414.92 566.927C1790.26 545.124 2266.32 574.878 2701.37 658.544" stroke="white" stroke-width="0.5" stroke-miterlimit="10"/>
<path d="M166.555 303.287C253.979 311.337 321.995 363.298 379.065 420.416C435.343 476.742 485.907 544.93 554.981 598.707C621.212 650.272 700.63 689.373 779.791 707.651C850.872 724.301 922.042 724.788 991.329 706.301C1000.38 703.879 1009.31 701.135 1018.11 698.101C1090.08 673.278 1157.57 626.759 1232.98 600.546C1295.78 578.713 1353.93 574.102 1410.13 568.687C1786.92 532.387 2263.27 556.712 2697.29 645.128" stroke="white" stroke-width="0.5" stroke-miterlimit="10"/>
<path d="M157.735 312.899C244.524 319.945 313.23 369.326 371.616 424.463C429.146 478.792 481.154 544.996 549.897 597.887C616.343 649.01 695.156 688.764 774.026 708.339C844.896 726.155 916.099 728.241 985.868 711.122C994.985 708.878 1003.98 706.31 1012.85 703.447C1085.4 680.029 1153.4 634.833 1228.51 607.698C1290.96 585.138 1349.05 578.011 1405.35 570.446C1783.57 519.618 2260.23 538.544 2693.2 631.712" stroke="white" stroke-width="0.5" stroke-miterlimit="10"/>
<path d="M148.916 322.512C235.068 328.552 304.464 375.356 364.168 428.512C422.948 480.845 476.404 545.06 544.813 597.066C611.477 647.745 689.681 688.156 768.262 709.027C838.921 728.009 910.157 731.695 980.408 715.943C989.586 713.879 998.645 711.486 1007.58 708.795C1080.71 686.78 1149.23 642.91 1224.05 614.851C1286.14 591.565 1344.17 581.918 1400.56 572.205C1780.19 506.822 2257.18 520.378 2689.11 618.296" stroke="white" stroke-width="0.5" stroke-miterlimit="10"/>
<path d="M140.095 332.125C225.612 337.159 295.697 381.388 356.719 432.56C416.749 482.899 471.655 545.12 539.729 596.245C606.612 646.476 684.207 687.547 762.497 709.714C832.945 729.862 904.215 735.148 974.948 720.763C984.188 718.878 993.312 716.661 1002.32 714.141C1076.02 693.53 1145.06 650.988 1219.58 622.003C1281.31 597.992 1339.28 585.819 1395.78 573.964C1776.8 493.999 2254.14 502.21 2685.03 604.88" stroke="white" stroke-width="0.5" stroke-miterlimit="10"/>
<path d="M131.276 341.737C216.157 345.765 286.93 387.422 349.272 436.607C410.551 484.954 466.909 545.176 534.646 595.424C601.751 645.204 678.733 686.938 756.733 710.401C826.97 731.716 898.273 738.602 969.488 725.584C978.79 723.878 987.98 721.836 997.06 719.488C1071.33 700.282 1140.9 659.068 1215.12 629.156C1276.49 604.421 1334.4 589.718 1390.99 575.723C1773.37 481.155 2251.1 484.043 2680.94 591.464" stroke="white" stroke-width="0.5" stroke-miterlimit="10"/>
<path d="M122.456 351.35C206.702 354.373 278.07 393.58 341.823 440.656C404.261 487.133 462.164 545.23 529.562 594.604C596.891 643.928 673.258 686.33 750.968 711.089C820.994 733.57 892.331 742.055 964.027 730.404C973.391 728.878 982.647 727.012 991.797 724.836C1066.64 707.033 1136.73 667.149 1210.65 636.309C1271.67 610.852 1329.51 593.615 1386.2 577.482C1769.93 468.293 2248.05 465.877 2676.85 578.048" stroke="white" stroke-width="0.5" stroke-miterlimit="10"/>
<path d="M113.636 360.963C197.246 362.979 269.316 399.606 334.375 444.704C398.075 489.182 457.422 545.28 524.479 593.783C592.034 642.648 667.784 685.721 745.204 711.777C815.019 735.424 886.389 745.509 958.567 735.225C967.993 733.878 977.315 732.188 986.535 730.183C1061.95 713.785 1132.63 675.371 1206.19 643.463C1266.9 617.398 1324.61 597.511 1381.42 579.242C1766.46 455.416 2245.01 447.711 2672.77 564.633" stroke="white" stroke-width="0.5" stroke-miterlimit="10"/>
<path d="M104.816 370.576C187.79 371.586 260.56 405.633 326.927 448.752C391.888 491.23 452.681 545.326 519.395 592.962C587.179 641.363 662.31 685.112 739.44 712.464C809.044 737.278 880.447 748.962 953.107 740.046C962.595 738.878 971.982 737.363 981.272 735.529C1057.26 720.535 1128.46 683.434 1201.72 650.614C1262.07 623.813 1319.71 601.402 1376.63 581C1762.95 442.525 2241.96 429.543 2668.68 551.216" stroke="white" stroke-width="0.5" stroke-miterlimit="10"/>
<path d="M95.9961 380.188C178.335 380.193 251.805 411.66 319.478 452.8C385.702 493.279 447.942 545.369 514.311 592.141C582.327 640.075 656.835 684.504 733.675 713.152C803.069 739.131 874.505 752.416 947.647 744.866C957.196 743.878 966.65 742.538 976.01 740.876C1052.57 727.287 1124.29 691.499 1197.26 657.767C1257.25 630.229 1314.81 605.294 1371.84 582.76C1759.43 429.626 2238.92 411.377 2664.6 537.801" stroke="white" stroke-width="0.5" stroke-miterlimit="10"/>
<path d="M87.1763 389.801C168.879 388.8 243.049 417.686 312.03 456.848C379.515 495.328 443.205 545.408 509.227 591.32C577.476 638.782 651.361 683.895 727.91 713.839C797.092 740.985 868.562 755.869 942.186 749.687C951.797 748.877 961.317 747.713 970.747 746.223C1047.88 734.037 1120.12 699.563 1192.79 664.919C1252.42 636.644 1309.9 609.184 1367.06 584.518C1755.87 416.72 2235.87 393.209 2660.51 524.384" stroke="white" stroke-width="0.5" stroke-miterlimit="10"/>
<path d="M78.3564 399.414C159.424 397.407 234.295 423.712 304.582 460.896C373.328 497.377 438.543 545.338 504.143 590.501C572.705 637.375 645.887 683.287 722.146 714.527C791.118 742.84 862.62 759.324 936.726 754.508C946.4 753.878 955.985 752.889 965.485 751.571C1043.2 740.79 1115.95 707.628 1188.33 672.073C1247.6 643.062 1304.95 612.978 1362.27 586.278C1751.99 403.149 2232.83 375.043 2656.42 510.97" stroke="white" stroke-width="0.5" stroke-miterlimit="10"/>
<path d="M69.5366 409.027C149.969 406.014 225.539 429.739 297.133 464.944C367.141 499.426 433.773 545.42 499.059 589.679C567.822 636.125 640.412 682.678 716.382 715.214C785.142 744.693 856.678 762.776 931.265 759.328C941.001 758.877 950.652 758.064 960.222 756.918C1038.51 747.54 1111.78 715.691 1183.86 679.225C1242.77 649.477 1300.05 616.917 1357.48 588.037C1748.53 390.57 2229.79 356.876 2652.34 497.553" stroke="white" stroke-width="0.5" stroke-miterlimit="10"/>
<path d="M60.7168 418.64C218.524 410.693 362.543 501.158 493.976 588.859C625.408 676.56 767.859 768.528 925.805 764.149C1081.11 759.843 1215.98 663.595 1352.7 589.796C1745.07 377.991 2226.74 338.709 2648.25 484.137" stroke="white" stroke-width="0.5" stroke-miterlimit="10"/>
</mask>
<g mask="url(#mask0_1270_53306)">
<rect opacity="0.6" x="-130" y="-120" width="3016" height="1330" fill="url(#paint0_linear_1270_53306)"/>
</g>
<defs>
<linearGradient id="paint0_linear_1270_53306" x1="3090.4" y1="-282.144" x2="-262.834" y2="109.33" gradientUnits="userSpaceOnUse">
<stop stop-color="#C52EA3"/>
<stop offset="0.921133" stop-color="#4749CA"/>
</linearGradient>
</defs>
</svg>
